G04 #@! TF.GenerationSoftware,KiCad,Pcbnew,10.0.1*
G04 #@! TF.CreationDate,2026-08-22T13:39:05+02:00*
G04 #@! TF.ProjectId,v7-raw-34,76372d72-6177-42d3-9334-2e6b69636164,1.3*
G04 #@! TF.SameCoordinates,Original*
G04 #@! TF.FileFunction,Profile,NP*
%FSLAX46Y46*%
G04 Gerber Fmt 4.6, Leading zero omitted, Abs format (unit mm)*
G04 Created by KiCad (PCBNEW 10.0.1) date 2026-08-22 13:39:05*
%MOMM*%
%LPD*%
G01*
G04 APERTURE LIST*
G04 #@! TA.AperFunction,Profile*
%ADD10C,0.050000*%
G04 #@! TD*
G04 APERTURE END LIST*
D10*
X59879500Y-68000000D02*
X59879500Y-44000000D01*
X59879500Y-148600000D02*
X115650000Y-148600000D01*
X198000000Y-44000000D02*
X198000000Y-135000000D01*
X59879500Y-44000000D02*
X198000000Y-44000000D01*
X117650000Y-143500000D02*
G75*
G02*
X119650000Y-141500000I2000000J0D01*
G01*
X198000000Y-141220000D02*
X198000000Y-148600000D01*
X59100000Y-68000000D02*
X59100000Y-76200000D01*
X194300000Y-135000000D02*
X194300000Y-141230000D01*
X117650000Y-146602893D02*
X117650000Y-143500000D01*
X117650000Y-146602893D02*
G75*
G02*
X115650000Y-148602900I-2000000J-7D01*
G01*
X147016214Y-148600000D02*
G75*
G02*
X145016200Y-146600000I-14J2000000D01*
G01*
X59879500Y-76200000D02*
X59879500Y-148600000D01*
X145016214Y-146602893D02*
X145035791Y-143504216D01*
X147016214Y-148600000D02*
X176000000Y-148600000D01*
X59879500Y-68000000D02*
X59100000Y-68000000D01*
X143035791Y-141504216D02*
G75*
G02*
X145035784Y-143504216I9J-1999984D01*
G01*
X194200000Y-147760000D02*
X176000000Y-147760000D01*
X194300000Y-141230000D02*
X198000000Y-141220000D01*
X194200000Y-148600000D02*
X198000000Y-148600000D01*
X143035791Y-141500000D02*
X119650000Y-141500000D01*
X194200000Y-148600000D02*
X194200000Y-147760000D01*
X176000000Y-147760000D02*
X176000000Y-148600000D01*
X198000000Y-135000000D02*
X194300000Y-135000000D01*
X59100000Y-76200000D02*
X59879500Y-76200000D01*
M02*
