G04 #@! TF.GenerationSoftware,KiCad,Pcbnew,9.0.0-9.0.0-0~ubuntu22.04.1*
G04 #@! TF.CreationDate,2025-08-18T20:28:43+02:00*
G04 #@! TF.ProjectId,v7-raw-34,76372d72-6177-42d3-9334-2e6b69636164,1.3*
G04 #@! TF.SameCoordinates,Original*
G04 #@! TF.FileFunction,Paste,Top*
G04 #@! TF.FilePolarity,Positive*
%FSLAX46Y46*%
G04 Gerber Fmt 4.6, Leading zero omitted, Abs format (unit mm)*
G04 Created by KiCad (PCBNEW 9.0.0-9.0.0-0~ubuntu22.04.1) date 2025-08-18 20:28:43*
%MOMM*%
%LPD*%
G01*
G04 APERTURE LIST*
G04 Aperture macros list*
%AMRoundRect*
0 Rectangle with rounded corners*
0 $1 Rounding radius*
0 $2 $3 $4 $5 $6 $7 $8 $9 X,Y pos of 4 corners*
0 Add a 4 corners polygon primitive as box body*
4,1,4,$2,$3,$4,$5,$6,$7,$8,$9,$2,$3,0*
0 Add four circle primitives for the rounded corners*
1,1,$1+$1,$2,$3*
1,1,$1+$1,$4,$5*
1,1,$1+$1,$6,$7*
1,1,$1+$1,$8,$9*
0 Add four rect primitives between the rounded corners*
20,1,$1+$1,$2,$3,$4,$5,0*
20,1,$1+$1,$4,$5,$6,$7,0*
20,1,$1+$1,$6,$7,$8,$9,0*
20,1,$1+$1,$8,$9,$2,$3,0*%
%AMRotRect*
0 Rectangle, with rotation*
0 The origin of the aperture is its center*
0 $1 length*
0 $2 width*
0 $3 Rotation angle, in degrees counterclockwise*
0 Add horizontal line*
21,1,$1,$2,0,0,$3*%
G04 Aperture macros list end*
%ADD10C,0.152400*%
%ADD11RoundRect,0.200000X-0.200000X-0.275000X0.200000X-0.275000X0.200000X0.275000X-0.200000X0.275000X0*%
%ADD12RoundRect,0.150000X0.150000X-0.587500X0.150000X0.587500X-0.150000X0.587500X-0.150000X-0.587500X0*%
%ADD13RoundRect,0.200000X-0.275000X0.200000X-0.275000X-0.200000X0.275000X-0.200000X0.275000X0.200000X0*%
%ADD14RoundRect,0.200000X0.275000X-0.200000X0.275000X0.200000X-0.275000X0.200000X-0.275000X-0.200000X0*%
%ADD15RoundRect,0.150000X-0.150000X0.587500X-0.150000X-0.587500X0.150000X-0.587500X0.150000X0.587500X0*%
%ADD16RoundRect,0.250000X0.250000X0.475000X-0.250000X0.475000X-0.250000X-0.475000X0.250000X-0.475000X0*%
%ADD17RoundRect,0.250000X-0.475000X0.250000X-0.475000X-0.250000X0.475000X-0.250000X0.475000X0.250000X0*%
%ADD18RoundRect,0.243750X-0.456250X0.243750X-0.456250X-0.243750X0.456250X-0.243750X0.456250X0.243750X0*%
%ADD19RoundRect,0.250000X0.475000X-0.250000X0.475000X0.250000X-0.475000X0.250000X-0.475000X-0.250000X0*%
%ADD20RoundRect,0.250000X0.650000X-0.325000X0.650000X0.325000X-0.650000X0.325000X-0.650000X-0.325000X0*%
%ADD21RoundRect,0.250000X-0.250000X-0.475000X0.250000X-0.475000X0.250000X0.475000X-0.250000X0.475000X0*%
%ADD22RoundRect,0.250000X-0.325000X-0.650000X0.325000X-0.650000X0.325000X0.650000X-0.325000X0.650000X0*%
%ADD23RoundRect,0.250000X0.925000X-0.412500X0.925000X0.412500X-0.925000X0.412500X-0.925000X-0.412500X0*%
%ADD24RoundRect,0.200000X0.200000X0.275000X-0.200000X0.275000X-0.200000X-0.275000X0.200000X-0.275000X0*%
%ADD25R,3.900000X2.200000*%
%ADD26R,4.200000X2.400000*%
%ADD27R,0.850000X0.200000*%
%ADD28R,0.200000X0.850000*%
%ADD29R,4.399999X4.399999*%
%ADD30RoundRect,0.225000X-0.375000X0.225000X-0.375000X-0.225000X0.375000X-0.225000X0.375000X0.225000X0*%
%ADD31RoundRect,0.225000X0.375000X-0.225000X0.375000X0.225000X-0.375000X0.225000X-0.375000X-0.225000X0*%
%ADD32R,0.650000X1.500000*%
%ADD33R,3.600000X2.700000*%
%ADD34RoundRect,0.150000X0.512500X0.150000X-0.512500X0.150000X-0.512500X-0.150000X0.512500X-0.150000X0*%
%ADD35R,0.500000X0.375000*%
%ADD36R,0.650000X0.300000*%
%ADD37R,1.600000X2.800000*%
%ADD38R,0.250000X1.300000*%
%ADD39RoundRect,0.150000X-0.587500X-0.150000X0.587500X-0.150000X0.587500X0.150000X-0.587500X0.150000X0*%
%ADD40RoundRect,0.200000X0.053033X-0.335876X0.335876X-0.053033X-0.053033X0.335876X-0.335876X0.053033X0*%
%ADD41R,1.070000X0.530000*%
%ADD42R,2.200000X0.800000*%
%ADD43R,2.500000X2.350000*%
%ADD44R,1.550000X0.600000*%
%ADD45R,1.800000X1.200000*%
%ADD46RoundRect,0.150000X-0.150000X0.512500X-0.150000X-0.512500X0.150000X-0.512500X0.150000X0.512500X0*%
%ADD47RoundRect,0.150000X-0.477297X-0.689429X0.689429X0.477297X0.477297X0.689429X-0.689429X-0.477297X0*%
%ADD48R,1.257300X4.013200*%
%ADD49RoundRect,0.225000X0.017678X-0.335876X0.335876X-0.017678X-0.017678X0.335876X-0.335876X0.017678X0*%
%ADD50RoundRect,0.250000X-0.412500X-0.925000X0.412500X-0.925000X0.412500X0.925000X-0.412500X0.925000X0*%
%ADD51R,1.500000X0.900000*%
%ADD52R,0.900000X1.500000*%
%ADD53R,0.900000X0.900000*%
%ADD54RoundRect,0.200000X-0.053033X0.335876X-0.335876X0.053033X0.053033X-0.335876X0.335876X-0.053033X0*%
%ADD55RotRect,1.000000X3.500000X45.000000*%
%ADD56RotRect,1.500000X3.400000X45.000000*%
%ADD57RoundRect,0.150000X-0.825000X-0.150000X0.825000X-0.150000X0.825000X0.150000X-0.825000X0.150000X0*%
%ADD58R,1.450000X0.600000*%
%ADD59R,1.450000X0.300000*%
%ADD60RotRect,1.295400X1.422400X225.000000*%
%ADD61R,1.600000X0.700000*%
%ADD62R,1.500000X1.600000*%
%ADD63R,2.200000X1.200000*%
%ADD64RoundRect,0.112500X-0.112500X0.187500X-0.112500X-0.187500X0.112500X-0.187500X0.112500X0.187500X0*%
%ADD65R,0.510000X0.300000*%
%ADD66R,0.838200X0.355600*%
%ADD67R,0.838200X0.406400*%
G04 APERTURE END LIST*
D10*
X96745500Y-127296694D02*
X96745500Y-127446693D01*
X96745500Y-127446693D02*
X97545499Y-127446693D01*
X96745500Y-127696693D02*
X96745500Y-127846693D01*
X96745500Y-127846693D02*
X97545499Y-127846693D01*
X96745500Y-128096692D02*
X96745500Y-128246692D01*
X96745500Y-128246692D02*
X97545499Y-128246692D01*
X96745500Y-128496694D02*
X96745500Y-128646694D01*
X96745500Y-128646694D02*
X97545499Y-128646694D01*
X96745500Y-128896693D02*
X96745500Y-129046693D01*
X96745500Y-129046693D02*
X97545499Y-129046693D01*
X96745500Y-129296692D02*
X96745500Y-129446692D01*
X96745500Y-129446692D02*
X97545499Y-129446692D01*
X96745500Y-129696694D02*
X96745500Y-129846694D01*
X96745500Y-129846694D02*
X97545499Y-129846694D01*
X96745500Y-130096693D02*
X96745500Y-130246693D01*
X96745500Y-130246693D02*
X97545499Y-130246693D01*
X96745500Y-130496692D02*
X96745500Y-130646692D01*
X96745500Y-130646692D02*
X97545499Y-130646692D01*
X96745500Y-130896692D02*
X96745500Y-131046694D01*
X96745500Y-131046694D02*
X97545499Y-131046694D01*
X96745500Y-131296693D02*
X96745500Y-131446693D01*
X96745500Y-131446693D02*
X97545499Y-131446693D01*
X96745500Y-131696693D02*
X96745500Y-131846692D01*
X96745500Y-131846692D02*
X97545499Y-131846692D01*
X97545499Y-127296694D02*
X96745500Y-127296694D01*
X97545499Y-127446693D02*
X97545499Y-127296694D01*
X97545499Y-127696693D02*
X96745500Y-127696693D01*
X97545499Y-127846693D02*
X97545499Y-127696693D01*
X97545499Y-128096692D02*
X96745500Y-128096692D01*
X97545499Y-128246692D02*
X97545499Y-128096692D01*
X97545499Y-128496694D02*
X96745500Y-128496694D01*
X97545499Y-128646694D02*
X97545499Y-128496694D01*
X97545499Y-128896693D02*
X96745500Y-128896693D01*
X97545499Y-129046693D02*
X97545499Y-128896693D01*
X97545499Y-129296692D02*
X96745500Y-129296692D01*
X97545499Y-129446692D02*
X97545499Y-129296692D01*
X97545499Y-129696694D02*
X96745500Y-129696694D01*
X97545499Y-129846694D02*
X97545499Y-129696694D01*
X97545499Y-130096693D02*
X96745500Y-130096693D01*
X97545499Y-130246693D02*
X97545499Y-130096693D01*
X97545499Y-130496692D02*
X96745500Y-130496692D01*
X97545499Y-130646692D02*
X97545499Y-130496692D01*
X97545499Y-130896692D02*
X96745500Y-130896692D01*
X97545499Y-131046694D02*
X97545499Y-130896692D01*
X97545499Y-131296693D02*
X96745500Y-131296693D01*
X97545499Y-131446693D02*
X97545499Y-131296693D01*
X97545499Y-131696693D02*
X96745500Y-131696693D01*
X97545499Y-131846692D02*
X97545499Y-131696693D01*
X97845501Y-126196693D02*
X97845501Y-126996692D01*
X97845501Y-126996692D02*
X97995500Y-126996692D01*
X97845501Y-132146694D02*
X97845501Y-132946693D01*
X97845501Y-132946693D02*
X97995500Y-132946693D01*
X97995431Y-127446624D02*
X97995431Y-127896893D01*
X97995431Y-127896893D02*
X98304279Y-127896893D01*
X97995431Y-128096893D02*
X97995431Y-128684293D01*
X97995431Y-128684293D02*
X98304279Y-128684293D01*
X97995431Y-128884293D02*
X97995431Y-129471693D01*
X97995431Y-129471693D02*
X98304279Y-129471693D01*
X97995431Y-129671693D02*
X97995431Y-130259093D01*
X97995431Y-130259093D02*
X98304279Y-130259093D01*
X97995431Y-130459093D02*
X97995431Y-131046493D01*
X97995431Y-131046493D02*
X98304279Y-131046493D01*
X97995431Y-131246493D02*
X97995431Y-131696762D01*
X97995431Y-131696762D02*
X98445700Y-131696762D01*
X97995500Y-126196693D02*
X97845501Y-126196693D01*
X97995500Y-126996692D02*
X97995500Y-126196693D01*
X97995500Y-132146694D02*
X97845501Y-132146694D01*
X97995500Y-132946693D02*
X97995500Y-132146694D01*
X98245500Y-126196693D02*
X98245500Y-126996692D01*
X98245500Y-126996692D02*
X98395500Y-126996692D01*
X98245500Y-132146694D02*
X98245500Y-132946693D01*
X98245500Y-132946693D02*
X98395500Y-132946693D01*
X98304279Y-127896893D02*
X98304279Y-127896893D01*
X98304279Y-127896893D02*
X98445700Y-127755472D01*
X98304279Y-128096893D02*
X97995431Y-128096893D01*
X98304279Y-128096893D02*
X98304279Y-128096893D01*
X98304279Y-128684293D02*
X98304279Y-128684293D01*
X98304279Y-128684293D02*
X98445700Y-128542872D01*
X98304279Y-128884293D02*
X97995431Y-128884293D01*
X98304279Y-128884293D02*
X98304279Y-128884293D01*
X98304279Y-129471693D02*
X98304279Y-129471693D01*
X98304279Y-129471693D02*
X98445700Y-129330272D01*
X98304279Y-129671693D02*
X97995431Y-129671693D01*
X98304279Y-129671693D02*
X98304279Y-129671693D01*
X98304279Y-130259093D02*
X98304279Y-130259093D01*
X98304279Y-130259093D02*
X98445700Y-130117672D01*
X98304279Y-130459093D02*
X97995431Y-130459093D01*
X98304279Y-130459093D02*
X98304279Y-130459093D01*
X98304279Y-131046493D02*
X98304279Y-131046493D01*
X98304279Y-131046493D02*
X98445700Y-130905072D01*
X98304279Y-131246493D02*
X97995431Y-131246493D01*
X98304279Y-131246493D02*
X98304279Y-131246493D01*
X98395500Y-126196693D02*
X98245500Y-126196693D01*
X98395500Y-126996692D02*
X98395500Y-126196693D01*
X98395500Y-132146694D02*
X98245500Y-132146694D01*
X98395500Y-132946693D02*
X98395500Y-132146694D01*
X98445700Y-127446624D02*
X97995431Y-127446624D01*
X98445700Y-127755472D02*
X98445700Y-127446624D01*
X98445700Y-127755472D02*
X98445700Y-127755472D01*
X98445700Y-128238314D02*
X98304279Y-128096893D01*
X98445700Y-128238314D02*
X98445700Y-128238314D01*
X98445700Y-128542872D02*
X98445700Y-128238314D01*
X98445700Y-128542872D02*
X98445700Y-128542872D01*
X98445700Y-129025714D02*
X98304279Y-128884293D01*
X98445700Y-129025714D02*
X98445700Y-129025714D01*
X98445700Y-129330272D02*
X98445700Y-129025714D01*
X98445700Y-129330272D02*
X98445700Y-129330272D01*
X98445700Y-129813114D02*
X98304279Y-129671693D01*
X98445700Y-129813114D02*
X98445700Y-129813114D01*
X98445700Y-130117672D02*
X98445700Y-129813114D01*
X98445700Y-130117672D02*
X98445700Y-130117672D01*
X98445700Y-130600514D02*
X98304279Y-130459093D01*
X98445700Y-130600514D02*
X98445700Y-130600514D01*
X98445700Y-130905072D02*
X98445700Y-130600514D01*
X98445700Y-130905072D02*
X98445700Y-130905072D01*
X98445700Y-131387914D02*
X98304279Y-131246493D01*
X98445700Y-131387914D02*
X98445700Y-131387914D01*
X98445700Y-131696762D02*
X98445700Y-131387914D01*
X98645499Y-126196693D02*
X98645499Y-126996692D01*
X98645499Y-126996692D02*
X98795501Y-126996692D01*
X98645499Y-132146694D02*
X98645499Y-132946693D01*
X98645499Y-132946693D02*
X98795499Y-132946693D01*
X98645700Y-127446624D02*
X98645700Y-127755472D01*
X98645700Y-127755472D02*
X98645700Y-127755472D01*
X98645700Y-127755472D02*
X98787121Y-127896893D01*
X98645700Y-128238314D02*
X98645700Y-128238314D01*
X98645700Y-128238314D02*
X98645700Y-128542872D01*
X98645700Y-128542872D02*
X98645700Y-128542872D01*
X98645700Y-128542872D02*
X98787121Y-128684293D01*
X98645700Y-129025714D02*
X98645700Y-129025714D01*
X98645700Y-129025714D02*
X98645700Y-129330272D01*
X98645700Y-129330272D02*
X98645700Y-129330272D01*
X98645700Y-129330272D02*
X98787121Y-129471693D01*
X98645700Y-129813114D02*
X98645700Y-129813114D01*
X98645700Y-129813114D02*
X98645700Y-130117672D01*
X98645700Y-130117672D02*
X98645700Y-130117672D01*
X98645700Y-130117672D02*
X98787121Y-130259093D01*
X98645700Y-130600514D02*
X98645700Y-130600514D01*
X98645700Y-130600514D02*
X98645700Y-130905072D01*
X98645700Y-130905072D02*
X98645700Y-130905072D01*
X98645700Y-130905072D02*
X98787121Y-131046493D01*
X98645700Y-131387914D02*
X98645700Y-131387914D01*
X98645700Y-131387914D02*
X98645700Y-131696762D01*
X98645700Y-131696762D02*
X99233100Y-131696762D01*
X98787121Y-127896893D02*
X98787121Y-127896893D01*
X98787121Y-127896893D02*
X99091679Y-127896893D01*
X98787121Y-128096893D02*
X98645700Y-128238314D01*
X98787121Y-128096893D02*
X98787121Y-128096893D01*
X98787121Y-128684293D02*
X98787121Y-128684293D01*
X98787121Y-128684293D02*
X99091679Y-128684293D01*
X98787121Y-128884293D02*
X98645700Y-129025714D01*
X98787121Y-128884293D02*
X98787121Y-128884293D01*
X98787121Y-129471693D02*
X98787121Y-129471693D01*
X98787121Y-129471693D02*
X99091679Y-129471693D01*
X98787121Y-129671693D02*
X98645700Y-129813114D01*
X98787121Y-129671693D02*
X98787121Y-129671693D01*
X98787121Y-130259093D02*
X98787121Y-130259093D01*
X98787121Y-130259093D02*
X99091679Y-130259093D01*
X98787121Y-130459093D02*
X98645700Y-130600514D01*
X98787121Y-130459093D02*
X98787121Y-130459093D01*
X98787121Y-131046493D02*
X98787121Y-131046493D01*
X98787121Y-131046493D02*
X99091679Y-131046493D01*
X98787121Y-131246493D02*
X98645700Y-131387914D01*
X98787121Y-131246493D02*
X98787121Y-131246493D01*
X98795499Y-132146694D02*
X98645499Y-132146694D01*
X98795499Y-132946693D02*
X98795499Y-132146694D01*
X98795501Y-126196693D02*
X98645499Y-126196693D01*
X98795501Y-126996692D02*
X98795501Y-126196693D01*
X99045501Y-126196693D02*
X99045501Y-126996692D01*
X99045501Y-126996692D02*
X99195501Y-126996692D01*
X99045501Y-132146694D02*
X99045501Y-132946693D01*
X99045501Y-132946693D02*
X99195501Y-132946693D01*
X99091679Y-127896893D02*
X99091679Y-127896893D01*
X99091679Y-127896893D02*
X99233100Y-127755472D01*
X99091679Y-128096893D02*
X98787121Y-128096893D01*
X99091679Y-128096893D02*
X99091679Y-128096893D01*
X99091679Y-128684293D02*
X99091679Y-128684293D01*
X99091679Y-128684293D02*
X99233100Y-128542872D01*
X99091679Y-128884293D02*
X98787121Y-128884293D01*
X99091679Y-128884293D02*
X99091679Y-128884293D01*
X99091679Y-129471693D02*
X99091679Y-129471693D01*
X99091679Y-129471693D02*
X99233100Y-129330272D01*
X99091679Y-129671693D02*
X98787121Y-129671693D01*
X99091679Y-129671693D02*
X99091679Y-129671693D01*
X99091679Y-130259093D02*
X99091679Y-130259093D01*
X99091679Y-130259093D02*
X99233100Y-130117672D01*
X99091679Y-130459093D02*
X98787121Y-130459093D01*
X99091679Y-130459093D02*
X99091679Y-130459093D01*
X99091679Y-131046493D02*
X99091679Y-131046493D01*
X99091679Y-131046493D02*
X99233100Y-130905072D01*
X99091679Y-131246493D02*
X98787121Y-131246493D01*
X99091679Y-131246493D02*
X99091679Y-131246493D01*
X99195501Y-126196693D02*
X99045501Y-126196693D01*
X99195501Y-126996692D02*
X99195501Y-126196693D01*
X99195501Y-132146694D02*
X99045501Y-132146694D01*
X99195501Y-132946693D02*
X99195501Y-132146694D01*
X99233100Y-127446624D02*
X98645700Y-127446624D01*
X99233100Y-127755472D02*
X99233100Y-127446624D01*
X99233100Y-127755472D02*
X99233100Y-127755472D01*
X99233100Y-128238314D02*
X99091679Y-128096893D01*
X99233100Y-128238314D02*
X99233100Y-128238314D01*
X99233100Y-128542872D02*
X99233100Y-128238314D01*
X99233100Y-128542872D02*
X99233100Y-128542872D01*
X99233100Y-129025714D02*
X99091679Y-128884293D01*
X99233100Y-129025714D02*
X99233100Y-129025714D01*
X99233100Y-129330272D02*
X99233100Y-129025714D01*
X99233100Y-129330272D02*
X99233100Y-129330272D01*
X99233100Y-129813114D02*
X99091679Y-129671693D01*
X99233100Y-129813114D02*
X99233100Y-129813114D01*
X99233100Y-130117672D02*
X99233100Y-129813114D01*
X99233100Y-130117672D02*
X99233100Y-130117672D01*
X99233100Y-130600514D02*
X99091679Y-130459093D01*
X99233100Y-130600514D02*
X99233100Y-130600514D01*
X99233100Y-130905072D02*
X99233100Y-130600514D01*
X99233100Y-130905072D02*
X99233100Y-130905072D01*
X99233100Y-131387914D02*
X99091679Y-131246493D01*
X99233100Y-131387914D02*
X99233100Y-131387914D01*
X99233100Y-131696762D02*
X99233100Y-131387914D01*
X99433100Y-127446624D02*
X99433100Y-127755472D01*
X99433100Y-127755472D02*
X99433100Y-127755472D01*
X99433100Y-127755472D02*
X99574521Y-127896893D01*
X99433100Y-128238314D02*
X99433100Y-128238314D01*
X99433100Y-128238314D02*
X99433100Y-128542872D01*
X99433100Y-128542872D02*
X99433100Y-128542872D01*
X99433100Y-128542872D02*
X99574521Y-128684293D01*
X99433100Y-129025714D02*
X99433100Y-129025714D01*
X99433100Y-129025714D02*
X99433100Y-129330272D01*
X99433100Y-129330272D02*
X99433100Y-129330272D01*
X99433100Y-129330272D02*
X99574521Y-129471693D01*
X99433100Y-129813114D02*
X99433100Y-129813114D01*
X99433100Y-129813114D02*
X99433100Y-130117672D01*
X99433100Y-130117672D02*
X99433100Y-130117672D01*
X99433100Y-130117672D02*
X99574521Y-130259093D01*
X99433100Y-130600514D02*
X99433100Y-130600514D01*
X99433100Y-130600514D02*
X99433100Y-130905072D01*
X99433100Y-130905072D02*
X99433100Y-130905072D01*
X99433100Y-130905072D02*
X99574521Y-131046493D01*
X99433100Y-131387914D02*
X99433100Y-131387914D01*
X99433100Y-131387914D02*
X99433100Y-131696762D01*
X99433100Y-131696762D02*
X100020500Y-131696762D01*
X99445500Y-126196693D02*
X99445500Y-126996692D01*
X99445500Y-126996692D02*
X99595500Y-126996692D01*
X99445500Y-132146694D02*
X99445500Y-132946693D01*
X99445500Y-132946693D02*
X99595500Y-132946693D01*
X99574521Y-127896893D02*
X99574521Y-127896893D01*
X99574521Y-127896893D02*
X99879079Y-127896893D01*
X99574521Y-128096893D02*
X99433100Y-128238314D01*
X99574521Y-128096893D02*
X99574521Y-128096893D01*
X99574521Y-128684293D02*
X99574521Y-128684293D01*
X99574521Y-128684293D02*
X99879079Y-128684293D01*
X99574521Y-128884293D02*
X99433100Y-129025714D01*
X99574521Y-128884293D02*
X99574521Y-128884293D01*
X99574521Y-129471693D02*
X99574521Y-129471693D01*
X99574521Y-129471693D02*
X99879079Y-129471693D01*
X99574521Y-129671693D02*
X99433100Y-129813114D01*
X99574521Y-129671693D02*
X99574521Y-129671693D01*
X99574521Y-130259093D02*
X99574521Y-130259093D01*
X99574521Y-130259093D02*
X99879079Y-130259093D01*
X99574521Y-130459093D02*
X99433100Y-130600514D01*
X99574521Y-130459093D02*
X99574521Y-130459093D01*
X99574521Y-131046493D02*
X99574521Y-131046493D01*
X99574521Y-131046493D02*
X99879079Y-131046493D01*
X99574521Y-131246493D02*
X99433100Y-131387914D01*
X99574521Y-131246493D02*
X99574521Y-131246493D01*
X99595500Y-126196693D02*
X99445500Y-126196693D01*
X99595500Y-126996692D02*
X99595500Y-126196693D01*
X99595500Y-132146694D02*
X99445500Y-132146694D01*
X99595500Y-132946693D02*
X99595500Y-132146694D01*
X99845499Y-126196693D02*
X99845499Y-126996692D01*
X99845499Y-126996692D02*
X99995499Y-126996692D01*
X99845499Y-132146694D02*
X99845499Y-132946693D01*
X99845499Y-132946693D02*
X99995499Y-132946693D01*
X99879079Y-127896893D02*
X99879079Y-127896893D01*
X99879079Y-127896893D02*
X100020500Y-127755472D01*
X99879079Y-128096893D02*
X99574521Y-128096893D01*
X99879079Y-128096893D02*
X99879079Y-128096893D01*
X99879079Y-128684293D02*
X99879079Y-128684293D01*
X99879079Y-128684293D02*
X100020500Y-128542872D01*
X99879079Y-128884293D02*
X99574521Y-128884293D01*
X99879079Y-128884293D02*
X99879079Y-128884293D01*
X99879079Y-129471693D02*
X99879079Y-129471693D01*
X99879079Y-129471693D02*
X100020500Y-129330272D01*
X99879079Y-129671693D02*
X99574521Y-129671693D01*
X99879079Y-129671693D02*
X99879079Y-129671693D01*
X99879079Y-130259093D02*
X99879079Y-130259093D01*
X99879079Y-130259093D02*
X100020500Y-130117672D01*
X99879079Y-130459093D02*
X99574521Y-130459093D01*
X99879079Y-130459093D02*
X99879079Y-130459093D01*
X99879079Y-131046493D02*
X99879079Y-131046493D01*
X99879079Y-131046493D02*
X100020500Y-130905072D01*
X99879079Y-131246493D02*
X99574521Y-131246493D01*
X99879079Y-131246493D02*
X99879079Y-131246493D01*
X99995499Y-126196693D02*
X99845499Y-126196693D01*
X99995499Y-126996692D02*
X99995499Y-126196693D01*
X99995499Y-132146694D02*
X99845499Y-132146694D01*
X99995499Y-132946693D02*
X99995499Y-132146694D01*
X100020500Y-127446624D02*
X99433100Y-127446624D01*
X100020500Y-127755472D02*
X100020500Y-127446624D01*
X100020500Y-127755472D02*
X100020500Y-127755472D01*
X100020500Y-128238314D02*
X99879079Y-128096893D01*
X100020500Y-128238314D02*
X100020500Y-128238314D01*
X100020500Y-128542872D02*
X100020500Y-128238314D01*
X100020500Y-128542872D02*
X100020500Y-128542872D01*
X100020500Y-129025714D02*
X99879079Y-128884293D01*
X100020500Y-129025714D02*
X100020500Y-129025714D01*
X100020500Y-129330272D02*
X100020500Y-129025714D01*
X100020500Y-129330272D02*
X100020500Y-129330272D01*
X100020500Y-129813114D02*
X99879079Y-129671693D01*
X100020500Y-129813114D02*
X100020500Y-129813114D01*
X100020500Y-130117672D02*
X100020500Y-129813114D01*
X100020500Y-130117672D02*
X100020500Y-130117672D01*
X100020500Y-130600514D02*
X99879079Y-130459093D01*
X100020500Y-130600514D02*
X100020500Y-130600514D01*
X100020500Y-130905072D02*
X100020500Y-130600514D01*
X100020500Y-130905072D02*
X100020500Y-130905072D01*
X100020500Y-131387914D02*
X99879079Y-131246493D01*
X100020500Y-131387914D02*
X100020500Y-131387914D01*
X100020500Y-131696762D02*
X100020500Y-131387914D01*
X100220500Y-127446624D02*
X100220500Y-127755472D01*
X100220500Y-127755472D02*
X100220500Y-127755472D01*
X100220500Y-127755472D02*
X100361921Y-127896893D01*
X100220500Y-128238314D02*
X100220500Y-128238314D01*
X100220500Y-128238314D02*
X100220500Y-128542872D01*
X100220500Y-128542872D02*
X100220500Y-128542872D01*
X100220500Y-128542872D02*
X100361921Y-128684293D01*
X100220500Y-129025714D02*
X100220500Y-129025714D01*
X100220500Y-129025714D02*
X100220500Y-129330272D01*
X100220500Y-129330272D02*
X100220500Y-129330272D01*
X100220500Y-129330272D02*
X100361921Y-129471693D01*
X100220500Y-129813114D02*
X100220500Y-129813114D01*
X100220500Y-129813114D02*
X100220500Y-130117672D01*
X100220500Y-130117672D02*
X100220500Y-130117672D01*
X100220500Y-130117672D02*
X100361921Y-130259093D01*
X100220500Y-130600514D02*
X100220500Y-130600514D01*
X100220500Y-130600514D02*
X100220500Y-130905072D01*
X100220500Y-130905072D02*
X100220500Y-130905072D01*
X100220500Y-130905072D02*
X100361921Y-131046493D01*
X100220500Y-131387914D02*
X100220500Y-131387914D01*
X100220500Y-131387914D02*
X100220500Y-131696762D01*
X100220500Y-131696762D02*
X100807900Y-131696762D01*
X100245501Y-126196693D02*
X100245501Y-126996692D01*
X100245501Y-126996692D02*
X100395501Y-126996692D01*
X100245501Y-132146694D02*
X100245501Y-132946693D01*
X100245501Y-132946693D02*
X100395501Y-132946693D01*
X100361921Y-127896893D02*
X100361921Y-127896893D01*
X100361921Y-127896893D02*
X100666479Y-127896893D01*
X100361921Y-128096893D02*
X100220500Y-128238314D01*
X100361921Y-128096893D02*
X100361921Y-128096893D01*
X100361921Y-128684293D02*
X100361921Y-128684293D01*
X100361921Y-128684293D02*
X100666479Y-128684293D01*
X100361921Y-128884293D02*
X100220500Y-129025714D01*
X100361921Y-128884293D02*
X100361921Y-128884293D01*
X100361921Y-129471693D02*
X100361921Y-129471693D01*
X100361921Y-129471693D02*
X100666479Y-129471693D01*
X100361921Y-129671693D02*
X100220500Y-129813114D01*
X100361921Y-129671693D02*
X100361921Y-129671693D01*
X100361921Y-130259093D02*
X100361921Y-130259093D01*
X100361921Y-130259093D02*
X100666479Y-130259093D01*
X100361921Y-130459093D02*
X100220500Y-130600514D01*
X100361921Y-130459093D02*
X100361921Y-130459093D01*
X100361921Y-131046493D02*
X100361921Y-131046493D01*
X100361921Y-131046493D02*
X100666479Y-131046493D01*
X100361921Y-131246493D02*
X100220500Y-131387914D01*
X100361921Y-131246493D02*
X100361921Y-131246493D01*
X100395501Y-126196693D02*
X100245501Y-126196693D01*
X100395501Y-126996692D02*
X100395501Y-126196693D01*
X100395501Y-132146694D02*
X100245501Y-132146694D01*
X100395501Y-132946693D02*
X100395501Y-132146694D01*
X100645500Y-126196693D02*
X100645500Y-126996692D01*
X100645500Y-126996692D02*
X100795500Y-126996692D01*
X100645500Y-132146694D02*
X100645500Y-132946693D01*
X100645500Y-132946693D02*
X100795500Y-132946693D01*
X100666479Y-127896893D02*
X100666479Y-127896893D01*
X100666479Y-127896893D02*
X100807900Y-127755472D01*
X100666479Y-128096893D02*
X100361921Y-128096893D01*
X100666479Y-128096893D02*
X100666479Y-128096893D01*
X100666479Y-128684293D02*
X100666479Y-128684293D01*
X100666479Y-128684293D02*
X100807900Y-128542872D01*
X100666479Y-128884293D02*
X100361921Y-128884293D01*
X100666479Y-128884293D02*
X100666479Y-128884293D01*
X100666479Y-129471693D02*
X100666479Y-129471693D01*
X100666479Y-129471693D02*
X100807900Y-129330272D01*
X100666479Y-129671693D02*
X100361921Y-129671693D01*
X100666479Y-129671693D02*
X100666479Y-129671693D01*
X100666479Y-130259093D02*
X100666479Y-130259093D01*
X100666479Y-130259093D02*
X100807900Y-130117672D01*
X100666479Y-130459093D02*
X100361921Y-130459093D01*
X100666479Y-130459093D02*
X100666479Y-130459093D01*
X100666479Y-131046493D02*
X100666479Y-131046493D01*
X100666479Y-131046493D02*
X100807900Y-130905072D01*
X100666479Y-131246493D02*
X100361921Y-131246493D01*
X100666479Y-131246493D02*
X100666479Y-131246493D01*
X100795500Y-126196693D02*
X100645500Y-126196693D01*
X100795500Y-126996692D02*
X100795500Y-126196693D01*
X100795500Y-132146694D02*
X100645500Y-132146694D01*
X100795500Y-132946693D02*
X100795500Y-132146694D01*
X100807900Y-127446624D02*
X100220500Y-127446624D01*
X100807900Y-127755472D02*
X100807900Y-127446624D01*
X100807900Y-127755472D02*
X100807900Y-127755472D01*
X100807900Y-128238314D02*
X100666479Y-128096893D01*
X100807900Y-128238314D02*
X100807900Y-128238314D01*
X100807900Y-128542872D02*
X100807900Y-128238314D01*
X100807900Y-128542872D02*
X100807900Y-128542872D01*
X100807900Y-129025714D02*
X100666479Y-128884293D01*
X100807900Y-129025714D02*
X100807900Y-129025714D01*
X100807900Y-129330272D02*
X100807900Y-129025714D01*
X100807900Y-129330272D02*
X100807900Y-129330272D01*
X100807900Y-129813114D02*
X100666479Y-129671693D01*
X100807900Y-129813114D02*
X100807900Y-129813114D01*
X100807900Y-130117672D02*
X100807900Y-129813114D01*
X100807900Y-130117672D02*
X100807900Y-130117672D01*
X100807900Y-130600514D02*
X100666479Y-130459093D01*
X100807900Y-130600514D02*
X100807900Y-130600514D01*
X100807900Y-130905072D02*
X100807900Y-130600514D01*
X100807900Y-130905072D02*
X100807900Y-130905072D01*
X100807900Y-131387914D02*
X100666479Y-131246493D01*
X100807900Y-131387914D02*
X100807900Y-131387914D01*
X100807900Y-131696762D02*
X100807900Y-131387914D01*
X101007900Y-127446624D02*
X101007900Y-127755472D01*
X101007900Y-127755472D02*
X101007900Y-127755472D01*
X101007900Y-127755472D02*
X101149321Y-127896893D01*
X101007900Y-128238314D02*
X101007900Y-128238314D01*
X101007900Y-128238314D02*
X101007900Y-128542872D01*
X101007900Y-128542872D02*
X101007900Y-128542872D01*
X101007900Y-128542872D02*
X101149321Y-128684293D01*
X101007900Y-129025714D02*
X101007900Y-129025714D01*
X101007900Y-129025714D02*
X101007900Y-129330272D01*
X101007900Y-129330272D02*
X101007900Y-129330272D01*
X101007900Y-129330272D02*
X101149321Y-129471693D01*
X101007900Y-129813114D02*
X101007900Y-129813114D01*
X101007900Y-129813114D02*
X101007900Y-130117672D01*
X101007900Y-130117672D02*
X101007900Y-130117672D01*
X101007900Y-130117672D02*
X101149321Y-130259093D01*
X101007900Y-130600514D02*
X101007900Y-130600514D01*
X101007900Y-130600514D02*
X101007900Y-130905072D01*
X101007900Y-130905072D02*
X101007900Y-130905072D01*
X101007900Y-130905072D02*
X101149321Y-131046493D01*
X101007900Y-131387914D02*
X101007900Y-131387914D01*
X101007900Y-131387914D02*
X101007900Y-131696762D01*
X101007900Y-131696762D02*
X101595300Y-131696762D01*
X101045499Y-126196693D02*
X101045499Y-126996692D01*
X101045499Y-126996692D02*
X101195499Y-126996692D01*
X101045499Y-132146694D02*
X101045499Y-132946693D01*
X101045499Y-132946693D02*
X101195499Y-132946693D01*
X101149321Y-127896893D02*
X101149321Y-127896893D01*
X101149321Y-127896893D02*
X101453879Y-127896893D01*
X101149321Y-128096893D02*
X101007900Y-128238314D01*
X101149321Y-128096893D02*
X101149321Y-128096893D01*
X101149321Y-128684293D02*
X101149321Y-128684293D01*
X101149321Y-128684293D02*
X101453879Y-128684293D01*
X101149321Y-128884293D02*
X101007900Y-129025714D01*
X101149321Y-128884293D02*
X101149321Y-128884293D01*
X101149321Y-129471693D02*
X101149321Y-129471693D01*
X101149321Y-129471693D02*
X101453879Y-129471693D01*
X101149321Y-129671693D02*
X101007900Y-129813114D01*
X101149321Y-129671693D02*
X101149321Y-129671693D01*
X101149321Y-130259093D02*
X101149321Y-130259093D01*
X101149321Y-130259093D02*
X101453879Y-130259093D01*
X101149321Y-130459093D02*
X101007900Y-130600514D01*
X101149321Y-130459093D02*
X101149321Y-130459093D01*
X101149321Y-131046493D02*
X101149321Y-131046493D01*
X101149321Y-131046493D02*
X101453879Y-131046493D01*
X101149321Y-131246493D02*
X101007900Y-131387914D01*
X101149321Y-131246493D02*
X101149321Y-131246493D01*
X101195499Y-126196693D02*
X101045499Y-126196693D01*
X101195499Y-126996692D02*
X101195499Y-126196693D01*
X101195499Y-132146694D02*
X101045499Y-132146694D01*
X101195499Y-132946693D02*
X101195499Y-132146694D01*
X101445499Y-132146694D02*
X101445499Y-132946693D01*
X101445499Y-132946693D02*
X101595501Y-132946693D01*
X101445501Y-126196693D02*
X101445501Y-126996692D01*
X101445501Y-126996692D02*
X101595501Y-126996692D01*
X101453879Y-127896893D02*
X101453879Y-127896893D01*
X101453879Y-127896893D02*
X101595300Y-127755472D01*
X101453879Y-128096893D02*
X101149321Y-128096893D01*
X101453879Y-128096893D02*
X101453879Y-128096893D01*
X101453879Y-128684293D02*
X101453879Y-128684293D01*
X101453879Y-128684293D02*
X101595300Y-128542872D01*
X101453879Y-128884293D02*
X101149321Y-128884293D01*
X101453879Y-128884293D02*
X101453879Y-128884293D01*
X101453879Y-129471693D02*
X101453879Y-129471693D01*
X101453879Y-129471693D02*
X101595300Y-129330272D01*
X101453879Y-129671693D02*
X101149321Y-129671693D01*
X101453879Y-129671693D02*
X101453879Y-129671693D01*
X101453879Y-130259093D02*
X101453879Y-130259093D01*
X101453879Y-130259093D02*
X101595300Y-130117672D01*
X101453879Y-130459093D02*
X101149321Y-130459093D01*
X101453879Y-130459093D02*
X101453879Y-130459093D01*
X101453879Y-131046493D02*
X101453879Y-131046493D01*
X101453879Y-131046493D02*
X101595300Y-130905072D01*
X101453879Y-131246493D02*
X101149321Y-131246493D01*
X101453879Y-131246493D02*
X101453879Y-131246493D01*
X101595300Y-127446624D02*
X101007900Y-127446624D01*
X101595300Y-127755472D02*
X101595300Y-127446624D01*
X101595300Y-127755472D02*
X101595300Y-127755472D01*
X101595300Y-128238314D02*
X101453879Y-128096893D01*
X101595300Y-128238314D02*
X101595300Y-128238314D01*
X101595300Y-128542872D02*
X101595300Y-128238314D01*
X101595300Y-128542872D02*
X101595300Y-128542872D01*
X101595300Y-129025714D02*
X101453879Y-128884293D01*
X101595300Y-129025714D02*
X101595300Y-129025714D01*
X101595300Y-129330272D02*
X101595300Y-129025714D01*
X101595300Y-129330272D02*
X101595300Y-129330272D01*
X101595300Y-129813114D02*
X101453879Y-129671693D01*
X101595300Y-129813114D02*
X101595300Y-129813114D01*
X101595300Y-130117672D02*
X101595300Y-129813114D01*
X101595300Y-130117672D02*
X101595300Y-130117672D01*
X101595300Y-130600514D02*
X101453879Y-130459093D01*
X101595300Y-130600514D02*
X101595300Y-130600514D01*
X101595300Y-130905072D02*
X101595300Y-130600514D01*
X101595300Y-130905072D02*
X101595300Y-130905072D01*
X101595300Y-131387914D02*
X101453879Y-131246493D01*
X101595300Y-131387914D02*
X101595300Y-131387914D01*
X101595300Y-131696762D02*
X101595300Y-131387914D01*
X101595501Y-126196693D02*
X101445501Y-126196693D01*
X101595501Y-126996692D02*
X101595501Y-126196693D01*
X101595501Y-132146694D02*
X101445499Y-132146694D01*
X101595501Y-132946693D02*
X101595501Y-132146694D01*
X101795300Y-127446624D02*
X101795300Y-127755472D01*
X101795300Y-127755472D02*
X101795300Y-127755472D01*
X101795300Y-127755472D02*
X101936721Y-127896893D01*
X101795300Y-128238314D02*
X101795300Y-128238314D01*
X101795300Y-128238314D02*
X101795300Y-128542872D01*
X101795300Y-128542872D02*
X101795300Y-128542872D01*
X101795300Y-128542872D02*
X101936721Y-128684293D01*
X101795300Y-129025714D02*
X101795300Y-129025714D01*
X101795300Y-129025714D02*
X101795300Y-129330272D01*
X101795300Y-129330272D02*
X101795300Y-129330272D01*
X101795300Y-129330272D02*
X101936721Y-129471693D01*
X101795300Y-129813114D02*
X101795300Y-129813114D01*
X101795300Y-129813114D02*
X101795300Y-130117672D01*
X101795300Y-130117672D02*
X101795300Y-130117672D01*
X101795300Y-130117672D02*
X101936721Y-130259093D01*
X101795300Y-130600514D02*
X101795300Y-130600514D01*
X101795300Y-130600514D02*
X101795300Y-130905072D01*
X101795300Y-130905072D02*
X101795300Y-130905072D01*
X101795300Y-130905072D02*
X101936721Y-131046493D01*
X101795300Y-131387914D02*
X101795300Y-131387914D01*
X101795300Y-131387914D02*
X101795300Y-131696762D01*
X101795300Y-131696762D02*
X102245569Y-131696762D01*
X101845500Y-126196693D02*
X101845500Y-126996692D01*
X101845500Y-126996692D02*
X101995500Y-126996692D01*
X101845500Y-132146694D02*
X101845500Y-132946693D01*
X101845500Y-132946693D02*
X101995500Y-132946693D01*
X101936721Y-127896893D02*
X101936721Y-127896893D01*
X101936721Y-127896893D02*
X102245569Y-127896893D01*
X101936721Y-128096893D02*
X101795300Y-128238314D01*
X101936721Y-128096893D02*
X101936721Y-128096893D01*
X101936721Y-128684293D02*
X101936721Y-128684293D01*
X101936721Y-128684293D02*
X102245569Y-128684293D01*
X101936721Y-128884293D02*
X101795300Y-129025714D01*
X101936721Y-128884293D02*
X101936721Y-128884293D01*
X101936721Y-129471693D02*
X101936721Y-129471693D01*
X101936721Y-129471693D02*
X102245569Y-129471693D01*
X101936721Y-129671693D02*
X101795300Y-129813114D01*
X101936721Y-129671693D02*
X101936721Y-129671693D01*
X101936721Y-130259093D02*
X101936721Y-130259093D01*
X101936721Y-130259093D02*
X102245569Y-130259093D01*
X101936721Y-130459093D02*
X101795300Y-130600514D01*
X101936721Y-130459093D02*
X101936721Y-130459093D01*
X101936721Y-131046493D02*
X101936721Y-131046493D01*
X101936721Y-131046493D02*
X102245569Y-131046493D01*
X101936721Y-131246493D02*
X101795300Y-131387914D01*
X101936721Y-131246493D02*
X101936721Y-131246493D01*
X101995500Y-126196693D02*
X101845500Y-126196693D01*
X101995500Y-126996692D02*
X101995500Y-126196693D01*
X101995500Y-132146694D02*
X101845500Y-132146694D01*
X101995500Y-132946693D02*
X101995500Y-132146694D01*
X102245500Y-126196693D02*
X102245500Y-126996692D01*
X102245500Y-126996692D02*
X102395499Y-126996692D01*
X102245500Y-132146694D02*
X102245500Y-132946693D01*
X102245500Y-132946693D02*
X102395499Y-132946693D01*
X102245569Y-127446624D02*
X101795300Y-127446624D01*
X102245569Y-127896893D02*
X102245569Y-127446624D01*
X102245569Y-128096893D02*
X101936721Y-128096893D01*
X102245569Y-128684293D02*
X102245569Y-128096893D01*
X102245569Y-128884293D02*
X101936721Y-128884293D01*
X102245569Y-129471693D02*
X102245569Y-128884293D01*
X102245569Y-129671693D02*
X101936721Y-129671693D01*
X102245569Y-130259093D02*
X102245569Y-129671693D01*
X102245569Y-130459093D02*
X101936721Y-130459093D01*
X102245569Y-131046493D02*
X102245569Y-130459093D01*
X102245569Y-131246493D02*
X101936721Y-131246493D01*
X102245569Y-131696762D02*
X102245569Y-131246493D01*
X102395499Y-126196693D02*
X102245500Y-126196693D01*
X102395499Y-126996692D02*
X102395499Y-126196693D01*
X102395499Y-132146694D02*
X102245500Y-132146694D01*
X102395499Y-132946693D02*
X102395499Y-132146694D01*
X102695501Y-127296694D02*
X102695501Y-127446693D01*
X102695501Y-127446693D02*
X103495500Y-127446693D01*
X102695501Y-127696693D02*
X102695501Y-127846693D01*
X102695501Y-127846693D02*
X103495500Y-127846693D01*
X102695501Y-128096692D02*
X102695501Y-128246694D01*
X102695501Y-128246694D02*
X103495500Y-128246694D01*
X102695501Y-128496694D02*
X102695501Y-128646694D01*
X102695501Y-128646694D02*
X103495500Y-128646694D01*
X102695501Y-128896693D02*
X102695501Y-129046693D01*
X102695501Y-129046693D02*
X103495500Y-129046693D01*
X102695501Y-129296692D02*
X102695501Y-129446692D01*
X102695501Y-129446692D02*
X103495500Y-129446692D01*
X102695501Y-129696694D02*
X102695501Y-129846694D01*
X102695501Y-129846694D02*
X103495500Y-129846694D01*
X102695501Y-130096693D02*
X102695501Y-130246693D01*
X102695501Y-130246693D02*
X103495500Y-130246693D01*
X102695501Y-130496692D02*
X102695501Y-130646692D01*
X102695501Y-130646692D02*
X103495500Y-130646692D01*
X102695501Y-130896694D02*
X102695501Y-131046694D01*
X102695501Y-131046694D02*
X103495500Y-131046694D01*
X102695501Y-131296693D02*
X102695501Y-131446693D01*
X102695501Y-131446693D02*
X103495500Y-131446693D01*
X102695501Y-131696693D02*
X102695501Y-131846692D01*
X102695501Y-131846692D02*
X103495500Y-131846692D01*
X103495500Y-127296694D02*
X102695501Y-127296694D01*
X103495500Y-127446693D02*
X103495500Y-127296694D01*
X103495500Y-127696693D02*
X102695501Y-127696693D01*
X103495500Y-127846693D02*
X103495500Y-127696693D01*
X103495500Y-128096692D02*
X102695501Y-128096692D01*
X103495500Y-128246694D02*
X103495500Y-128096692D01*
X103495500Y-128496694D02*
X102695501Y-128496694D01*
X103495500Y-128646694D02*
X103495500Y-128496694D01*
X103495500Y-128896693D02*
X102695501Y-128896693D01*
X103495500Y-129046693D02*
X103495500Y-128896693D01*
X103495500Y-129296692D02*
X102695501Y-129296692D01*
X103495500Y-129446692D02*
X103495500Y-129296692D01*
X103495500Y-129696694D02*
X102695501Y-129696694D01*
X103495500Y-129846694D02*
X103495500Y-129696694D01*
X103495500Y-130096693D02*
X102695501Y-130096693D01*
X103495500Y-130246693D02*
X103495500Y-130096693D01*
X103495500Y-130496692D02*
X102695501Y-130496692D01*
X103495500Y-130646692D02*
X103495500Y-130496692D01*
X103495500Y-130896694D02*
X102695501Y-130896694D01*
X103495500Y-131046694D02*
X103495500Y-130896694D01*
X103495500Y-131296693D02*
X102695501Y-131296693D01*
X103495500Y-131446693D02*
X103495500Y-131296693D01*
X103495500Y-131696693D02*
X102695501Y-131696693D01*
X103495500Y-131846692D02*
X103495500Y-131696693D01*
D11*
X116673000Y-115145000D03*
X118323000Y-115145000D03*
D12*
X85946500Y-106506193D03*
X87846500Y-106506193D03*
X86896500Y-104631193D03*
D13*
X85996500Y-108243693D03*
X85996500Y-109893693D03*
D14*
X87596500Y-109893693D03*
X87596500Y-108243693D03*
D15*
X87746500Y-111606193D03*
X85846500Y-111606193D03*
X86796500Y-113481193D03*
D16*
X114796500Y-130143693D03*
X112896500Y-130143693D03*
D17*
X69696500Y-139143693D03*
X69696500Y-141043693D03*
D18*
X74554500Y-143005693D03*
X74554500Y-144880693D03*
D13*
X72246500Y-139518693D03*
X72246500Y-141168693D03*
X74554500Y-139518693D03*
X74554500Y-141168693D03*
D18*
X72141500Y-143005693D03*
X72141500Y-144880693D03*
D19*
X148296500Y-144193693D03*
X148296500Y-142293693D03*
X69696500Y-144843693D03*
X69696500Y-142943693D03*
D16*
X109706500Y-135413693D03*
X107806500Y-135413693D03*
D19*
X166690000Y-132880000D03*
X166690000Y-130980000D03*
D20*
X194955000Y-130750000D03*
X194955000Y-127800000D03*
D21*
X170062000Y-124520000D03*
X171962000Y-124520000D03*
D22*
X172890000Y-116490000D03*
X175840000Y-116490000D03*
D21*
X194030000Y-117880000D03*
X195930000Y-117880000D03*
D14*
X107177700Y-140015293D03*
X107177700Y-138365293D03*
X196955000Y-130100000D03*
X196955000Y-128450000D03*
D11*
X170365000Y-122590000D03*
X172015000Y-122590000D03*
X172840000Y-118690000D03*
X174490000Y-118690000D03*
X194405000Y-115848000D03*
X196055000Y-115848000D03*
D13*
X109209700Y-138365293D03*
X109209700Y-140015293D03*
D17*
X106216500Y-120239693D03*
X106216500Y-122139693D03*
D23*
X150596500Y-140081193D03*
X150596500Y-137006193D03*
D21*
X107806500Y-123983693D03*
X109706500Y-123983693D03*
D24*
X88753500Y-129825693D03*
X87103500Y-129825693D03*
D25*
X95802500Y-140996693D03*
X95802500Y-137196693D03*
D26*
X92754500Y-122677693D03*
X92754500Y-118177693D03*
D24*
X85451500Y-132111693D03*
X83801500Y-132111693D03*
X88753500Y-132111693D03*
X87103500Y-132111693D03*
X85451500Y-129825693D03*
X83801500Y-129825693D03*
D19*
X99358500Y-143602693D03*
X99358500Y-141702693D03*
X104184500Y-138649693D03*
X104184500Y-136749693D03*
D16*
X92434500Y-128809693D03*
X90534500Y-128809693D03*
D21*
X90534500Y-131603693D03*
X92434500Y-131603693D03*
D17*
X147796500Y-137793693D03*
X147796500Y-139693693D03*
D27*
X103095500Y-131771694D03*
X103095500Y-131371692D03*
X103095500Y-130971693D03*
X103095500Y-130571694D03*
X103095500Y-130171692D03*
X103095500Y-129771693D03*
X103095500Y-129371693D03*
X103095500Y-128971694D03*
X103095500Y-128571692D03*
X103095500Y-128171693D03*
X103095500Y-127771694D03*
X103095500Y-127371692D03*
D28*
X102320501Y-126596693D03*
X101920499Y-126596693D03*
X101520500Y-126596693D03*
X101120501Y-126596693D03*
X100720499Y-126596693D03*
X100320500Y-126596693D03*
X99920500Y-126596693D03*
X99520501Y-126596693D03*
X99120499Y-126596693D03*
X98720500Y-126596693D03*
X98320501Y-126596693D03*
X97920499Y-126596693D03*
D27*
X97145500Y-127371692D03*
X97145500Y-127771694D03*
X97145500Y-128171693D03*
X97145500Y-128571692D03*
X97145500Y-128971694D03*
X97145500Y-129371693D03*
X97145500Y-129771693D03*
X97145500Y-130171692D03*
X97145500Y-130571694D03*
X97145500Y-130971693D03*
X97145500Y-131371692D03*
X97145500Y-131771694D03*
D28*
X97920499Y-132546693D03*
X98320501Y-132546693D03*
X98720500Y-132546693D03*
X99120499Y-132546693D03*
X99520501Y-132546693D03*
X99920500Y-132546693D03*
X100320500Y-132546693D03*
X100720499Y-132546693D03*
X101120501Y-132546693D03*
X101520500Y-132546693D03*
X101920499Y-132546693D03*
X102320501Y-132546693D03*
D29*
X100120500Y-129571693D03*
D16*
X109706500Y-133127693D03*
X107806500Y-133127693D03*
D19*
X96818500Y-123155693D03*
X96818500Y-121255693D03*
D16*
X109706500Y-126269693D03*
X107806500Y-126269693D03*
D30*
X85896500Y-134017693D03*
X85896500Y-137317693D03*
D31*
X88436500Y-137317693D03*
X88436500Y-134017693D03*
D30*
X85896500Y-124873693D03*
X85896500Y-128173693D03*
D31*
X88436500Y-128173693D03*
X88436500Y-124873693D03*
D21*
X81644500Y-127793693D03*
X83544500Y-127793693D03*
D19*
X101644500Y-122139693D03*
X101644500Y-120239693D03*
D21*
X107806500Y-130841693D03*
X109706500Y-130841693D03*
X90534500Y-126396693D03*
X92434500Y-126396693D03*
D19*
X103930500Y-122139693D03*
X103930500Y-120239693D03*
D21*
X90534500Y-134016693D03*
X92434500Y-134016693D03*
D16*
X83544500Y-134143693D03*
X81644500Y-134143693D03*
X109706500Y-128568393D03*
X107806500Y-128568393D03*
D19*
X102025500Y-138649693D03*
X102025500Y-136749693D03*
D31*
X99485500Y-139984693D03*
X99485500Y-136684693D03*
D21*
X112946500Y-123243693D03*
X114846500Y-123243693D03*
X186280000Y-114330000D03*
X188180000Y-114330000D03*
D11*
X186630000Y-112430000D03*
X188280000Y-112430000D03*
D30*
X99358500Y-119031693D03*
X99358500Y-122331693D03*
D13*
X67717500Y-143018693D03*
X67717500Y-144668693D03*
X67717500Y-139744693D03*
X67717500Y-141394693D03*
D17*
X86846500Y-118393693D03*
X86846500Y-120293693D03*
D19*
X91738500Y-138649693D03*
X91738500Y-136749693D03*
D13*
X145796500Y-138118693D03*
X145796500Y-139768693D03*
D24*
X109821500Y-111943693D03*
X108171500Y-111943693D03*
X109821500Y-110143693D03*
X108171500Y-110143693D03*
D32*
X72401500Y-130784693D03*
X71131500Y-130784693D03*
X69861500Y-130784693D03*
X68591500Y-130784693D03*
X68591500Y-136184693D03*
X69861500Y-136184693D03*
X71131500Y-136184693D03*
X72401500Y-136184693D03*
D33*
X70496500Y-133484693D03*
D31*
X70796500Y-126193693D03*
X70796500Y-122893693D03*
D24*
X72271500Y-128493693D03*
X70621500Y-128493693D03*
D34*
X78434000Y-123093693D03*
X78434000Y-121193693D03*
X76159000Y-122143693D03*
D35*
X72646500Y-111806193D03*
D36*
X72571500Y-112343693D03*
D35*
X72646500Y-112881193D03*
X74346500Y-112881193D03*
D36*
X74421500Y-112343693D03*
D35*
X74346500Y-111806193D03*
D21*
X72546500Y-115843693D03*
X74446500Y-115843693D03*
D37*
X174700000Y-123710000D03*
X195200000Y-123710000D03*
D38*
X176700000Y-120710000D03*
X177200000Y-120710000D03*
X177700000Y-120710000D03*
X178200000Y-120710000D03*
X178700000Y-120710000D03*
X179200000Y-120710000D03*
X179700000Y-120710000D03*
X180200000Y-120710000D03*
X180700000Y-120710000D03*
X181200000Y-120710000D03*
X181700000Y-120710000D03*
X182200000Y-120710000D03*
X182700000Y-120710000D03*
X183200000Y-120710000D03*
X183700000Y-120710000D03*
X184200000Y-120710000D03*
X184700000Y-120710000D03*
X185200000Y-120710000D03*
X185700000Y-120710000D03*
X186200000Y-120710000D03*
X186700000Y-120710000D03*
X187200000Y-120710000D03*
X187700000Y-120710000D03*
X188200000Y-120710000D03*
X188700000Y-120710000D03*
X189200000Y-120710000D03*
X189700000Y-120710000D03*
X190200000Y-120710000D03*
X190700000Y-120710000D03*
X191200000Y-120710000D03*
X191700000Y-120710000D03*
X192200000Y-120710000D03*
X192700000Y-120710000D03*
X193200000Y-120710000D03*
D39*
X66109000Y-124843693D03*
X66109000Y-126743693D03*
X67984000Y-125793693D03*
D40*
X112623637Y-102689363D03*
X113790363Y-101522637D03*
D41*
X175810000Y-92700000D03*
X175810000Y-91750000D03*
X175810000Y-90800000D03*
X173510000Y-90800000D03*
X173510000Y-91750000D03*
X173510000Y-92700000D03*
D42*
X193007500Y-101780000D03*
X193007500Y-100530000D03*
X193007500Y-99280000D03*
X193007500Y-98030000D03*
X193007500Y-96780000D03*
X193007500Y-95520000D03*
D43*
X195607500Y-104160000D03*
X195607500Y-93140000D03*
D44*
X64075000Y-70600000D03*
X64075000Y-71600000D03*
X64075000Y-72600000D03*
X64075000Y-73600000D03*
D45*
X60200000Y-69300000D03*
X60200000Y-74900000D03*
D14*
X72696500Y-109168693D03*
X72696500Y-107518693D03*
D24*
X66171500Y-122243693D03*
X64521500Y-122243693D03*
D46*
X114846500Y-125606193D03*
X113896500Y-125606193D03*
X112946500Y-125606193D03*
X112946500Y-127881193D03*
X114846500Y-127881193D03*
D47*
X114814872Y-94811051D03*
X115712898Y-95709076D03*
X116610924Y-96607102D03*
X117508949Y-97505128D03*
X121009128Y-94004949D03*
X120111102Y-93106924D03*
X119213076Y-92208898D03*
X118315051Y-91310872D03*
D24*
X185825000Y-97800000D03*
X184175000Y-97800000D03*
D14*
X178520000Y-92425000D03*
X178520000Y-90775000D03*
D16*
X78346500Y-125043693D03*
X76446500Y-125043693D03*
D19*
X65696500Y-141743693D03*
X65696500Y-139843693D03*
D48*
X173515150Y-98340000D03*
X177464850Y-98340000D03*
D49*
X111555992Y-101349008D03*
X112652008Y-100252992D03*
D13*
X72696500Y-118818693D03*
X72696500Y-120468693D03*
D50*
X129537500Y-102989000D03*
X132612500Y-102989000D03*
D51*
X140571500Y-140053693D03*
X140571500Y-138783693D03*
X140571500Y-137513693D03*
X140571500Y-136243693D03*
X140571500Y-134973693D03*
X140571500Y-133703693D03*
X140571500Y-132433693D03*
X140571500Y-131163693D03*
X140571500Y-129893693D03*
X140571500Y-128623693D03*
X140571500Y-127353693D03*
X140571500Y-126083693D03*
X140571500Y-124813693D03*
X140571500Y-123543693D03*
D52*
X138806500Y-122293693D03*
X137536500Y-122293693D03*
X136266500Y-122293693D03*
X134996500Y-122293693D03*
X133726500Y-122293693D03*
X132456500Y-122293693D03*
X131186500Y-122293693D03*
X129916500Y-122293693D03*
X128646500Y-122293693D03*
X127376500Y-122293693D03*
X126106500Y-122293693D03*
X124836500Y-122293693D03*
D51*
X123071500Y-123543693D03*
X123071500Y-124813693D03*
X123071500Y-126083693D03*
X123071500Y-127353693D03*
X123071500Y-128623693D03*
X123071500Y-129893693D03*
X123071500Y-131163693D03*
X123071500Y-132433693D03*
X123071500Y-133703693D03*
X123071500Y-134973693D03*
X123071500Y-136243693D03*
X123071500Y-137513693D03*
X123071500Y-138783693D03*
X123071500Y-140053693D03*
D53*
X134721500Y-133733693D03*
X134721500Y-132333693D03*
X134721500Y-130933693D03*
X133321500Y-133733693D03*
X133321500Y-132333693D03*
X133321500Y-130933693D03*
X131921500Y-133733693D03*
X131921500Y-132333693D03*
X131921500Y-130933693D03*
D24*
X185825000Y-99350000D03*
X184175000Y-99350000D03*
D21*
X169680000Y-98340000D03*
X171580000Y-98340000D03*
D49*
X107090992Y-96883008D03*
X108187008Y-95786992D03*
D54*
X133283363Y-117716637D03*
X132116637Y-118883363D03*
D30*
X170790000Y-91720000D03*
X170790000Y-95020000D03*
D54*
X129983363Y-117416637D03*
X128816637Y-118583363D03*
D55*
X102655204Y-103140990D03*
X101240990Y-104555204D03*
D56*
X100251041Y-97413425D03*
X95513425Y-102151041D03*
D21*
X170050000Y-88890000D03*
X171950000Y-88890000D03*
D57*
X77521500Y-106098693D03*
X77521500Y-107368693D03*
X77521500Y-108638693D03*
X77521500Y-109908693D03*
X77521500Y-111178693D03*
X77521500Y-112448693D03*
X77521500Y-113718693D03*
X77521500Y-114988693D03*
X82471500Y-114988693D03*
X82471500Y-113718693D03*
X82471500Y-112448693D03*
X82471500Y-111178693D03*
X82471500Y-109908693D03*
X82471500Y-108638693D03*
X82471500Y-107368693D03*
X82471500Y-106098693D03*
D58*
X68281500Y-110393693D03*
X68281500Y-111193693D03*
D59*
X68281500Y-112393693D03*
X68281500Y-113393693D03*
X68281500Y-113893693D03*
X68281500Y-114893693D03*
D58*
X68281500Y-116093693D03*
X68281500Y-116893693D03*
X68281500Y-116893693D03*
X68281500Y-116093693D03*
D59*
X68281500Y-115393693D03*
X68281500Y-114393693D03*
X68281500Y-112893693D03*
X68281500Y-111893693D03*
D58*
X68281500Y-111193693D03*
X68281500Y-110393693D03*
D21*
X76346500Y-119243693D03*
X78246500Y-119243693D03*
D31*
X63596500Y-127593693D03*
X63596500Y-124293693D03*
D60*
X111053000Y-98940000D03*
X109508396Y-97395396D03*
D61*
X75270000Y-90720000D03*
X75270000Y-89620000D03*
X75270000Y-88520000D03*
X75270000Y-87420000D03*
X75270000Y-86320000D03*
X75270000Y-85220000D03*
X75270000Y-84120000D03*
X75270000Y-83020000D03*
X75270000Y-81920000D03*
D62*
X74220000Y-95320000D03*
D63*
X64670000Y-96220000D03*
X64670000Y-80720000D03*
D45*
X73970000Y-80720000D03*
D64*
X127687000Y-105397000D03*
X127687000Y-107497000D03*
D65*
X81110000Y-85800000D03*
X81110000Y-86300000D03*
X81110000Y-86800000D03*
X81110000Y-87300000D03*
X80250000Y-87300000D03*
X80250000Y-86800000D03*
X80250000Y-86300000D03*
X80250000Y-85800000D03*
D66*
X172399000Y-127544001D03*
X172399000Y-128044000D03*
X172399000Y-128544001D03*
X172399000Y-129044001D03*
X172399000Y-129544002D03*
X172399000Y-130044001D03*
D67*
X174899000Y-131044002D03*
X174899000Y-126544000D03*
M02*
