G04 #@! TF.GenerationSoftware,KiCad,Pcbnew,10.0.1*
G04 #@! TF.CreationDate,2026-08-22T13:39:05+02:00*
G04 #@! TF.ProjectId,v7-raw-34,76372d72-6177-42d3-9334-2e6b69636164,1.3*
G04 #@! TF.SameCoordinates,Original*
G04 #@! TF.FileFunction,Legend,Bot*
G04 #@! TF.FilePolarity,Positive*
%FSLAX46Y46*%
G04 Gerber Fmt 4.6, Leading zero omitted, Abs format (unit mm)*
G04 Created by KiCad (PCBNEW 10.0.1) date 2026-08-22 13:39:05*
%MOMM*%
%LPD*%
G01*
G04 APERTURE LIST*
%ADD10C,0.100000*%
%ADD11C,0.150000*%
%ADD12R,1.700000X1.700000*%
%ADD13C,1.700000*%
%ADD14C,2.200000*%
%ADD15O,1.600000X1.000000*%
%ADD16O,2.100000X1.000000*%
%ADD17C,0.650000*%
%ADD18C,1.000000*%
%ADD19C,0.508000*%
G04 APERTURE END LIST*
D10*
X81624502Y-116601690D02*
X79104504Y-112461694D01*
X83964500Y-113721693D02*
X85584498Y-109941696D01*
X73884509Y-110841695D02*
X72984510Y-107961698D01*
X78564505Y-115701691D02*
X76044507Y-112641694D01*
X85224499Y-115161691D02*
X85944498Y-113181693D01*
X74784508Y-115881691D02*
X73884509Y-110841695D01*
X81624502Y-116421690D02*
X85224499Y-115161691D01*
X79284504Y-126861680D02*
X79464504Y-120021687D01*
X74784508Y-115881691D02*
X71904511Y-116241690D01*
X76044507Y-112641694D02*
X75864507Y-109041697D01*
X79464504Y-120021687D02*
X74784508Y-115881691D01*
X83964500Y-113721693D02*
X82704501Y-110841695D01*
X72444510Y-113541693D02*
X70104512Y-113361693D01*
X79104504Y-112461694D02*
X77844505Y-109941696D01*
X81624502Y-116601690D02*
X83964500Y-113721693D01*
X79284504Y-126861680D02*
X71364511Y-127581680D01*
X74784508Y-115881691D02*
X72444510Y-113541693D01*
X79104504Y-112461694D02*
X80544503Y-109581696D01*
X78564505Y-115701691D02*
X78744505Y-113721693D01*
X79464504Y-120021687D02*
X78564505Y-115701691D01*
X79284504Y-126861680D02*
X89004495Y-127581680D01*
X79464504Y-120021687D02*
X81624502Y-116601690D01*
D11*
X101643330Y-133022310D02*
X101767139Y-133084214D01*
X101767139Y-133084214D02*
X102014758Y-133084214D01*
X102014758Y-133084214D02*
X102138568Y-133022310D01*
X102138568Y-133022310D02*
X102200472Y-132898500D01*
X102200472Y-132898500D02*
X102200472Y-132403262D01*
X102200472Y-132403262D02*
X102138568Y-132279452D01*
X102138568Y-132279452D02*
X102014758Y-132217548D01*
X102014758Y-132217548D02*
X101767139Y-132217548D01*
X101767139Y-132217548D02*
X101643330Y-132279452D01*
X101643330Y-132279452D02*
X101581425Y-132403262D01*
X101581425Y-132403262D02*
X101581425Y-132527071D01*
X101581425Y-132527071D02*
X102200472Y-132650881D01*
X101024282Y-132217548D02*
X101024282Y-133517548D01*
X101024282Y-132279452D02*
X100900472Y-132217548D01*
X100900472Y-132217548D02*
X100652853Y-132217548D01*
X100652853Y-132217548D02*
X100529044Y-132279452D01*
X100529044Y-132279452D02*
X100467139Y-132341357D01*
X100467139Y-132341357D02*
X100405234Y-132465167D01*
X100405234Y-132465167D02*
X100405234Y-132836595D01*
X100405234Y-132836595D02*
X100467139Y-132960405D01*
X100467139Y-132960405D02*
X100529044Y-133022310D01*
X100529044Y-133022310D02*
X100652853Y-133084214D01*
X100652853Y-133084214D02*
X100900472Y-133084214D01*
X100900472Y-133084214D02*
X101024282Y-133022310D01*
X99290949Y-133084214D02*
X99290949Y-131784214D01*
X99290949Y-133022310D02*
X99414758Y-133084214D01*
X99414758Y-133084214D02*
X99662377Y-133084214D01*
X99662377Y-133084214D02*
X99786187Y-133022310D01*
X99786187Y-133022310D02*
X99848092Y-132960405D01*
X99848092Y-132960405D02*
X99909996Y-132836595D01*
X99909996Y-132836595D02*
X99909996Y-132465167D01*
X99909996Y-132465167D02*
X99848092Y-132341357D01*
X99848092Y-132341357D02*
X99786187Y-132279452D01*
X99786187Y-132279452D02*
X99662377Y-132217548D01*
X99662377Y-132217548D02*
X99414758Y-132217548D01*
X99414758Y-132217548D02*
X99290949Y-132279452D01*
X98671902Y-133084214D02*
X98671902Y-132217548D01*
X98671902Y-131784214D02*
X98733806Y-131846119D01*
X98733806Y-131846119D02*
X98671902Y-131908024D01*
X98671902Y-131908024D02*
X98609997Y-131846119D01*
X98609997Y-131846119D02*
X98671902Y-131784214D01*
X98671902Y-131784214D02*
X98671902Y-131908024D01*
X98176663Y-132217548D02*
X97867139Y-133084214D01*
X97557616Y-132217548D02*
X97867139Y-133084214D01*
X97867139Y-133084214D02*
X97990949Y-133393738D01*
X97990949Y-133393738D02*
X98052854Y-133455643D01*
X98052854Y-133455643D02*
X98176663Y-133517548D01*
X96195711Y-132217548D02*
X95886187Y-133084214D01*
X95886187Y-133084214D02*
X95576664Y-132217548D01*
X95205235Y-131784214D02*
X94338569Y-131784214D01*
X94338569Y-131784214D02*
X94895711Y-133084214D01*
X92852855Y-133084214D02*
X92852855Y-131784214D01*
X92109998Y-133084214D02*
X92667140Y-132341357D01*
X92109998Y-131784214D02*
X92852855Y-132527071D01*
X90995712Y-133084214D02*
X90995712Y-132403262D01*
X90995712Y-132403262D02*
X91057617Y-132279452D01*
X91057617Y-132279452D02*
X91181426Y-132217548D01*
X91181426Y-132217548D02*
X91429045Y-132217548D01*
X91429045Y-132217548D02*
X91552855Y-132279452D01*
X90995712Y-133022310D02*
X91119521Y-133084214D01*
X91119521Y-133084214D02*
X91429045Y-133084214D01*
X91429045Y-133084214D02*
X91552855Y-133022310D01*
X91552855Y-133022310D02*
X91614759Y-132898500D01*
X91614759Y-132898500D02*
X91614759Y-132774690D01*
X91614759Y-132774690D02*
X91552855Y-132650881D01*
X91552855Y-132650881D02*
X91429045Y-132588976D01*
X91429045Y-132588976D02*
X91119521Y-132588976D01*
X91119521Y-132588976D02*
X90995712Y-132527071D01*
X90190950Y-133084214D02*
X90314760Y-133022310D01*
X90314760Y-133022310D02*
X90376665Y-132898500D01*
X90376665Y-132898500D02*
X90376665Y-131784214D01*
X89200475Y-133022310D02*
X89324284Y-133084214D01*
X89324284Y-133084214D02*
X89571903Y-133084214D01*
X89571903Y-133084214D02*
X89695713Y-133022310D01*
X89695713Y-133022310D02*
X89757617Y-132898500D01*
X89757617Y-132898500D02*
X89757617Y-132403262D01*
X89757617Y-132403262D02*
X89695713Y-132279452D01*
X89695713Y-132279452D02*
X89571903Y-132217548D01*
X89571903Y-132217548D02*
X89324284Y-132217548D01*
X89324284Y-132217548D02*
X89200475Y-132279452D01*
X89200475Y-132279452D02*
X89138570Y-132403262D01*
X89138570Y-132403262D02*
X89138570Y-132527071D01*
X89138570Y-132527071D02*
X89757617Y-132650881D01*
X88581427Y-133084214D02*
X88581427Y-132217548D01*
X88581427Y-131784214D02*
X88643331Y-131846119D01*
X88643331Y-131846119D02*
X88581427Y-131908024D01*
X88581427Y-131908024D02*
X88519522Y-131846119D01*
X88519522Y-131846119D02*
X88581427Y-131784214D01*
X88581427Y-131784214D02*
X88581427Y-131908024D01*
X87405236Y-133084214D02*
X87405236Y-131784214D01*
X87405236Y-133022310D02*
X87529045Y-133084214D01*
X87529045Y-133084214D02*
X87776664Y-133084214D01*
X87776664Y-133084214D02*
X87900474Y-133022310D01*
X87900474Y-133022310D02*
X87962379Y-132960405D01*
X87962379Y-132960405D02*
X88024283Y-132836595D01*
X88024283Y-132836595D02*
X88024283Y-132465167D01*
X88024283Y-132465167D02*
X87962379Y-132341357D01*
X87962379Y-132341357D02*
X87900474Y-132279452D01*
X87900474Y-132279452D02*
X87776664Y-132217548D01*
X87776664Y-132217548D02*
X87529045Y-132217548D01*
X87529045Y-132217548D02*
X87405236Y-132279452D01*
X86600474Y-133084214D02*
X86724284Y-133022310D01*
X86724284Y-133022310D02*
X86786189Y-132960405D01*
X86786189Y-132960405D02*
X86848093Y-132836595D01*
X86848093Y-132836595D02*
X86848093Y-132465167D01*
X86848093Y-132465167D02*
X86786189Y-132341357D01*
X86786189Y-132341357D02*
X86724284Y-132279452D01*
X86724284Y-132279452D02*
X86600474Y-132217548D01*
X86600474Y-132217548D02*
X86414760Y-132217548D01*
X86414760Y-132217548D02*
X86290951Y-132279452D01*
X86290951Y-132279452D02*
X86229046Y-132341357D01*
X86229046Y-132341357D02*
X86167141Y-132465167D01*
X86167141Y-132465167D02*
X86167141Y-132836595D01*
X86167141Y-132836595D02*
X86229046Y-132960405D01*
X86229046Y-132960405D02*
X86290951Y-133022310D01*
X86290951Y-133022310D02*
X86414760Y-133084214D01*
X86414760Y-133084214D02*
X86600474Y-133084214D01*
X84619523Y-133084214D02*
X84619523Y-131784214D01*
X84619523Y-132279452D02*
X84495713Y-132217548D01*
X84495713Y-132217548D02*
X84248094Y-132217548D01*
X84248094Y-132217548D02*
X84124285Y-132279452D01*
X84124285Y-132279452D02*
X84062380Y-132341357D01*
X84062380Y-132341357D02*
X84000475Y-132465167D01*
X84000475Y-132465167D02*
X84000475Y-132836595D01*
X84000475Y-132836595D02*
X84062380Y-132960405D01*
X84062380Y-132960405D02*
X84124285Y-133022310D01*
X84124285Y-133022310D02*
X84248094Y-133084214D01*
X84248094Y-133084214D02*
X84495713Y-133084214D01*
X84495713Y-133084214D02*
X84619523Y-133022310D01*
X82886190Y-133084214D02*
X82886190Y-132403262D01*
X82886190Y-132403262D02*
X82948095Y-132279452D01*
X82948095Y-132279452D02*
X83071904Y-132217548D01*
X83071904Y-132217548D02*
X83319523Y-132217548D01*
X83319523Y-132217548D02*
X83443333Y-132279452D01*
X82886190Y-133022310D02*
X83009999Y-133084214D01*
X83009999Y-133084214D02*
X83319523Y-133084214D01*
X83319523Y-133084214D02*
X83443333Y-133022310D01*
X83443333Y-133022310D02*
X83505237Y-132898500D01*
X83505237Y-132898500D02*
X83505237Y-132774690D01*
X83505237Y-132774690D02*
X83443333Y-132650881D01*
X83443333Y-132650881D02*
X83319523Y-132588976D01*
X83319523Y-132588976D02*
X83009999Y-132588976D01*
X83009999Y-132588976D02*
X82886190Y-132527071D01*
X82329047Y-133022310D02*
X82205238Y-133084214D01*
X82205238Y-133084214D02*
X81957619Y-133084214D01*
X81957619Y-133084214D02*
X81833809Y-133022310D01*
X81833809Y-133022310D02*
X81771905Y-132898500D01*
X81771905Y-132898500D02*
X81771905Y-132836595D01*
X81771905Y-132836595D02*
X81833809Y-132712786D01*
X81833809Y-132712786D02*
X81957619Y-132650881D01*
X81957619Y-132650881D02*
X82143333Y-132650881D01*
X82143333Y-132650881D02*
X82267143Y-132588976D01*
X82267143Y-132588976D02*
X82329047Y-132465167D01*
X82329047Y-132465167D02*
X82329047Y-132403262D01*
X82329047Y-132403262D02*
X82267143Y-132279452D01*
X82267143Y-132279452D02*
X82143333Y-132217548D01*
X82143333Y-132217548D02*
X81957619Y-132217548D01*
X81957619Y-132217548D02*
X81833809Y-132279452D01*
X80719524Y-133022310D02*
X80843333Y-133084214D01*
X80843333Y-133084214D02*
X81090952Y-133084214D01*
X81090952Y-133084214D02*
X81214762Y-133022310D01*
X81214762Y-133022310D02*
X81276666Y-132898500D01*
X81276666Y-132898500D02*
X81276666Y-132403262D01*
X81276666Y-132403262D02*
X81214762Y-132279452D01*
X81214762Y-132279452D02*
X81090952Y-132217548D01*
X81090952Y-132217548D02*
X80843333Y-132217548D01*
X80843333Y-132217548D02*
X80719524Y-132279452D01*
X80719524Y-132279452D02*
X80657619Y-132403262D01*
X80657619Y-132403262D02*
X80657619Y-132527071D01*
X80657619Y-132527071D02*
X81276666Y-132650881D01*
X79543333Y-133084214D02*
X79543333Y-131784214D01*
X79543333Y-133022310D02*
X79667142Y-133084214D01*
X79667142Y-133084214D02*
X79914761Y-133084214D01*
X79914761Y-133084214D02*
X80038571Y-133022310D01*
X80038571Y-133022310D02*
X80100476Y-132960405D01*
X80100476Y-132960405D02*
X80162380Y-132836595D01*
X80162380Y-132836595D02*
X80162380Y-132465167D01*
X80162380Y-132465167D02*
X80100476Y-132341357D01*
X80100476Y-132341357D02*
X80038571Y-132279452D01*
X80038571Y-132279452D02*
X79914761Y-132217548D01*
X79914761Y-132217548D02*
X79667142Y-132217548D01*
X79667142Y-132217548D02*
X79543333Y-132279452D01*
X77748095Y-133084214D02*
X77871905Y-133022310D01*
X77871905Y-133022310D02*
X77933810Y-132960405D01*
X77933810Y-132960405D02*
X77995714Y-132836595D01*
X77995714Y-132836595D02*
X77995714Y-132465167D01*
X77995714Y-132465167D02*
X77933810Y-132341357D01*
X77933810Y-132341357D02*
X77871905Y-132279452D01*
X77871905Y-132279452D02*
X77748095Y-132217548D01*
X77748095Y-132217548D02*
X77562381Y-132217548D01*
X77562381Y-132217548D02*
X77438572Y-132279452D01*
X77438572Y-132279452D02*
X77376667Y-132341357D01*
X77376667Y-132341357D02*
X77314762Y-132465167D01*
X77314762Y-132465167D02*
X77314762Y-132836595D01*
X77314762Y-132836595D02*
X77376667Y-132960405D01*
X77376667Y-132960405D02*
X77438572Y-133022310D01*
X77438572Y-133022310D02*
X77562381Y-133084214D01*
X77562381Y-133084214D02*
X77748095Y-133084214D01*
X76757620Y-132217548D02*
X76757620Y-133084214D01*
X76757620Y-132341357D02*
X76695715Y-132279452D01*
X76695715Y-132279452D02*
X76571905Y-132217548D01*
X76571905Y-132217548D02*
X76386191Y-132217548D01*
X76386191Y-132217548D02*
X76262382Y-132279452D01*
X76262382Y-132279452D02*
X76200477Y-132403262D01*
X76200477Y-132403262D02*
X76200477Y-133084214D01*
X74776668Y-132217548D02*
X74281430Y-132217548D01*
X74590954Y-131784214D02*
X74590954Y-132898500D01*
X74590954Y-132898500D02*
X74529049Y-133022310D01*
X74529049Y-133022310D02*
X74405239Y-133084214D01*
X74405239Y-133084214D02*
X74281430Y-133084214D01*
X73848097Y-133084214D02*
X73848097Y-131784214D01*
X73290954Y-133084214D02*
X73290954Y-132403262D01*
X73290954Y-132403262D02*
X73352859Y-132279452D01*
X73352859Y-132279452D02*
X73476668Y-132217548D01*
X73476668Y-132217548D02*
X73662382Y-132217548D01*
X73662382Y-132217548D02*
X73786192Y-132279452D01*
X73786192Y-132279452D02*
X73848097Y-132341357D01*
X72176669Y-133022310D02*
X72300478Y-133084214D01*
X72300478Y-133084214D02*
X72548097Y-133084214D01*
X72548097Y-133084214D02*
X72671907Y-133022310D01*
X72671907Y-133022310D02*
X72733811Y-132898500D01*
X72733811Y-132898500D02*
X72733811Y-132403262D01*
X72733811Y-132403262D02*
X72671907Y-132279452D01*
X72671907Y-132279452D02*
X72548097Y-132217548D01*
X72548097Y-132217548D02*
X72300478Y-132217548D01*
X72300478Y-132217548D02*
X72176669Y-132279452D01*
X72176669Y-132279452D02*
X72114764Y-132403262D01*
X72114764Y-132403262D02*
X72114764Y-132527071D01*
X72114764Y-132527071D02*
X72733811Y-132650881D01*
X70690954Y-132217548D02*
X70443335Y-133084214D01*
X70443335Y-133084214D02*
X70195716Y-132465167D01*
X70195716Y-132465167D02*
X69948097Y-133084214D01*
X69948097Y-133084214D02*
X69700478Y-132217548D01*
X69019525Y-133084214D02*
X69143335Y-133022310D01*
X69143335Y-133022310D02*
X69205240Y-132960405D01*
X69205240Y-132960405D02*
X69267144Y-132836595D01*
X69267144Y-132836595D02*
X69267144Y-132465167D01*
X69267144Y-132465167D02*
X69205240Y-132341357D01*
X69205240Y-132341357D02*
X69143335Y-132279452D01*
X69143335Y-132279452D02*
X69019525Y-132217548D01*
X69019525Y-132217548D02*
X68833811Y-132217548D01*
X68833811Y-132217548D02*
X68710002Y-132279452D01*
X68710002Y-132279452D02*
X68648097Y-132341357D01*
X68648097Y-132341357D02*
X68586192Y-132465167D01*
X68586192Y-132465167D02*
X68586192Y-132836595D01*
X68586192Y-132836595D02*
X68648097Y-132960405D01*
X68648097Y-132960405D02*
X68710002Y-133022310D01*
X68710002Y-133022310D02*
X68833811Y-133084214D01*
X68833811Y-133084214D02*
X69019525Y-133084214D01*
X68029050Y-133084214D02*
X68029050Y-132217548D01*
X68029050Y-132465167D02*
X67967145Y-132341357D01*
X67967145Y-132341357D02*
X67905240Y-132279452D01*
X67905240Y-132279452D02*
X67781431Y-132217548D01*
X67781431Y-132217548D02*
X67657621Y-132217548D01*
X67224288Y-133084214D02*
X67224288Y-131784214D01*
X67100478Y-132588976D02*
X66729050Y-133084214D01*
X66729050Y-132217548D02*
X67224288Y-132712786D01*
X64995716Y-133084214D02*
X65119526Y-133022310D01*
X65119526Y-133022310D02*
X65181431Y-132960405D01*
X65181431Y-132960405D02*
X65243335Y-132836595D01*
X65243335Y-132836595D02*
X65243335Y-132465167D01*
X65243335Y-132465167D02*
X65181431Y-132341357D01*
X65181431Y-132341357D02*
X65119526Y-132279452D01*
X65119526Y-132279452D02*
X64995716Y-132217548D01*
X64995716Y-132217548D02*
X64810002Y-132217548D01*
X64810002Y-132217548D02*
X64686193Y-132279452D01*
X64686193Y-132279452D02*
X64624288Y-132341357D01*
X64624288Y-132341357D02*
X64562383Y-132465167D01*
X64562383Y-132465167D02*
X64562383Y-132836595D01*
X64562383Y-132836595D02*
X64624288Y-132960405D01*
X64624288Y-132960405D02*
X64686193Y-133022310D01*
X64686193Y-133022310D02*
X64810002Y-133084214D01*
X64810002Y-133084214D02*
X64995716Y-133084214D01*
X64190955Y-132217548D02*
X63695717Y-132217548D01*
X64005241Y-133084214D02*
X64005241Y-131969929D01*
X64005241Y-131969929D02*
X63943336Y-131846119D01*
X63943336Y-131846119D02*
X63819526Y-131784214D01*
X63819526Y-131784214D02*
X63695717Y-131784214D01*
X90624283Y-133877141D02*
X90190950Y-135177141D01*
X90190950Y-135177141D02*
X89757616Y-133877141D01*
X88767140Y-135177141D02*
X88767140Y-134496189D01*
X88767140Y-134496189D02*
X88829045Y-134372379D01*
X88829045Y-134372379D02*
X88952854Y-134310475D01*
X88952854Y-134310475D02*
X89200473Y-134310475D01*
X89200473Y-134310475D02*
X89324283Y-134372379D01*
X88767140Y-135115237D02*
X88890949Y-135177141D01*
X88890949Y-135177141D02*
X89200473Y-135177141D01*
X89200473Y-135177141D02*
X89324283Y-135115237D01*
X89324283Y-135115237D02*
X89386187Y-134991427D01*
X89386187Y-134991427D02*
X89386187Y-134867617D01*
X89386187Y-134867617D02*
X89324283Y-134743808D01*
X89324283Y-134743808D02*
X89200473Y-134681903D01*
X89200473Y-134681903D02*
X88890949Y-134681903D01*
X88890949Y-134681903D02*
X88767140Y-134619998D01*
X87962378Y-135177141D02*
X88086188Y-135115237D01*
X88086188Y-135115237D02*
X88148093Y-134991427D01*
X88148093Y-134991427D02*
X88148093Y-133877141D01*
X86971903Y-135115237D02*
X87095712Y-135177141D01*
X87095712Y-135177141D02*
X87343331Y-135177141D01*
X87343331Y-135177141D02*
X87467141Y-135115237D01*
X87467141Y-135115237D02*
X87529045Y-134991427D01*
X87529045Y-134991427D02*
X87529045Y-134496189D01*
X87529045Y-134496189D02*
X87467141Y-134372379D01*
X87467141Y-134372379D02*
X87343331Y-134310475D01*
X87343331Y-134310475D02*
X87095712Y-134310475D01*
X87095712Y-134310475D02*
X86971903Y-134372379D01*
X86971903Y-134372379D02*
X86909998Y-134496189D01*
X86909998Y-134496189D02*
X86909998Y-134619998D01*
X86909998Y-134619998D02*
X87529045Y-134743808D01*
X86352855Y-134310475D02*
X86352855Y-135177141D01*
X86352855Y-134434284D02*
X86290950Y-134372379D01*
X86290950Y-134372379D02*
X86167140Y-134310475D01*
X86167140Y-134310475D02*
X85981426Y-134310475D01*
X85981426Y-134310475D02*
X85857617Y-134372379D01*
X85857617Y-134372379D02*
X85795712Y-134496189D01*
X85795712Y-134496189D02*
X85795712Y-135177141D01*
X85362379Y-134310475D02*
X84867141Y-134310475D01*
X85176665Y-133877141D02*
X85176665Y-134991427D01*
X85176665Y-134991427D02*
X85114760Y-135115237D01*
X85114760Y-135115237D02*
X84990950Y-135177141D01*
X84990950Y-135177141D02*
X84867141Y-135177141D01*
X84433808Y-135177141D02*
X84433808Y-134310475D01*
X84433808Y-133877141D02*
X84495712Y-133939046D01*
X84495712Y-133939046D02*
X84433808Y-134000951D01*
X84433808Y-134000951D02*
X84371903Y-133939046D01*
X84371903Y-133939046D02*
X84433808Y-133877141D01*
X84433808Y-133877141D02*
X84433808Y-134000951D01*
X83814760Y-134310475D02*
X83814760Y-135177141D01*
X83814760Y-134434284D02*
X83752855Y-134372379D01*
X83752855Y-134372379D02*
X83629045Y-134310475D01*
X83629045Y-134310475D02*
X83443331Y-134310475D01*
X83443331Y-134310475D02*
X83319522Y-134372379D01*
X83319522Y-134372379D02*
X83257617Y-134496189D01*
X83257617Y-134496189D02*
X83257617Y-135177141D01*
X80905237Y-135177141D02*
X81338570Y-134558094D01*
X81648094Y-135177141D02*
X81648094Y-133877141D01*
X81648094Y-133877141D02*
X81152856Y-133877141D01*
X81152856Y-133877141D02*
X81029046Y-133939046D01*
X81029046Y-133939046D02*
X80967141Y-134000951D01*
X80967141Y-134000951D02*
X80905237Y-134124760D01*
X80905237Y-134124760D02*
X80905237Y-134310475D01*
X80905237Y-134310475D02*
X80967141Y-134434284D01*
X80967141Y-134434284D02*
X81029046Y-134496189D01*
X81029046Y-134496189D02*
X81152856Y-134558094D01*
X81152856Y-134558094D02*
X81648094Y-134558094D01*
X80162379Y-135177141D02*
X80286189Y-135115237D01*
X80286189Y-135115237D02*
X80348094Y-135053332D01*
X80348094Y-135053332D02*
X80409998Y-134929522D01*
X80409998Y-134929522D02*
X80409998Y-134558094D01*
X80409998Y-134558094D02*
X80348094Y-134434284D01*
X80348094Y-134434284D02*
X80286189Y-134372379D01*
X80286189Y-134372379D02*
X80162379Y-134310475D01*
X80162379Y-134310475D02*
X79976665Y-134310475D01*
X79976665Y-134310475D02*
X79852856Y-134372379D01*
X79852856Y-134372379D02*
X79790951Y-134434284D01*
X79790951Y-134434284D02*
X79729046Y-134558094D01*
X79729046Y-134558094D02*
X79729046Y-134929522D01*
X79729046Y-134929522D02*
X79790951Y-135053332D01*
X79790951Y-135053332D02*
X79852856Y-135115237D01*
X79852856Y-135115237D02*
X79976665Y-135177141D01*
X79976665Y-135177141D02*
X80162379Y-135177141D01*
X78986189Y-135177141D02*
X79109999Y-135115237D01*
X79109999Y-135115237D02*
X79171904Y-134991427D01*
X79171904Y-134991427D02*
X79171904Y-133877141D01*
X77933809Y-135177141D02*
X77933809Y-134496189D01*
X77933809Y-134496189D02*
X77995714Y-134372379D01*
X77995714Y-134372379D02*
X78119523Y-134310475D01*
X78119523Y-134310475D02*
X78367142Y-134310475D01*
X78367142Y-134310475D02*
X78490952Y-134372379D01*
X77933809Y-135115237D02*
X78057618Y-135177141D01*
X78057618Y-135177141D02*
X78367142Y-135177141D01*
X78367142Y-135177141D02*
X78490952Y-135115237D01*
X78490952Y-135115237D02*
X78552856Y-134991427D01*
X78552856Y-134991427D02*
X78552856Y-134867617D01*
X78552856Y-134867617D02*
X78490952Y-134743808D01*
X78490952Y-134743808D02*
X78367142Y-134681903D01*
X78367142Y-134681903D02*
X78057618Y-134681903D01*
X78057618Y-134681903D02*
X77933809Y-134619998D01*
X77314762Y-134310475D02*
X77314762Y-135177141D01*
X77314762Y-134434284D02*
X77252857Y-134372379D01*
X77252857Y-134372379D02*
X77129047Y-134310475D01*
X77129047Y-134310475D02*
X76943333Y-134310475D01*
X76943333Y-134310475D02*
X76819524Y-134372379D01*
X76819524Y-134372379D02*
X76757619Y-134496189D01*
X76757619Y-134496189D02*
X76757619Y-135177141D01*
X75581429Y-135177141D02*
X75581429Y-133877141D01*
X75581429Y-135115237D02*
X75705238Y-135177141D01*
X75705238Y-135177141D02*
X75952857Y-135177141D01*
X75952857Y-135177141D02*
X76076667Y-135115237D01*
X76076667Y-135115237D02*
X76138572Y-135053332D01*
X76138572Y-135053332D02*
X76200476Y-134929522D01*
X76200476Y-134929522D02*
X76200476Y-134558094D01*
X76200476Y-134558094D02*
X76138572Y-134434284D01*
X76138572Y-134434284D02*
X76076667Y-134372379D01*
X76076667Y-134372379D02*
X75952857Y-134310475D01*
X75952857Y-134310475D02*
X75705238Y-134310475D01*
X75705238Y-134310475D02*
X75581429Y-134372379D01*
X99662378Y-139362995D02*
X99662378Y-138062995D01*
X99105235Y-139362995D02*
X99105235Y-138682043D01*
X99105235Y-138682043D02*
X99167140Y-138558233D01*
X99167140Y-138558233D02*
X99290949Y-138496329D01*
X99290949Y-138496329D02*
X99476663Y-138496329D01*
X99476663Y-138496329D02*
X99600473Y-138558233D01*
X99600473Y-138558233D02*
X99662378Y-138620138D01*
X98671902Y-138496329D02*
X98176664Y-138496329D01*
X98486188Y-138062995D02*
X98486188Y-139177281D01*
X98486188Y-139177281D02*
X98424283Y-139301091D01*
X98424283Y-139301091D02*
X98300473Y-139362995D01*
X98300473Y-139362995D02*
X98176664Y-139362995D01*
X97929045Y-138496329D02*
X97433807Y-138496329D01*
X97743331Y-138062995D02*
X97743331Y-139177281D01*
X97743331Y-139177281D02*
X97681426Y-139301091D01*
X97681426Y-139301091D02*
X97557616Y-139362995D01*
X97557616Y-139362995D02*
X97433807Y-139362995D01*
X97000474Y-138496329D02*
X97000474Y-139796329D01*
X97000474Y-138558233D02*
X96876664Y-138496329D01*
X96876664Y-138496329D02*
X96629045Y-138496329D01*
X96629045Y-138496329D02*
X96505236Y-138558233D01*
X96505236Y-138558233D02*
X96443331Y-138620138D01*
X96443331Y-138620138D02*
X96381426Y-138743948D01*
X96381426Y-138743948D02*
X96381426Y-139115376D01*
X96381426Y-139115376D02*
X96443331Y-139239186D01*
X96443331Y-139239186D02*
X96505236Y-139301091D01*
X96505236Y-139301091D02*
X96629045Y-139362995D01*
X96629045Y-139362995D02*
X96876664Y-139362995D01*
X96876664Y-139362995D02*
X97000474Y-139301091D01*
X95886188Y-139301091D02*
X95762379Y-139362995D01*
X95762379Y-139362995D02*
X95514760Y-139362995D01*
X95514760Y-139362995D02*
X95390950Y-139301091D01*
X95390950Y-139301091D02*
X95329046Y-139177281D01*
X95329046Y-139177281D02*
X95329046Y-139115376D01*
X95329046Y-139115376D02*
X95390950Y-138991567D01*
X95390950Y-138991567D02*
X95514760Y-138929662D01*
X95514760Y-138929662D02*
X95700474Y-138929662D01*
X95700474Y-138929662D02*
X95824284Y-138867757D01*
X95824284Y-138867757D02*
X95886188Y-138743948D01*
X95886188Y-138743948D02*
X95886188Y-138682043D01*
X95886188Y-138682043D02*
X95824284Y-138558233D01*
X95824284Y-138558233D02*
X95700474Y-138496329D01*
X95700474Y-138496329D02*
X95514760Y-138496329D01*
X95514760Y-138496329D02*
X95390950Y-138558233D01*
X94771903Y-139239186D02*
X94709998Y-139301091D01*
X94709998Y-139301091D02*
X94771903Y-139362995D01*
X94771903Y-139362995D02*
X94833807Y-139301091D01*
X94833807Y-139301091D02*
X94771903Y-139239186D01*
X94771903Y-139239186D02*
X94771903Y-139362995D01*
X94771903Y-138558233D02*
X94709998Y-138620138D01*
X94709998Y-138620138D02*
X94771903Y-138682043D01*
X94771903Y-138682043D02*
X94833807Y-138620138D01*
X94833807Y-138620138D02*
X94771903Y-138558233D01*
X94771903Y-138558233D02*
X94771903Y-138682043D01*
X93224283Y-138001091D02*
X94338569Y-139672519D01*
X91862378Y-138001091D02*
X92976664Y-139672519D01*
X90871902Y-138496329D02*
X90871902Y-139548710D01*
X90871902Y-139548710D02*
X90933807Y-139672519D01*
X90933807Y-139672519D02*
X90995711Y-139734424D01*
X90995711Y-139734424D02*
X91119521Y-139796329D01*
X91119521Y-139796329D02*
X91305235Y-139796329D01*
X91305235Y-139796329D02*
X91429045Y-139734424D01*
X90871902Y-139301091D02*
X90995711Y-139362995D01*
X90995711Y-139362995D02*
X91243330Y-139362995D01*
X91243330Y-139362995D02*
X91367140Y-139301091D01*
X91367140Y-139301091D02*
X91429045Y-139239186D01*
X91429045Y-139239186D02*
X91490949Y-139115376D01*
X91490949Y-139115376D02*
X91490949Y-138743948D01*
X91490949Y-138743948D02*
X91429045Y-138620138D01*
X91429045Y-138620138D02*
X91367140Y-138558233D01*
X91367140Y-138558233D02*
X91243330Y-138496329D01*
X91243330Y-138496329D02*
X90995711Y-138496329D01*
X90995711Y-138496329D02*
X90871902Y-138558233D01*
X90252855Y-139362995D02*
X90252855Y-138496329D01*
X90252855Y-138062995D02*
X90314759Y-138124900D01*
X90314759Y-138124900D02*
X90252855Y-138186805D01*
X90252855Y-138186805D02*
X90190950Y-138124900D01*
X90190950Y-138124900D02*
X90252855Y-138062995D01*
X90252855Y-138062995D02*
X90252855Y-138186805D01*
X89819521Y-138496329D02*
X89324283Y-138496329D01*
X89633807Y-138062995D02*
X89633807Y-139177281D01*
X89633807Y-139177281D02*
X89571902Y-139301091D01*
X89571902Y-139301091D02*
X89448092Y-139362995D01*
X89448092Y-139362995D02*
X89324283Y-139362995D01*
X88890950Y-139362995D02*
X88890950Y-138062995D01*
X88333807Y-139362995D02*
X88333807Y-138682043D01*
X88333807Y-138682043D02*
X88395712Y-138558233D01*
X88395712Y-138558233D02*
X88519521Y-138496329D01*
X88519521Y-138496329D02*
X88705235Y-138496329D01*
X88705235Y-138496329D02*
X88829045Y-138558233D01*
X88829045Y-138558233D02*
X88890950Y-138620138D01*
X87157617Y-138496329D02*
X87157617Y-139362995D01*
X87714760Y-138496329D02*
X87714760Y-139177281D01*
X87714760Y-139177281D02*
X87652855Y-139301091D01*
X87652855Y-139301091D02*
X87529045Y-139362995D01*
X87529045Y-139362995D02*
X87343331Y-139362995D01*
X87343331Y-139362995D02*
X87219522Y-139301091D01*
X87219522Y-139301091D02*
X87157617Y-139239186D01*
X86538570Y-139362995D02*
X86538570Y-138062995D01*
X86538570Y-138558233D02*
X86414760Y-138496329D01*
X86414760Y-138496329D02*
X86167141Y-138496329D01*
X86167141Y-138496329D02*
X86043332Y-138558233D01*
X86043332Y-138558233D02*
X85981427Y-138620138D01*
X85981427Y-138620138D02*
X85919522Y-138743948D01*
X85919522Y-138743948D02*
X85919522Y-139115376D01*
X85919522Y-139115376D02*
X85981427Y-139239186D01*
X85981427Y-139239186D02*
X86043332Y-139301091D01*
X86043332Y-139301091D02*
X86167141Y-139362995D01*
X86167141Y-139362995D02*
X86414760Y-139362995D01*
X86414760Y-139362995D02*
X86538570Y-139301091D01*
X85362380Y-139239186D02*
X85300475Y-139301091D01*
X85300475Y-139301091D02*
X85362380Y-139362995D01*
X85362380Y-139362995D02*
X85424284Y-139301091D01*
X85424284Y-139301091D02*
X85362380Y-139239186D01*
X85362380Y-139239186D02*
X85362380Y-139362995D01*
X84186189Y-139301091D02*
X84309998Y-139362995D01*
X84309998Y-139362995D02*
X84557617Y-139362995D01*
X84557617Y-139362995D02*
X84681427Y-139301091D01*
X84681427Y-139301091D02*
X84743332Y-139239186D01*
X84743332Y-139239186D02*
X84805236Y-139115376D01*
X84805236Y-139115376D02*
X84805236Y-138743948D01*
X84805236Y-138743948D02*
X84743332Y-138620138D01*
X84743332Y-138620138D02*
X84681427Y-138558233D01*
X84681427Y-138558233D02*
X84557617Y-138496329D01*
X84557617Y-138496329D02*
X84309998Y-138496329D01*
X84309998Y-138496329D02*
X84186189Y-138558233D01*
X83443331Y-139362995D02*
X83567141Y-139301091D01*
X83567141Y-139301091D02*
X83629046Y-139239186D01*
X83629046Y-139239186D02*
X83690950Y-139115376D01*
X83690950Y-139115376D02*
X83690950Y-138743948D01*
X83690950Y-138743948D02*
X83629046Y-138620138D01*
X83629046Y-138620138D02*
X83567141Y-138558233D01*
X83567141Y-138558233D02*
X83443331Y-138496329D01*
X83443331Y-138496329D02*
X83257617Y-138496329D01*
X83257617Y-138496329D02*
X83133808Y-138558233D01*
X83133808Y-138558233D02*
X83071903Y-138620138D01*
X83071903Y-138620138D02*
X83009998Y-138743948D01*
X83009998Y-138743948D02*
X83009998Y-139115376D01*
X83009998Y-139115376D02*
X83071903Y-139239186D01*
X83071903Y-139239186D02*
X83133808Y-139301091D01*
X83133808Y-139301091D02*
X83257617Y-139362995D01*
X83257617Y-139362995D02*
X83443331Y-139362995D01*
X82452856Y-139362995D02*
X82452856Y-138496329D01*
X82452856Y-138620138D02*
X82390951Y-138558233D01*
X82390951Y-138558233D02*
X82267141Y-138496329D01*
X82267141Y-138496329D02*
X82081427Y-138496329D01*
X82081427Y-138496329D02*
X81957618Y-138558233D01*
X81957618Y-138558233D02*
X81895713Y-138682043D01*
X81895713Y-138682043D02*
X81895713Y-139362995D01*
X81895713Y-138682043D02*
X81833808Y-138558233D01*
X81833808Y-138558233D02*
X81709999Y-138496329D01*
X81709999Y-138496329D02*
X81524284Y-138496329D01*
X81524284Y-138496329D02*
X81400475Y-138558233D01*
X81400475Y-138558233D02*
X81338570Y-138682043D01*
X81338570Y-138682043D02*
X81338570Y-139362995D01*
X79790951Y-138001091D02*
X80905237Y-139672519D01*
X79481427Y-138496329D02*
X79171903Y-139362995D01*
X79171903Y-139362995D02*
X78862380Y-138496329D01*
X78367142Y-139362995D02*
X78367142Y-138496329D01*
X78367142Y-138743948D02*
X78305237Y-138620138D01*
X78305237Y-138620138D02*
X78243332Y-138558233D01*
X78243332Y-138558233D02*
X78119523Y-138496329D01*
X78119523Y-138496329D02*
X77995713Y-138496329D01*
X77376665Y-139362995D02*
X77500475Y-139301091D01*
X77500475Y-139301091D02*
X77562380Y-139239186D01*
X77562380Y-139239186D02*
X77624284Y-139115376D01*
X77624284Y-139115376D02*
X77624284Y-138743948D01*
X77624284Y-138743948D02*
X77562380Y-138620138D01*
X77562380Y-138620138D02*
X77500475Y-138558233D01*
X77500475Y-138558233D02*
X77376665Y-138496329D01*
X77376665Y-138496329D02*
X77190951Y-138496329D01*
X77190951Y-138496329D02*
X77067142Y-138558233D01*
X77067142Y-138558233D02*
X77005237Y-138620138D01*
X77005237Y-138620138D02*
X76943332Y-138743948D01*
X76943332Y-138743948D02*
X76943332Y-139115376D01*
X76943332Y-139115376D02*
X77005237Y-139239186D01*
X77005237Y-139239186D02*
X77067142Y-139301091D01*
X77067142Y-139301091D02*
X77190951Y-139362995D01*
X77190951Y-139362995D02*
X77376665Y-139362995D01*
X76200475Y-139362995D02*
X76324285Y-139301091D01*
X76324285Y-139301091D02*
X76386190Y-139177281D01*
X76386190Y-139177281D02*
X76386190Y-138062995D01*
X75148095Y-139362995D02*
X75148095Y-138682043D01*
X75148095Y-138682043D02*
X75210000Y-138558233D01*
X75210000Y-138558233D02*
X75333809Y-138496329D01*
X75333809Y-138496329D02*
X75581428Y-138496329D01*
X75581428Y-138496329D02*
X75705238Y-138558233D01*
X75148095Y-139301091D02*
X75271904Y-139362995D01*
X75271904Y-139362995D02*
X75581428Y-139362995D01*
X75581428Y-139362995D02*
X75705238Y-139301091D01*
X75705238Y-139301091D02*
X75767142Y-139177281D01*
X75767142Y-139177281D02*
X75767142Y-139053471D01*
X75767142Y-139053471D02*
X75705238Y-138929662D01*
X75705238Y-138929662D02*
X75581428Y-138867757D01*
X75581428Y-138867757D02*
X75271904Y-138867757D01*
X75271904Y-138867757D02*
X75148095Y-138805852D01*
X74529048Y-138496329D02*
X74529048Y-139362995D01*
X74529048Y-138620138D02*
X74467143Y-138558233D01*
X74467143Y-138558233D02*
X74343333Y-138496329D01*
X74343333Y-138496329D02*
X74157619Y-138496329D01*
X74157619Y-138496329D02*
X74033810Y-138558233D01*
X74033810Y-138558233D02*
X73971905Y-138682043D01*
X73971905Y-138682043D02*
X73971905Y-139362995D01*
X72795715Y-139362995D02*
X72795715Y-138062995D01*
X72795715Y-139301091D02*
X72919524Y-139362995D01*
X72919524Y-139362995D02*
X73167143Y-139362995D01*
X73167143Y-139362995D02*
X73290953Y-139301091D01*
X73290953Y-139301091D02*
X73352858Y-139239186D01*
X73352858Y-139239186D02*
X73414762Y-139115376D01*
X73414762Y-139115376D02*
X73414762Y-138743948D01*
X73414762Y-138743948D02*
X73352858Y-138620138D01*
X73352858Y-138620138D02*
X73290953Y-138558233D01*
X73290953Y-138558233D02*
X73167143Y-138496329D01*
X73167143Y-138496329D02*
X72919524Y-138496329D01*
X72919524Y-138496329D02*
X72795715Y-138558233D01*
X71248096Y-138001091D02*
X72362382Y-139672519D01*
X70319525Y-139301091D02*
X70443334Y-139362995D01*
X70443334Y-139362995D02*
X70690953Y-139362995D01*
X70690953Y-139362995D02*
X70814763Y-139301091D01*
X70814763Y-139301091D02*
X70876667Y-139177281D01*
X70876667Y-139177281D02*
X70876667Y-138682043D01*
X70876667Y-138682043D02*
X70814763Y-138558233D01*
X70814763Y-138558233D02*
X70690953Y-138496329D01*
X70690953Y-138496329D02*
X70443334Y-138496329D01*
X70443334Y-138496329D02*
X70319525Y-138558233D01*
X70319525Y-138558233D02*
X70257620Y-138682043D01*
X70257620Y-138682043D02*
X70257620Y-138805852D01*
X70257620Y-138805852D02*
X70876667Y-138929662D01*
X69700477Y-138496329D02*
X69700477Y-139796329D01*
X69700477Y-138558233D02*
X69576667Y-138496329D01*
X69576667Y-138496329D02*
X69329048Y-138496329D01*
X69329048Y-138496329D02*
X69205239Y-138558233D01*
X69205239Y-138558233D02*
X69143334Y-138620138D01*
X69143334Y-138620138D02*
X69081429Y-138743948D01*
X69081429Y-138743948D02*
X69081429Y-139115376D01*
X69081429Y-139115376D02*
X69143334Y-139239186D01*
X69143334Y-139239186D02*
X69205239Y-139301091D01*
X69205239Y-139301091D02*
X69329048Y-139362995D01*
X69329048Y-139362995D02*
X69576667Y-139362995D01*
X69576667Y-139362995D02*
X69700477Y-139301091D01*
X67967144Y-139362995D02*
X67967144Y-138062995D01*
X67967144Y-139301091D02*
X68090953Y-139362995D01*
X68090953Y-139362995D02*
X68338572Y-139362995D01*
X68338572Y-139362995D02*
X68462382Y-139301091D01*
X68462382Y-139301091D02*
X68524287Y-139239186D01*
X68524287Y-139239186D02*
X68586191Y-139115376D01*
X68586191Y-139115376D02*
X68586191Y-138743948D01*
X68586191Y-138743948D02*
X68524287Y-138620138D01*
X68524287Y-138620138D02*
X68462382Y-138558233D01*
X68462382Y-138558233D02*
X68338572Y-138496329D01*
X68338572Y-138496329D02*
X68090953Y-138496329D01*
X68090953Y-138496329D02*
X67967144Y-138558233D01*
X67348097Y-139362995D02*
X67348097Y-138496329D01*
X67348097Y-138062995D02*
X67410001Y-138124900D01*
X67410001Y-138124900D02*
X67348097Y-138186805D01*
X67348097Y-138186805D02*
X67286192Y-138124900D01*
X67286192Y-138124900D02*
X67348097Y-138062995D01*
X67348097Y-138062995D02*
X67348097Y-138186805D01*
X66852858Y-138496329D02*
X66543334Y-139362995D01*
X66233811Y-138496329D02*
X66543334Y-139362995D01*
X66543334Y-139362995D02*
X66667144Y-139672519D01*
X66667144Y-139672519D02*
X66729049Y-139734424D01*
X66729049Y-139734424D02*
X66852858Y-139796329D01*
%LPC*%
D12*
X196045000Y-95055000D03*
D13*
X196045000Y-97595000D03*
X196045000Y-100135000D03*
X196045000Y-102675000D03*
D14*
X195000000Y-46910000D03*
X62596500Y-145343693D03*
X195000000Y-145343693D03*
X62670000Y-46910000D03*
D15*
X61950000Y-117963693D03*
D16*
X66130000Y-117963693D03*
D15*
X61950000Y-109323693D03*
D16*
X66130000Y-109323693D03*
D17*
X65600000Y-116533693D03*
X65600000Y-110753693D03*
D15*
X61950000Y-106775000D03*
D16*
X66130000Y-106775000D03*
D15*
X61950000Y-98135000D03*
D16*
X66130000Y-98135000D03*
D17*
X65600000Y-105345000D03*
X65600000Y-99565000D03*
D18*
X63320000Y-88690000D03*
X63320000Y-80690000D03*
D19*
X101695300Y-131146493D03*
X101695300Y-130359093D03*
X101695300Y-129571693D03*
X101695300Y-128784293D03*
X101695300Y-127996893D03*
X100907900Y-131146493D03*
X100907900Y-130359093D03*
X100907900Y-129571693D03*
X100907900Y-128784293D03*
X100907900Y-127996893D03*
X100120500Y-131146493D03*
X100120500Y-130359093D03*
X100120500Y-129571693D03*
X100120500Y-128784293D03*
X100120500Y-127996893D03*
X99333100Y-131146493D03*
X99333100Y-130359093D03*
X99333100Y-129571693D03*
X99333100Y-128784293D03*
X99333100Y-127996893D03*
X98545700Y-131146493D03*
X98545700Y-130359093D03*
X98545700Y-129571693D03*
X98545700Y-128784293D03*
X98545700Y-127996893D03*
%LPD*%
M02*
