G04 #@! TF.GenerationSoftware,KiCad,Pcbnew,9.0.0-9.0.0-0~ubuntu22.04.1*
G04 #@! TF.CreationDate,2025-08-18T20:28:43+02:00*
G04 #@! TF.ProjectId,v7-raw-34,76372d72-6177-42d3-9334-2e6b69636164,1.3*
G04 #@! TF.SameCoordinates,Original*
G04 #@! TF.FileFunction,Copper,L1,Top*
G04 #@! TF.FilePolarity,Positive*
%FSLAX46Y46*%
G04 Gerber Fmt 4.6, Leading zero omitted, Abs format (unit mm)*
G04 Created by KiCad (PCBNEW 9.0.0-9.0.0-0~ubuntu22.04.1) date 2025-08-18 20:28:43*
%MOMM*%
%LPD*%
G01*
G04 APERTURE LIST*
G04 Aperture macros list*
%AMRoundRect*
0 Rectangle with rounded corners*
0 $1 Rounding radius*
0 $2 $3 $4 $5 $6 $7 $8 $9 X,Y pos of 4 corners*
0 Add a 4 corners polygon primitive as box body*
4,1,4,$2,$3,$4,$5,$6,$7,$8,$9,$2,$3,0*
0 Add four circle primitives for the rounded corners*
1,1,$1+$1,$2,$3*
1,1,$1+$1,$4,$5*
1,1,$1+$1,$6,$7*
1,1,$1+$1,$8,$9*
0 Add four rect primitives between the rounded corners*
20,1,$1+$1,$2,$3,$4,$5,0*
20,1,$1+$1,$4,$5,$6,$7,0*
20,1,$1+$1,$6,$7,$8,$9,0*
20,1,$1+$1,$8,$9,$2,$3,0*%
%AMRotRect*
0 Rectangle, with rotation*
0 The origin of the aperture is its center*
0 $1 length*
0 $2 width*
0 $3 Rotation angle, in degrees counterclockwise*
0 Add horizontal line*
21,1,$1,$2,0,0,$3*%
G04 Aperture macros list end*
G04 #@! TA.AperFunction,EtchedComponent*
%ADD10C,0.000000*%
G04 #@! TD*
G04 #@! TA.AperFunction,SMDPad,CuDef*
%ADD11RoundRect,0.200000X-0.200000X-0.275000X0.200000X-0.275000X0.200000X0.275000X-0.200000X0.275000X0*%
G04 #@! TD*
G04 #@! TA.AperFunction,SMDPad,CuDef*
%ADD12RoundRect,0.150000X0.150000X-0.587500X0.150000X0.587500X-0.150000X0.587500X-0.150000X-0.587500X0*%
G04 #@! TD*
G04 #@! TA.AperFunction,SMDPad,CuDef*
%ADD13RoundRect,0.200000X-0.275000X0.200000X-0.275000X-0.200000X0.275000X-0.200000X0.275000X0.200000X0*%
G04 #@! TD*
G04 #@! TA.AperFunction,SMDPad,CuDef*
%ADD14RoundRect,0.200000X0.275000X-0.200000X0.275000X0.200000X-0.275000X0.200000X-0.275000X-0.200000X0*%
G04 #@! TD*
G04 #@! TA.AperFunction,SMDPad,CuDef*
%ADD15RoundRect,0.150000X-0.150000X0.587500X-0.150000X-0.587500X0.150000X-0.587500X0.150000X0.587500X0*%
G04 #@! TD*
G04 #@! TA.AperFunction,SMDPad,CuDef*
%ADD16RoundRect,0.250000X0.250000X0.475000X-0.250000X0.475000X-0.250000X-0.475000X0.250000X-0.475000X0*%
G04 #@! TD*
G04 #@! TA.AperFunction,SMDPad,CuDef*
%ADD17RoundRect,0.250000X-0.475000X0.250000X-0.475000X-0.250000X0.475000X-0.250000X0.475000X0.250000X0*%
G04 #@! TD*
G04 #@! TA.AperFunction,SMDPad,CuDef*
%ADD18RoundRect,0.243750X-0.456250X0.243750X-0.456250X-0.243750X0.456250X-0.243750X0.456250X0.243750X0*%
G04 #@! TD*
G04 #@! TA.AperFunction,SMDPad,CuDef*
%ADD19RoundRect,0.250000X0.475000X-0.250000X0.475000X0.250000X-0.475000X0.250000X-0.475000X-0.250000X0*%
G04 #@! TD*
G04 #@! TA.AperFunction,SMDPad,CuDef*
%ADD20RoundRect,0.250000X0.650000X-0.325000X0.650000X0.325000X-0.650000X0.325000X-0.650000X-0.325000X0*%
G04 #@! TD*
G04 #@! TA.AperFunction,SMDPad,CuDef*
%ADD21RoundRect,0.250000X-0.250000X-0.475000X0.250000X-0.475000X0.250000X0.475000X-0.250000X0.475000X0*%
G04 #@! TD*
G04 #@! TA.AperFunction,SMDPad,CuDef*
%ADD22RoundRect,0.250000X-0.325000X-0.650000X0.325000X-0.650000X0.325000X0.650000X-0.325000X0.650000X0*%
G04 #@! TD*
G04 #@! TA.AperFunction,SMDPad,CuDef*
%ADD23RoundRect,0.250000X0.925000X-0.412500X0.925000X0.412500X-0.925000X0.412500X-0.925000X-0.412500X0*%
G04 #@! TD*
G04 #@! TA.AperFunction,SMDPad,CuDef*
%ADD24RoundRect,0.200000X0.200000X0.275000X-0.200000X0.275000X-0.200000X-0.275000X0.200000X-0.275000X0*%
G04 #@! TD*
G04 #@! TA.AperFunction,SMDPad,CuDef*
%ADD25R,3.900000X2.200000*%
G04 #@! TD*
G04 #@! TA.AperFunction,SMDPad,CuDef*
%ADD26R,4.200000X2.400000*%
G04 #@! TD*
G04 #@! TA.AperFunction,SMDPad,CuDef*
%ADD27R,0.850000X0.200000*%
G04 #@! TD*
G04 #@! TA.AperFunction,SMDPad,CuDef*
%ADD28R,0.200000X0.850000*%
G04 #@! TD*
G04 #@! TA.AperFunction,ComponentPad*
%ADD29C,0.508000*%
G04 #@! TD*
G04 #@! TA.AperFunction,SMDPad,CuDef*
%ADD30R,4.399999X4.399999*%
G04 #@! TD*
G04 #@! TA.AperFunction,SMDPad,CuDef*
%ADD31RoundRect,0.225000X-0.375000X0.225000X-0.375000X-0.225000X0.375000X-0.225000X0.375000X0.225000X0*%
G04 #@! TD*
G04 #@! TA.AperFunction,SMDPad,CuDef*
%ADD32RoundRect,0.225000X0.375000X-0.225000X0.375000X0.225000X-0.375000X0.225000X-0.375000X-0.225000X0*%
G04 #@! TD*
G04 #@! TA.AperFunction,SMDPad,CuDef*
%ADD33C,2.500000*%
G04 #@! TD*
G04 #@! TA.AperFunction,SMDPad,CuDef*
%ADD34R,0.650000X1.500000*%
G04 #@! TD*
G04 #@! TA.AperFunction,SMDPad,CuDef*
%ADD35R,3.600000X2.700000*%
G04 #@! TD*
G04 #@! TA.AperFunction,SMDPad,CuDef*
%ADD36RoundRect,0.150000X0.512500X0.150000X-0.512500X0.150000X-0.512500X-0.150000X0.512500X-0.150000X0*%
G04 #@! TD*
G04 #@! TA.AperFunction,SMDPad,CuDef*
%ADD37R,0.500000X0.375000*%
G04 #@! TD*
G04 #@! TA.AperFunction,SMDPad,CuDef*
%ADD38R,0.650000X0.300000*%
G04 #@! TD*
G04 #@! TA.AperFunction,SMDPad,CuDef*
%ADD39R,1.600000X2.800000*%
G04 #@! TD*
G04 #@! TA.AperFunction,SMDPad,CuDef*
%ADD40R,0.250000X1.300000*%
G04 #@! TD*
G04 #@! TA.AperFunction,SMDPad,CuDef*
%ADD41RoundRect,0.150000X-0.587500X-0.150000X0.587500X-0.150000X0.587500X0.150000X-0.587500X0.150000X0*%
G04 #@! TD*
G04 #@! TA.AperFunction,SMDPad,CuDef*
%ADD42RoundRect,0.200000X0.053033X-0.335876X0.335876X-0.053033X-0.053033X0.335876X-0.335876X0.053033X0*%
G04 #@! TD*
G04 #@! TA.AperFunction,SMDPad,CuDef*
%ADD43R,1.500000X1.000000*%
G04 #@! TD*
G04 #@! TA.AperFunction,ComponentPad*
%ADD44R,1.700000X1.700000*%
G04 #@! TD*
G04 #@! TA.AperFunction,ComponentPad*
%ADD45O,1.700000X1.700000*%
G04 #@! TD*
G04 #@! TA.AperFunction,SMDPad,CuDef*
%ADD46R,1.070000X0.530000*%
G04 #@! TD*
G04 #@! TA.AperFunction,SMDPad,CuDef*
%ADD47R,2.200000X0.800000*%
G04 #@! TD*
G04 #@! TA.AperFunction,SMDPad,CuDef*
%ADD48R,2.500000X2.350000*%
G04 #@! TD*
G04 #@! TA.AperFunction,SMDPad,CuDef*
%ADD49R,1.550000X0.600000*%
G04 #@! TD*
G04 #@! TA.AperFunction,SMDPad,CuDef*
%ADD50R,1.800000X1.200000*%
G04 #@! TD*
G04 #@! TA.AperFunction,SMDPad,CuDef*
%ADD51C,1.500000*%
G04 #@! TD*
G04 #@! TA.AperFunction,SMDPad,CuDef*
%ADD52RoundRect,0.150000X-0.150000X0.512500X-0.150000X-0.512500X0.150000X-0.512500X0.150000X0.512500X0*%
G04 #@! TD*
G04 #@! TA.AperFunction,SMDPad,CuDef*
%ADD53RoundRect,0.150000X-0.477297X-0.689429X0.689429X0.477297X0.477297X0.689429X-0.689429X-0.477297X0*%
G04 #@! TD*
G04 #@! TA.AperFunction,SMDPad,CuDef*
%ADD54R,1.257300X4.013200*%
G04 #@! TD*
G04 #@! TA.AperFunction,SMDPad,CuDef*
%ADD55RoundRect,0.225000X0.017678X-0.335876X0.335876X-0.017678X-0.017678X0.335876X-0.335876X0.017678X0*%
G04 #@! TD*
G04 #@! TA.AperFunction,SMDPad,CuDef*
%ADD56RoundRect,0.250000X-0.412500X-0.925000X0.412500X-0.925000X0.412500X0.925000X-0.412500X0.925000X0*%
G04 #@! TD*
G04 #@! TA.AperFunction,SMDPad,CuDef*
%ADD57R,1.500000X0.900000*%
G04 #@! TD*
G04 #@! TA.AperFunction,SMDPad,CuDef*
%ADD58R,0.900000X1.500000*%
G04 #@! TD*
G04 #@! TA.AperFunction,SMDPad,CuDef*
%ADD59R,0.900000X0.900000*%
G04 #@! TD*
G04 #@! TA.AperFunction,SMDPad,CuDef*
%ADD60RoundRect,0.200000X-0.053033X0.335876X-0.335876X0.053033X0.053033X-0.335876X0.335876X-0.053033X0*%
G04 #@! TD*
G04 #@! TA.AperFunction,SMDPad,CuDef*
%ADD61RotRect,1.000000X3.500000X45.000000*%
G04 #@! TD*
G04 #@! TA.AperFunction,SMDPad,CuDef*
%ADD62RotRect,1.500000X3.400000X45.000000*%
G04 #@! TD*
G04 #@! TA.AperFunction,SMDPad,CuDef*
%ADD63RoundRect,0.150000X-0.825000X-0.150000X0.825000X-0.150000X0.825000X0.150000X-0.825000X0.150000X0*%
G04 #@! TD*
G04 #@! TA.AperFunction,SMDPad,CuDef*
%ADD64R,1.450000X0.600000*%
G04 #@! TD*
G04 #@! TA.AperFunction,SMDPad,CuDef*
%ADD65R,1.450000X0.300000*%
G04 #@! TD*
G04 #@! TA.AperFunction,ComponentPad*
%ADD66O,2.100000X1.000000*%
G04 #@! TD*
G04 #@! TA.AperFunction,ComponentPad*
%ADD67O,1.600000X1.000000*%
G04 #@! TD*
G04 #@! TA.AperFunction,SMDPad,CuDef*
%ADD68RotRect,1.295400X1.422400X225.000000*%
G04 #@! TD*
G04 #@! TA.AperFunction,SMDPad,CuDef*
%ADD69R,1.600000X0.700000*%
G04 #@! TD*
G04 #@! TA.AperFunction,SMDPad,CuDef*
%ADD70R,1.500000X1.600000*%
G04 #@! TD*
G04 #@! TA.AperFunction,SMDPad,CuDef*
%ADD71R,2.200000X1.200000*%
G04 #@! TD*
G04 #@! TA.AperFunction,SMDPad,CuDef*
%ADD72RoundRect,0.112500X-0.112500X0.187500X-0.112500X-0.187500X0.112500X-0.187500X0.112500X0.187500X0*%
G04 #@! TD*
G04 #@! TA.AperFunction,SMDPad,CuDef*
%ADD73R,0.510000X0.300000*%
G04 #@! TD*
G04 #@! TA.AperFunction,SMDPad,CuDef*
%ADD74R,0.838200X0.355600*%
G04 #@! TD*
G04 #@! TA.AperFunction,SMDPad,CuDef*
%ADD75R,0.838200X0.406400*%
G04 #@! TD*
G04 #@! TA.AperFunction,ViaPad*
%ADD76C,0.800000*%
G04 #@! TD*
G04 #@! TA.AperFunction,ViaPad*
%ADD77C,0.450000*%
G04 #@! TD*
G04 #@! TA.AperFunction,ViaPad*
%ADD78C,0.500000*%
G04 #@! TD*
G04 #@! TA.AperFunction,Conductor*
%ADD79C,0.500000*%
G04 #@! TD*
G04 #@! TA.AperFunction,Conductor*
%ADD80C,0.300000*%
G04 #@! TD*
G04 #@! TA.AperFunction,Conductor*
%ADD81C,0.200000*%
G04 #@! TD*
G04 #@! TA.AperFunction,Conductor*
%ADD82C,0.250000*%
G04 #@! TD*
G04 #@! TA.AperFunction,Conductor*
%ADD83C,1.000000*%
G04 #@! TD*
G04 #@! TA.AperFunction,Conductor*
%ADD84C,0.750000*%
G04 #@! TD*
G04 APERTURE END LIST*
D10*
G04 #@! TA.AperFunction,EtchedComponent*
G36*
X115668500Y-138965693D02*
G01*
X115268500Y-138965693D01*
X115268500Y-138465693D01*
X115668500Y-138465693D01*
X115668500Y-138965693D01*
G37*
G04 #@! TD.AperFunction*
G04 #@! TA.AperFunction,EtchedComponent*
G36*
X116468500Y-138965693D02*
G01*
X116068500Y-138965693D01*
X116068500Y-138465693D01*
X116468500Y-138465693D01*
X116468500Y-138965693D01*
G37*
G04 #@! TD.AperFunction*
D11*
X116673000Y-115145000D03*
X118323000Y-115145000D03*
D12*
X85946500Y-106506193D03*
X87846500Y-106506193D03*
X86896500Y-104631193D03*
D13*
X85996500Y-108243693D03*
X85996500Y-109893693D03*
D14*
X87596500Y-109893693D03*
X87596500Y-108243693D03*
D15*
X87746500Y-111606193D03*
X85846500Y-111606193D03*
X86796500Y-113481193D03*
D16*
X114796500Y-130143693D03*
X112896500Y-130143693D03*
D17*
X69696500Y-139143693D03*
X69696500Y-141043693D03*
D18*
X74554500Y-143005693D03*
X74554500Y-144880693D03*
D13*
X72246500Y-139518693D03*
X72246500Y-141168693D03*
X74554500Y-139518693D03*
X74554500Y-141168693D03*
D18*
X72141500Y-143005693D03*
X72141500Y-144880693D03*
D19*
X148296500Y-144193693D03*
X148296500Y-142293693D03*
X69696500Y-144843693D03*
X69696500Y-142943693D03*
D16*
X109706500Y-135413693D03*
X107806500Y-135413693D03*
D19*
X166690000Y-132880000D03*
X166690000Y-130980000D03*
D20*
X194955000Y-130750000D03*
X194955000Y-127800000D03*
D21*
X170062000Y-124520000D03*
X171962000Y-124520000D03*
D22*
X172890000Y-116490000D03*
X175840000Y-116490000D03*
D21*
X194030000Y-117880000D03*
X195930000Y-117880000D03*
D14*
X107177700Y-140015293D03*
X107177700Y-138365293D03*
X196955000Y-130100000D03*
X196955000Y-128450000D03*
D11*
X170365000Y-122590000D03*
X172015000Y-122590000D03*
X172840000Y-118690000D03*
X174490000Y-118690000D03*
X194405000Y-115848000D03*
X196055000Y-115848000D03*
D13*
X109209700Y-138365293D03*
X109209700Y-140015293D03*
D17*
X106216500Y-120239693D03*
X106216500Y-122139693D03*
D23*
X150596500Y-140081193D03*
X150596500Y-137006193D03*
D21*
X107806500Y-123983693D03*
X109706500Y-123983693D03*
D24*
X88753500Y-129825693D03*
X87103500Y-129825693D03*
D25*
X95802500Y-140996693D03*
X95802500Y-137196693D03*
D26*
X92754500Y-122677693D03*
X92754500Y-118177693D03*
D24*
X85451500Y-132111693D03*
X83801500Y-132111693D03*
X88753500Y-132111693D03*
X87103500Y-132111693D03*
X85451500Y-129825693D03*
X83801500Y-129825693D03*
D19*
X99358500Y-143602693D03*
X99358500Y-141702693D03*
X104184500Y-138649693D03*
X104184500Y-136749693D03*
D16*
X92434500Y-128809693D03*
X90534500Y-128809693D03*
D21*
X90534500Y-131603693D03*
X92434500Y-131603693D03*
D17*
X147796500Y-137793693D03*
X147796500Y-139693693D03*
D27*
X103095500Y-131771694D03*
X103095500Y-131371692D03*
X103095500Y-130971693D03*
X103095500Y-130571694D03*
X103095500Y-130171692D03*
X103095500Y-129771693D03*
X103095500Y-129371693D03*
X103095500Y-128971694D03*
X103095500Y-128571692D03*
X103095500Y-128171693D03*
X103095500Y-127771694D03*
X103095500Y-127371692D03*
D28*
X102320501Y-126596693D03*
X101920499Y-126596693D03*
X101520500Y-126596693D03*
X101120501Y-126596693D03*
X100720499Y-126596693D03*
X100320500Y-126596693D03*
X99920500Y-126596693D03*
X99520501Y-126596693D03*
X99120499Y-126596693D03*
X98720500Y-126596693D03*
X98320501Y-126596693D03*
X97920499Y-126596693D03*
D27*
X97145500Y-127371692D03*
X97145500Y-127771694D03*
X97145500Y-128171693D03*
X97145500Y-128571692D03*
X97145500Y-128971694D03*
X97145500Y-129371693D03*
X97145500Y-129771693D03*
X97145500Y-130171692D03*
X97145500Y-130571694D03*
X97145500Y-130971693D03*
X97145500Y-131371692D03*
X97145500Y-131771694D03*
D28*
X97920499Y-132546693D03*
X98320501Y-132546693D03*
X98720500Y-132546693D03*
X99120499Y-132546693D03*
X99520501Y-132546693D03*
X99920500Y-132546693D03*
X100320500Y-132546693D03*
X100720499Y-132546693D03*
X101120501Y-132546693D03*
X101520500Y-132546693D03*
X101920499Y-132546693D03*
X102320501Y-132546693D03*
D29*
X101695300Y-131146493D03*
X101695300Y-130359093D03*
X101695300Y-129571693D03*
X101695300Y-128784293D03*
X101695300Y-127996893D03*
X100907900Y-131146493D03*
X100907900Y-130359093D03*
X100907900Y-129571693D03*
X100907900Y-128784293D03*
X100907900Y-127996893D03*
X100120500Y-131146493D03*
X100120500Y-130359093D03*
X100120500Y-129571693D03*
D30*
X100120500Y-129571693D03*
D29*
X100120500Y-128784293D03*
X100120500Y-127996893D03*
X99333100Y-131146493D03*
X99333100Y-130359093D03*
X99333100Y-129571693D03*
X99333100Y-128784293D03*
X99333100Y-127996893D03*
X98545700Y-131146493D03*
X98545700Y-130359093D03*
X98545700Y-129571693D03*
X98545700Y-128784293D03*
X98545700Y-127996893D03*
D16*
X109706500Y-133127693D03*
X107806500Y-133127693D03*
D19*
X96818500Y-123155693D03*
X96818500Y-121255693D03*
D16*
X109706500Y-126269693D03*
X107806500Y-126269693D03*
D31*
X85896500Y-134017693D03*
X85896500Y-137317693D03*
D32*
X88436500Y-137317693D03*
X88436500Y-134017693D03*
D31*
X85896500Y-124873693D03*
X85896500Y-128173693D03*
D32*
X88436500Y-128173693D03*
X88436500Y-124873693D03*
D21*
X81644500Y-127793693D03*
X83544500Y-127793693D03*
D19*
X101644500Y-122139693D03*
X101644500Y-120239693D03*
D21*
X107806500Y-130841693D03*
X109706500Y-130841693D03*
X90534500Y-126396693D03*
X92434500Y-126396693D03*
D19*
X103930500Y-122139693D03*
X103930500Y-120239693D03*
D21*
X90534500Y-134016693D03*
X92434500Y-134016693D03*
D16*
X83544500Y-134143693D03*
X81644500Y-134143693D03*
X109706500Y-128568393D03*
X107806500Y-128568393D03*
D19*
X102025500Y-138649693D03*
X102025500Y-136749693D03*
D32*
X99485500Y-139984693D03*
X99485500Y-136684693D03*
D21*
X112946500Y-123243693D03*
X114846500Y-123243693D03*
X186280000Y-114330000D03*
X188180000Y-114330000D03*
D11*
X186630000Y-112430000D03*
X188280000Y-112430000D03*
D31*
X99358500Y-119031693D03*
X99358500Y-122331693D03*
D13*
X67717500Y-143018693D03*
X67717500Y-144668693D03*
X67717500Y-139744693D03*
X67717500Y-141394693D03*
D17*
X86846500Y-118393693D03*
X86846500Y-120293693D03*
D19*
X91738500Y-138649693D03*
X91738500Y-136749693D03*
D33*
X87096500Y-143843693D03*
X79096500Y-143843693D03*
X91096500Y-143843693D03*
X105096500Y-143843693D03*
D13*
X145796500Y-138118693D03*
X145796500Y-139768693D03*
D24*
X109821500Y-111943693D03*
X108171500Y-111943693D03*
X109821500Y-110143693D03*
X108171500Y-110143693D03*
D33*
X83096500Y-143843693D03*
D34*
X72401500Y-130784693D03*
X71131500Y-130784693D03*
X69861500Y-130784693D03*
X68591500Y-130784693D03*
X68591500Y-136184693D03*
X69861500Y-136184693D03*
X71131500Y-136184693D03*
X72401500Y-136184693D03*
D35*
X70496500Y-133484693D03*
D32*
X70796500Y-126193693D03*
X70796500Y-122893693D03*
D24*
X72271500Y-128493693D03*
X70621500Y-128493693D03*
D36*
X78434000Y-123093693D03*
X78434000Y-121193693D03*
X76159000Y-122143693D03*
D37*
X72646500Y-111806193D03*
D38*
X72571500Y-112343693D03*
D37*
X72646500Y-112881193D03*
X74346500Y-112881193D03*
D38*
X74421500Y-112343693D03*
D37*
X74346500Y-111806193D03*
D21*
X72546500Y-115843693D03*
X74446500Y-115843693D03*
D39*
X174700000Y-123710000D03*
X195200000Y-123710000D03*
D40*
X176700000Y-120710000D03*
X177200000Y-120710000D03*
X177700000Y-120710000D03*
X178200000Y-120710000D03*
X178700000Y-120710000D03*
X179200000Y-120710000D03*
X179700000Y-120710000D03*
X180200000Y-120710000D03*
X180700000Y-120710000D03*
X181200000Y-120710000D03*
X181700000Y-120710000D03*
X182200000Y-120710000D03*
X182700000Y-120710000D03*
X183200000Y-120710000D03*
X183700000Y-120710000D03*
X184200000Y-120710000D03*
X184700000Y-120710000D03*
X185200000Y-120710000D03*
X185700000Y-120710000D03*
X186200000Y-120710000D03*
X186700000Y-120710000D03*
X187200000Y-120710000D03*
X187700000Y-120710000D03*
X188200000Y-120710000D03*
X188700000Y-120710000D03*
X189200000Y-120710000D03*
X189700000Y-120710000D03*
X190200000Y-120710000D03*
X190700000Y-120710000D03*
X191200000Y-120710000D03*
X191700000Y-120710000D03*
X192200000Y-120710000D03*
X192700000Y-120710000D03*
X193200000Y-120710000D03*
D41*
X66109000Y-124843693D03*
X66109000Y-126743693D03*
X67984000Y-125793693D03*
D42*
X112623637Y-102689363D03*
X113790363Y-101522637D03*
D43*
X115868500Y-138065693D03*
X115868500Y-139365693D03*
D44*
X62196500Y-103718693D03*
D45*
X62196500Y-101178693D03*
D46*
X175810000Y-92700000D03*
X175810000Y-91750000D03*
X175810000Y-90800000D03*
X173510000Y-90800000D03*
X173510000Y-91750000D03*
X173510000Y-92700000D03*
D47*
X193007500Y-101780000D03*
X193007500Y-100530000D03*
X193007500Y-99280000D03*
X193007500Y-98030000D03*
X193007500Y-96780000D03*
X193007500Y-95520000D03*
D48*
X195607500Y-104160000D03*
X195607500Y-93140000D03*
D49*
X64075000Y-70600000D03*
X64075000Y-71600000D03*
X64075000Y-72600000D03*
X64075000Y-73600000D03*
D50*
X60200000Y-69300000D03*
X60200000Y-74900000D03*
D14*
X72696500Y-109168693D03*
X72696500Y-107518693D03*
D51*
X108972000Y-102992000D03*
D24*
X66171500Y-122243693D03*
X64521500Y-122243693D03*
D52*
X114846500Y-125606193D03*
X113896500Y-125606193D03*
X112946500Y-125606193D03*
X112946500Y-127881193D03*
X114846500Y-127881193D03*
D53*
X114814872Y-94811051D03*
X115712898Y-95709076D03*
X116610924Y-96607102D03*
X117508949Y-97505128D03*
X121009128Y-94004949D03*
X120111102Y-93106924D03*
X119213076Y-92208898D03*
X118315051Y-91310872D03*
D24*
X185825000Y-97800000D03*
X184175000Y-97800000D03*
D14*
X178520000Y-92425000D03*
X178520000Y-90775000D03*
D16*
X78346500Y-125043693D03*
X76446500Y-125043693D03*
D19*
X65696500Y-141743693D03*
X65696500Y-139843693D03*
D54*
X173515150Y-98340000D03*
X177464850Y-98340000D03*
D55*
X111555992Y-101349008D03*
X112652008Y-100252992D03*
D13*
X72696500Y-118818693D03*
X72696500Y-120468693D03*
D56*
X129537500Y-102989000D03*
X132612500Y-102989000D03*
D57*
X140571500Y-140053693D03*
X140571500Y-138783693D03*
X140571500Y-137513693D03*
X140571500Y-136243693D03*
X140571500Y-134973693D03*
X140571500Y-133703693D03*
X140571500Y-132433693D03*
X140571500Y-131163693D03*
X140571500Y-129893693D03*
X140571500Y-128623693D03*
X140571500Y-127353693D03*
X140571500Y-126083693D03*
X140571500Y-124813693D03*
X140571500Y-123543693D03*
D58*
X138806500Y-122293693D03*
X137536500Y-122293693D03*
X136266500Y-122293693D03*
X134996500Y-122293693D03*
X133726500Y-122293693D03*
X132456500Y-122293693D03*
X131186500Y-122293693D03*
X129916500Y-122293693D03*
X128646500Y-122293693D03*
X127376500Y-122293693D03*
X126106500Y-122293693D03*
X124836500Y-122293693D03*
D57*
X123071500Y-123543693D03*
X123071500Y-124813693D03*
X123071500Y-126083693D03*
X123071500Y-127353693D03*
X123071500Y-128623693D03*
X123071500Y-129893693D03*
X123071500Y-131163693D03*
X123071500Y-132433693D03*
X123071500Y-133703693D03*
X123071500Y-134973693D03*
X123071500Y-136243693D03*
X123071500Y-137513693D03*
X123071500Y-138783693D03*
X123071500Y-140053693D03*
D59*
X134721500Y-133733693D03*
X134721500Y-132333693D03*
X134721500Y-130933693D03*
X133321500Y-133733693D03*
X133321500Y-132333693D03*
X133321500Y-130933693D03*
X131921500Y-133733693D03*
X131921500Y-132333693D03*
X131921500Y-130933693D03*
D24*
X185825000Y-99350000D03*
X184175000Y-99350000D03*
D21*
X169680000Y-98340000D03*
X171580000Y-98340000D03*
D55*
X107090992Y-96883008D03*
X108187008Y-95786992D03*
D60*
X133283363Y-117716637D03*
X132116637Y-118883363D03*
D31*
X170790000Y-91720000D03*
X170790000Y-95020000D03*
D60*
X129983363Y-117416637D03*
X128816637Y-118583363D03*
D61*
X102655204Y-103140990D03*
X101240990Y-104555204D03*
D62*
X100251041Y-97413425D03*
X95513425Y-102151041D03*
D21*
X170050000Y-88890000D03*
X171950000Y-88890000D03*
D63*
X77521500Y-106098693D03*
X77521500Y-107368693D03*
X77521500Y-108638693D03*
X77521500Y-109908693D03*
X77521500Y-111178693D03*
X77521500Y-112448693D03*
X77521500Y-113718693D03*
X77521500Y-114988693D03*
X82471500Y-114988693D03*
X82471500Y-113718693D03*
X82471500Y-112448693D03*
X82471500Y-111178693D03*
X82471500Y-109908693D03*
X82471500Y-108638693D03*
X82471500Y-107368693D03*
X82471500Y-106098693D03*
D64*
X68281500Y-110393693D03*
X68281500Y-111193693D03*
D65*
X68281500Y-112393693D03*
X68281500Y-113393693D03*
X68281500Y-113893693D03*
X68281500Y-114893693D03*
D64*
X68281500Y-116093693D03*
X68281500Y-116893693D03*
X68281500Y-116893693D03*
X68281500Y-116093693D03*
D65*
X68281500Y-115393693D03*
X68281500Y-114393693D03*
X68281500Y-112893693D03*
X68281500Y-111893693D03*
D64*
X68281500Y-111193693D03*
X68281500Y-110393693D03*
D66*
X67366500Y-109323693D03*
D67*
X63186500Y-109323693D03*
D66*
X67366500Y-117963693D03*
D67*
X63186500Y-117963693D03*
D33*
X185240000Y-88240000D03*
D21*
X76346500Y-119243693D03*
X78246500Y-119243693D03*
D32*
X63596500Y-127593693D03*
X63596500Y-124293693D03*
D68*
X111053000Y-98940000D03*
X109508396Y-97395396D03*
D69*
X75270000Y-90720000D03*
X75270000Y-89620000D03*
X75270000Y-88520000D03*
X75270000Y-87420000D03*
X75270000Y-86320000D03*
X75270000Y-85220000D03*
X75270000Y-84120000D03*
X75270000Y-83020000D03*
X75270000Y-81920000D03*
D70*
X74220000Y-95320000D03*
D71*
X64670000Y-96220000D03*
X64670000Y-80720000D03*
D50*
X73970000Y-80720000D03*
D72*
X127687000Y-105397000D03*
X127687000Y-107497000D03*
D73*
X81110000Y-85800000D03*
X81110000Y-86300000D03*
X81110000Y-86800000D03*
X81110000Y-87300000D03*
X80250000Y-87300000D03*
X80250000Y-86800000D03*
X80250000Y-86300000D03*
X80250000Y-85800000D03*
D74*
X172399000Y-127544001D03*
X172399000Y-128044000D03*
X172399000Y-128544001D03*
X172399000Y-129044001D03*
X172399000Y-129544002D03*
X172399000Y-130044001D03*
D75*
X174899000Y-131044002D03*
X174899000Y-126544000D03*
D76*
X109233000Y-100543000D03*
X170540000Y-99540000D03*
X148061529Y-139795403D03*
X103755499Y-139843693D03*
X111096500Y-132093693D03*
X69696500Y-110143693D03*
X96296500Y-116743693D03*
X72696500Y-121543693D03*
X111096500Y-127593693D03*
X106089500Y-129365693D03*
X102846500Y-118800000D03*
X100596500Y-143593693D03*
D77*
X179690000Y-119490000D03*
D76*
X72596500Y-114443693D03*
X196210000Y-127800000D03*
X103168500Y-125507693D03*
X63596500Y-122143693D03*
X109596500Y-129593693D03*
X93896500Y-115343693D03*
X106470500Y-127745693D03*
X103596500Y-118800000D03*
X102250000Y-106950000D03*
D78*
X192420000Y-121900000D03*
D76*
X172563000Y-123500000D03*
X75296500Y-119143693D03*
X113896500Y-126443693D03*
X111398781Y-123366052D03*
X89496500Y-115343693D03*
X65696500Y-142843693D03*
X68746500Y-138343693D03*
X135496500Y-130143693D03*
X80496500Y-127843693D03*
X102346500Y-141843693D03*
X89493186Y-128947792D03*
X92896500Y-114743693D03*
X116164000Y-98848000D03*
X90346500Y-138343693D03*
X91896500Y-115343693D03*
X79696500Y-123243693D03*
X71805082Y-112651705D03*
X112096500Y-133093693D03*
X103548243Y-132874950D03*
X90534500Y-130155693D03*
X173010000Y-88900000D03*
D78*
X189190000Y-121850000D03*
D76*
X188930000Y-115309000D03*
X115318437Y-130287223D03*
X103040500Y-138649693D03*
X142696500Y-139943693D03*
X115231000Y-129104681D03*
X135796500Y-133743693D03*
X191450000Y-95250000D03*
X177910000Y-122030000D03*
X88896500Y-118943693D03*
D77*
X180710000Y-119510000D03*
D76*
X108096500Y-140383693D03*
X121096500Y-139943693D03*
X93593277Y-130438096D03*
X89496500Y-117743693D03*
X101846500Y-139843693D03*
X111096500Y-129843693D03*
X87346500Y-117343693D03*
X90346500Y-139343693D03*
X179580000Y-92410000D03*
X66746500Y-144593693D03*
X99463781Y-134928356D03*
X84346500Y-132843693D03*
X148296500Y-145143693D03*
X196430000Y-119023000D03*
X175830000Y-115135000D03*
X80596500Y-134093693D03*
X77496500Y-105043693D03*
X133930000Y-102990000D03*
X95696500Y-117943693D03*
X102846500Y-140843693D03*
X99096500Y-121093693D03*
X102700500Y-120850000D03*
X107596500Y-120843693D03*
X90696500Y-114743693D03*
X188930000Y-113209000D03*
X130796500Y-133743693D03*
X72696500Y-106443693D03*
X70746500Y-145343693D03*
X69396500Y-117243693D03*
X65650000Y-70300000D03*
X172780000Y-120160000D03*
X76810000Y-85210000D03*
X196530000Y-116623000D03*
X97112034Y-120109227D03*
X115896500Y-123443693D03*
X98950500Y-120239693D03*
X79496500Y-125043693D03*
X88896500Y-116543693D03*
X69696500Y-129243693D03*
X97846500Y-143593693D03*
X107942000Y-99098000D03*
X86096500Y-117343693D03*
X109596500Y-131843693D03*
X111096500Y-125343693D03*
X131196500Y-130243693D03*
X73196500Y-130743693D03*
X109480000Y-127343693D03*
X84346500Y-130593693D03*
X106630836Y-119050000D03*
X111096500Y-133843693D03*
X165250000Y-131930000D03*
X95548500Y-131984693D03*
X88596500Y-133007691D03*
X188300000Y-135060000D03*
X112410000Y-143290000D03*
X158542922Y-130322922D03*
X88096500Y-129183695D03*
X95373246Y-128680722D03*
X114296500Y-141340000D03*
X154069310Y-133635000D03*
X111862622Y-138518814D03*
X194120000Y-119280000D03*
X89096500Y-142593693D03*
X100220490Y-124364693D03*
X110121992Y-141941992D03*
X128381228Y-134575066D03*
X90425135Y-113163763D03*
D78*
X181803000Y-124000000D03*
D76*
X158050000Y-121000000D03*
X108180000Y-137080000D03*
X107380000Y-122130000D03*
X185540000Y-129100000D03*
X187400000Y-117250000D03*
X158900000Y-120250000D03*
X74896500Y-107343693D03*
X111796221Y-116149693D03*
X75696500Y-108643693D03*
X110896500Y-116525000D03*
X110545395Y-139593693D03*
X155947922Y-132917922D03*
X101450000Y-109850000D03*
X102100000Y-109200000D03*
X69450000Y-124150000D03*
X68600000Y-124150000D03*
X70796500Y-111143693D03*
X75562837Y-112210030D03*
X70796500Y-116143693D03*
X70730440Y-144008136D03*
X113836500Y-144643693D03*
X103612021Y-121564826D03*
X106089500Y-130841693D03*
X95422757Y-126903436D03*
X103636500Y-122794693D03*
X104938484Y-114437370D03*
X100924161Y-123571352D03*
X101891748Y-123536440D03*
X104096500Y-115343693D03*
X124750000Y-123600000D03*
X98024294Y-122216930D03*
X131200000Y-119800000D03*
X106196500Y-132743693D03*
X107064129Y-129685937D03*
X104896221Y-116783698D03*
X130100000Y-120350000D03*
X103996500Y-117325000D03*
X106293592Y-125329363D03*
X128450000Y-124000000D03*
X133227039Y-123527038D03*
X99972856Y-123437697D03*
X108596500Y-121843693D03*
X106484444Y-126269693D03*
X100596500Y-141593693D03*
X95846500Y-122343693D03*
X92096500Y-140343693D03*
X107188759Y-123290140D03*
X94596500Y-142593693D03*
X93346500Y-142343693D03*
X95596500Y-123093693D03*
X108996500Y-116543693D03*
X93346500Y-140343693D03*
X97346500Y-142593693D03*
X93346500Y-141343693D03*
X171950000Y-99840000D03*
X98096500Y-141843693D03*
X87096500Y-121343693D03*
X96846500Y-122343693D03*
X88096500Y-120843693D03*
X92096500Y-141343693D03*
X98096500Y-140593693D03*
X95846500Y-142593693D03*
X113996500Y-127543693D03*
X131850000Y-115550000D03*
X103041500Y-134676693D03*
X112332870Y-137580000D03*
X79650000Y-71750000D03*
X110796500Y-111943693D03*
X110802000Y-110143693D03*
X150574097Y-139790000D03*
X134500000Y-117700000D03*
X81735000Y-84430000D03*
X119218000Y-115137000D03*
X115331000Y-127540524D03*
X125550000Y-107650000D03*
X113250000Y-103308000D03*
X146996500Y-142243693D03*
X150596500Y-138943693D03*
X166940000Y-100810000D03*
X169460000Y-126110000D03*
X126667732Y-126614925D03*
X125925268Y-125872461D03*
X191500000Y-123850000D03*
X184200000Y-101400000D03*
X139650000Y-119550000D03*
X182100000Y-97800000D03*
X89096500Y-113643693D03*
X110145000Y-113081000D03*
X180178000Y-129128000D03*
X180176000Y-131501000D03*
X181954000Y-125777000D03*
D78*
X129360000Y-132450000D03*
D76*
X181178000Y-127520000D03*
X129690366Y-134541013D03*
X93697500Y-129444693D03*
X87725776Y-130391312D03*
X87846500Y-131343693D03*
X94411205Y-130940687D03*
X119400000Y-124400000D03*
X77740000Y-86320000D03*
X152550000Y-102700000D03*
X128750000Y-120200000D03*
X173690000Y-126010000D03*
X180470000Y-100520000D03*
D79*
X103040500Y-138649693D02*
X104184500Y-138649693D01*
X101644500Y-119529691D02*
X101644500Y-120239693D01*
D80*
X134721500Y-133733693D02*
X135786500Y-133733693D01*
D81*
X102384499Y-125507693D02*
X103168500Y-125507693D01*
D79*
X114796500Y-130143693D02*
X115174907Y-130143693D01*
X91738500Y-138649693D02*
X91040500Y-138649693D01*
D82*
X192200000Y-120710000D02*
X192200000Y-121680000D01*
D79*
X102025500Y-138649693D02*
X102025500Y-139664693D01*
D81*
X101920499Y-126596693D02*
X101920499Y-125971693D01*
D79*
X106216500Y-119464336D02*
X106630836Y-119050000D01*
D81*
X102320501Y-133030565D02*
X102544629Y-133254693D01*
D83*
X102090193Y-120239693D02*
X102700500Y-120850000D01*
D80*
X114846500Y-123243693D02*
X115696500Y-123243693D01*
X68281500Y-110393693D02*
X69446500Y-110393693D01*
X72546500Y-114493693D02*
X72596500Y-114443693D01*
D79*
X106216500Y-120239693D02*
X107200500Y-120239693D01*
X193007500Y-96780000D02*
X193007500Y-96200000D01*
X83801500Y-132111693D02*
X83801500Y-132298693D01*
D80*
X117508949Y-97505128D02*
X117506872Y-97505128D01*
X142586500Y-140053693D02*
X142696500Y-139943693D01*
D79*
X169680000Y-98340000D02*
X169680000Y-98680000D01*
X80646500Y-134143693D02*
X80596500Y-134093693D01*
X107728100Y-140015293D02*
X108096500Y-140383693D01*
X66821500Y-144668693D02*
X66746500Y-144593693D01*
D82*
X179700000Y-119500000D02*
X179690000Y-119490000D01*
D79*
X96296500Y-116743693D02*
X96706510Y-117153703D01*
X86846500Y-118393693D02*
X86846500Y-118093693D01*
X69546500Y-139143693D02*
X68746500Y-138343693D01*
D80*
X121206500Y-140053693D02*
X121096500Y-139943693D01*
D81*
X102544629Y-133254693D02*
X103168500Y-133254693D01*
D79*
X99358500Y-143602693D02*
X97855500Y-143602693D01*
D81*
X93859681Y-130171692D02*
X93593277Y-130438096D01*
D80*
X131921500Y-132333693D02*
X134721500Y-132333693D01*
D79*
X90534500Y-131603693D02*
X90534500Y-130155693D01*
D80*
X188180000Y-114559000D02*
X188930000Y-115309000D01*
X131921500Y-133733693D02*
X131921500Y-130933693D01*
D79*
X150596500Y-137260432D02*
X148061529Y-139795403D01*
X177845000Y-91750000D02*
X178520000Y-92425000D01*
D80*
X131921500Y-130933693D02*
X134721500Y-130933693D01*
X135786500Y-133733693D02*
X135796500Y-133743693D01*
X133321500Y-133733693D02*
X133321500Y-130933693D01*
D79*
X90534500Y-128809693D02*
X89631285Y-128809693D01*
X179565000Y-92425000D02*
X179580000Y-92410000D01*
D81*
X99530509Y-132556701D02*
X99530509Y-134861628D01*
D80*
X196055000Y-116148000D02*
X196530000Y-116623000D01*
D82*
X171913000Y-122800000D02*
X171913000Y-122850000D01*
D80*
X78434000Y-123093693D02*
X79546500Y-123093693D01*
D79*
X104184500Y-139414692D02*
X103755499Y-139843693D01*
D80*
X77521500Y-105068693D02*
X77496500Y-105043693D01*
X132612500Y-102989000D02*
X133929000Y-102989000D01*
D79*
X102025500Y-139664693D02*
X101846500Y-139843693D01*
D84*
X102250000Y-105400000D02*
X102250000Y-106950000D01*
D79*
X196955000Y-128450000D02*
X196860000Y-128450000D01*
D83*
X106216500Y-120239693D02*
X103310807Y-120239693D01*
D79*
X172015000Y-122590000D02*
X172015000Y-122952000D01*
X89631285Y-128809693D02*
X89493186Y-128947792D01*
D80*
X130806500Y-133733693D02*
X130796500Y-133743693D01*
D82*
X189200000Y-121840000D02*
X189190000Y-121850000D01*
D79*
X103930500Y-120239693D02*
X103930500Y-119134000D01*
X69696500Y-139143693D02*
X69546500Y-139143693D01*
X108096500Y-140383693D02*
X108149700Y-140383693D01*
D80*
X133929000Y-102989000D02*
X133930000Y-102990000D01*
D79*
X86846500Y-118093693D02*
X86096500Y-117343693D01*
D81*
X105924237Y-127745693D02*
X106470500Y-127745693D01*
D82*
X177700000Y-121820000D02*
X177910000Y-122030000D01*
D79*
X108149700Y-140383693D02*
X108518100Y-140015293D01*
D80*
X188280000Y-112559000D02*
X188930000Y-113209000D01*
D79*
X150596500Y-137006193D02*
X150596500Y-137260432D01*
X91040500Y-138649693D02*
X90346500Y-139343693D01*
D82*
X180700000Y-119520000D02*
X180710000Y-119510000D01*
D79*
X102025500Y-138649693D02*
X103040500Y-138649693D01*
D80*
X117506872Y-97505128D02*
X116164000Y-98848000D01*
D79*
X90534500Y-130155693D02*
X90534500Y-128809693D01*
D80*
X110039008Y-101349008D02*
X109233000Y-100543000D01*
X76346500Y-119243693D02*
X75396500Y-119243693D01*
D79*
X96818500Y-120402761D02*
X97112034Y-120109227D01*
D80*
X76800000Y-85220000D02*
X76810000Y-85210000D01*
D79*
X175810000Y-91750000D02*
X177845000Y-91750000D01*
D82*
X179700000Y-120710000D02*
X179700000Y-119500000D01*
X174250000Y-118690000D02*
X172780000Y-120160000D01*
D79*
X83801500Y-129825693D02*
X83801500Y-130048693D01*
X86846500Y-117843693D02*
X87346500Y-117343693D01*
D80*
X134721500Y-133733693D02*
X131921500Y-133733693D01*
X107090992Y-98246992D02*
X107942000Y-99098000D01*
D79*
X103930500Y-119134000D02*
X103596500Y-118800000D01*
X106216500Y-120239693D02*
X106992500Y-120239693D01*
X69696500Y-144843693D02*
X70246500Y-144843693D01*
X106216500Y-120239693D02*
X106216500Y-119464336D01*
X83801500Y-132298693D02*
X84346500Y-132843693D01*
D83*
X96818500Y-121255693D02*
X97834500Y-120239693D01*
D82*
X175840000Y-115145000D02*
X175830000Y-115135000D01*
D79*
X171950000Y-88890000D02*
X173000000Y-88890000D01*
D80*
X65350000Y-70600000D02*
X65650000Y-70300000D01*
D79*
X104184500Y-138649693D02*
X104184500Y-139414692D01*
D80*
X69046500Y-116893693D02*
X69396500Y-117243693D01*
D79*
X115174907Y-130143693D02*
X115318437Y-130287223D01*
X106992500Y-120239693D02*
X107596500Y-120843693D01*
D83*
X97834500Y-120239693D02*
X98950500Y-120239693D01*
D79*
X196860000Y-128450000D02*
X196210000Y-127800000D01*
D80*
X147796500Y-139693693D02*
X147898210Y-139795403D01*
D79*
X172015000Y-122952000D02*
X172563000Y-123500000D01*
D80*
X111555992Y-101349008D02*
X110039008Y-101349008D01*
D81*
X72113094Y-112343693D02*
X71805082Y-112651705D01*
D80*
X140571500Y-140053693D02*
X142586500Y-140053693D01*
D81*
X103095500Y-128971694D02*
X104698236Y-128971694D01*
D80*
X123071500Y-140053693D02*
X121206500Y-140053693D01*
D79*
X96706510Y-117153703D02*
X99268512Y-117153703D01*
D80*
X195930000Y-117880000D02*
X195930000Y-118523000D01*
D81*
X99530509Y-134861628D02*
X99463781Y-134928356D01*
D79*
X72401500Y-128623693D02*
X72271500Y-128493693D01*
X191720000Y-95520000D02*
X191450000Y-95250000D01*
D80*
X64521500Y-122243693D02*
X63696500Y-122243693D01*
D79*
X72401500Y-130784693D02*
X72401500Y-128623693D01*
D80*
X77521500Y-106098693D02*
X77521500Y-105068693D01*
X75270000Y-85220000D02*
X76800000Y-85220000D01*
D79*
X171962000Y-124101000D02*
X172563000Y-123500000D01*
D80*
X188180000Y-114330000D02*
X188180000Y-114559000D01*
D81*
X99520501Y-132546693D02*
X99530509Y-132556701D01*
D79*
X193007500Y-96780000D02*
X194607500Y-96780000D01*
D80*
X115696500Y-123243693D02*
X115896500Y-123443693D01*
X148296500Y-144193693D02*
X148296500Y-145143693D01*
D81*
X105673492Y-129781701D02*
X106089500Y-129365693D01*
D80*
X135496500Y-130143693D02*
X134721500Y-130918693D01*
D81*
X97145500Y-130171692D02*
X93859681Y-130171692D01*
D79*
X173000000Y-88890000D02*
X173010000Y-88900000D01*
D80*
X72696500Y-107518693D02*
X72696500Y-106443693D01*
D79*
X109209700Y-140015293D02*
X108518100Y-140015293D01*
D80*
X65696500Y-141743693D02*
X65696500Y-142843693D01*
X79546500Y-123093693D02*
X79696500Y-123243693D01*
D79*
X86846500Y-118393693D02*
X86846500Y-117843693D01*
D80*
X196055000Y-115848000D02*
X196055000Y-116148000D01*
D83*
X103310807Y-120239693D02*
X102700500Y-120850000D01*
D81*
X101920499Y-125971693D02*
X102384499Y-125507693D01*
X103168500Y-133254693D02*
X103548243Y-132874950D01*
D80*
X134721500Y-130933693D02*
X134721500Y-133733693D01*
X188280000Y-112430000D02*
X188280000Y-112559000D01*
X131231500Y-130243693D02*
X131921500Y-130933693D01*
X64075000Y-70600000D02*
X65350000Y-70600000D01*
D82*
X180700000Y-120710000D02*
X180700000Y-119520000D01*
D79*
X96818500Y-121255693D02*
X96818500Y-120402761D01*
X193007500Y-95520000D02*
X191720000Y-95520000D01*
D80*
X68281500Y-116893693D02*
X69046500Y-116893693D01*
D79*
X115231000Y-129709193D02*
X115231000Y-129104681D01*
X102700500Y-118946000D02*
X102700500Y-120850000D01*
X102846500Y-118800000D02*
X102700500Y-118946000D01*
X193007500Y-96200000D02*
X193007500Y-95520000D01*
D80*
X72546500Y-115843693D02*
X72546500Y-114493693D01*
D82*
X192200000Y-121680000D02*
X192420000Y-121900000D01*
D79*
X107177700Y-140015293D02*
X107728100Y-140015293D01*
X67717500Y-144668693D02*
X66821500Y-144668693D01*
D80*
X134721500Y-130918693D02*
X134721500Y-130933693D01*
D79*
X91738500Y-138649693D02*
X90652500Y-138649693D01*
D80*
X195930000Y-118523000D02*
X196430000Y-119023000D01*
D79*
X80496500Y-127843693D02*
X80546500Y-127793693D01*
X90652500Y-138649693D02*
X90346500Y-138343693D01*
X73155500Y-130784693D02*
X73196500Y-130743693D01*
D81*
X102320501Y-132546693D02*
X102320501Y-133030565D01*
D82*
X177700000Y-120710000D02*
X177700000Y-121820000D01*
D81*
X72571500Y-112343693D02*
X72113094Y-112343693D01*
D80*
X69446500Y-110393693D02*
X69696500Y-110143693D01*
D81*
X104698236Y-128971694D02*
X105924237Y-127745693D01*
D79*
X100587500Y-143602693D02*
X100596500Y-143593693D01*
X171962000Y-124520000D02*
X171962000Y-124101000D01*
X69861500Y-129408693D02*
X69696500Y-129243693D01*
X194955000Y-127800000D02*
X196210000Y-127800000D01*
X97855500Y-143602693D02*
X97846500Y-143593693D01*
D82*
X189200000Y-120710000D02*
X189200000Y-121840000D01*
D80*
X113896500Y-125606193D02*
X113896500Y-126443693D01*
D79*
X178520000Y-92425000D02*
X179565000Y-92425000D01*
X114796500Y-130143693D02*
X115231000Y-129709193D01*
X72401500Y-130784693D02*
X73155500Y-130784693D01*
X81644500Y-134143693D02*
X80646500Y-134143693D01*
X90534500Y-130155693D02*
X92658500Y-130155693D01*
X166690000Y-130980000D02*
X165740000Y-131930000D01*
X92940903Y-130438096D02*
X93593277Y-130438096D01*
X99268512Y-117153703D02*
X101644500Y-119529691D01*
X92658500Y-130155693D02*
X92940903Y-130438096D01*
D83*
X98950500Y-120239693D02*
X102090193Y-120239693D01*
D82*
X174490000Y-118690000D02*
X174250000Y-118690000D01*
D80*
X107090992Y-96883008D02*
X107090992Y-98246992D01*
D79*
X169680000Y-98680000D02*
X170540000Y-99540000D01*
D80*
X72696500Y-120468693D02*
X72696500Y-121543693D01*
D79*
X99358500Y-143602693D02*
X100587500Y-143602693D01*
D80*
X147898210Y-139795403D02*
X148061529Y-139795403D01*
X131921500Y-133733693D02*
X130806500Y-133733693D01*
D81*
X103105508Y-129781701D02*
X105673492Y-129781701D01*
X103095500Y-129771693D02*
X103105508Y-129781701D01*
D79*
X69861500Y-130784693D02*
X69861500Y-129408693D01*
X80546500Y-127793693D02*
X81644500Y-127793693D01*
D80*
X78346500Y-125043693D02*
X79496500Y-125043693D01*
D79*
X83801500Y-130048693D02*
X84346500Y-130593693D01*
D82*
X175840000Y-116490000D02*
X175840000Y-115145000D01*
D79*
X194607500Y-96780000D02*
X195607500Y-97780000D01*
X70246500Y-144843693D02*
X70746500Y-145343693D01*
X195607500Y-97780000D02*
X195607500Y-104160000D01*
D80*
X131196500Y-130243693D02*
X131231500Y-130243693D01*
X75396500Y-119243693D02*
X75296500Y-119143693D01*
X63696500Y-122243693D02*
X63596500Y-122143693D01*
D81*
X103095500Y-129371693D02*
X104892500Y-129371693D01*
D80*
X105708500Y-128555693D02*
X104892500Y-129371693D01*
D79*
X107793800Y-128555693D02*
X107806500Y-128568393D01*
D80*
X105835500Y-128555693D02*
X105708500Y-128555693D01*
D79*
X105835500Y-128555693D02*
X107793800Y-128555693D01*
X109536307Y-146163693D02*
X112410000Y-143290000D01*
D81*
X97145500Y-131371692D02*
X96161501Y-131371692D01*
D79*
X87707501Y-133157692D02*
X88059000Y-132806193D01*
D81*
X96161501Y-131371692D02*
X95548500Y-131984693D01*
D82*
X193200000Y-120710000D02*
X193200000Y-121970000D01*
X193200000Y-121970000D02*
X193180000Y-121990000D01*
D79*
X83096500Y-134591693D02*
X83544500Y-134143693D01*
X88059000Y-132806193D02*
X88753500Y-132111693D01*
X192610000Y-130750000D02*
X194955000Y-130750000D01*
X193180000Y-128975000D02*
X193180000Y-121990000D01*
X86756501Y-133157692D02*
X87707501Y-133157692D01*
X85896500Y-134017693D02*
X86756501Y-133157692D01*
X85416500Y-146163693D02*
X109536307Y-146163693D01*
D80*
X88059000Y-132806193D02*
X88395002Y-132806193D01*
D84*
X83544500Y-134143693D02*
X85770500Y-134143693D01*
D79*
X83096500Y-143843693D02*
X85416500Y-146163693D01*
X83096500Y-143843693D02*
X83096500Y-134591693D01*
X196305000Y-130750000D02*
X196955000Y-130100000D01*
D80*
X88395002Y-132806193D02*
X88596500Y-133007691D01*
D84*
X85770500Y-134143693D02*
X85896500Y-134017693D01*
D79*
X194955000Y-130750000D02*
X196305000Y-130750000D01*
X194955000Y-130750000D02*
X193180000Y-128975000D01*
X188300000Y-135060000D02*
X192610000Y-130750000D01*
X170175844Y-118690000D02*
X158542922Y-130322922D01*
X79096500Y-143843693D02*
X79096500Y-132241693D01*
X88441186Y-129825693D02*
X88027843Y-129412350D01*
D81*
X95664218Y-128971694D02*
X95373246Y-128680722D01*
D82*
X172890000Y-116490000D02*
X173880000Y-116490000D01*
D79*
X82296500Y-147043693D02*
X109896500Y-147043693D01*
D80*
X172840000Y-118690000D02*
X172840000Y-116540000D01*
D82*
X177200000Y-119810000D02*
X177200000Y-120710000D01*
D81*
X95664218Y-128971694D02*
X97145500Y-128971694D01*
D80*
X88027843Y-129252352D02*
X88096500Y-129183695D01*
X88027843Y-129412350D02*
X88027843Y-129252352D01*
D84*
X85516500Y-127793693D02*
X85896500Y-128173693D01*
D79*
X86789186Y-128173693D02*
X85896500Y-128173693D01*
D82*
X173880000Y-116490000D02*
X177200000Y-119810000D01*
D79*
X88027843Y-129412350D02*
X86789186Y-128173693D01*
X172840000Y-118690000D02*
X170175844Y-118690000D01*
X79096500Y-132241693D02*
X83544500Y-127793693D01*
D84*
X83544500Y-127793693D02*
X85516500Y-127793693D01*
D79*
X114296500Y-142643693D02*
X114296500Y-141340000D01*
X79096500Y-143843693D02*
X82296500Y-147043693D01*
X88753500Y-129825693D02*
X88441186Y-129825693D01*
X109896500Y-147043693D02*
X114296500Y-142643693D01*
X158915715Y-131222922D02*
X156481388Y-131222922D01*
D82*
X108756500Y-132873693D02*
X108502500Y-133127693D01*
X176700000Y-120710000D02*
X176700000Y-121252000D01*
D79*
X171395000Y-121560000D02*
X176392000Y-121560000D01*
D81*
X103095500Y-130971693D02*
X104314500Y-130971693D01*
D79*
X159442922Y-130525715D02*
X165238636Y-124730000D01*
D81*
X107403190Y-127583383D02*
X108303112Y-127583383D01*
D79*
X105125596Y-131857693D02*
X104769606Y-131501703D01*
D81*
X104589108Y-128571692D02*
X106075108Y-127085692D01*
D79*
X88756500Y-145503693D02*
X108936500Y-145503693D01*
D82*
X176700000Y-121252000D02*
X176392000Y-121560000D01*
D79*
X106488499Y-131809692D02*
X107806500Y-133127693D01*
X165238636Y-124730000D02*
X169960000Y-124730000D01*
X111757287Y-138413479D02*
X111862622Y-138518814D01*
X87096500Y-143843693D02*
X88756500Y-145503693D01*
X108796500Y-134117693D02*
X108796500Y-136169001D01*
X108936500Y-145503693D02*
X110061500Y-144378693D01*
X159442922Y-130525715D02*
X159442922Y-130695715D01*
X170365000Y-122590000D02*
X171395000Y-121560000D01*
X104769606Y-131501703D02*
X104698048Y-131430145D01*
X170062000Y-124520000D02*
X170062000Y-122893000D01*
D82*
X108756500Y-128036771D02*
X108756500Y-132873693D01*
D79*
X156481388Y-131222922D02*
X154069310Y-133635000D01*
X108796500Y-136169001D02*
X109176192Y-136548693D01*
D82*
X108502500Y-133127693D02*
X107806500Y-133127693D01*
D79*
X159442922Y-130695715D02*
X158915715Y-131222922D01*
X105446699Y-131809692D02*
X106488499Y-131809692D01*
X111757287Y-138277210D02*
X111757287Y-138413479D01*
D81*
X106075108Y-127085692D02*
X106905499Y-127085692D01*
X104314500Y-130971693D02*
X104735500Y-131392693D01*
D79*
X110061500Y-144378693D02*
X110077911Y-144378693D01*
X111866306Y-142590298D02*
X111866306Y-138522498D01*
D81*
X108303112Y-127583383D02*
X108756500Y-128036771D01*
D82*
X176700000Y-120710000D02*
X176700000Y-121360000D01*
D81*
X103095500Y-128571692D02*
X104589108Y-128571692D01*
D79*
X111866306Y-138522498D02*
X111862622Y-138518814D01*
X110077911Y-144378693D02*
X111866306Y-142590298D01*
X107806500Y-133127693D02*
X108796500Y-134117693D01*
X105125596Y-131857693D02*
X105398698Y-131857693D01*
D81*
X106905499Y-127085692D02*
X107403190Y-127583383D01*
D79*
X109176192Y-136548693D02*
X110028770Y-136548693D01*
X110028770Y-136548693D02*
X111757287Y-138277210D01*
X105398698Y-131857693D02*
X105446699Y-131809692D01*
X91852807Y-144600000D02*
X91096500Y-143843693D01*
X194120000Y-119280000D02*
X194120000Y-117970000D01*
D81*
X99920500Y-126596693D02*
X99920500Y-124664683D01*
X100720499Y-132546693D02*
X100720499Y-133854692D01*
D79*
X102406500Y-135540693D02*
X102975500Y-135540693D01*
X194120000Y-117970000D02*
X194030000Y-117880000D01*
D80*
X101009500Y-134143693D02*
X102406500Y-135540693D01*
X194030000Y-116223000D02*
X194405000Y-115848000D01*
D79*
X109823984Y-142240000D02*
X110121992Y-141941992D01*
X105319500Y-137884693D02*
X105319500Y-140960500D01*
D80*
X89846500Y-142593693D02*
X91096500Y-143843693D01*
D79*
X101136500Y-134270693D02*
X102406500Y-135540693D01*
X104184500Y-136749693D02*
X105319500Y-137884693D01*
D80*
X89096500Y-142593693D02*
X89846500Y-142593693D01*
D82*
X192700000Y-119210000D02*
X194030000Y-117880000D01*
D79*
X105319500Y-140960500D02*
X101680000Y-144600000D01*
D81*
X100720499Y-133854692D02*
X101009500Y-134143693D01*
D79*
X106599000Y-142240000D02*
X109823984Y-142240000D01*
X102975500Y-135540693D02*
X104184500Y-136749693D01*
D81*
X99920500Y-124664683D02*
X100220490Y-124364693D01*
D82*
X192700000Y-120710000D02*
X192700000Y-119210000D01*
D80*
X194030000Y-117880000D02*
X194030000Y-116223000D01*
D79*
X101680000Y-144600000D02*
X91852807Y-144600000D01*
D81*
X101009500Y-134143693D02*
X101136500Y-134270693D01*
D79*
X105319500Y-140960500D02*
X106599000Y-142240000D01*
D80*
X140571500Y-137513693D02*
X131319855Y-137513693D01*
D82*
X142646500Y-136718693D02*
X144396500Y-136718693D01*
D80*
X90425135Y-107672328D02*
X90425135Y-113163763D01*
D82*
X144396500Y-136718693D02*
X145796500Y-138118693D01*
D80*
X86896500Y-104143693D02*
X90425135Y-107672328D01*
D82*
X147471500Y-138118693D02*
X147796500Y-137793693D01*
D80*
X131319855Y-137513693D02*
X128381228Y-134575066D01*
D82*
X145796500Y-138118693D02*
X147471500Y-138118693D01*
X140571500Y-137513693D02*
X141851500Y-137513693D01*
X141851500Y-137513693D02*
X142646500Y-136718693D01*
X138286800Y-119156000D02*
X138947984Y-119156000D01*
X136266500Y-122293693D02*
X136266500Y-121176300D01*
X136266500Y-121176300D02*
X138286800Y-119156000D01*
X138947984Y-119156000D02*
X139328984Y-118775000D01*
X181700000Y-123897000D02*
X181803000Y-124000000D01*
X139328984Y-118775000D02*
X155825000Y-118775000D01*
X181700000Y-120710000D02*
X181700000Y-123897000D01*
X155825000Y-118775000D02*
X158050000Y-121000000D01*
X109316307Y-143843693D02*
X111230395Y-141929605D01*
D84*
X107370307Y-122139693D02*
X107380000Y-122130000D01*
D81*
X101520500Y-125862562D02*
X102386369Y-124996693D01*
D80*
X186280000Y-114330000D02*
X186280000Y-112780000D01*
X102724000Y-124809193D02*
X103295500Y-124237693D01*
D81*
X102536500Y-124996693D02*
X102724000Y-124809193D01*
D82*
X108183693Y-137083693D02*
X108180000Y-137080000D01*
D84*
X106216500Y-122139693D02*
X107370307Y-122139693D01*
X103518000Y-124015193D02*
X104341000Y-124015193D01*
D82*
X186700000Y-127940000D02*
X185540000Y-129100000D01*
X186700000Y-120710000D02*
X186700000Y-127940000D01*
X186700000Y-120710000D02*
X186700000Y-114750000D01*
D81*
X101520500Y-126596693D02*
X101520500Y-125862562D01*
D84*
X104341000Y-124015193D02*
X106216500Y-122139693D01*
D81*
X102724000Y-124809193D02*
X102914500Y-124618693D01*
D82*
X111230395Y-141929605D02*
X111230395Y-138982603D01*
X111230395Y-138982603D02*
X109331485Y-137083693D01*
X109331485Y-137083693D02*
X108183693Y-137083693D01*
X186700000Y-114750000D02*
X186280000Y-114330000D01*
D80*
X186280000Y-112780000D02*
X186630000Y-112430000D01*
D82*
X105096500Y-143843693D02*
X109316307Y-143843693D01*
D79*
X102914500Y-124618693D02*
X103518000Y-124015193D01*
D81*
X102386369Y-124996693D02*
X102536500Y-124996693D01*
D82*
X189700000Y-117900000D02*
X189700000Y-120710000D01*
X134996500Y-121293693D02*
X137528193Y-118762000D01*
X189050000Y-117250000D02*
X189700000Y-117900000D01*
X138784784Y-118762000D02*
X139165784Y-118381000D01*
X137528193Y-118762000D02*
X138784784Y-118762000D01*
X134996500Y-122293693D02*
X134996500Y-121293693D01*
X139165784Y-118381000D02*
X157031000Y-118381000D01*
X187400000Y-117250000D02*
X189050000Y-117250000D01*
X157031000Y-118381000D02*
X158900000Y-120250000D01*
D79*
X104057500Y-132238693D02*
X107232500Y-135413693D01*
X107232500Y-135413693D02*
X107806500Y-135413693D01*
D81*
X103590501Y-131771694D02*
X104057500Y-132238693D01*
X103095500Y-131771694D02*
X103590501Y-131771694D01*
D82*
X121926500Y-134973693D02*
X121096500Y-134143693D01*
X123071500Y-134973693D02*
X121926500Y-134973693D01*
X117862469Y-126109662D02*
X117862469Y-121289490D01*
X121096500Y-134143693D02*
X121096500Y-129343693D01*
X113216672Y-116643693D02*
X112137000Y-116643693D01*
X77496500Y-107343693D02*
X77521500Y-107368693D01*
X74896500Y-107343693D02*
X77496500Y-107343693D01*
X117862469Y-121289490D02*
X113216672Y-116643693D01*
X111737000Y-116208914D02*
X111796221Y-116149693D01*
X121096500Y-129343693D02*
X117862469Y-126109662D01*
X111737000Y-116243693D02*
X111737000Y-116208914D01*
X112137000Y-116643693D02*
X111737000Y-116243693D01*
X111615193Y-117243693D02*
X110896500Y-116525000D01*
X77516500Y-108643693D02*
X77521500Y-108638693D01*
X120596500Y-134768693D02*
X120596500Y-129443693D01*
X113196500Y-117243693D02*
X111615193Y-117243693D01*
X117452469Y-126299662D02*
X117452469Y-121499662D01*
X75696500Y-108643693D02*
X77516500Y-108643693D01*
X122071500Y-136243693D02*
X120596500Y-134768693D01*
X117452469Y-121499662D02*
X113196500Y-117243693D01*
X123071500Y-136243693D02*
X122071500Y-136243693D01*
X120596500Y-129443693D02*
X117452469Y-126299662D01*
D84*
X85896500Y-124873693D02*
X88436500Y-124873693D01*
X88436500Y-124873693D02*
X89011500Y-124873693D01*
X89011500Y-124873693D02*
X90534500Y-126396693D01*
D81*
X102288368Y-134016693D02*
X103421370Y-134016693D01*
X103421370Y-134016693D02*
X104172435Y-134767758D01*
D79*
X106196500Y-138721763D02*
X106196500Y-136791823D01*
X106680030Y-139205293D02*
X106196500Y-138721763D01*
X155947922Y-132917922D02*
X174752078Y-132917922D01*
X110545395Y-139593693D02*
X110156995Y-139205293D01*
D81*
X101520500Y-133248825D02*
X102288368Y-134016693D01*
D79*
X179046000Y-122264000D02*
X179170000Y-122140000D01*
X179046000Y-128624000D02*
X179046000Y-122264000D01*
D81*
X101520500Y-132546693D02*
X101520500Y-133248825D01*
D82*
X179200000Y-120710000D02*
X179200000Y-122110000D01*
D79*
X106196500Y-136791823D02*
X104172435Y-134767758D01*
X174752078Y-132917922D02*
X179046000Y-128624000D01*
X110156995Y-139205293D02*
X106680030Y-139205293D01*
D82*
X87846500Y-107993693D02*
X87596500Y-108243693D01*
X82471500Y-108638693D02*
X84091500Y-108638693D01*
X87846500Y-106568693D02*
X87846500Y-107993693D01*
X86911500Y-108928693D02*
X87596500Y-108243693D01*
X84091500Y-108638693D02*
X84381500Y-108928693D01*
X84381500Y-108928693D02*
X86911500Y-108928693D01*
D81*
X95690047Y-128020721D02*
X96241018Y-128571692D01*
X95167500Y-127793693D02*
X95394528Y-128020721D01*
D79*
X93770500Y-126396693D02*
X92434500Y-126396693D01*
D81*
X95394528Y-128020721D02*
X95690047Y-128020721D01*
D79*
X95167500Y-127793693D02*
X93770500Y-126396693D01*
D81*
X96241018Y-128571692D02*
X97145500Y-128571692D01*
D82*
X85981500Y-109908693D02*
X85996500Y-109893693D01*
X82471500Y-109908693D02*
X85981500Y-109908693D01*
X85996500Y-109893693D02*
X85996500Y-111393693D01*
X85996500Y-111393693D02*
X85846500Y-111543693D01*
D79*
X69016500Y-141043693D02*
X67717500Y-139744693D01*
D84*
X101450000Y-109850000D02*
X103950000Y-107350000D01*
D79*
X67296500Y-133163693D02*
X67296500Y-134889693D01*
X67717500Y-139744693D02*
X65795500Y-139744693D01*
D84*
X68550000Y-124150000D02*
X67984000Y-124716000D01*
D79*
X62296500Y-126743693D02*
X62296500Y-128163693D01*
D84*
X67984000Y-124716000D02*
X67984000Y-125793693D01*
D79*
X67296500Y-134889693D02*
X68591500Y-136184693D01*
X62296500Y-128163693D02*
X67296500Y-133163693D01*
D84*
X102655204Y-103140990D02*
X102655204Y-103155204D01*
X68600000Y-124150000D02*
X68550000Y-124150000D01*
D79*
X69696500Y-141043693D02*
X69016500Y-141043693D01*
X67717500Y-137058693D02*
X67717500Y-139744693D01*
D84*
X102655204Y-103155204D02*
X103950000Y-104450000D01*
D79*
X67984000Y-125793693D02*
X63246500Y-125793693D01*
X65795500Y-139744693D02*
X65696500Y-139843693D01*
X63246500Y-125793693D02*
X62296500Y-126743693D01*
D84*
X68600000Y-124150000D02*
X69450000Y-124150000D01*
D79*
X68591500Y-136184693D02*
X67717500Y-137058693D01*
D84*
X103950000Y-104450000D02*
X103950000Y-107350000D01*
D79*
X66821500Y-124131193D02*
X66109000Y-124843693D01*
X70746500Y-111193693D02*
X70796500Y-111143693D01*
X76446500Y-125043693D02*
X76446500Y-123931193D01*
X70796500Y-122893693D02*
X75409000Y-122893693D01*
X76446500Y-123931193D02*
X75409000Y-122893693D01*
X70796500Y-116143693D02*
X70796500Y-122893693D01*
X68281500Y-116093693D02*
X70746500Y-116093693D01*
D80*
X75429174Y-112343693D02*
X75562837Y-112210030D01*
D79*
X64146500Y-124843693D02*
X63596500Y-124293693D01*
X66109000Y-124843693D02*
X64146500Y-124843693D01*
X75409000Y-122893693D02*
X76159000Y-122143693D01*
X70796500Y-122893693D02*
X66821500Y-122893693D01*
X70746500Y-116093693D02*
X70796500Y-116143693D01*
X66821500Y-122893693D02*
X66171500Y-122243693D01*
D80*
X74421500Y-112343693D02*
X75429174Y-112343693D01*
D79*
X68281500Y-111193693D02*
X70746500Y-111193693D01*
X66821500Y-122893693D02*
X66821500Y-124131193D01*
D82*
X116146500Y-139643693D02*
X116146500Y-142333693D01*
D80*
X70730440Y-144008136D02*
X70730440Y-143977633D01*
D79*
X69621500Y-143018693D02*
X69696500Y-142943693D01*
X67717500Y-143018693D02*
X67717500Y-141394693D01*
D80*
X113836500Y-144643693D02*
X116146500Y-142333693D01*
D82*
X115868500Y-139365693D02*
X116146500Y-139643693D01*
D79*
X67717500Y-143018693D02*
X69621500Y-143018693D01*
D80*
X70730440Y-143977633D02*
X69696500Y-142943693D01*
D84*
X90534500Y-135219693D02*
X88436500Y-137317693D01*
X85896500Y-137317693D02*
X88436500Y-137317693D01*
X90534500Y-134016693D02*
X90534500Y-135219693D01*
D79*
X78246500Y-118093693D02*
X79996500Y-116343693D01*
X77521500Y-109908693D02*
X79931500Y-109908693D01*
X79996500Y-109843693D02*
X79996500Y-107043693D01*
X78434000Y-121193693D02*
X78434000Y-119431193D01*
X80941500Y-106098693D02*
X82471500Y-106098693D01*
X78246500Y-118093693D02*
X75996500Y-115843693D01*
X79996500Y-107043693D02*
X80941500Y-106098693D01*
X75996500Y-115843693D02*
X74446500Y-115843693D01*
X79996500Y-116343693D02*
X79996500Y-109843693D01*
X79931500Y-109908693D02*
X79996500Y-109843693D01*
X78246500Y-119243693D02*
X78246500Y-118093693D01*
X78434000Y-119431193D02*
X78246500Y-119243693D01*
D80*
X95695099Y-132854094D02*
X95655901Y-132854094D01*
D79*
X92434500Y-134016693D02*
X93897500Y-134016693D01*
D81*
X96523499Y-131771694D02*
X96208501Y-132086692D01*
X97145500Y-131771694D02*
X96523499Y-131771694D01*
D80*
X96208501Y-132340692D02*
X95695099Y-132854094D01*
D79*
X93897500Y-134016693D02*
X95060099Y-132854094D01*
D80*
X96208501Y-132301494D02*
X96208501Y-132340692D01*
D79*
X95060099Y-132854094D02*
X95655901Y-132854094D01*
D81*
X96208501Y-132086692D02*
X96208501Y-132301494D01*
D79*
X94723000Y-135223193D02*
X95802500Y-134143693D01*
D81*
X102025500Y-136048693D02*
X102025500Y-136749693D01*
X100320500Y-134343693D02*
X102025500Y-136048693D01*
X97793499Y-133594692D02*
X97602999Y-133785192D01*
D79*
X97793499Y-133676694D02*
X97793499Y-133594692D01*
X97326500Y-134143693D02*
X97517000Y-133953193D01*
D83*
X101578500Y-136749693D02*
X102025500Y-136749693D01*
D79*
X91738500Y-136048693D02*
X92564000Y-135223193D01*
D84*
X98597500Y-139096693D02*
X99485500Y-139984693D01*
X99231500Y-139096693D02*
X99485500Y-138842693D01*
D83*
X99485500Y-138842693D02*
X101578500Y-136749693D01*
D81*
X97602999Y-133785192D02*
X97498498Y-133889693D01*
D84*
X93317499Y-138328692D02*
X93317499Y-138724694D01*
D79*
X97517000Y-133953193D02*
X97793499Y-133676694D01*
D84*
X91738500Y-136749693D02*
X93317499Y-138328692D01*
D81*
X97920499Y-132546693D02*
X97920499Y-133467692D01*
D83*
X99485500Y-139984693D02*
X99485500Y-138842693D01*
D79*
X91738500Y-136749693D02*
X91738500Y-136048693D01*
X92564000Y-135223193D02*
X94723000Y-135223193D01*
D81*
X99920500Y-134451693D02*
X102025500Y-136556693D01*
X97920499Y-133467692D02*
X97793499Y-133594692D01*
D84*
X93317499Y-138724694D02*
X93689498Y-139096693D01*
D81*
X102025500Y-136556693D02*
X102025500Y-136749693D01*
D79*
X95802500Y-134143693D02*
X97326500Y-134143693D01*
D81*
X100320500Y-132546693D02*
X100320500Y-134343693D01*
D84*
X93689498Y-139096693D02*
X98597500Y-139096693D01*
D81*
X99920500Y-132546693D02*
X99920500Y-134451693D01*
D84*
X98597500Y-139096693D02*
X99231500Y-139096693D01*
D79*
X92434500Y-131857693D02*
X94476698Y-131857693D01*
D81*
X97145500Y-130971693D02*
X95545500Y-130971693D01*
D79*
X88875102Y-134017693D02*
X90154092Y-132738703D01*
X88436500Y-134017693D02*
X88875102Y-134017693D01*
D81*
X95545500Y-130971693D02*
X95167500Y-131349693D01*
X95258901Y-131258292D02*
X95545500Y-130971693D01*
D80*
X94659500Y-131857693D02*
X95167500Y-131349693D01*
D79*
X91299490Y-132738703D02*
X92434500Y-131603693D01*
D80*
X92434500Y-131857693D02*
X94659500Y-131857693D01*
D79*
X90154092Y-132738703D02*
X91299490Y-132738703D01*
D81*
X94967500Y-129371693D02*
X94659500Y-129063693D01*
D79*
X89078490Y-127531703D02*
X88935510Y-127674683D01*
X88436500Y-128173693D02*
X88935510Y-127674683D01*
X91156510Y-127531703D02*
X89078490Y-127531703D01*
D81*
X94967500Y-129371693D02*
X97145500Y-129371693D01*
D79*
X94151500Y-128555693D02*
X94659500Y-129063693D01*
X92434500Y-128555693D02*
X94151500Y-128555693D01*
X92434500Y-128809693D02*
X91156510Y-127531703D01*
D82*
X137122172Y-108198000D02*
X186454200Y-108198000D01*
X186454200Y-108198000D02*
X190700000Y-112443800D01*
X124836500Y-122293693D02*
X124836500Y-120483672D01*
X124836500Y-120483672D02*
X137122172Y-108198000D01*
X190700000Y-112443800D02*
X190700000Y-120710000D01*
D80*
X102608501Y-124107532D02*
X102608501Y-123019692D01*
D82*
X98977500Y-125380693D02*
X98977500Y-124237693D01*
D80*
X96145949Y-127771694D02*
X96216660Y-127771694D01*
D81*
X101120501Y-130571694D02*
X100120500Y-129571693D01*
D79*
X98977500Y-124872693D02*
X98977500Y-123983693D01*
D84*
X103930500Y-122139693D02*
X103930500Y-121883305D01*
D81*
X98720500Y-126596693D02*
X98720500Y-128171693D01*
X97145500Y-128171693D02*
X96616659Y-128171693D01*
X96616659Y-128171693D02*
X96216660Y-127771694D01*
D84*
X103930500Y-121883305D02*
X103612021Y-121564826D01*
D81*
X104819500Y-130587693D02*
X105073500Y-130841693D01*
D80*
X101898500Y-124817533D02*
X102608501Y-124107532D01*
D83*
X99550500Y-122139693D02*
X99358500Y-122331693D01*
D82*
X98720500Y-125885693D02*
X98720500Y-126596693D01*
D84*
X103636500Y-122794693D02*
X103636500Y-122433693D01*
D81*
X103533501Y-130571694D02*
X103549500Y-130587693D01*
D82*
X100120500Y-129571693D02*
X98545700Y-127996893D01*
D84*
X98977500Y-123475693D02*
X98977500Y-122712693D01*
D81*
X103095500Y-130571694D02*
X103533501Y-130571694D01*
X98977500Y-124237693D02*
X98977500Y-123983693D01*
D83*
X102467500Y-122139693D02*
X103930500Y-122139693D01*
D81*
X101120501Y-126596693D02*
X101120501Y-125650692D01*
D82*
X98720500Y-125637693D02*
X98720500Y-125885693D01*
D81*
X98320501Y-127771694D02*
X100120500Y-129571693D01*
D83*
X101644500Y-122139693D02*
X99550500Y-122139693D01*
D80*
X95422757Y-127048502D02*
X96145949Y-127771694D01*
D81*
X98720500Y-128171693D02*
X100120500Y-129571693D01*
D80*
X102608501Y-122280694D02*
X102467500Y-122139693D01*
X101898500Y-124872693D02*
X101898500Y-124817533D01*
D82*
X101120501Y-128571692D02*
X100120500Y-129571693D01*
D79*
X107806500Y-130841693D02*
X105042991Y-130841693D01*
X102608501Y-123019692D02*
X102608501Y-122280694D01*
D81*
X97145500Y-127771694D02*
X96216660Y-127771694D01*
D80*
X95422757Y-126903436D02*
X95422757Y-127048502D01*
D81*
X98977500Y-123983693D02*
X98977500Y-123856693D01*
X98977500Y-124743640D02*
X98977500Y-124364693D01*
X98977500Y-124364693D02*
X98977500Y-124237693D01*
D80*
X98977500Y-124364693D02*
X98977500Y-123475693D01*
D81*
X98977500Y-125380693D02*
X98977500Y-124743640D01*
D79*
X105042991Y-130841693D02*
X106089500Y-130841693D01*
X98977500Y-125380693D02*
X98977500Y-124872693D01*
X98977500Y-123983693D02*
X98977500Y-122712693D01*
D84*
X98977500Y-122712693D02*
X99358500Y-122331693D01*
D82*
X98720500Y-125637693D02*
X98977500Y-125380693D01*
D81*
X103549500Y-130587693D02*
X104819500Y-130587693D01*
D79*
X105042991Y-130841693D02*
X104883000Y-130681702D01*
D81*
X101120501Y-125650692D02*
X101898500Y-124872693D01*
D84*
X103636500Y-122433693D02*
X103930500Y-122139693D01*
D83*
X101644500Y-122139693D02*
X102467500Y-122139693D01*
X92754500Y-122677693D02*
X93552500Y-122677693D01*
X94024500Y-122205693D02*
X94024500Y-121697693D01*
D82*
X97145500Y-127371692D02*
X96396499Y-127371692D01*
D83*
X92754500Y-122677693D02*
X93806500Y-122677693D01*
D79*
X96183500Y-126523693D02*
X96183500Y-125634693D01*
D83*
X93552500Y-122677693D02*
X94024500Y-122205693D01*
D84*
X93226500Y-122677693D02*
X92754500Y-122677693D01*
X96183500Y-125634693D02*
X93226500Y-122677693D01*
D83*
X92754500Y-122677693D02*
X93480500Y-122677693D01*
D80*
X96183500Y-127158693D02*
X96183500Y-126523693D01*
D82*
X96396499Y-127371692D02*
X96183500Y-127158693D01*
D83*
X96690500Y-119031693D02*
X99358500Y-119031693D01*
X94024500Y-121697693D02*
X96690500Y-119031693D01*
D80*
X99120499Y-133492694D02*
X98977500Y-133635693D01*
D83*
X97072500Y-135677693D02*
X98478500Y-135677693D01*
D80*
X99120499Y-133365694D02*
X99120499Y-133492694D01*
D84*
X98478500Y-134134693D02*
X98478500Y-134896693D01*
D83*
X99120499Y-136319692D02*
X99485500Y-136684693D01*
D79*
X98231499Y-135430692D02*
X98478500Y-135677693D01*
D84*
X97072500Y-135677693D02*
X97697500Y-135677693D01*
D80*
X98977500Y-133635693D02*
X98850500Y-133762693D01*
D83*
X95802500Y-137196693D02*
X95802500Y-136947693D01*
D84*
X98478500Y-134896693D02*
X98478500Y-135677693D01*
D79*
X98850500Y-133762693D02*
X98478500Y-134134693D01*
D83*
X95802500Y-136947693D02*
X97072500Y-135677693D01*
X98478500Y-135677693D02*
X99485500Y-136684693D01*
D84*
X97697500Y-135677693D02*
X98478500Y-134896693D01*
D81*
X99120499Y-132546693D02*
X99120499Y-133365694D01*
D79*
X72246500Y-141168693D02*
X72246500Y-142900693D01*
X72246500Y-142900693D02*
X72141500Y-143005693D01*
X74554500Y-144880693D02*
X72141500Y-144880693D01*
X74055500Y-136184693D02*
X72401500Y-136184693D01*
X68591500Y-128398693D02*
X70796500Y-126193693D01*
X75296500Y-129593693D02*
X75296500Y-134943693D01*
X76096500Y-135743693D02*
X75296500Y-134943693D01*
X74554500Y-144880693D02*
X76096500Y-143338693D01*
X75296500Y-134943693D02*
X74055500Y-136184693D01*
X76096500Y-143338693D02*
X76096500Y-135743693D01*
X71896500Y-126193693D02*
X75296500Y-129593693D01*
X70796500Y-126193693D02*
X71896500Y-126193693D01*
X68591500Y-130784693D02*
X68591500Y-128398693D01*
X74554500Y-141168693D02*
X74554500Y-143005693D01*
D80*
X70286500Y-111853693D02*
X71090592Y-111853693D01*
X68281500Y-112393693D02*
X69746500Y-112393693D01*
X69746500Y-112393693D02*
X70286500Y-111853693D01*
X72696500Y-110247785D02*
X72696500Y-109168693D01*
X71090592Y-111853693D02*
X72696500Y-110247785D01*
X71050592Y-115393693D02*
X71596500Y-115939601D01*
X71596500Y-117718693D02*
X72696500Y-118818693D01*
X71596500Y-115939601D02*
X71596500Y-117718693D01*
X68281500Y-115393693D02*
X71050592Y-115393693D01*
D81*
X107432161Y-111943693D02*
X104938484Y-114437370D01*
D82*
X123071500Y-129893693D02*
X122071500Y-129893693D01*
D81*
X108994000Y-109851741D02*
X108994000Y-109303000D01*
D80*
X118413432Y-93850000D02*
X118413432Y-93713432D01*
D81*
X108991000Y-109854741D02*
X108994000Y-109851741D01*
D82*
X110812445Y-114671000D02*
X110454445Y-114671000D01*
D80*
X121009128Y-94004949D02*
X121009128Y-93990872D01*
X120069000Y-98228000D02*
X108994000Y-109303000D01*
X120069000Y-94945077D02*
X120069000Y-98228000D01*
D81*
X100320500Y-125319693D02*
X100320500Y-126596693D01*
X100924161Y-123571352D02*
X100896500Y-123599013D01*
D80*
X121009128Y-93990872D02*
X121700000Y-93300000D01*
D81*
X100896500Y-123599013D02*
X100896500Y-124743693D01*
D82*
X122071500Y-129893693D02*
X122036500Y-129858693D01*
X118682469Y-125529662D02*
X118682469Y-120829662D01*
D81*
X108171500Y-111943693D02*
X107432161Y-111943693D01*
D80*
X118413432Y-93713432D02*
X97300000Y-72600000D01*
X120350444Y-91912988D02*
X118413432Y-93850000D01*
D82*
X110413445Y-114630000D02*
X110382807Y-114630000D01*
D80*
X121700000Y-93300000D02*
X121700000Y-92500000D01*
D82*
X108171500Y-112418693D02*
X108171500Y-111943693D01*
X122036500Y-129858693D02*
X122036500Y-128883693D01*
X110454445Y-114671000D02*
X110413445Y-114630000D01*
X110826445Y-114685000D02*
X110812445Y-114671000D01*
D80*
X121112988Y-91912988D02*
X120350444Y-91912988D01*
D82*
X118682469Y-120829662D02*
X112537807Y-114685000D01*
X110382807Y-114630000D02*
X108171500Y-112418693D01*
X112537807Y-114685000D02*
X110826445Y-114685000D01*
D80*
X97300000Y-72600000D02*
X64075000Y-72600000D01*
X121009128Y-94004949D02*
X120069000Y-94945077D01*
D81*
X100896500Y-124743693D02*
X100320500Y-125319693D01*
X108991000Y-111109000D02*
X108991000Y-109854741D01*
D80*
X121700000Y-92500000D02*
X121112988Y-91912988D01*
D81*
X108171500Y-111943693D02*
X108171500Y-111928500D01*
X108171500Y-111928500D02*
X108991000Y-111109000D01*
D82*
X122036500Y-128883693D02*
X118682469Y-125529662D01*
D81*
X101357442Y-124904635D02*
X100720499Y-125541578D01*
D82*
X118276500Y-121123693D02*
X112458807Y-115306000D01*
X122071500Y-131163693D02*
X121626499Y-130718692D01*
X112458807Y-115306000D02*
X104134193Y-115306000D01*
X118272469Y-123077253D02*
X118276500Y-123073222D01*
D80*
X120111102Y-93147898D02*
X119365000Y-93894000D01*
X119365000Y-98304090D02*
X108171500Y-109497590D01*
X108171500Y-109497590D02*
X108171500Y-110143693D01*
D81*
X100720499Y-125541578D02*
X100720499Y-126596693D01*
D80*
X116650000Y-94450000D02*
X95800000Y-73600000D01*
X119365000Y-93894000D02*
X119365000Y-98304090D01*
D82*
X104134193Y-115306000D02*
X104096500Y-115343693D01*
D80*
X120111102Y-93106924D02*
X118768026Y-94450000D01*
D81*
X101357442Y-124070746D02*
X101357442Y-124904635D01*
D80*
X120111102Y-93106924D02*
X120111102Y-93147898D01*
D82*
X123071500Y-131163693D02*
X122071500Y-131163693D01*
D81*
X104096500Y-115343693D02*
X104096500Y-114218693D01*
X104096500Y-114218693D02*
X108171500Y-110143693D01*
D82*
X118272469Y-125919662D02*
X118272469Y-123077253D01*
X121626499Y-130718692D02*
X121626499Y-129273692D01*
X118276500Y-123073222D02*
X118276500Y-121123693D01*
D80*
X95800000Y-73600000D02*
X64075000Y-73600000D01*
X118768026Y-94450000D02*
X116650000Y-94450000D01*
D82*
X121626499Y-129273692D02*
X118272469Y-125919662D01*
D81*
X101891748Y-123536440D02*
X101357442Y-124070746D01*
D82*
X127376500Y-123293693D02*
X127070193Y-123600000D01*
X127070193Y-123600000D02*
X124750000Y-123600000D01*
D81*
X98330500Y-126586694D02*
X98330500Y-122523136D01*
X98330500Y-122523136D02*
X98024294Y-122216930D01*
D82*
X127376500Y-120023500D02*
X128816637Y-118583363D01*
X127376500Y-122293693D02*
X127376500Y-120023500D01*
X127376500Y-122293693D02*
X127376500Y-123293693D01*
D81*
X98320501Y-126596693D02*
X98330500Y-126586694D01*
D82*
X131186500Y-122293693D02*
X131186500Y-119813500D01*
X131200000Y-119800000D02*
X132116637Y-118883363D01*
D81*
X103918347Y-131371692D02*
X105290348Y-132743693D01*
X103095500Y-131371692D02*
X103918347Y-131371692D01*
X105290348Y-132743693D02*
X106196500Y-132743693D01*
D82*
X131186500Y-119813500D02*
X131200000Y-119800000D01*
D81*
X106578374Y-130171692D02*
X107064129Y-129685937D01*
D82*
X129916500Y-120533500D02*
X130100000Y-120350000D01*
X129916500Y-122293693D02*
X129916500Y-120533500D01*
D81*
X103095500Y-130171692D02*
X106578374Y-130171692D01*
X103968501Y-127371692D02*
X106010830Y-125329363D01*
X103095500Y-127371692D02*
X103968501Y-127371692D01*
D82*
X132456500Y-123293693D02*
X131750193Y-124000000D01*
D81*
X106010830Y-125329363D02*
X106293592Y-125329363D01*
D82*
X132456500Y-122293693D02*
X132456500Y-123293693D01*
X131750193Y-124000000D02*
X128450000Y-124000000D01*
D81*
X99105500Y-125973942D02*
X99560490Y-125518952D01*
X99560490Y-123850063D02*
X99972856Y-123437697D01*
X99560490Y-125518952D02*
X99560490Y-123850063D01*
X99105500Y-126581694D02*
X99105500Y-125973942D01*
D82*
X133726500Y-122293693D02*
X133726500Y-123027577D01*
X133726500Y-123027577D02*
X133227039Y-123527038D01*
D81*
X99120499Y-126596693D02*
X99105500Y-126581694D01*
D79*
X173515150Y-97605150D02*
X173485150Y-97605150D01*
X169660000Y-96460000D02*
X168730000Y-95530000D01*
X96096500Y-123093693D02*
X96846500Y-122343693D01*
X66109000Y-126743693D02*
X64446500Y-126743693D01*
X86846500Y-120293693D02*
X86846500Y-121093693D01*
D84*
X112946500Y-124393693D02*
X112946500Y-125606193D01*
X112096500Y-121843693D02*
X108596500Y-121843693D01*
D79*
X114138460Y-124393693D02*
X112946500Y-124393693D01*
X95846500Y-122343693D02*
X95846500Y-122843693D01*
D84*
X96818500Y-123155693D02*
X96818500Y-124491693D01*
D82*
X104060500Y-128171693D02*
X104311500Y-127920693D01*
D84*
X108596500Y-121843693D02*
X108596500Y-123193693D01*
D79*
X107806500Y-126269693D02*
X106484444Y-126269693D01*
X107188759Y-123290140D02*
X107188759Y-123365952D01*
X95596500Y-123093693D02*
X96096500Y-123093693D01*
X114846500Y-125101733D02*
X114138460Y-124393693D01*
X73296500Y-124943693D02*
X75146500Y-126793693D01*
X171950000Y-99840000D02*
X172015150Y-99840000D01*
X69496500Y-125443693D02*
X69996500Y-124943693D01*
X171950000Y-98710000D02*
X171580000Y-98340000D01*
D80*
X97920499Y-125593692D02*
X97580500Y-125253693D01*
D79*
X85546500Y-120293693D02*
X86846500Y-120293693D01*
X95658500Y-123155693D02*
X95596500Y-123093693D01*
X108996500Y-121443693D02*
X108596500Y-121843693D01*
X169940000Y-92700000D02*
X173510000Y-92700000D01*
X96818500Y-123155693D02*
X95658500Y-123155693D01*
X66109000Y-126743693D02*
X68796500Y-126743693D01*
D84*
X99358500Y-141702693D02*
X96508500Y-141702693D01*
D79*
X69496500Y-126043693D02*
X69496500Y-125443693D01*
D82*
X103095500Y-128171693D02*
X104060500Y-128171693D01*
D79*
X96818500Y-122371693D02*
X96846500Y-122343693D01*
X172340000Y-96460000D02*
X169660000Y-96460000D01*
X86846500Y-121093693D02*
X87096500Y-121343693D01*
X114846500Y-125606193D02*
X114846500Y-125101733D01*
D82*
X97920499Y-126596693D02*
X97920499Y-125720692D01*
D79*
X173515150Y-98340000D02*
X173515150Y-97605150D01*
D84*
X96818500Y-124491693D02*
X97326500Y-124999693D01*
D79*
X105962500Y-126269693D02*
X107806500Y-126269693D01*
X75146500Y-126793693D02*
X79046500Y-126793693D01*
D84*
X108596500Y-123193693D02*
X107806500Y-123983693D01*
D79*
X86846500Y-120293693D02*
X87546500Y-120293693D01*
X108996500Y-116543693D02*
X108996500Y-121443693D01*
X79046500Y-126793693D02*
X85546500Y-120293693D01*
X172015150Y-99840000D02*
X173515150Y-98340000D01*
X95846500Y-122343693D02*
X96846500Y-122343693D01*
D84*
X112946500Y-123243693D02*
X112946500Y-122693693D01*
D79*
X168730000Y-93910000D02*
X169940000Y-92700000D01*
X168730000Y-95530000D02*
X168730000Y-93910000D01*
D84*
X96508500Y-141702693D02*
X95802500Y-140996693D01*
X100487500Y-141702693D02*
X100596500Y-141593693D01*
D79*
X173485150Y-97605150D02*
X172340000Y-96460000D01*
X107806500Y-126269693D02*
X107806500Y-123983693D01*
X96658500Y-123155693D02*
X95846500Y-122343693D01*
X64446500Y-126743693D02*
X63596500Y-127593693D01*
X104565500Y-127666693D02*
X105962500Y-126269693D01*
D84*
X112946500Y-122693693D02*
X112096500Y-121843693D01*
D79*
X171950000Y-99840000D02*
X171950000Y-98710000D01*
X68796500Y-126743693D02*
X69496500Y-126043693D01*
X96818500Y-123155693D02*
X96658500Y-123155693D01*
X69996500Y-124943693D02*
X73296500Y-124943693D01*
X97580500Y-125253693D02*
X97326500Y-124999693D01*
X96818500Y-123155693D02*
X96818500Y-122371693D01*
X87546500Y-120293693D02*
X88096500Y-120843693D01*
D82*
X97920499Y-125720692D02*
X97920499Y-125593692D01*
D84*
X99358500Y-141702693D02*
X100487500Y-141702693D01*
X112946500Y-123243693D02*
X112946500Y-124393693D01*
D79*
X95846500Y-122843693D02*
X95596500Y-123093693D01*
X107188759Y-123365952D02*
X107806500Y-123983693D01*
D82*
X104311500Y-127920693D02*
X104565500Y-127666693D01*
D81*
X76244500Y-111791693D02*
X75482500Y-111029693D01*
X72646500Y-111806193D02*
X74346500Y-111806193D01*
X66296500Y-113543693D02*
X66646500Y-113893693D01*
X66646500Y-112893693D02*
X66296500Y-113243693D01*
X70456328Y-112263693D02*
X71260420Y-112263693D01*
X75123000Y-111029693D02*
X74346500Y-111806193D01*
X66296500Y-113243693D02*
X66296500Y-113543693D01*
X68281500Y-112893693D02*
X66646500Y-112893693D01*
X71260420Y-112263693D02*
X71717920Y-111806193D01*
X69826328Y-112893693D02*
X70456328Y-112263693D01*
X75482500Y-111029693D02*
X75123000Y-111029693D01*
X77521500Y-112448693D02*
X76864500Y-111791693D01*
X76864500Y-111791693D02*
X76244500Y-111791693D01*
X68281500Y-112893693D02*
X69826328Y-112893693D01*
X66646500Y-113893693D02*
X68281500Y-113893693D01*
X71717920Y-111806193D02*
X72646500Y-111806193D01*
X72134000Y-113393693D02*
X71134000Y-114393693D01*
X78516328Y-113008693D02*
X79038500Y-112486521D01*
X72134000Y-113393693D02*
X72646500Y-112881193D01*
X78425500Y-111178693D02*
X79038500Y-111791693D01*
X74474000Y-113008693D02*
X78516328Y-113008693D01*
X68281500Y-113393693D02*
X72134000Y-113393693D01*
X71134000Y-114393693D02*
X68281500Y-114393693D01*
X79038500Y-112486521D02*
X79038500Y-111791693D01*
X77521500Y-111178693D02*
X78425500Y-111178693D01*
X74346500Y-112881193D02*
X74474000Y-113008693D01*
X72646500Y-112881193D02*
X74346500Y-112881193D01*
D79*
X145796500Y-139768693D02*
X145871500Y-139768693D01*
X112896500Y-130143693D02*
X113396438Y-130643631D01*
X191270000Y-101780000D02*
X185936500Y-107113500D01*
D80*
X81530000Y-87320378D02*
X81530000Y-88497911D01*
D82*
X133283363Y-117716637D02*
X134483363Y-117716637D01*
X119210000Y-115145000D02*
X119218000Y-115137000D01*
X81280000Y-86800000D02*
X81530000Y-86550000D01*
D79*
X112896500Y-129831193D02*
X114846500Y-127881193D01*
X113396438Y-130643631D02*
X113396438Y-134543755D01*
X144811500Y-138783693D02*
X140571500Y-138783693D01*
D81*
X101120501Y-132546693D02*
X101120501Y-133357957D01*
D80*
X74262000Y-91450000D02*
X73950000Y-91138000D01*
D79*
X114846500Y-127881193D02*
X115187169Y-127540524D01*
D80*
X81530000Y-88497911D02*
X78577911Y-91450000D01*
D79*
X150596500Y-140081193D02*
X150596500Y-138943693D01*
D82*
X118323000Y-115145000D02*
X119210000Y-115145000D01*
D81*
X101120501Y-133357957D02*
X102439237Y-134676693D01*
D79*
X150574097Y-140058790D02*
X150574097Y-139790000D01*
X128161000Y-107497000D02*
X127687000Y-107497000D01*
D80*
X81530000Y-86320126D02*
X81530000Y-86550000D01*
D79*
X114846500Y-127881193D02*
X114334000Y-127881193D01*
D82*
X134483363Y-117716637D02*
X134500000Y-117700000D01*
D79*
X112896500Y-130143693D02*
X112896500Y-129831193D01*
X113396438Y-134543755D02*
X112896500Y-135043693D01*
D82*
X81280000Y-86300000D02*
X81530000Y-86050000D01*
D80*
X81530000Y-86820252D02*
X81530000Y-87050000D01*
D82*
X81110000Y-86800000D02*
X81280000Y-86800000D01*
D80*
X81530000Y-85550000D02*
X81530000Y-84225000D01*
D84*
X79500000Y-71600000D02*
X79650000Y-71750000D01*
D79*
X145796500Y-139768693D02*
X144811500Y-138783693D01*
D80*
X74170000Y-87420000D02*
X75270000Y-87420000D01*
D79*
X147196500Y-142443693D02*
X148446500Y-142443693D01*
D84*
X64075000Y-71600000D02*
X79500000Y-71600000D01*
D82*
X81110000Y-87300000D02*
X81280000Y-87300000D01*
D79*
X112896500Y-137016370D02*
X112332870Y-137580000D01*
D80*
X81530000Y-87050000D02*
X81530000Y-87320378D01*
D82*
X81110000Y-85800000D02*
X81280000Y-85800000D01*
D79*
X193007500Y-100530000D02*
X193007500Y-101780000D01*
D80*
X73950000Y-91138000D02*
X73950000Y-87640000D01*
D79*
X148446500Y-142443693D02*
X148446500Y-142343693D01*
X193007500Y-101780000D02*
X191270000Y-101780000D01*
X150596500Y-140193693D02*
X148446500Y-142343693D01*
D80*
X112623637Y-102689363D02*
X112631363Y-102689363D01*
D82*
X81110000Y-86300000D02*
X81280000Y-86300000D01*
D80*
X81530000Y-86550000D02*
X81530000Y-86820252D01*
D79*
X128544500Y-107113500D02*
X128161000Y-107497000D01*
D80*
X112631363Y-102689363D02*
X113250000Y-103308000D01*
D79*
X150596500Y-140081193D02*
X150596500Y-140193693D01*
X125703000Y-107497000D02*
X125550000Y-107650000D01*
D80*
X81530000Y-85820000D02*
X81530000Y-85550000D01*
D79*
X145871500Y-139768693D02*
X148446500Y-142343693D01*
X127687000Y-107497000D02*
X125703000Y-107497000D01*
X185936500Y-107113500D02*
X128544500Y-107113500D01*
D80*
X109821500Y-111943693D02*
X110796500Y-111943693D01*
X78577911Y-91450000D02*
X74262000Y-91450000D01*
X81530000Y-85820000D02*
X81530000Y-86050000D01*
D79*
X115187169Y-127540524D02*
X115331000Y-127540524D01*
X112896500Y-135043693D02*
X112896500Y-137016370D01*
D80*
X81530000Y-86050000D02*
X81530000Y-86320126D01*
D81*
X102439237Y-134676693D02*
X103041500Y-134676693D01*
D82*
X81280000Y-85800000D02*
X81530000Y-85550000D01*
D80*
X73950000Y-87640000D02*
X74170000Y-87420000D01*
D82*
X81280000Y-87300000D02*
X81530000Y-87050000D01*
X129983363Y-117416637D02*
X131850000Y-115550000D01*
D79*
X150596500Y-140081193D02*
X150574097Y-140058790D01*
D80*
X109821500Y-110143693D02*
X110802000Y-110143693D01*
D79*
X114334000Y-127881193D02*
X113996500Y-127543693D01*
X146996500Y-142243693D02*
X147196500Y-142443693D01*
X173480000Y-91720000D02*
X173510000Y-91750000D01*
X170050000Y-90980000D02*
X170790000Y-91720000D01*
D80*
X185240000Y-88240000D02*
X175810000Y-88240000D01*
X172392007Y-127532001D02*
X171642007Y-127532001D01*
D79*
X169460000Y-126110000D02*
X169460000Y-126134000D01*
D80*
X174640000Y-91640000D02*
X174530000Y-91750000D01*
X174530000Y-91750000D02*
X173510000Y-91750000D01*
D79*
X166940000Y-94120000D02*
X170050000Y-91010000D01*
X171642007Y-127532001D02*
X170882001Y-127532001D01*
X170050000Y-88890000D02*
X170050000Y-90980000D01*
X166940000Y-100810000D02*
X166940000Y-94120000D01*
D80*
X175810000Y-88240000D02*
X174640000Y-89410000D01*
D79*
X169460000Y-126134000D02*
X169488000Y-126134000D01*
X170790000Y-91720000D02*
X173480000Y-91720000D01*
D80*
X174640000Y-89410000D02*
X174640000Y-91640000D01*
D79*
X170882001Y-127532001D02*
X169460000Y-126110000D01*
X170050000Y-91010000D02*
X170050000Y-90980000D01*
D81*
X137433458Y-124813693D02*
X135632226Y-126614925D01*
X135632226Y-126614925D02*
X126667732Y-126614925D01*
X140571500Y-124813693D02*
X137433458Y-124813693D01*
X138216968Y-123543693D02*
X135888200Y-125872461D01*
X135888200Y-125872461D02*
X125925268Y-125872461D01*
X140571500Y-123543693D02*
X138216968Y-123543693D01*
D82*
X123071500Y-138783693D02*
X122071500Y-138783693D01*
X121353500Y-138065693D02*
X115868500Y-138065693D01*
X122071500Y-138783693D02*
X121353500Y-138065693D01*
X184200000Y-99375000D02*
X184175000Y-99350000D01*
X144248148Y-141348148D02*
X146150000Y-143250000D01*
X140148148Y-141348148D02*
X144248148Y-141348148D01*
X131400000Y-138700000D02*
X137500000Y-138700000D01*
X191500000Y-125250000D02*
X191500000Y-123850000D01*
X137500000Y-138700000D02*
X140148148Y-141348148D01*
X146150000Y-143250000D02*
X173500000Y-143250000D01*
X173500000Y-143250000D02*
X191500000Y-125250000D01*
X130213693Y-137513693D02*
X131400000Y-138700000D01*
X123071500Y-137513693D02*
X130213693Y-137513693D01*
X184200000Y-101400000D02*
X184200000Y-99375000D01*
X182100000Y-97800000D02*
X184175000Y-97800000D01*
X137536500Y-121293693D02*
X139280193Y-119550000D01*
X137536500Y-122293693D02*
X137536500Y-121293693D01*
X139280193Y-119550000D02*
X139650000Y-119550000D01*
D80*
X114196500Y-115128193D02*
X113887193Y-115128193D01*
X91330000Y-113570000D02*
X91330000Y-107200000D01*
X111027000Y-114004000D02*
X110145000Y-113122000D01*
X116693904Y-116841096D02*
X123071500Y-123218693D01*
X89773693Y-113643693D02*
X90130000Y-114000000D01*
X110145000Y-113122000D02*
X110145000Y-113081000D01*
X76770000Y-84120000D02*
X78970126Y-86320126D01*
X90130000Y-114000000D02*
X90900000Y-114000000D01*
X113887193Y-115128193D02*
X113025000Y-114266000D01*
X89096500Y-113643693D02*
X86896500Y-113643693D01*
X78970126Y-86320126D02*
X80133000Y-86320126D01*
X86896500Y-113643693D02*
X86796500Y-113543693D01*
X91330000Y-107200000D02*
X87600000Y-103470000D01*
X77180000Y-103470000D02*
X68640000Y-94930000D01*
X75270000Y-84120000D02*
X71250000Y-84120000D01*
X114196500Y-115128193D02*
X114981000Y-115128193D01*
X71250000Y-84120000D02*
X68640000Y-86730000D01*
X75270000Y-84120000D02*
X76770000Y-84120000D01*
X112763000Y-114004000D02*
X111027000Y-114004000D01*
X123071500Y-123218693D02*
X123071500Y-123543693D01*
X114981000Y-115128193D02*
X116693904Y-116841096D01*
X113025000Y-114266000D02*
X112763000Y-114004000D01*
X68640000Y-94930000D02*
X68640000Y-86730000D01*
X116673000Y-116820192D02*
X116673000Y-115145000D01*
X89096500Y-113643693D02*
X89773693Y-113643693D01*
X90900000Y-114000000D02*
X91330000Y-113570000D01*
X116693904Y-116841096D02*
X116673000Y-116820192D01*
X87600000Y-103470000D02*
X77180000Y-103470000D01*
D82*
X85996500Y-108243693D02*
X85996500Y-106618693D01*
X85996500Y-106618693D02*
X85946500Y-106568693D01*
X87746500Y-111543693D02*
X87746500Y-110043693D01*
X87746500Y-110043693D02*
X87596500Y-109893693D01*
X186291000Y-108606000D02*
X186291000Y-108592000D01*
X126106500Y-119793500D02*
X126106500Y-122293693D01*
X190200000Y-120710000D02*
X190200000Y-112515000D01*
X190200000Y-112515000D02*
X186291000Y-108606000D01*
X186291000Y-108592000D02*
X137308000Y-108592000D01*
X137308000Y-108592000D02*
X126106500Y-119793500D01*
X175987000Y-135690000D02*
X180176000Y-131501000D01*
X180200000Y-128730000D02*
X180200000Y-120710000D01*
X172710000Y-135690000D02*
X175987000Y-135690000D01*
X180178000Y-129128000D02*
X180178000Y-128752000D01*
X148466307Y-136243693D02*
X149020000Y-135690000D01*
X140571500Y-136243693D02*
X148466307Y-136243693D01*
X149020000Y-135690000D02*
X172710000Y-135690000D01*
X180178000Y-128752000D02*
X180200000Y-128730000D01*
X140571500Y-134973693D02*
X175316307Y-134973693D01*
X182700000Y-123455916D02*
X182700000Y-120710000D01*
X175316307Y-134973693D02*
X182822000Y-127468000D01*
X182822000Y-127468000D02*
X182822000Y-123577916D01*
X182822000Y-123577916D02*
X182700000Y-123455916D01*
X169428968Y-114360000D02*
X179990516Y-114360000D01*
X179990516Y-114360000D02*
X183200000Y-117569484D01*
X150085275Y-133703693D02*
X169428968Y-114360000D01*
X140571500Y-133703693D02*
X150085275Y-133703693D01*
X183200000Y-117569484D02*
X183200000Y-120710000D01*
X180160344Y-113950000D02*
X169259140Y-113950000D01*
X183700000Y-120710000D02*
X183700000Y-117489656D01*
X169259140Y-113950000D02*
X150775447Y-132433693D01*
X183700000Y-117489656D02*
X180160344Y-113950000D01*
X150775447Y-132433693D02*
X140571500Y-132433693D01*
X184200000Y-117409828D02*
X180330172Y-113540000D01*
X184200000Y-120710000D02*
X184200000Y-117409828D01*
X169089312Y-113540000D02*
X151465619Y-131163693D01*
X151465619Y-131163693D02*
X140571500Y-131163693D01*
X180330172Y-113540000D02*
X169089312Y-113540000D01*
X180750000Y-113130000D02*
X168919484Y-113130000D01*
X168919484Y-113130000D02*
X152155791Y-129893693D01*
X184700000Y-117080000D02*
X180750000Y-113130000D01*
X184700000Y-120710000D02*
X184700000Y-117080000D01*
X152155791Y-129893693D02*
X140571500Y-129893693D01*
X185200000Y-120710000D02*
X185200000Y-116720000D01*
X152845963Y-128623693D02*
X140571500Y-128623693D01*
X181200000Y-112720000D02*
X168749656Y-112720000D01*
X168749656Y-112720000D02*
X152845963Y-128623693D01*
X185200000Y-116720000D02*
X181200000Y-112720000D01*
X181496586Y-112296414D02*
X181679086Y-112478914D01*
X153536135Y-127353693D02*
X168593414Y-112296414D01*
X168593414Y-112296414D02*
X181496586Y-112296414D01*
X181679086Y-112478914D02*
X185700000Y-116499828D01*
X140571500Y-127353693D02*
X153536135Y-127353693D01*
X185700000Y-116499828D02*
X185700000Y-120710000D01*
X168389500Y-111920500D02*
X168487500Y-111822500D01*
X181832500Y-111822500D02*
X182159000Y-112149000D01*
X186200000Y-116190000D02*
X186200000Y-120710000D01*
X140571500Y-126083693D02*
X154226307Y-126083693D01*
X182159000Y-112149000D02*
X186200000Y-116190000D01*
X181857500Y-111847500D02*
X182159000Y-112149000D01*
X154226307Y-126083693D02*
X168389500Y-111920500D01*
X168487500Y-111822500D02*
X181832500Y-111822500D01*
D79*
X176560000Y-95020000D02*
X177464850Y-95924850D01*
X170790000Y-95020000D02*
X174930000Y-95020000D01*
X177464850Y-98340000D02*
X177464850Y-95924850D01*
X174930000Y-95020000D02*
X176560000Y-95020000D01*
X174930000Y-95020000D02*
X175810000Y-94140000D01*
X175810000Y-94140000D02*
X175810000Y-92700000D01*
D82*
X75270000Y-81920000D02*
X75720000Y-81920000D01*
X75720000Y-81920000D02*
X79620000Y-85820000D01*
X79620000Y-85820000D02*
X80133000Y-85820000D01*
X182200000Y-123513116D02*
X182428000Y-123741116D01*
X129343693Y-132433693D02*
X129360000Y-132450000D01*
X123071500Y-132433693D02*
X129343693Y-132433693D01*
X182428000Y-123741116D02*
X182428000Y-125259000D01*
X182428000Y-125259000D02*
X182428000Y-125303000D01*
X182428000Y-125303000D02*
X181954000Y-125777000D01*
X182200000Y-120710000D02*
X182200000Y-123513116D01*
X128853046Y-133703693D02*
X129690366Y-134541013D01*
X181200000Y-123444000D02*
X181200000Y-123566116D01*
X181178000Y-123466000D02*
X181200000Y-123444000D01*
X181178000Y-127520000D02*
X181178000Y-123466000D01*
X181200000Y-120710000D02*
X181200000Y-123444000D01*
X123071500Y-133703693D02*
X128853046Y-133703693D01*
D80*
X69861500Y-137133693D02*
X72246500Y-139518693D01*
X69861500Y-136184693D02*
X69861500Y-137133693D01*
X73696500Y-138143693D02*
X74554500Y-139001693D01*
X72196500Y-138143693D02*
X73696500Y-138143693D01*
X74554500Y-139001693D02*
X74554500Y-139518693D01*
X71131500Y-137078693D02*
X72196500Y-138143693D01*
X71131500Y-136184693D02*
X71131500Y-137078693D01*
D79*
X71131500Y-129003693D02*
X70621500Y-128493693D01*
X71131500Y-130784693D02*
X71131500Y-129003693D01*
D81*
X102416499Y-133635693D02*
X104054500Y-133635693D01*
X101920499Y-132546693D02*
X101920499Y-133139693D01*
D80*
X104054500Y-133635693D02*
X104138500Y-133635693D01*
D81*
X101920499Y-133139693D02*
X102416499Y-133635693D01*
D80*
X104138500Y-133635693D02*
X107177700Y-136674893D01*
X107177700Y-136674893D02*
X107177700Y-138365293D01*
X109209700Y-138365293D02*
X107177700Y-138365293D01*
D82*
X94283882Y-129444693D02*
X94586500Y-129747311D01*
X93697500Y-129444693D02*
X94283882Y-129444693D01*
D80*
X87103500Y-129825693D02*
X85451500Y-129825693D01*
X87103500Y-129825693D02*
X87160157Y-129825693D01*
D81*
X97145500Y-129771693D02*
X94586500Y-129771693D01*
D80*
X87160157Y-129825693D02*
X87725776Y-130391312D01*
X87103500Y-132086693D02*
X87846500Y-131343693D01*
D81*
X97145500Y-130571694D02*
X94780198Y-130571694D01*
D80*
X85451500Y-132111693D02*
X87103500Y-132111693D01*
X87103500Y-132111693D02*
X87103500Y-132086693D01*
D81*
X94780198Y-130571694D02*
X94411205Y-130940687D01*
D80*
X77740000Y-86320000D02*
X78240252Y-86820252D01*
X119400000Y-124400000D02*
X119400000Y-125470193D01*
X75270000Y-86320000D02*
X77740000Y-86320000D01*
X122553500Y-128623693D02*
X123071500Y-128623693D01*
X78240252Y-86820252D02*
X80133000Y-86820252D01*
X119400000Y-125470193D02*
X122553500Y-128623693D01*
X173880000Y-88280000D02*
X173880000Y-89020000D01*
D82*
X128646500Y-120303500D02*
X128750000Y-120200000D01*
D80*
X167700000Y-87550000D02*
X152550000Y-102700000D01*
X173510000Y-89390000D02*
X173510000Y-90800000D01*
X173880000Y-89020000D02*
X173510000Y-89390000D01*
X173880000Y-88280000D02*
X173150000Y-87550000D01*
X173150000Y-87550000D02*
X167700000Y-87550000D01*
D82*
X128646500Y-122293693D02*
X128646500Y-120303500D01*
X78279622Y-87320378D02*
X80133000Y-87320378D01*
X77080000Y-88520000D02*
X78279622Y-87320378D01*
X75270000Y-88520000D02*
X77080000Y-88520000D01*
D79*
X175810000Y-90800000D02*
X178495000Y-90800000D01*
X173690000Y-129484008D02*
X173142007Y-130032001D01*
X173690000Y-126010000D02*
X173690000Y-129484008D01*
D80*
X172392007Y-130032001D02*
X173142007Y-130032001D01*
D79*
X179915000Y-90775000D02*
X178520000Y-90775000D01*
X180470000Y-100520000D02*
X180470000Y-91330000D01*
X178495000Y-90800000D02*
X178520000Y-90775000D01*
X180470000Y-91330000D02*
X179915000Y-90775000D01*
D82*
X185895000Y-99280000D02*
X185825000Y-99350000D01*
X193007500Y-99280000D02*
X185895000Y-99280000D01*
X185825000Y-97800000D02*
X192777500Y-97800000D01*
X192777500Y-97800000D02*
X193007500Y-98030000D01*
D80*
X119663923Y-89962000D02*
X118315051Y-91310872D01*
X127687000Y-105397000D02*
X127687000Y-100591000D01*
X127687000Y-96659000D02*
X120990000Y-89962000D01*
X129537500Y-102989000D02*
X127687000Y-101138500D01*
X127687000Y-101138500D02*
X127687000Y-100591000D01*
X127687000Y-100591000D02*
X127687000Y-96659000D01*
X120990000Y-89962000D02*
X119663923Y-89962000D01*
X114814872Y-94811051D02*
X112092741Y-94811051D01*
X112092741Y-94811051D02*
X109508396Y-97395396D01*
X109508396Y-97108380D02*
X108187008Y-95786992D01*
X109508396Y-97395396D02*
X109508396Y-97108380D01*
X111053000Y-98940000D02*
X112481974Y-98940000D01*
X112481974Y-98940000D02*
X115712898Y-95709076D01*
X111339016Y-98940000D02*
X112652008Y-100252992D01*
X111053000Y-98940000D02*
X111339016Y-98940000D01*
X114472000Y-99753468D02*
X114472000Y-98746026D01*
X114038234Y-100187234D02*
X114472000Y-99753468D01*
X114472000Y-98746026D02*
X116610924Y-96607102D01*
X108972000Y-102992000D02*
X111233468Y-102992000D01*
X113790363Y-101522637D02*
X113790363Y-100435105D01*
X113790363Y-100435105D02*
X114038234Y-100187234D01*
X111233468Y-102992000D02*
X114038234Y-100187234D01*
G04 #@! TA.AperFunction,Conductor*
G36*
X111537931Y-122539195D02*
G01*
X111558905Y-122556098D01*
X111809595Y-122806788D01*
X111843621Y-122869100D01*
X111846500Y-122895883D01*
X111846500Y-131343693D01*
X112044310Y-131343693D01*
X112074225Y-131352476D01*
X112104695Y-131359105D01*
X112109790Y-131362919D01*
X112112431Y-131363695D01*
X112133405Y-131380598D01*
X112309595Y-131556788D01*
X112343621Y-131619100D01*
X112346500Y-131645883D01*
X112346500Y-134959164D01*
X112346000Y-134966794D01*
X112346000Y-136292003D01*
X112325998Y-136360124D01*
X112309095Y-136381098D01*
X111883405Y-136806788D01*
X111821093Y-136840814D01*
X111794310Y-136843693D01*
X111154485Y-136843693D01*
X111086364Y-136823691D01*
X111065394Y-136806792D01*
X110366785Y-136108183D01*
X110366783Y-136108182D01*
X110366781Y-136108180D01*
X110241260Y-136035711D01*
X110241257Y-136035710D01*
X110241255Y-136035709D01*
X110101245Y-135998193D01*
X110101242Y-135998193D01*
X109473000Y-135998193D01*
X109404879Y-135978191D01*
X109358386Y-135924535D01*
X109347000Y-135872193D01*
X109347000Y-134045220D01*
X109347000Y-134045218D01*
X109309484Y-133905208D01*
X109237010Y-133779678D01*
X109237008Y-133779676D01*
X109237004Y-133779671D01*
X108933731Y-133476398D01*
X108929322Y-133468325D01*
X108921958Y-133462812D01*
X108912574Y-133437653D01*
X108899705Y-133414086D01*
X108900361Y-133404909D01*
X108897147Y-133396292D01*
X108902854Y-133370055D01*
X108904770Y-133343271D01*
X108910681Y-133334072D01*
X108912238Y-133326918D01*
X108933728Y-133298211D01*
X109010580Y-133221360D01*
X109010587Y-133221354D01*
X109096979Y-133134962D01*
X109096985Y-133134956D01*
X109153003Y-133037930D01*
X109182000Y-132929711D01*
X109182000Y-127980753D01*
X109153003Y-127872534D01*
X109128040Y-127829296D01*
X109096987Y-127775511D01*
X109096979Y-127775501D01*
X109017769Y-127696291D01*
X109017759Y-127696283D01*
X108948476Y-127656283D01*
X108922381Y-127636259D01*
X108839268Y-127553146D01*
X108805242Y-127490834D01*
X108802368Y-127462965D01*
X108832531Y-123964067D01*
X108853118Y-123896126D01*
X108869421Y-123876072D01*
X109121195Y-123624299D01*
X109168777Y-123553087D01*
X109195120Y-123513662D01*
X109197126Y-123508817D01*
X109225331Y-123440729D01*
X109246039Y-123390733D01*
X109246041Y-123390729D01*
X109272000Y-123260224D01*
X109272000Y-123127162D01*
X109272000Y-122645193D01*
X109292002Y-122577072D01*
X109345658Y-122530579D01*
X109398000Y-122519193D01*
X111469810Y-122519193D01*
X111537931Y-122539195D01*
G37*
G04 #@! TD.AperFunction*
G04 #@! TA.AperFunction,Conductor*
G36*
X102846500Y-137918693D02*
G01*
X104296075Y-137973052D01*
X104363398Y-137995592D01*
X104382098Y-138011549D01*
X104733749Y-138376635D01*
X104766601Y-138439573D01*
X104769000Y-138464044D01*
X104769000Y-139912348D01*
X104759926Y-139959298D01*
X104509788Y-140582248D01*
X104483873Y-140622436D01*
X102873664Y-142304209D01*
X102832133Y-142332949D01*
X102295254Y-142562199D01*
X102224751Y-142570555D01*
X102161742Y-142540207D01*
X101840967Y-142253100D01*
X101803548Y-142192765D01*
X101799770Y-142173128D01*
X101651716Y-140840635D01*
X101651715Y-140840632D01*
X101596500Y-140343693D01*
X101045834Y-138508142D01*
X101045419Y-138437148D01*
X101077423Y-138382847D01*
X101549870Y-137910400D01*
X101612178Y-137876377D01*
X101643679Y-137873587D01*
X102846500Y-137918693D01*
G37*
G04 #@! TD.AperFunction*
G04 #@! TA.AperFunction,Conductor*
G36*
X93248183Y-139613695D02*
G01*
X93257176Y-139620242D01*
X93277921Y-139634103D01*
X93369529Y-139695313D01*
X93492462Y-139746233D01*
X93622967Y-139772193D01*
X97972810Y-139772193D01*
X98040931Y-139792195D01*
X98061905Y-139809098D01*
X98309595Y-140056788D01*
X98343621Y-140119100D01*
X98346500Y-140145883D01*
X98346500Y-140843693D01*
X100544310Y-140843693D01*
X100612431Y-140863695D01*
X100633405Y-140880598D01*
X101059595Y-141306788D01*
X101093621Y-141369100D01*
X101096500Y-141395883D01*
X101096500Y-142291503D01*
X101076498Y-142359624D01*
X101059595Y-142380598D01*
X100633405Y-142806788D01*
X100571093Y-142840814D01*
X100544310Y-142843693D01*
X100067309Y-142843693D01*
X100021086Y-142834908D01*
X99992641Y-142823691D01*
X99965063Y-142812815D01*
X99876605Y-142802193D01*
X99876602Y-142802193D01*
X98840398Y-142802193D01*
X98840394Y-142802193D01*
X98751936Y-142812815D01*
X98712901Y-142828209D01*
X98695913Y-142834908D01*
X98649691Y-142843693D01*
X92341429Y-142843693D01*
X92273308Y-142823691D01*
X92252334Y-142806788D01*
X92106588Y-142661042D01*
X92106585Y-142661040D01*
X92106583Y-142661038D01*
X91909139Y-142517587D01*
X91691685Y-142406789D01*
X91691682Y-142406788D01*
X91691680Y-142406787D01*
X91691681Y-142406787D01*
X91683561Y-142404149D01*
X91624957Y-142364075D01*
X91597321Y-142298677D01*
X91596500Y-142284317D01*
X91596500Y-140145883D01*
X91616502Y-140077762D01*
X91633405Y-140056788D01*
X92059595Y-139630598D01*
X92121907Y-139596572D01*
X92148690Y-139593693D01*
X93180062Y-139593693D01*
X93248183Y-139613695D01*
G37*
G04 #@! TD.AperFunction*
G04 #@! TA.AperFunction,Conductor*
G36*
X89802142Y-114346803D02*
G01*
X89812664Y-114345652D01*
X89846714Y-114356911D01*
X89852879Y-114359982D01*
X89853386Y-114360489D01*
X89956113Y-114419799D01*
X89980326Y-114426286D01*
X90070691Y-114450500D01*
X90959309Y-114450500D01*
X91049673Y-114426286D01*
X91073887Y-114419799D01*
X91176614Y-114360489D01*
X91177121Y-114359981D01*
X91183286Y-114356911D01*
X91203789Y-114353252D01*
X91239467Y-114343693D01*
X93944310Y-114343693D01*
X94012431Y-114363695D01*
X94033405Y-114380598D01*
X94459595Y-114806788D01*
X94493621Y-114869100D01*
X94496500Y-114895883D01*
X94496500Y-116343693D01*
X96544310Y-116343693D01*
X96612431Y-116363695D01*
X96633405Y-116380598D01*
X97035768Y-116782961D01*
X97069794Y-116845273D01*
X97064729Y-116916088D01*
X97062169Y-116922420D01*
X96740607Y-117659830D01*
X96710848Y-117701798D01*
X94680375Y-119587237D01*
X94640693Y-119612186D01*
X93818703Y-119934974D01*
X93772648Y-119943693D01*
X89048690Y-119943693D01*
X88980569Y-119923691D01*
X88959595Y-119906788D01*
X88533405Y-119480598D01*
X88499379Y-119418286D01*
X88496500Y-119391503D01*
X88496500Y-114895883D01*
X88516502Y-114827762D01*
X88533405Y-114806788D01*
X88959095Y-114381098D01*
X89021407Y-114347072D01*
X89048190Y-114344193D01*
X89166573Y-114344193D01*
X89176760Y-114343693D01*
X89790533Y-114343693D01*
X89802142Y-114346803D01*
G37*
G04 #@! TD.AperFunction*
M02*
