G04 #@! TF.GenerationSoftware,KiCad,Pcbnew,9.0.0-9.0.0-0~ubuntu22.04.1*
G04 #@! TF.CreationDate,2025-08-18T20:28:43+02:00*
G04 #@! TF.ProjectId,v7-raw-34,76372d72-6177-42d3-9334-2e6b69636164,1.3*
G04 #@! TF.SameCoordinates,Original*
G04 #@! TF.FileFunction,Copper,L4,Bot*
G04 #@! TF.FilePolarity,Positive*
%FSLAX46Y46*%
G04 Gerber Fmt 4.6, Leading zero omitted, Abs format (unit mm)*
G04 Created by KiCad (PCBNEW 9.0.0-9.0.0-0~ubuntu22.04.1) date 2025-08-18 20:28:43*
%MOMM*%
%LPD*%
G01*
G04 APERTURE LIST*
G04 #@! TA.AperFunction,ComponentPad*
%ADD10C,0.508000*%
G04 #@! TD*
G04 #@! TA.AperFunction,ComponentPad*
%ADD11R,1.700000X1.700000*%
G04 #@! TD*
G04 #@! TA.AperFunction,ComponentPad*
%ADD12O,1.700000X1.700000*%
G04 #@! TD*
G04 #@! TA.AperFunction,ComponentPad*
%ADD13O,2.100000X1.000000*%
G04 #@! TD*
G04 #@! TA.AperFunction,ComponentPad*
%ADD14O,1.600000X1.000000*%
G04 #@! TD*
G04 #@! TA.AperFunction,ViaPad*
%ADD15C,0.800000*%
G04 #@! TD*
G04 #@! TA.AperFunction,ViaPad*
%ADD16C,0.450000*%
G04 #@! TD*
G04 #@! TA.AperFunction,ViaPad*
%ADD17C,0.500000*%
G04 #@! TD*
G04 #@! TA.AperFunction,Conductor*
%ADD18C,0.500000*%
G04 #@! TD*
G04 #@! TA.AperFunction,Conductor*
%ADD19C,0.300000*%
G04 #@! TD*
G04 #@! TA.AperFunction,Conductor*
%ADD20C,0.250000*%
G04 #@! TD*
G04 #@! TA.AperFunction,Conductor*
%ADD21C,0.750000*%
G04 #@! TD*
G04 #@! TA.AperFunction,Conductor*
%ADD22C,0.200000*%
G04 #@! TD*
G04 APERTURE END LIST*
D10*
X101695300Y-131146493D03*
X101695300Y-130359093D03*
X101695300Y-129571693D03*
X101695300Y-128784293D03*
X101695300Y-127996893D03*
X100907900Y-131146493D03*
X100907900Y-130359093D03*
X100907900Y-129571693D03*
X100907900Y-128784293D03*
X100907900Y-127996893D03*
X100120500Y-131146493D03*
X100120500Y-130359093D03*
X100120500Y-129571693D03*
X100120500Y-128784293D03*
X100120500Y-127996893D03*
X99333100Y-131146493D03*
X99333100Y-130359093D03*
X99333100Y-129571693D03*
X99333100Y-128784293D03*
X99333100Y-127996893D03*
X98545700Y-131146493D03*
X98545700Y-130359093D03*
X98545700Y-129571693D03*
X98545700Y-128784293D03*
X98545700Y-127996893D03*
D11*
X62196500Y-103718693D03*
D12*
X62196500Y-101178693D03*
D13*
X67366500Y-109323693D03*
D14*
X63186500Y-109323693D03*
D13*
X67366500Y-117963693D03*
D14*
X63186500Y-117963693D03*
D15*
X109233000Y-100543000D03*
X170540000Y-99540000D03*
X148061529Y-139795403D03*
X103755499Y-139843693D03*
X111096500Y-132093693D03*
X69696500Y-110143693D03*
X96296500Y-116743693D03*
X72696500Y-121543693D03*
X111096500Y-127593693D03*
X106089500Y-129365693D03*
X102846500Y-118800000D03*
X100596500Y-143593693D03*
D16*
X179690000Y-119490000D03*
D15*
X72596500Y-114443693D03*
X196210000Y-127800000D03*
X103168500Y-125507693D03*
X63596500Y-122143693D03*
X109596500Y-129593693D03*
X93896500Y-115343693D03*
X106470500Y-127745693D03*
X103596500Y-118800000D03*
X102250000Y-106950000D03*
D17*
X192420000Y-121900000D03*
D15*
X172563000Y-123500000D03*
X75296500Y-119143693D03*
X113896500Y-126443693D03*
X111398781Y-123366052D03*
X89496500Y-115343693D03*
X65696500Y-142843693D03*
X68746500Y-138343693D03*
X135496500Y-130143693D03*
X80496500Y-127843693D03*
X102346500Y-141843693D03*
X89493186Y-128947792D03*
X92896500Y-114743693D03*
X116164000Y-98848000D03*
X90346500Y-138343693D03*
X91896500Y-115343693D03*
X79696500Y-123243693D03*
X71805082Y-112651705D03*
X112096500Y-133093693D03*
X103548243Y-132874950D03*
X90534500Y-130155693D03*
X173010000Y-88900000D03*
D17*
X189190000Y-121850000D03*
D15*
X188930000Y-115309000D03*
X115318437Y-130287223D03*
X103040500Y-138649693D03*
X142696500Y-139943693D03*
X115231000Y-129104681D03*
X135796500Y-133743693D03*
X191450000Y-95250000D03*
X177910000Y-122030000D03*
X88896500Y-118943693D03*
D16*
X180710000Y-119510000D03*
D15*
X108096500Y-140383693D03*
X121096500Y-139943693D03*
X93593277Y-130438096D03*
X89496500Y-117743693D03*
X101846500Y-139843693D03*
X111096500Y-129843693D03*
X87346500Y-117343693D03*
X90346500Y-139343693D03*
X179580000Y-92410000D03*
X66746500Y-144593693D03*
X99463781Y-134928356D03*
X84346500Y-132843693D03*
X148296500Y-145143693D03*
X196430000Y-119023000D03*
X175830000Y-115135000D03*
X80596500Y-134093693D03*
X77496500Y-105043693D03*
X133930000Y-102990000D03*
X95696500Y-117943693D03*
X102846500Y-140843693D03*
X99096500Y-121093693D03*
X102700500Y-120850000D03*
X107596500Y-120843693D03*
X90696500Y-114743693D03*
X188930000Y-113209000D03*
X130796500Y-133743693D03*
X72696500Y-106443693D03*
X70746500Y-145343693D03*
X69396500Y-117243693D03*
X65650000Y-70300000D03*
X172780000Y-120160000D03*
X76810000Y-85210000D03*
X196530000Y-116623000D03*
X97112034Y-120109227D03*
X115896500Y-123443693D03*
X98950500Y-120239693D03*
X79496500Y-125043693D03*
X88896500Y-116543693D03*
X69696500Y-129243693D03*
X97846500Y-143593693D03*
X107942000Y-99098000D03*
X86096500Y-117343693D03*
X109596500Y-131843693D03*
X111096500Y-125343693D03*
X131196500Y-130243693D03*
X73196500Y-130743693D03*
X109480000Y-127343693D03*
X84346500Y-130593693D03*
X106630836Y-119050000D03*
X111096500Y-133843693D03*
X165250000Y-131930000D03*
X95548500Y-131984693D03*
X88596500Y-133007691D03*
X188300000Y-135060000D03*
X112410000Y-143290000D03*
X158542922Y-130322922D03*
X88096500Y-129183695D03*
X95373246Y-128680722D03*
X114296500Y-141340000D03*
X154069310Y-133635000D03*
X111862622Y-138518814D03*
X194120000Y-119280000D03*
X89096500Y-142593693D03*
X100220490Y-124364693D03*
X110121992Y-141941992D03*
X128381228Y-134575066D03*
X90425135Y-113163763D03*
D17*
X181803000Y-124000000D03*
D15*
X158050000Y-121000000D03*
X108180000Y-137080000D03*
X107380000Y-122130000D03*
X185540000Y-129100000D03*
X187400000Y-117250000D03*
X158900000Y-120250000D03*
X74896500Y-107343693D03*
X111796221Y-116149693D03*
X75696500Y-108643693D03*
X110896500Y-116525000D03*
X110545395Y-139593693D03*
X155947922Y-132917922D03*
X101450000Y-109850000D03*
X102100000Y-109200000D03*
X69450000Y-124150000D03*
X68600000Y-124150000D03*
X70796500Y-111143693D03*
X75562837Y-112210030D03*
X70796500Y-116143693D03*
X70730440Y-144008136D03*
X113836500Y-144643693D03*
X103612021Y-121564826D03*
X106089500Y-130841693D03*
X95422757Y-126903436D03*
X103636500Y-122794693D03*
X104938484Y-114437370D03*
X100924161Y-123571352D03*
X101891748Y-123536440D03*
X104096500Y-115343693D03*
X124750000Y-123600000D03*
X98024294Y-122216930D03*
X131200000Y-119800000D03*
X106196500Y-132743693D03*
X107064129Y-129685937D03*
X104896221Y-116783698D03*
X130100000Y-120350000D03*
X103996500Y-117325000D03*
X106293592Y-125329363D03*
X128450000Y-124000000D03*
X133227039Y-123527038D03*
X99972856Y-123437697D03*
X108596500Y-121843693D03*
X106484444Y-126269693D03*
X100596500Y-141593693D03*
X95846500Y-122343693D03*
X92096500Y-140343693D03*
X107188759Y-123290140D03*
X94596500Y-142593693D03*
X93346500Y-142343693D03*
X95596500Y-123093693D03*
X108996500Y-116543693D03*
X93346500Y-140343693D03*
X97346500Y-142593693D03*
X93346500Y-141343693D03*
X171950000Y-99840000D03*
X98096500Y-141843693D03*
X87096500Y-121343693D03*
X96846500Y-122343693D03*
X88096500Y-120843693D03*
X92096500Y-141343693D03*
X98096500Y-140593693D03*
X95846500Y-142593693D03*
X113996500Y-127543693D03*
X131850000Y-115550000D03*
X103041500Y-134676693D03*
X112332870Y-137580000D03*
X79650000Y-71750000D03*
X110796500Y-111943693D03*
X110802000Y-110143693D03*
X150574097Y-139790000D03*
X134500000Y-117700000D03*
X81735000Y-84430000D03*
X119218000Y-115137000D03*
X115331000Y-127540524D03*
X125550000Y-107650000D03*
X113250000Y-103308000D03*
X146996500Y-142243693D03*
X150596500Y-138943693D03*
X166940000Y-100810000D03*
X169460000Y-126110000D03*
X126667732Y-126614925D03*
X125925268Y-125872461D03*
X191500000Y-123850000D03*
X184200000Y-101400000D03*
X139650000Y-119550000D03*
X182100000Y-97800000D03*
X89096500Y-113643693D03*
X110145000Y-113081000D03*
X180178000Y-129128000D03*
X180176000Y-131501000D03*
X181954000Y-125777000D03*
D17*
X129360000Y-132450000D03*
D15*
X181178000Y-127520000D03*
X129690366Y-134541013D03*
X93697500Y-129444693D03*
X87725776Y-130391312D03*
X87846500Y-131343693D03*
X94411205Y-130940687D03*
X119400000Y-124400000D03*
X77740000Y-86320000D03*
X152550000Y-102700000D03*
X128750000Y-120200000D03*
X173690000Y-126010000D03*
X180470000Y-100520000D03*
D18*
X98950500Y-120947693D02*
X99096500Y-121093693D01*
X98950500Y-120239693D02*
X98950500Y-120947693D01*
D19*
X94525502Y-133007691D02*
X95548500Y-131984693D01*
D18*
X147390000Y-141460000D02*
X146890000Y-140960000D01*
X147390000Y-141460000D02*
X181900000Y-141460000D01*
X181900000Y-141460000D02*
X188300000Y-135060000D01*
D19*
X88596500Y-133007691D02*
X94525502Y-133007691D01*
D18*
X117650000Y-140960000D02*
X115320000Y-143290000D01*
X115320000Y-143290000D02*
X112410000Y-143290000D01*
X146890000Y-140960000D02*
X117650000Y-140960000D01*
X118682927Y-138043693D02*
X117592807Y-138043693D01*
X119276620Y-137450000D02*
X118682927Y-138043693D01*
D19*
X89186502Y-128093693D02*
X94786217Y-128093693D01*
D18*
X158542922Y-130322922D02*
X158542922Y-132067078D01*
X117592807Y-138043693D02*
X114296500Y-141340000D01*
D19*
X94786217Y-128093693D02*
X95373246Y-128680722D01*
D18*
X153160000Y-137450000D02*
X119276620Y-137450000D01*
X158542922Y-132067078D02*
X153160000Y-137450000D01*
D19*
X88096500Y-129183695D02*
X89186502Y-128093693D01*
D18*
X115055663Y-136130000D02*
X151574310Y-136130000D01*
X111862622Y-138518814D02*
X111901436Y-138480000D01*
X111901436Y-138480000D02*
X112705663Y-138480000D01*
X151574310Y-136130000D02*
X154069310Y-133635000D01*
X112705663Y-138480000D02*
X115055663Y-136130000D01*
X194120000Y-126110000D02*
X194120000Y-119280000D01*
D19*
X86846500Y-128593693D02*
X86846500Y-140343693D01*
D18*
X119526307Y-138133693D02*
X182096307Y-138133693D01*
D19*
X99565490Y-124312683D02*
X99096500Y-123843693D01*
X100220490Y-124364693D02*
X100168480Y-124312683D01*
D18*
X110336992Y-142156992D02*
X115503008Y-142156992D01*
D19*
X91596500Y-123843693D02*
X99096500Y-123843693D01*
D18*
X110121992Y-141941992D02*
X110336992Y-142156992D01*
X182096307Y-138133693D02*
X194120000Y-126110000D01*
X115503008Y-142156992D02*
X119526307Y-138133693D01*
D19*
X91596500Y-123843693D02*
X86846500Y-128593693D01*
X100168480Y-124312683D02*
X99565490Y-124312683D01*
X86846500Y-140343693D02*
X89096500Y-142593693D01*
X120382511Y-134575066D02*
X116031000Y-130223555D01*
X105738484Y-114231040D02*
X104671207Y-113163763D01*
X116031000Y-126973555D02*
X105738484Y-116681039D01*
X128381228Y-134575066D02*
X120382511Y-134575066D01*
X104671207Y-113163763D02*
X90425135Y-113163763D01*
X116031000Y-130223555D02*
X116031000Y-126973555D01*
X105738484Y-116681039D02*
X105738484Y-114231040D01*
D20*
X158050000Y-121000000D02*
X161292800Y-121000000D01*
X161292800Y-121000000D02*
X167636800Y-127344000D01*
X167636800Y-127344000D02*
X178459000Y-127344000D01*
X178459000Y-127344000D02*
X181803000Y-124000000D01*
D18*
X181330000Y-133310000D02*
X185540000Y-129100000D01*
X160330000Y-129100000D02*
X164540000Y-133310000D01*
X151094934Y-135385066D02*
X157380000Y-129100000D01*
X108580000Y-136680000D02*
X109874934Y-135385066D01*
X108580000Y-123330000D02*
X108580000Y-136680000D01*
X109874934Y-135385066D02*
X151094934Y-135385066D01*
X107380000Y-122130000D02*
X108580000Y-123330000D01*
X108580000Y-136680000D02*
X108180000Y-137080000D01*
X157380000Y-129100000D02*
X160330000Y-129100000D01*
X164540000Y-133310000D02*
X181330000Y-133310000D01*
D20*
X161200000Y-120250000D02*
X167900000Y-126950000D01*
X177700000Y-126950000D02*
X187400000Y-117250000D01*
X167900000Y-126950000D02*
X177700000Y-126950000D01*
X158900000Y-120250000D02*
X161200000Y-120250000D01*
X74896500Y-105143693D02*
X76896500Y-103143693D01*
X111896500Y-105543693D02*
X111896500Y-116049414D01*
X74896500Y-107343693D02*
X74896500Y-105143693D01*
X111896500Y-116049414D02*
X111796221Y-116149693D01*
X76896500Y-103143693D02*
X109496500Y-103143693D01*
X109496500Y-103143693D02*
X111896500Y-105543693D01*
X111486500Y-114653693D02*
X110896500Y-115243693D01*
X109006500Y-103553693D02*
X111486500Y-106033693D01*
X111486500Y-106033693D02*
X111486500Y-114653693D01*
X77386500Y-103553693D02*
X109006500Y-103553693D01*
X75696500Y-105243693D02*
X77386500Y-103553693D01*
X75696500Y-108643693D02*
X75696500Y-105243693D01*
X110896500Y-115243693D02*
X110896500Y-116525000D01*
D18*
X110545395Y-139593693D02*
X112525350Y-139593693D01*
X152067760Y-136790000D02*
X155939839Y-132917922D01*
X112525350Y-139593693D02*
X115329043Y-136790000D01*
X155939839Y-132917922D02*
X155947922Y-132917922D01*
X115329043Y-136790000D02*
X152067760Y-136790000D01*
D21*
X100850000Y-110450000D02*
X101450000Y-109850000D01*
X68600000Y-124150000D02*
X76300000Y-124150000D01*
X90000000Y-110450000D02*
X99150000Y-110450000D01*
X101450000Y-109850000D02*
X102100000Y-109200000D01*
X99150000Y-110450000D02*
X100850000Y-110450000D01*
X76300000Y-124150000D02*
X90000000Y-110450000D01*
D18*
X74496500Y-111143693D02*
X75562837Y-112210030D01*
X70796500Y-111143693D02*
X74496500Y-111143693D01*
X70796500Y-111143693D02*
X70796500Y-116143693D01*
D19*
X113826500Y-144633693D02*
X71355997Y-144633693D01*
X113836500Y-144643693D02*
X113826500Y-144633693D01*
X71355997Y-144633693D02*
X70730440Y-144008136D01*
D18*
X105200500Y-124999693D02*
X105200500Y-129952693D01*
X95422757Y-125379436D02*
X95929500Y-124872693D01*
X99529688Y-124872693D02*
X99831689Y-125174694D01*
D21*
X103636500Y-122794693D02*
X103612021Y-122770214D01*
D18*
X103695500Y-122853693D02*
X103636500Y-122794693D01*
X95929500Y-124872693D02*
X99529688Y-124872693D01*
X95422757Y-126903436D02*
X95422757Y-125379436D01*
X103636500Y-122936495D02*
X103636500Y-122794693D01*
X103695500Y-123494693D02*
X103695500Y-122853693D01*
X105200500Y-129952693D02*
X106089500Y-130841693D01*
X103695500Y-123494693D02*
X105200500Y-124999693D01*
X101398301Y-125174694D02*
X103636500Y-122936495D01*
X99831689Y-125174694D02*
X101398301Y-125174694D01*
D21*
X103612021Y-122770214D02*
X103612021Y-121564826D01*
D22*
X100924161Y-123571352D02*
X100924161Y-123188193D01*
X100924161Y-123188193D02*
X101296500Y-122815854D01*
X101296500Y-117143693D02*
X104002823Y-114437370D01*
X104002823Y-114437370D02*
X104938484Y-114437370D01*
X101296500Y-122815854D02*
X101296500Y-117143693D01*
X101740497Y-123385189D02*
X101740497Y-117699696D01*
X101891748Y-123536440D02*
X101740497Y-123385189D01*
X101740497Y-117699696D02*
X104096500Y-115343693D01*
X105096500Y-123143693D02*
X105096500Y-116983977D01*
X107064129Y-129685937D02*
X107144444Y-129605622D01*
X105096500Y-116983977D02*
X104896221Y-116783698D01*
X107144444Y-125191637D02*
X105096500Y-123143693D01*
X107144444Y-129605622D02*
X107144444Y-125191637D01*
X104596500Y-117925000D02*
X103996500Y-117325000D01*
X106293592Y-125329363D02*
X104596500Y-123632271D01*
X104596500Y-123632271D02*
X104596500Y-117925000D01*
D18*
X111423381Y-137340000D02*
X112092870Y-137340000D01*
X103041500Y-134676693D02*
X106374807Y-138010000D01*
X110753381Y-138010000D02*
X111423381Y-137340000D01*
X106374807Y-138010000D02*
X110753381Y-138010000D01*
X112092870Y-137340000D02*
X112332870Y-137580000D01*
X169460000Y-126110000D02*
X166940000Y-123590000D01*
X166940000Y-123590000D02*
X166940000Y-100810000D01*
D22*
X117069000Y-129834393D02*
X117069000Y-123625309D01*
X63241499Y-102673694D02*
X62196500Y-103718693D01*
X126243467Y-126614925D02*
X121989699Y-130868693D01*
X117069000Y-123625309D02*
X112546221Y-119102530D01*
X109780004Y-102673694D02*
X63241499Y-102673694D01*
X121989699Y-130868693D02*
X118103300Y-130868693D01*
X118103300Y-130868693D02*
X117069000Y-129834393D01*
X126667732Y-126614925D02*
X126243467Y-126614925D01*
X112546221Y-105439911D02*
X109780004Y-102673694D01*
X112546221Y-119102530D02*
X112546221Y-105439911D01*
X109816492Y-102223692D02*
X63241499Y-102223692D01*
X125925268Y-125872461D02*
X125925268Y-126296726D01*
X125925268Y-126296726D02*
X121803301Y-130418693D01*
X117421500Y-123468693D02*
X112896500Y-118943693D01*
X63241499Y-102223692D02*
X62196500Y-101178693D01*
X112896500Y-118943693D02*
X112896500Y-105303700D01*
X112896500Y-105303700D02*
X109816492Y-102223692D01*
X118289700Y-130418693D02*
X117421500Y-129550493D01*
X121803301Y-130418693D02*
X118289700Y-130418693D01*
X117421500Y-129550493D02*
X117421500Y-123468693D01*
D20*
X191500000Y-108700000D02*
X184200000Y-101400000D01*
X191500000Y-123850000D02*
X191500000Y-108700000D01*
X164350000Y-97800000D02*
X182100000Y-97800000D01*
X139650000Y-119550000D02*
X142600000Y-119550000D01*
X142600000Y-119550000D02*
X164350000Y-97800000D01*
D19*
X89096500Y-113643693D02*
X89096500Y-113443693D01*
X91576000Y-112654000D02*
X91137596Y-112215596D01*
X110145000Y-113081000D02*
X109718000Y-112654000D01*
X89096500Y-113443693D02*
X90324596Y-112215596D01*
X109718000Y-112654000D02*
X91576000Y-112654000D01*
X91137596Y-112215596D02*
X90324596Y-112215596D01*
D20*
X180176000Y-131501000D02*
X180176000Y-129130000D01*
X180176000Y-129130000D02*
X180178000Y-129128000D01*
X181954000Y-125777000D02*
X181954000Y-125796000D01*
X152693568Y-132450000D02*
X129360000Y-132450000D01*
X181954000Y-125796000D02*
X180012000Y-127738000D01*
X157405568Y-127738000D02*
X152693568Y-132450000D01*
X180012000Y-127738000D02*
X157405568Y-127738000D01*
X129690366Y-134541013D02*
X151182383Y-134541013D01*
X180497186Y-128136698D02*
X180561302Y-128136698D01*
X157586698Y-128136698D02*
X180497186Y-128136698D01*
X151182383Y-134541013D02*
X157586698Y-128136698D01*
X180561302Y-128136698D02*
X181178000Y-127520000D01*
D19*
X87725776Y-130391312D02*
X89100468Y-130391312D01*
X93291400Y-129288593D02*
X93447500Y-129444693D01*
X93447500Y-129444693D02*
X93697500Y-129444693D01*
X90203187Y-129288593D02*
X93291400Y-129288593D01*
X89100468Y-130391312D02*
X90203187Y-129288593D01*
X94008199Y-131343693D02*
X94411205Y-130940687D01*
X87846500Y-131343693D02*
X94008199Y-131343693D01*
X115150000Y-120150000D02*
X119400000Y-124400000D01*
X109700000Y-101550000D02*
X115150000Y-107000000D01*
X115150000Y-107000000D02*
X115150000Y-120150000D01*
X91250000Y-101550000D02*
X109700000Y-101550000D01*
X78950000Y-87530000D02*
X77740000Y-86320000D01*
X78950000Y-89250000D02*
X78950000Y-87530000D01*
X91250000Y-101550000D02*
X78950000Y-89250000D01*
X152550000Y-102700000D02*
X152550000Y-108150000D01*
X144150000Y-116550000D02*
X132400000Y-116550000D01*
X144150000Y-116550000D02*
X152550000Y-108150000D01*
X132400000Y-116550000D02*
X128750000Y-120200000D01*
D18*
X180470000Y-100520000D02*
X173690000Y-107300000D01*
X173690000Y-107300000D02*
X173690000Y-126010000D01*
G04 #@! TA.AperFunction,Conductor*
G36*
X102418992Y-125527695D02*
G01*
X102465485Y-125581351D01*
X102474449Y-125609109D01*
X102494920Y-125712021D01*
X102547725Y-125839504D01*
X102598947Y-125916164D01*
X102624385Y-125954234D01*
X102624390Y-125954240D01*
X102721952Y-126051802D01*
X102721958Y-126051807D01*
X102836689Y-126128468D01*
X102964172Y-126181273D01*
X103099507Y-126208193D01*
X103099508Y-126208193D01*
X103237492Y-126208193D01*
X103237493Y-126208193D01*
X103372828Y-126181273D01*
X103500311Y-126128468D01*
X103615042Y-126051807D01*
X103705734Y-125961114D01*
X103713806Y-125956707D01*
X103719319Y-125949343D01*
X103744477Y-125939959D01*
X103768044Y-125927091D01*
X103777219Y-125927747D01*
X103785839Y-125924532D01*
X103812078Y-125930239D01*
X103838860Y-125932155D01*
X103848058Y-125938066D01*
X103855213Y-125939623D01*
X103883923Y-125961116D01*
X103893595Y-125970788D01*
X103927621Y-126033100D01*
X103930500Y-126059883D01*
X103930500Y-132086498D01*
X103910498Y-132154619D01*
X103856842Y-132201112D01*
X103786568Y-132211216D01*
X103756282Y-132202907D01*
X103752574Y-132201371D01*
X103752571Y-132201370D01*
X103617238Y-132174450D01*
X103617236Y-132174450D01*
X103479250Y-132174450D01*
X103479247Y-132174450D01*
X103343914Y-132201370D01*
X103343911Y-132201371D01*
X103216432Y-132254175D01*
X103101701Y-132330835D01*
X103101695Y-132330840D01*
X103004133Y-132428402D01*
X103004128Y-132428408D01*
X102927468Y-132543139D01*
X102874664Y-132670618D01*
X102874663Y-132670621D01*
X102847743Y-132805954D01*
X102847743Y-132805957D01*
X102847743Y-132943943D01*
X102874663Y-133079278D01*
X102927468Y-133206761D01*
X102978690Y-133283421D01*
X103004128Y-133321491D01*
X103004133Y-133321497D01*
X103101695Y-133419059D01*
X103101701Y-133419064D01*
X103216432Y-133495725D01*
X103275723Y-133520284D01*
X103331004Y-133564832D01*
X103353425Y-133632196D01*
X103335867Y-133700987D01*
X103283905Y-133749365D01*
X103227505Y-133762693D01*
X96608690Y-133762693D01*
X96540569Y-133742691D01*
X96519595Y-133725788D01*
X96093405Y-133299598D01*
X96059379Y-133237286D01*
X96056500Y-133210503D01*
X96056500Y-132519539D01*
X96076502Y-132451418D01*
X96088822Y-132436131D01*
X96088687Y-132436020D01*
X96092609Y-132431239D01*
X96092614Y-132431235D01*
X96169275Y-132316504D01*
X96222080Y-132189021D01*
X96249000Y-132053686D01*
X96249000Y-131915700D01*
X96222080Y-131780365D01*
X96169275Y-131652882D01*
X96092614Y-131538151D01*
X96088687Y-131533366D01*
X96089842Y-131532417D01*
X96059379Y-131476629D01*
X96056500Y-131449846D01*
X96056500Y-128848826D01*
X96058921Y-128824244D01*
X96073745Y-128749718D01*
X96073746Y-128749715D01*
X96073746Y-128611730D01*
X96073745Y-128611723D01*
X96058921Y-128537197D01*
X96056500Y-128512616D01*
X96056500Y-126059883D01*
X96076502Y-125991762D01*
X96093405Y-125970788D01*
X96519595Y-125544598D01*
X96581907Y-125510572D01*
X96608690Y-125507693D01*
X102350871Y-125507693D01*
X102418992Y-125527695D01*
G37*
G04 #@! TD.AperFunction*
M02*
