M48
; DRILL file KiCad 10.0.1 date 2026-08-22T13:38:57
; FORMAT={-:-/ absolute / metric / decimal}
; #@! TF.CreationDate,2026-08-22T13:38:57+02:00
; #@! TF.GenerationSoftware,Kicad,Pcbnew,10.0.1
; #@! TF.FileFunction,Plated,1,4,PTH
FMAT,2
METRIC
; #@! TA.AperFunction,Plated,PTH,ComponentDrill
T1C0.254
; #@! TA.AperFunction,Plated,PTH,ViaDrill
T2C0.300
; #@! TA.AperFunction,Plated,PTH,ViaDrill
T3C0.400
; #@! TA.AperFunction,Plated,PTH,ComponentDrill
T4C0.600
; #@! TA.AperFunction,Plated,PTH,ComponentDrill
T5C1.000
%
G90
G05
T1
X98.546Y-127.997
X98.546Y-128.784
X98.546Y-129.572
X98.546Y-130.359
X98.546Y-131.146
X99.333Y-127.997
X99.333Y-128.784
X99.333Y-129.572
X99.333Y-130.359
X99.333Y-131.146
X100.12Y-127.997
X100.12Y-128.784
X100.12Y-129.572
X100.12Y-130.359
X100.12Y-131.146
X100.908Y-127.997
X100.908Y-128.784
X100.908Y-129.572
X100.908Y-130.359
X100.908Y-131.146
X101.695Y-127.997
X101.695Y-128.784
X101.695Y-129.572
X101.695Y-130.359
X101.695Y-131.146
T2
X129.36Y-132.45
X179.69Y-119.49
X180.71Y-119.51
X181.803Y-124.0
X189.19Y-121.85
X192.42Y-121.9
T3
X63.45Y-107.95
X63.596Y-122.144
X65.65Y-70.3
X65.697Y-142.844
X66.746Y-144.594
X68.6Y-124.15
X68.746Y-138.344
X68.93Y-112.19
X69.05Y-98.7
X69.397Y-117.244
X69.45Y-124.15
X69.697Y-129.244
X70.44Y-100.03
X70.73Y-144.008
X70.746Y-145.344
X70.79Y-105.46
X70.796Y-111.144
X70.796Y-116.144
X71.805Y-112.652
X72.596Y-114.444
X72.697Y-106.444
X72.697Y-121.544
X73.197Y-130.744
X74.897Y-107.344
X75.296Y-119.144
X75.563Y-112.21
X75.67Y-82.41
X75.697Y-108.644
X75.85Y-103.119
X77.496Y-105.044
X77.73Y-84.34
X79.496Y-125.044
X79.65Y-71.75
X79.697Y-123.244
X80.496Y-127.844
X80.596Y-134.094
X81.735Y-84.43
X84.346Y-130.594
X84.346Y-132.844
X85.56Y-102.475
X86.096Y-117.344
X87.096Y-121.344
X87.346Y-117.344
X87.726Y-130.391
X87.846Y-131.344
X88.096Y-120.844
X88.096Y-129.184
X88.596Y-133.008
X88.896Y-116.544
X88.896Y-118.944
X89.096Y-113.644
X89.096Y-142.594
X89.493Y-128.948
X89.496Y-115.344
X89.496Y-117.744
X90.346Y-138.344
X90.346Y-139.344
X90.425Y-113.164
X90.534Y-130.156
X90.697Y-114.744
X91.896Y-115.344
X92.096Y-140.344
X92.096Y-141.344
X92.896Y-114.744
X93.346Y-140.344
X93.346Y-141.344
X93.346Y-142.344
X93.593Y-130.438
X93.697Y-129.445
X93.896Y-115.344
X94.411Y-130.941
X94.596Y-142.594
X95.373Y-128.681
X95.423Y-126.903
X95.548Y-131.985
X95.596Y-123.094
X95.697Y-117.944
X95.846Y-122.344
X95.846Y-142.594
X96.296Y-116.744
X96.846Y-122.344
X97.112Y-120.109
X97.346Y-142.594
X97.846Y-143.594
X98.024Y-122.217
X98.096Y-140.594
X98.096Y-141.844
X98.95Y-120.24
X99.096Y-121.094
X99.464Y-134.928
X99.973Y-123.438
X100.22Y-124.365
X100.596Y-141.594
X100.596Y-143.594
X100.924Y-123.571
X101.45Y-109.85
X101.846Y-139.844
X101.892Y-123.536
X102.1Y-109.2
X102.25Y-106.95
X102.346Y-141.844
X102.7Y-120.85
X102.846Y-118.8
X102.846Y-140.844
X103.04Y-138.65
X103.041Y-134.677
X103.168Y-125.508
X103.548Y-132.875
X103.596Y-118.8
X103.612Y-121.565
X103.636Y-122.795
X103.755Y-139.844
X103.996Y-117.325
X104.096Y-115.344
X104.896Y-116.784
X104.938Y-114.437
X106.09Y-129.366
X106.09Y-130.842
X106.197Y-132.744
X106.294Y-125.329
X106.471Y-127.746
X106.484Y-126.27
X106.631Y-119.05
X107.064Y-129.686
X107.189Y-123.29
X107.38Y-122.13
X107.596Y-120.844
X107.942Y-99.098
X108.096Y-140.384
X108.18Y-137.08
X108.596Y-121.844
X108.996Y-116.544
X109.233Y-100.543
X109.48Y-127.344
X109.596Y-129.594
X109.596Y-131.844
X110.122Y-141.942
X110.145Y-113.081
X110.545Y-139.594
X110.796Y-111.944
X110.802Y-110.144
X110.896Y-116.525
X111.096Y-125.344
X111.096Y-127.594
X111.096Y-129.844
X111.096Y-132.094
X111.096Y-133.844
X111.399Y-123.366
X111.796Y-116.15
X111.863Y-138.519
X112.096Y-133.094
X112.333Y-137.58
X112.41Y-143.29
X113.25Y-103.308
X113.837Y-144.644
X113.896Y-126.444
X113.996Y-127.544
X114.296Y-141.34
X115.231Y-129.105
X115.318Y-130.287
X115.331Y-127.541
X115.896Y-123.444
X116.164Y-98.848
X119.218Y-115.137
X119.4Y-124.4
X121.096Y-139.944
X124.75Y-123.6
X125.55Y-107.65
X125.925Y-125.872
X126.668Y-126.615
X128.381Y-134.575
X128.45Y-124.0
X128.75Y-120.2
X129.69Y-134.541
X130.1Y-120.35
X130.796Y-133.744
X131.196Y-130.244
X131.2Y-119.8
X131.85Y-115.55
X133.227Y-123.527
X133.93Y-102.99
X134.5Y-117.7
X135.496Y-130.144
X135.796Y-133.744
X139.65Y-119.55
X142.696Y-139.944
X146.996Y-142.244
X148.062Y-139.795
X148.296Y-145.144
X150.574Y-139.79
X150.596Y-138.944
X152.55Y-102.7
X154.069Y-133.635
X155.948Y-132.918
X158.05Y-121.0
X158.9Y-120.25
X161.44Y-132.07
X165.25Y-131.93
X166.938Y-117.798
X166.94Y-100.81
X170.54Y-99.54
X171.95Y-99.84
X172.46Y-130.18
X172.563Y-123.5
X173.01Y-88.9
X173.69Y-116.51
X177.91Y-122.03
X179.58Y-92.41
X180.176Y-131.501
X180.178Y-129.128
X180.47Y-100.52
X181.178Y-127.52
X181.954Y-125.777
X182.1Y-97.8
X185.54Y-129.1
X187.4Y-117.25
X188.3Y-135.06
X188.93Y-113.209
X188.93Y-115.309
X192.97Y-135.77
X194.12Y-119.28
X196.05Y-116.7
X196.21Y-127.8
T5
X196.045Y-95.055
X196.045Y-97.595
X196.045Y-100.135
X196.045Y-102.675
T4
G00X62.25Y-98.135
M15
G01X61.65Y-98.135
M16
G05
G00X62.25Y-106.775
M15
G01X61.65Y-106.775
M16
G05
G00X62.25Y-109.324
M15
G01X61.65Y-109.324
M16
G05
G00X62.25Y-117.964
M15
G01X61.65Y-117.964
M16
G05
G00X66.68Y-98.135
M15
G01X65.58Y-98.135
M16
G05
G00X66.68Y-106.775
M15
G01X65.58Y-106.775
M16
G05
G00X66.68Y-109.324
M15
G01X65.58Y-109.324
M16
G05
G00X66.68Y-117.964
M15
G01X65.58Y-117.964
M16
G05
M30
