G04 #@! TF.GenerationSoftware,KiCad,Pcbnew,10.0.1*
G04 #@! TF.CreationDate,2026-08-22T13:39:05+02:00*
G04 #@! TF.ProjectId,v7-raw-34,76372d72-6177-42d3-9334-2e6b69636164,1.3*
G04 #@! TF.SameCoordinates,Original*
G04 #@! TF.FileFunction,Copper,L3,Inr*
G04 #@! TF.FilePolarity,Positive*
%FSLAX46Y46*%
G04 Gerber Fmt 4.6, Leading zero omitted, Abs format (unit mm)*
G04 Created by KiCad (PCBNEW 10.0.1) date 2026-08-22 13:39:05*
%MOMM*%
%LPD*%
G01*
G04 APERTURE LIST*
G04 #@! TA.AperFunction,ComponentPad*
%ADD10R,1.700000X1.700000*%
G04 #@! TD*
G04 #@! TA.AperFunction,ComponentPad*
%ADD11C,1.700000*%
G04 #@! TD*
G04 #@! TA.AperFunction,ComponentPad*
%ADD12O,1.600000X1.000000*%
G04 #@! TD*
G04 #@! TA.AperFunction,ComponentPad*
%ADD13O,2.100000X1.000000*%
G04 #@! TD*
G04 #@! TA.AperFunction,ComponentPad*
%ADD14C,0.508000*%
G04 #@! TD*
G04 #@! TA.AperFunction,ViaPad*
%ADD15C,0.800000*%
G04 #@! TD*
G04 #@! TA.AperFunction,ViaPad*
%ADD16C,0.450000*%
G04 #@! TD*
G04 #@! TA.AperFunction,ViaPad*
%ADD17C,0.500000*%
G04 #@! TD*
G04 #@! TA.AperFunction,Conductor*
%ADD18C,1.000000*%
G04 #@! TD*
G04 #@! TA.AperFunction,Conductor*
%ADD19C,0.750000*%
G04 #@! TD*
G04 APERTURE END LIST*
D10*
X196045000Y-95055000D03*
D11*
X196045000Y-97595000D03*
X196045000Y-100135000D03*
X196045000Y-102675000D03*
D12*
X61950000Y-117963693D03*
D13*
X66130000Y-117963693D03*
D12*
X61950000Y-109323693D03*
D13*
X66130000Y-109323693D03*
D12*
X61950000Y-106775000D03*
D13*
X66130000Y-106775000D03*
D12*
X61950000Y-98135000D03*
D13*
X66130000Y-98135000D03*
D14*
X101695300Y-131146493D03*
X101695300Y-130359093D03*
X101695300Y-129571693D03*
X101695300Y-128784293D03*
X101695300Y-127996893D03*
X100907900Y-131146493D03*
X100907900Y-130359093D03*
X100907900Y-129571693D03*
X100907900Y-128784293D03*
X100907900Y-127996893D03*
X100120500Y-131146493D03*
X100120500Y-130359093D03*
X100120500Y-129571693D03*
X100120500Y-128784293D03*
X100120500Y-127996893D03*
X99333100Y-131146493D03*
X99333100Y-130359093D03*
X99333100Y-129571693D03*
X99333100Y-128784293D03*
X99333100Y-127996893D03*
X98545700Y-131146493D03*
X98545700Y-130359093D03*
X98545700Y-129571693D03*
X98545700Y-128784293D03*
X98545700Y-127996893D03*
D15*
X173690000Y-116510000D03*
X166937539Y-117797539D03*
X172460000Y-130180000D03*
X161440000Y-132070000D03*
X196050000Y-116700000D03*
X192970000Y-135770000D03*
X139650000Y-119550000D03*
X182100000Y-97800000D03*
X75670000Y-82410000D03*
X77730000Y-84340000D03*
X68930000Y-112190000D03*
X63450000Y-107950000D03*
X70790000Y-105460000D03*
X69050000Y-98700000D03*
X70440000Y-100030000D03*
X75850000Y-103118693D03*
X85560000Y-102474693D03*
X109233000Y-100543000D03*
X170540000Y-99540000D03*
X148061529Y-139795403D03*
X103755499Y-139843693D03*
X111096500Y-132093693D03*
X96296500Y-116743693D03*
X72696500Y-121543693D03*
X111096500Y-127593693D03*
X106089500Y-129365693D03*
X102846500Y-118800000D03*
X100596500Y-143593693D03*
D16*
X179690000Y-119490000D03*
D15*
X72596500Y-114443693D03*
X196210000Y-127800000D03*
X103168500Y-125507693D03*
X63596500Y-122143693D03*
X109596500Y-129593693D03*
X93896500Y-115343693D03*
X106470500Y-127745693D03*
X103596500Y-118800000D03*
X102250000Y-106950000D03*
D17*
X192420000Y-121900000D03*
D15*
X172563000Y-123500000D03*
X75296500Y-119143693D03*
X113896500Y-126443693D03*
X111398781Y-123366052D03*
X89496500Y-115343693D03*
X65696500Y-142843693D03*
X68746500Y-138343693D03*
X135496500Y-130143693D03*
X80496500Y-127843693D03*
X102346500Y-141843693D03*
X89493186Y-128947792D03*
X92896500Y-114743693D03*
X116164000Y-98848000D03*
X90346500Y-138343693D03*
X91896500Y-115343693D03*
X79696500Y-123243693D03*
X71805082Y-112651705D03*
X112096500Y-133093693D03*
X103548243Y-132874950D03*
X90534500Y-130155693D03*
X173010000Y-88900000D03*
D17*
X189190000Y-121850000D03*
D15*
X188930000Y-115309000D03*
X115318437Y-130287223D03*
X103040500Y-138649693D03*
X142696500Y-139943693D03*
X115231000Y-129104681D03*
X135796500Y-133743693D03*
X177910000Y-122030000D03*
X88896500Y-118943693D03*
D16*
X180710000Y-119510000D03*
D15*
X108096500Y-140383693D03*
X121096500Y-139943693D03*
X93593277Y-130438096D03*
X89496500Y-117743693D03*
X101846500Y-139843693D03*
X111096500Y-129843693D03*
X87346500Y-117343693D03*
X90346500Y-139343693D03*
X179580000Y-92410000D03*
X66746500Y-144593693D03*
X99463781Y-134928356D03*
X84346500Y-132843693D03*
X148296500Y-145143693D03*
X80596500Y-134093693D03*
X77496500Y-105043693D03*
X133930000Y-102990000D03*
X95696500Y-117943693D03*
X102846500Y-140843693D03*
X99096500Y-121093693D03*
X102700500Y-120850000D03*
X107596500Y-120843693D03*
X90696500Y-114743693D03*
X188930000Y-113209000D03*
X130796500Y-133743693D03*
X72696500Y-106443693D03*
X70746500Y-145343693D03*
X69396500Y-117243693D03*
X65650000Y-70300000D03*
X97112034Y-120109227D03*
X115896500Y-123443693D03*
X98950500Y-120239693D03*
X79496500Y-125043693D03*
X88896500Y-116543693D03*
X69696500Y-129243693D03*
X97846500Y-143593693D03*
X107942000Y-99098000D03*
X86096500Y-117343693D03*
X109596500Y-131843693D03*
X111096500Y-125343693D03*
X131196500Y-130243693D03*
X73196500Y-130743693D03*
X109480000Y-127343693D03*
X84346500Y-130593693D03*
X106630836Y-119050000D03*
X111096500Y-133843693D03*
X165250000Y-131930000D03*
X95548500Y-131984693D03*
X88596500Y-133007691D03*
X188300000Y-135060000D03*
X112410000Y-143290000D03*
X88096500Y-129183695D03*
X95373246Y-128680722D03*
X114296500Y-141340000D03*
X154069310Y-133635000D03*
X111862622Y-138518814D03*
X194120000Y-119280000D03*
X89096500Y-142593693D03*
X100220490Y-124364693D03*
X110121992Y-141941992D03*
X128381228Y-134575066D03*
X90425135Y-113163763D03*
D17*
X181803000Y-124000000D03*
D15*
X158050000Y-121000000D03*
X108180000Y-137080000D03*
X107380000Y-122130000D03*
X185540000Y-129100000D03*
X187400000Y-117250000D03*
X158900000Y-120250000D03*
X74896500Y-107343693D03*
X111796221Y-116149693D03*
X75696500Y-108643693D03*
X110896500Y-116525000D03*
X110545395Y-139593693D03*
X155947922Y-132917922D03*
X101450000Y-109850000D03*
X102100000Y-109200000D03*
X69450000Y-124150000D03*
X68600000Y-124150000D03*
X70796500Y-111143693D03*
X75562837Y-112210030D03*
X70796500Y-116143693D03*
X70730440Y-144008136D03*
X113836500Y-144643693D03*
X103612021Y-121564826D03*
X106089500Y-130841693D03*
X95422757Y-126903436D03*
X103636500Y-122794693D03*
X104938484Y-114437370D03*
X100924161Y-123571352D03*
X101891748Y-123536440D03*
X104096500Y-115343693D03*
X124750000Y-123600000D03*
X98024294Y-122216930D03*
X131200000Y-119800000D03*
X106196500Y-132743693D03*
X107064129Y-129685937D03*
X104896221Y-116783698D03*
X130100000Y-120350000D03*
X103996500Y-117325000D03*
X106293592Y-125329363D03*
X128450000Y-124000000D03*
X133227039Y-123527038D03*
X99972856Y-123437697D03*
X108596500Y-121843693D03*
X106484444Y-126269693D03*
X100596500Y-141593693D03*
X95846500Y-122343693D03*
X92096500Y-140343693D03*
X107188759Y-123290140D03*
X94596500Y-142593693D03*
X93346500Y-142343693D03*
X95596500Y-123093693D03*
X108996500Y-116543693D03*
X93346500Y-140343693D03*
X97346500Y-142593693D03*
X93346500Y-141343693D03*
X171950000Y-99840000D03*
X98096500Y-141843693D03*
X87096500Y-121343693D03*
X96846500Y-122343693D03*
X88096500Y-120843693D03*
X92096500Y-141343693D03*
X98096500Y-140593693D03*
X95846500Y-142593693D03*
X113996500Y-127543693D03*
X131850000Y-115550000D03*
X103041500Y-134676693D03*
X112332870Y-137580000D03*
X79650000Y-71750000D03*
X110796500Y-111943693D03*
X110802000Y-110143693D03*
X150574097Y-139790000D03*
X134500000Y-117700000D03*
X81735000Y-84430000D03*
X119218000Y-115137000D03*
X115331000Y-127540524D03*
X125550000Y-107650000D03*
X113250000Y-103308000D03*
X146996500Y-142243693D03*
X150596500Y-138943693D03*
X166940000Y-100810000D03*
X126667732Y-126614925D03*
X125925268Y-125872461D03*
X89096500Y-113643693D03*
X110145000Y-113081000D03*
X180178000Y-129128000D03*
X180176000Y-131501000D03*
X181954000Y-125777000D03*
D17*
X129360000Y-132450000D03*
D15*
X181178000Y-127520000D03*
X129690366Y-134541013D03*
X93697500Y-129444693D03*
X87725776Y-130391312D03*
X87846500Y-131343693D03*
X94411205Y-130940687D03*
X119400000Y-124400000D03*
X152550000Y-102700000D03*
X128750000Y-120200000D03*
X180470000Y-100520000D03*
D18*
X87096500Y-121343693D02*
X88596500Y-121343693D01*
X88096500Y-120843693D02*
X90346500Y-123093693D01*
X89346500Y-120843693D02*
X88096500Y-120843693D01*
X90346500Y-123093693D02*
X95596500Y-123093693D01*
X90846500Y-122343693D02*
X89346500Y-120843693D01*
X95846500Y-122343693D02*
X90846500Y-122343693D01*
X88596500Y-121343693D02*
X90346500Y-123093693D01*
D19*
X81735000Y-93525000D02*
X92210000Y-104000000D01*
X81735000Y-73835000D02*
X79650000Y-71750000D01*
X81735000Y-84430000D02*
X81735000Y-73835000D01*
X81735000Y-84430000D02*
X81735000Y-93525000D01*
X92210000Y-104000000D02*
X92210000Y-104860000D01*
G04 #@! TA.AperFunction,Conductor*
G36*
X98346594Y-120863695D02*
G01*
X98393087Y-120917351D01*
X98403191Y-120987625D01*
X98402052Y-120994275D01*
X98396000Y-121024697D01*
X98396000Y-121162688D01*
X98422920Y-121298021D01*
X98422922Y-121298028D01*
X98469415Y-121410273D01*
X98477004Y-121480862D01*
X98445224Y-121544349D01*
X98384166Y-121580576D01*
X98313215Y-121578042D01*
X98304788Y-121574899D01*
X98228625Y-121543351D01*
X98228622Y-121543350D01*
X98093289Y-121516430D01*
X98093287Y-121516430D01*
X97955301Y-121516430D01*
X97955298Y-121516430D01*
X97819965Y-121543350D01*
X97819962Y-121543351D01*
X97692483Y-121596155D01*
X97577752Y-121672815D01*
X97577746Y-121672820D01*
X97480184Y-121770382D01*
X97480179Y-121770388D01*
X97403519Y-121885119D01*
X97350715Y-122012598D01*
X97350714Y-122012601D01*
X97323794Y-122147934D01*
X97323794Y-122147937D01*
X97323794Y-122285923D01*
X97350714Y-122421258D01*
X97403519Y-122548741D01*
X97454741Y-122625401D01*
X97480179Y-122663471D01*
X97480184Y-122663477D01*
X97577746Y-122761039D01*
X97577752Y-122761044D01*
X97692483Y-122837705D01*
X97819966Y-122890510D01*
X97955301Y-122917430D01*
X97955302Y-122917430D01*
X98093286Y-122917430D01*
X98093287Y-122917430D01*
X98228622Y-122890510D01*
X98356105Y-122837705D01*
X98470836Y-122761044D01*
X98568408Y-122663472D01*
X98645069Y-122548741D01*
X98697874Y-122421258D01*
X98724794Y-122285923D01*
X98724794Y-122147937D01*
X98697874Y-122012602D01*
X98651378Y-121900350D01*
X98643789Y-121829760D01*
X98675568Y-121766273D01*
X98736627Y-121730046D01*
X98807578Y-121732580D01*
X98816006Y-121735724D01*
X98892163Y-121767270D01*
X98892167Y-121767271D01*
X98892172Y-121767273D01*
X99027507Y-121794193D01*
X99027508Y-121794193D01*
X99165492Y-121794193D01*
X99165493Y-121794193D01*
X99300828Y-121767273D01*
X99428311Y-121714468D01*
X99543042Y-121637807D01*
X99640614Y-121540235D01*
X99717275Y-121425504D01*
X99770080Y-121298021D01*
X99797000Y-121162686D01*
X99797000Y-121024700D01*
X99790948Y-120994274D01*
X99797276Y-120923561D01*
X99840830Y-120867494D01*
X99907782Y-120843874D01*
X99914527Y-120843693D01*
X101881616Y-120843693D01*
X101949737Y-120863695D01*
X101996230Y-120917351D01*
X102005195Y-120945111D01*
X102026920Y-121054328D01*
X102079725Y-121181811D01*
X102113939Y-121233015D01*
X102156385Y-121296541D01*
X102156390Y-121296547D01*
X102253952Y-121394109D01*
X102253958Y-121394114D01*
X102368689Y-121470775D01*
X102496172Y-121523580D01*
X102631507Y-121550500D01*
X102631508Y-121550500D01*
X102769492Y-121550500D01*
X102769493Y-121550500D01*
X102769493Y-121550499D01*
X102775657Y-121549893D01*
X102775855Y-121551913D01*
X102837270Y-121557389D01*
X102893351Y-121600926D01*
X102914754Y-121650073D01*
X102938441Y-121769154D01*
X102938442Y-121769157D01*
X102938952Y-121770388D01*
X102991246Y-121896637D01*
X103010644Y-121925668D01*
X103067906Y-122011367D01*
X103067911Y-122011373D01*
X103159442Y-122102904D01*
X103193468Y-122165216D01*
X103188403Y-122236031D01*
X103159442Y-122281094D01*
X103092390Y-122348145D01*
X103092385Y-122348151D01*
X103015725Y-122462882D01*
X102962921Y-122590361D01*
X102962920Y-122590364D01*
X102936000Y-122725697D01*
X102936000Y-122863688D01*
X102962920Y-122999021D01*
X102962921Y-122999024D01*
X102974608Y-123027238D01*
X103015725Y-123126504D01*
X103066947Y-123203164D01*
X103092385Y-123241234D01*
X103092390Y-123241240D01*
X103189952Y-123338802D01*
X103189958Y-123338807D01*
X103304689Y-123415468D01*
X103432172Y-123468273D01*
X103567507Y-123495193D01*
X103567508Y-123495193D01*
X103705492Y-123495193D01*
X103705493Y-123495193D01*
X103840828Y-123468273D01*
X103968311Y-123415468D01*
X104083042Y-123338807D01*
X104180614Y-123241235D01*
X104257275Y-123126504D01*
X104310080Y-122999021D01*
X104337000Y-122863686D01*
X104337000Y-122725700D01*
X104310080Y-122590365D01*
X104257275Y-122462882D01*
X104180614Y-122348151D01*
X104180609Y-122348145D01*
X104089079Y-122256615D01*
X104055053Y-122194303D01*
X104060118Y-122123488D01*
X104089079Y-122078425D01*
X104156130Y-122011373D01*
X104156135Y-122011368D01*
X104232796Y-121896637D01*
X104285601Y-121769154D01*
X104312521Y-121633819D01*
X104312521Y-121495833D01*
X104285601Y-121360498D01*
X104232796Y-121233015D01*
X104156135Y-121118284D01*
X104156130Y-121118278D01*
X104096640Y-121058788D01*
X104062614Y-120996476D01*
X104067679Y-120925661D01*
X104110226Y-120868825D01*
X104176746Y-120844014D01*
X104185735Y-120843693D01*
X106778871Y-120843693D01*
X106846992Y-120863695D01*
X106893485Y-120917351D01*
X106902449Y-120945109D01*
X106912229Y-120994275D01*
X106922920Y-121048021D01*
X106922921Y-121048024D01*
X106927380Y-121058788D01*
X106975725Y-121175504D01*
X107014153Y-121233015D01*
X107052385Y-121290234D01*
X107052390Y-121290240D01*
X107073502Y-121311352D01*
X107107528Y-121373664D01*
X107102463Y-121444479D01*
X107059916Y-121501315D01*
X107053203Y-121505588D01*
X107053336Y-121505786D01*
X106933458Y-121585885D01*
X106933452Y-121585890D01*
X106835890Y-121683452D01*
X106835885Y-121683458D01*
X106759225Y-121798189D01*
X106706421Y-121925668D01*
X106706420Y-121925671D01*
X106679500Y-122061004D01*
X106679500Y-122198995D01*
X106706420Y-122334328D01*
X106706421Y-122334331D01*
X106725926Y-122381421D01*
X106759225Y-122461811D01*
X106759941Y-122462882D01*
X106835885Y-122576541D01*
X106835890Y-122576547D01*
X106933452Y-122674109D01*
X106933458Y-122674114D01*
X107048189Y-122750775D01*
X107175672Y-122803580D01*
X107311007Y-122830500D01*
X107311008Y-122830500D01*
X107448992Y-122830500D01*
X107448993Y-122830500D01*
X107584328Y-122803580D01*
X107711811Y-122750775D01*
X107826542Y-122674114D01*
X107924114Y-122576542D01*
X108000775Y-122461811D01*
X108053580Y-122334328D01*
X108080500Y-122198993D01*
X108080500Y-122061007D01*
X108053580Y-121925672D01*
X108000775Y-121798189D01*
X107924114Y-121683458D01*
X107924109Y-121683452D01*
X107902997Y-121662340D01*
X107868971Y-121600028D01*
X107874036Y-121529213D01*
X107916583Y-121472377D01*
X107923297Y-121468107D01*
X107923164Y-121467907D01*
X107928311Y-121464468D01*
X108043042Y-121387807D01*
X108140614Y-121290235D01*
X108217275Y-121175504D01*
X108270080Y-121048021D01*
X108290550Y-120945110D01*
X108305503Y-120916525D01*
X108318905Y-120887181D01*
X108321840Y-120885294D01*
X108323458Y-120882202D01*
X108351495Y-120866236D01*
X108378631Y-120848797D01*
X108383298Y-120848125D01*
X108385153Y-120847070D01*
X108414129Y-120843693D01*
X108544310Y-120843693D01*
X108612431Y-120863695D01*
X108633405Y-120880598D01*
X109059595Y-121306788D01*
X109093621Y-121369100D01*
X109096500Y-121395883D01*
X109096500Y-126690107D01*
X109076498Y-126758228D01*
X109040503Y-126794871D01*
X109033461Y-126799576D01*
X109033452Y-126799583D01*
X108935890Y-126897145D01*
X108935885Y-126897151D01*
X108859225Y-127011882D01*
X108806421Y-127139361D01*
X108806420Y-127139364D01*
X108779500Y-127274697D01*
X108779500Y-127412688D01*
X108806420Y-127548021D01*
X108806421Y-127548024D01*
X108808558Y-127553182D01*
X108859225Y-127675504D01*
X108910447Y-127752164D01*
X108935885Y-127790234D01*
X108935890Y-127790240D01*
X109033450Y-127887800D01*
X109033454Y-127887803D01*
X109033458Y-127887807D01*
X109040502Y-127892514D01*
X109086029Y-127946989D01*
X109096500Y-127997278D01*
X109096500Y-129050846D01*
X109076498Y-129118967D01*
X109059595Y-129139941D01*
X109052390Y-129147145D01*
X109052385Y-129147151D01*
X108975725Y-129261882D01*
X108922921Y-129389361D01*
X108922920Y-129389364D01*
X108896000Y-129524697D01*
X108896000Y-129662688D01*
X108922920Y-129798021D01*
X108922921Y-129798024D01*
X108928810Y-129812240D01*
X108975725Y-129925504D01*
X109013282Y-129981712D01*
X109052384Y-130040233D01*
X109052385Y-130040234D01*
X109052386Y-130040235D01*
X109059593Y-130047442D01*
X109093619Y-130109750D01*
X109096500Y-130136539D01*
X109096500Y-131300846D01*
X109076498Y-131368967D01*
X109059595Y-131389941D01*
X109052390Y-131397145D01*
X109052385Y-131397151D01*
X108975725Y-131511882D01*
X108922921Y-131639361D01*
X108922920Y-131639364D01*
X108896000Y-131774697D01*
X108896000Y-131912688D01*
X108922920Y-132048021D01*
X108922921Y-132048024D01*
X108925267Y-132053688D01*
X108975725Y-132175504D01*
X108993009Y-132201371D01*
X109052384Y-132290233D01*
X109052385Y-132290234D01*
X109052386Y-132290235D01*
X109059593Y-132297442D01*
X109093619Y-132359750D01*
X109096500Y-132386539D01*
X109096500Y-136828687D01*
X109076498Y-136896808D01*
X109022842Y-136943301D01*
X108952568Y-136953405D01*
X108887988Y-136923911D01*
X108854091Y-136876905D01*
X108834118Y-136828687D01*
X108800775Y-136748189D01*
X108724114Y-136633458D01*
X108724109Y-136633452D01*
X108626547Y-136535890D01*
X108626541Y-136535885D01*
X108588471Y-136510447D01*
X108511811Y-136459225D01*
X108431421Y-136425926D01*
X108384331Y-136406421D01*
X108384328Y-136406420D01*
X108248995Y-136379500D01*
X108248993Y-136379500D01*
X108111007Y-136379500D01*
X108111004Y-136379500D01*
X107975671Y-136406420D01*
X107975668Y-136406421D01*
X107848189Y-136459225D01*
X107733458Y-136535885D01*
X107733452Y-136535890D01*
X107635890Y-136633452D01*
X107635885Y-136633458D01*
X107559225Y-136748189D01*
X107506421Y-136875668D01*
X107506420Y-136875671D01*
X107479500Y-137011004D01*
X107479500Y-137148995D01*
X107494211Y-137222950D01*
X107506420Y-137284328D01*
X107559225Y-137411811D01*
X107610447Y-137488471D01*
X107635885Y-137526541D01*
X107635890Y-137526547D01*
X107733452Y-137624109D01*
X107733458Y-137624114D01*
X107848189Y-137700775D01*
X107975672Y-137753580D01*
X108111007Y-137780500D01*
X108111008Y-137780500D01*
X108248992Y-137780500D01*
X108248993Y-137780500D01*
X108384328Y-137753580D01*
X108511811Y-137700775D01*
X108626542Y-137624114D01*
X108724114Y-137526542D01*
X108800775Y-137411811D01*
X108853580Y-137284328D01*
X108853580Y-137284327D01*
X108854091Y-137283094D01*
X108898639Y-137227813D01*
X108966003Y-137205392D01*
X109034794Y-137222950D01*
X109083172Y-137274912D01*
X109096500Y-137331312D01*
X109096500Y-142541503D01*
X109076498Y-142609624D01*
X109059595Y-142630598D01*
X108633405Y-143056788D01*
X108571093Y-143090814D01*
X108544310Y-143093693D01*
X101139347Y-143093693D01*
X101071226Y-143073691D01*
X101050252Y-143056788D01*
X101043047Y-143049583D01*
X101043041Y-143049578D01*
X101004971Y-143024140D01*
X100928311Y-142972918D01*
X100847921Y-142939619D01*
X100800831Y-142920114D01*
X100800828Y-142920113D01*
X100665495Y-142893193D01*
X100665493Y-142893193D01*
X100527507Y-142893193D01*
X100527504Y-142893193D01*
X100392171Y-142920113D01*
X100392168Y-142920114D01*
X100264689Y-142972918D01*
X100149958Y-143049578D01*
X100149952Y-143049583D01*
X100142748Y-143056788D01*
X100080436Y-143090814D01*
X100053653Y-143093693D01*
X98389347Y-143093693D01*
X98321226Y-143073691D01*
X98300252Y-143056788D01*
X98293047Y-143049583D01*
X98293041Y-143049578D01*
X98254971Y-143024140D01*
X98178311Y-142972918D01*
X98097921Y-142939619D01*
X98050831Y-142920114D01*
X98050828Y-142920113D01*
X97915495Y-142893193D01*
X97915493Y-142893193D01*
X97777507Y-142893193D01*
X97777504Y-142893193D01*
X97642171Y-142920113D01*
X97642168Y-142920114D01*
X97514689Y-142972918D01*
X97399958Y-143049578D01*
X97399952Y-143049583D01*
X97392748Y-143056788D01*
X97330436Y-143090814D01*
X97303653Y-143093693D01*
X91398690Y-143093693D01*
X91330569Y-143073691D01*
X91309595Y-143056788D01*
X90883405Y-142630598D01*
X90849379Y-142568286D01*
X90846500Y-142541503D01*
X90846500Y-139886539D01*
X90866502Y-139818418D01*
X90869913Y-139813382D01*
X90875993Y-139804855D01*
X90890614Y-139790235D01*
X90900996Y-139774697D01*
X101146000Y-139774697D01*
X101146000Y-139774700D01*
X101146000Y-139912686D01*
X101172920Y-140048021D01*
X101225725Y-140175504D01*
X101228305Y-140179365D01*
X101302385Y-140290234D01*
X101302390Y-140290240D01*
X101399952Y-140387802D01*
X101399958Y-140387807D01*
X101514689Y-140464468D01*
X101642172Y-140517273D01*
X101777507Y-140544193D01*
X101777508Y-140544193D01*
X101915492Y-140544193D01*
X101915493Y-140544193D01*
X102018289Y-140523745D01*
X102088999Y-140530073D01*
X102145067Y-140573626D01*
X102168687Y-140640578D01*
X102166447Y-140671906D01*
X102146000Y-140774697D01*
X102146000Y-140912688D01*
X102172843Y-141047632D01*
X102166515Y-141118346D01*
X102122961Y-141174413D01*
X102097483Y-141188622D01*
X102014694Y-141222915D01*
X102014689Y-141222917D01*
X101899958Y-141299578D01*
X101899952Y-141299583D01*
X101802390Y-141397145D01*
X101802385Y-141397151D01*
X101725725Y-141511882D01*
X101672921Y-141639361D01*
X101672920Y-141639364D01*
X101646000Y-141774697D01*
X101646000Y-141774699D01*
X101646000Y-141774700D01*
X101646000Y-141912686D01*
X101672920Y-142048021D01*
X101725725Y-142175504D01*
X101776947Y-142252164D01*
X101802385Y-142290234D01*
X101802390Y-142290240D01*
X101899952Y-142387802D01*
X101899958Y-142387807D01*
X102014689Y-142464468D01*
X102142172Y-142517273D01*
X102277507Y-142544193D01*
X102277508Y-142544193D01*
X102415492Y-142544193D01*
X102415493Y-142544193D01*
X102550828Y-142517273D01*
X102678311Y-142464468D01*
X102793042Y-142387807D01*
X102890614Y-142290235D01*
X102967275Y-142175504D01*
X103020080Y-142048021D01*
X103047000Y-141912686D01*
X103047000Y-141774700D01*
X103020156Y-141639748D01*
X103026484Y-141569038D01*
X103070037Y-141512971D01*
X103095511Y-141498764D01*
X103178311Y-141464468D01*
X103293042Y-141387807D01*
X103390614Y-141290235D01*
X103467275Y-141175504D01*
X103520080Y-141048021D01*
X103547000Y-140912686D01*
X103547000Y-140774700D01*
X103530301Y-140690750D01*
X103536628Y-140620041D01*
X103580182Y-140563973D01*
X103647134Y-140540353D01*
X103678461Y-140542592D01*
X103686506Y-140544193D01*
X103686507Y-140544193D01*
X103824491Y-140544193D01*
X103824492Y-140544193D01*
X103959827Y-140517273D01*
X104087310Y-140464468D01*
X104202041Y-140387807D01*
X104275151Y-140314697D01*
X107396000Y-140314697D01*
X107396000Y-140452688D01*
X107420057Y-140573626D01*
X107422920Y-140588021D01*
X107475725Y-140715504D01*
X107515277Y-140774697D01*
X107552385Y-140830234D01*
X107552390Y-140830240D01*
X107649952Y-140927802D01*
X107649958Y-140927807D01*
X107764689Y-141004468D01*
X107892172Y-141057273D01*
X108027507Y-141084193D01*
X108027508Y-141084193D01*
X108165492Y-141084193D01*
X108165493Y-141084193D01*
X108300828Y-141057273D01*
X108428311Y-141004468D01*
X108543042Y-140927807D01*
X108640614Y-140830235D01*
X108717275Y-140715504D01*
X108770080Y-140588021D01*
X108797000Y-140452686D01*
X108797000Y-140314700D01*
X108770080Y-140179365D01*
X108717275Y-140051882D01*
X108640614Y-139937151D01*
X108640609Y-139937145D01*
X108543047Y-139839583D01*
X108543041Y-139839578D01*
X108503836Y-139813382D01*
X108428311Y-139762918D01*
X108347921Y-139729619D01*
X108300831Y-139710114D01*
X108300828Y-139710113D01*
X108165495Y-139683193D01*
X108165493Y-139683193D01*
X108027507Y-139683193D01*
X108027504Y-139683193D01*
X107892171Y-139710113D01*
X107892168Y-139710114D01*
X107764689Y-139762918D01*
X107649958Y-139839578D01*
X107649952Y-139839583D01*
X107552390Y-139937145D01*
X107552385Y-139937151D01*
X107475725Y-140051882D01*
X107422921Y-140179361D01*
X107422920Y-140179364D01*
X107396000Y-140314697D01*
X104275151Y-140314697D01*
X104299613Y-140290235D01*
X104376274Y-140175504D01*
X104429079Y-140048021D01*
X104455999Y-139912686D01*
X104455999Y-139774700D01*
X104429079Y-139639365D01*
X104376274Y-139511882D01*
X104299613Y-139397151D01*
X104299608Y-139397145D01*
X104202046Y-139299583D01*
X104202040Y-139299578D01*
X104158472Y-139270467D01*
X104087310Y-139222918D01*
X104006920Y-139189619D01*
X103959830Y-139170114D01*
X103959827Y-139170113D01*
X103824494Y-139143193D01*
X103824492Y-139143193D01*
X103782874Y-139143193D01*
X103714753Y-139123191D01*
X103668260Y-139069535D01*
X103658156Y-138999261D01*
X103666465Y-138968975D01*
X103696215Y-138897151D01*
X103714080Y-138854021D01*
X103741000Y-138718686D01*
X103741000Y-138580700D01*
X103714080Y-138445365D01*
X103661275Y-138317882D01*
X103584614Y-138203151D01*
X103584609Y-138203145D01*
X103487047Y-138105583D01*
X103487041Y-138105578D01*
X103448971Y-138080140D01*
X103372311Y-138028918D01*
X103291921Y-137995619D01*
X103244831Y-137976114D01*
X103244828Y-137976113D01*
X103109495Y-137949193D01*
X103109493Y-137949193D01*
X102971507Y-137949193D01*
X102971504Y-137949193D01*
X102836171Y-137976113D01*
X102836168Y-137976114D01*
X102708689Y-138028918D01*
X102593958Y-138105578D01*
X102593952Y-138105583D01*
X102496390Y-138203145D01*
X102496385Y-138203151D01*
X102419725Y-138317882D01*
X102366921Y-138445361D01*
X102366920Y-138445364D01*
X102340000Y-138580697D01*
X102340000Y-138580700D01*
X102340000Y-138718686D01*
X102366920Y-138854021D01*
X102419725Y-138981504D01*
X102431590Y-138999261D01*
X102496385Y-139096234D01*
X102496390Y-139096240D01*
X102593952Y-139193802D01*
X102593958Y-139193807D01*
X102708689Y-139270468D01*
X102836172Y-139323273D01*
X102971507Y-139350193D01*
X102971508Y-139350193D01*
X103013125Y-139350193D01*
X103081246Y-139370195D01*
X103127739Y-139423851D01*
X103137843Y-139494125D01*
X103129534Y-139524411D01*
X103081920Y-139639361D01*
X103081919Y-139639364D01*
X103054999Y-139774697D01*
X103054999Y-139912688D01*
X103071697Y-139996631D01*
X103065369Y-140067345D01*
X103021815Y-140123412D01*
X102954863Y-140147032D01*
X102923542Y-140144793D01*
X102915500Y-140143193D01*
X102915493Y-140143193D01*
X102777507Y-140143193D01*
X102777504Y-140143193D01*
X102674713Y-140163640D01*
X102603999Y-140157312D01*
X102547931Y-140113758D01*
X102524312Y-140046805D01*
X102526551Y-140015487D01*
X102547000Y-139912686D01*
X102547000Y-139774700D01*
X102520080Y-139639365D01*
X102467275Y-139511882D01*
X102390614Y-139397151D01*
X102390609Y-139397145D01*
X102293047Y-139299583D01*
X102293041Y-139299578D01*
X102249473Y-139270467D01*
X102178311Y-139222918D01*
X102097921Y-139189619D01*
X102050831Y-139170114D01*
X102050828Y-139170113D01*
X101915495Y-139143193D01*
X101915493Y-139143193D01*
X101777507Y-139143193D01*
X101777504Y-139143193D01*
X101642171Y-139170113D01*
X101642168Y-139170114D01*
X101514689Y-139222918D01*
X101399958Y-139299578D01*
X101399952Y-139299583D01*
X101302390Y-139397145D01*
X101302385Y-139397151D01*
X101225725Y-139511882D01*
X101172921Y-139639361D01*
X101172920Y-139639364D01*
X101146000Y-139774697D01*
X90900996Y-139774697D01*
X90967275Y-139675504D01*
X91020080Y-139548021D01*
X91047000Y-139412686D01*
X91047000Y-139274700D01*
X91020080Y-139139365D01*
X90967275Y-139011882D01*
X90901667Y-138913693D01*
X90880453Y-138845942D01*
X90899236Y-138777475D01*
X90901668Y-138773691D01*
X90967275Y-138675504D01*
X91020080Y-138548021D01*
X91047000Y-138412686D01*
X91047000Y-138274700D01*
X91020080Y-138139365D01*
X90967275Y-138011882D01*
X90890614Y-137897151D01*
X90890609Y-137897145D01*
X90883405Y-137889941D01*
X90849379Y-137827629D01*
X90846500Y-137800846D01*
X90846500Y-134859360D01*
X98763281Y-134859360D01*
X98763281Y-134997351D01*
X98765500Y-135008504D01*
X98790201Y-135132684D01*
X98843006Y-135260167D01*
X98867929Y-135297467D01*
X98919666Y-135374897D01*
X98919671Y-135374903D01*
X99017233Y-135472465D01*
X99017239Y-135472470D01*
X99131970Y-135549131D01*
X99259453Y-135601936D01*
X99394788Y-135628856D01*
X99394789Y-135628856D01*
X99532773Y-135628856D01*
X99532774Y-135628856D01*
X99668109Y-135601936D01*
X99795592Y-135549131D01*
X99910323Y-135472470D01*
X100007895Y-135374898D01*
X100084556Y-135260167D01*
X100137361Y-135132684D01*
X100164281Y-134997349D01*
X100164281Y-134859363D01*
X100137361Y-134724028D01*
X100089175Y-134607697D01*
X102341000Y-134607697D01*
X102341000Y-134607700D01*
X102341000Y-134745686D01*
X102367920Y-134881021D01*
X102420725Y-135008504D01*
X102471947Y-135085164D01*
X102497385Y-135123234D01*
X102497390Y-135123240D01*
X102594952Y-135220802D01*
X102594958Y-135220807D01*
X102709689Y-135297468D01*
X102837172Y-135350273D01*
X102972507Y-135377193D01*
X102972508Y-135377193D01*
X103110492Y-135377193D01*
X103110493Y-135377193D01*
X103245828Y-135350273D01*
X103373311Y-135297468D01*
X103488042Y-135220807D01*
X103585614Y-135123235D01*
X103662275Y-135008504D01*
X103715080Y-134881021D01*
X103742000Y-134745686D01*
X103742000Y-134607700D01*
X103715080Y-134472365D01*
X103662275Y-134344882D01*
X103585614Y-134230151D01*
X103585609Y-134230145D01*
X103488047Y-134132583D01*
X103488041Y-134132578D01*
X103449971Y-134107140D01*
X103373311Y-134055918D01*
X103292921Y-134022619D01*
X103245831Y-134003114D01*
X103245828Y-134003113D01*
X103110495Y-133976193D01*
X103110493Y-133976193D01*
X102972507Y-133976193D01*
X102972504Y-133976193D01*
X102837171Y-134003113D01*
X102837168Y-134003114D01*
X102709689Y-134055918D01*
X102594958Y-134132578D01*
X102594952Y-134132583D01*
X102497390Y-134230145D01*
X102497385Y-134230151D01*
X102420725Y-134344882D01*
X102367921Y-134472361D01*
X102367920Y-134472364D01*
X102341000Y-134607697D01*
X100089175Y-134607697D01*
X100084556Y-134596545D01*
X100007895Y-134481814D01*
X100007890Y-134481808D01*
X99910328Y-134384246D01*
X99910322Y-134384241D01*
X99872252Y-134358803D01*
X99795592Y-134307581D01*
X99715202Y-134274282D01*
X99668112Y-134254777D01*
X99668109Y-134254776D01*
X99532776Y-134227856D01*
X99532774Y-134227856D01*
X99394788Y-134227856D01*
X99394785Y-134227856D01*
X99259452Y-134254776D01*
X99259449Y-134254777D01*
X99131970Y-134307581D01*
X99017239Y-134384241D01*
X99017233Y-134384246D01*
X98919671Y-134481808D01*
X98919666Y-134481814D01*
X98843006Y-134596545D01*
X98790202Y-134724024D01*
X98790201Y-134724027D01*
X98763281Y-134859360D01*
X90846500Y-134859360D01*
X90846500Y-132805954D01*
X102847743Y-132805954D01*
X102847743Y-132943945D01*
X102873912Y-133075503D01*
X102874663Y-133079278D01*
X102927468Y-133206761D01*
X102978690Y-133283421D01*
X103004128Y-133321491D01*
X103004133Y-133321497D01*
X103101695Y-133419059D01*
X103101701Y-133419064D01*
X103216432Y-133495725D01*
X103343915Y-133548530D01*
X103479250Y-133575450D01*
X103479251Y-133575450D01*
X103617235Y-133575450D01*
X103617236Y-133575450D01*
X103752571Y-133548530D01*
X103880054Y-133495725D01*
X103994785Y-133419064D01*
X104092357Y-133321492D01*
X104169018Y-133206761D01*
X104221823Y-133079278D01*
X104248743Y-132943943D01*
X104248743Y-132805957D01*
X104222634Y-132674697D01*
X105496000Y-132674697D01*
X105496000Y-132674700D01*
X105496000Y-132812686D01*
X105522920Y-132948021D01*
X105575725Y-133075504D01*
X105578247Y-133079278D01*
X105652385Y-133190234D01*
X105652390Y-133190240D01*
X105749952Y-133287802D01*
X105749958Y-133287807D01*
X105864689Y-133364468D01*
X105992172Y-133417273D01*
X106127507Y-133444193D01*
X106127508Y-133444193D01*
X106265492Y-133444193D01*
X106265493Y-133444193D01*
X106400828Y-133417273D01*
X106528311Y-133364468D01*
X106643042Y-133287807D01*
X106740614Y-133190235D01*
X106817275Y-133075504D01*
X106870080Y-132948021D01*
X106897000Y-132812686D01*
X106897000Y-132674700D01*
X106870080Y-132539365D01*
X106817275Y-132411882D01*
X106740614Y-132297151D01*
X106740609Y-132297145D01*
X106643047Y-132199583D01*
X106643041Y-132199578D01*
X106604971Y-132174140D01*
X106528311Y-132122918D01*
X106447921Y-132089619D01*
X106400831Y-132070114D01*
X106400828Y-132070113D01*
X106265495Y-132043193D01*
X106265493Y-132043193D01*
X106127507Y-132043193D01*
X106127504Y-132043193D01*
X105992171Y-132070113D01*
X105992168Y-132070114D01*
X105864689Y-132122918D01*
X105749958Y-132199578D01*
X105749952Y-132199583D01*
X105652390Y-132297145D01*
X105652385Y-132297151D01*
X105575725Y-132411882D01*
X105522921Y-132539361D01*
X105522920Y-132539364D01*
X105496000Y-132674697D01*
X104222634Y-132674697D01*
X104221823Y-132670622D01*
X104169018Y-132543139D01*
X104092357Y-132428408D01*
X104092352Y-132428402D01*
X103994790Y-132330840D01*
X103994784Y-132330835D01*
X103934018Y-132290233D01*
X103880054Y-132254175D01*
X103799664Y-132220876D01*
X103752574Y-132201371D01*
X103752571Y-132201370D01*
X103617238Y-132174450D01*
X103617236Y-132174450D01*
X103479250Y-132174450D01*
X103479247Y-132174450D01*
X103343914Y-132201370D01*
X103343911Y-132201371D01*
X103216432Y-132254175D01*
X103101701Y-132330835D01*
X103101695Y-132330840D01*
X103004133Y-132428402D01*
X103004128Y-132428408D01*
X102927468Y-132543139D01*
X102874664Y-132670618D01*
X102874663Y-132670621D01*
X102847743Y-132805954D01*
X90846500Y-132805954D01*
X90846500Y-130857053D01*
X90866502Y-130788932D01*
X90902499Y-130752288D01*
X90981037Y-130699811D01*
X90981039Y-130699808D01*
X90981042Y-130699807D01*
X91078614Y-130602235D01*
X91155275Y-130487504D01*
X91204319Y-130369100D01*
X92892777Y-130369100D01*
X92892777Y-130507091D01*
X92911703Y-130602234D01*
X92919697Y-130642424D01*
X92972502Y-130769907D01*
X93003162Y-130815793D01*
X93049162Y-130884637D01*
X93049167Y-130884643D01*
X93146729Y-130982205D01*
X93146735Y-130982210D01*
X93261466Y-131058871D01*
X93388949Y-131111676D01*
X93524284Y-131138596D01*
X93524285Y-131138596D01*
X93650776Y-131138596D01*
X93718897Y-131158598D01*
X93765390Y-131212254D01*
X93767185Y-131216379D01*
X93790428Y-131272495D01*
X93790429Y-131272497D01*
X93867090Y-131387228D01*
X93867095Y-131387234D01*
X93964657Y-131484796D01*
X93964663Y-131484801D01*
X94079394Y-131561462D01*
X94206877Y-131614267D01*
X94342212Y-131641187D01*
X94342213Y-131641187D01*
X94480197Y-131641187D01*
X94480198Y-131641187D01*
X94615533Y-131614267D01*
X94730656Y-131566581D01*
X94801242Y-131558993D01*
X94864729Y-131590772D01*
X94900957Y-131651830D01*
X94898423Y-131722781D01*
X94895281Y-131731207D01*
X94874921Y-131780362D01*
X94874920Y-131780364D01*
X94848000Y-131915697D01*
X94848000Y-132053688D01*
X94874920Y-132189021D01*
X94874921Y-132189024D01*
X94894426Y-132236114D01*
X94927725Y-132316504D01*
X94956621Y-132359750D01*
X95004385Y-132431234D01*
X95004390Y-132431240D01*
X95101952Y-132528802D01*
X95101958Y-132528807D01*
X95216689Y-132605468D01*
X95344172Y-132658273D01*
X95479507Y-132685193D01*
X95479508Y-132685193D01*
X95617492Y-132685193D01*
X95617493Y-132685193D01*
X95752828Y-132658273D01*
X95880311Y-132605468D01*
X95995042Y-132528807D01*
X96092614Y-132431235D01*
X96169275Y-132316504D01*
X96222080Y-132189021D01*
X96249000Y-132053686D01*
X96249000Y-131915700D01*
X96222080Y-131780365D01*
X96169275Y-131652882D01*
X96092614Y-131538151D01*
X96092609Y-131538145D01*
X95995047Y-131440583D01*
X95995041Y-131440578D01*
X95956971Y-131415140D01*
X95880311Y-131363918D01*
X95799921Y-131330619D01*
X95752831Y-131311114D01*
X95752828Y-131311113D01*
X95617495Y-131284193D01*
X95617493Y-131284193D01*
X95479507Y-131284193D01*
X95479504Y-131284193D01*
X95344171Y-131311113D01*
X95344168Y-131311114D01*
X95229051Y-131358797D01*
X95158461Y-131366386D01*
X95094974Y-131334606D01*
X95058747Y-131273548D01*
X95061281Y-131202597D01*
X95064425Y-131194169D01*
X95084782Y-131145023D01*
X95084782Y-131145021D01*
X95084785Y-131145015D01*
X95111705Y-131009680D01*
X95111705Y-130871694D01*
X95084785Y-130736359D01*
X95031980Y-130608876D01*
X94955319Y-130494145D01*
X94955314Y-130494139D01*
X94857752Y-130396577D01*
X94857746Y-130396572D01*
X94816631Y-130369100D01*
X94743016Y-130319912D01*
X94615934Y-130267273D01*
X94615536Y-130267108D01*
X94615533Y-130267107D01*
X94480200Y-130240187D01*
X94480198Y-130240187D01*
X94353707Y-130240187D01*
X94338589Y-130235748D01*
X94322846Y-130236349D01*
X94305221Y-130225950D01*
X94285586Y-130220185D01*
X94274405Y-130207769D01*
X94261699Y-130200272D01*
X94246710Y-130177012D01*
X94241173Y-130170863D01*
X94239077Y-130166702D01*
X94214052Y-130106285D01*
X94192112Y-130073450D01*
X94188635Y-130066546D01*
X94183580Y-130038917D01*
X94175189Y-130012119D01*
X94177281Y-130004490D01*
X94175858Y-129996709D01*
X94186542Y-129970734D01*
X94193972Y-129943652D01*
X94201699Y-129933885D01*
X94202866Y-129931050D01*
X94205272Y-129929370D01*
X94212071Y-129920777D01*
X94241614Y-129891235D01*
X94318275Y-129776504D01*
X94371080Y-129649021D01*
X94398000Y-129513686D01*
X94398000Y-129375700D01*
X94371080Y-129240365D01*
X94318275Y-129112882D01*
X94241614Y-128998151D01*
X94241609Y-128998145D01*
X94144047Y-128900583D01*
X94144041Y-128900578D01*
X94105971Y-128875140D01*
X94029311Y-128823918D01*
X93948921Y-128790619D01*
X93901831Y-128771114D01*
X93901828Y-128771113D01*
X93766495Y-128744193D01*
X93766493Y-128744193D01*
X93628507Y-128744193D01*
X93628504Y-128744193D01*
X93493171Y-128771113D01*
X93493168Y-128771114D01*
X93365689Y-128823918D01*
X93250958Y-128900578D01*
X93250952Y-128900583D01*
X93153390Y-128998145D01*
X93153385Y-128998151D01*
X93076725Y-129112882D01*
X93023921Y-129240361D01*
X93023920Y-129240364D01*
X92997000Y-129375697D01*
X92997000Y-129513688D01*
X93023920Y-129649021D01*
X93023921Y-129649024D01*
X93076725Y-129776504D01*
X93076725Y-129776505D01*
X93094372Y-129802914D01*
X93115588Y-129870666D01*
X93096806Y-129939133D01*
X93078705Y-129962011D01*
X93049162Y-129991554D01*
X92972502Y-130106285D01*
X92919698Y-130233764D01*
X92919697Y-130233767D01*
X92892777Y-130369100D01*
X91204319Y-130369100D01*
X91208080Y-130360021D01*
X91235000Y-130224686D01*
X91235000Y-130086700D01*
X91208080Y-129951365D01*
X91155275Y-129823882D01*
X91078614Y-129709151D01*
X91078609Y-129709145D01*
X90981047Y-129611583D01*
X90981041Y-129611578D01*
X90902498Y-129559097D01*
X90856970Y-129504620D01*
X90846500Y-129454332D01*
X90846500Y-128611726D01*
X94672746Y-128611726D01*
X94672746Y-128749717D01*
X94699666Y-128885050D01*
X94699667Y-128885053D01*
X94719172Y-128932143D01*
X94752471Y-129012533D01*
X94778071Y-129050846D01*
X94829131Y-129127263D01*
X94829136Y-129127269D01*
X94926698Y-129224831D01*
X94926704Y-129224836D01*
X95041435Y-129301497D01*
X95168918Y-129354302D01*
X95304253Y-129381222D01*
X95304254Y-129381222D01*
X95442238Y-129381222D01*
X95442239Y-129381222D01*
X95577574Y-129354302D01*
X95705057Y-129301497D01*
X95819788Y-129224836D01*
X95917360Y-129127264D01*
X95994021Y-129012533D01*
X96046826Y-128885050D01*
X96073746Y-128749715D01*
X96073746Y-128611729D01*
X96046826Y-128476394D01*
X95994021Y-128348911D01*
X95917360Y-128234180D01*
X95917355Y-128234174D01*
X95819793Y-128136612D01*
X95819787Y-128136607D01*
X95781717Y-128111169D01*
X95705057Y-128059947D01*
X95637691Y-128032043D01*
X95577577Y-128007143D01*
X95577574Y-128007142D01*
X95442241Y-127980222D01*
X95442239Y-127980222D01*
X95304253Y-127980222D01*
X95304250Y-127980222D01*
X95168917Y-128007142D01*
X95168914Y-128007143D01*
X95041435Y-128059947D01*
X94926704Y-128136607D01*
X94926698Y-128136612D01*
X94829136Y-128234174D01*
X94829131Y-128234180D01*
X94752471Y-128348911D01*
X94699667Y-128476390D01*
X94699666Y-128476393D01*
X94672746Y-128611726D01*
X90846500Y-128611726D01*
X90846500Y-127923892D01*
X97991200Y-127923892D01*
X97991200Y-128069894D01*
X98009076Y-128136607D01*
X98028989Y-128210926D01*
X98096347Y-128327593D01*
X98113085Y-128396589D01*
X98096347Y-128453593D01*
X98028989Y-128570259D01*
X98017877Y-128611730D01*
X97991200Y-128711292D01*
X97991200Y-128857294D01*
X98008032Y-128920113D01*
X98028989Y-128998326D01*
X98096347Y-129114993D01*
X98113085Y-129183989D01*
X98096347Y-129240993D01*
X98028989Y-129357659D01*
X98020495Y-129389361D01*
X97991200Y-129498692D01*
X97991200Y-129644694D01*
X98008471Y-129709151D01*
X98028989Y-129785726D01*
X98096347Y-129902393D01*
X98113085Y-129971389D01*
X98096347Y-130028393D01*
X98028989Y-130145059D01*
X98014195Y-130200272D01*
X97991200Y-130286092D01*
X97991200Y-130432094D01*
X98011295Y-130507089D01*
X98028989Y-130573126D01*
X98096347Y-130689793D01*
X98113085Y-130758789D01*
X98096347Y-130815793D01*
X98028989Y-130932459D01*
X98028988Y-130932464D01*
X97991200Y-131073492D01*
X97991200Y-131219494D01*
X98012659Y-131299579D01*
X98028989Y-131360526D01*
X98101986Y-131486960D01*
X98101994Y-131486970D01*
X98205222Y-131590198D01*
X98205227Y-131590202D01*
X98205229Y-131590204D01*
X98205230Y-131590205D01*
X98205232Y-131590206D01*
X98331666Y-131663203D01*
X98331668Y-131663203D01*
X98331671Y-131663205D01*
X98472699Y-131700993D01*
X98472701Y-131700993D01*
X98618699Y-131700993D01*
X98618701Y-131700993D01*
X98759729Y-131663205D01*
X98876401Y-131595844D01*
X98945395Y-131579107D01*
X99002398Y-131595844D01*
X99119071Y-131663205D01*
X99260099Y-131700993D01*
X99260101Y-131700993D01*
X99406099Y-131700993D01*
X99406101Y-131700993D01*
X99547129Y-131663205D01*
X99663801Y-131595844D01*
X99732795Y-131579107D01*
X99789798Y-131595844D01*
X99906471Y-131663205D01*
X100047499Y-131700993D01*
X100047501Y-131700993D01*
X100193499Y-131700993D01*
X100193501Y-131700993D01*
X100334529Y-131663205D01*
X100451201Y-131595844D01*
X100520195Y-131579107D01*
X100577198Y-131595844D01*
X100693871Y-131663205D01*
X100834899Y-131700993D01*
X100834901Y-131700993D01*
X100980899Y-131700993D01*
X100980901Y-131700993D01*
X101121929Y-131663205D01*
X101238601Y-131595844D01*
X101307595Y-131579107D01*
X101364598Y-131595844D01*
X101481271Y-131663205D01*
X101622299Y-131700993D01*
X101622301Y-131700993D01*
X101768299Y-131700993D01*
X101768301Y-131700993D01*
X101909329Y-131663205D01*
X101909332Y-131663203D01*
X101909333Y-131663203D01*
X102034787Y-131590772D01*
X102035771Y-131590204D01*
X102139011Y-131486964D01*
X102196593Y-131387229D01*
X102212010Y-131360526D01*
X102212010Y-131360525D01*
X102212012Y-131360522D01*
X102249800Y-131219494D01*
X102249800Y-131073492D01*
X102212012Y-130932464D01*
X102144651Y-130815791D01*
X102127914Y-130746798D01*
X102144652Y-130689793D01*
X102212012Y-130573122D01*
X102249800Y-130432094D01*
X102249800Y-130286092D01*
X102212012Y-130145064D01*
X102144651Y-130028391D01*
X102127914Y-129959398D01*
X102144652Y-129902393D01*
X102212012Y-129785722D01*
X102249800Y-129644694D01*
X102249800Y-129498692D01*
X102212012Y-129357664D01*
X102212010Y-129357661D01*
X102212010Y-129357659D01*
X102209616Y-129353513D01*
X102209614Y-129353510D01*
X102176813Y-129296697D01*
X105389000Y-129296697D01*
X105389000Y-129434688D01*
X105413747Y-129559097D01*
X105415920Y-129570021D01*
X105468725Y-129697504D01*
X105507095Y-129754928D01*
X105545385Y-129812234D01*
X105545390Y-129812240D01*
X105642952Y-129909802D01*
X105642958Y-129909807D01*
X105757689Y-129986468D01*
X105759078Y-129987043D01*
X105759661Y-129987285D01*
X105760534Y-129987988D01*
X105763150Y-129989387D01*
X105762884Y-129989883D01*
X105814941Y-130031834D01*
X105837361Y-130099197D01*
X105819802Y-130167988D01*
X105767839Y-130216366D01*
X105759661Y-130220101D01*
X105757690Y-130220917D01*
X105757689Y-130220917D01*
X105642958Y-130297578D01*
X105642952Y-130297583D01*
X105545390Y-130395145D01*
X105545385Y-130395151D01*
X105468725Y-130509882D01*
X105415921Y-130637361D01*
X105415920Y-130637364D01*
X105389000Y-130772697D01*
X105389000Y-130910688D01*
X105415920Y-131046021D01*
X105415921Y-131046024D01*
X105427299Y-131073492D01*
X105468725Y-131173504D01*
X105519947Y-131250164D01*
X105545385Y-131288234D01*
X105545390Y-131288240D01*
X105642952Y-131385802D01*
X105642958Y-131385807D01*
X105757689Y-131462468D01*
X105885172Y-131515273D01*
X106020507Y-131542193D01*
X106020508Y-131542193D01*
X106158492Y-131542193D01*
X106158493Y-131542193D01*
X106293828Y-131515273D01*
X106421311Y-131462468D01*
X106536042Y-131385807D01*
X106633614Y-131288235D01*
X106710275Y-131173504D01*
X106763080Y-131046021D01*
X106790000Y-130910686D01*
X106790000Y-130772700D01*
X106763080Y-130637365D01*
X106719181Y-130531384D01*
X106711593Y-130460798D01*
X106743372Y-130397311D01*
X106804430Y-130361083D01*
X106860168Y-130359590D01*
X106995136Y-130386437D01*
X106995137Y-130386437D01*
X107133121Y-130386437D01*
X107133122Y-130386437D01*
X107268457Y-130359517D01*
X107395940Y-130306712D01*
X107510671Y-130230051D01*
X107608243Y-130132479D01*
X107684904Y-130017748D01*
X107737709Y-129890265D01*
X107764629Y-129754930D01*
X107764629Y-129616944D01*
X107737709Y-129481609D01*
X107684904Y-129354126D01*
X107608243Y-129239395D01*
X107608238Y-129239389D01*
X107510676Y-129141827D01*
X107510670Y-129141822D01*
X107467358Y-129112882D01*
X107395940Y-129065162D01*
X107301300Y-129025961D01*
X107268460Y-129012358D01*
X107268457Y-129012357D01*
X107133124Y-128985437D01*
X107133122Y-128985437D01*
X106995136Y-128985437D01*
X106995133Y-128985437D01*
X106859800Y-129012357D01*
X106859793Y-129012359D01*
X106826956Y-129025961D01*
X106756366Y-129033550D01*
X106692880Y-129001770D01*
X106673974Y-128979554D01*
X106633614Y-128919151D01*
X106633609Y-128919145D01*
X106536047Y-128821583D01*
X106536041Y-128821578D01*
X106497971Y-128796140D01*
X106421311Y-128744918D01*
X106340130Y-128711292D01*
X106293831Y-128692114D01*
X106293828Y-128692113D01*
X106158495Y-128665193D01*
X106158493Y-128665193D01*
X106020507Y-128665193D01*
X106020504Y-128665193D01*
X105885171Y-128692113D01*
X105885168Y-128692114D01*
X105757689Y-128744918D01*
X105642958Y-128821578D01*
X105642952Y-128821583D01*
X105545390Y-128919145D01*
X105545385Y-128919151D01*
X105468725Y-129033882D01*
X105415921Y-129161361D01*
X105415920Y-129161364D01*
X105389000Y-129296697D01*
X102176813Y-129296697D01*
X102144652Y-129240993D01*
X102127914Y-129171998D01*
X102144652Y-129114993D01*
X102212012Y-128998322D01*
X102249800Y-128857294D01*
X102249800Y-128711292D01*
X102212012Y-128570264D01*
X102144651Y-128453591D01*
X102127914Y-128384598D01*
X102144652Y-128327593D01*
X102212012Y-128210922D01*
X102249800Y-128069894D01*
X102249800Y-127923892D01*
X102212012Y-127782864D01*
X102212010Y-127782861D01*
X102212010Y-127782859D01*
X102183518Y-127733510D01*
X102150717Y-127676697D01*
X105770000Y-127676697D01*
X105770000Y-127814688D01*
X105791723Y-127923892D01*
X105796920Y-127950021D01*
X105849725Y-128077504D01*
X105889217Y-128136608D01*
X105926385Y-128192234D01*
X105926390Y-128192240D01*
X106023952Y-128289802D01*
X106023958Y-128289807D01*
X106138689Y-128366468D01*
X106266172Y-128419273D01*
X106401507Y-128446193D01*
X106401508Y-128446193D01*
X106539492Y-128446193D01*
X106539493Y-128446193D01*
X106674828Y-128419273D01*
X106802311Y-128366468D01*
X106917042Y-128289807D01*
X107014614Y-128192235D01*
X107091275Y-128077504D01*
X107144080Y-127950021D01*
X107171000Y-127814686D01*
X107171000Y-127676700D01*
X107144080Y-127541365D01*
X107091275Y-127413882D01*
X107014614Y-127299151D01*
X107014609Y-127299145D01*
X106917047Y-127201583D01*
X106917041Y-127201578D01*
X106823932Y-127139365D01*
X106802311Y-127124918D01*
X106721921Y-127091619D01*
X106674831Y-127072114D01*
X106674828Y-127072113D01*
X106539495Y-127045193D01*
X106539493Y-127045193D01*
X106401507Y-127045193D01*
X106401504Y-127045193D01*
X106266171Y-127072113D01*
X106266168Y-127072114D01*
X106138689Y-127124918D01*
X106023958Y-127201578D01*
X106023952Y-127201583D01*
X105926390Y-127299145D01*
X105926385Y-127299151D01*
X105849725Y-127413882D01*
X105796921Y-127541361D01*
X105796920Y-127541364D01*
X105770000Y-127676697D01*
X102150717Y-127676697D01*
X102139013Y-127656425D01*
X102139005Y-127656415D01*
X102035777Y-127553187D01*
X102035767Y-127553179D01*
X101909333Y-127480182D01*
X101892672Y-127475717D01*
X101768301Y-127442393D01*
X101622299Y-127442393D01*
X101535986Y-127465520D01*
X101481266Y-127480182D01*
X101364600Y-127547540D01*
X101295604Y-127564278D01*
X101238600Y-127547540D01*
X101121933Y-127480182D01*
X101105272Y-127475717D01*
X100980901Y-127442393D01*
X100834899Y-127442393D01*
X100748586Y-127465520D01*
X100693866Y-127480182D01*
X100577200Y-127547540D01*
X100508204Y-127564278D01*
X100451200Y-127547540D01*
X100334533Y-127480182D01*
X100317872Y-127475717D01*
X100193501Y-127442393D01*
X100047499Y-127442393D01*
X99961186Y-127465520D01*
X99906466Y-127480182D01*
X99789800Y-127547540D01*
X99720804Y-127564278D01*
X99663800Y-127547540D01*
X99547133Y-127480182D01*
X99530472Y-127475717D01*
X99406101Y-127442393D01*
X99260099Y-127442393D01*
X99173786Y-127465520D01*
X99119066Y-127480182D01*
X99002400Y-127547540D01*
X98933404Y-127564278D01*
X98876400Y-127547540D01*
X98759733Y-127480182D01*
X98743072Y-127475717D01*
X98618701Y-127442393D01*
X98472699Y-127442393D01*
X98386386Y-127465520D01*
X98331666Y-127480182D01*
X98205232Y-127553179D01*
X98205222Y-127553187D01*
X98101994Y-127656415D01*
X98101986Y-127656425D01*
X98028989Y-127782859D01*
X98020462Y-127814684D01*
X97991200Y-127923892D01*
X90846500Y-127923892D01*
X90846500Y-126834440D01*
X94722257Y-126834440D01*
X94722257Y-126972431D01*
X94749177Y-127107764D01*
X94749178Y-127107767D01*
X94768683Y-127154857D01*
X94801982Y-127235247D01*
X94853204Y-127311907D01*
X94878642Y-127349977D01*
X94878647Y-127349983D01*
X94976209Y-127447545D01*
X94976215Y-127447550D01*
X95090946Y-127524211D01*
X95218429Y-127577016D01*
X95353764Y-127603936D01*
X95353765Y-127603936D01*
X95491749Y-127603936D01*
X95491750Y-127603936D01*
X95627085Y-127577016D01*
X95754568Y-127524211D01*
X95869299Y-127447550D01*
X95966871Y-127349978D01*
X96043532Y-127235247D01*
X96096337Y-127107764D01*
X96123257Y-126972429D01*
X96123257Y-126834443D01*
X96096337Y-126699108D01*
X96043532Y-126571625D01*
X95966871Y-126456894D01*
X95966866Y-126456888D01*
X95869304Y-126359326D01*
X95869298Y-126359321D01*
X95831228Y-126333883D01*
X95754568Y-126282661D01*
X95674178Y-126249362D01*
X95627088Y-126229857D01*
X95627085Y-126229856D01*
X95491752Y-126202936D01*
X95491750Y-126202936D01*
X95353764Y-126202936D01*
X95353761Y-126202936D01*
X95218428Y-126229856D01*
X95218425Y-126229857D01*
X95090946Y-126282661D01*
X94976215Y-126359321D01*
X94976209Y-126359326D01*
X94878647Y-126456888D01*
X94878642Y-126456894D01*
X94801982Y-126571625D01*
X94749178Y-126699104D01*
X94749177Y-126699107D01*
X94722257Y-126834440D01*
X90846500Y-126834440D01*
X90846500Y-125438697D01*
X102468000Y-125438697D01*
X102468000Y-125576688D01*
X102484806Y-125661174D01*
X102494920Y-125712021D01*
X102547725Y-125839504D01*
X102570422Y-125873472D01*
X102624385Y-125954234D01*
X102624390Y-125954240D01*
X102721952Y-126051802D01*
X102721958Y-126051807D01*
X102836689Y-126128468D01*
X102964172Y-126181273D01*
X103099507Y-126208193D01*
X103099508Y-126208193D01*
X103237492Y-126208193D01*
X103237493Y-126208193D01*
X103372828Y-126181273D01*
X103500311Y-126128468D01*
X103615042Y-126051807D01*
X103712614Y-125954235D01*
X103789275Y-125839504D01*
X103842080Y-125712021D01*
X103869000Y-125576686D01*
X103869000Y-125438700D01*
X103842080Y-125303365D01*
X103842077Y-125303359D01*
X103842076Y-125303353D01*
X103841678Y-125302392D01*
X103824270Y-125260367D01*
X105593092Y-125260367D01*
X105593092Y-125260370D01*
X105593092Y-125398356D01*
X105620012Y-125533691D01*
X105672817Y-125661174D01*
X105706792Y-125712021D01*
X105749477Y-125775904D01*
X105749482Y-125775910D01*
X105847044Y-125873472D01*
X105847050Y-125873477D01*
X105961781Y-125950138D01*
X106089264Y-126002943D01*
X106224599Y-126029863D01*
X106224600Y-126029863D01*
X106362584Y-126029863D01*
X106362585Y-126029863D01*
X106497920Y-126002943D01*
X106625403Y-125950138D01*
X106740134Y-125873477D01*
X106837706Y-125775905D01*
X106914367Y-125661174D01*
X106967172Y-125533691D01*
X106994092Y-125398356D01*
X106994092Y-125260370D01*
X106967172Y-125125035D01*
X106914367Y-124997552D01*
X106837706Y-124882821D01*
X106837701Y-124882815D01*
X106740139Y-124785253D01*
X106740133Y-124785248D01*
X106702063Y-124759810D01*
X106625403Y-124708588D01*
X106545013Y-124675289D01*
X106497923Y-124655784D01*
X106497920Y-124655783D01*
X106362587Y-124628863D01*
X106362585Y-124628863D01*
X106224599Y-124628863D01*
X106224596Y-124628863D01*
X106089263Y-124655783D01*
X106089260Y-124655784D01*
X105961781Y-124708588D01*
X105847050Y-124785248D01*
X105847044Y-124785253D01*
X105749482Y-124882815D01*
X105749477Y-124882821D01*
X105672817Y-124997552D01*
X105620013Y-125125031D01*
X105620012Y-125125034D01*
X105593092Y-125260367D01*
X103824270Y-125260367D01*
X103815109Y-125238252D01*
X103789275Y-125175882D01*
X103712614Y-125061151D01*
X103712609Y-125061145D01*
X103615047Y-124963583D01*
X103615041Y-124963578D01*
X103533070Y-124908807D01*
X103500311Y-124886918D01*
X103419921Y-124853619D01*
X103372831Y-124834114D01*
X103372828Y-124834113D01*
X103237495Y-124807193D01*
X103237493Y-124807193D01*
X103099507Y-124807193D01*
X103099504Y-124807193D01*
X102964171Y-124834113D01*
X102964168Y-124834114D01*
X102836689Y-124886918D01*
X102721958Y-124963578D01*
X102721952Y-124963583D01*
X102624390Y-125061145D01*
X102624385Y-125061151D01*
X102547725Y-125175882D01*
X102494921Y-125303361D01*
X102494920Y-125303364D01*
X102468000Y-125438697D01*
X90846500Y-125438697D01*
X90846500Y-123368701D01*
X99272356Y-123368701D01*
X99272356Y-123368704D01*
X99272356Y-123506690D01*
X99299276Y-123642025D01*
X99352081Y-123769508D01*
X99403303Y-123846168D01*
X99428741Y-123884238D01*
X99428746Y-123884244D01*
X99530690Y-123986188D01*
X99529421Y-123987456D01*
X99564612Y-124039112D01*
X99566516Y-124110083D01*
X99561120Y-124126057D01*
X99546912Y-124160357D01*
X99546910Y-124160364D01*
X99519990Y-124295697D01*
X99519990Y-124295700D01*
X99519990Y-124433686D01*
X99546910Y-124569021D01*
X99599715Y-124696504D01*
X99650937Y-124773164D01*
X99676375Y-124811234D01*
X99676380Y-124811240D01*
X99773942Y-124908802D01*
X99773948Y-124908807D01*
X99888679Y-124985468D01*
X100016162Y-125038273D01*
X100151497Y-125065193D01*
X100151498Y-125065193D01*
X100289482Y-125065193D01*
X100289483Y-125065193D01*
X100424818Y-125038273D01*
X100552301Y-124985468D01*
X100667032Y-124908807D01*
X100764604Y-124811235D01*
X100841265Y-124696504D01*
X100894070Y-124569021D01*
X100920990Y-124433686D01*
X100920990Y-124389612D01*
X100940992Y-124321491D01*
X100994648Y-124274998D01*
X101022408Y-124266033D01*
X101024944Y-124265528D01*
X101128489Y-124244932D01*
X101255972Y-124192127D01*
X101364078Y-124119892D01*
X101431830Y-124098678D01*
X101500297Y-124117461D01*
X101504076Y-124119890D01*
X101559937Y-124157215D01*
X101687420Y-124210020D01*
X101822755Y-124236940D01*
X101822756Y-124236940D01*
X101960740Y-124236940D01*
X101960741Y-124236940D01*
X102096076Y-124210020D01*
X102223559Y-124157215D01*
X102338290Y-124080554D01*
X102435862Y-123982982D01*
X102512523Y-123868251D01*
X102565328Y-123740768D01*
X102592248Y-123605433D01*
X102592248Y-123467447D01*
X102565328Y-123332112D01*
X102512523Y-123204629D01*
X102435862Y-123089898D01*
X102435857Y-123089892D01*
X102338295Y-122992330D01*
X102338289Y-122992325D01*
X102275808Y-122950577D01*
X102223559Y-122915665D01*
X102143169Y-122882366D01*
X102096079Y-122862861D01*
X102096076Y-122862860D01*
X101960743Y-122835940D01*
X101960741Y-122835940D01*
X101822755Y-122835940D01*
X101822752Y-122835940D01*
X101687419Y-122862860D01*
X101687416Y-122862861D01*
X101603132Y-122897773D01*
X101559937Y-122915665D01*
X101451830Y-122987899D01*
X101384079Y-123009114D01*
X101315612Y-122990331D01*
X101311828Y-122987899D01*
X101255972Y-122950577D01*
X101171687Y-122915665D01*
X101128492Y-122897773D01*
X101128489Y-122897772D01*
X100993156Y-122870852D01*
X100993154Y-122870852D01*
X100855168Y-122870852D01*
X100855165Y-122870852D01*
X100719832Y-122897772D01*
X100719829Y-122897773D01*
X100588136Y-122952322D01*
X100517546Y-122959911D01*
X100454059Y-122928131D01*
X100450849Y-122925034D01*
X100419398Y-122893583D01*
X100414797Y-122890509D01*
X100373418Y-122862860D01*
X100304667Y-122816922D01*
X100224277Y-122783623D01*
X100177187Y-122764118D01*
X100177184Y-122764117D01*
X100041851Y-122737197D01*
X100041849Y-122737197D01*
X99903863Y-122737197D01*
X99903860Y-122737197D01*
X99768527Y-122764117D01*
X99768524Y-122764118D01*
X99641045Y-122816922D01*
X99526314Y-122893582D01*
X99526308Y-122893587D01*
X99428746Y-122991149D01*
X99428741Y-122991155D01*
X99352081Y-123105886D01*
X99299277Y-123233365D01*
X99299276Y-123233368D01*
X99272356Y-123368701D01*
X90846500Y-123368701D01*
X90846500Y-121395883D01*
X90866502Y-121327762D01*
X90883405Y-121306788D01*
X91309595Y-120880598D01*
X91371907Y-120846572D01*
X91398690Y-120843693D01*
X98278473Y-120843693D01*
X98346594Y-120863695D01*
G37*
G04 #@! TD.AperFunction*
G04 #@! TA.AperFunction,Conductor*
G36*
X108519731Y-100163695D02*
G01*
X108566224Y-100217351D01*
X108576328Y-100287625D01*
X108568019Y-100317910D01*
X108559422Y-100338663D01*
X108559420Y-100338671D01*
X108532500Y-100474004D01*
X108532500Y-100474007D01*
X108532500Y-100611993D01*
X108559420Y-100747328D01*
X108612225Y-100874811D01*
X108663447Y-100951471D01*
X108688885Y-100989541D01*
X108688890Y-100989547D01*
X108786452Y-101087109D01*
X108786458Y-101087114D01*
X108901189Y-101163775D01*
X109028672Y-101216580D01*
X109164007Y-101243500D01*
X109164008Y-101243500D01*
X109301992Y-101243500D01*
X109301993Y-101243500D01*
X109437328Y-101216580D01*
X109564811Y-101163775D01*
X109679542Y-101087114D01*
X109777114Y-100989542D01*
X109853775Y-100874811D01*
X109906580Y-100747328D01*
X109933500Y-100611993D01*
X109933500Y-100474007D01*
X109906580Y-100338672D01*
X109906578Y-100338667D01*
X109906577Y-100338663D01*
X109897981Y-100317910D01*
X109890392Y-100247320D01*
X109922172Y-100183833D01*
X109983231Y-100147607D01*
X110014390Y-100143693D01*
X126044319Y-100143693D01*
X126112440Y-100163695D01*
X126133400Y-100180584D01*
X126559726Y-100606800D01*
X126593759Y-100669107D01*
X126596642Y-100695873D01*
X126599999Y-113700000D01*
X127356118Y-113975881D01*
X130300000Y-115050000D01*
X130300000Y-115049999D01*
X130300001Y-115050000D01*
X134975000Y-115025000D01*
X139121217Y-115002827D01*
X139176003Y-115015038D01*
X139798718Y-115311215D01*
X139937438Y-115377193D01*
X139981488Y-115411993D01*
X143149999Y-119349999D01*
X143150000Y-119350000D01*
X148623250Y-119296846D01*
X153543977Y-119249059D01*
X153612288Y-119268399D01*
X153633861Y-119285525D01*
X154059163Y-119706716D01*
X154093489Y-119768861D01*
X154096500Y-119796242D01*
X154096500Y-132811962D01*
X154076498Y-132880083D01*
X154022842Y-132926576D01*
X153995082Y-132935541D01*
X153864981Y-132961420D01*
X153864978Y-132961421D01*
X153737499Y-133014225D01*
X153622768Y-133090885D01*
X153622762Y-133090890D01*
X153525200Y-133188452D01*
X153525195Y-133188458D01*
X153448535Y-133303189D01*
X153395731Y-133430668D01*
X153395730Y-133430671D01*
X153368810Y-133566004D01*
X153368810Y-133703995D01*
X153390431Y-133812688D01*
X153395730Y-133839328D01*
X153448535Y-133966811D01*
X153499757Y-134043471D01*
X153525195Y-134081541D01*
X153525200Y-134081547D01*
X153622762Y-134179109D01*
X153622768Y-134179114D01*
X153737499Y-134255775D01*
X153864982Y-134308580D01*
X153995082Y-134334458D01*
X154057991Y-134367365D01*
X154093123Y-134429060D01*
X154096500Y-134458037D01*
X154096500Y-142791503D01*
X154076498Y-142859624D01*
X154059595Y-142880598D01*
X153633405Y-143306788D01*
X153571093Y-143340814D01*
X153544310Y-143343693D01*
X147328601Y-143343693D01*
X147268313Y-143328334D01*
X146553623Y-142938903D01*
X146508034Y-142896570D01*
X145067563Y-140663841D01*
X144796500Y-140243693D01*
X144296500Y-140243693D01*
X143504581Y-140243693D01*
X143436460Y-140223691D01*
X143389967Y-140170035D01*
X143379863Y-140099761D01*
X143381002Y-140093111D01*
X143389971Y-140048021D01*
X143397000Y-140012686D01*
X143397000Y-139874700D01*
X143370080Y-139739365D01*
X143364713Y-139726407D01*
X147361029Y-139726407D01*
X147361029Y-139864398D01*
X147387949Y-139999731D01*
X147440754Y-140127214D01*
X147475600Y-140179365D01*
X147517414Y-140241944D01*
X147517419Y-140241950D01*
X147614981Y-140339512D01*
X147614987Y-140339517D01*
X147729718Y-140416178D01*
X147857201Y-140468983D01*
X147992536Y-140495903D01*
X147992537Y-140495903D01*
X148130521Y-140495903D01*
X148130522Y-140495903D01*
X148265857Y-140468983D01*
X148393340Y-140416178D01*
X148508071Y-140339517D01*
X148605643Y-140241945D01*
X148682304Y-140127214D01*
X148735109Y-139999731D01*
X148762029Y-139864396D01*
X148762029Y-139726410D01*
X148735109Y-139591075D01*
X148682304Y-139463592D01*
X148605643Y-139348861D01*
X148605638Y-139348855D01*
X148508076Y-139251293D01*
X148508070Y-139251288D01*
X148460216Y-139219313D01*
X148393340Y-139174628D01*
X148308207Y-139139365D01*
X148265860Y-139121824D01*
X148265857Y-139121823D01*
X148130524Y-139094903D01*
X148130522Y-139094903D01*
X147992536Y-139094903D01*
X147992533Y-139094903D01*
X147857200Y-139121823D01*
X147857197Y-139121824D01*
X147729718Y-139174628D01*
X147614987Y-139251288D01*
X147614981Y-139251293D01*
X147517419Y-139348855D01*
X147517414Y-139348861D01*
X147440754Y-139463592D01*
X147387950Y-139591071D01*
X147387949Y-139591074D01*
X147361029Y-139726407D01*
X143364713Y-139726407D01*
X143317275Y-139611882D01*
X143240614Y-139497151D01*
X143240609Y-139497145D01*
X143143047Y-139399583D01*
X143143041Y-139399578D01*
X143104971Y-139374140D01*
X143028311Y-139322918D01*
X142911902Y-139274700D01*
X142900831Y-139270114D01*
X142900828Y-139270113D01*
X142765495Y-139243193D01*
X142765493Y-139243193D01*
X142627507Y-139243193D01*
X142627504Y-139243193D01*
X142492171Y-139270113D01*
X142492168Y-139270114D01*
X142364689Y-139322918D01*
X142249958Y-139399578D01*
X142249952Y-139399583D01*
X142152390Y-139497145D01*
X142152385Y-139497151D01*
X142075725Y-139611882D01*
X142022921Y-139739361D01*
X142022920Y-139739364D01*
X141996000Y-139874697D01*
X141996000Y-140012688D01*
X142011998Y-140093111D01*
X142005670Y-140163825D01*
X141962116Y-140219892D01*
X141895164Y-140243512D01*
X141888419Y-140243693D01*
X121904581Y-140243693D01*
X121836460Y-140223691D01*
X121789967Y-140170035D01*
X121779863Y-140099761D01*
X121781002Y-140093111D01*
X121789971Y-140048021D01*
X121797000Y-140012686D01*
X121797000Y-139874700D01*
X121770080Y-139739365D01*
X121717275Y-139611882D01*
X121640614Y-139497151D01*
X121640609Y-139497145D01*
X121543047Y-139399583D01*
X121543041Y-139399578D01*
X121504971Y-139374140D01*
X121428311Y-139322918D01*
X121311902Y-139274700D01*
X121300831Y-139270114D01*
X121300828Y-139270113D01*
X121165495Y-139243193D01*
X121165493Y-139243193D01*
X121027507Y-139243193D01*
X121027504Y-139243193D01*
X120892171Y-139270113D01*
X120892168Y-139270114D01*
X120764689Y-139322918D01*
X120649958Y-139399578D01*
X120649952Y-139399583D01*
X120552390Y-139497145D01*
X120552385Y-139497151D01*
X120475725Y-139611882D01*
X120422921Y-139739361D01*
X120422920Y-139739364D01*
X120396000Y-139874697D01*
X120396000Y-140012688D01*
X120411998Y-140093111D01*
X120405670Y-140163825D01*
X120362116Y-140219892D01*
X120295164Y-140243512D01*
X120288419Y-140243693D01*
X112248690Y-140243693D01*
X112180569Y-140223691D01*
X112159595Y-140206788D01*
X111733405Y-139780598D01*
X111699379Y-139718286D01*
X111696500Y-139691503D01*
X111696500Y-139345314D01*
X111716502Y-139277193D01*
X111770158Y-139230700D01*
X111822500Y-139219314D01*
X111931614Y-139219314D01*
X111931615Y-139219314D01*
X112066950Y-139192394D01*
X112194433Y-139139589D01*
X112309164Y-139062928D01*
X112406736Y-138965356D01*
X112483397Y-138850625D01*
X112536202Y-138723142D01*
X112563122Y-138587807D01*
X112563122Y-138449821D01*
X112536202Y-138314486D01*
X112483397Y-138187003D01*
X112406736Y-138072272D01*
X112406731Y-138072266D01*
X112309169Y-137974704D01*
X112309163Y-137974699D01*
X112270990Y-137949193D01*
X112194433Y-137898039D01*
X112114043Y-137864740D01*
X112066953Y-137845235D01*
X112066950Y-137845234D01*
X111931617Y-137818314D01*
X111931615Y-137818314D01*
X111822500Y-137818314D01*
X111754379Y-137798312D01*
X111707886Y-137744656D01*
X111696500Y-137692314D01*
X111696500Y-134506070D01*
X127680728Y-134506070D01*
X127680728Y-134506073D01*
X127680728Y-134644059D01*
X127707648Y-134779394D01*
X127760453Y-134906877D01*
X127803956Y-134971984D01*
X127837113Y-135021607D01*
X127837118Y-135021613D01*
X127934680Y-135119175D01*
X127934686Y-135119180D01*
X128049417Y-135195841D01*
X128176900Y-135248646D01*
X128312235Y-135275566D01*
X128312236Y-135275566D01*
X128450220Y-135275566D01*
X128450221Y-135275566D01*
X128585556Y-135248646D01*
X128713039Y-135195841D01*
X128827770Y-135119180D01*
X128925342Y-135021608D01*
X128942638Y-134995721D01*
X128997112Y-134950195D01*
X129067554Y-134941345D01*
X129131599Y-134971984D01*
X129144797Y-134985783D01*
X129146253Y-134987557D01*
X129243818Y-135085122D01*
X129243824Y-135085127D01*
X129358555Y-135161788D01*
X129486038Y-135214593D01*
X129621373Y-135241513D01*
X129621374Y-135241513D01*
X129759358Y-135241513D01*
X129759359Y-135241513D01*
X129894694Y-135214593D01*
X130022177Y-135161788D01*
X130136908Y-135085127D01*
X130234480Y-134987555D01*
X130311141Y-134872824D01*
X130363946Y-134745341D01*
X130390866Y-134610006D01*
X130390866Y-134522461D01*
X130410868Y-134454340D01*
X130464524Y-134407847D01*
X130534798Y-134397743D01*
X130565079Y-134406050D01*
X130592172Y-134417273D01*
X130727507Y-134444193D01*
X130727508Y-134444193D01*
X130865492Y-134444193D01*
X130865493Y-134444193D01*
X131000828Y-134417273D01*
X131128311Y-134364468D01*
X131243042Y-134287807D01*
X131340614Y-134190235D01*
X131417275Y-134075504D01*
X131470080Y-133948021D01*
X131497000Y-133812686D01*
X131497000Y-133674700D01*
X131496999Y-133674697D01*
X135096000Y-133674697D01*
X135096000Y-133812688D01*
X135122920Y-133948021D01*
X135122921Y-133948024D01*
X135130703Y-133966811D01*
X135175725Y-134075504D01*
X135226947Y-134152164D01*
X135252385Y-134190234D01*
X135252390Y-134190240D01*
X135349952Y-134287802D01*
X135349958Y-134287807D01*
X135464689Y-134364468D01*
X135592172Y-134417273D01*
X135727507Y-134444193D01*
X135727508Y-134444193D01*
X135865492Y-134444193D01*
X135865493Y-134444193D01*
X136000828Y-134417273D01*
X136128311Y-134364468D01*
X136243042Y-134287807D01*
X136340614Y-134190235D01*
X136417275Y-134075504D01*
X136470080Y-133948021D01*
X136497000Y-133812686D01*
X136497000Y-133674700D01*
X136470080Y-133539365D01*
X136417275Y-133411882D01*
X136340614Y-133297151D01*
X136340609Y-133297145D01*
X136243047Y-133199583D01*
X136243041Y-133199578D01*
X136187825Y-133162684D01*
X136128311Y-133122918D01*
X136047921Y-133089619D01*
X136000831Y-133070114D01*
X136000828Y-133070113D01*
X135865495Y-133043193D01*
X135865493Y-133043193D01*
X135727507Y-133043193D01*
X135727504Y-133043193D01*
X135592171Y-133070113D01*
X135592168Y-133070114D01*
X135464689Y-133122918D01*
X135349958Y-133199578D01*
X135349952Y-133199583D01*
X135252390Y-133297145D01*
X135252385Y-133297151D01*
X135175725Y-133411882D01*
X135122921Y-133539361D01*
X135122920Y-133539364D01*
X135096000Y-133674697D01*
X131496999Y-133674697D01*
X131470080Y-133539365D01*
X131417275Y-133411882D01*
X131340614Y-133297151D01*
X131340609Y-133297145D01*
X131243047Y-133199583D01*
X131243041Y-133199578D01*
X131187825Y-133162684D01*
X131128311Y-133122918D01*
X131047921Y-133089619D01*
X131000831Y-133070114D01*
X131000828Y-133070113D01*
X130865495Y-133043193D01*
X130865493Y-133043193D01*
X130727507Y-133043193D01*
X130727504Y-133043193D01*
X130592171Y-133070113D01*
X130592168Y-133070114D01*
X130464689Y-133122918D01*
X130349958Y-133199578D01*
X130349952Y-133199583D01*
X130252390Y-133297145D01*
X130252385Y-133297151D01*
X130175725Y-133411882D01*
X130122921Y-133539361D01*
X130122920Y-133539364D01*
X130096000Y-133674697D01*
X130096000Y-133762244D01*
X130075998Y-133830365D01*
X130022342Y-133876858D01*
X129952068Y-133886962D01*
X129921782Y-133878653D01*
X129894697Y-133867434D01*
X129894694Y-133867433D01*
X129759361Y-133840513D01*
X129759359Y-133840513D01*
X129621373Y-133840513D01*
X129621370Y-133840513D01*
X129486037Y-133867433D01*
X129486034Y-133867434D01*
X129358555Y-133920238D01*
X129243824Y-133996898D01*
X129243818Y-133996903D01*
X129146254Y-134094467D01*
X129128955Y-134120358D01*
X129074477Y-134165885D01*
X129004034Y-134174732D01*
X128939990Y-134144091D01*
X128926795Y-134130293D01*
X128925343Y-134128524D01*
X128827775Y-134030956D01*
X128827769Y-134030951D01*
X128731776Y-133966811D01*
X128713039Y-133954291D01*
X128632649Y-133920992D01*
X128585559Y-133901487D01*
X128585556Y-133901486D01*
X128450223Y-133874566D01*
X128450221Y-133874566D01*
X128312235Y-133874566D01*
X128312232Y-133874566D01*
X128176899Y-133901486D01*
X128176896Y-133901487D01*
X128049417Y-133954291D01*
X127934686Y-134030951D01*
X127934680Y-134030956D01*
X127837118Y-134128518D01*
X127837113Y-134128524D01*
X127760453Y-134243255D01*
X127707649Y-134370734D01*
X127707648Y-134370737D01*
X127680728Y-134506070D01*
X111696500Y-134506070D01*
X111696500Y-134244816D01*
X111715129Y-134181370D01*
X111714359Y-134180959D01*
X111716335Y-134177261D01*
X111716502Y-134176695D01*
X111717242Y-134175564D01*
X111717274Y-134175505D01*
X111717275Y-134175504D01*
X111770080Y-134048021D01*
X111797000Y-133912686D01*
X111797000Y-133901873D01*
X111817002Y-133833752D01*
X111870658Y-133787259D01*
X111940932Y-133777155D01*
X111947546Y-133778287D01*
X112027507Y-133794193D01*
X112027508Y-133794193D01*
X112165492Y-133794193D01*
X112165493Y-133794193D01*
X112300828Y-133767273D01*
X112428311Y-133714468D01*
X112543042Y-133637807D01*
X112640614Y-133540235D01*
X112717275Y-133425504D01*
X112770080Y-133298021D01*
X112797000Y-133162686D01*
X112797000Y-133024700D01*
X112770080Y-132889365D01*
X112717275Y-132761882D01*
X112640614Y-132647151D01*
X112640609Y-132647145D01*
X112543047Y-132549583D01*
X112543041Y-132549578D01*
X112502476Y-132522473D01*
X128809499Y-132522473D01*
X128847016Y-132662485D01*
X128919488Y-132788011D01*
X128919496Y-132788021D01*
X129021978Y-132890503D01*
X129021983Y-132890507D01*
X129021985Y-132890509D01*
X129147515Y-132962984D01*
X129287525Y-133000500D01*
X129287527Y-133000500D01*
X129432473Y-133000500D01*
X129432475Y-133000500D01*
X129572485Y-132962984D01*
X129698015Y-132890509D01*
X129800509Y-132788015D01*
X129872984Y-132662485D01*
X129910500Y-132522475D01*
X129910500Y-132377525D01*
X129872984Y-132237515D01*
X129800509Y-132111985D01*
X129800507Y-132111983D01*
X129800503Y-132111978D01*
X129698021Y-132009496D01*
X129698011Y-132009488D01*
X129572485Y-131937016D01*
X129432475Y-131899500D01*
X129287525Y-131899500D01*
X129194185Y-131924510D01*
X129147514Y-131937016D01*
X129021988Y-132009488D01*
X129021978Y-132009496D01*
X128919496Y-132111978D01*
X128919488Y-132111988D01*
X128847016Y-132237514D01*
X128831129Y-132296805D01*
X128822011Y-132330836D01*
X128809500Y-132377526D01*
X128809500Y-132522473D01*
X128809499Y-132522473D01*
X112502476Y-132522473D01*
X112429977Y-132474031D01*
X112429976Y-132474030D01*
X112428311Y-132472918D01*
X112300831Y-132420114D01*
X112300828Y-132420113D01*
X112165495Y-132393193D01*
X112165493Y-132393193D01*
X112027507Y-132393193D01*
X112027504Y-132393193D01*
X111924713Y-132413640D01*
X111853999Y-132407312D01*
X111797931Y-132363758D01*
X111774312Y-132296805D01*
X111776551Y-132265487D01*
X111797000Y-132162686D01*
X111797000Y-132024700D01*
X111770080Y-131889365D01*
X111717275Y-131761882D01*
X111717272Y-131761878D01*
X111714358Y-131756425D01*
X111715600Y-131755760D01*
X111696520Y-131694809D01*
X111696500Y-131692568D01*
X111696500Y-130244816D01*
X111715129Y-130181370D01*
X111714359Y-130180959D01*
X111716335Y-130177261D01*
X111716502Y-130176695D01*
X111717242Y-130175564D01*
X111717274Y-130175505D01*
X111717275Y-130175504D01*
X111770080Y-130048021D01*
X111797000Y-129912686D01*
X111797000Y-129774700D01*
X111770080Y-129639365D01*
X111717275Y-129511882D01*
X111717272Y-129511878D01*
X111714358Y-129506425D01*
X111715600Y-129505760D01*
X111696520Y-129444809D01*
X111696500Y-129442568D01*
X111696500Y-129035685D01*
X114530500Y-129035685D01*
X114530500Y-129035688D01*
X114530500Y-129173674D01*
X114557420Y-129309009D01*
X114610225Y-129436492D01*
X114640708Y-129482113D01*
X114686885Y-129551222D01*
X114686890Y-129551228D01*
X114786237Y-129650575D01*
X114820263Y-129712887D01*
X114815198Y-129783702D01*
X114786240Y-129828763D01*
X114774322Y-129840681D01*
X114697662Y-129955412D01*
X114644858Y-130082891D01*
X114644857Y-130082894D01*
X114617937Y-130218227D01*
X114617937Y-130356218D01*
X114633030Y-130432094D01*
X114644857Y-130491551D01*
X114697662Y-130619034D01*
X114713291Y-130642424D01*
X114774322Y-130733764D01*
X114774327Y-130733770D01*
X114871889Y-130831332D01*
X114871895Y-130831337D01*
X114986626Y-130907998D01*
X115114109Y-130960803D01*
X115249444Y-130987723D01*
X115249445Y-130987723D01*
X115387429Y-130987723D01*
X115387430Y-130987723D01*
X115522765Y-130960803D01*
X115650248Y-130907998D01*
X115764979Y-130831337D01*
X115862551Y-130733765D01*
X115939212Y-130619034D01*
X115992017Y-130491551D01*
X116018937Y-130356216D01*
X116018937Y-130218230D01*
X116011523Y-130180959D01*
X116010277Y-130174697D01*
X130496000Y-130174697D01*
X130496000Y-130312688D01*
X130522920Y-130448021D01*
X130522921Y-130448024D01*
X130534303Y-130475503D01*
X130575725Y-130575504D01*
X130604811Y-130619034D01*
X130652385Y-130690234D01*
X130652390Y-130690240D01*
X130749952Y-130787802D01*
X130749958Y-130787807D01*
X130864689Y-130864468D01*
X130992172Y-130917273D01*
X131127507Y-130944193D01*
X131127508Y-130944193D01*
X131265492Y-130944193D01*
X131265493Y-130944193D01*
X131400828Y-130917273D01*
X131528311Y-130864468D01*
X131643042Y-130787807D01*
X131740614Y-130690235D01*
X131817275Y-130575504D01*
X131870080Y-130448021D01*
X131897000Y-130312686D01*
X131897000Y-130174700D01*
X131877108Y-130074697D01*
X134796000Y-130074697D01*
X134796000Y-130212688D01*
X134822920Y-130348021D01*
X134822921Y-130348024D01*
X134831652Y-130369103D01*
X134875725Y-130475504D01*
X134921622Y-130544193D01*
X134952385Y-130590234D01*
X134952390Y-130590240D01*
X135049952Y-130687802D01*
X135049958Y-130687807D01*
X135164689Y-130764468D01*
X135292172Y-130817273D01*
X135427507Y-130844193D01*
X135427508Y-130844193D01*
X135565492Y-130844193D01*
X135565493Y-130844193D01*
X135700828Y-130817273D01*
X135828311Y-130764468D01*
X135943042Y-130687807D01*
X136040614Y-130590235D01*
X136117275Y-130475504D01*
X136170080Y-130348021D01*
X136197000Y-130212686D01*
X136197000Y-130074700D01*
X136170080Y-129939365D01*
X136117275Y-129811882D01*
X136040614Y-129697151D01*
X136040609Y-129697145D01*
X135943047Y-129599583D01*
X135943041Y-129599578D01*
X135888500Y-129563135D01*
X135828311Y-129522918D01*
X135728582Y-129481609D01*
X135700831Y-129470114D01*
X135700828Y-129470113D01*
X135565495Y-129443193D01*
X135565493Y-129443193D01*
X135427507Y-129443193D01*
X135427504Y-129443193D01*
X135292171Y-129470113D01*
X135292168Y-129470114D01*
X135164689Y-129522918D01*
X135049958Y-129599578D01*
X135049952Y-129599583D01*
X134952390Y-129697145D01*
X134952385Y-129697151D01*
X134875725Y-129811882D01*
X134822921Y-129939361D01*
X134822920Y-129939364D01*
X134796000Y-130074697D01*
X131877108Y-130074697D01*
X131870080Y-130039365D01*
X131817275Y-129911882D01*
X131740614Y-129797151D01*
X131740609Y-129797145D01*
X131643047Y-129699583D01*
X131643041Y-129699578D01*
X131587828Y-129662686D01*
X131528311Y-129622918D01*
X131447921Y-129589619D01*
X131400831Y-129570114D01*
X131400828Y-129570113D01*
X131265495Y-129543193D01*
X131265493Y-129543193D01*
X131127507Y-129543193D01*
X131127504Y-129543193D01*
X130992171Y-129570113D01*
X130992168Y-129570114D01*
X130864689Y-129622918D01*
X130749958Y-129699578D01*
X130749952Y-129699583D01*
X130652390Y-129797145D01*
X130652385Y-129797151D01*
X130575725Y-129911882D01*
X130522921Y-130039361D01*
X130522920Y-130039364D01*
X130496000Y-130174697D01*
X116010277Y-130174697D01*
X116001880Y-130132479D01*
X115992017Y-130082895D01*
X115939212Y-129955412D01*
X115862551Y-129840681D01*
X115862546Y-129840675D01*
X115763199Y-129741328D01*
X115729173Y-129679016D01*
X115734238Y-129608201D01*
X115763199Y-129563137D01*
X115775114Y-129551223D01*
X115851775Y-129436492D01*
X115904580Y-129309009D01*
X115931500Y-129173674D01*
X115931500Y-129035688D01*
X115904580Y-128900353D01*
X115851775Y-128772870D01*
X115775114Y-128658139D01*
X115775109Y-128658133D01*
X115677547Y-128560571D01*
X115677541Y-128560566D01*
X115639471Y-128535128D01*
X115562811Y-128483906D01*
X115482421Y-128450607D01*
X115435331Y-128431102D01*
X115435328Y-128431101D01*
X115299995Y-128404181D01*
X115299993Y-128404181D01*
X115162007Y-128404181D01*
X115162004Y-128404181D01*
X115026671Y-128431101D01*
X115026668Y-128431102D01*
X114899189Y-128483906D01*
X114784458Y-128560566D01*
X114784452Y-128560571D01*
X114686890Y-128658133D01*
X114686885Y-128658139D01*
X114610225Y-128772870D01*
X114557421Y-128900349D01*
X114557420Y-128900352D01*
X114530500Y-129035685D01*
X111696500Y-129035685D01*
X111696500Y-127994816D01*
X111715129Y-127931370D01*
X111714359Y-127930959D01*
X111716335Y-127927261D01*
X111716502Y-127926695D01*
X111717242Y-127925564D01*
X111717274Y-127925505D01*
X111717275Y-127925504D01*
X111770080Y-127798021D01*
X111797000Y-127662686D01*
X111797000Y-127524700D01*
X111770080Y-127389365D01*
X111717275Y-127261882D01*
X111717272Y-127261878D01*
X111714358Y-127256425D01*
X111715600Y-127255760D01*
X111696520Y-127194809D01*
X111696500Y-127192568D01*
X111696500Y-126374697D01*
X113196000Y-126374697D01*
X113196000Y-126512688D01*
X113208230Y-126574169D01*
X113222920Y-126648021D01*
X113275725Y-126775504D01*
X113315107Y-126834443D01*
X113352385Y-126890234D01*
X113352390Y-126890240D01*
X113449952Y-126987802D01*
X113449958Y-126987807D01*
X113564689Y-127064468D01*
X113692172Y-127117273D01*
X113827507Y-127144193D01*
X113827508Y-127144193D01*
X113965492Y-127144193D01*
X113965493Y-127144193D01*
X114100828Y-127117273D01*
X114228311Y-127064468D01*
X114343042Y-126987807D01*
X114440614Y-126890235D01*
X114517275Y-126775504D01*
X114570080Y-126648021D01*
X114597000Y-126512686D01*
X114597000Y-126374700D01*
X114570080Y-126239365D01*
X114517275Y-126111882D01*
X114440614Y-125997151D01*
X114440609Y-125997145D01*
X114343047Y-125899583D01*
X114343040Y-125899577D01*
X114228311Y-125822918D01*
X114181347Y-125803465D01*
X125224768Y-125803465D01*
X125224768Y-125941456D01*
X125235847Y-125997151D01*
X125251688Y-126076789D01*
X125304493Y-126204272D01*
X125355715Y-126280932D01*
X125381153Y-126319002D01*
X125381158Y-126319008D01*
X125478720Y-126416570D01*
X125478726Y-126416575D01*
X125593457Y-126493236D01*
X125720940Y-126546041D01*
X125834622Y-126568653D01*
X125862347Y-126574169D01*
X125862010Y-126575860D01*
X125920194Y-126599346D01*
X125961212Y-126657295D01*
X125965698Y-126677910D01*
X125966024Y-126677846D01*
X125985450Y-126775504D01*
X125994152Y-126819253D01*
X126046957Y-126946736D01*
X126074400Y-126987807D01*
X126123617Y-127061466D01*
X126123622Y-127061472D01*
X126221184Y-127159034D01*
X126221190Y-127159039D01*
X126335921Y-127235700D01*
X126463404Y-127288505D01*
X126598739Y-127315425D01*
X126598740Y-127315425D01*
X126736724Y-127315425D01*
X126736725Y-127315425D01*
X126872060Y-127288505D01*
X126999543Y-127235700D01*
X127114274Y-127159039D01*
X127211846Y-127061467D01*
X127288507Y-126946736D01*
X127341312Y-126819253D01*
X127368232Y-126683918D01*
X127368232Y-126545932D01*
X127341312Y-126410597D01*
X127288507Y-126283114D01*
X127211846Y-126168383D01*
X127211841Y-126168377D01*
X127114279Y-126070815D01*
X127114273Y-126070810D01*
X127074437Y-126044193D01*
X126999543Y-125994150D01*
X126919153Y-125960851D01*
X126872063Y-125941346D01*
X126872060Y-125941345D01*
X126730653Y-125913217D01*
X126730988Y-125911530D01*
X126672784Y-125888023D01*
X126631779Y-125830065D01*
X126627302Y-125809475D01*
X126626976Y-125809540D01*
X126613778Y-125743193D01*
X126598848Y-125668133D01*
X126546043Y-125540650D01*
X126469382Y-125425919D01*
X126469377Y-125425913D01*
X126371815Y-125328351D01*
X126371809Y-125328346D01*
X126291523Y-125274701D01*
X126257079Y-125251686D01*
X126176689Y-125218387D01*
X126129599Y-125198882D01*
X126129596Y-125198881D01*
X125994263Y-125171961D01*
X125994261Y-125171961D01*
X125856275Y-125171961D01*
X125856272Y-125171961D01*
X125720939Y-125198881D01*
X125720936Y-125198882D01*
X125593457Y-125251686D01*
X125478726Y-125328346D01*
X125478720Y-125328351D01*
X125381158Y-125425913D01*
X125381153Y-125425919D01*
X125304493Y-125540650D01*
X125251689Y-125668129D01*
X125251688Y-125668132D01*
X125224768Y-125803465D01*
X114181347Y-125803465D01*
X114100831Y-125770114D01*
X114100828Y-125770113D01*
X113965495Y-125743193D01*
X113965493Y-125743193D01*
X113827507Y-125743193D01*
X113827504Y-125743193D01*
X113692171Y-125770113D01*
X113692168Y-125770114D01*
X113564689Y-125822918D01*
X113449958Y-125899578D01*
X113449952Y-125899583D01*
X113352390Y-125997145D01*
X113352385Y-125997151D01*
X113275725Y-126111882D01*
X113222921Y-126239361D01*
X113222920Y-126239364D01*
X113196000Y-126374697D01*
X111696500Y-126374697D01*
X111696500Y-125744816D01*
X111715129Y-125681370D01*
X111714359Y-125680959D01*
X111716335Y-125677261D01*
X111716502Y-125676695D01*
X111717242Y-125675564D01*
X111717274Y-125675505D01*
X111717275Y-125675504D01*
X111770080Y-125548021D01*
X111797000Y-125412686D01*
X111797000Y-125274700D01*
X111770080Y-125139365D01*
X111717275Y-125011882D01*
X111717272Y-125011878D01*
X111714358Y-125006425D01*
X111715600Y-125005760D01*
X111696520Y-124944809D01*
X111696500Y-124942568D01*
X111696500Y-124331004D01*
X118699500Y-124331004D01*
X118699500Y-124468995D01*
X118726420Y-124604328D01*
X118726421Y-124604331D01*
X118736583Y-124628863D01*
X118779225Y-124731811D01*
X118814931Y-124785249D01*
X118855885Y-124846541D01*
X118855890Y-124846547D01*
X118953452Y-124944109D01*
X118953458Y-124944114D01*
X119068189Y-125020775D01*
X119195672Y-125073580D01*
X119331007Y-125100500D01*
X119331008Y-125100500D01*
X119468992Y-125100500D01*
X119468993Y-125100500D01*
X119604328Y-125073580D01*
X119731811Y-125020775D01*
X119846542Y-124944114D01*
X119944114Y-124846542D01*
X120020775Y-124731811D01*
X120073580Y-124604328D01*
X120100500Y-124468993D01*
X120100500Y-124331007D01*
X120073580Y-124195672D01*
X120020775Y-124068189D01*
X119944114Y-123953458D01*
X119944109Y-123953452D01*
X119846547Y-123855890D01*
X119846541Y-123855885D01*
X119808471Y-123830447D01*
X119731811Y-123779225D01*
X119616269Y-123731366D01*
X119604331Y-123726421D01*
X119604328Y-123726420D01*
X119468995Y-123699500D01*
X119468993Y-123699500D01*
X119331007Y-123699500D01*
X119331004Y-123699500D01*
X119195671Y-123726420D01*
X119195668Y-123726421D01*
X119068189Y-123779225D01*
X118953458Y-123855885D01*
X118953452Y-123855890D01*
X118855890Y-123953452D01*
X118855885Y-123953458D01*
X118779225Y-124068189D01*
X118726421Y-124195668D01*
X118726420Y-124195671D01*
X118699500Y-124331004D01*
X111696500Y-124331004D01*
X111696500Y-124076954D01*
X111716502Y-124008833D01*
X111752495Y-123972191D01*
X111845323Y-123910166D01*
X111942895Y-123812594D01*
X112019556Y-123697863D01*
X112072361Y-123570380D01*
X112099281Y-123435045D01*
X112099281Y-123374697D01*
X115196000Y-123374697D01*
X115196000Y-123512688D01*
X115199644Y-123531007D01*
X115222920Y-123648021D01*
X115275725Y-123775504D01*
X115294985Y-123804328D01*
X115352385Y-123890234D01*
X115352390Y-123890240D01*
X115449952Y-123987802D01*
X115449958Y-123987807D01*
X115564689Y-124064468D01*
X115692172Y-124117273D01*
X115827507Y-124144193D01*
X115827508Y-124144193D01*
X115965492Y-124144193D01*
X115965493Y-124144193D01*
X116100828Y-124117273D01*
X116228311Y-124064468D01*
X116343042Y-123987807D01*
X116440614Y-123890235D01*
X116517275Y-123775504D01*
X116570080Y-123648021D01*
X116593356Y-123531004D01*
X124049500Y-123531004D01*
X124049500Y-123668995D01*
X124071427Y-123779225D01*
X124076420Y-123804328D01*
X124129225Y-123931811D01*
X124180447Y-124008471D01*
X124205885Y-124046541D01*
X124205890Y-124046547D01*
X124303452Y-124144109D01*
X124303458Y-124144114D01*
X124418189Y-124220775D01*
X124545672Y-124273580D01*
X124681007Y-124300500D01*
X124681008Y-124300500D01*
X124818992Y-124300500D01*
X124818993Y-124300500D01*
X124954328Y-124273580D01*
X125081811Y-124220775D01*
X125196542Y-124144114D01*
X125294114Y-124046542D01*
X125370775Y-123931811D01*
X125371109Y-123931004D01*
X127749500Y-123931004D01*
X127749500Y-124068995D01*
X127776420Y-124204328D01*
X127776421Y-124204331D01*
X127786033Y-124227537D01*
X127829225Y-124331811D01*
X127880447Y-124408471D01*
X127905885Y-124446541D01*
X127905890Y-124446547D01*
X128003452Y-124544109D01*
X128003458Y-124544114D01*
X128118189Y-124620775D01*
X128245672Y-124673580D01*
X128381007Y-124700500D01*
X128381008Y-124700500D01*
X128518992Y-124700500D01*
X128518993Y-124700500D01*
X128654328Y-124673580D01*
X128781811Y-124620775D01*
X128896542Y-124544114D01*
X128994114Y-124446542D01*
X129070775Y-124331811D01*
X129123580Y-124204328D01*
X129150500Y-124068993D01*
X129150500Y-123931007D01*
X129123580Y-123795672D01*
X129070775Y-123668189D01*
X128994114Y-123553458D01*
X128994109Y-123553452D01*
X128898699Y-123458042D01*
X132526539Y-123458042D01*
X132526539Y-123596033D01*
X132546795Y-123697863D01*
X132553459Y-123731366D01*
X132606264Y-123858849D01*
X132654477Y-123931004D01*
X132682924Y-123973579D01*
X132682929Y-123973585D01*
X132780491Y-124071147D01*
X132780497Y-124071152D01*
X132895228Y-124147813D01*
X133022711Y-124200618D01*
X133158046Y-124227538D01*
X133158047Y-124227538D01*
X133296031Y-124227538D01*
X133296032Y-124227538D01*
X133431367Y-124200618D01*
X133558850Y-124147813D01*
X133673581Y-124071152D01*
X133771153Y-123973580D01*
X133847814Y-123858849D01*
X133900619Y-123731366D01*
X133927539Y-123596031D01*
X133927539Y-123458045D01*
X133900619Y-123322710D01*
X133847814Y-123195227D01*
X133771153Y-123080496D01*
X133771148Y-123080490D01*
X133673586Y-122982928D01*
X133673580Y-122982923D01*
X133609540Y-122940133D01*
X133558850Y-122906263D01*
X133454066Y-122862860D01*
X133431370Y-122853459D01*
X133431367Y-122853458D01*
X133296034Y-122826538D01*
X133296032Y-122826538D01*
X133158046Y-122826538D01*
X133158043Y-122826538D01*
X133022710Y-122853458D01*
X133022707Y-122853459D01*
X132895228Y-122906263D01*
X132780497Y-122982923D01*
X132780491Y-122982928D01*
X132682929Y-123080490D01*
X132682924Y-123080496D01*
X132606264Y-123195227D01*
X132553460Y-123322706D01*
X132553459Y-123322709D01*
X132526539Y-123458042D01*
X128898699Y-123458042D01*
X128896547Y-123455890D01*
X128896541Y-123455885D01*
X128836052Y-123415468D01*
X128781811Y-123379225D01*
X128668070Y-123332112D01*
X128654331Y-123326421D01*
X128654328Y-123326420D01*
X128518995Y-123299500D01*
X128518993Y-123299500D01*
X128381007Y-123299500D01*
X128381004Y-123299500D01*
X128245671Y-123326420D01*
X128245668Y-123326421D01*
X128118189Y-123379225D01*
X128003458Y-123455885D01*
X128003452Y-123455890D01*
X127905890Y-123553452D01*
X127905885Y-123553458D01*
X127829225Y-123668189D01*
X127776421Y-123795668D01*
X127776420Y-123795671D01*
X127749500Y-123931004D01*
X125371109Y-123931004D01*
X125423580Y-123804328D01*
X125450500Y-123668993D01*
X125450500Y-123531007D01*
X125423580Y-123395672D01*
X125370775Y-123268189D01*
X125294114Y-123153458D01*
X125294109Y-123153452D01*
X125196547Y-123055890D01*
X125196541Y-123055885D01*
X125153667Y-123027238D01*
X125081811Y-122979225D01*
X124987434Y-122940133D01*
X124954331Y-122926421D01*
X124954328Y-122926420D01*
X124818995Y-122899500D01*
X124818993Y-122899500D01*
X124681007Y-122899500D01*
X124681004Y-122899500D01*
X124545671Y-122926420D01*
X124545668Y-122926421D01*
X124418189Y-122979225D01*
X124303458Y-123055885D01*
X124303452Y-123055890D01*
X124205890Y-123153452D01*
X124205885Y-123153458D01*
X124129225Y-123268189D01*
X124076421Y-123395668D01*
X124076420Y-123395671D01*
X124049500Y-123531004D01*
X116593356Y-123531004D01*
X116597000Y-123512686D01*
X116597000Y-123374700D01*
X116570080Y-123239365D01*
X116517275Y-123111882D01*
X116440614Y-122997151D01*
X116440609Y-122997145D01*
X116343047Y-122899583D01*
X116343041Y-122899578D01*
X116288088Y-122862860D01*
X116228311Y-122822918D01*
X116104884Y-122771793D01*
X116100831Y-122770114D01*
X116100828Y-122770113D01*
X115965495Y-122743193D01*
X115965493Y-122743193D01*
X115827507Y-122743193D01*
X115827504Y-122743193D01*
X115692171Y-122770113D01*
X115692168Y-122770114D01*
X115564689Y-122822918D01*
X115449958Y-122899578D01*
X115449952Y-122899583D01*
X115352390Y-122997145D01*
X115352385Y-122997151D01*
X115275725Y-123111882D01*
X115222921Y-123239361D01*
X115222920Y-123239364D01*
X115196000Y-123374697D01*
X112099281Y-123374697D01*
X112099281Y-123297059D01*
X112072361Y-123161724D01*
X112019556Y-123034241D01*
X111942895Y-122919510D01*
X111942890Y-122919504D01*
X111845326Y-122821940D01*
X111752497Y-122759913D01*
X111706970Y-122705435D01*
X111696500Y-122655148D01*
X111696500Y-120131004D01*
X128049500Y-120131004D01*
X128049500Y-120268995D01*
X128076420Y-120404328D01*
X128076421Y-120404331D01*
X128091626Y-120441038D01*
X128129225Y-120531811D01*
X128180447Y-120608471D01*
X128205885Y-120646541D01*
X128205890Y-120646547D01*
X128303452Y-120744109D01*
X128303458Y-120744114D01*
X128418189Y-120820775D01*
X128545672Y-120873580D01*
X128681007Y-120900500D01*
X128681008Y-120900500D01*
X128818992Y-120900500D01*
X128818993Y-120900500D01*
X128954328Y-120873580D01*
X129081811Y-120820775D01*
X129196542Y-120744114D01*
X129282391Y-120658264D01*
X129344701Y-120624241D01*
X129415517Y-120629305D01*
X129472353Y-120671851D01*
X129476250Y-120677359D01*
X129555885Y-120796541D01*
X129555890Y-120796547D01*
X129653452Y-120894109D01*
X129653458Y-120894114D01*
X129768189Y-120970775D01*
X129895672Y-121023580D01*
X130031007Y-121050500D01*
X130031008Y-121050500D01*
X130168992Y-121050500D01*
X130168993Y-121050500D01*
X130304328Y-121023580D01*
X130431811Y-120970775D01*
X130546542Y-120894114D01*
X130644114Y-120796542D01*
X130720775Y-120681811D01*
X130773580Y-120554328D01*
X130775372Y-120545317D01*
X130808278Y-120482408D01*
X130869973Y-120447276D01*
X130940868Y-120451075D01*
X130947170Y-120453490D01*
X130995663Y-120473577D01*
X130995667Y-120473578D01*
X130995672Y-120473580D01*
X131131007Y-120500500D01*
X131131008Y-120500500D01*
X131268992Y-120500500D01*
X131268993Y-120500500D01*
X131404328Y-120473580D01*
X131531811Y-120420775D01*
X131646542Y-120344114D01*
X131744114Y-120246542D01*
X131820775Y-120131811D01*
X131873580Y-120004328D01*
X131900500Y-119868993D01*
X131900500Y-119731007D01*
X131873580Y-119595672D01*
X131850186Y-119539193D01*
X131843493Y-119523035D01*
X131840992Y-119516999D01*
X131826083Y-119481004D01*
X138949500Y-119481004D01*
X138949500Y-119618995D01*
X138971781Y-119731007D01*
X138976420Y-119754328D01*
X139029225Y-119881811D01*
X139058590Y-119925759D01*
X139105885Y-119996541D01*
X139105890Y-119996547D01*
X139203452Y-120094109D01*
X139203458Y-120094114D01*
X139318189Y-120170775D01*
X139445672Y-120223580D01*
X139581007Y-120250500D01*
X139581008Y-120250500D01*
X139718992Y-120250500D01*
X139718993Y-120250500D01*
X139854328Y-120223580D01*
X139981811Y-120170775D01*
X140096542Y-120094114D01*
X140194114Y-119996542D01*
X140270775Y-119881811D01*
X140323580Y-119754328D01*
X140350500Y-119618993D01*
X140350500Y-119481007D01*
X140323580Y-119345672D01*
X140270775Y-119218189D01*
X140194114Y-119103458D01*
X140194109Y-119103452D01*
X140096547Y-119005890D01*
X140096541Y-119005885D01*
X140058471Y-118980447D01*
X139981811Y-118929225D01*
X139901421Y-118895926D01*
X139854331Y-118876421D01*
X139854328Y-118876420D01*
X139718995Y-118849500D01*
X139718993Y-118849500D01*
X139581007Y-118849500D01*
X139581004Y-118849500D01*
X139445671Y-118876420D01*
X139445668Y-118876421D01*
X139318189Y-118929225D01*
X139203458Y-119005885D01*
X139203452Y-119005890D01*
X139105890Y-119103452D01*
X139105885Y-119103458D01*
X139029225Y-119218189D01*
X138976421Y-119345668D01*
X138976420Y-119345671D01*
X138949500Y-119481004D01*
X131826083Y-119481004D01*
X131820775Y-119468189D01*
X131744114Y-119353458D01*
X131744109Y-119353452D01*
X131646547Y-119255890D01*
X131646541Y-119255885D01*
X131608471Y-119230447D01*
X131531811Y-119179225D01*
X131417343Y-119131811D01*
X131404331Y-119126421D01*
X131404328Y-119126420D01*
X131268995Y-119099500D01*
X131268993Y-119099500D01*
X131131007Y-119099500D01*
X131131004Y-119099500D01*
X130995671Y-119126420D01*
X130995668Y-119126421D01*
X130868189Y-119179225D01*
X130753458Y-119255885D01*
X130753452Y-119255890D01*
X130655890Y-119353452D01*
X130655885Y-119353458D01*
X130579225Y-119468189D01*
X130526421Y-119595668D01*
X130526417Y-119595680D01*
X130524625Y-119604690D01*
X130491714Y-119667598D01*
X130430017Y-119702726D01*
X130359122Y-119698921D01*
X130352830Y-119696510D01*
X130304331Y-119676421D01*
X130304328Y-119676420D01*
X130168995Y-119649500D01*
X130168993Y-119649500D01*
X130031007Y-119649500D01*
X130031004Y-119649500D01*
X129895671Y-119676420D01*
X129895668Y-119676421D01*
X129768189Y-119729225D01*
X129653458Y-119805885D01*
X129567609Y-119891734D01*
X129505297Y-119925759D01*
X129434481Y-119920693D01*
X129377645Y-119878146D01*
X129373749Y-119872640D01*
X129294114Y-119753458D01*
X129294109Y-119753452D01*
X129196547Y-119655890D01*
X129196541Y-119655885D01*
X129141325Y-119618991D01*
X129081811Y-119579225D01*
X128985165Y-119539193D01*
X128954331Y-119526421D01*
X128954328Y-119526420D01*
X128818995Y-119499500D01*
X128818993Y-119499500D01*
X128681007Y-119499500D01*
X128681004Y-119499500D01*
X128545671Y-119526420D01*
X128545668Y-119526421D01*
X128418189Y-119579225D01*
X128303458Y-119655885D01*
X128303452Y-119655890D01*
X128205890Y-119753452D01*
X128205885Y-119753458D01*
X128129225Y-119868189D01*
X128076421Y-119995668D01*
X128076420Y-119995671D01*
X128049500Y-120131004D01*
X111696500Y-120131004D01*
X111696500Y-116976193D01*
X111716502Y-116908072D01*
X111770158Y-116861579D01*
X111822500Y-116850193D01*
X111865213Y-116850193D01*
X111865214Y-116850193D01*
X112000549Y-116823273D01*
X112128032Y-116770468D01*
X112242763Y-116693807D01*
X112340335Y-116596235D01*
X112416996Y-116481504D01*
X112469801Y-116354021D01*
X112496721Y-116218686D01*
X112496721Y-116080700D01*
X112469801Y-115945365D01*
X112416996Y-115817882D01*
X112340335Y-115703151D01*
X112340330Y-115703145D01*
X112242768Y-115605583D01*
X112242762Y-115605578D01*
X112204692Y-115580140D01*
X112128032Y-115528918D01*
X112047642Y-115495619D01*
X112000552Y-115476114D01*
X112000549Y-115476113D01*
X111865216Y-115449193D01*
X111865214Y-115449193D01*
X111822500Y-115449193D01*
X111754379Y-115429191D01*
X111707886Y-115375535D01*
X111696500Y-115323193D01*
X111696500Y-114343693D01*
X111696499Y-114343692D01*
X110293102Y-114011055D01*
X110231431Y-113975881D01*
X110198566Y-113912950D01*
X110204942Y-113842240D01*
X110248535Y-113786202D01*
X110297578Y-113764873D01*
X110349328Y-113754580D01*
X110476811Y-113701775D01*
X110591542Y-113625114D01*
X110689114Y-113527542D01*
X110765775Y-113412811D01*
X110818580Y-113285328D01*
X110845500Y-113149993D01*
X110845500Y-113012007D01*
X110818580Y-112876672D01*
X110765775Y-112749189D01*
X110689114Y-112634458D01*
X110689109Y-112634452D01*
X110591547Y-112536890D01*
X110591541Y-112536885D01*
X110521646Y-112490183D01*
X110476811Y-112460225D01*
X110396421Y-112426926D01*
X110349331Y-112407421D01*
X110349328Y-112407420D01*
X110213995Y-112380500D01*
X110213993Y-112380500D01*
X110076007Y-112380500D01*
X110076004Y-112380500D01*
X109940671Y-112407420D01*
X109940668Y-112407421D01*
X109813189Y-112460225D01*
X109698458Y-112536885D01*
X109698452Y-112536890D01*
X109600890Y-112634452D01*
X109600885Y-112634458D01*
X109524225Y-112749189D01*
X109471421Y-112876668D01*
X109471420Y-112876671D01*
X109444500Y-113012004D01*
X109444500Y-113012007D01*
X109444500Y-113149993D01*
X109471420Y-113285328D01*
X109524225Y-113412811D01*
X109575447Y-113489471D01*
X109600885Y-113527541D01*
X109600890Y-113527547D01*
X109702834Y-113629491D01*
X109701624Y-113630700D01*
X109736983Y-113682592D01*
X109738894Y-113753563D01*
X109702132Y-113814301D01*
X109638368Y-113845522D01*
X109588026Y-113843935D01*
X101373250Y-111896846D01*
X92937668Y-109897420D01*
X92446509Y-109781004D01*
X100749500Y-109781004D01*
X100749500Y-109918995D01*
X100776420Y-110054327D01*
X100776420Y-110054328D01*
X100829225Y-110181811D01*
X100880447Y-110258471D01*
X100905885Y-110296541D01*
X100905890Y-110296547D01*
X101003452Y-110394109D01*
X101003458Y-110394114D01*
X101118189Y-110470775D01*
X101245672Y-110523580D01*
X101381007Y-110550500D01*
X101381008Y-110550500D01*
X101518992Y-110550500D01*
X101518993Y-110550500D01*
X101654328Y-110523580D01*
X101781811Y-110470775D01*
X101896542Y-110394114D01*
X101994114Y-110296542D01*
X102070775Y-110181811D01*
X102123580Y-110054328D01*
X102137143Y-109986139D01*
X102170050Y-109923231D01*
X102231745Y-109888099D01*
X102236122Y-109887146D01*
X102304328Y-109873580D01*
X102431811Y-109820775D01*
X102546542Y-109744114D01*
X102644114Y-109646542D01*
X102720775Y-109531811D01*
X102773580Y-109404328D01*
X102800500Y-109268993D01*
X102800500Y-109131007D01*
X102773580Y-108995672D01*
X102720775Y-108868189D01*
X102644114Y-108753458D01*
X102644109Y-108753452D01*
X102546547Y-108655890D01*
X102546541Y-108655885D01*
X102508471Y-108630447D01*
X102431811Y-108579225D01*
X102351421Y-108545926D01*
X102304331Y-108526421D01*
X102304328Y-108526420D01*
X102168995Y-108499500D01*
X102168993Y-108499500D01*
X102031007Y-108499500D01*
X102031004Y-108499500D01*
X101895671Y-108526420D01*
X101895668Y-108526421D01*
X101768189Y-108579225D01*
X101653458Y-108655885D01*
X101653452Y-108655890D01*
X101555890Y-108753452D01*
X101555885Y-108753458D01*
X101479225Y-108868189D01*
X101426421Y-108995668D01*
X101426420Y-108995669D01*
X101412856Y-109063860D01*
X101379947Y-109126769D01*
X101318252Y-109161900D01*
X101313860Y-109162856D01*
X101245669Y-109176420D01*
X101245668Y-109176421D01*
X101118189Y-109229225D01*
X101003458Y-109305885D01*
X101003452Y-109305890D01*
X100905890Y-109403452D01*
X100905885Y-109403458D01*
X100829225Y-109518189D01*
X100776421Y-109645668D01*
X100776420Y-109645671D01*
X100749500Y-109781004D01*
X92446509Y-109781004D01*
X91579306Y-109575457D01*
X91517635Y-109540283D01*
X91509334Y-109530756D01*
X91303425Y-109268995D01*
X91079682Y-108984564D01*
X91053287Y-108918657D01*
X91052717Y-108906047D01*
X91062836Y-106881004D01*
X101549500Y-106881004D01*
X101549500Y-106881007D01*
X101549500Y-107018993D01*
X101576420Y-107154328D01*
X101629225Y-107281811D01*
X101680447Y-107358471D01*
X101705885Y-107396541D01*
X101705890Y-107396547D01*
X101803452Y-107494109D01*
X101803458Y-107494114D01*
X101918189Y-107570775D01*
X102045672Y-107623580D01*
X102181007Y-107650500D01*
X102181008Y-107650500D01*
X102318992Y-107650500D01*
X102318993Y-107650500D01*
X102454328Y-107623580D01*
X102581811Y-107570775D01*
X102696542Y-107494114D01*
X102794114Y-107396542D01*
X102870775Y-107281811D01*
X102923580Y-107154328D01*
X102950500Y-107018993D01*
X102950500Y-106881007D01*
X102923580Y-106745672D01*
X102870775Y-106618189D01*
X102794114Y-106503458D01*
X102794109Y-106503452D01*
X102696547Y-106405890D01*
X102696541Y-106405885D01*
X102658471Y-106380447D01*
X102581811Y-106329225D01*
X102501421Y-106295926D01*
X102454331Y-106276421D01*
X102454328Y-106276420D01*
X102318995Y-106249500D01*
X102318993Y-106249500D01*
X102181007Y-106249500D01*
X102181004Y-106249500D01*
X102045671Y-106276420D01*
X102045668Y-106276421D01*
X101918189Y-106329225D01*
X101803458Y-106405885D01*
X101803452Y-106405890D01*
X101705890Y-106503452D01*
X101705885Y-106503458D01*
X101629225Y-106618189D01*
X101576421Y-106745668D01*
X101576420Y-106745671D01*
X101549500Y-106881004D01*
X91062836Y-106881004D01*
X91093742Y-100695692D01*
X91114084Y-100627673D01*
X91130864Y-100607008D01*
X91559634Y-100180374D01*
X91622031Y-100146506D01*
X91648507Y-100143693D01*
X108451610Y-100143693D01*
X108519731Y-100163695D01*
G37*
G04 #@! TD.AperFunction*
M02*
