#VRML V2.0 utf8
# 3D model generated by easyeda2kicad.py (https://github.com/uPesy/easyeda2kicad.py)

Shape{
    appearance Appearance {
        material  Material 	{
            diffuseColor 0.25098039215686274 0.25098039215686274 0.25098039215686274
            specularColor 0.12549019607843137 0.12549019607843137 0.12549019607843137
            ambientIntensity 0.2
            transparency 0
            shininess 0.5
        }
    }
    geometry IndexedFaceSet {
        ccw TRUE
        solid FALSE
        coord DEF co Coordinate {
            point [
                -0.6496 0.0787 0.3937, -0.7579 0.3824 0.3937, -0.7579 0.4218 0.3937, -0.8957 0.3824 0.3937, -1.0236 0.0787 0.3937, -0.8957 0.4218 0.3937, -1.0236 1.0433 0.3937, -0.6496 1.0433 0.3937, 0.8957 0.4218 0.3937, 1.0236 1.0433 0.3937, 1.0236 0.0787 0.3937, 0.6496 1.0433 0.3937, 0.7579 0.4218 0.3937, 0.6496 0.0787 0.3937, 0.7579 0.3824 0.3937, 0.8957 0.3824 0.3937, 1.0236 0.0787 0.7874, -1.0236 0.0787 0.7874, -0.6496 0.0787 0.374, 0.6496 0.0787 0.374, -0.6225 1.0433 0.7357, -0.8588 1.0433 0.7357, -1.0236 1.0433 0.7874, -0.8588 1.0433 0.4207, 0.8588 1.0433 0.4207, 0.8588 1.0433 0.7357, 1.0236 1.0433 0.7874, 0.6225 1.0433 0.7357, -0.6225 1.0433 0.4207, 0.6225 1.0433 0.4207, -0.6496 1.0433 -0.0394, 0.6496 1.0433 -0.0394, -0.6496 0.374 -0.0394, -0.5906 0.315 -0.0394, 0.5906 0.315 -0.0394, 0.6496 0.374 -0.0394, 0.6496 0.374 0.374, 0.8271 1.1614 0.4524, 0.8271 1.1614 0.7041, 0.6542 1.1614 0.4524, 0.6542 1.1614 0.7041, -0.6496 0.374 0.374, -0.8271 1.1614 0.7041, -0.8271 1.1614 0.4524, -0.6542 1.1614 0.7041, -0.6542 1.1614 0.4524, -0.5906 0.315 0.374, 0.5906 0.315 0.374, 0.5906 0.315 0.374
            ]
        }
        coordIndex [
            0,1,2,-1,1,0,3,-1,3,0,4,-1,3,4,5,-1,5,4,6,-1,5,6,2,-1,2,6,7,-1,2,7,0,-1,8,9,10,-1,9,8,11,-1,11,8,12,-1,11,12,13,-1,13,12,14,-1,13,14,10,-1,10,14,15,-1,10,15,8,-1,13,10,16,-1,17,4,0,-1,18,19,0,-1,0,19,13,-1,0,13,17,-1,17,13,16,-1,20,21,22,-1,22,21,6,-1,6,21,23,-1,6,23,7,-1,24,25,26,-1,26,25,27,-1,22,26,20,-1,20,26,27,-1,20,27,28,-1,28,27,29,-1,26,9,24,-1,24,9,11,-1,24,11,29,-1,23,28,7,-1,7,28,29,-1,7,29,30,-1,30,29,11,-1,30,11,31,-1,17,22,4,-1,4,22,6,-1,32,30,33,-1,33,30,31,-1,33,31,34,-1,34,31,35,-1,9,26,10,-1,10,26,16,-1,26,22,16,-1,16,22,17,-1,13,19,36,-1,35,31,36,-1,36,31,11,-1,36,11,13,-1,37,38,24,-1,24,38,25,-1,39,37,29,-1,29,37,24,-1,40,39,27,-1,27,39,29,-1,38,40,25,-1,25,40,27,-1,39,40,37,-1,37,40,38,-1,18,0,41,-1,41,0,7,-1,41,7,32,-1,32,7,30,-1,42,43,21,-1,21,43,23,-1,44,42,20,-1,20,42,21,-1,45,44,28,-1,28,44,20,-1,43,45,23,-1,23,45,28,-1,44,45,42,-1,42,45,43,-1,33,34,46,-1,46,34,47,-1,18,41,46,-1,18,46,19,-1,19,46,47,-1,19,47,36,-1,
        ]
    }
}
Shape{
    appearance Appearance {
        material  Material 	{
            diffuseColor 0.7529411764705882 0.7529411764705882 0.7529411764705882
            specularColor 0.3764705882352941 0.3764705882352941 0.3764705882352941
            ambientIntensity 0.2
            transparency 0
            shininess 0.5
        }
    }
    geometry IndexedFaceSet {
        ccw TRUE
        solid FALSE
        coord DEF co Coordinate {
            point [
                0.8957 0.4218 0.3937, 0.8957 0.3824 0.3937, 0.8957 0.4198 0.3784, 0.8957 0.3819 0.3893, 0.8957 0.4139 0.3642, 0.8957 0.3805 0.3852, 0.8957 0.4045 0.3519, 0.8957 0.1068 0.374, 0.8957 0.1068 0.3346, 0.8957 0.3627 0.374, 0.8957 0.3627 0.3346, 0.8957 0.3671 0.3745, 0.8957 0.378 0.3367, 0.8957 0.3713 0.376, 0.8957 0.3923 0.3426, 0.8957 0.375 0.3783, 0.8957 0.3781 0.3814, 0.7579 0.3824 0.3937, 0.7579 0.4218 0.3937, 0.7579 0.3819 0.3893, 0.7579 0.4198 0.3784, 0.7579 0.3805 0.3852, 0.7579 0.4139 0.3642, 0.7579 0.3781 0.3814, 0.7579 0.4045 0.3519, 0.7579 0.1068 0.3346, 0.7579 0.1068 0.374, 0.7579 0.3627 0.3346, 0.7579 0.3627 0.374, 0.7579 0.378 0.3367, 0.7579 0.3671 0.3745, 0.7579 0.3923 0.3426, 0.7579 0.3713 0.376, 0.7579 0.375 0.3783, -0.8957 0.3627 0.374, -0.8957 0.1068 0.374, -0.7579 0.3627 0.374, -0.7579 0.1068 0.374, -0.8957 0.3671 0.3745, -0.7579 0.3671 0.3745, -0.8957 0.3713 0.376, -0.7579 0.3713 0.376, -0.8957 0.375 0.3783, -0.7579 0.375 0.3783, -0.8957 0.3781 0.3814, -0.7579 0.3781 0.3814, -0.8957 0.3805 0.3852, -0.7579 0.3805 0.3852, -0.8957 0.3819 0.3893, -0.7579 0.3819 0.3893, -0.8957 0.3824 0.3937, -0.7579 0.3824 0.3937, -0.8957 0.4218 0.3937, -0.7579 0.4218 0.3937, -0.7579 0.4198 0.3784, -0.8957 0.4198 0.3784, -0.7579 0.4139 0.3642, -0.8957 0.4139 0.3642, -0.7579 0.4045 0.3519, -0.8957 0.4045 0.3519, -0.7579 0.3923 0.3426, -0.8957 0.3923 0.3426, -0.7579 0.378 0.3367, -0.8957 0.378 0.3367, -0.7579 0.3627 0.3346, -0.8957 0.3627 0.3346, -0.8957 0.1068 0.3346, -0.7579 0.1068 0.3346, -0.7579 0.1068 0.3346
            ]
        }
        coordIndex [
            0,1,2,-1,2,1,3,-1,2,3,4,-1,4,3,5,-1,4,5,6,-1,7,8,9,-1,9,8,10,-1,9,10,11,-1,11,10,12,-1,11,12,13,-1,13,12,14,-1,13,14,15,-1,15,14,6,-1,15,6,16,-1,16,6,5,-1,17,18,19,-1,19,18,20,-1,19,20,21,-1,21,20,22,-1,21,22,23,-1,23,22,24,-1,25,26,27,-1,27,26,28,-1,27,28,29,-1,29,28,30,-1,29,30,31,-1,31,30,32,-1,31,32,24,-1,24,32,33,-1,24,33,23,-1,7,9,26,-1,26,9,28,-1,8,7,25,-1,25,7,26,-1,10,8,27,-1,27,8,25,-1,10,27,29,-1,10,29,12,-1,12,29,31,-1,12,31,14,-1,14,31,24,-1,14,24,6,-1,6,24,22,-1,6,22,4,-1,4,22,20,-1,4,20,2,-1,2,20,18,-1,2,18,0,-1,1,17,3,-1,3,17,19,-1,3,19,5,-1,5,19,21,-1,5,21,16,-1,16,21,23,-1,16,23,15,-1,15,23,33,-1,15,33,13,-1,13,33,32,-1,13,32,11,-1,11,32,30,-1,11,30,9,-1,9,30,28,-1,34,35,36,-1,36,35,37,-1,34,36,38,-1,38,36,39,-1,38,39,40,-1,40,39,41,-1,40,41,42,-1,42,41,43,-1,42,43,44,-1,44,43,45,-1,44,45,46,-1,46,45,47,-1,46,47,48,-1,48,47,49,-1,48,49,50,-1,50,49,51,-1,52,53,54,-1,52,54,55,-1,55,54,56,-1,55,56,57,-1,57,56,58,-1,57,58,59,-1,59,58,60,-1,59,60,61,-1,61,60,62,-1,61,62,63,-1,63,62,64,-1,63,64,65,-1,66,65,67,-1,67,65,64,-1,35,66,37,-1,37,66,67,-1,50,52,48,-1,48,52,55,-1,48,55,46,-1,46,55,57,-1,46,57,44,-1,44,57,59,-1,66,35,65,-1,65,35,34,-1,65,34,63,-1,63,34,38,-1,63,38,61,-1,61,38,40,-1,61,40,59,-1,59,40,42,-1,59,42,44,-1,53,51,54,-1,54,51,49,-1,54,49,56,-1,56,49,47,-1,56,47,58,-1,37,67,36,-1,36,67,64,-1,36,64,39,-1,39,64,62,-1,39,62,41,-1,41,62,60,-1,41,60,43,-1,43,60,58,-1,43,58,45,-1,45,58,47,-1,
        ]
    }
}
Shape{
    appearance Appearance {
        material  Material 	{
            diffuseColor 0.25098039215686274 0.25098039215686274 0.25098039215686274
            specularColor 0.12549019607843137 0.12549019607843137 0.12549019607843137
            ambientIntensity 0.2
            transparency 0
            shininess 0.5
        }
    }
    geometry IndexedFaceSet {
        ccw TRUE
        solid FALSE
        coord DEF co Coordinate {
            point [
                -0.6496 0.374 -0.0394, -0.5906 0.315 -0.0394, -0.6496 0.374 0.374, -0.5906 0.315 0.374, 0.5906 0.315 -0.0394, 0.6496 0.374 -0.0394, 0.5906 0.315 0.374, 0.6496 0.374 0.374, 0.6496 0.374 0.374
            ]
        }
        coordIndex [
            0,1,2,-1,2,1,3,-1,4,5,6,-1,6,5,7,-1,
        ]
    }
}
Shape{
    appearance Appearance {
        material  Material 	{
            diffuseColor 0.7529411764705882 0.7529411764705882 0.7529411764705882
            specularColor 0.3764705882352941 0.3764705882352941 0.3764705882352941
            ambientIntensity 0.2
            transparency 0
            shininess 0.5
        }
    }
    geometry IndexedFaceSet {
        ccw TRUE
        solid FALSE
        coord DEF co Coordinate {
            point [
                0.0197 -0.0 0.7874, 0.0197 -0.0 0.7445, 0.4221 -0.0 0.7445, 0.55 -0.0 0.6786, 0.5506 -0.0 0.6736, 0.5516 -0.0 0.6919, 0.442 -0.0 0.6916, 0.442 -0.0 0.6588, 0.4568 -0.0 0.6588, 0.5964 -0.0 0.6198, 0.597 -0.0 0.6148, 0.5981 -0.0 0.6434, 0.4221 -0.0 0.5954, 0.4221 -0.0 0.5807, 0.4578 -0.0 0.5807, 0.5598 -0.0 0.5957, 0.5516 -0.0 0.5957, 0.5516 -0.0 0.5954, 0.4743 -0.0 0.5961, 0.4726 -0.0 0.5954, 0.4783 -0.0 0.5957, 0.472 -0.0 0.6916, 0.4747 -0.0 0.6919, 0.46 -0.0 0.6919, 0.3605 -0.0 0.6919, 0.3666 -0.0 0.6879, 0.4221 -0.0 0.6919, 0.3753 -0.0 0.6777, 0.4048 -0.0 0.6434, 0.4221 -0.0 0.6434, 0.4025 -0.0 0.6492, 0.3971 -0.0 0.6567, 0.3899 -0.0 0.6627, 0.3808 -0.0 0.667, 0.3821 -0.0 0.6666, 0.3418 -0.0 0.7004, 0.355 -0.0 0.6957, 0.3307 -0.0 0.7016, 0.3177 -0.0 0.7, 0.3055 -0.0 0.6953, 0.3001 -0.0 0.6919, 0.0197 -0.0 0.6919, 0.2991 -0.0 0.6913, 0.2448 -0.0 0.6594, 0.2511 -0.0 0.6676, 0.2711 -0.0 0.6789, 0.2814 -0.0 0.6802, 0.2929 -0.0 0.686, 0.2845 -0.0 0.6801, 0.2875 -0.0 0.6797, 0.2529 -0.0 0.6693, 0.2613 -0.0 0.6751, 0.258 -0.0 0.6018, 0.2498 -0.0 0.6088, 0.0197 -0.0 0.5954, 0.2676 -0.0 0.5971, 0.2438 -0.0 0.6174, 0.24 -0.0 0.6272, 0.0197 -0.0 0.6434, 0.2387 -0.0 0.6375, 0.2388 -0.0 0.64, 0.2394 -0.0 0.6434, 0.2406 -0.0 0.6499, 0.2709 -0.0 0.5961, 0.2712 -0.0 0.5954, 0.2735 -0.0 0.5905, 0.2775 -0.0 0.5856, 0.0197 -0.0 0.3346, 0.315 -0.0 0.3346, 0.0197 -0.0 0.5807, 0.315 -0.0 0.4724, 0.3023 -0.0 0.579, 0.2959 -0.0 0.5782, 0.2949 -0.0 0.5782, 0.2887 -0.0 0.5792, 0.285 -0.0 0.5807, 0.2826 -0.0 0.5818, 0.3206 -0.0 0.5954, 0.3206 -0.0 0.5953, 0.3175 -0.0 0.5894, 0.3135 -0.0 0.5849, 0.3082 -0.0 0.5813, 0.3068 -0.0 0.5807, 0.3543 -0.0 0.611, 0.3561 -0.0 0.6117, 0.3592 -0.0 0.6267, 0.3971 -0.0 0.6075, 0.39 -0.0 0.6014, 0.3157 -0.0 0.6222, 0.351 -0.0 0.6407, 0.3111 -0.0 0.6264, 0.3055 -0.0 0.6294, 0.3527 -0.0 0.6098, 0.4024 -0.0 0.6148, 0.3904 -0.0 0.6346, 0.3892 -0.0 0.6397, 0.3872 -0.0 0.6434, 0.256 -0.0 0.6434, 0.4057 -0.0 0.6411, 0.4069 -0.0 0.6325, 0.4057 -0.0 0.6231, 0.3581 -0.0 0.612, 0.3584 -0.0 0.6119, 0.3592 -0.0 0.6118, 0.2576 -0.0 0.6275, 0.2607 -0.0 0.6222, 0.2741 -0.0 0.6195, 0.2654 -0.0 0.6173, 0.2712 -0.0 0.6138, 0.2838 -0.0 0.6282, 0.2784 -0.0 0.6244, 0.2553 -0.0 0.6381, 0.2557 -0.0 0.634, 0.2896 -0.0 0.6304, 0.2959 -0.0 0.6312, 0.2991 -0.0 0.631, 0.35 -0.0 0.6038, 0.35 -0.0 0.6048, 0.3223 -0.0 0.6072, 0.3506 -0.0 0.6068, 0.3516 -0.0 0.6086, 0.3852 -0.0 0.6183, 0.3881 -0.0 0.6224, 0.3899 -0.0 0.6271, 0.3906 -0.0 0.6323, 0.3561 -0.0 0.5959, 0.3544 -0.0 0.5965, 0.3527 -0.0 0.5978, 0.3521 -0.0 0.5984, 0.3509 -0.0 0.6, 0.3502 -0.0 0.6018, 0.3221 -0.0 0.6018, 0.3223 -0.0 0.6046, 0.3819 -0.0 0.5975, 0.3732 -0.0 0.5956, 0.3576 -0.0 0.5956, 0.3597 -0.0 0.6117, 0.3716 -0.0 0.6117, 0.3763 -0.0 0.6126, 0.381 -0.0 0.6148, 0.3849 -0.0 0.618, 0.3622 -0.0 0.6687, 0.3562 -0.0 0.6758, 0.2957 -0.0 0.6605, 0.3556 -0.0 0.6763, 0.3482 -0.0 0.6815, 0.2997 -0.0 0.6688, 0.2938 -0.0 0.6615, 0.2879 -0.0 0.6636, 0.3867 -0.0 0.6442, 0.3837 -0.0 0.6476, 0.37 -0.0 0.6528, 0.3796 -0.0 0.6504, 0.375 -0.0 0.6522, 0.3679 -0.0 0.6528, 0.3663 -0.0 0.6602, 0.2724 -0.0 0.6627, 0.2666 -0.0 0.6596, 0.2789 -0.0 0.6643, 0.2621 -0.0 0.6556, 0.2584 -0.0 0.6503, 0.3056 -0.0 0.6759, 0.3399 -0.0 0.6847, 0.3127 -0.0 0.681, 0.331 -0.0 0.6858, 0.3213 -0.0 0.6845, 0.2817 -0.0 0.6644, 0.2561 -0.0 0.6444, 0.5634 -0.0 0.6826, 0.5668 -0.0 0.6916, 0.5634 -0.0 0.6919, 0.5719 -0.0 0.6916, 0.577 -0.0 0.6647, 0.5634 -0.0 0.6647, 0.5807 -0.0 0.6546, 0.5634 -0.0 0.6434, 0.586 -0.0 0.6546, 0.5981 -0.0 0.6919, 0.5527 -0.0 0.6546, 0.5516 -0.0 0.6434, 0.558 -0.0 0.6546, 0.5615 -0.0 0.6647, 0.4983 -0.0 0.6588, 0.5083 -0.0 0.6588, 0.4983 -0.0 0.6712, 0.5083 -0.0 0.6712, 0.5083 -0.0 0.6919, 0.5126 -0.0 0.6916, 0.5169 -0.0 0.6919, 0.5126 -0.0 0.6874, 0.5115 -0.0 0.6712, 0.5134 -0.0 0.6588, 0.5115 -0.0 0.6755, 0.5083 -0.0 0.6874, 0.5083 -0.0 0.6755, 0.4983 -0.0 0.6874, 0.4983 -0.0 0.6755, 0.4935 -0.0 0.6546, 0.4913 -0.0 0.6434, 0.5083 -0.0 0.6546, 0.5083 -0.0 0.6434, 0.5134 -0.0 0.6546, 0.5169 -0.0 0.6434, 0.4913 -0.0 0.6919, 0.4935 -0.0 0.6916, 0.5083 -0.0 0.6916, 0.4845 -0.0 0.6555, 0.4845 -0.0 0.6434, 0.4854 -0.0 0.6558, 0.4861 -0.0 0.6561, 0.4861 -0.0 0.6607, 0.4765 -0.0 0.6582, 0.4786 -0.0 0.6583, 0.4845 -0.0 0.6864, 0.4828 -0.0 0.6591, 0.4845 -0.0 0.6599, 0.4852 -0.0 0.6862, 0.4861 -0.0 0.6857, 0.4727 -0.0 0.6873, 0.4698 -0.0 0.6859, 0.4672 -0.0 0.6838, 0.467 -0.0 0.6835, 0.4652 -0.0 0.6809, 0.4639 -0.0 0.6777, 0.4633 -0.0 0.6727, 0.4633 -0.0 0.6722, 0.4639 -0.0 0.6677, 0.4678 -0.0 0.6613, 0.4702 -0.0 0.6596, 0.4729 -0.0 0.6586, 0.4814 -0.0 0.6875, 0.4773 -0.0 0.6879, 0.4759 -0.0 0.6879, 0.4651 -0.0 0.6647, 0.467 -0.0 0.6621, 0.481 -0.0 0.6919, 0.4827 -0.0 0.6918, 0.4845 -0.0 0.6919, 0.4845 -0.0 0.6912, 0.4861 -0.0 0.6907, 0.4773 -0.0 0.6922, 0.4779 -0.0 0.6922, 0.4845 -0.0 0.7445, 0.4681 -0.0 0.6901, 0.4613 -0.0 0.6837, 0.4637 -0.0 0.6868, 0.4645 -0.0 0.6876, 0.4578 -0.0 0.6919, 0.4594 -0.0 0.6797, 0.46 -0.0 0.681, 0.46 -0.0 0.664, 0.459 -0.0 0.6664, 0.4578 -0.0 0.6434, 0.4583 -0.0 0.6724, 0.4584 -0.0 0.675, 0.4693 -0.0 0.6549, 0.4658 -0.0 0.6566, 0.46 -0.0 0.6434, 0.4631 -0.0 0.659, 0.4627 -0.0 0.6594, 0.4605 -0.0 0.6625, 0.4815 -0.0 0.6545, 0.4758 -0.0 0.6539, 0.4733 -0.0 0.6541, 0.5516 -0.0 0.4724, 0.5516 -0.0 0.5807, 0.5169 -0.0 0.5807, 0.5169 -0.0 0.4724, 0.5083 -0.0 0.5807, 0.5083 -0.0 0.4724, 0.46 -0.0 0.4724, 0.4845 -0.0 0.4724, 0.46 -0.0 0.5807, 0.4845 -0.0 0.5807, 0.4221 -0.0 0.4724, 0.4578 -0.0 0.4724, 0.4634 -0.0 0.6083, 0.4642 -0.0 0.6159, 0.4624 -0.0 0.6068, 0.4619 -0.0 0.6051, 0.4759 -0.0 0.5972, 0.4808 -0.0 0.62, 0.4817 -0.0 0.6186, 0.4825 -0.0 0.6165, 0.4829 -0.0 0.6128, 0.4648 -0.0 0.6095, 0.4667 -0.0 0.6105, 0.4673 -0.0 0.6178, 0.4704 -0.0 0.6115, 0.4745 -0.0 0.6189, 0.4729 -0.0 0.6191, 0.4702 -0.0 0.6188, 0.4673 -0.0 0.5954, 0.46 -0.0 0.5954, 0.4673 -0.0 0.5954, 0.4655 -0.0 0.5961, 0.4639 -0.0 0.5972, 0.4634 -0.0 0.5977, 0.4624 -0.0 0.5992, 0.4783 -0.0 0.5998, 0.4781 -0.0 0.5998, 0.4774 -0.0 0.5987, 0.4619 -0.0 0.6007, 0.4616 -0.0 0.6028, 0.4642 -0.0 0.6204, 0.4762 -0.0 0.6226, 0.4781 -0.0 0.622, 0.4797 -0.0 0.6211, 0.4783 -0.0 0.6126, 0.4781 -0.0 0.6146, 0.4776 -0.0 0.6163, 0.4771 -0.0 0.6172, 0.4764 -0.0 0.618, 0.4755 -0.0 0.6185, 0.4657 -0.0 0.6212, 0.4693 -0.0 0.6224, 0.4733 -0.0 0.6228, 0.4829 -0.0 0.5957, 0.4845 -0.0 0.5954, 0.4724 -0.0 0.5954, 0.47 -0.0 0.5951, 0.4913 -0.0 0.5959, 0.4892 -0.0 0.5967, 0.4892 -0.0 0.6015, 0.4892 -0.0 0.6151, 0.4894 -0.0 0.6167, 0.4899 -0.0 0.6119, 0.4894 -0.0 0.6133, 0.4913 -0.0 0.6002, 0.4913 -0.0 0.6101, 0.4908 -0.0 0.6005, 0.4913 -0.0 0.6101, 0.4905 -0.0 0.6109, 0.4993 -0.0 0.5954, 0.4964 -0.0 0.5951, 0.4913 -0.0 0.5807, 0.4935 -0.0 0.5954, 0.4913 -0.0 0.5954, 0.4924 -0.0 0.5955, 0.4913 -0.0 0.4724, 0.5083 -0.0 0.5954, 0.5003 -0.0 0.5955, 0.5058 -0.0 0.6217, 0.5058 -0.0 0.6171, 0.4922 -0.0 0.6207, 0.4934 -0.0 0.6215, 0.5069 -0.0 0.6011, 0.5063 -0.0 0.5996, 0.5054 -0.0 0.5984, 0.49 -0.0 0.6182, 0.4908 -0.0 0.6195, 0.4913 -0.0 0.62, 0.4959 -0.0 0.6224, 0.4995 -0.0 0.6228, 0.5024 -0.0 0.6226, 0.5055 -0.0 0.6073, 0.5064 -0.0 0.606, 0.5069 -0.0 0.6047, 0.5071 -0.0 0.6029, 0.5041 -0.0 0.5972, 0.5028 -0.0 0.5964, 0.4991 -0.0 0.6191, 0.4977 -0.0 0.619, 0.494 -0.0 0.6155, 0.4965 -0.0 0.6186, 0.4954 -0.0 0.6181, 0.4941 -0.0 0.6149, 0.4942 -0.0 0.6142, 0.4946 -0.0 0.6135, 0.495 -0.0 0.613, 0.4967 -0.0 0.612, 0.5024 -0.0 0.6186, 0.4995 -0.0 0.6108, 0.505 -0.0 0.6176, 0.5013 -0.0 0.61, 0.5044 -0.0 0.6083, 0.4947 -0.0 0.6175, 0.4943 -0.0 0.6169, 0.4941 -0.0 0.6162, 0.4937 -0.0 0.5993, 0.4963 -0.0 0.6074, 0.4935 -0.0 0.6087, 0.4968 -0.0 0.5989, 0.497 -0.0 0.5989, 0.4993 -0.0 0.6061, 0.4994 -0.0 0.5992, 0.5023 -0.0 0.6025, 0.5023 -0.0 0.6031, 0.5006 -0.0 0.5996, 0.501 -0.0 0.5999, 0.5016 -0.0 0.6003, 0.502 -0.0 0.6009, 0.5022 -0.0 0.6016, 0.5021 -0.0 0.6038, 0.5017 -0.0 0.6044, 0.5011 -0.0 0.605, 0.5243 -0.0 0.5954, 0.5399 -0.0 0.5957, 0.5349 -0.0 0.6222, 0.5399 -0.0 0.6328, 0.5216 -0.0 0.6023, 0.5222 -0.0 0.6001, 0.5223 -0.0 0.6001, 0.5225 -0.0 0.601, 0.5229 -0.0 0.6023, 0.5169 -0.0 0.6158, 0.5301 -0.0 0.6222, 0.5169 -0.0 0.6033, 0.5095 -0.0 0.6222, 0.5147 -0.0 0.6222, 0.5197 -0.0 0.5954, 0.5199 -0.0 0.5958, 0.5169 -0.0 0.5893, 0.5169 -0.0 0.5893, 0.5169 -0.0 0.5954, 0.5178 -0.0 0.591, 0.5105 -0.0 0.5878, 0.5105 -0.0 0.5837, 0.5114 -0.0 0.5875, 0.5131 -0.0 0.5873, 0.5142 -0.0 0.5874, 0.5169 -0.0 0.5841, 0.5153 -0.0 0.5835, 0.5134 -0.0 0.5833, 0.5124 -0.0 0.5833, 0.5152 -0.0 0.5878, 0.5161 -0.0 0.5884, 0.5229 -0.0 0.5917, 0.5208 -0.0 0.5877, 0.5191 -0.0 0.5856, 0.5188 -0.0 0.5853, 0.5172 -0.0 0.5842, 0.5447 -0.0 0.6, 0.5516 -0.0 0.6, 0.5447 -0.0 0.6124, 0.5516 -0.0 0.6124, 0.5516 -0.0 0.6328, 0.559 -0.0 0.6328, 0.559 -0.0 0.6286, 0.558 -0.0 0.6124, 0.5598 -0.0 0.6, 0.558 -0.0 0.6167, 0.5516 -0.0 0.6286, 0.5516 -0.0 0.6167, 0.5447 -0.0 0.6286, 0.5447 -0.0 0.6167, 0.5634 -0.0 0.4724, 0.5634 -0.0 0.5807, 0.5634 -0.0 0.5954, 0.5981 -0.0 0.4724, 0.8034 -0.0 0.4724, 0.5981 -0.0 0.5807, 0.8034 -0.0 0.5807, 0.5981 -0.0 0.5954, 0.8034 -0.0 0.5954, 0.4578 -0.0 0.5954, 0.4572 -0.0 0.5957, 0.4373 -0.0 0.5957, 0.4572 -0.0 0.6, 0.4563 -0.0 0.6286, 0.4373 -0.0 0.6328, 0.4563 -0.0 0.6328, 0.442 -0.0 0.6124, 0.442 -0.0 0.6, 0.4553 -0.0 0.6124, 0.4553 -0.0 0.6167, 0.442 -0.0 0.6167, 0.442 -0.0 0.6286, 0.5951 -0.0 0.6234, 0.577 -0.0 0.5957, 0.5669 -0.0 0.5957, 0.5969 -0.0 0.6119, 0.5959 -0.0 0.6076, 0.5939 -0.0 0.6038, 0.5838 -0.0 0.632, 0.5882 -0.0 0.6302, 0.5914 -0.0 0.6009, 0.5875 -0.0 0.5981, 0.5833 -0.0 0.5965, 0.5669 -0.0 0.6328, 0.5774 -0.0 0.6328, 0.5782 -0.0 0.6328, 0.5914 -0.0 0.6279, 0.5928 -0.0 0.6266, 0.6044 -0.0 0.5957, 0.5991 -0.0 0.5957, 0.6272 -0.0 0.5957, 0.6234 -0.0 0.6059, 0.6079 -0.0 0.6059, 0.6132 -0.0 0.6328, 0.6324 -0.0 0.5957, 0.6183 -0.0 0.6328, 0.8034 -0.0 0.6434, 0.4373 -0.0 0.6546, 0.4373 -0.0 0.6916, 0.4568 -0.0 0.6546, 0.5486 -0.0 0.6822, 0.5204 -0.0 0.6546, 0.5374 -0.0 0.6908, 0.5418 -0.0 0.689, 0.5504 -0.0 0.6707, 0.5494 -0.0 0.6664, 0.5475 -0.0 0.6626, 0.545 -0.0 0.6597, 0.5411 -0.0 0.6569, 0.5369 -0.0 0.6553, 0.5306 -0.0 0.6546, 0.5204 -0.0 0.6916, 0.531 -0.0 0.6916, 0.5318 -0.0 0.6916, 0.545 -0.0 0.6867, 0.5464 -0.0 0.6854, 0.8034 -0.0 0.6919, 0.9744 -0.0 0.4724, 0.9744 -0.0 0.5807, 0.9744 -0.0 0.5954, 0.9744 -0.0 0.6434, 0.9744 -0.0 0.6919, 0.46 -0.0 0.7445, 0.4578 -0.0 0.7445, 0.4913 -0.0 0.7445, 0.5083 -0.0 0.7445, 0.5169 -0.0 0.7445, 0.5516 -0.0 0.7445, 0.5634 -0.0 0.7445, 0.5981 -0.0 0.7445, 0.8034 -0.0 0.7445, 0.9744 -0.0 0.7445, 0.4221 -0.0 0.7874, 0.4578 -0.0 0.7874, 0.46 -0.0 0.7874, 0.4845 -0.0 0.7874, 0.4913 -0.0 0.7874, 0.5083 -0.0 0.7874, 0.5169 -0.0 0.7874, 0.5516 -0.0 0.7874, 0.5634 -0.0 0.7874, 0.5981 -0.0 0.7874, 0.8034 -0.0 0.7874, 0.9744 -0.0 0.7874, 0.9744 1.122 0.7874, 0.4331 1.122 0.5719, -0.9744 1.122 0.7874, -0.4331 1.122 0.5719, -0.9744 1.122 0.3543, 0.9744 1.122 0.3543, 0.5906 1.122 0.3543, 0.4331 1.122 0.1782, 0.5906 1.122 0.0, -0.4331 1.122 0.1782, -0.5906 1.122 0.0, -0.5906 1.122 0.3543, 0.5906 1.0433 0.0, -0.5906 1.0433 0.0, 0.9744 1.0433 0.7874, -0.9744 1.0433 0.7874, -0.5906 1.0433 0.3543, -0.9744 1.0433 0.3543, 0.9744 1.0433 0.3543, 0.5906 1.0433 0.3543, -1.005 1.118 0.3543, -1.005 1.118 0.7874, -1.0335 1.1062 0.3543, -1.0335 1.1062 0.7874, -1.0579 1.0875 0.3543, -1.0579 1.0875 0.7874, -1.0767 1.063 0.3543, -1.0767 1.063 0.7874, -1.0885 1.0345 0.3543, -1.0885 1.0345 0.7874, -1.0925 1.0039 0.3543, -1.0925 1.0039 0.7874, -1.0925 0.6693 0.4724, -1.0925 0.1181 0.4724, -1.0925 0.1181 0.7874, -1.0925 0.9449 0.3543, -1.0925 0.7283 0.0, -1.0925 0.6693 0.0591, -1.0925 0.8858 0.0, -1.0925 0.9449 0.0591, -1.0885 0.0875 0.4724, -1.0885 0.0875 0.7874, -1.0767 0.0591 0.4724, -1.0767 0.0591 0.7874, -1.0579 0.0346 0.4724, -1.0579 0.0346 0.7874, -1.0335 0.0158 0.4724, -1.0335 0.0158 0.7874, -1.005 0.004 0.4724, -1.005 0.004 0.7874, -0.9744 -0.0 0.4724, -0.9744 -0.0 0.7874, -0.315 -0.0 0.3346, -0.0197 -0.0 0.3346, -0.315 -0.0 0.4724, -0.0197 -0.0 0.7874, -0.0197 0.0787 0.3346, -0.0197 0.0787 0.7874, -0.9744 0.0787 0.4724, -0.9744 0.0787 0.7874, -0.315 0.0787 0.4724, -0.315 0.0787 0.3346, -0.9846 0.0801 0.7874, -0.9846 0.0801 0.4724, -0.9941 0.084 0.7874, -0.9941 0.084 0.4724, -1.0022 0.0903 0.7874, -1.0022 0.0903 0.4724, -1.0085 0.0984 0.7874, -1.0085 0.0984 0.4724, -1.0124 0.1079 0.7874, -1.0124 0.1079 0.4724, -1.0138 0.1181 0.7874, -1.0138 0.1181 0.4724, -1.0138 1.0039 0.3543, -1.0138 1.0039 0.7874, -1.0138 0.9449 0.3543, -1.0138 0.6693 0.4724, -1.0138 0.8858 0.0, -1.0138 0.9449 0.0591, -1.0138 0.7283 0.0, -1.0138 0.6693 0.0591, -1.0124 1.0141 0.7874, -1.0124 1.0141 0.3543, -1.0085 1.0236 0.7874, -1.0085 1.0236 0.3543, -1.0022 1.0318 0.7874, -1.0022 1.0318 0.3543, -0.9941 1.038 0.7874, -0.9941 1.038 0.3543, -0.9846 1.042 0.7874, -0.9846 1.042 0.3543, 0.0197 0.0787 0.7874, 0.9744 0.0787 0.7874, 0.9846 0.0801 0.7874, 1.005 0.004 0.7874, 0.9941 0.084 0.7874, 1.0335 0.0158 0.7874, 1.0022 0.0903 0.7874, 1.0579 0.0346 0.7874, 1.0085 0.0984 0.7874, 1.0767 0.0591 0.7874, 1.0124 0.1079 0.7874, 1.0885 0.0875 0.7874, 1.0138 0.1181 0.7874, 1.0925 0.1181 0.7874, 1.0138 1.0039 0.7874, 1.0925 1.0039 0.7874, 1.0124 1.0141 0.7874, 1.0885 1.0345 0.7874, 1.0085 1.0236 0.7874, 1.0767 1.063 0.7874, 1.0022 1.0318 0.7874, 1.0579 1.0875 0.7874, 0.9941 1.038 0.7874, 1.0335 1.1062 0.7874, 0.9846 1.042 0.7874, 1.005 1.118 0.7874, 1.0925 1.0039 0.3543, 1.0885 1.0345 0.3543, 1.0767 1.063 0.3543, 1.0579 1.0875 0.3543, 1.0335 1.1062 0.3543, 1.005 1.118 0.3543, 1.0925 0.9449 0.3543, 1.0925 0.6693 0.4724, 1.0925 0.1181 0.4724, 1.0925 0.8858 0.0, 1.0925 0.9449 0.0591, 1.0925 0.7283 0.0, 1.0925 0.6693 0.0591, 1.005 0.004 0.4724, 1.0335 0.0158 0.4724, 1.0579 0.0346 0.4724, 1.0767 0.0591 0.4724, 1.0885 0.0875 0.4724, 0.0197 0.0787 0.3346, 0.315 0.0787 0.3346, 0.315 0.0787 0.4724, 0.9744 0.0787 0.4724, 1.0138 0.1181 0.4724, 1.0124 0.1079 0.4724, 1.0085 0.0984 0.4724, 1.0022 0.0903 0.4724, 0.9941 0.084 0.4724, 0.9846 0.0801 0.4724, 1.0138 0.6693 0.4724, 1.0138 1.0039 0.3543, 1.0138 0.9449 0.3543, 1.0138 0.6693 0.0591, 1.0138 0.7283 0.0, 1.0138 0.8858 0.0, 1.0138 0.9449 0.0591, 0.9846 1.042 0.3543, 0.9941 1.038 0.3543, 1.0022 1.0318 0.3543, 1.0085 1.0236 0.3543, 1.0124 1.0141 0.3543, 1.0124 1.0141 0.3543
            ]
        }
        coordIndex [
            0,1,2,-1,3,4,5,-1,6,7,8,-1,9,10,11,-1,12,13,14,-1,15,16,17,-1,18,19,20,-1,21,22,23,-1,24,25,26,-1,26,25,27,-1,28,29,30,-1,30,29,26,-1,30,26,31,-1,31,26,32,-1,27,33,26,-1,26,33,34,-1,26,34,32,-1,35,36,2,-1,35,2,37,-1,37,2,38,-1,38,2,1,-1,38,1,39,-1,39,1,40,-1,40,1,41,-1,40,41,42,-1,41,43,44,-1,41,45,42,-1,42,45,46,-1,42,46,47,-1,47,46,48,-1,47,48,49,-1,44,50,41,-1,41,50,51,-1,41,51,45,-1,52,53,54,-1,52,54,55,-1,53,56,54,-1,54,56,57,-1,54,57,58,-1,58,57,59,-1,59,60,58,-1,58,60,61,-1,58,61,41,-1,41,61,62,-1,41,62,43,-1,63,55,64,-1,64,55,54,-1,64,54,65,-1,65,54,66,-1,67,68,69,-1,69,68,70,-1,70,71,72,-1,72,73,70,-1,70,73,74,-1,70,74,69,-1,69,74,75,-1,69,75,54,-1,54,75,76,-1,54,76,66,-1,12,77,13,-1,13,77,78,-1,13,78,79,-1,79,80,13,-1,13,80,81,-1,13,81,82,-1,83,84,85,-1,86,87,12,-1,88,89,90,-1,90,89,91,-1,83,85,92,-1,86,12,93,-1,94,95,89,-1,89,95,96,-1,89,96,97,-1,28,98,29,-1,29,98,99,-1,29,99,12,-1,12,99,100,-1,12,100,93,-1,84,101,85,-1,85,101,102,-1,85,102,103,-1,104,105,106,-1,106,105,107,-1,106,107,108,-1,109,97,110,-1,110,97,111,-1,110,111,106,-1,106,111,112,-1,106,112,104,-1,109,113,97,-1,97,113,114,-1,97,114,89,-1,89,114,115,-1,89,115,91,-1,116,117,118,-1,118,117,119,-1,118,119,85,-1,85,119,120,-1,85,120,92,-1,121,122,85,-1,85,122,123,-1,85,123,89,-1,89,123,124,-1,89,124,94,-1,125,126,77,-1,77,126,127,-1,77,127,128,-1,128,129,77,-1,77,129,130,-1,77,130,131,-1,131,130,116,-1,131,116,132,-1,132,116,118,-1,87,133,12,-1,12,133,134,-1,12,134,77,-1,77,134,135,-1,77,135,125,-1,103,136,85,-1,85,136,137,-1,85,137,138,-1,138,139,85,-1,85,139,140,-1,85,140,121,-1,141,142,143,-1,142,144,143,-1,143,144,145,-1,143,145,146,-1,96,143,97,-1,97,143,147,-1,97,147,148,-1,149,150,151,-1,151,150,152,-1,151,152,153,-1,149,151,96,-1,96,151,154,-1,96,154,143,-1,143,154,155,-1,143,155,141,-1,156,157,158,-1,158,157,159,-1,158,159,160,-1,146,145,161,-1,161,145,162,-1,161,162,163,-1,163,162,164,-1,163,164,165,-1,148,166,97,-1,97,166,158,-1,97,158,167,-1,167,158,160,-1,168,169,170,-1,170,169,171,-1,172,173,174,-1,174,173,175,-1,174,175,176,-1,176,175,11,-1,176,11,171,-1,171,11,177,-1,171,177,170,-1,178,179,180,-1,180,179,175,-1,180,175,181,-1,181,175,173,-1,182,183,184,-1,184,183,185,-1,186,187,188,-1,188,187,189,-1,185,183,190,-1,190,183,191,-1,190,191,192,-1,189,193,194,-1,194,193,195,-1,194,195,196,-1,197,198,199,-1,199,198,200,-1,199,200,201,-1,201,200,202,-1,201,202,191,-1,203,204,186,-1,186,204,205,-1,186,205,187,-1,206,207,208,-1,208,207,198,-1,208,198,209,-1,209,198,210,-1,211,212,213,-1,212,214,213,-1,213,214,215,-1,213,215,216,-1,216,215,210,-1,216,210,217,-1,217,210,198,-1,217,198,203,-1,203,198,197,-1,203,197,204,-1,218,219,220,-1,221,222,213,-1,213,222,223,-1,223,224,213,-1,213,224,225,-1,213,225,226,-1,227,228,213,-1,213,228,229,-1,213,229,211,-1,213,230,221,-1,221,230,231,-1,221,231,220,-1,220,231,232,-1,220,232,218,-1,226,233,213,-1,213,233,234,-1,213,234,227,-1,235,236,237,-1,237,236,238,-1,237,238,203,-1,203,238,239,-1,203,239,217,-1,240,241,242,-1,242,241,235,-1,21,23,243,-1,244,245,23,-1,23,245,246,-1,23,246,243,-1,247,248,23,-1,23,248,249,-1,23,249,244,-1,250,251,252,-1,252,251,253,-1,252,253,247,-1,247,253,254,-1,247,254,248,-1,255,256,257,-1,256,258,257,-1,257,258,259,-1,257,259,260,-1,206,261,207,-1,207,261,262,-1,207,262,257,-1,257,262,263,-1,257,263,255,-1,264,265,266,-1,264,266,267,-1,267,266,268,-1,267,268,269,-1,270,271,272,-1,272,271,273,-1,71,70,82,-1,82,70,274,-1,82,274,13,-1,13,274,275,-1,13,275,14,-1,276,277,278,-1,278,277,279,-1,18,20,280,-1,281,282,207,-1,207,282,283,-1,207,283,284,-1,276,285,277,-1,277,285,286,-1,277,286,287,-1,287,286,288,-1,289,290,288,-1,288,290,291,-1,288,291,287,-1,272,292,293,-1,293,292,294,-1,293,294,295,-1,295,296,293,-1,293,296,297,-1,293,297,298,-1,299,300,20,-1,20,300,301,-1,20,301,280,-1,298,302,293,-1,293,302,303,-1,293,303,257,-1,257,303,279,-1,257,279,304,-1,304,279,277,-1,305,306,207,-1,207,306,307,-1,207,307,281,-1,308,309,288,-1,288,309,310,-1,288,310,311,-1,311,312,288,-1,288,312,313,-1,288,313,289,-1,304,314,257,-1,257,314,315,-1,257,315,207,-1,207,315,316,-1,207,316,305,-1,317,20,318,-1,318,20,19,-1,318,19,273,-1,273,19,319,-1,273,319,272,-1,272,319,320,-1,272,320,292,-1,321,322,318,-1,318,322,323,-1,324,325,207,-1,326,327,323,-1,327,324,323,-1,323,324,207,-1,323,207,318,-1,318,207,284,-1,318,284,317,-1,328,329,330,-1,330,329,331,-1,330,331,323,-1,323,331,332,-1,323,332,326,-1,333,334,335,-1,335,334,336,-1,335,336,337,-1,337,336,338,-1,339,269,335,-1,335,269,268,-1,335,268,333,-1,333,268,340,-1,333,340,341,-1,342,343,340,-1,344,345,198,-1,346,347,340,-1,340,347,348,-1,325,349,207,-1,207,349,350,-1,207,350,198,-1,198,350,351,-1,198,351,344,-1,345,352,198,-1,198,352,353,-1,198,353,200,-1,200,353,354,-1,200,354,342,-1,355,356,343,-1,343,356,357,-1,343,357,340,-1,340,357,358,-1,340,358,346,-1,348,359,340,-1,340,359,360,-1,340,360,341,-1,361,362,363,-1,363,362,364,-1,363,364,365,-1,363,366,361,-1,361,366,367,-1,361,367,368,-1,368,369,361,-1,361,369,370,-1,361,370,371,-1,371,370,372,-1,371,372,373,-1,373,372,374,-1,373,374,343,-1,343,374,375,-1,343,375,355,-1,376,377,365,-1,365,377,378,-1,365,378,363,-1,379,380,328,-1,328,380,381,-1,328,381,329,-1,379,382,380,-1,380,382,383,-1,380,383,384,-1,384,383,385,-1,384,386,387,-1,385,388,384,-1,384,388,389,-1,384,389,390,-1,390,391,384,-1,384,391,392,-1,384,392,386,-1,387,393,384,-1,384,393,394,-1,384,394,395,-1,396,397,398,-1,398,397,399,-1,400,401,402,-1,402,403,400,-1,400,403,404,-1,400,404,405,-1,405,404,406,-1,405,406,202,-1,407,408,340,-1,342,340,200,-1,200,340,408,-1,200,408,202,-1,202,408,409,-1,202,409,405,-1,410,411,407,-1,412,413,414,-1,414,413,415,-1,414,415,410,-1,410,407,414,-1,414,407,340,-1,414,340,416,-1,416,340,268,-1,416,268,417,-1,416,418,414,-1,414,418,419,-1,414,419,420,-1,421,422,266,-1,266,422,423,-1,266,423,268,-1,268,423,424,-1,268,424,417,-1,420,425,414,-1,414,425,426,-1,414,426,412,-1,16,397,17,-1,17,397,396,-1,17,396,265,-1,265,396,427,-1,265,427,428,-1,428,429,265,-1,265,429,430,-1,265,430,266,-1,266,430,431,-1,266,431,421,-1,432,433,434,-1,434,433,435,-1,406,398,202,-1,202,398,399,-1,202,399,179,-1,179,399,436,-1,179,436,175,-1,175,436,437,-1,175,437,438,-1,435,433,439,-1,439,433,440,-1,439,440,441,-1,438,442,443,-1,443,442,444,-1,443,444,445,-1,271,339,273,-1,273,339,335,-1,273,335,318,-1,318,335,337,-1,318,337,321,-1,321,337,338,-1,264,446,265,-1,265,446,447,-1,265,447,17,-1,17,447,448,-1,17,448,15,-1,15,448,440,-1,449,450,451,-1,451,450,452,-1,451,452,453,-1,453,452,454,-1,455,456,457,-1,456,455,458,-1,458,455,252,-1,458,252,459,-1,14,455,12,-1,12,455,457,-1,12,457,29,-1,29,457,460,-1,29,460,252,-1,252,460,461,-1,252,461,459,-1,462,463,464,-1,464,463,458,-1,464,458,465,-1,465,458,459,-1,465,459,466,-1,466,459,467,-1,275,270,14,-1,14,270,272,-1,14,272,455,-1,455,272,293,-1,455,293,252,-1,252,293,257,-1,252,257,250,-1,250,257,260,-1,9,11,468,-1,469,470,448,-1,448,470,175,-1,448,175,440,-1,440,175,438,-1,440,438,441,-1,441,438,443,-1,10,471,453,-1,453,471,472,-1,453,472,473,-1,11,474,475,-1,473,476,453,-1,453,476,477,-1,453,477,478,-1,478,469,453,-1,453,469,448,-1,453,448,451,-1,451,448,447,-1,451,447,449,-1,449,447,446,-1,470,479,175,-1,175,479,480,-1,175,480,11,-1,11,480,481,-1,11,481,474,-1,475,482,11,-1,11,482,483,-1,11,483,468,-1,484,485,453,-1,486,487,488,-1,10,453,11,-1,11,453,485,-1,11,485,489,-1,488,484,486,-1,486,484,453,-1,486,453,490,-1,490,453,454,-1,490,454,491,-1,491,454,492,-1,493,494,26,-1,26,494,6,-1,26,6,247,-1,247,6,8,-1,247,8,252,-1,252,8,495,-1,252,495,29,-1,29,495,493,-1,29,493,26,-1,3,5,496,-1,194,192,189,-1,189,192,191,-1,189,191,188,-1,188,191,202,-1,188,202,497,-1,5,498,499,-1,168,170,178,-1,178,170,5,-1,178,5,179,-1,179,5,4,-1,179,4,500,-1,500,501,179,-1,179,501,502,-1,179,502,503,-1,503,504,179,-1,179,504,505,-1,179,505,202,-1,202,505,506,-1,202,506,497,-1,497,507,188,-1,188,507,508,-1,188,508,5,-1,5,508,509,-1,5,509,498,-1,499,510,5,-1,5,510,511,-1,5,511,496,-1,489,491,11,-1,11,491,492,-1,11,492,177,-1,177,492,512,-1,450,513,452,-1,452,513,514,-1,452,514,454,-1,454,514,515,-1,454,515,492,-1,492,515,516,-1,492,516,512,-1,512,516,517,-1,240,242,22,-1,22,242,518,-1,22,518,23,-1,23,518,519,-1,23,519,247,-1,247,519,2,-1,247,2,26,-1,26,2,36,-1,26,36,24,-1,235,237,242,-1,242,237,203,-1,242,203,520,-1,520,203,186,-1,520,186,521,-1,521,186,188,-1,521,188,522,-1,522,188,5,-1,522,5,523,-1,523,5,170,-1,523,170,524,-1,524,170,177,-1,524,177,525,-1,525,177,512,-1,525,512,526,-1,526,512,517,-1,526,517,527,-1,0,2,528,-1,528,2,519,-1,528,519,529,-1,529,519,518,-1,529,518,530,-1,530,518,242,-1,530,242,531,-1,531,242,520,-1,531,520,532,-1,532,520,521,-1,532,521,533,-1,533,521,522,-1,533,522,534,-1,534,522,523,-1,534,523,535,-1,535,523,524,-1,535,524,536,-1,536,524,525,-1,536,525,537,-1,537,525,526,-1,537,526,538,-1,538,526,527,-1,538,527,539,-1,540,541,542,-1,542,541,543,-1,542,543,544,-1,540,545,541,-1,541,545,546,-1,541,546,547,-1,547,546,548,-1,547,548,549,-1,549,548,550,-1,549,550,543,-1,543,550,551,-1,543,551,544,-1,548,552,550,-1,550,552,553,-1,554,555,556,-1,556,555,557,-1,558,554,559,-1,559,554,556,-1,559,556,552,-1,552,556,553,-1,542,544,560,-1,542,560,561,-1,561,560,562,-1,561,562,563,-1,563,562,564,-1,563,564,565,-1,565,564,566,-1,565,566,567,-1,567,566,568,-1,567,568,569,-1,569,568,570,-1,569,570,571,-1,572,573,574,-1,574,571,572,-1,572,571,570,-1,572,570,575,-1,576,577,578,-1,578,577,572,-1,578,572,579,-1,579,572,575,-1,574,573,580,-1,574,580,581,-1,581,580,582,-1,581,582,583,-1,583,582,584,-1,583,584,585,-1,585,584,586,-1,585,586,587,-1,587,586,588,-1,587,588,589,-1,589,588,590,-1,589,590,591,-1,592,593,594,-1,594,593,595,-1,594,595,590,-1,590,595,591,-1,596,597,593,-1,593,597,595,-1,598,599,600,-1,600,599,597,-1,600,597,601,-1,601,597,596,-1,599,598,602,-1,602,598,603,-1,602,603,604,-1,604,603,605,-1,604,605,606,-1,606,605,607,-1,606,607,608,-1,608,607,609,-1,608,609,610,-1,610,609,611,-1,610,611,612,-1,612,611,613,-1,614,615,616,-1,616,615,612,-1,616,612,617,-1,617,612,613,-1,618,619,620,-1,620,619,616,-1,620,616,621,-1,621,616,617,-1,615,614,622,-1,622,614,623,-1,622,623,624,-1,624,623,625,-1,624,625,626,-1,626,625,627,-1,626,627,628,-1,628,627,629,-1,628,629,630,-1,630,629,631,-1,630,631,555,-1,555,631,557,-1,0,528,632,-1,632,528,529,-1,632,529,530,-1,530,531,632,-1,632,531,532,-1,632,532,633,-1,633,532,533,-1,633,533,534,-1,534,535,633,-1,633,535,536,-1,633,536,537,-1,537,538,633,-1,633,538,539,-1,633,539,634,-1,634,539,635,-1,634,635,636,-1,636,635,637,-1,636,637,638,-1,638,637,639,-1,638,639,640,-1,640,639,641,-1,640,641,642,-1,642,641,643,-1,642,643,644,-1,644,643,645,-1,644,645,646,-1,646,645,647,-1,646,647,648,-1,648,647,649,-1,648,649,650,-1,650,649,651,-1,650,651,652,-1,652,651,653,-1,652,653,654,-1,654,653,655,-1,654,655,656,-1,656,655,657,-1,656,657,554,-1,554,657,540,-1,554,540,555,-1,555,540,542,-1,555,542,630,-1,630,542,561,-1,630,561,628,-1,628,561,563,-1,628,563,626,-1,626,563,565,-1,626,565,624,-1,624,565,567,-1,624,567,622,-1,622,567,569,-1,622,569,615,-1,615,569,571,-1,615,571,612,-1,612,571,574,-1,612,574,610,-1,610,574,581,-1,610,581,608,-1,608,581,583,-1,608,583,606,-1,606,583,585,-1,606,585,604,-1,604,585,587,-1,604,587,602,-1,602,587,589,-1,602,589,599,-1,599,589,591,-1,599,591,597,-1,597,591,595,-1,576,578,620,-1,620,578,618,-1,616,575,614,-1,614,575,570,-1,614,570,623,-1,623,570,568,-1,623,568,625,-1,625,568,566,-1,625,566,627,-1,627,566,564,-1,627,564,629,-1,629,564,562,-1,629,562,631,-1,631,562,560,-1,631,560,557,-1,557,560,544,-1,557,544,556,-1,556,544,551,-1,550,553,551,-1,551,553,556,-1,579,575,619,-1,619,575,616,-1,621,617,577,-1,577,617,572,-1,600,594,598,-1,598,594,590,-1,598,590,603,-1,603,590,588,-1,603,588,605,-1,605,588,586,-1,605,586,607,-1,607,586,584,-1,607,584,609,-1,609,584,582,-1,609,582,611,-1,611,582,580,-1,611,580,613,-1,613,580,573,-1,613,573,617,-1,617,573,572,-1,620,621,576,-1,576,621,577,-1,578,579,618,-1,618,579,619,-1,601,596,592,-1,592,596,593,-1,600,601,594,-1,594,601,592,-1,647,658,659,-1,647,659,649,-1,649,659,660,-1,649,660,651,-1,651,660,661,-1,651,661,653,-1,653,661,662,-1,653,662,655,-1,655,662,663,-1,655,663,657,-1,657,663,545,-1,657,545,540,-1,658,647,664,-1,664,647,645,-1,664,645,665,-1,665,645,666,-1,667,668,669,-1,669,668,664,-1,669,664,670,-1,670,664,665,-1,539,527,635,-1,635,527,517,-1,635,517,516,-1,516,515,671,-1,671,515,514,-1,671,514,513,-1,516,671,635,-1,635,671,672,-1,635,672,637,-1,637,672,673,-1,637,673,639,-1,639,673,674,-1,639,674,641,-1,641,674,675,-1,641,675,643,-1,643,675,666,-1,643,666,645,-1,632,676,67,-1,67,69,632,-1,632,69,54,-1,632,54,58,-1,58,41,632,-1,632,41,1,-1,632,1,0,-1,677,676,678,-1,678,676,632,-1,678,632,679,-1,679,632,633,-1,644,680,642,-1,642,680,681,-1,642,681,640,-1,640,681,682,-1,640,682,638,-1,638,682,683,-1,638,683,636,-1,636,683,684,-1,636,684,634,-1,634,684,685,-1,634,685,633,-1,633,685,679,-1,686,680,644,-1,644,646,686,-1,686,646,687,-1,686,687,688,-1,689,686,690,-1,690,686,688,-1,690,688,691,-1,691,688,692,-1,554,558,656,-1,656,558,693,-1,656,693,654,-1,654,693,694,-1,654,694,652,-1,652,694,695,-1,652,695,650,-1,650,695,696,-1,650,696,648,-1,648,696,697,-1,648,697,646,-1,646,697,687,-1,667,669,691,-1,691,669,690,-1,559,546,558,-1,558,546,545,-1,558,545,693,-1,693,545,663,-1,693,663,694,-1,694,663,662,-1,694,662,695,-1,695,662,661,-1,695,661,696,-1,696,661,660,-1,696,660,697,-1,697,660,659,-1,697,659,687,-1,687,659,658,-1,687,658,688,-1,688,658,664,-1,552,548,559,-1,559,548,546,-1,664,668,688,-1,688,668,692,-1,686,689,665,-1,665,689,670,-1,686,665,680,-1,680,665,666,-1,680,666,681,-1,681,666,675,-1,681,675,682,-1,682,675,674,-1,682,674,683,-1,683,674,673,-1,683,673,684,-1,684,673,672,-1,684,672,685,-1,685,672,671,-1,685,671,679,-1,679,671,513,-1,513,450,679,-1,679,450,449,-1,679,449,678,-1,678,449,446,-1,446,264,678,-1,678,264,267,-1,678,267,269,-1,269,339,678,-1,678,339,271,-1,678,271,270,-1,270,275,678,-1,678,275,274,-1,678,274,70,-1,689,690,670,-1,670,690,669,-1,668,667,692,-1,692,667,691,-1,676,677,67,-1,67,677,68,-1,677,678,68,-1,68,678,70,-1,
        ]
    }
}
Shape{
    appearance Appearance {
        material  Material 	{
            diffuseColor 0.25098039215686274 0.25098039215686274 0.25098039215686274
            specularColor 0.12549019607843137 0.12549019607843137 0.12549019607843137
            ambientIntensity 0.2
            transparency 0
            shininess 0.5
        }
    }
    geometry IndexedFaceSet {
        ccw TRUE
        solid FALSE
        coord DEF co Coordinate {
            point [
                0.4083 1.5945 0.2029, 0.4083 1.5945 0.5471, 0.4331 1.122 0.1782, 0.4331 1.122 0.5719, -0.4083 1.5945 0.2029, -0.4331 1.122 0.1782, -0.4083 1.5945 0.5471, -0.4331 1.122 0.5719, -0.4331 1.122 0.5719
            ]
        }
        coordIndex [
            0,1,2,-1,2,1,3,-1,4,0,5,-1,5,0,2,-1,6,4,7,-1,7,4,5,-1,1,6,3,-1,3,6,7,-1,4,6,0,-1,0,6,1,-1,
        ]
    }
}
Shape{
    appearance Appearance {
        material  Material 	{
            diffuseColor 0.0 0.0 0.0
            specularColor 0.0 0.0 0.0
            ambientIntensity 0.2
            transparency 0
            shininess 0.5
        }
    }
    geometry IndexedFaceSet {
        ccw TRUE
        solid FALSE
        coord DEF co Coordinate {
            point [
                0.4568 -0.0039 0.6588, 0.4568 -0.0039 0.6546, 0.4568 -0.0 0.6588, 0.4568 -0.0 0.6546, 0.442 -0.0039 0.6588, 0.442 -0.0 0.6588, 0.442 -0.0039 0.6916, 0.442 -0.0 0.6916, 0.4373 -0.0039 0.6916, 0.4373 -0.0 0.6916, 0.4373 -0.0039 0.6546, 0.4373 -0.0 0.6546, 0.4861 -0.0 0.6561, 0.4861 -0.0039 0.6561, 0.4854 -0.0039 0.6558, 0.4758 -0.0039 0.6539, 0.4758 -0.0 0.6539, 0.4815 -0.0 0.6545, 0.4815 -0.0039 0.6545, 0.4845 -0.0 0.6555, 0.4854 -0.0 0.6558, 0.4861 -0.0039 0.6607, 0.4861 -0.0 0.6607, 0.4845 -0.0 0.6599, 0.4828 -0.0039 0.6591, 0.4828 -0.0 0.6591, 0.4786 -0.0 0.6583, 0.4786 -0.0039 0.6583, 0.4765 -0.0 0.6582, 0.4765 -0.0039 0.6582, 0.4729 -0.0 0.6586, 0.4729 -0.0039 0.6586, 0.4702 -0.0 0.6596, 0.4702 -0.0039 0.6596, 0.4678 -0.0 0.6613, 0.4678 -0.0039 0.6613, 0.467 -0.0 0.6621, 0.467 -0.0039 0.6621, 0.4651 -0.0 0.6647, 0.4651 -0.0039 0.6647, 0.4639 -0.0 0.6677, 0.4639 -0.0039 0.6677, 0.4633 -0.0 0.6722, 0.4633 -0.0039 0.6722, 0.4633 -0.0 0.6727, 0.4633 -0.0039 0.6727, 0.4639 -0.0 0.6777, 0.4639 -0.0039 0.6777, 0.4652 -0.0 0.6809, 0.4652 -0.0039 0.6809, 0.467 -0.0 0.6835, 0.467 -0.0039 0.6835, 0.4672 -0.0 0.6838, 0.4672 -0.0039 0.6838, 0.4698 -0.0 0.6859, 0.4698 -0.0039 0.6859, 0.4727 -0.0 0.6873, 0.4727 -0.0039 0.6873, 0.4759 -0.0 0.6879, 0.4759 -0.0039 0.6879, 0.4773 -0.0 0.6879, 0.4773 -0.0039 0.6879, 0.4861 -0.0 0.6857, 0.4861 -0.0039 0.6857, 0.4852 -0.0039 0.6862, 0.4814 -0.0 0.6875, 0.4814 -0.0039 0.6875, 0.4845 -0.0 0.6864, 0.4852 -0.0 0.6862, 0.4861 -0.0039 0.6907, 0.4861 -0.0 0.6907, 0.4773 -0.0 0.6922, 0.4773 -0.0039 0.6922, 0.4779 -0.0039 0.6922, 0.4845 -0.0 0.6912, 0.4827 -0.0039 0.6918, 0.4827 -0.0 0.6918, 0.481 -0.0 0.6919, 0.4779 -0.0 0.6922, 0.4747 -0.0 0.6919, 0.472 -0.0039 0.6916, 0.472 -0.0 0.6916, 0.4681 -0.0 0.6901, 0.4681 -0.0039 0.6901, 0.4645 -0.0 0.6876, 0.4645 -0.0039 0.6876, 0.4637 -0.0 0.6868, 0.4637 -0.0039 0.6868, 0.4613 -0.0 0.6837, 0.4613 -0.0039 0.6837, 0.46 -0.0 0.681, 0.4594 -0.0039 0.6797, 0.4594 -0.0 0.6797, 0.4584 -0.0 0.675, 0.4584 -0.0039 0.675, 0.4583 -0.0 0.6724, 0.4583 -0.0039 0.6724, 0.459 -0.0 0.6664, 0.459 -0.0039 0.6664, 0.46 -0.0 0.664, 0.4605 -0.0039 0.6625, 0.4605 -0.0 0.6625, 0.4627 -0.0 0.6594, 0.4627 -0.0039 0.6594, 0.4631 -0.0 0.659, 0.4631 -0.0039 0.659, 0.4658 -0.0 0.6566, 0.4658 -0.0039 0.6566, 0.4693 -0.0 0.6549, 0.4693 -0.0039 0.6549, 0.4733 -0.0 0.6541, 0.4733 -0.0039 0.6541, 0.5134 -0.0039 0.6588, 0.5134 -0.0039 0.6546, 0.5134 -0.0 0.6588, 0.5134 -0.0 0.6546, 0.4983 -0.0 0.6588, 0.4983 -0.0039 0.6588, 0.5083 -0.0 0.6588, 0.4983 -0.0039 0.6712, 0.4983 -0.0 0.6712, 0.5115 -0.0039 0.6712, 0.5083 -0.0 0.6712, 0.5115 -0.0 0.6712, 0.5115 -0.0039 0.6755, 0.5115 -0.0 0.6755, 0.4983 -0.0 0.6755, 0.4983 -0.0039 0.6755, 0.5083 -0.0 0.6755, 0.4983 -0.0039 0.6874, 0.4983 -0.0 0.6874, 0.5126 -0.0039 0.6874, 0.5083 -0.0 0.6874, 0.5126 -0.0 0.6874, 0.5126 -0.0039 0.6916, 0.5126 -0.0 0.6916, 0.4935 -0.0 0.6916, 0.4935 -0.0039 0.6916, 0.5083 -0.0 0.6916, 0.4935 -0.0039 0.6546, 0.4935 -0.0 0.6546, 0.5083 -0.0 0.6546, 0.545 -0.0039 0.6597, 0.5475 -0.0039 0.6626, 0.5435 -0.0039 0.6651, 0.5448 -0.0039 0.6679, 0.5494 -0.0039 0.6664, 0.5455 -0.0039 0.6713, 0.5504 -0.0039 0.6707, 0.5456 -0.0039 0.6734, 0.5506 -0.0039 0.6736, 0.5452 -0.0039 0.6775, 0.55 -0.0039 0.6786, 0.5442 -0.0039 0.6804, 0.5486 -0.0039 0.6822, 0.5428 -0.0039 0.6825, 0.5464 -0.0039 0.6854, 0.5415 -0.0039 0.6839, 0.545 -0.0039 0.6867, 0.5388 -0.0039 0.6857, 0.5418 -0.0039 0.689, 0.5356 -0.0039 0.6868, 0.5374 -0.0039 0.6908, 0.5318 -0.0039 0.6916, 0.5308 -0.0039 0.6874, 0.531 -0.0039 0.6916, 0.5252 -0.0039 0.6874, 0.5204 -0.0039 0.6916, 0.5252 -0.0039 0.6588, 0.5204 -0.0039 0.6546, 0.5306 -0.0039 0.6588, 0.5306 -0.0039 0.6546, 0.5357 -0.0039 0.6594, 0.5369 -0.0039 0.6553, 0.5387 -0.0039 0.6606, 0.5411 -0.0039 0.6569, 0.5411 -0.0039 0.6622, 0.5416 -0.0039 0.6626, 0.5306 -0.0 0.6546, 0.5204 -0.0 0.6546, 0.5369 -0.0 0.6553, 0.5411 -0.0 0.6569, 0.545 -0.0 0.6597, 0.5475 -0.0 0.6626, 0.5494 -0.0 0.6664, 0.5504 -0.0 0.6707, 0.5506 -0.0 0.6736, 0.55 -0.0 0.6786, 0.5486 -0.0 0.6822, 0.5464 -0.0 0.6854, 0.545 -0.0 0.6867, 0.5418 -0.0 0.689, 0.5374 -0.0 0.6908, 0.5318 -0.0 0.6916, 0.531 -0.0 0.6916, 0.5204 -0.0 0.6916, 0.5308 -0.0 0.6874, 0.5252 -0.0 0.6874, 0.5252 -0.0 0.6588, 0.5306 -0.0 0.6588, 0.5416 -0.0 0.6626, 0.5411 -0.0 0.6622, 0.5387 -0.0 0.6606, 0.5357 -0.0 0.6594, 0.5456 -0.0 0.6734, 0.5455 -0.0 0.6713, 0.5448 -0.0 0.6679, 0.5435 -0.0 0.6651, 0.5415 -0.0 0.6839, 0.5428 -0.0 0.6825, 0.5442 -0.0 0.6804, 0.5452 -0.0 0.6775, 0.5356 -0.0 0.6868, 0.5388 -0.0 0.6857, 0.5388 -0.0 0.6857
            ]
        }
        coordIndex [
            0,1,2,-1,2,1,3,-1,4,0,5,-1,5,0,2,-1,6,4,7,-1,7,4,5,-1,8,6,9,-1,9,6,7,-1,10,8,11,-1,11,8,9,-1,1,10,3,-1,3,10,11,-1,6,8,4,-1,4,8,10,-1,4,10,0,-1,0,10,1,-1,12,13,14,-1,15,16,17,-1,15,17,18,-1,18,17,19,-1,18,19,14,-1,14,19,20,-1,14,20,12,-1,21,13,22,-1,22,13,12,-1,21,22,23,-1,21,23,24,-1,23,25,24,-1,24,25,26,-1,24,26,27,-1,27,26,28,-1,27,28,29,-1,29,28,30,-1,29,30,31,-1,31,30,32,-1,31,32,33,-1,33,32,34,-1,33,34,35,-1,35,34,36,-1,35,36,37,-1,37,36,38,-1,37,38,39,-1,39,38,40,-1,39,40,41,-1,41,40,42,-1,41,42,43,-1,43,42,44,-1,43,44,45,-1,45,44,46,-1,45,46,47,-1,47,46,48,-1,47,48,49,-1,49,48,50,-1,49,50,51,-1,51,50,52,-1,51,52,53,-1,53,52,54,-1,53,54,55,-1,55,54,56,-1,55,56,57,-1,57,56,58,-1,57,58,59,-1,59,58,60,-1,59,60,61,-1,62,63,64,-1,61,60,65,-1,61,65,66,-1,66,65,67,-1,66,67,64,-1,64,67,68,-1,64,68,62,-1,69,63,70,-1,70,63,62,-1,71,72,73,-1,69,70,74,-1,69,74,75,-1,74,76,75,-1,75,76,77,-1,75,77,73,-1,73,77,78,-1,73,78,71,-1,72,71,79,-1,72,79,80,-1,79,81,80,-1,80,81,82,-1,80,82,83,-1,83,82,84,-1,83,84,85,-1,85,84,86,-1,85,86,87,-1,87,86,88,-1,87,88,89,-1,89,88,90,-1,89,90,91,-1,90,92,91,-1,91,92,93,-1,91,93,94,-1,94,93,95,-1,94,95,96,-1,96,95,97,-1,96,97,98,-1,98,97,99,-1,98,99,100,-1,99,101,100,-1,100,101,102,-1,100,102,103,-1,103,102,104,-1,103,104,105,-1,105,104,106,-1,105,106,107,-1,107,106,108,-1,107,108,109,-1,109,108,110,-1,109,110,111,-1,111,110,16,-1,111,16,15,-1,64,63,69,-1,55,57,80,-1,47,49,89,-1,80,57,72,-1,89,49,87,-1,64,69,66,-1,80,83,55,-1,55,83,85,-1,55,85,53,-1,53,85,87,-1,53,87,51,-1,51,87,49,-1,57,59,72,-1,72,59,61,-1,72,61,73,-1,73,61,66,-1,73,66,75,-1,75,66,69,-1,96,45,94,-1,94,45,47,-1,94,47,91,-1,91,47,89,-1,13,21,14,-1,14,21,24,-1,14,24,18,-1,18,24,27,-1,18,27,15,-1,15,27,29,-1,15,29,111,-1,111,29,31,-1,111,31,109,-1,109,31,33,-1,109,33,107,-1,107,33,35,-1,107,35,105,-1,105,35,37,-1,105,37,103,-1,103,37,39,-1,103,39,100,-1,100,39,98,-1,98,39,41,-1,98,41,96,-1,96,41,43,-1,96,43,45,-1,112,113,114,-1,114,113,115,-1,116,117,118,-1,118,117,112,-1,118,112,114,-1,119,117,120,-1,120,117,116,-1,119,120,121,-1,121,120,122,-1,121,122,123,-1,124,121,125,-1,125,121,123,-1,126,127,128,-1,128,127,124,-1,128,124,125,-1,129,127,130,-1,130,127,126,-1,129,130,131,-1,131,130,132,-1,131,132,133,-1,134,131,135,-1,135,131,133,-1,136,137,138,-1,138,137,134,-1,138,134,135,-1,139,137,140,-1,140,137,136,-1,139,140,113,-1,113,140,141,-1,113,141,115,-1,139,113,112,-1,112,117,139,-1,139,117,119,-1,139,119,137,-1,131,134,129,-1,129,134,137,-1,129,137,127,-1,127,137,119,-1,127,119,124,-1,124,119,121,-1,142,143,144,-1,144,143,145,-1,145,143,146,-1,145,146,147,-1,147,146,148,-1,147,148,149,-1,149,148,150,-1,149,150,151,-1,151,150,152,-1,151,152,153,-1,153,152,154,-1,153,154,155,-1,155,154,156,-1,155,156,157,-1,157,156,158,-1,157,158,159,-1,159,158,160,-1,159,160,161,-1,160,162,161,-1,161,162,163,-1,161,163,164,-1,164,163,165,-1,164,165,166,-1,166,165,167,-1,166,167,168,-1,168,167,169,-1,168,169,170,-1,170,169,171,-1,170,171,172,-1,172,171,173,-1,172,173,174,-1,174,173,175,-1,174,175,176,-1,176,175,142,-1,176,142,177,-1,177,142,144,-1,171,169,178,-1,178,169,179,-1,171,178,180,-1,171,180,173,-1,173,180,181,-1,173,181,175,-1,175,181,182,-1,175,182,142,-1,142,182,183,-1,142,183,143,-1,143,183,184,-1,143,184,146,-1,146,184,185,-1,146,185,148,-1,148,185,186,-1,148,186,150,-1,150,186,187,-1,150,187,152,-1,152,187,188,-1,152,188,154,-1,154,188,189,-1,154,189,156,-1,156,189,190,-1,156,190,158,-1,158,190,191,-1,158,191,160,-1,160,191,192,-1,160,192,162,-1,162,192,193,-1,162,193,163,-1,163,193,194,-1,163,194,165,-1,167,165,195,-1,195,165,194,-1,169,167,179,-1,179,167,195,-1,164,166,196,-1,196,166,197,-1,166,168,197,-1,197,168,198,-1,168,170,198,-1,198,170,199,-1,177,200,201,-1,177,201,176,-1,176,201,202,-1,176,202,174,-1,174,202,203,-1,174,203,172,-1,172,203,199,-1,172,199,170,-1,149,204,205,-1,149,205,147,-1,147,205,206,-1,147,206,145,-1,145,206,207,-1,145,207,144,-1,144,207,200,-1,144,200,177,-1,157,208,209,-1,157,209,155,-1,155,209,210,-1,155,210,153,-1,153,210,211,-1,153,211,151,-1,151,211,204,-1,151,204,149,-1,164,196,212,-1,164,212,161,-1,161,212,213,-1,161,213,159,-1,159,213,208,-1,159,208,157,-1,
        ]
    }
}
Shape{
    appearance Appearance {
        material  Material 	{
            diffuseColor 0.7529411764705882 0.7529411764705882 0.7529411764705882
            specularColor 0.3764705882352941 0.3764705882352941 0.3764705882352941
            ambientIntensity 0.2
            transparency 0
            shininess 0.5
        }
    }
    geometry IndexedFaceSet {
        ccw TRUE
        solid FALSE
        coord DEF co Coordinate {
            point [
                0.5252 -0.0 0.6874, 0.5252 -0.0 0.6588, 0.5308 -0.0 0.6874, 0.5306 -0.0 0.6588, 0.5357 -0.0 0.6594, 0.5387 -0.0 0.6606, 0.5411 -0.0 0.6622, 0.5416 -0.0 0.6626, 0.5455 -0.0 0.6713, 0.5456 -0.0 0.6734, 0.5452 -0.0 0.6775, 0.5442 -0.0 0.6804, 0.5428 -0.0 0.6825, 0.5415 -0.0 0.6839, 0.5356 -0.0 0.6868, 0.5388 -0.0 0.6857, 0.5435 -0.0 0.6651, 0.5448 -0.0 0.6679, 0.5448 -0.0 0.6679
            ]
        }
        coordIndex [
            0,1,2,-1,2,1,3,-1,2,3,4,-1,4,5,2,-1,2,5,6,-1,2,6,7,-1,8,9,2,-1,2,9,10,-1,2,10,11,-1,11,12,2,-1,2,12,13,-1,2,13,14,-1,14,13,15,-1,7,16,2,-1,2,16,17,-1,2,17,8,-1,
        ]
    }
}
Shape{
    appearance Appearance {
        material  Material 	{
            diffuseColor 0.0 0.0 0.0
            specularColor 0.0 0.0 0.0
            ambientIntensity 0.2
            transparency 0
            shininess 0.5
        }
    }
    geometry IndexedFaceSet {
        ccw TRUE
        solid FALSE
        coord DEF co Coordinate {
            point [
                0.563 -0.0039 0.6689, 0.5615 -0.0039 0.6647, 0.5755 -0.0039 0.6689, 0.577 -0.0039 0.6647, 0.5686 -0.0039 0.6843, 0.5668 -0.0039 0.6916, 0.5527 -0.0039 0.6546, 0.558 -0.0039 0.6546, 0.5689 -0.0039 0.6854, 0.5692 -0.0039 0.6869, 0.5719 -0.0039 0.6916, 0.5693 -0.0039 0.6869, 0.5696 -0.0039 0.6853, 0.5699 -0.0039 0.6843, 0.586 -0.0039 0.6546, 0.5807 -0.0039 0.6546, 0.5719 -0.0 0.6916, 0.586 -0.0 0.6546, 0.5668 -0.0 0.6916, 0.5527 -0.0 0.6546, 0.5634 -0.0 0.6826, 0.558 -0.0 0.6546, 0.5615 -0.0 0.6647, 0.577 -0.0 0.6647, 0.5634 -0.0 0.6647, 0.5807 -0.0 0.6546, 0.563 -0.0 0.6689, 0.5755 -0.0 0.6689, 0.5699 -0.0 0.6843, 0.5693 -0.0 0.6869, 0.5696 -0.0 0.6853, 0.5692 -0.0 0.6869, 0.5686 -0.0 0.6843, 0.5689 -0.0 0.6854, 0.5689 -0.0 0.6854
            ]
        }
        coordIndex [
            0,1,2,-1,2,1,3,-1,4,5,0,-1,0,5,6,-1,0,6,1,-1,1,6,7,-1,4,8,5,-1,5,8,9,-1,5,9,10,-1,10,9,11,-1,10,11,12,-1,12,13,10,-1,10,13,2,-1,10,2,14,-1,14,2,3,-1,14,3,15,-1,10,14,16,-1,16,14,17,-1,5,10,18,-1,18,10,16,-1,19,6,20,-1,20,6,5,-1,20,5,18,-1,7,6,21,-1,21,6,19,-1,1,7,22,-1,22,7,21,-1,23,3,24,-1,24,3,1,-1,24,1,22,-1,15,3,25,-1,25,3,23,-1,14,15,17,-1,17,15,25,-1,0,2,26,-1,26,2,27,-1,2,13,27,-1,27,13,28,-1,11,29,30,-1,11,30,12,-1,12,30,28,-1,12,28,13,-1,11,9,29,-1,29,9,31,-1,4,32,33,-1,4,33,8,-1,8,33,31,-1,8,31,9,-1,4,0,32,-1,32,0,26,-1,
        ]
    }
}
Shape{
    appearance Appearance {
        material  Material 	{
            diffuseColor 0.7529411764705882 0.7529411764705882 0.7529411764705882
            specularColor 0.3764705882352941 0.3764705882352941 0.3764705882352941
            ambientIntensity 0.2
            transparency 0
            shininess 0.5
        }
    }
    geometry IndexedFaceSet {
        ccw TRUE
        solid FALSE
        coord DEF co Coordinate {
            point [
                0.5693 -0.0 0.6869, 0.5692 -0.0 0.6869, 0.5696 -0.0 0.6853, 0.5689 -0.0 0.6854, 0.5699 -0.0 0.6843, 0.5686 -0.0 0.6843, 0.5755 -0.0 0.6689, 0.563 -0.0 0.6689, 0.563 -0.0 0.6689
            ]
        }
        coordIndex [
            0,1,2,-1,2,1,3,-1,2,3,4,-1,4,3,5,-1,4,5,6,-1,6,5,7,-1,
        ]
    }
}
Shape{
    appearance Appearance {
        material  Material 	{
            diffuseColor 0.0 0.0 0.0
            specularColor 0.0 0.0 0.0
            ambientIntensity 0.2
            transparency 0
            shininess 0.5
        }
    }
    geometry IndexedFaceSet {
        ccw TRUE
        solid FALSE
        coord DEF co Coordinate {
            point [
                0.4572 -0.0039 0.6, 0.4572 -0.0039 0.5957, 0.4572 -0.0 0.6, 0.4572 -0.0 0.5957, 0.442 -0.0039 0.6, 0.442 -0.0 0.6, 0.442 -0.0039 0.6124, 0.442 -0.0 0.6124, 0.4553 -0.0039 0.6124, 0.4553 -0.0 0.6124, 0.4553 -0.0039 0.6167, 0.4553 -0.0 0.6167, 0.442 -0.0039 0.6167, 0.442 -0.0 0.6167, 0.442 -0.0039 0.6286, 0.442 -0.0 0.6286, 0.4563 -0.0039 0.6286, 0.4563 -0.0 0.6286, 0.4563 -0.0039 0.6328, 0.4563 -0.0 0.6328, 0.4373 -0.0039 0.6328, 0.4373 -0.0 0.6328, 0.4373 -0.0039 0.5957, 0.4373 -0.0 0.5957, 0.4783 -0.0039 0.5957, 0.4829 -0.0039 0.5957, 0.4783 -0.0039 0.5998, 0.4829 -0.0039 0.6128, 0.4783 -0.0039 0.6126, 0.4682 -0.0039 0.607, 0.4693 -0.0039 0.6076, 0.4781 -0.0039 0.5998, 0.4757 -0.0039 0.6005, 0.4774 -0.0039 0.5987, 0.4744 -0.0039 0.5996, 0.4721 -0.0039 0.6082, 0.4783 -0.0039 0.609, 0.4783 -0.0039 0.6065, 0.4783 -0.0039 0.6062, 0.478 -0.0039 0.6041, 0.4773 -0.0039 0.6025, 0.4763 -0.0039 0.6011, 0.4781 -0.0039 0.6146, 0.4825 -0.0039 0.6165, 0.4776 -0.0039 0.6163, 0.4817 -0.0039 0.6186, 0.4771 -0.0039 0.6172, 0.4808 -0.0039 0.62, 0.4764 -0.0039 0.618, 0.4797 -0.0039 0.6211, 0.4755 -0.0039 0.6185, 0.4781 -0.0039 0.622, 0.4745 -0.0039 0.6189, 0.4762 -0.0039 0.6226, 0.4729 -0.0039 0.6191, 0.4733 -0.0039 0.6228, 0.4702 -0.0039 0.6188, 0.4693 -0.0039 0.6224, 0.4673 -0.0039 0.6178, 0.4657 -0.0039 0.6212, 0.4642 -0.0039 0.6159, 0.4642 -0.0039 0.6204, 0.4673 -0.0039 0.6005, 0.4639 -0.0039 0.5972, 0.4677 -0.0039 0.6001, 0.4655 -0.0039 0.5961, 0.4686 -0.0039 0.5995, 0.4673 -0.0039 0.5954, 0.4697 -0.0039 0.5991, 0.47 -0.0039 0.5951, 0.4712 -0.0039 0.5989, 0.4724 -0.0039 0.5954, 0.473 -0.0039 0.5991, 0.4743 -0.0039 0.5961, 0.4759 -0.0039 0.5972, 0.4704 -0.0039 0.6115, 0.4667 -0.0039 0.6105, 0.4676 -0.0039 0.6066, 0.4648 -0.0039 0.6095, 0.467 -0.0039 0.6059, 0.4634 -0.0039 0.6083, 0.4666 -0.0039 0.605, 0.4624 -0.0039 0.6068, 0.4664 -0.0039 0.6039, 0.4619 -0.0039 0.6051, 0.4663 -0.0039 0.6032, 0.4616 -0.0039 0.6028, 0.4665 -0.0039 0.6021, 0.4619 -0.0039 0.6007, 0.4668 -0.0039 0.6013, 0.4624 -0.0039 0.5992, 0.4634 -0.0039 0.5977, 0.4733 -0.0 0.6228, 0.4693 -0.0 0.6224, 0.4657 -0.0 0.6212, 0.4642 -0.0 0.6204, 0.4642 -0.0 0.6159, 0.4673 -0.0 0.6178, 0.4702 -0.0 0.6188, 0.4729 -0.0 0.6191, 0.4745 -0.0 0.6189, 0.4755 -0.0 0.6185, 0.4764 -0.0 0.618, 0.4771 -0.0 0.6172, 0.4776 -0.0 0.6163, 0.4781 -0.0 0.6146, 0.4783 -0.0 0.6126, 0.4704 -0.0 0.6115, 0.4667 -0.0 0.6105, 0.4648 -0.0 0.6095, 0.4634 -0.0 0.6083, 0.4624 -0.0 0.6068, 0.4619 -0.0 0.6051, 0.4616 -0.0 0.6028, 0.4619 -0.0 0.6007, 0.4624 -0.0 0.5992, 0.4634 -0.0 0.5977, 0.4639 -0.0 0.5972, 0.47 -0.0 0.5951, 0.4673 -0.0 0.5954, 0.4673 -0.0 0.5954, 0.4655 -0.0 0.5961, 0.4724 -0.0 0.5954, 0.4726 -0.0 0.5954, 0.4743 -0.0 0.5961, 0.4759 -0.0 0.5972, 0.4774 -0.0 0.5987, 0.4781 -0.0 0.5998, 0.4783 -0.0 0.5998, 0.4783 -0.0 0.5957, 0.4829 -0.0 0.5957, 0.4829 -0.0 0.6128, 0.4825 -0.0 0.6165, 0.4817 -0.0 0.6186, 0.4808 -0.0 0.62, 0.4797 -0.0 0.6211, 0.4781 -0.0 0.622, 0.4762 -0.0 0.6226, 0.4676 -0.0 0.6066, 0.4682 -0.0 0.607, 0.4693 -0.0 0.6076, 0.4721 -0.0 0.6082, 0.4663 -0.0 0.6032, 0.4664 -0.0 0.6039, 0.4666 -0.0 0.605, 0.467 -0.0 0.6059, 0.4677 -0.0 0.6001, 0.4673 -0.0 0.6005, 0.4668 -0.0 0.6013, 0.4665 -0.0 0.6021, 0.4712 -0.0 0.5989, 0.4697 -0.0 0.5991, 0.4686 -0.0 0.5995, 0.4763 -0.0 0.6011, 0.4757 -0.0 0.6005, 0.4744 -0.0 0.5996, 0.473 -0.0 0.5991, 0.4783 -0.0 0.6065, 0.4783 -0.0 0.6062, 0.478 -0.0 0.6041, 0.4773 -0.0 0.6025, 0.4783 -0.0 0.609, 0.4783 -0.0 0.609
            ]
        }
        coordIndex [
            0,1,2,-1,2,1,3,-1,4,0,5,-1,5,0,2,-1,6,4,7,-1,7,4,5,-1,8,6,9,-1,9,6,7,-1,10,8,11,-1,11,8,9,-1,12,10,13,-1,13,10,11,-1,14,12,15,-1,15,12,13,-1,16,14,17,-1,17,14,15,-1,18,16,19,-1,19,16,17,-1,20,18,21,-1,21,18,19,-1,22,20,23,-1,23,20,21,-1,1,22,3,-1,3,22,23,-1,22,1,0,-1,0,4,22,-1,22,4,6,-1,22,6,20,-1,16,18,14,-1,14,18,20,-1,14,20,12,-1,12,20,6,-1,12,6,10,-1,10,6,8,-1,24,25,26,-1,26,25,27,-1,28,29,30,-1,31,32,33,-1,33,32,34,-1,35,36,27,-1,27,36,37,-1,37,38,27,-1,27,38,39,-1,27,39,26,-1,26,39,40,-1,26,40,31,-1,31,40,41,-1,31,41,32,-1,30,35,28,-1,28,35,27,-1,28,27,42,-1,42,27,43,-1,42,43,44,-1,44,43,45,-1,44,45,46,-1,46,45,47,-1,46,47,48,-1,48,47,49,-1,48,49,50,-1,50,49,51,-1,50,51,52,-1,52,51,53,-1,52,53,54,-1,54,53,55,-1,54,55,56,-1,56,55,57,-1,56,57,58,-1,58,57,59,-1,58,59,60,-1,60,59,61,-1,62,63,64,-1,64,63,65,-1,64,65,66,-1,66,65,67,-1,66,67,68,-1,68,67,69,-1,68,69,70,-1,70,69,71,-1,70,71,72,-1,72,71,73,-1,72,73,34,-1,34,73,74,-1,34,74,33,-1,28,75,29,-1,29,75,76,-1,29,76,77,-1,77,76,78,-1,77,78,79,-1,79,78,80,-1,79,80,81,-1,81,80,82,-1,81,82,83,-1,83,82,84,-1,83,84,85,-1,85,84,86,-1,85,86,87,-1,87,86,88,-1,87,88,89,-1,89,88,90,-1,89,90,62,-1,62,90,91,-1,62,91,63,-1,55,92,93,-1,55,93,57,-1,57,93,94,-1,57,94,59,-1,59,94,95,-1,59,95,61,-1,60,61,96,-1,96,61,95,-1,60,96,97,-1,60,97,58,-1,58,97,98,-1,58,98,56,-1,56,98,99,-1,56,99,54,-1,54,99,100,-1,54,100,52,-1,52,100,101,-1,52,101,50,-1,50,101,102,-1,50,102,48,-1,48,102,103,-1,48,103,46,-1,46,103,104,-1,46,104,44,-1,44,104,105,-1,44,105,42,-1,42,105,106,-1,42,106,28,-1,75,28,107,-1,107,28,106,-1,75,107,108,-1,75,108,76,-1,76,108,109,-1,76,109,78,-1,78,109,110,-1,78,110,80,-1,80,110,111,-1,80,111,82,-1,82,111,112,-1,82,112,84,-1,84,112,113,-1,84,113,86,-1,86,113,114,-1,86,114,88,-1,88,114,115,-1,88,115,90,-1,90,115,116,-1,90,116,91,-1,91,116,117,-1,91,117,63,-1,118,69,119,-1,119,69,67,-1,119,67,120,-1,120,67,65,-1,120,65,121,-1,121,65,63,-1,121,63,117,-1,69,118,122,-1,69,122,71,-1,71,122,123,-1,71,123,73,-1,123,124,73,-1,73,124,125,-1,73,125,74,-1,74,125,126,-1,74,126,33,-1,33,126,127,-1,33,127,31,-1,26,31,128,-1,128,31,127,-1,24,26,129,-1,129,26,128,-1,25,24,130,-1,130,24,129,-1,27,25,131,-1,131,25,130,-1,27,131,132,-1,27,132,43,-1,43,132,133,-1,43,133,45,-1,45,133,134,-1,45,134,47,-1,47,134,135,-1,47,135,49,-1,49,135,136,-1,49,136,51,-1,51,136,137,-1,51,137,53,-1,53,137,92,-1,53,92,55,-1,77,138,139,-1,77,139,29,-1,29,139,140,-1,29,140,30,-1,30,140,141,-1,30,141,35,-1,85,142,143,-1,85,143,83,-1,83,143,144,-1,83,144,81,-1,81,144,145,-1,81,145,79,-1,79,145,138,-1,79,138,77,-1,64,146,147,-1,64,147,62,-1,62,147,148,-1,62,148,89,-1,89,148,149,-1,89,149,87,-1,87,149,142,-1,87,142,85,-1,70,150,151,-1,70,151,68,-1,68,151,152,-1,68,152,66,-1,66,152,146,-1,66,146,64,-1,41,153,154,-1,41,154,32,-1,32,154,155,-1,32,155,34,-1,34,155,156,-1,34,156,72,-1,72,156,150,-1,72,150,70,-1,37,157,158,-1,37,158,38,-1,38,158,159,-1,38,159,39,-1,39,159,160,-1,39,160,40,-1,40,160,153,-1,40,153,41,-1,37,36,157,-1,157,36,161,-1,36,35,161,-1,161,35,141,-1,
        ]
    }
}
Shape{
    appearance Appearance {
        material  Material 	{
            diffuseColor 0.7529411764705882 0.7529411764705882 0.7529411764705882
            specularColor 0.3764705882352941 0.3764705882352941 0.3764705882352941
            ambientIntensity 0.2
            transparency 0
            shininess 0.5
        }
    }
    geometry IndexedFaceSet {
        ccw TRUE
        solid FALSE
        coord DEF co Coordinate {
            point [
                0.4783 -0.0 0.609, 0.4721 -0.0 0.6082, 0.4783 -0.0 0.6065, 0.4693 -0.0 0.6076, 0.4682 -0.0 0.607, 0.4676 -0.0 0.6066, 0.4783 -0.0 0.6062, 0.478 -0.0 0.6041, 0.467 -0.0 0.6059, 0.4773 -0.0 0.6025, 0.4673 -0.0 0.6005, 0.4677 -0.0 0.6001, 0.4757 -0.0 0.6005, 0.4668 -0.0 0.6013, 0.4744 -0.0 0.5996, 0.473 -0.0 0.5991, 0.4712 -0.0 0.5989, 0.4666 -0.0 0.605, 0.4664 -0.0 0.6039, 0.4763 -0.0 0.6011, 0.4663 -0.0 0.6032, 0.4665 -0.0 0.6021, 0.4686 -0.0 0.5995, 0.4697 -0.0 0.5991, 0.4697 -0.0 0.5991
            ]
        }
        coordIndex [
            0,1,2,-1,2,1,3,-1,3,4,2,-1,2,4,5,-1,2,5,6,-1,6,5,7,-1,7,5,8,-1,7,8,9,-1,10,11,12,-1,10,12,13,-1,14,12,15,-1,15,12,16,-1,8,17,9,-1,9,17,18,-1,9,18,19,-1,19,18,20,-1,19,20,12,-1,12,20,21,-1,12,21,13,-1,11,22,12,-1,12,22,23,-1,12,23,16,-1,
        ]
    }
}
Shape{
    appearance Appearance {
        material  Material 	{
            diffuseColor 0.0 0.0 0.0
            specularColor 0.0 0.0 0.0
            ambientIntensity 0.2
            transparency 0
            shininess 0.5
        }
    }
    geometry IndexedFaceSet {
        ccw TRUE
        solid FALSE
        coord DEF co Coordinate {
            point [
                0.4892 -0.0 0.6015, 0.4892 -0.0039 0.6015, 0.4908 -0.0039 0.6005, 0.4968 -0.0039 0.5989, 0.4968 -0.0 0.5989, 0.4937 -0.0 0.5993, 0.4937 -0.0039 0.5993, 0.4913 -0.0 0.6002, 0.4908 -0.0 0.6005, 0.4892 -0.0039 0.5967, 0.4892 -0.0 0.5967, 0.4913 -0.0 0.5959, 0.4924 -0.0039 0.5955, 0.4964 -0.0 0.5951, 0.4964 -0.0039 0.5951, 0.4935 -0.0 0.5954, 0.4924 -0.0 0.5955, 0.4993 -0.0 0.5954, 0.5003 -0.0039 0.5955, 0.5003 -0.0 0.5955, 0.5028 -0.0 0.5964, 0.5028 -0.0039 0.5964, 0.5041 -0.0 0.5972, 0.5041 -0.0039 0.5972, 0.5054 -0.0 0.5984, 0.5054 -0.0039 0.5984, 0.5063 -0.0 0.5996, 0.5063 -0.0039 0.5996, 0.5069 -0.0 0.6011, 0.5069 -0.0039 0.6011, 0.5071 -0.0 0.6029, 0.5071 -0.0039 0.6029, 0.5069 -0.0 0.6047, 0.5069 -0.0039 0.6047, 0.5064 -0.0 0.606, 0.5064 -0.0039 0.606, 0.5055 -0.0 0.6073, 0.5055 -0.0039 0.6073, 0.5044 -0.0 0.6083, 0.5044 -0.0039 0.6083, 0.5013 -0.0 0.61, 0.5013 -0.0039 0.61, 0.4995 -0.0 0.6108, 0.4995 -0.0039 0.6108, 0.4967 -0.0 0.612, 0.4967 -0.0039 0.612, 0.495 -0.0 0.613, 0.495 -0.0039 0.613, 0.4946 -0.0 0.6135, 0.4946 -0.0039 0.6135, 0.4942 -0.0 0.6142, 0.4942 -0.0039 0.6142, 0.4941 -0.0 0.6149, 0.4941 -0.0039 0.6149, 0.494 -0.0 0.6155, 0.494 -0.0039 0.6155, 0.4941 -0.0 0.6162, 0.4941 -0.0039 0.6162, 0.4943 -0.0 0.6169, 0.4943 -0.0039 0.6169, 0.4947 -0.0 0.6175, 0.4947 -0.0039 0.6175, 0.4954 -0.0 0.6181, 0.4954 -0.0039 0.6181, 0.4965 -0.0 0.6186, 0.4965 -0.0039 0.6186, 0.4977 -0.0 0.619, 0.4977 -0.0039 0.619, 0.4991 -0.0 0.6191, 0.4991 -0.0039 0.6191, 0.5024 -0.0 0.6186, 0.5024 -0.0039 0.6186, 0.505 -0.0 0.6176, 0.505 -0.0039 0.6176, 0.5058 -0.0 0.6171, 0.5058 -0.0039 0.6171, 0.5058 -0.0039 0.6217, 0.5058 -0.0 0.6217, 0.5024 -0.0 0.6226, 0.5024 -0.0039 0.6226, 0.4995 -0.0 0.6228, 0.4995 -0.0039 0.6228, 0.4959 -0.0 0.6224, 0.4959 -0.0039 0.6224, 0.4934 -0.0 0.6215, 0.4934 -0.0039 0.6215, 0.4922 -0.0 0.6207, 0.4922 -0.0039 0.6207, 0.4913 -0.0 0.62, 0.4908 -0.0039 0.6195, 0.4908 -0.0 0.6195, 0.49 -0.0 0.6182, 0.49 -0.0039 0.6182, 0.4894 -0.0 0.6167, 0.4894 -0.0039 0.6167, 0.4892 -0.0 0.6151, 0.4892 -0.0039 0.6151, 0.4894 -0.0 0.6133, 0.4894 -0.0039 0.6133, 0.4899 -0.0 0.6119, 0.4899 -0.0039 0.6119, 0.4905 -0.0 0.6109, 0.4905 -0.0039 0.6109, 0.4963 -0.0 0.6074, 0.4963 -0.0039 0.6074, 0.4935 -0.0039 0.6087, 0.4913 -0.0 0.6101, 0.4913 -0.0039 0.6101, 0.4913 -0.0 0.6101, 0.4935 -0.0 0.6087, 0.4993 -0.0 0.6061, 0.4993 -0.0039 0.6061, 0.5011 -0.0 0.605, 0.5011 -0.0039 0.605, 0.5017 -0.0 0.6044, 0.5017 -0.0039 0.6044, 0.5021 -0.0 0.6038, 0.5021 -0.0039 0.6038, 0.5023 -0.0 0.6031, 0.5023 -0.0039 0.6031, 0.5023 -0.0 0.6025, 0.5023 -0.0039 0.6025, 0.5022 -0.0 0.6016, 0.5022 -0.0039 0.6016, 0.502 -0.0 0.6009, 0.502 -0.0039 0.6009, 0.5016 -0.0 0.6003, 0.5016 -0.0039 0.6003, 0.501 -0.0 0.5999, 0.501 -0.0039 0.5999, 0.5006 -0.0 0.5996, 0.5006 -0.0039 0.5996, 0.4994 -0.0 0.5992, 0.4994 -0.0039 0.5992, 0.497 -0.0 0.5989, 0.497 -0.0039 0.5989, 0.5301 -0.0039 0.6222, 0.5349 -0.0039 0.6222, 0.5301 -0.0 0.6222, 0.5349 -0.0 0.6222, 0.5229 -0.0039 0.6023, 0.5229 -0.0 0.6023, 0.5225 -0.0 0.601, 0.5225 -0.0039 0.601, 0.5223 -0.0 0.6001, 0.5223 -0.0039 0.6001, 0.5222 -0.0039 0.6001, 0.5222 -0.0 0.6001, 0.5216 -0.0039 0.6023, 0.5216 -0.0 0.6023, 0.5147 -0.0039 0.6222, 0.5169 -0.0 0.6158, 0.5147 -0.0 0.6222, 0.5095 -0.0039 0.6222, 0.5095 -0.0 0.6222, 0.5199 -0.0039 0.5958, 0.5169 -0.0 0.6033, 0.5199 -0.0 0.5958, 0.5178 -0.0 0.591, 0.5178 -0.0039 0.591, 0.5197 -0.0 0.5954, 0.5169 -0.0 0.5893, 0.5169 -0.0 0.5893, 0.5161 -0.0039 0.5884, 0.5169 -0.0039 0.5893, 0.5161 -0.0 0.5884, 0.5152 -0.0 0.5878, 0.5152 -0.0039 0.5878, 0.5142 -0.0 0.5874, 0.5142 -0.0039 0.5874, 0.5131 -0.0 0.5873, 0.5131 -0.0039 0.5873, 0.5114 -0.0 0.5875, 0.5114 -0.0039 0.5875, 0.5105 -0.0 0.5878, 0.5105 -0.0039 0.5878, 0.5105 -0.0039 0.5837, 0.5105 -0.0 0.5837, 0.5124 -0.0 0.5833, 0.5124 -0.0039 0.5833, 0.5134 -0.0 0.5833, 0.5134 -0.0039 0.5833, 0.5153 -0.0 0.5835, 0.5153 -0.0039 0.5835, 0.5169 -0.0 0.5841, 0.5172 -0.0039 0.5842, 0.5172 -0.0 0.5842, 0.5188 -0.0 0.5853, 0.5188 -0.0039 0.5853, 0.5191 -0.0 0.5856, 0.5191 -0.0039 0.5856, 0.5208 -0.0 0.5877, 0.5208 -0.0039 0.5877, 0.5229 -0.0 0.5917, 0.5229 -0.0039 0.5917, 0.5243 -0.0 0.5954, 0.5598 -0.0039 0.6, 0.5598 -0.0039 0.5957, 0.5598 -0.0 0.6, 0.5598 -0.0 0.5957, 0.5447 -0.0039 0.6, 0.5516 -0.0 0.6, 0.5447 -0.0 0.6, 0.5447 -0.0039 0.6124, 0.5447 -0.0 0.6124, 0.558 -0.0039 0.6124, 0.5516 -0.0 0.6124, 0.558 -0.0 0.6124, 0.558 -0.0039 0.6167, 0.558 -0.0 0.6167, 0.5447 -0.0 0.6167, 0.5447 -0.0039 0.6167, 0.5516 -0.0 0.6167, 0.5447 -0.0039 0.6286, 0.5447 -0.0 0.6286, 0.559 -0.0 0.6286, 0.559 -0.0039 0.6286, 0.5516 -0.0 0.6286, 0.559 -0.0039 0.6328, 0.559 -0.0 0.6328, 0.5399 -0.0 0.6328, 0.5399 -0.0039 0.6328, 0.5516 -0.0 0.6328, 0.5399 -0.0039 0.5957, 0.5399 -0.0 0.5957, 0.5516 -0.0 0.5957, 0.5914 -0.0039 0.6009, 0.5939 -0.0039 0.6038, 0.59 -0.0039 0.6063, 0.5912 -0.0039 0.6091, 0.5959 -0.0039 0.6076, 0.5919 -0.0039 0.6125, 0.5969 -0.0039 0.6119, 0.592 -0.0039 0.6146, 0.597 -0.0039 0.6148, 0.5916 -0.0039 0.6187, 0.5964 -0.0039 0.6198, 0.5906 -0.0039 0.6216, 0.5951 -0.0039 0.6234, 0.5892 -0.0039 0.6237, 0.5928 -0.0039 0.6266, 0.5879 -0.0039 0.6251, 0.5914 -0.0039 0.6279, 0.5852 -0.0039 0.6269, 0.5882 -0.0039 0.6302, 0.582 -0.0039 0.628, 0.5838 -0.0039 0.632, 0.5782 -0.0039 0.6328, 0.5772 -0.0039 0.6286, 0.5774 -0.0039 0.6328, 0.5716 -0.0039 0.6286, 0.5669 -0.0039 0.6328, 0.5716 -0.0039 0.6, 0.5669 -0.0039 0.5957, 0.577 -0.0039 0.6, 0.577 -0.0039 0.5957, 0.5821 -0.0039 0.6006, 0.5833 -0.0039 0.5965, 0.5852 -0.0039 0.6017, 0.5875 -0.0039 0.5981, 0.5876 -0.0039 0.6034, 0.588 -0.0039 0.6038, 0.577 -0.0 0.5957, 0.5669 -0.0 0.5957, 0.5833 -0.0 0.5965, 0.5875 -0.0 0.5981, 0.5914 -0.0 0.6009, 0.5939 -0.0 0.6038, 0.5959 -0.0 0.6076, 0.5969 -0.0 0.6119, 0.597 -0.0 0.6148, 0.5964 -0.0 0.6198, 0.5951 -0.0 0.6234, 0.5928 -0.0 0.6266, 0.5914 -0.0 0.6279, 0.5882 -0.0 0.6302, 0.5838 -0.0 0.632, 0.5782 -0.0 0.6328, 0.5774 -0.0 0.6328, 0.5669 -0.0 0.6328, 0.5772 -0.0 0.6286, 0.5716 -0.0 0.6286, 0.5716 -0.0 0.6, 0.577 -0.0 0.6, 0.588 -0.0 0.6038, 0.5876 -0.0 0.6034, 0.5852 -0.0 0.6017, 0.5821 -0.0 0.6006, 0.592 -0.0 0.6146, 0.5919 -0.0 0.6125, 0.5912 -0.0 0.6091, 0.59 -0.0 0.6063, 0.5879 -0.0 0.6251, 0.5892 -0.0 0.6237, 0.5906 -0.0 0.6216, 0.5916 -0.0 0.6187, 0.582 -0.0 0.628, 0.5852 -0.0 0.6269, 0.5852 -0.0 0.6269
            ]
        }
        coordIndex [
            0,1,2,-1,3,4,5,-1,3,5,6,-1,6,5,7,-1,6,7,2,-1,2,7,8,-1,2,8,0,-1,9,1,10,-1,10,1,0,-1,10,11,9,-1,9,11,12,-1,13,14,15,-1,15,14,12,-1,15,12,16,-1,16,12,11,-1,13,17,14,-1,14,17,18,-1,17,19,18,-1,18,19,20,-1,18,20,21,-1,21,20,22,-1,21,22,23,-1,23,22,24,-1,23,24,25,-1,25,24,26,-1,25,26,27,-1,27,26,28,-1,27,28,29,-1,29,28,30,-1,29,30,31,-1,31,30,32,-1,31,32,33,-1,33,32,34,-1,33,34,35,-1,35,34,36,-1,35,36,37,-1,37,36,38,-1,37,38,39,-1,39,38,40,-1,39,40,41,-1,41,40,42,-1,41,42,43,-1,43,42,44,-1,43,44,45,-1,45,44,46,-1,45,46,47,-1,47,46,48,-1,47,48,49,-1,49,48,50,-1,49,50,51,-1,51,50,52,-1,51,52,53,-1,53,52,54,-1,53,54,55,-1,55,54,56,-1,55,56,57,-1,57,56,58,-1,57,58,59,-1,59,58,60,-1,59,60,61,-1,61,60,62,-1,61,62,63,-1,63,62,64,-1,63,64,65,-1,65,64,66,-1,65,66,67,-1,67,66,68,-1,67,68,69,-1,69,68,70,-1,69,70,71,-1,71,70,72,-1,71,72,73,-1,73,72,74,-1,73,74,75,-1,76,75,77,-1,77,75,74,-1,76,77,78,-1,76,78,79,-1,79,78,80,-1,79,80,81,-1,81,80,82,-1,81,82,83,-1,83,82,84,-1,83,84,85,-1,85,84,86,-1,85,86,87,-1,86,88,87,-1,87,88,89,-1,88,90,89,-1,89,90,91,-1,89,91,92,-1,92,91,93,-1,92,93,94,-1,94,93,95,-1,94,95,96,-1,96,95,97,-1,96,97,98,-1,98,97,99,-1,98,99,100,-1,100,99,101,-1,100,101,102,-1,103,104,105,-1,102,101,106,-1,102,106,107,-1,107,106,108,-1,107,108,105,-1,105,108,109,-1,105,109,103,-1,104,103,110,-1,104,110,111,-1,111,110,112,-1,111,112,113,-1,113,112,114,-1,113,114,115,-1,115,114,116,-1,115,116,117,-1,117,116,118,-1,117,118,119,-1,119,118,120,-1,119,120,121,-1,121,120,122,-1,121,122,123,-1,123,122,124,-1,123,124,125,-1,125,124,126,-1,125,126,127,-1,127,126,128,-1,127,128,129,-1,129,128,130,-1,129,130,131,-1,131,130,132,-1,131,132,133,-1,133,132,134,-1,133,134,135,-1,135,134,4,-1,135,4,3,-1,61,63,85,-1,85,63,83,-1,111,43,104,-1,104,43,45,-1,14,3,12,-1,12,3,6,-1,12,6,9,-1,9,6,2,-1,9,2,1,-1,63,65,83,-1,83,65,67,-1,83,67,81,-1,81,67,69,-1,81,69,79,-1,79,69,71,-1,79,71,76,-1,76,71,73,-1,76,73,75,-1,21,23,127,-1,127,23,25,-1,127,25,125,-1,125,25,27,-1,125,27,123,-1,123,27,29,-1,123,29,121,-1,121,29,31,-1,121,31,119,-1,119,31,33,-1,119,33,117,-1,117,33,35,-1,117,35,115,-1,115,35,37,-1,115,37,113,-1,113,37,39,-1,113,39,111,-1,111,39,41,-1,111,41,43,-1,127,129,21,-1,21,129,131,-1,21,131,18,-1,18,131,133,-1,18,133,14,-1,14,133,135,-1,14,135,3,-1,85,87,61,-1,61,87,89,-1,61,89,59,-1,59,89,92,-1,59,92,57,-1,57,92,94,-1,57,94,55,-1,55,94,96,-1,55,96,53,-1,53,96,98,-1,53,98,51,-1,51,98,100,-1,51,100,49,-1,49,100,102,-1,49,102,47,-1,47,102,107,-1,47,107,45,-1,45,107,105,-1,45,105,104,-1,136,137,138,-1,138,137,139,-1,140,136,141,-1,141,136,138,-1,140,141,142,-1,140,142,143,-1,143,142,144,-1,143,144,145,-1,146,145,147,-1,147,145,144,-1,148,146,149,-1,149,146,147,-1,148,149,150,-1,150,149,151,-1,150,151,152,-1,153,150,154,-1,154,150,152,-1,153,154,155,-1,155,154,156,-1,155,156,157,-1,158,159,160,-1,160,159,155,-1,160,155,157,-1,159,158,161,-1,162,163,161,-1,161,163,164,-1,161,164,159,-1,162,165,163,-1,163,165,166,-1,163,166,167,-1,167,166,168,-1,167,168,169,-1,169,168,170,-1,169,170,171,-1,171,170,172,-1,171,172,173,-1,173,172,174,-1,173,174,175,-1,176,175,177,-1,177,175,174,-1,176,177,178,-1,176,178,179,-1,179,178,180,-1,179,180,181,-1,181,180,182,-1,181,182,183,-1,183,182,184,-1,183,184,185,-1,184,186,185,-1,185,186,187,-1,185,187,188,-1,188,187,189,-1,188,189,190,-1,190,189,191,-1,190,191,192,-1,192,191,193,-1,192,193,194,-1,139,137,195,-1,195,137,194,-1,195,194,193,-1,143,145,194,-1,137,136,194,-1,194,136,140,-1,194,140,143,-1,150,153,148,-1,148,153,155,-1,148,155,146,-1,192,164,190,-1,190,164,163,-1,175,176,173,-1,173,176,179,-1,173,179,171,-1,171,179,181,-1,171,181,169,-1,169,181,183,-1,169,183,167,-1,167,183,185,-1,167,185,163,-1,163,185,188,-1,163,188,190,-1,145,146,194,-1,194,146,155,-1,194,155,192,-1,192,155,159,-1,192,159,164,-1,196,197,198,-1,198,197,199,-1,196,198,200,-1,200,198,201,-1,200,201,202,-1,203,200,204,-1,204,200,202,-1,203,204,205,-1,205,204,206,-1,205,206,207,-1,208,205,209,-1,209,205,207,-1,210,211,212,-1,212,211,208,-1,212,208,209,-1,213,211,214,-1,214,211,210,-1,215,216,217,-1,217,216,213,-1,217,213,214,-1,218,216,219,-1,219,216,215,-1,220,221,222,-1,222,221,218,-1,222,218,219,-1,223,221,224,-1,224,221,220,-1,223,224,197,-1,197,224,225,-1,197,225,199,-1,223,197,196,-1,196,200,223,-1,223,200,203,-1,223,203,221,-1,216,218,213,-1,213,218,221,-1,213,221,211,-1,211,221,203,-1,211,203,208,-1,208,203,205,-1,226,227,228,-1,228,227,229,-1,229,227,230,-1,229,230,231,-1,231,230,232,-1,231,232,233,-1,233,232,234,-1,233,234,235,-1,235,234,236,-1,235,236,237,-1,237,236,238,-1,237,238,239,-1,239,238,240,-1,239,240,241,-1,241,240,242,-1,241,242,243,-1,243,242,244,-1,243,244,245,-1,244,246,245,-1,245,246,247,-1,245,247,248,-1,248,247,249,-1,248,249,250,-1,250,249,251,-1,250,251,252,-1,252,251,253,-1,252,253,254,-1,254,253,255,-1,254,255,256,-1,256,255,257,-1,256,257,258,-1,258,257,259,-1,258,259,260,-1,260,259,226,-1,260,226,261,-1,261,226,228,-1,255,253,262,-1,262,253,263,-1,255,262,264,-1,255,264,257,-1,257,264,265,-1,257,265,259,-1,259,265,266,-1,259,266,226,-1,226,266,267,-1,226,267,227,-1,227,267,268,-1,227,268,230,-1,230,268,269,-1,230,269,232,-1,232,269,270,-1,232,270,234,-1,234,270,271,-1,234,271,236,-1,236,271,272,-1,236,272,238,-1,238,272,273,-1,238,273,240,-1,240,273,274,-1,240,274,242,-1,242,274,275,-1,242,275,244,-1,244,275,276,-1,244,276,246,-1,246,276,277,-1,246,277,247,-1,247,277,278,-1,247,278,249,-1,251,249,279,-1,279,249,278,-1,253,251,263,-1,263,251,279,-1,248,250,280,-1,280,250,281,-1,250,252,281,-1,281,252,282,-1,252,254,282,-1,282,254,283,-1,261,284,285,-1,261,285,260,-1,260,285,286,-1,260,286,258,-1,258,286,287,-1,258,287,256,-1,256,287,283,-1,256,283,254,-1,233,288,289,-1,233,289,231,-1,231,289,290,-1,231,290,229,-1,229,290,291,-1,229,291,228,-1,228,291,284,-1,228,284,261,-1,241,292,293,-1,241,293,239,-1,239,293,294,-1,239,294,237,-1,237,294,295,-1,237,295,235,-1,235,295,288,-1,235,288,233,-1,248,280,296,-1,248,296,245,-1,245,296,297,-1,245,297,243,-1,243,297,292,-1,243,292,241,-1,
        ]
    }
}
Shape{
    appearance Appearance {
        material  Material 	{
            diffuseColor 0.7529411764705882 0.7529411764705882 0.7529411764705882
            specularColor 0.3764705882352941 0.3764705882352941 0.3764705882352941
            ambientIntensity 0.2
            transparency 0
            shininess 0.5
        }
    }
    geometry IndexedFaceSet {
        ccw TRUE
        solid FALSE
        coord DEF co Coordinate {
            point [
                0.5716 -0.0 0.6286, 0.5716 -0.0 0.6, 0.5772 -0.0 0.6286, 0.577 -0.0 0.6, 0.5821 -0.0 0.6006, 0.5852 -0.0 0.6017, 0.5876 -0.0 0.6034, 0.588 -0.0 0.6038, 0.5919 -0.0 0.6125, 0.592 -0.0 0.6146, 0.5916 -0.0 0.6187, 0.5906 -0.0 0.6216, 0.5892 -0.0 0.6237, 0.5879 -0.0 0.6251, 0.582 -0.0 0.628, 0.5852 -0.0 0.6269, 0.59 -0.0 0.6063, 0.5912 -0.0 0.6091, 0.5912 -0.0 0.6091
            ]
        }
        coordIndex [
            0,1,2,-1,2,1,3,-1,2,3,4,-1,4,5,2,-1,2,5,6,-1,2,6,7,-1,8,9,2,-1,2,9,10,-1,2,10,11,-1,11,12,2,-1,2,12,13,-1,2,13,14,-1,14,13,15,-1,7,16,2,-1,2,16,17,-1,2,17,8,-1,
        ]
    }
}
Shape{
    appearance Appearance {
        material  Material 	{
            diffuseColor 0.0 0.0 0.0
            specularColor 0.0 0.0 0.0
            ambientIntensity 0.2
            transparency 0
            shininess 0.5
        }
    }
    geometry IndexedFaceSet {
        ccw TRUE
        solid FALSE
        coord DEF co Coordinate {
            point [
                0.6095 -0.0039 0.6101, 0.6079 -0.0039 0.6059, 0.6219 -0.0039 0.6101, 0.6234 -0.0039 0.6059, 0.615 -0.0039 0.6255, 0.6132 -0.0039 0.6328, 0.5991 -0.0039 0.5957, 0.6044 -0.0039 0.5957, 0.6153 -0.0039 0.6266, 0.6156 -0.0039 0.6281, 0.6183 -0.0039 0.6328, 0.6157 -0.0039 0.6281, 0.616 -0.0039 0.6265, 0.6163 -0.0039 0.6255, 0.6324 -0.0039 0.5957, 0.6272 -0.0039 0.5957, 0.6183 -0.0 0.6328, 0.6324 -0.0 0.5957, 0.6132 -0.0 0.6328, 0.5991 -0.0 0.5957, 0.6044 -0.0 0.5957, 0.6079 -0.0 0.6059, 0.6234 -0.0 0.6059, 0.6272 -0.0 0.5957, 0.6095 -0.0 0.6101, 0.6219 -0.0 0.6101, 0.6163 -0.0 0.6255, 0.6157 -0.0 0.6281, 0.616 -0.0 0.6265, 0.6156 -0.0 0.6281, 0.615 -0.0 0.6255, 0.6153 -0.0 0.6266, 0.6153 -0.0 0.6266
            ]
        }
        coordIndex [
            0,1,2,-1,2,1,3,-1,4,5,0,-1,0,5,6,-1,0,6,1,-1,1,6,7,-1,4,8,5,-1,5,8,9,-1,5,9,10,-1,10,9,11,-1,10,11,12,-1,12,13,10,-1,10,13,2,-1,10,2,14,-1,14,2,3,-1,14,3,15,-1,10,14,16,-1,16,14,17,-1,5,10,18,-1,18,10,16,-1,6,5,19,-1,19,5,18,-1,7,6,20,-1,20,6,19,-1,1,7,21,-1,21,7,20,-1,3,1,22,-1,22,1,21,-1,15,3,23,-1,23,3,22,-1,14,15,17,-1,17,15,23,-1,0,2,24,-1,24,2,25,-1,2,13,25,-1,25,13,26,-1,11,27,28,-1,11,28,12,-1,12,28,26,-1,12,26,13,-1,11,9,27,-1,27,9,29,-1,4,30,31,-1,4,31,8,-1,8,31,29,-1,8,29,9,-1,4,0,30,-1,30,0,24,-1,
        ]
    }
}
Shape{
    appearance Appearance {
        material  Material 	{
            diffuseColor 0.7529411764705882 0.7529411764705882 0.7529411764705882
            specularColor 0.3764705882352941 0.3764705882352941 0.3764705882352941
            ambientIntensity 0.2
            transparency 0
            shininess 0.5
        }
    }
    geometry IndexedFaceSet {
        ccw TRUE
        solid FALSE
        coord DEF co Coordinate {
            point [
                0.6157 -0.0 0.6281, 0.6156 -0.0 0.6281, 0.616 -0.0 0.6265, 0.6153 -0.0 0.6266, 0.6163 -0.0 0.6255, 0.615 -0.0 0.6255, 0.6219 -0.0 0.6101, 0.6095 -0.0 0.6101, 0.6095 -0.0 0.6101
            ]
        }
        coordIndex [
            0,1,2,-1,2,1,3,-1,2,3,4,-1,4,3,5,-1,4,5,6,-1,6,5,7,-1,
        ]
    }
}
Shape{
    appearance Appearance {
        material  Material 	{
            diffuseColor 0.0 0.0 0.0
            specularColor 0.0 0.0 0.0
            ambientIntensity 0.2
            transparency 0
            shininess 0.5
        }
    }
    geometry IndexedFaceSet {
        ccw TRUE
        solid FALSE
        coord DEF co Coordinate {
            point [
                0.2735 -0.0039 0.5905, 0.2775 -0.0039 0.5856, 0.2712 -0.0039 0.6138, 0.3223 -0.0039 0.6072, 0.3592 -0.0039 0.6267, 0.3059 -0.0039 0.6055, 0.3053 -0.0039 0.608, 0.2666 -0.0039 0.6596, 0.2724 -0.0039 0.6627, 0.2711 -0.0039 0.6789, 0.3157 -0.0039 0.6222, 0.2957 -0.0039 0.6146, 0.2979 -0.0039 0.6144, 0.2875 -0.0039 0.6797, 0.2957 -0.0039 0.6605, 0.2997 -0.0039 0.6688, 0.3003 -0.0039 0.6135, 0.3024 -0.0039 0.612, 0.3041 -0.0039 0.6102, 0.2654 -0.0039 0.6173, 0.2676 -0.0039 0.5971, 0.2709 -0.0039 0.5961, 0.2814 -0.0039 0.6802, 0.351 -0.0039 0.6407, 0.3223 -0.0039 0.6046, 0.3059 -0.0039 0.6031, 0.3221 -0.0039 0.6018, 0.2931 -0.0039 0.6143, 0.2896 -0.0039 0.6304, 0.2908 -0.0039 0.6134, 0.2838 -0.0039 0.6282, 0.2887 -0.0039 0.6119, 0.2784 -0.0039 0.6244, 0.2877 -0.0039 0.6108, 0.2741 -0.0039 0.6195, 0.2863 -0.0039 0.6086, 0.2856 -0.0039 0.6061, 0.2854 -0.0039 0.6036, 0.3055 -0.0039 0.6294, 0.2991 -0.0039 0.631, 0.2959 -0.0039 0.6312, 0.3679 -0.0039 0.6528, 0.37 -0.0039 0.6528, 0.3808 -0.0039 0.667, 0.375 -0.0039 0.6522, 0.3821 -0.0039 0.6666, 0.3796 -0.0039 0.6504, 0.3899 -0.0039 0.6627, 0.3971 -0.0039 0.6567, 0.2929 -0.0039 0.686, 0.3056 -0.0039 0.6759, 0.2991 -0.0039 0.6913, 0.3127 -0.0039 0.681, 0.3055 -0.0039 0.6953, 0.2789 -0.0039 0.6643, 0.2817 -0.0039 0.6644, 0.2845 -0.0039 0.6801, 0.2879 -0.0039 0.6636, 0.2938 -0.0039 0.6615, 0.3971 -0.0039 0.6075, 0.3849 -0.0039 0.618, 0.39 -0.0039 0.6014, 0.381 -0.0039 0.6148, 0.3819 -0.0039 0.5975, 0.3763 -0.0039 0.6126, 0.3732 -0.0039 0.5956, 0.3716 -0.0039 0.6117, 0.3576 -0.0039 0.5956, 0.3597 -0.0039 0.6117, 0.3561 -0.0039 0.5959, 0.3111 -0.0039 0.6264, 0.3837 -0.0039 0.6476, 0.3867 -0.0039 0.6442, 0.4025 -0.0039 0.6492, 0.3892 -0.0039 0.6397, 0.4057 -0.0039 0.6411, 0.3904 -0.0039 0.6346, 0.4069 -0.0039 0.6325, 0.3906 -0.0039 0.6323, 0.4057 -0.0039 0.6231, 0.3899 -0.0039 0.6271, 0.4024 -0.0039 0.6148, 0.3881 -0.0039 0.6224, 0.3852 -0.0039 0.6183, 0.3666 -0.0039 0.6879, 0.3562 -0.0039 0.6758, 0.3753 -0.0039 0.6777, 0.3622 -0.0039 0.6687, 0.3663 -0.0039 0.6602, 0.2561 -0.0039 0.6444, 0.2388 -0.0039 0.64, 0.2553 -0.0039 0.6381, 0.2387 -0.0039 0.6375, 0.2557 -0.0039 0.634, 0.24 -0.0039 0.6272, 0.2576 -0.0039 0.6275, 0.2438 -0.0039 0.6174, 0.2607 -0.0039 0.6222, 0.2498 -0.0039 0.6088, 0.258 -0.0039 0.6018, 0.2859 -0.0039 0.6011, 0.287 -0.0039 0.5989, 0.3177 -0.0039 0.7, 0.3213 -0.0039 0.6845, 0.3307 -0.0039 0.7016, 0.331 -0.0039 0.6858, 0.3418 -0.0039 0.7004, 0.3399 -0.0039 0.6847, 0.355 -0.0039 0.6957, 0.3482 -0.0039 0.6815, 0.3556 -0.0039 0.6763, 0.2613 -0.0039 0.6751, 0.2529 -0.0039 0.6693, 0.2621 -0.0039 0.6556, 0.2511 -0.0039 0.6676, 0.2584 -0.0039 0.6503, 0.2448 -0.0039 0.6594, 0.2406 -0.0039 0.6499, 0.3206 -0.0039 0.5953, 0.3053 -0.0039 0.6006, 0.3175 -0.0039 0.5894, 0.304 -0.0039 0.5983, 0.3135 -0.0039 0.5849, 0.3026 -0.0039 0.5967, 0.3082 -0.0039 0.5813, 0.3006 -0.0039 0.5953, 0.3023 -0.0039 0.579, 0.2983 -0.0039 0.5944, 0.2959 -0.0039 0.5782, 0.2957 -0.0039 0.594, 0.2949 -0.0039 0.5782, 0.2952 -0.0039 0.594, 0.2887 -0.0039 0.5792, 0.2929 -0.0039 0.5944, 0.2826 -0.0039 0.5818, 0.2905 -0.0039 0.5955, 0.2885 -0.0039 0.597, 0.3584 -0.0039 0.6119, 0.3521 -0.0039 0.5984, 0.3527 -0.0039 0.5978, 0.3592 -0.0039 0.6118, 0.3544 -0.0039 0.5965, 0.35 -0.0039 0.6038, 0.3502 -0.0039 0.6018, 0.3509 -0.0039 0.6, 0.3561 -0.0039 0.6117, 0.3543 -0.0039 0.611, 0.35 -0.0039 0.6048, 0.3527 -0.0039 0.6098, 0.3516 -0.0039 0.6086, 0.3506 -0.0039 0.6068, 0.3581 -0.0039 0.612, 0.4069 -0.0 0.6325, 0.4057 -0.0 0.6411, 0.4048 -0.0 0.6434, 0.4025 -0.0 0.6492, 0.3971 -0.0 0.6567, 0.3899 -0.0 0.6627, 0.3821 -0.0 0.6666, 0.3808 -0.0 0.667, 0.3753 -0.0 0.6777, 0.3666 -0.0 0.6879, 0.3605 -0.0 0.6919, 0.355 -0.0 0.6957, 0.3418 -0.0 0.7004, 0.3307 -0.0 0.7016, 0.2991 -0.0 0.6913, 0.3001 -0.0 0.6919, 0.3055 -0.0 0.6953, 0.3177 -0.0 0.7, 0.2929 -0.0 0.686, 0.2875 -0.0 0.6797, 0.2845 -0.0 0.6801, 0.2814 -0.0 0.6802, 0.2711 -0.0 0.6789, 0.2613 -0.0 0.6751, 0.2529 -0.0 0.6693, 0.2511 -0.0 0.6676, 0.2406 -0.0 0.6499, 0.2448 -0.0 0.6594, 0.2394 -0.0 0.6434, 0.2388 -0.0 0.64, 0.2387 -0.0 0.6375, 0.24 -0.0 0.6272, 0.2438 -0.0 0.6174, 0.2498 -0.0 0.6088, 0.258 -0.0 0.6018, 0.2676 -0.0 0.5971, 0.2709 -0.0 0.5961, 0.2712 -0.0 0.5954, 0.2735 -0.0 0.5905, 0.2775 -0.0 0.5856, 0.2826 -0.0 0.5818, 0.285 -0.0 0.5807, 0.2887 -0.0 0.5792, 0.2949 -0.0 0.5782, 0.2959 -0.0 0.5782, 0.3223 -0.0 0.6046, 0.3023 -0.0 0.579, 0.3068 -0.0 0.5807, 0.3082 -0.0 0.5813, 0.3135 -0.0 0.5849, 0.3175 -0.0 0.5894, 0.3206 -0.0 0.5953, 0.3206 -0.0 0.5954, 0.3221 -0.0 0.6018, 0.3223 -0.0 0.6072, 0.3592 -0.0 0.6267, 0.351 -0.0 0.6407, 0.3157 -0.0 0.6222, 0.3111 -0.0 0.6264, 0.3055 -0.0 0.6294, 0.2991 -0.0 0.631, 0.2959 -0.0 0.6312, 0.2896 -0.0 0.6304, 0.2838 -0.0 0.6282, 0.2784 -0.0 0.6244, 0.2741 -0.0 0.6195, 0.2712 -0.0 0.6138, 0.2654 -0.0 0.6173, 0.2607 -0.0 0.6222, 0.2576 -0.0 0.6275, 0.2557 -0.0 0.634, 0.2553 -0.0 0.6381, 0.256 -0.0 0.6434, 0.2561 -0.0 0.6444, 0.2584 -0.0 0.6503, 0.2621 -0.0 0.6556, 0.2666 -0.0 0.6596, 0.2724 -0.0 0.6627, 0.2789 -0.0 0.6643, 0.2817 -0.0 0.6644, 0.2879 -0.0 0.6636, 0.2938 -0.0 0.6615, 0.2957 -0.0 0.6605, 0.2997 -0.0 0.6688, 0.3056 -0.0 0.6759, 0.3127 -0.0 0.681, 0.3213 -0.0 0.6845, 0.331 -0.0 0.6858, 0.3399 -0.0 0.6847, 0.3482 -0.0 0.6815, 0.3556 -0.0 0.6763, 0.3562 -0.0 0.6758, 0.3622 -0.0 0.6687, 0.3663 -0.0 0.6602, 0.3679 -0.0 0.6528, 0.37 -0.0 0.6528, 0.375 -0.0 0.6522, 0.3796 -0.0 0.6504, 0.3837 -0.0 0.6476, 0.3867 -0.0 0.6442, 0.3872 -0.0 0.6434, 0.3892 -0.0 0.6397, 0.3904 -0.0 0.6346, 0.3906 -0.0 0.6323, 0.3899 -0.0 0.6271, 0.3881 -0.0 0.6224, 0.3852 -0.0 0.6183, 0.3849 -0.0 0.618, 0.381 -0.0 0.6148, 0.3763 -0.0 0.6126, 0.3716 -0.0 0.6117, 0.3597 -0.0 0.6117, 0.3592 -0.0 0.6118, 0.3584 -0.0 0.6119, 0.3581 -0.0 0.612, 0.3561 -0.0 0.6117, 0.3543 -0.0 0.611, 0.3527 -0.0 0.6098, 0.3516 -0.0 0.6086, 0.3506 -0.0 0.6068, 0.35 -0.0 0.6048, 0.35 -0.0 0.6038, 0.3502 -0.0 0.6018, 0.3509 -0.0 0.6, 0.3521 -0.0 0.5984, 0.3527 -0.0 0.5978, 0.3544 -0.0 0.5965, 0.3561 -0.0 0.5959, 0.3576 -0.0 0.5956, 0.3732 -0.0 0.5956, 0.3819 -0.0 0.5975, 0.39 -0.0 0.6014, 0.3971 -0.0 0.6075, 0.4024 -0.0 0.6148, 0.4057 -0.0 0.6231, 0.2957 -0.0 0.6146, 0.2979 -0.0 0.6144, 0.3003 -0.0 0.6135, 0.3024 -0.0 0.612, 0.3041 -0.0 0.6102, 0.3053 -0.0 0.608, 0.3059 -0.0 0.6055, 0.3059 -0.0 0.6031, 0.3053 -0.0 0.6006, 0.304 -0.0 0.5983, 0.3026 -0.0 0.5967, 0.3006 -0.0 0.5953, 0.2983 -0.0 0.5944, 0.2957 -0.0 0.594, 0.2952 -0.0 0.594, 0.2929 -0.0 0.5944, 0.2905 -0.0 0.5955, 0.2885 -0.0 0.597, 0.287 -0.0 0.5989, 0.2859 -0.0 0.6011, 0.2854 -0.0 0.6036, 0.2856 -0.0 0.6061, 0.2863 -0.0 0.6086, 0.2877 -0.0 0.6108, 0.2887 -0.0 0.6119, 0.2908 -0.0 0.6134, 0.2931 -0.0 0.6143, 0.2931 -0.0 0.6143
            ]
        }
        coordIndex [
            0,1,2,-1,3,4,5,-1,5,4,6,-1,7,8,9,-1,10,11,12,-1,13,14,15,-1,12,16,10,-1,10,16,17,-1,10,17,18,-1,19,20,2,-1,2,20,21,-1,2,21,0,-1,9,8,22,-1,6,4,18,-1,18,4,23,-1,18,23,10,-1,3,5,24,-1,24,5,25,-1,24,25,26,-1,27,28,29,-1,29,28,30,-1,29,30,31,-1,31,30,32,-1,31,32,33,-1,33,32,34,-1,33,34,35,-1,35,34,2,-1,35,2,36,-1,36,2,37,-1,38,39,27,-1,27,39,40,-1,27,40,28,-1,41,42,43,-1,43,42,44,-1,43,44,45,-1,45,44,46,-1,45,46,47,-1,47,46,48,-1,13,15,49,-1,49,15,50,-1,49,50,51,-1,51,50,52,-1,51,52,53,-1,8,54,22,-1,22,54,55,-1,22,55,56,-1,56,55,57,-1,56,57,13,-1,13,57,58,-1,13,58,14,-1,59,60,61,-1,61,60,62,-1,61,62,63,-1,63,62,64,-1,63,64,65,-1,65,64,66,-1,65,66,67,-1,67,66,68,-1,67,68,69,-1,11,10,27,-1,27,10,70,-1,27,70,38,-1,46,71,48,-1,48,71,72,-1,48,72,73,-1,73,72,74,-1,73,74,75,-1,75,74,76,-1,75,76,77,-1,77,76,78,-1,77,78,79,-1,79,78,80,-1,79,80,81,-1,81,80,82,-1,81,82,59,-1,59,82,83,-1,59,83,60,-1,84,85,86,-1,86,85,87,-1,86,87,43,-1,43,87,88,-1,43,88,41,-1,89,90,91,-1,91,90,92,-1,91,92,93,-1,93,92,94,-1,93,94,95,-1,95,94,96,-1,95,96,97,-1,97,96,98,-1,97,98,19,-1,19,98,99,-1,19,99,20,-1,37,2,100,-1,100,2,1,-1,100,1,101,-1,53,52,102,-1,102,52,103,-1,102,103,104,-1,104,103,105,-1,104,105,106,-1,106,105,107,-1,106,107,108,-1,108,107,109,-1,108,109,84,-1,84,109,110,-1,84,110,85,-1,9,111,7,-1,7,111,112,-1,7,112,113,-1,113,112,114,-1,113,114,115,-1,115,114,116,-1,115,116,89,-1,89,116,117,-1,89,117,90,-1,26,25,118,-1,118,25,119,-1,118,119,120,-1,120,119,121,-1,120,121,122,-1,122,121,123,-1,122,123,124,-1,124,123,125,-1,124,125,126,-1,126,125,127,-1,126,127,128,-1,128,127,129,-1,128,129,130,-1,130,129,131,-1,130,131,132,-1,132,131,133,-1,132,133,134,-1,134,133,135,-1,134,135,1,-1,1,135,136,-1,1,136,101,-1,137,138,139,-1,68,140,69,-1,69,140,137,-1,69,137,141,-1,141,137,139,-1,142,143,137,-1,137,143,144,-1,137,144,138,-1,145,146,147,-1,146,148,147,-1,147,148,149,-1,147,149,150,-1,142,137,147,-1,147,137,151,-1,147,151,145,-1,77,152,153,-1,77,153,75,-1,75,153,154,-1,75,154,73,-1,154,155,73,-1,73,155,156,-1,73,156,48,-1,48,156,157,-1,48,157,47,-1,47,157,158,-1,47,158,45,-1,45,158,159,-1,45,159,43,-1,43,159,160,-1,43,160,86,-1,86,160,161,-1,86,161,84,-1,84,161,108,-1,108,161,162,-1,162,163,108,-1,108,163,164,-1,108,164,106,-1,106,164,165,-1,106,165,104,-1,166,51,167,-1,167,51,53,-1,167,53,168,-1,168,53,102,-1,168,102,169,-1,169,102,104,-1,169,104,165,-1,51,166,170,-1,51,170,49,-1,49,170,171,-1,49,171,13,-1,13,171,172,-1,13,172,56,-1,56,172,173,-1,56,173,22,-1,22,173,174,-1,22,174,9,-1,9,174,175,-1,9,175,111,-1,111,175,176,-1,111,176,112,-1,112,176,177,-1,112,177,114,-1,178,116,179,-1,179,116,114,-1,179,114,177,-1,180,90,178,-1,178,90,117,-1,178,117,116,-1,180,181,90,-1,90,181,182,-1,90,182,92,-1,92,182,183,-1,92,183,94,-1,94,183,184,-1,94,184,96,-1,96,184,185,-1,96,185,98,-1,98,185,186,-1,98,186,99,-1,99,186,187,-1,99,187,20,-1,20,187,188,-1,20,188,21,-1,21,188,189,-1,21,189,0,-1,189,190,0,-1,0,190,191,-1,0,191,1,-1,1,191,192,-1,1,192,134,-1,134,192,193,-1,134,193,132,-1,193,194,132,-1,132,194,195,-1,132,195,130,-1,130,195,196,-1,130,196,128,-1,197,24,26,-1,128,196,198,-1,128,198,126,-1,126,198,199,-1,126,199,124,-1,199,200,124,-1,124,200,201,-1,124,201,122,-1,122,201,202,-1,122,202,120,-1,120,202,203,-1,120,203,118,-1,118,203,204,-1,118,204,26,-1,26,204,205,-1,26,205,197,-1,3,24,206,-1,206,24,197,-1,4,3,207,-1,207,3,206,-1,23,4,208,-1,208,4,207,-1,10,23,209,-1,209,23,208,-1,10,209,210,-1,10,210,70,-1,70,210,211,-1,70,211,38,-1,38,211,212,-1,38,212,39,-1,39,212,213,-1,39,213,40,-1,40,213,214,-1,40,214,28,-1,28,214,215,-1,28,215,30,-1,30,215,216,-1,30,216,32,-1,32,216,217,-1,32,217,34,-1,34,217,218,-1,34,218,2,-1,2,218,219,-1,2,219,19,-1,19,219,220,-1,19,220,97,-1,97,220,221,-1,97,221,95,-1,95,221,222,-1,95,222,93,-1,93,222,223,-1,93,223,91,-1,223,224,91,-1,91,224,89,-1,224,225,89,-1,89,225,226,-1,89,226,115,-1,115,226,227,-1,115,227,113,-1,113,227,228,-1,113,228,7,-1,7,228,229,-1,7,229,8,-1,8,229,230,-1,8,230,54,-1,54,230,231,-1,54,231,55,-1,55,231,232,-1,55,232,57,-1,57,232,233,-1,57,233,58,-1,58,233,234,-1,58,234,14,-1,14,234,235,-1,14,235,15,-1,15,235,236,-1,15,236,50,-1,50,236,237,-1,50,237,52,-1,52,237,238,-1,52,238,103,-1,103,238,239,-1,103,239,105,-1,105,239,240,-1,105,240,107,-1,107,240,241,-1,107,241,109,-1,109,241,242,-1,109,242,110,-1,110,242,243,-1,110,243,85,-1,85,243,244,-1,85,244,87,-1,87,244,245,-1,87,245,88,-1,88,245,246,-1,88,246,41,-1,42,41,247,-1,247,41,246,-1,42,247,248,-1,42,248,44,-1,44,248,249,-1,44,249,46,-1,46,249,250,-1,46,250,71,-1,71,250,251,-1,71,251,72,-1,72,251,252,-1,72,252,74,-1,252,253,74,-1,74,253,254,-1,74,254,76,-1,76,254,255,-1,76,255,78,-1,78,255,256,-1,78,256,80,-1,80,256,257,-1,80,257,82,-1,82,257,258,-1,82,258,83,-1,83,258,259,-1,83,259,60,-1,60,259,260,-1,60,260,62,-1,62,260,261,-1,62,261,64,-1,64,261,262,-1,64,262,66,-1,68,66,263,-1,263,66,262,-1,68,263,264,-1,68,264,140,-1,140,264,265,-1,140,265,137,-1,137,265,266,-1,137,266,151,-1,151,266,267,-1,151,267,145,-1,145,267,268,-1,145,268,146,-1,146,268,269,-1,146,269,148,-1,148,269,270,-1,148,270,149,-1,149,270,271,-1,149,271,150,-1,150,271,272,-1,150,272,147,-1,147,272,273,-1,147,273,142,-1,142,273,274,-1,142,274,143,-1,143,274,275,-1,143,275,144,-1,144,275,276,-1,144,276,138,-1,138,276,277,-1,138,277,139,-1,139,277,278,-1,139,278,141,-1,141,278,279,-1,141,279,69,-1,69,279,280,-1,69,280,67,-1,65,67,281,-1,281,67,280,-1,65,281,282,-1,65,282,63,-1,63,282,283,-1,63,283,61,-1,61,283,284,-1,61,284,59,-1,59,284,285,-1,59,285,81,-1,81,285,286,-1,81,286,79,-1,79,286,152,-1,79,152,77,-1,11,287,288,-1,11,288,12,-1,12,288,289,-1,12,289,16,-1,16,289,290,-1,16,290,17,-1,17,290,291,-1,17,291,18,-1,18,291,292,-1,18,292,6,-1,6,292,293,-1,6,293,5,-1,5,293,294,-1,5,294,25,-1,25,294,295,-1,25,295,119,-1,119,295,296,-1,119,296,121,-1,121,296,297,-1,121,297,123,-1,123,297,298,-1,123,298,125,-1,125,298,299,-1,125,299,127,-1,127,299,300,-1,127,300,129,-1,129,300,301,-1,129,301,131,-1,131,301,302,-1,131,302,133,-1,133,302,303,-1,133,303,135,-1,135,303,304,-1,135,304,136,-1,136,304,305,-1,136,305,101,-1,101,305,306,-1,101,306,100,-1,100,306,307,-1,100,307,37,-1,37,307,308,-1,37,308,36,-1,36,308,309,-1,36,309,35,-1,35,309,310,-1,35,310,33,-1,33,310,311,-1,33,311,31,-1,31,311,312,-1,31,312,29,-1,29,312,313,-1,29,313,27,-1,27,313,287,-1,27,287,11,-1,
        ]
    }
}
Shape{
    appearance Appearance {
        material  Material 	{
            diffuseColor 0.7529411764705882 0.7529411764705882 0.7529411764705882
            specularColor 0.3764705882352941 0.3764705882352941 0.3764705882352941
            ambientIntensity 0.2
            transparency 0
            shininess 0.5
        }
    }
    geometry IndexedFaceSet {
        ccw TRUE
        solid FALSE
        coord DEF co Coordinate {
            point [
                0.2952 -0.0 0.594, 0.2887 -0.0 0.6119, 0.2877 -0.0 0.6108, 0.2983 -0.0 0.5944, 0.3006 -0.0 0.5953, 0.2979 -0.0 0.6144, 0.2957 -0.0 0.6146, 0.2931 -0.0 0.6143, 0.2908 -0.0 0.6134, 0.2859 -0.0 0.6011, 0.287 -0.0 0.5989, 0.2885 -0.0 0.597, 0.2957 -0.0 0.594, 0.2863 -0.0 0.6086, 0.2856 -0.0 0.6061, 0.2854 -0.0 0.6036, 0.2905 -0.0 0.5955, 0.2929 -0.0 0.5944, 0.3026 -0.0 0.5967, 0.304 -0.0 0.5983, 0.3053 -0.0 0.6006, 0.3059 -0.0 0.6031, 0.3059 -0.0 0.6055, 0.3053 -0.0 0.608, 0.3041 -0.0 0.6102, 0.3024 -0.0 0.612, 0.3003 -0.0 0.6135, 0.3003 -0.0 0.6135
            ]
        }
        coordIndex [
            0,1,2,-1,3,4,5,-1,6,7,0,-1,0,7,8,-1,0,8,1,-1,9,10,2,-1,2,10,11,-1,6,0,5,-1,5,0,12,-1,5,12,3,-1,13,14,2,-1,2,14,15,-1,2,15,9,-1,11,16,2,-1,2,16,17,-1,2,17,0,-1,4,18,5,-1,5,18,19,-1,5,19,20,-1,20,21,5,-1,5,21,22,-1,5,22,23,-1,23,24,5,-1,5,24,25,-1,5,25,26,-1,
        ]
    }
}