G04 #@! TF.GenerationSoftware,KiCad,Pcbnew,9.0.6*
G04 #@! TF.CreationDate,2026-02-22T19:02:19+01:00*
G04 #@! TF.ProjectId,epdiy-v7-light,65706469-792d-4763-972d-6c696768742e,1.1*
G04 #@! TF.SameCoordinates,Original*
G04 #@! TF.FileFunction,Copper,L4,Bot*
G04 #@! TF.FilePolarity,Positive*
%FSLAX46Y46*%
G04 Gerber Fmt 4.6, Leading zero omitted, Abs format (unit mm)*
G04 Created by KiCad (PCBNEW 9.0.6) date 2026-02-22 19:02:19*
%MOMM*%
%LPD*%
G01*
G04 APERTURE LIST*
G04 #@! TA.AperFunction,ComponentPad*
%ADD10C,0.850000*%
G04 #@! TD*
G04 #@! TA.AperFunction,ComponentPad*
%ADD11C,0.508000*%
G04 #@! TD*
G04 #@! TA.AperFunction,ComponentPad*
%ADD12O,1.000000X2.100000*%
G04 #@! TD*
G04 #@! TA.AperFunction,ComponentPad*
%ADD13O,1.000000X1.600000*%
G04 #@! TD*
G04 #@! TA.AperFunction,ComponentPad*
%ADD14C,0.800000*%
G04 #@! TD*
G04 #@! TA.AperFunction,ComponentPad*
%ADD15O,0.800000X1.300000*%
G04 #@! TD*
G04 #@! TA.AperFunction,ComponentPad*
%ADD16R,1.700000X1.700000*%
G04 #@! TD*
G04 #@! TA.AperFunction,ComponentPad*
%ADD17C,1.700000*%
G04 #@! TD*
G04 #@! TA.AperFunction,ViaPad*
%ADD18C,0.800000*%
G04 #@! TD*
G04 #@! TA.AperFunction,Conductor*
%ADD19C,0.500000*%
G04 #@! TD*
G04 #@! TA.AperFunction,Conductor*
%ADD20C,0.300000*%
G04 #@! TD*
G04 #@! TA.AperFunction,Conductor*
%ADD21C,0.250000*%
G04 #@! TD*
G04 #@! TA.AperFunction,Conductor*
%ADD22C,0.750000*%
G04 #@! TD*
G04 #@! TA.AperFunction,Conductor*
%ADD23C,0.200000*%
G04 #@! TD*
G04 APERTURE END LIST*
D10*
X170280000Y-67790000D03*
X170280000Y-70790000D03*
D11*
X101613800Y-67831109D03*
X101613800Y-67043709D03*
X101613800Y-66256309D03*
X101613800Y-65468909D03*
X101613800Y-64681509D03*
X100826400Y-67831109D03*
X100826400Y-67043709D03*
X100826400Y-66256309D03*
X100826400Y-65468909D03*
X100826400Y-64681509D03*
X100039000Y-67831109D03*
X100039000Y-67043709D03*
X100039000Y-66256309D03*
X100039000Y-65468909D03*
X100039000Y-64681509D03*
X99251600Y-67831109D03*
X99251600Y-67043709D03*
X99251600Y-66256309D03*
X99251600Y-65468909D03*
X99251600Y-64681509D03*
X98464200Y-67831109D03*
X98464200Y-67043709D03*
X98464200Y-66256309D03*
X98464200Y-65468909D03*
X98464200Y-64681509D03*
D12*
X67460000Y-85240000D03*
D13*
X67460000Y-89420000D03*
D12*
X76100000Y-85240000D03*
D13*
X76100000Y-89420000D03*
D14*
X170450000Y-81050000D03*
X170450000Y-83350000D03*
X114290000Y-89940000D03*
X111990000Y-89940000D03*
X102570000Y-89940000D03*
X100270000Y-89940000D03*
X90850000Y-89940000D03*
X88550000Y-89940000D03*
D15*
X155125000Y-90307500D03*
X149765000Y-90307500D03*
D16*
X72440000Y-28070000D03*
D17*
X74980000Y-28070000D03*
X77520000Y-28070000D03*
X80060000Y-28070000D03*
X82600000Y-28070000D03*
X85140000Y-28070000D03*
D18*
X125030000Y-39850000D03*
X149930000Y-82921250D03*
X98330000Y-86040000D03*
X103974500Y-41628309D03*
X103673999Y-76528309D03*
X111015000Y-68778309D03*
X105015000Y-41728309D03*
X132490000Y-31650000D03*
X96215000Y-53428309D03*
X122857188Y-29458134D03*
X111015000Y-64278309D03*
X106008000Y-66050309D03*
X166230000Y-86480000D03*
X102751599Y-55882178D03*
X78430000Y-81760000D03*
X100515000Y-80278309D03*
X103087000Y-62192309D03*
X63140000Y-65420000D03*
X63870000Y-61170000D03*
X129869998Y-34660000D03*
X109515000Y-66278309D03*
X93815000Y-52028309D03*
X106389000Y-64430309D03*
X103515000Y-55890000D03*
X129980000Y-55403000D03*
X127250000Y-55303000D03*
X129910000Y-39080000D03*
X155690000Y-82880000D03*
X93615000Y-42328309D03*
X152790000Y-63510000D03*
X111015000Y-59778309D03*
X89415000Y-52028309D03*
X71000000Y-62999000D03*
X136563400Y-74260000D03*
X137970000Y-25950000D03*
X80415000Y-64528309D03*
X102265000Y-78528309D03*
X89411686Y-65632408D03*
X89740000Y-86120000D03*
X67340000Y-68420000D03*
X123865000Y-30520000D03*
X83760000Y-85540000D03*
X92815000Y-51428309D03*
X151801491Y-80496814D03*
X90265000Y-75028309D03*
X91815000Y-52028309D03*
X64500000Y-73610000D03*
X157330000Y-67090000D03*
X124400000Y-32930000D03*
X112015000Y-69778309D03*
X103466743Y-69559566D03*
X90453000Y-66840309D03*
X70480000Y-73590000D03*
X115555000Y-66778309D03*
X167550000Y-76390000D03*
X143763400Y-83613400D03*
X108660000Y-85960000D03*
X115515000Y-65778309D03*
X136863400Y-76870000D03*
X97815000Y-41628309D03*
X88815000Y-55628309D03*
X108015000Y-77068309D03*
X122163400Y-83613400D03*
X93511777Y-67122712D03*
X89415000Y-54428309D03*
X64060000Y-62780000D03*
X101765000Y-76528309D03*
X150340000Y-87970000D03*
X111015000Y-66528309D03*
X87265000Y-54028309D03*
X68860000Y-79410000D03*
X99382281Y-71612972D03*
X84265000Y-69528309D03*
X124410000Y-43567000D03*
X80515000Y-70778309D03*
X115990000Y-87650000D03*
X95615000Y-54628309D03*
X154260000Y-85190000D03*
X102765000Y-77528309D03*
X99015000Y-57778309D03*
X102619000Y-56924309D03*
X107515000Y-57400000D03*
X90615000Y-51428309D03*
X131863400Y-76870000D03*
X144080000Y-26440000D03*
X110567557Y-50809381D03*
X97030534Y-56793843D03*
X154900000Y-66950000D03*
X115815000Y-60128309D03*
X98869000Y-56924309D03*
X88815000Y-53228309D03*
X71950000Y-53899000D03*
X97765000Y-80278309D03*
X86015000Y-54028309D03*
X75260000Y-79430000D03*
X109515000Y-68528309D03*
X111015000Y-62028309D03*
X132263400Y-74260000D03*
X75450000Y-55399000D03*
X109265000Y-64028309D03*
X84265000Y-67278309D03*
X106315000Y-56028309D03*
X111015000Y-70528309D03*
X162170000Y-76250000D03*
X95467000Y-68669309D03*
X88515000Y-69692307D03*
X148030000Y-63510000D03*
X88015000Y-65868311D03*
X95291746Y-65365338D03*
X126920000Y-52890000D03*
X116220000Y-57150000D03*
X127285000Y-46065000D03*
X87003580Y-74710510D03*
X126735000Y-43512532D03*
X100138990Y-61049309D03*
X127771995Y-45018012D03*
X98115000Y-47312809D03*
X133931303Y-28665000D03*
X132728836Y-32815000D03*
X99215000Y-47328309D03*
X109200000Y-45020000D03*
X127510000Y-41900000D03*
X115420000Y-70790000D03*
X129080000Y-45230000D03*
X156430000Y-71050000D03*
X146840000Y-76250000D03*
X160050000Y-67410000D03*
X119240000Y-76810000D03*
X106630000Y-83720000D03*
X139560000Y-67230000D03*
X103265000Y-58028309D03*
X106008000Y-67526309D03*
X95341257Y-63588052D03*
X103555000Y-59479309D03*
X89960000Y-82780000D03*
X158420000Y-72570000D03*
X80660000Y-85050000D03*
X104613307Y-51030002D03*
X77140000Y-75360000D03*
X100842661Y-60255968D03*
X129890000Y-76360000D03*
X77970000Y-80830000D03*
X158370000Y-71440000D03*
X90740000Y-83420000D03*
X76689602Y-76250662D03*
X101810248Y-60221056D03*
X128590000Y-76040000D03*
X103863307Y-52028309D03*
X102156382Y-50842411D03*
X97942794Y-58901546D03*
X105686092Y-52921839D03*
X106115000Y-69428309D03*
X106982629Y-66370553D03*
X104794517Y-53476455D03*
X103915000Y-54050000D03*
X106212092Y-62013979D03*
X99891356Y-60122313D03*
X100294929Y-51248380D03*
X106402944Y-62954309D03*
X100515000Y-78278309D03*
X95765000Y-59028309D03*
X92219031Y-77232341D03*
X107107259Y-59974756D03*
X94515000Y-79278309D03*
X86740000Y-80660000D03*
X93265000Y-79028309D03*
X95515000Y-59778309D03*
X93265000Y-77028309D03*
X97265000Y-79278309D03*
X93265000Y-78028309D03*
X115870000Y-61620000D03*
X98015000Y-78528309D03*
X87015000Y-58028309D03*
X153880000Y-62450000D03*
X96765000Y-59028309D03*
X88015000Y-57528309D03*
X92015000Y-78028309D03*
X98015000Y-77278309D03*
X95765000Y-79278309D03*
X129266508Y-70743492D03*
X85640209Y-76854264D03*
X131010000Y-70640000D03*
X86641280Y-77240000D03*
X103280000Y-40510000D03*
X126934314Y-75395686D03*
X129153651Y-42584971D03*
X128366550Y-43279936D03*
X127050000Y-76560000D03*
X93616000Y-66129309D03*
X87644276Y-67075928D03*
X87765000Y-68028309D03*
X94329705Y-67625303D03*
X94560000Y-40840000D03*
X151830000Y-74960000D03*
X126990000Y-81120000D03*
X162740000Y-74800000D03*
X126960000Y-79840000D03*
X121610000Y-77820000D03*
X148920000Y-66970000D03*
X113915000Y-64228309D03*
X102960000Y-71361309D03*
X111765000Y-73528309D03*
X92615000Y-45028309D03*
X67960000Y-65400000D03*
X92615000Y-46628309D03*
X110715000Y-48628309D03*
X110830946Y-47150000D03*
X152507597Y-83643653D03*
X115515000Y-64228309D03*
X107115000Y-49828309D03*
X120610000Y-63840000D03*
X85600000Y-79690000D03*
X92900000Y-37750000D03*
X110015000Y-42428309D03*
X152530000Y-81121250D03*
X153790000Y-60060000D03*
X150660000Y-58980000D03*
X121250000Y-40840000D03*
X66320739Y-69691400D03*
X64710000Y-69950000D03*
D19*
X98869000Y-57632309D02*
X99015000Y-57778309D01*
X98869000Y-56924309D02*
X98869000Y-57632309D01*
D20*
X128935137Y-69943492D02*
X129597879Y-69943492D01*
X94444002Y-69692307D02*
X95467000Y-68669309D01*
X130438629Y-70080000D02*
X130678629Y-69840000D01*
X131341371Y-69840000D02*
X131581371Y-70080000D01*
X127268629Y-71610000D02*
X128935137Y-69943492D01*
X109290000Y-71610000D02*
X127268629Y-71610000D01*
X94444002Y-69692307D02*
X95281695Y-70530000D01*
X141460000Y-70080000D02*
X148030000Y-63510000D01*
X129597879Y-69943492D02*
X129734387Y-70080000D01*
X131581371Y-70080000D02*
X141460000Y-70080000D01*
X88515000Y-69692307D02*
X94444002Y-69692307D01*
X108210000Y-70530000D02*
X109290000Y-71610000D01*
X95281695Y-70530000D02*
X108210000Y-70530000D01*
X130678629Y-69840000D02*
X131341371Y-69840000D01*
X129734387Y-70080000D02*
X130438629Y-70080000D01*
X89105002Y-64778309D02*
X94704717Y-64778309D01*
X94704717Y-64778309D02*
X95291746Y-65365338D01*
X88015000Y-65868311D02*
X89105002Y-64778309D01*
D19*
X116220000Y-57150000D02*
X116220000Y-54760000D01*
X117800000Y-53180000D02*
X118090000Y-52890000D01*
X118090000Y-52890000D02*
X126920000Y-52890000D01*
X116220000Y-54760000D02*
X117800000Y-53180000D01*
D20*
X100086980Y-60997299D02*
X99313990Y-60997299D01*
D19*
X107320000Y-46300000D02*
X107320000Y-46250000D01*
X86731600Y-66004783D02*
X86731600Y-74438530D01*
X127100000Y-46250000D02*
X127285000Y-46065000D01*
X103940000Y-49680000D02*
X107320000Y-46300000D01*
X98500000Y-49680000D02*
X103940000Y-49680000D01*
X86731600Y-74438530D02*
X87003580Y-74710510D01*
X91961474Y-60774909D02*
X91961474Y-56218526D01*
X91961474Y-56218526D02*
X98500000Y-49680000D01*
X107320000Y-46250000D02*
X127100000Y-46250000D01*
D20*
X99313990Y-60997299D02*
X99091600Y-60774909D01*
X100138990Y-61049309D02*
X100086980Y-60997299D01*
D19*
X91961474Y-60774909D02*
X86731600Y-66004783D01*
X91961474Y-60774909D02*
X99091600Y-60774909D01*
D21*
X127153984Y-44400000D02*
X127771995Y-45018012D01*
X101100000Y-44400000D02*
X108723984Y-44400000D01*
X109521016Y-44245000D02*
X109676016Y-44400000D01*
X108878984Y-44245000D02*
X109521016Y-44245000D01*
X98115000Y-47312809D02*
X98187191Y-47312809D01*
X108723984Y-44400000D02*
X108878984Y-44245000D01*
X98187191Y-47312809D02*
X101100000Y-44400000D01*
X109676016Y-44400000D02*
X127153984Y-44400000D01*
D19*
X133830000Y-31600000D02*
X132728836Y-32701164D01*
X133931303Y-28665000D02*
X133830000Y-28766303D01*
X133830000Y-28766303D02*
X133830000Y-31600000D01*
X132728836Y-32701164D02*
X132728836Y-32815000D01*
D21*
X109191691Y-45028309D02*
X109200000Y-45020000D01*
X101515000Y-45028309D02*
X109191691Y-45028309D01*
X99215000Y-47328309D02*
X101515000Y-45028309D01*
D20*
X127510000Y-43660000D02*
X127510000Y-41900000D01*
D19*
X115420000Y-70790000D02*
X129080000Y-57130000D01*
D20*
X129080000Y-45230000D02*
X127510000Y-43660000D01*
D19*
X129080000Y-57130000D02*
X129080000Y-45230000D01*
X156430000Y-71050000D02*
X160050000Y-67430000D01*
D22*
X136519893Y-78840000D02*
X138759893Y-76600000D01*
X138759893Y-76600000D02*
X146490000Y-76600000D01*
X146490000Y-76600000D02*
X146840000Y-76250000D01*
D19*
X160050000Y-67430000D02*
X160050000Y-67410000D01*
D22*
X121270000Y-78840000D02*
X136519893Y-78840000D01*
X119240000Y-76810000D02*
X121270000Y-78840000D01*
D19*
X105119000Y-61684309D02*
X105119000Y-66637309D01*
X95341257Y-62064052D02*
X95848000Y-61557309D01*
D22*
X103265000Y-59189309D02*
X103555000Y-59479309D01*
D19*
X99448188Y-61557309D02*
X99750189Y-61859310D01*
X103614000Y-59538309D02*
X103555000Y-59479309D01*
D22*
X103265000Y-58028309D02*
X103265000Y-59189309D01*
D19*
X95848000Y-61557309D02*
X99448188Y-61557309D01*
X95341257Y-63588052D02*
X95341257Y-62064052D01*
X103555000Y-59621111D02*
X103555000Y-59479309D01*
X103614000Y-60179309D02*
X103614000Y-59538309D01*
X105119000Y-66637309D02*
X106008000Y-67526309D01*
X103614000Y-60179309D02*
X105119000Y-61684309D01*
X101316801Y-61859310D02*
X103555000Y-59621111D01*
X99750189Y-61859310D02*
X101316801Y-61859310D01*
D20*
X144980000Y-72630000D02*
X143850000Y-72630000D01*
X140910000Y-75570000D02*
X131160000Y-75570000D01*
X130680000Y-75570000D02*
X129890000Y-76360000D01*
D23*
X104013307Y-51030002D02*
X101215000Y-53828309D01*
X79180000Y-82290000D02*
X79180000Y-83570000D01*
D20*
X158420000Y-72570000D02*
X158360000Y-72630000D01*
D23*
X101215000Y-59500470D02*
X100842661Y-59872809D01*
X101215000Y-53828309D02*
X101215000Y-59500470D01*
D20*
X131160000Y-75570000D02*
X130680000Y-75570000D01*
D23*
X77140000Y-75360000D02*
X79180000Y-77400000D01*
D20*
X158360000Y-72630000D02*
X144980000Y-72630000D01*
D23*
X104613307Y-51030002D02*
X104013307Y-51030002D01*
X79180000Y-83570000D02*
X80660000Y-85050000D01*
X79180000Y-77400000D02*
X79180000Y-82290000D01*
D20*
X141710000Y-74770000D02*
X140910000Y-75570000D01*
X143850000Y-72630000D02*
X141710000Y-74770000D01*
D23*
X100842661Y-59872809D02*
X100842661Y-60255968D01*
X77970000Y-76910000D02*
X77310662Y-76250662D01*
X101810248Y-60221056D02*
X101658997Y-60069805D01*
D20*
X157470000Y-71430000D02*
X157250000Y-71430000D01*
X156850000Y-71830000D02*
X156700000Y-71980000D01*
X158370000Y-71440000D02*
X158360000Y-71430000D01*
X128720000Y-76040000D02*
X128590000Y-76040000D01*
D23*
X101658997Y-60069805D02*
X101658997Y-54384312D01*
D20*
X143630000Y-71980000D02*
X142150000Y-73460000D01*
D23*
X101658997Y-54384312D02*
X103863307Y-52180002D01*
D20*
X131300000Y-73460000D02*
X128720000Y-76040000D01*
D23*
X103863307Y-52180002D02*
X103863307Y-52028309D01*
D20*
X142150000Y-73460000D02*
X131300000Y-73460000D01*
D23*
X77970000Y-80830000D02*
X77970000Y-76910000D01*
D20*
X158360000Y-71430000D02*
X157470000Y-71430000D01*
X157250000Y-71430000D02*
X156850000Y-71830000D01*
D23*
X77310662Y-76250662D02*
X76689602Y-76250662D01*
D20*
X156700000Y-71980000D02*
X149420000Y-71980000D01*
X149420000Y-71980000D02*
X143630000Y-71980000D01*
D23*
X100215000Y-57928309D02*
X100215000Y-52661690D01*
X97942794Y-58901546D02*
X99241763Y-58901546D01*
X100215000Y-52661690D02*
X99544929Y-51991619D01*
X101812351Y-50498380D02*
X102156382Y-50842411D01*
X99241763Y-58901546D02*
X100215000Y-57928309D01*
X99544929Y-50937719D02*
X99984268Y-50498380D01*
X99984268Y-50498380D02*
X101812351Y-50498380D01*
X99544929Y-51991619D02*
X99544929Y-50937719D01*
X107715000Y-61628309D02*
X105515000Y-59428309D01*
X105515000Y-53092931D02*
X105686092Y-52921839D01*
X106115000Y-69428309D02*
X107715000Y-67828309D01*
X105515000Y-59428309D02*
X105515000Y-53092931D01*
X107715000Y-67828309D02*
X107715000Y-61628309D01*
X107062944Y-61876253D02*
X105015000Y-59828309D01*
X107062944Y-66290238D02*
X107062944Y-61876253D01*
X106982629Y-66370553D02*
X107062944Y-66290238D01*
X105015000Y-59828309D02*
X105015000Y-53696938D01*
X105015000Y-53696938D02*
X104794517Y-53476455D01*
X106212092Y-62013979D02*
X104515000Y-60316887D01*
X104515000Y-54650000D02*
X103915000Y-54050000D01*
X104515000Y-60316887D02*
X104515000Y-54650000D01*
X99891356Y-60122313D02*
X100715000Y-59298669D01*
X100715000Y-59298669D02*
X100715000Y-51668451D01*
X100715000Y-51668451D02*
X100294929Y-51248380D01*
D19*
X91633309Y-80660000D02*
X93265000Y-79028309D01*
X86740000Y-80660000D02*
X91633309Y-80660000D01*
D23*
X125050000Y-74960000D02*
X92294513Y-74960000D01*
X87216454Y-76754513D02*
X86951941Y-76490000D01*
X92294513Y-74960000D02*
X90500000Y-76754513D01*
X90500000Y-76754513D02*
X87216454Y-76754513D01*
X86951941Y-76490000D02*
X86004473Y-76490000D01*
X129266508Y-70743492D02*
X125050000Y-74960000D01*
X86004473Y-76490000D02*
X85640209Y-76854264D01*
X90570000Y-77280000D02*
X86681280Y-77280000D01*
X86681280Y-77280000D02*
X86641280Y-77240000D01*
X92440000Y-75410000D02*
X90570000Y-77280000D01*
X125610000Y-75410000D02*
X92440000Y-75410000D01*
X130380000Y-70640000D02*
X125610000Y-75410000D01*
X131010000Y-70640000D02*
X130380000Y-70640000D01*
D20*
X103280000Y-40510000D02*
X103280000Y-38950000D01*
X84770000Y-25860000D02*
X84770000Y-25900000D01*
X84770000Y-25900000D02*
X82600000Y-28070000D01*
X90190000Y-25860000D02*
X84770000Y-25860000D01*
X103280000Y-38950000D02*
X90190000Y-25860000D01*
D21*
X126934314Y-74955686D02*
X126934314Y-75395686D01*
X149290000Y-64250000D02*
X141230000Y-72310000D01*
X129580000Y-72310000D02*
X126934314Y-74955686D01*
X129708622Y-42030000D02*
X137570000Y-42030000D01*
X129153651Y-42584971D02*
X129708622Y-42030000D01*
X149405000Y-61981016D02*
X149290000Y-62096016D01*
X141230000Y-72310000D02*
X129580000Y-72310000D01*
X137570000Y-42030000D02*
X149290000Y-53750000D01*
X149290000Y-61223984D02*
X149405000Y-61338984D01*
X149290000Y-62096016D02*
X149290000Y-64250000D01*
X149290000Y-53750000D02*
X149290000Y-61223984D01*
X149405000Y-61338984D02*
X149405000Y-61981016D01*
X128366550Y-42033450D02*
X128366550Y-43279936D01*
X130600000Y-73010000D02*
X141450000Y-73010000D01*
X127050000Y-76560000D02*
X130600000Y-73010000D01*
X149970000Y-64490000D02*
X149970000Y-53600000D01*
X149970000Y-53600000D02*
X138020000Y-41650000D01*
X141450000Y-73010000D02*
X149970000Y-64490000D01*
X138020000Y-41590000D02*
X128810000Y-41590000D01*
X128810000Y-41590000D02*
X128366550Y-42033450D01*
X138020000Y-41650000D02*
X138020000Y-41590000D01*
D20*
X87644276Y-67075928D02*
X89018968Y-67075928D01*
X93209900Y-65973209D02*
X93366000Y-66129309D01*
X93366000Y-66129309D02*
X93616000Y-66129309D01*
X90121687Y-65973209D02*
X93209900Y-65973209D01*
X89018968Y-67075928D02*
X90121687Y-65973209D01*
X93926699Y-68028309D02*
X94329705Y-67625303D01*
X87765000Y-68028309D02*
X93926699Y-68028309D01*
X86440000Y-32730000D02*
X86450000Y-32730000D01*
X85140000Y-31430000D02*
X86440000Y-32730000D01*
X86450000Y-32730000D02*
X94560000Y-40840000D01*
X85140000Y-28070000D02*
X85140000Y-31430000D01*
X126990000Y-81120000D02*
X127740000Y-80370000D01*
X127740000Y-80370000D02*
X146420000Y-80370000D01*
X146420000Y-80370000D02*
X151830000Y-74960000D01*
X137258629Y-79070000D02*
X146588629Y-79070000D01*
X153121371Y-75130000D02*
X162410000Y-75130000D01*
X151498629Y-74160000D02*
X152151371Y-74160000D01*
X136488629Y-79840000D02*
X137258629Y-79070000D01*
X146588629Y-79070000D02*
X151498629Y-74160000D01*
X152151371Y-74160000D02*
X153121371Y-75130000D01*
X126960000Y-79840000D02*
X136488629Y-79840000D01*
X162410000Y-75130000D02*
X162740000Y-74800000D01*
D19*
X83970000Y-76560000D02*
X72810000Y-65400000D01*
X89830000Y-73760000D02*
X100561309Y-73760000D01*
X100561309Y-73760000D02*
X102960000Y-71361309D01*
X85600000Y-79690000D02*
X83970000Y-78060000D01*
X111765000Y-73528309D02*
X111065000Y-74228309D01*
X87850000Y-75740000D02*
X89830000Y-73760000D01*
X111065000Y-74228309D02*
X106465000Y-74228309D01*
X72810000Y-65400000D02*
X67960000Y-65400000D01*
X84790000Y-75740000D02*
X87850000Y-75740000D01*
X83970000Y-78060000D02*
X83970000Y-76560000D01*
X106465000Y-74228309D02*
X103598000Y-71361309D01*
X103598000Y-71361309D02*
X102960000Y-71361309D01*
X83970000Y-76560000D02*
X84790000Y-75740000D01*
D20*
X149670000Y-52110000D02*
X150660000Y-53100000D01*
X138400000Y-40840000D02*
X149670000Y-52110000D01*
X150660000Y-53100000D02*
X150660000Y-58980000D01*
X121250000Y-40840000D02*
X138400000Y-40840000D01*
D21*
X66320739Y-69691400D02*
X66219339Y-69590000D01*
X66219339Y-69590000D02*
X65070000Y-69590000D01*
X65070000Y-69590000D02*
X64710000Y-69950000D01*
G04 #@! TA.AperFunction,Conductor*
G36*
X102337492Y-62212311D02*
G01*
X102383985Y-62265967D01*
X102392949Y-62293725D01*
X102413420Y-62396637D01*
X102466225Y-62524120D01*
X102517447Y-62600780D01*
X102542885Y-62638850D01*
X102542890Y-62638856D01*
X102640452Y-62736418D01*
X102640458Y-62736423D01*
X102755189Y-62813084D01*
X102882672Y-62865889D01*
X103018007Y-62892809D01*
X103018008Y-62892809D01*
X103155992Y-62892809D01*
X103155993Y-62892809D01*
X103291328Y-62865889D01*
X103418811Y-62813084D01*
X103533542Y-62736423D01*
X103624234Y-62645730D01*
X103632306Y-62641323D01*
X103637819Y-62633959D01*
X103662977Y-62624575D01*
X103686544Y-62611707D01*
X103695719Y-62612363D01*
X103704339Y-62609148D01*
X103730578Y-62614855D01*
X103757360Y-62616771D01*
X103766558Y-62622682D01*
X103773713Y-62624239D01*
X103802423Y-62645732D01*
X103812095Y-62655404D01*
X103846121Y-62717716D01*
X103849000Y-62744499D01*
X103849000Y-68771114D01*
X103828998Y-68839235D01*
X103775342Y-68885728D01*
X103705068Y-68895832D01*
X103674782Y-68887523D01*
X103671074Y-68885987D01*
X103671071Y-68885986D01*
X103535738Y-68859066D01*
X103535736Y-68859066D01*
X103397750Y-68859066D01*
X103397747Y-68859066D01*
X103262414Y-68885986D01*
X103262411Y-68885987D01*
X103134932Y-68938791D01*
X103020201Y-69015451D01*
X103020195Y-69015456D01*
X102922633Y-69113018D01*
X102922628Y-69113024D01*
X102845968Y-69227755D01*
X102793164Y-69355234D01*
X102793163Y-69355237D01*
X102766243Y-69490570D01*
X102766243Y-69628561D01*
X102793163Y-69763894D01*
X102793164Y-69763897D01*
X102845968Y-69891378D01*
X102847423Y-69894099D01*
X102847754Y-69895688D01*
X102848337Y-69897096D01*
X102848070Y-69897206D01*
X102861898Y-69963604D01*
X102836498Y-70029902D01*
X102779287Y-70071942D01*
X102736304Y-70079500D01*
X96159381Y-70079500D01*
X96129465Y-70070716D01*
X96098996Y-70064088D01*
X96093900Y-70060273D01*
X96091260Y-70059498D01*
X96070286Y-70042595D01*
X96011905Y-69984214D01*
X95977879Y-69921902D01*
X95975000Y-69895119D01*
X95975000Y-69204155D01*
X95995002Y-69136034D01*
X96007322Y-69120747D01*
X96007187Y-69120636D01*
X96011109Y-69115855D01*
X96011114Y-69115851D01*
X96087775Y-69001120D01*
X96140580Y-68873637D01*
X96167500Y-68738302D01*
X96167500Y-68600316D01*
X96140580Y-68464981D01*
X96087775Y-68337498D01*
X96011114Y-68222767D01*
X96007187Y-68217982D01*
X96008342Y-68217033D01*
X95977879Y-68161245D01*
X95975000Y-68134462D01*
X95975000Y-65533442D01*
X95977421Y-65508860D01*
X95992245Y-65434334D01*
X95992246Y-65434331D01*
X95992246Y-65296346D01*
X95992245Y-65296339D01*
X95977421Y-65221813D01*
X95975000Y-65197232D01*
X95975000Y-62744499D01*
X95995002Y-62676378D01*
X96011905Y-62655404D01*
X96438095Y-62229214D01*
X96500407Y-62195188D01*
X96527190Y-62192309D01*
X102269371Y-62192309D01*
X102337492Y-62212311D01*
G37*
G04 #@! TD.AperFunction*
M02*
