G04 #@! TF.GenerationSoftware,KiCad,Pcbnew,9.0.6*
G04 #@! TF.CreationDate,2026-02-22T19:02:19+01:00*
G04 #@! TF.ProjectId,epdiy-v7-light,65706469-792d-4763-972d-6c696768742e,1.1*
G04 #@! TF.SameCoordinates,Original*
G04 #@! TF.FileFunction,Soldermask,Top*
G04 #@! TF.FilePolarity,Negative*
%FSLAX46Y46*%
G04 Gerber Fmt 4.6, Leading zero omitted, Abs format (unit mm)*
G04 Created by KiCad (PCBNEW 9.0.6) date 2026-02-22 19:02:19*
%MOMM*%
%LPD*%
G01*
G04 APERTURE LIST*
G04 Aperture macros list*
%AMRoundRect*
0 Rectangle with rounded corners*
0 $1 Rounding radius*
0 $2 $3 $4 $5 $6 $7 $8 $9 X,Y pos of 4 corners*
0 Add a 4 corners polygon primitive as box body*
4,1,4,$2,$3,$4,$5,$6,$7,$8,$9,$2,$3,0*
0 Add four circle primitives for the rounded corners*
1,1,$1+$1,$2,$3*
1,1,$1+$1,$4,$5*
1,1,$1+$1,$6,$7*
1,1,$1+$1,$8,$9*
0 Add four rect primitives between the rounded corners*
20,1,$1+$1,$2,$3,$4,$5,0*
20,1,$1+$1,$4,$5,$6,$7,0*
20,1,$1+$1,$6,$7,$8,$9,0*
20,1,$1+$1,$8,$9,$2,$3,0*%
%AMFreePoly0*
4,1,17,0.785355,0.785355,0.800000,0.750000,0.800000,-0.050000,0.785355,-0.085355,0.750000,-0.100000,0.130000,-0.100000,0.130000,-0.760000,0.115355,-0.795355,0.080000,-0.810000,-0.750000,-0.810000,-0.785355,-0.795355,-0.800000,-0.760000,-0.800000,0.750000,-0.785355,0.785355,-0.750000,0.800000,0.750000,0.800000,0.785355,0.785355,0.785355,0.785355,$1*%
%AMFreePoly1*
4,1,18,0.775355,0.775355,0.789999,0.740333,0.799999,-0.759667,0.785590,-0.795119,0.750333,-0.809999,0.750000,-0.810000,-0.050000,-0.810000,-0.085355,-0.795355,-0.099995,-0.760714,-0.109291,-0.110000,-0.760000,-0.110000,-0.795355,-0.095355,-0.810000,-0.060000,-0.810000,0.740000,-0.795355,0.775355,-0.760000,0.790000,0.740000,0.790000,0.775355,0.775355,0.775355,0.775355,$1*%
%AMFreePoly2*
4,1,23,0.500000,-0.750000,0.000000,-0.750000,0.000000,-0.745722,-0.065263,-0.745722,-0.191342,-0.711940,-0.304381,-0.646677,-0.396677,-0.554381,-0.461940,-0.441342,-0.495722,-0.315263,-0.495722,-0.250000,-0.500000,-0.250000,-0.500000,0.250000,-0.495722,0.250000,-0.495722,0.315263,-0.461940,0.441342,-0.396677,0.554381,-0.304381,0.646677,-0.191342,0.711940,-0.065263,0.745722,0.000000,0.745722,
0.000000,0.750000,0.500000,0.750000,0.500000,-0.750000,0.500000,-0.750000,$1*%
%AMFreePoly3*
4,1,23,0.000000,0.745722,0.065263,0.745722,0.191342,0.711940,0.304381,0.646677,0.396677,0.554381,0.461940,0.441342,0.495722,0.315263,0.495722,0.250000,0.500000,0.250000,0.500000,-0.250000,0.495722,-0.250000,0.495722,-0.315263,0.461940,-0.441342,0.396677,-0.554381,0.304381,-0.646677,0.191342,-0.711940,0.065263,-0.745722,0.000000,-0.745722,0.000000,-0.750000,-0.500000,-0.750000,
-0.500000,0.750000,0.000000,0.750000,0.000000,0.745722,0.000000,0.745722,$1*%
G04 Aperture macros list end*
%ADD10C,0.152400*%
%ADD11R,2.000000X0.900000*%
%ADD12R,0.930000X1.100000*%
%ADD13C,0.850000*%
%ADD14RoundRect,0.200000X0.275000X-0.200000X0.275000X0.200000X-0.275000X0.200000X-0.275000X-0.200000X0*%
%ADD15C,2.200000*%
%ADD16RoundRect,0.250000X0.250000X0.475000X-0.250000X0.475000X-0.250000X-0.475000X0.250000X-0.475000X0*%
%ADD17RoundRect,0.250000X-0.475000X0.250000X-0.475000X-0.250000X0.475000X-0.250000X0.475000X0.250000X0*%
%ADD18RoundRect,0.243750X-0.456250X0.243750X-0.456250X-0.243750X0.456250X-0.243750X0.456250X0.243750X0*%
%ADD19RoundRect,0.200000X-0.275000X0.200000X-0.275000X-0.200000X0.275000X-0.200000X0.275000X0.200000X0*%
%ADD20RoundRect,0.249999X0.325001X0.650001X-0.325001X0.650001X-0.325001X-0.650001X0.325001X-0.650001X0*%
%ADD21RoundRect,0.200000X0.200000X0.275000X-0.200000X0.275000X-0.200000X-0.275000X0.200000X-0.275000X0*%
%ADD22RoundRect,0.100000X-0.100000X0.637500X-0.100000X-0.637500X0.100000X-0.637500X0.100000X0.637500X0*%
%ADD23RoundRect,0.249997X0.925003X-0.412503X0.925003X0.412503X-0.925003X0.412503X-0.925003X-0.412503X0*%
%ADD24RoundRect,0.250000X-0.250000X-0.475000X0.250000X-0.475000X0.250000X0.475000X-0.250000X0.475000X0*%
%ADD25R,3.900000X2.200000*%
%ADD26R,4.200000X2.400000*%
%ADD27RoundRect,0.250000X0.475000X-0.250000X0.475000X0.250000X-0.475000X0.250000X-0.475000X-0.250000X0*%
%ADD28R,0.850000X0.200000*%
%ADD29R,0.200000X0.850000*%
%ADD30C,0.508000*%
%ADD31R,4.399999X4.399999*%
%ADD32R,1.200000X0.900000*%
%ADD33RoundRect,0.225000X-0.375000X0.225000X-0.375000X-0.225000X0.375000X-0.225000X0.375000X0.225000X0*%
%ADD34RoundRect,0.225000X0.375000X-0.225000X0.375000X0.225000X-0.375000X0.225000X-0.375000X-0.225000X0*%
%ADD35RoundRect,0.200000X-0.200000X-0.275000X0.200000X-0.275000X0.200000X0.275000X-0.200000X0.275000X0*%
%ADD36R,0.650000X1.500000*%
%ADD37R,3.600000X2.700000*%
%ADD38R,0.900000X1.200000*%
%ADD39RoundRect,0.250000X0.650000X-0.325000X0.650000X0.325000X-0.650000X0.325000X-0.650000X-0.325000X0*%
%ADD40RoundRect,0.150000X0.150000X-0.587500X0.150000X0.587500X-0.150000X0.587500X-0.150000X-0.587500X0*%
%ADD41R,1.100000X1.900000*%
%ADD42R,0.700000X2.000000*%
%ADD43R,1.300000X0.300000*%
%ADD44R,2.200000X1.800000*%
%ADD45RoundRect,0.135000X0.135000X0.185000X-0.135000X0.185000X-0.135000X-0.185000X0.135000X-0.185000X0*%
%ADD46RoundRect,0.140000X-0.170000X0.140000X-0.170000X-0.140000X0.170000X-0.140000X0.170000X0.140000X0*%
%ADD47C,0.650000*%
%ADD48R,0.600000X1.450000*%
%ADD49R,0.300000X1.450000*%
%ADD50O,1.000000X2.100000*%
%ADD51O,1.000000X1.600000*%
%ADD52RoundRect,0.150000X-0.587500X-0.150000X0.587500X-0.150000X0.587500X0.150000X-0.587500X0.150000X0*%
%ADD53R,0.600000X1.550000*%
%ADD54R,1.200000X1.800000*%
%ADD55C,0.800000*%
%ADD56R,1.200000X1.200000*%
%ADD57FreePoly0,270.000000*%
%ADD58FreePoly1,270.000000*%
%ADD59RoundRect,0.250000X-0.159099X0.512652X-0.512652X0.159099X0.159099X-0.512652X0.512652X-0.159099X0*%
%ADD60FreePoly0,180.000000*%
%ADD61FreePoly1,180.000000*%
%ADD62RoundRect,0.135000X-0.135000X-0.185000X0.135000X-0.185000X0.135000X0.185000X-0.135000X0.185000X0*%
%ADD63RoundRect,0.200000X0.335876X0.053033X0.053033X0.335876X-0.335876X-0.053033X-0.053033X-0.335876X0*%
%ADD64RoundRect,0.135000X-0.226274X-0.035355X-0.035355X-0.226274X0.226274X0.035355X0.035355X0.226274X0*%
%ADD65FreePoly2,0.000000*%
%ADD66FreePoly3,0.000000*%
%ADD67RoundRect,0.135000X-0.185000X0.135000X-0.185000X-0.135000X0.185000X-0.135000X0.185000X0.135000X0*%
%ADD68R,0.475000X0.300000*%
%ADD69RoundRect,0.135000X0.035355X-0.226274X0.226274X-0.035355X-0.035355X0.226274X-0.226274X0.035355X0*%
%ADD70RoundRect,0.150000X-0.825000X-0.150000X0.825000X-0.150000X0.825000X0.150000X-0.825000X0.150000X0*%
%ADD71R,1.500000X0.900000*%
%ADD72R,0.900000X1.500000*%
%ADD73R,0.900000X0.900000*%
%ADD74RoundRect,0.150000X0.309359X0.521491X-0.521491X-0.309359X-0.309359X-0.521491X0.521491X0.309359X0*%
%ADD75RoundRect,0.200000X0.053033X-0.335876X0.335876X-0.053033X-0.053033X0.335876X-0.335876X0.053033X0*%
%ADD76R,0.400000X1.000000*%
%ADD77R,1.650000X0.600000*%
%ADD78R,0.800000X1.000000*%
%ADD79O,0.800000X1.300000*%
%ADD80R,1.700000X1.700000*%
%ADD81C,1.700000*%
%ADD82RoundRect,0.250000X-0.362500X-1.425000X0.362500X-1.425000X0.362500X1.425000X-0.362500X1.425000X0*%
%ADD83C,0.345000*%
%ADD84RoundRect,0.150000X-0.150000X0.512500X-0.150000X-0.512500X0.150000X-0.512500X0.150000X0.512500X0*%
%ADD85RoundRect,0.140000X-0.219203X-0.021213X-0.021213X-0.219203X0.219203X0.021213X0.021213X0.219203X0*%
G04 APERTURE END LIST*
D10*
X96588961Y-63906271D02*
X96588961Y-64206346D01*
X96588961Y-64206346D02*
X97539038Y-64206346D01*
X96588961Y-64306272D02*
X96588961Y-64606348D01*
X96588961Y-64606348D02*
X97539038Y-64606348D01*
X96588961Y-64706271D02*
X96588961Y-65006347D01*
X96588961Y-65006347D02*
X97539038Y-65006347D01*
X96588961Y-65106271D02*
X96588961Y-65406346D01*
X96588961Y-65406346D02*
X97539038Y-65406346D01*
X96588961Y-65506270D02*
X96588961Y-65806348D01*
X96588961Y-65806348D02*
X97539038Y-65806348D01*
X96588961Y-65906272D02*
X96588961Y-66206347D01*
X96588961Y-66206347D02*
X97539038Y-66206347D01*
X96588961Y-66306271D02*
X96588961Y-66606346D01*
X96588961Y-66606346D02*
X97539038Y-66606346D01*
X96588961Y-66706270D02*
X96588961Y-67006346D01*
X96588961Y-67006346D02*
X97539038Y-67006346D01*
X96588961Y-67106272D02*
X96588961Y-67406347D01*
X96588961Y-67406347D02*
X97539038Y-67406347D01*
X96588961Y-67506271D02*
X96588961Y-67806347D01*
X96588961Y-67806347D02*
X97539038Y-67806347D01*
X96588961Y-67906270D02*
X96588961Y-68206346D01*
X96588961Y-68206346D02*
X97539038Y-68206346D01*
X96588961Y-68306272D02*
X96588961Y-68606347D01*
X96588961Y-68606347D02*
X97539038Y-68606347D01*
X97539038Y-63906271D02*
X96588961Y-63906271D01*
X97539038Y-64206346D02*
X97539038Y-63906271D01*
X97539038Y-64306272D02*
X96588961Y-64306272D01*
X97539038Y-64606348D02*
X97539038Y-64306272D01*
X97539038Y-64706271D02*
X96588961Y-64706271D01*
X97539038Y-65006347D02*
X97539038Y-64706271D01*
X97539038Y-65106271D02*
X96588961Y-65106271D01*
X97539038Y-65406346D02*
X97539038Y-65106271D01*
X97539038Y-65506270D02*
X96588961Y-65506270D01*
X97539038Y-65806348D02*
X97539038Y-65506270D01*
X97539038Y-65906272D02*
X96588961Y-65906272D01*
X97539038Y-66206347D02*
X97539038Y-65906272D01*
X97539038Y-66306271D02*
X96588961Y-66306271D01*
X97539038Y-66606346D02*
X97539038Y-66306271D01*
X97539038Y-66706270D02*
X96588961Y-66706270D01*
X97539038Y-67006346D02*
X97539038Y-66706270D01*
X97539038Y-67106272D02*
X96588961Y-67106272D01*
X97539038Y-67406347D02*
X97539038Y-67106272D01*
X97539038Y-67506271D02*
X96588961Y-67506271D01*
X97539038Y-67806347D02*
X97539038Y-67506271D01*
X97539038Y-67906270D02*
X96588961Y-67906270D01*
X97539038Y-68206346D02*
X97539038Y-67906270D01*
X97539038Y-68306272D02*
X96588961Y-68306272D01*
X97539038Y-68606347D02*
X97539038Y-68306272D01*
X97688962Y-62806270D02*
X97688962Y-63756347D01*
X97688962Y-63756347D02*
X97989037Y-63756347D01*
X97688962Y-68756271D02*
X97688962Y-69706348D01*
X97688962Y-69706348D02*
X97989037Y-69706348D01*
X97775501Y-63992810D02*
X98264200Y-63992810D01*
X97775501Y-63992810D02*
X102302499Y-63992810D01*
X97775501Y-64481509D02*
X97775501Y-63992810D01*
X97775501Y-64881509D02*
X102302499Y-64881509D01*
X97775501Y-65268909D02*
X97775501Y-64881509D01*
X97775501Y-65668909D02*
X102302499Y-65668909D01*
X97775501Y-66056309D02*
X97775501Y-65668909D01*
X97775501Y-66456309D02*
X102302499Y-66456309D01*
X97775501Y-66843709D02*
X97775501Y-66456309D01*
X97775501Y-67243709D02*
X102302499Y-67243709D01*
X97775501Y-67631109D02*
X97775501Y-67243709D01*
X97775501Y-68031109D02*
X102302499Y-68031109D01*
X97775501Y-68519808D02*
X97775501Y-63992810D01*
X97775501Y-68519808D02*
X97775501Y-68031109D01*
X97989037Y-62806270D02*
X97688962Y-62806270D01*
X97989037Y-63756347D02*
X97989037Y-62806270D01*
X97989037Y-68756271D02*
X97688962Y-68756271D01*
X97989037Y-69706348D02*
X97989037Y-68756271D01*
X98088963Y-62806270D02*
X98088963Y-63756347D01*
X98088963Y-63756347D02*
X98389039Y-63756347D01*
X98088963Y-68756271D02*
X98088963Y-69706348D01*
X98088963Y-69706348D02*
X98389039Y-69706348D01*
X98264200Y-63992810D02*
X98264200Y-68519808D01*
X98264200Y-68519808D02*
X97775501Y-68519808D01*
X98389039Y-62806270D02*
X98088963Y-62806270D01*
X98389039Y-63756347D02*
X98389039Y-62806270D01*
X98389039Y-68756271D02*
X98088963Y-68756271D01*
X98389039Y-69706348D02*
X98389039Y-68756271D01*
X98488962Y-62806270D02*
X98488962Y-63756347D01*
X98488962Y-63756347D02*
X98789038Y-63756347D01*
X98488962Y-68756271D02*
X98488962Y-69706348D01*
X98488962Y-69706348D02*
X98789038Y-69706348D01*
X98664200Y-63992810D02*
X98664200Y-68519808D01*
X98664200Y-68519808D02*
X99051600Y-68519808D01*
X98789038Y-62806270D02*
X98488962Y-62806270D01*
X98789038Y-63756347D02*
X98789038Y-62806270D01*
X98789038Y-68756271D02*
X98488962Y-68756271D01*
X98789038Y-69706348D02*
X98789038Y-68756271D01*
X98888962Y-62806270D02*
X98888962Y-63756347D01*
X98888962Y-63756347D02*
X99189037Y-63756347D01*
X98888962Y-68756271D02*
X98888962Y-69706348D01*
X98888962Y-69706348D02*
X99189037Y-69706348D01*
X99051600Y-63992810D02*
X98664200Y-63992810D01*
X99051600Y-68519808D02*
X99051600Y-63992810D01*
X99189037Y-62806270D02*
X98888962Y-62806270D01*
X99189037Y-63756347D02*
X99189037Y-62806270D01*
X99189037Y-68756271D02*
X98888962Y-68756271D01*
X99189037Y-69706348D02*
X99189037Y-68756271D01*
X99288961Y-68756271D02*
X99288961Y-69706348D01*
X99288961Y-69706348D02*
X99589039Y-69706348D01*
X99288963Y-62806270D02*
X99288963Y-63756347D01*
X99288963Y-63756347D02*
X99589039Y-63756347D01*
X99451600Y-63992810D02*
X99451600Y-68519808D01*
X99451600Y-68519808D02*
X99839000Y-68519808D01*
X99589039Y-62806270D02*
X99288963Y-62806270D01*
X99589039Y-63756347D02*
X99589039Y-62806270D01*
X99589039Y-68756271D02*
X99288961Y-68756271D01*
X99589039Y-69706348D02*
X99589039Y-68756271D01*
X99688963Y-62806270D02*
X99688963Y-63756347D01*
X99688963Y-63756347D02*
X99989038Y-63756347D01*
X99688963Y-68756271D02*
X99688963Y-69706348D01*
X99688963Y-69706348D02*
X99989038Y-69706348D01*
X99839000Y-63992810D02*
X99451600Y-63992810D01*
X99839000Y-68519808D02*
X99839000Y-63992810D01*
X99989038Y-62806270D02*
X99688963Y-62806270D01*
X99989038Y-63756347D02*
X99989038Y-62806270D01*
X99989038Y-68756271D02*
X99688963Y-68756271D01*
X99989038Y-69706348D02*
X99989038Y-68756271D01*
X100088962Y-62806270D02*
X100088962Y-63756347D01*
X100088962Y-63756347D02*
X100389037Y-63756347D01*
X100088962Y-68756271D02*
X100088962Y-69706348D01*
X100088962Y-69706348D02*
X100389037Y-69706348D01*
X100239000Y-63992810D02*
X100239000Y-68519808D01*
X100239000Y-68519808D02*
X100626400Y-68519808D01*
X100389037Y-62806270D02*
X100088962Y-62806270D01*
X100389037Y-63756347D02*
X100389037Y-62806270D01*
X100389037Y-68756271D02*
X100088962Y-68756271D01*
X100389037Y-69706348D02*
X100389037Y-68756271D01*
X100488961Y-62806270D02*
X100488961Y-63756347D01*
X100488961Y-63756347D02*
X100789039Y-63756347D01*
X100488961Y-68756271D02*
X100488961Y-69706348D01*
X100488961Y-69706348D02*
X100789037Y-69706348D01*
X100626400Y-63992810D02*
X100239000Y-63992810D01*
X100626400Y-68519808D02*
X100626400Y-63992810D01*
X100789037Y-68756271D02*
X100488961Y-68756271D01*
X100789037Y-69706348D02*
X100789037Y-68756271D01*
X100789039Y-62806270D02*
X100488961Y-62806270D01*
X100789039Y-63756347D02*
X100789039Y-62806270D01*
X100888963Y-62806270D02*
X100888963Y-63756347D01*
X100888963Y-63756347D02*
X101189038Y-63756347D01*
X100888963Y-68756271D02*
X100888963Y-69706348D01*
X100888963Y-69706348D02*
X101189038Y-69706348D01*
X101026400Y-63992810D02*
X101026400Y-68519808D01*
X101026400Y-68519808D02*
X101413800Y-68519808D01*
X101189038Y-62806270D02*
X100888963Y-62806270D01*
X101189038Y-63756347D02*
X101189038Y-62806270D01*
X101189038Y-68756271D02*
X100888963Y-68756271D01*
X101189038Y-69706348D02*
X101189038Y-68756271D01*
X101288962Y-62806270D02*
X101288962Y-63756347D01*
X101288962Y-63756347D02*
X101589038Y-63756347D01*
X101288962Y-68756271D02*
X101288962Y-69706348D01*
X101288962Y-69706348D02*
X101589038Y-69706348D01*
X101413800Y-63992810D02*
X101026400Y-63992810D01*
X101413800Y-68519808D02*
X101413800Y-63992810D01*
X101589038Y-62806270D02*
X101288962Y-62806270D01*
X101589038Y-63756347D02*
X101589038Y-62806270D01*
X101589038Y-68756271D02*
X101288962Y-68756271D01*
X101589038Y-69706348D02*
X101589038Y-68756271D01*
X101688961Y-62806270D02*
X101688961Y-63756347D01*
X101688961Y-63756347D02*
X101989037Y-63756347D01*
X101688961Y-68756271D02*
X101688961Y-69706348D01*
X101688961Y-69706348D02*
X101989037Y-69706348D01*
X101813800Y-63992810D02*
X102302499Y-63992810D01*
X101813800Y-68519808D02*
X101813800Y-63992810D01*
X101989037Y-62806270D02*
X101688961Y-62806270D01*
X101989037Y-63756347D02*
X101989037Y-62806270D01*
X101989037Y-68756271D02*
X101688961Y-68756271D01*
X101989037Y-69706348D02*
X101989037Y-68756271D01*
X102088963Y-62806270D02*
X102088963Y-63756347D01*
X102088963Y-63756347D02*
X102389038Y-63756347D01*
X102088963Y-68756271D02*
X102088963Y-69706348D01*
X102088963Y-69706348D02*
X102389038Y-69706348D01*
X102302499Y-63992810D02*
X102302499Y-64481509D01*
X102302499Y-63992810D02*
X102302499Y-68519808D01*
X102302499Y-64481509D02*
X97775501Y-64481509D01*
X102302499Y-64881509D02*
X102302499Y-65268909D01*
X102302499Y-65268909D02*
X97775501Y-65268909D01*
X102302499Y-65668909D02*
X102302499Y-66056309D01*
X102302499Y-66056309D02*
X97775501Y-66056309D01*
X102302499Y-66456309D02*
X102302499Y-66843709D01*
X102302499Y-66843709D02*
X97775501Y-66843709D01*
X102302499Y-67243709D02*
X102302499Y-67631109D01*
X102302499Y-67631109D02*
X97775501Y-67631109D01*
X102302499Y-68031109D02*
X102302499Y-68519808D01*
X102302499Y-68519808D02*
X97775501Y-68519808D01*
X102302499Y-68519808D02*
X101813800Y-68519808D01*
X102389038Y-62806270D02*
X102088963Y-62806270D01*
X102389038Y-63756347D02*
X102389038Y-62806270D01*
X102389038Y-68756271D02*
X102088963Y-68756271D01*
X102389038Y-69706348D02*
X102389038Y-68756271D01*
X102538962Y-63906271D02*
X102538962Y-64206346D01*
X102538962Y-64206346D02*
X103489039Y-64206346D01*
X102538962Y-64306272D02*
X102538962Y-64606348D01*
X102538962Y-64606348D02*
X103489039Y-64606348D01*
X102538962Y-64706271D02*
X102538962Y-65006347D01*
X102538962Y-65006347D02*
X103489039Y-65006347D01*
X102538962Y-65106271D02*
X102538962Y-65406346D01*
X102538962Y-65406346D02*
X103489039Y-65406346D01*
X102538962Y-65506272D02*
X102538962Y-65806348D01*
X102538962Y-65806348D02*
X103489039Y-65806348D01*
X102538962Y-65906272D02*
X102538962Y-66206347D01*
X102538962Y-66206347D02*
X103489039Y-66206347D01*
X102538962Y-66306271D02*
X102538962Y-66606346D01*
X102538962Y-66606346D02*
X103489039Y-66606346D01*
X102538962Y-66706270D02*
X102538962Y-67006348D01*
X102538962Y-67006348D02*
X103489039Y-67006348D01*
X102538962Y-67106272D02*
X102538962Y-67406347D01*
X102538962Y-67406347D02*
X103489039Y-67406347D01*
X102538962Y-67506271D02*
X102538962Y-67806347D01*
X102538962Y-67806347D02*
X103489039Y-67806347D01*
X102538962Y-67906270D02*
X102538962Y-68206346D01*
X102538962Y-68206346D02*
X103489039Y-68206346D01*
X102538962Y-68306272D02*
X102538962Y-68606347D01*
X102538962Y-68606347D02*
X103489039Y-68606347D01*
X103489039Y-63906271D02*
X102538962Y-63906271D01*
X103489039Y-64206346D02*
X103489039Y-63906271D01*
X103489039Y-64306272D02*
X102538962Y-64306272D01*
X103489039Y-64606348D02*
X103489039Y-64306272D01*
X103489039Y-64706271D02*
X102538962Y-64706271D01*
X103489039Y-65006347D02*
X103489039Y-64706271D01*
X103489039Y-65106271D02*
X102538962Y-65106271D01*
X103489039Y-65406346D02*
X103489039Y-65106271D01*
X103489039Y-65506272D02*
X102538962Y-65506272D01*
X103489039Y-65806348D02*
X103489039Y-65506272D01*
X103489039Y-65906272D02*
X102538962Y-65906272D01*
X103489039Y-66206347D02*
X103489039Y-65906272D01*
X103489039Y-66306271D02*
X102538962Y-66306271D01*
X103489039Y-66606346D02*
X103489039Y-66306271D01*
X103489039Y-66706270D02*
X102538962Y-66706270D01*
X103489039Y-67006348D02*
X103489039Y-66706270D01*
X103489039Y-67106272D02*
X102538962Y-67106272D01*
X103489039Y-67406347D02*
X103489039Y-67106272D01*
X103489039Y-67506271D02*
X102538962Y-67506271D01*
X103489039Y-67806347D02*
X103489039Y-67506271D01*
X103489039Y-67906270D02*
X102538962Y-67906270D01*
X103489039Y-68206346D02*
X103489039Y-67906270D01*
X103489039Y-68306272D02*
X102538962Y-68306272D01*
X103489039Y-68606347D02*
X103489039Y-68306272D01*
D11*
X168430000Y-71540000D03*
X168430000Y-68540000D03*
X168430000Y-67040000D03*
D12*
X169140000Y-65490000D03*
X171410000Y-65490000D03*
X171410000Y-73090000D03*
X169140000Y-73090000D03*
D13*
X170280000Y-67790000D03*
X170280000Y-70790000D03*
D14*
X121380000Y-66005000D03*
X121380000Y-64355000D03*
D15*
X169000000Y-26000000D03*
D16*
X114715000Y-66828309D03*
X112815000Y-66828309D03*
D17*
X71950000Y-63799000D03*
X71950000Y-65699000D03*
D18*
X76808000Y-67661000D03*
X76808000Y-69536000D03*
D19*
X74500000Y-64174000D03*
X74500000Y-65824000D03*
X76808000Y-64174000D03*
X76808000Y-65824000D03*
D18*
X74395000Y-67661000D03*
X74395000Y-69536000D03*
D16*
X152546600Y-84947850D03*
X150646600Y-84947850D03*
X109625000Y-72098309D03*
X107725000Y-72098309D03*
D17*
X125510000Y-31030000D03*
X125510000Y-32930000D03*
D20*
X142365000Y-25980000D03*
X139415000Y-25980000D03*
D17*
X128020000Y-52800000D03*
X128020000Y-54700000D03*
D20*
X126840000Y-29020000D03*
X123890000Y-29020000D03*
D16*
X126690000Y-44710000D03*
X124790000Y-44710000D03*
D21*
X95240000Y-43428309D03*
X93590000Y-43428309D03*
D14*
X107096200Y-76699909D03*
X107096200Y-75049909D03*
D21*
X145725000Y-25570000D03*
X144075000Y-25570000D03*
D19*
X129950000Y-53103000D03*
X129950000Y-54753000D03*
D21*
X122120000Y-28640000D03*
X120470000Y-28640000D03*
X126615000Y-46760000D03*
X124965000Y-46760000D03*
D19*
X109128200Y-75049909D03*
X109128200Y-76699909D03*
D22*
X105240000Y-43128309D03*
X104590000Y-43128309D03*
X103940000Y-43128309D03*
X103290000Y-43128309D03*
X102640000Y-43128309D03*
X101990000Y-43128309D03*
X101340000Y-43128309D03*
X100690000Y-43128309D03*
X100040000Y-43128309D03*
X99390000Y-43128309D03*
X98740000Y-43128309D03*
X98090000Y-43128309D03*
X98090000Y-48853309D03*
X98740000Y-48853309D03*
X99390000Y-48853309D03*
X100040000Y-48853309D03*
X100690000Y-48853309D03*
X101340000Y-48853309D03*
X101990000Y-48853309D03*
X102640000Y-48853309D03*
X103290000Y-48853309D03*
X103940000Y-48853309D03*
X104590000Y-48853309D03*
X105240000Y-48853309D03*
D17*
X106135000Y-56924309D03*
X106135000Y-58824309D03*
D23*
X152530000Y-82258750D03*
X152530000Y-79183750D03*
D24*
X107725000Y-60668309D03*
X109625000Y-60668309D03*
D21*
X88672000Y-66510309D03*
X87022000Y-66510309D03*
D25*
X95721000Y-77681309D03*
X95721000Y-73881309D03*
D26*
X92673000Y-59362309D03*
X92673000Y-54862309D03*
D21*
X85370000Y-68796309D03*
X83720000Y-68796309D03*
X88672000Y-68796309D03*
X87022000Y-68796309D03*
X85370000Y-66510309D03*
X83720000Y-66510309D03*
D27*
X99277000Y-80287309D03*
X99277000Y-78387309D03*
X104103000Y-75334309D03*
X104103000Y-73434309D03*
D16*
X92353000Y-65494309D03*
X90453000Y-65494309D03*
D24*
X90453000Y-68288309D03*
X92353000Y-68288309D03*
D17*
X149730000Y-79971250D03*
X149730000Y-81871250D03*
D28*
X103014000Y-68456310D03*
X103014000Y-68056308D03*
X103014000Y-67656309D03*
X103014000Y-67256310D03*
X103014000Y-66856308D03*
X103014000Y-66456309D03*
X103014000Y-66056309D03*
X103014000Y-65656310D03*
X103014000Y-65256308D03*
X103014000Y-64856309D03*
X103014000Y-64456310D03*
X103014000Y-64056308D03*
D29*
X102239001Y-63281309D03*
X101838999Y-63281309D03*
X101439000Y-63281309D03*
X101039001Y-63281309D03*
X100638999Y-63281309D03*
X100239000Y-63281309D03*
X99839000Y-63281309D03*
X99439001Y-63281309D03*
X99038999Y-63281309D03*
X98639000Y-63281309D03*
X98239001Y-63281309D03*
X97838999Y-63281309D03*
D28*
X97064000Y-64056308D03*
X97064000Y-64456310D03*
X97064000Y-64856309D03*
X97064000Y-65256308D03*
X97064000Y-65656310D03*
X97064000Y-66056309D03*
X97064000Y-66456309D03*
X97064000Y-66856308D03*
X97064000Y-67256310D03*
X97064000Y-67656309D03*
X97064000Y-68056308D03*
X97064000Y-68456310D03*
D29*
X97838999Y-69231309D03*
X98239001Y-69231309D03*
X98639000Y-69231309D03*
X99038999Y-69231309D03*
X99439001Y-69231309D03*
X99839000Y-69231309D03*
X100239000Y-69231309D03*
X100638999Y-69231309D03*
X101039001Y-69231309D03*
X101439000Y-69231309D03*
X101838999Y-69231309D03*
X102239001Y-69231309D03*
D30*
X101613800Y-67831109D03*
X101613800Y-67043709D03*
X101613800Y-66256309D03*
X101613800Y-65468909D03*
X101613800Y-64681509D03*
X100826400Y-67831109D03*
X100826400Y-67043709D03*
X100826400Y-66256309D03*
X100826400Y-65468909D03*
X100826400Y-64681509D03*
X100039000Y-67831109D03*
X100039000Y-67043709D03*
X100039000Y-66256309D03*
D31*
X100039000Y-66256309D03*
D30*
X100039000Y-65468909D03*
X100039000Y-64681509D03*
X99251600Y-67831109D03*
X99251600Y-67043709D03*
X99251600Y-66256309D03*
X99251600Y-65468909D03*
X99251600Y-64681509D03*
X98464200Y-67831109D03*
X98464200Y-67043709D03*
X98464200Y-66256309D03*
X98464200Y-65468909D03*
X98464200Y-64681509D03*
D16*
X109625000Y-69812309D03*
X107725000Y-69812309D03*
D27*
X96737000Y-59840309D03*
X96737000Y-57940309D03*
D16*
X109625000Y-62954309D03*
X107725000Y-62954309D03*
D32*
X85815000Y-70702309D03*
X85815000Y-74002309D03*
X88355000Y-74002309D03*
X88355000Y-70702309D03*
D33*
X85815000Y-61558309D03*
X85815000Y-64858309D03*
D34*
X88355000Y-64858309D03*
X88355000Y-61558309D03*
D24*
X81563000Y-64478309D03*
X83463000Y-64478309D03*
D27*
X101563000Y-58824309D03*
X101563000Y-56924309D03*
D24*
X107725000Y-67526309D03*
X109625000Y-67526309D03*
X90453000Y-63081309D03*
X92353000Y-63081309D03*
D27*
X103849000Y-58824309D03*
X103849000Y-56924309D03*
D24*
X90453000Y-70701309D03*
X92353000Y-70701309D03*
D16*
X83463000Y-70828309D03*
X81563000Y-70828309D03*
X109625000Y-65253009D03*
X107725000Y-65253009D03*
D27*
X101944000Y-75334309D03*
X101944000Y-73434309D03*
D32*
X99404000Y-76669309D03*
X99404000Y-73369309D03*
D24*
X112405000Y-58553309D03*
X114305000Y-58553309D03*
D16*
X126880000Y-37300000D03*
X124980000Y-37300000D03*
D21*
X126685000Y-39030000D03*
X125035000Y-39030000D03*
D32*
X99277000Y-55716309D03*
X99277000Y-59016309D03*
D17*
X86765000Y-55078309D03*
X86765000Y-56978309D03*
D27*
X91657000Y-75334309D03*
X91657000Y-73434309D03*
D15*
X169000000Y-89013400D03*
D24*
X107965000Y-50628309D03*
X109865000Y-50628309D03*
D19*
X147730000Y-80296250D03*
X147730000Y-81946250D03*
D21*
X109740000Y-48628309D03*
X108090000Y-48628309D03*
X109740000Y-46828309D03*
X108090000Y-46828309D03*
D35*
X93590000Y-46628309D03*
X95240000Y-46628309D03*
X93590000Y-45028309D03*
X95240000Y-45028309D03*
D36*
X74655000Y-55440000D03*
X73385000Y-55440000D03*
X72115000Y-55440000D03*
X70845000Y-55440000D03*
X70845000Y-60840000D03*
X72115000Y-60840000D03*
X73385000Y-60840000D03*
X74655000Y-60840000D03*
D37*
X72750000Y-58140000D03*
D38*
X73700000Y-50630000D03*
X70400000Y-50630000D03*
D21*
X74525000Y-53149000D03*
X72875000Y-53149000D03*
D15*
X63660000Y-89013400D03*
D39*
X63130000Y-69275001D03*
X63130000Y-66324999D03*
D40*
X112642500Y-63140809D03*
X114542500Y-63140809D03*
X113592500Y-61265809D03*
D41*
X68085000Y-57750000D03*
X62685000Y-57750000D03*
D42*
X66135000Y-61110000D03*
X64635000Y-61110000D03*
D43*
X131080000Y-28590000D03*
X131080000Y-29090000D03*
X131080000Y-29590000D03*
X131080000Y-30090000D03*
X131080000Y-30590000D03*
X131080000Y-31090000D03*
X131080000Y-31590000D03*
X131080000Y-32090000D03*
X131080000Y-32590000D03*
X131080000Y-33090000D03*
X131080000Y-33590000D03*
X131080000Y-34090000D03*
X131080000Y-34590000D03*
X131080000Y-35090000D03*
X131080000Y-35590000D03*
X131080000Y-36090000D03*
X131080000Y-36590000D03*
X131080000Y-37090000D03*
X131080000Y-37590000D03*
X131080000Y-38090000D03*
X131080000Y-38590000D03*
X131080000Y-39090000D03*
X131080000Y-39590000D03*
X131080000Y-40090000D03*
X131080000Y-40590000D03*
X131080000Y-41090000D03*
X131080000Y-41590000D03*
X131080000Y-42090000D03*
X131080000Y-42590000D03*
X131080000Y-43090000D03*
X131080000Y-43590000D03*
X131080000Y-44090000D03*
X131080000Y-44590000D03*
X131080000Y-45090000D03*
X131080000Y-45590000D03*
X131080000Y-46090000D03*
X131080000Y-46590000D03*
X131080000Y-47090000D03*
X131080000Y-47590000D03*
X131080000Y-48090000D03*
D44*
X134330000Y-49990000D03*
X134330000Y-26690000D03*
D45*
X150166600Y-78577850D03*
X149146600Y-78577850D03*
D46*
X155700000Y-83530000D03*
X155700000Y-84490000D03*
D47*
X68890000Y-85770000D03*
X74670000Y-85770000D03*
D48*
X68530000Y-84325000D03*
X69330000Y-84325000D03*
D49*
X70530000Y-84325000D03*
X71530000Y-84325000D03*
X72030000Y-84325000D03*
X73030000Y-84325000D03*
D48*
X74230000Y-84325000D03*
X75030000Y-84325000D03*
X75030000Y-84325000D03*
X74230000Y-84325000D03*
D49*
X73530000Y-84325000D03*
X72530000Y-84325000D03*
X71030000Y-84325000D03*
X70030000Y-84325000D03*
D48*
X69330000Y-84325000D03*
X68530000Y-84325000D03*
D50*
X67460000Y-85240000D03*
D51*
X67460000Y-89420000D03*
D50*
X76100000Y-85240000D03*
D51*
X76100000Y-89420000D03*
D52*
X166197500Y-74167500D03*
X166197500Y-76067500D03*
X168072500Y-75117500D03*
D53*
X79670000Y-86418685D03*
X80670000Y-86418685D03*
X81670000Y-86418685D03*
X82670000Y-86418685D03*
D54*
X78370000Y-90293685D03*
X83970000Y-90293685D03*
D55*
X170450000Y-81050000D03*
X170450000Y-83350000D03*
D56*
X169150000Y-80100000D03*
X169150000Y-84300000D03*
D57*
X171000000Y-78750000D03*
D58*
X171010000Y-85650000D03*
D59*
X71091751Y-71528249D03*
X69748249Y-72871751D03*
D35*
X150225000Y-66950000D03*
X151875000Y-66950000D03*
D27*
X79690000Y-83680000D03*
X79690000Y-81780002D03*
D55*
X114290000Y-89940000D03*
X111990000Y-89940000D03*
D56*
X115240000Y-88640000D03*
X111040000Y-88640000D03*
D60*
X116590000Y-90490000D03*
D61*
X109690000Y-90500000D03*
D52*
X153417500Y-69007500D03*
X153417500Y-70907500D03*
X155292500Y-69957500D03*
D62*
X153260000Y-66950000D03*
X154280000Y-66950000D03*
D63*
X65353363Y-73103363D03*
X64186637Y-71936637D03*
D64*
X98578752Y-85371252D03*
X99300000Y-86092500D03*
D21*
X109740000Y-43378309D03*
X108090000Y-43378309D03*
D55*
X102570000Y-89940000D03*
X100270000Y-89940000D03*
D56*
X103520000Y-88640000D03*
X99320000Y-88640000D03*
D60*
X104870000Y-90490000D03*
D61*
X97970000Y-90500000D03*
D14*
X155690000Y-87360000D03*
X155690000Y-85710000D03*
D65*
X87180000Y-82240000D03*
D66*
X88480000Y-82240000D03*
D67*
X155260000Y-60340000D03*
X155260000Y-61360000D03*
D14*
X65170000Y-67815000D03*
X65170000Y-66165000D03*
D16*
X84680000Y-84270000D03*
X82780000Y-84270000D03*
D63*
X70563363Y-81103363D03*
X69396637Y-79936637D03*
D68*
X153604000Y-63510000D03*
X153604000Y-64010000D03*
X153604000Y-64510000D03*
X153604000Y-65010000D03*
X155280000Y-65010000D03*
X155280000Y-64510000D03*
X155280000Y-64010000D03*
X155280000Y-63510000D03*
D69*
X166739376Y-85960624D03*
X167460624Y-85239376D03*
D70*
X155830000Y-72420000D03*
X155830000Y-73690000D03*
X155830000Y-74960000D03*
X155830000Y-76230000D03*
X160780000Y-76230000D03*
X160780000Y-74960000D03*
X160780000Y-73690000D03*
X160780000Y-72420000D03*
D45*
X89079999Y-86120000D03*
X88060001Y-86120000D03*
D55*
X90850000Y-89940000D03*
X88550000Y-89940000D03*
D56*
X91800000Y-88640000D03*
X87600000Y-88640000D03*
D60*
X93150000Y-90490000D03*
D61*
X86250000Y-90500000D03*
D71*
X141638400Y-83723400D03*
X141638400Y-82453400D03*
X141638400Y-81183400D03*
X141638400Y-79913400D03*
X141638400Y-78643400D03*
X141638400Y-77373400D03*
X141638400Y-76103400D03*
X141638400Y-74833400D03*
X141638400Y-73563400D03*
X141638400Y-72293400D03*
X141638400Y-71023400D03*
X141638400Y-69753400D03*
X141638400Y-68483400D03*
X141638400Y-67213400D03*
D72*
X139873400Y-65963400D03*
X138603400Y-65963400D03*
X137333400Y-65963400D03*
X136063400Y-65963400D03*
X134793400Y-65963400D03*
X133523400Y-65963400D03*
X132253400Y-65963400D03*
X130983400Y-65963400D03*
X129713400Y-65963400D03*
X128443400Y-65963400D03*
X127173400Y-65963400D03*
X125903400Y-65963400D03*
D71*
X124138400Y-67213400D03*
X124138400Y-68483400D03*
X124138400Y-69753400D03*
X124138400Y-71023400D03*
X124138400Y-72293400D03*
X124138400Y-73563400D03*
X124138400Y-74833400D03*
X124138400Y-76103400D03*
X124138400Y-77373400D03*
X124138400Y-78643400D03*
X124138400Y-79913400D03*
X124138400Y-81183400D03*
X124138400Y-82453400D03*
X124138400Y-83723400D03*
D73*
X135788400Y-77403400D03*
X135788400Y-76003400D03*
X135788400Y-74603400D03*
X134388400Y-77403400D03*
X134388400Y-76003400D03*
X134388400Y-74603400D03*
X132988400Y-77403400D03*
X132988400Y-76003400D03*
X132988400Y-74603400D03*
D17*
X157320000Y-67940001D03*
X157320000Y-69839999D03*
D74*
X151049664Y-74766339D03*
X149706161Y-73422836D03*
X149052087Y-75420413D03*
D15*
X63660000Y-26000000D03*
D75*
X73586637Y-81103363D03*
X74753363Y-79936637D03*
D76*
X154545000Y-88957500D03*
X150345000Y-88957500D03*
D77*
X152445000Y-88357500D03*
D78*
X155125000Y-90797500D03*
D79*
X155125000Y-90307500D03*
D78*
X149765000Y-90797500D03*
D79*
X149765000Y-90307500D03*
D80*
X72440000Y-28070000D03*
D81*
X74980000Y-28070000D03*
X77520000Y-28070000D03*
X80060000Y-28070000D03*
X82600000Y-28070000D03*
X85140000Y-28070000D03*
D82*
X64667500Y-76240000D03*
X70592500Y-76240000D03*
D83*
X67320000Y-69270000D03*
X67820000Y-69270000D03*
X68320000Y-69270000D03*
X67320000Y-69770000D03*
X67820000Y-69770000D03*
X68320000Y-69770000D03*
X67320000Y-70270000D03*
X67820000Y-70270000D03*
X68320000Y-70270000D03*
D67*
X163800000Y-74540000D03*
X163800000Y-75560000D03*
D14*
X151580000Y-70775000D03*
X151580000Y-69125000D03*
D84*
X83812500Y-79842500D03*
X82862500Y-79842500D03*
X81912500Y-79842500D03*
X81912500Y-82117500D03*
X83812500Y-82117500D03*
D85*
X109100589Y-86410589D03*
X109779411Y-87089411D03*
M02*
