G04 #@! TF.GenerationSoftware,KiCad,Pcbnew,9.0.6*
G04 #@! TF.CreationDate,2026-02-22T19:02:19+01:00*
G04 #@! TF.ProjectId,epdiy-v7-light,65706469-792d-4763-972d-6c696768742e,1.1*
G04 #@! TF.SameCoordinates,Original*
G04 #@! TF.FileFunction,Copper,L2,Inr*
G04 #@! TF.FilePolarity,Positive*
%FSLAX46Y46*%
G04 Gerber Fmt 4.6, Leading zero omitted, Abs format (unit mm)*
G04 Created by KiCad (PCBNEW 9.0.6) date 2026-02-22 19:02:19*
%MOMM*%
%LPD*%
G01*
G04 APERTURE LIST*
G04 #@! TA.AperFunction,ComponentPad*
%ADD10C,0.850000*%
G04 #@! TD*
G04 #@! TA.AperFunction,ComponentPad*
%ADD11C,0.508000*%
G04 #@! TD*
G04 #@! TA.AperFunction,ComponentPad*
%ADD12O,1.000000X2.100000*%
G04 #@! TD*
G04 #@! TA.AperFunction,ComponentPad*
%ADD13O,1.000000X1.600000*%
G04 #@! TD*
G04 #@! TA.AperFunction,ComponentPad*
%ADD14C,0.800000*%
G04 #@! TD*
G04 #@! TA.AperFunction,ComponentPad*
%ADD15O,0.800000X1.300000*%
G04 #@! TD*
G04 #@! TA.AperFunction,ComponentPad*
%ADD16R,1.700000X1.700000*%
G04 #@! TD*
G04 #@! TA.AperFunction,ComponentPad*
%ADD17C,1.700000*%
G04 #@! TD*
G04 #@! TA.AperFunction,ViaPad*
%ADD18C,0.800000*%
G04 #@! TD*
G04 #@! TA.AperFunction,Conductor*
%ADD19C,0.750000*%
G04 #@! TD*
G04 APERTURE END LIST*
D10*
X170280000Y-67790000D03*
X170280000Y-70790000D03*
D11*
X101613800Y-67831109D03*
X101613800Y-67043709D03*
X101613800Y-66256309D03*
X101613800Y-65468909D03*
X101613800Y-64681509D03*
X100826400Y-67831109D03*
X100826400Y-67043709D03*
X100826400Y-66256309D03*
X100826400Y-65468909D03*
X100826400Y-64681509D03*
X100039000Y-67831109D03*
X100039000Y-67043709D03*
X100039000Y-66256309D03*
X100039000Y-65468909D03*
X100039000Y-64681509D03*
X99251600Y-67831109D03*
X99251600Y-67043709D03*
X99251600Y-66256309D03*
X99251600Y-65468909D03*
X99251600Y-64681509D03*
X98464200Y-67831109D03*
X98464200Y-67043709D03*
X98464200Y-66256309D03*
X98464200Y-65468909D03*
X98464200Y-64681509D03*
D12*
X67460000Y-85240000D03*
D13*
X67460000Y-89420000D03*
D12*
X76100000Y-85240000D03*
D13*
X76100000Y-89420000D03*
D14*
X170450000Y-81050000D03*
X170450000Y-83350000D03*
X114290000Y-89940000D03*
X111990000Y-89940000D03*
X102570000Y-89940000D03*
X100270000Y-89940000D03*
X90850000Y-89940000D03*
X88550000Y-89940000D03*
D15*
X155125000Y-90307500D03*
X149765000Y-90307500D03*
D16*
X72440000Y-28070000D03*
D17*
X74980000Y-28070000D03*
X77520000Y-28070000D03*
X80060000Y-28070000D03*
X82600000Y-28070000D03*
X85140000Y-28070000D03*
D18*
X125030000Y-39850000D03*
X149930000Y-82921250D03*
X98330000Y-86040000D03*
X103974500Y-41628309D03*
X103673999Y-76528309D03*
X111015000Y-68778309D03*
X105015000Y-41728309D03*
X132490000Y-31650000D03*
X96215000Y-53428309D03*
X122857188Y-29458134D03*
X111015000Y-64278309D03*
X106008000Y-66050309D03*
X166230000Y-86480000D03*
X102751599Y-55882178D03*
X78430000Y-81760000D03*
X100515000Y-80278309D03*
X103087000Y-62192309D03*
X63140000Y-65420000D03*
X63870000Y-61170000D03*
X129869998Y-34660000D03*
X109515000Y-66278309D03*
X93815000Y-52028309D03*
X106389000Y-64430309D03*
X103515000Y-55890000D03*
X129980000Y-55403000D03*
X127250000Y-55303000D03*
X129910000Y-39080000D03*
X155690000Y-82880000D03*
X93615000Y-42328309D03*
X152790000Y-63510000D03*
X111015000Y-59778309D03*
X89415000Y-52028309D03*
X71000000Y-62999000D03*
X136563400Y-74260000D03*
X137970000Y-25950000D03*
X80415000Y-64528309D03*
X102265000Y-78528309D03*
X89411686Y-65632408D03*
X89740000Y-86120000D03*
X67340000Y-68420000D03*
X123865000Y-30520000D03*
X83760000Y-85540000D03*
X92815000Y-51428309D03*
X151801491Y-80496814D03*
X90265000Y-75028309D03*
X91815000Y-52028309D03*
X64500000Y-73610000D03*
X157330000Y-67090000D03*
X124400000Y-32930000D03*
X112015000Y-69778309D03*
X103466743Y-69559566D03*
X90453000Y-66840309D03*
X70480000Y-73590000D03*
X115555000Y-66778309D03*
X167550000Y-76390000D03*
X143763400Y-83613400D03*
X108660000Y-85960000D03*
X115515000Y-65778309D03*
X136863400Y-76870000D03*
X97815000Y-41628309D03*
X88815000Y-55628309D03*
X108015000Y-77068309D03*
X122163400Y-83613400D03*
X93511777Y-67122712D03*
X89415000Y-54428309D03*
X64060000Y-62780000D03*
X101765000Y-76528309D03*
X150340000Y-87970000D03*
X111015000Y-66528309D03*
X87265000Y-54028309D03*
X68860000Y-79410000D03*
X99382281Y-71612972D03*
X84265000Y-69528309D03*
X124410000Y-43567000D03*
X80515000Y-70778309D03*
X115990000Y-87650000D03*
X95615000Y-54628309D03*
X154260000Y-85190000D03*
X102765000Y-77528309D03*
X99015000Y-57778309D03*
X102619000Y-56924309D03*
X107515000Y-57400000D03*
X90615000Y-51428309D03*
X131863400Y-76870000D03*
X144080000Y-26440000D03*
X110567557Y-50809381D03*
X97030534Y-56793843D03*
X154900000Y-66950000D03*
X115815000Y-60128309D03*
X98869000Y-56924309D03*
X88815000Y-53228309D03*
X71950000Y-53899000D03*
X97765000Y-80278309D03*
X86015000Y-54028309D03*
X75260000Y-79430000D03*
X109515000Y-68528309D03*
X111015000Y-62028309D03*
X132263400Y-74260000D03*
X75450000Y-55399000D03*
X109265000Y-64028309D03*
X84265000Y-67278309D03*
X106315000Y-56028309D03*
X111015000Y-70528309D03*
X162170000Y-76250000D03*
X95467000Y-68669309D03*
X88515000Y-69692307D03*
X148030000Y-63510000D03*
X88015000Y-65868311D03*
X95291746Y-65365338D03*
X126920000Y-52890000D03*
X116220000Y-57150000D03*
X127285000Y-46065000D03*
X87003580Y-74710510D03*
X126735000Y-43512532D03*
X100138990Y-61049309D03*
X127771995Y-45018012D03*
X98115000Y-47312809D03*
X133931303Y-28665000D03*
X132728836Y-32815000D03*
X99215000Y-47328309D03*
X109200000Y-45020000D03*
X127510000Y-41900000D03*
X115420000Y-70790000D03*
X129080000Y-45230000D03*
X156430000Y-71050000D03*
X146840000Y-76250000D03*
X160050000Y-67410000D03*
X119240000Y-76810000D03*
X106630000Y-83720000D03*
X139560000Y-67230000D03*
X103265000Y-58028309D03*
X106008000Y-67526309D03*
X95341257Y-63588052D03*
X103555000Y-59479309D03*
X89960000Y-82780000D03*
X158420000Y-72570000D03*
X80660000Y-85050000D03*
X104613307Y-51030002D03*
X77140000Y-75360000D03*
X100842661Y-60255968D03*
X129890000Y-76360000D03*
X77970000Y-80830000D03*
X158370000Y-71440000D03*
X90740000Y-83420000D03*
X76689602Y-76250662D03*
X101810248Y-60221056D03*
X128590000Y-76040000D03*
X103863307Y-52028309D03*
X102156382Y-50842411D03*
X97942794Y-58901546D03*
X105686092Y-52921839D03*
X106115000Y-69428309D03*
X106982629Y-66370553D03*
X104794517Y-53476455D03*
X103915000Y-54050000D03*
X106212092Y-62013979D03*
X99891356Y-60122313D03*
X100294929Y-51248380D03*
X106402944Y-62954309D03*
X100515000Y-78278309D03*
X95765000Y-59028309D03*
X92219031Y-77232341D03*
X107107259Y-59974756D03*
X94515000Y-79278309D03*
X86740000Y-80660000D03*
X93265000Y-79028309D03*
X95515000Y-59778309D03*
X93265000Y-77028309D03*
X97265000Y-79278309D03*
X93265000Y-78028309D03*
X115870000Y-61620000D03*
X98015000Y-78528309D03*
X87015000Y-58028309D03*
X153880000Y-62450000D03*
X96765000Y-59028309D03*
X88015000Y-57528309D03*
X92015000Y-78028309D03*
X98015000Y-77278309D03*
X95765000Y-79278309D03*
X129266508Y-70743492D03*
X85640209Y-76854264D03*
X131010000Y-70640000D03*
X86641280Y-77240000D03*
X103280000Y-40510000D03*
X126934314Y-75395686D03*
X129153651Y-42584971D03*
X128366550Y-43279936D03*
X127050000Y-76560000D03*
X93616000Y-66129309D03*
X87644276Y-67075928D03*
X87765000Y-68028309D03*
X94329705Y-67625303D03*
X94560000Y-40840000D03*
X151830000Y-74960000D03*
X126990000Y-81120000D03*
X162740000Y-74800000D03*
X126960000Y-79840000D03*
X121610000Y-77820000D03*
X148920000Y-66970000D03*
X113915000Y-64228309D03*
X102960000Y-71361309D03*
X111765000Y-73528309D03*
X92615000Y-45028309D03*
X67960000Y-65400000D03*
X92615000Y-46628309D03*
X110715000Y-48628309D03*
X110830946Y-47150000D03*
X152507597Y-83643653D03*
X115515000Y-64228309D03*
X107115000Y-49828309D03*
X120610000Y-63840000D03*
X85600000Y-79690000D03*
X92900000Y-37750000D03*
X110015000Y-42428309D03*
X152530000Y-81121250D03*
X153790000Y-60060000D03*
X150660000Y-58980000D03*
X121250000Y-40840000D03*
X66320739Y-69691400D03*
X64710000Y-69950000D03*
D19*
X152030000Y-60600000D02*
X153880000Y-62450000D01*
X112350000Y-61620000D02*
X111710000Y-60980000D01*
X139170000Y-61620000D02*
X140190000Y-60600000D01*
X111710000Y-60980000D02*
X108112503Y-60980000D01*
X140190000Y-60600000D02*
X152030000Y-60600000D01*
X115870000Y-61620000D02*
X112350000Y-61620000D01*
X115870000Y-61620000D02*
X139170000Y-61620000D01*
X108112503Y-60980000D02*
X107107259Y-59974756D01*
G04 #@! TA.AperFunction,Conductor*
G36*
X168630128Y-24441766D02*
G01*
X168698214Y-24461887D01*
X168744613Y-24515624D01*
X168754594Y-24585915D01*
X168724988Y-24650444D01*
X168668845Y-24687599D01*
X168592154Y-24712517D01*
X168481588Y-24748443D01*
X168481586Y-24748443D01*
X168481586Y-24748444D01*
X168292180Y-24844951D01*
X168120205Y-24969898D01*
X168120202Y-24969900D01*
X167969900Y-25120202D01*
X167969898Y-25120205D01*
X167844951Y-25292180D01*
X167844949Y-25292184D01*
X167748443Y-25481588D01*
X167682754Y-25683757D01*
X167649500Y-25893713D01*
X167649500Y-26106287D01*
X167682754Y-26316243D01*
X167748443Y-26518412D01*
X167844949Y-26707816D01*
X167969896Y-26879792D01*
X167969898Y-26879794D01*
X167969900Y-26879797D01*
X168120202Y-27030099D01*
X168120205Y-27030101D01*
X168120208Y-27030104D01*
X168292184Y-27155051D01*
X168481588Y-27251557D01*
X168683757Y-27317246D01*
X168893713Y-27350500D01*
X168893716Y-27350500D01*
X169106284Y-27350500D01*
X169106287Y-27350500D01*
X169316243Y-27317246D01*
X169518412Y-27251557D01*
X169707816Y-27155051D01*
X169879792Y-27030104D01*
X170030104Y-26879792D01*
X170155051Y-26707816D01*
X170251557Y-26518412D01*
X170317246Y-26316243D01*
X170350500Y-26106287D01*
X170350500Y-25893713D01*
X170317246Y-25683757D01*
X170251557Y-25481588D01*
X170155051Y-25292184D01*
X170030104Y-25120208D01*
X170030101Y-25120205D01*
X170030099Y-25120202D01*
X169879797Y-24969900D01*
X169879794Y-24969898D01*
X169879792Y-24969896D01*
X169707816Y-24844949D01*
X169518412Y-24748443D01*
X169335148Y-24688896D01*
X169276544Y-24648823D01*
X169248907Y-24583426D01*
X169261014Y-24513470D01*
X169309020Y-24461164D01*
X169374305Y-24443064D01*
X171795747Y-24447288D01*
X171826589Y-24456402D01*
X171857876Y-24463796D01*
X171860377Y-24466387D01*
X171863832Y-24467409D01*
X171884846Y-24491746D01*
X171907174Y-24514886D01*
X171908796Y-24519484D01*
X171910231Y-24521146D01*
X171919105Y-24548707D01*
X171955997Y-24734177D01*
X171958148Y-24750517D01*
X171974230Y-24995880D01*
X171974500Y-25004121D01*
X171974500Y-28448310D01*
X171954498Y-28516431D01*
X171937595Y-28537405D01*
X171857405Y-28617595D01*
X171795093Y-28651621D01*
X171768310Y-28654500D01*
X171579436Y-28654500D01*
X171564500Y-28669436D01*
X171564500Y-48710563D01*
X171579436Y-48725499D01*
X171579438Y-48725500D01*
X171600562Y-48725500D01*
X171768310Y-48725500D01*
X171798225Y-48734283D01*
X171828695Y-48740912D01*
X171833790Y-48744726D01*
X171836431Y-48745502D01*
X171857405Y-48762405D01*
X171937595Y-48842595D01*
X171971621Y-48904907D01*
X171974500Y-48931690D01*
X171974500Y-89509278D01*
X171974230Y-89517519D01*
X171958148Y-89762882D01*
X171955997Y-89779222D01*
X171908832Y-90016337D01*
X171904566Y-90032258D01*
X171826854Y-90261189D01*
X171820547Y-90276415D01*
X171713620Y-90493242D01*
X171705379Y-90507516D01*
X171571066Y-90708529D01*
X171561033Y-90721604D01*
X171401627Y-90903372D01*
X171389972Y-90915027D01*
X171208204Y-91074433D01*
X171195129Y-91084466D01*
X170994116Y-91218779D01*
X170979842Y-91227020D01*
X170763015Y-91333947D01*
X170747789Y-91340254D01*
X170518858Y-91417966D01*
X170502937Y-91422232D01*
X170265821Y-91469397D01*
X170249480Y-91471548D01*
X170004163Y-91487626D01*
X169995838Y-91487896D01*
X148857566Y-91473704D01*
X148857556Y-91473704D01*
X148837903Y-91473689D01*
X148837899Y-91473686D01*
X148833639Y-91473686D01*
X148833627Y-91473682D01*
X148825494Y-91473416D01*
X148580131Y-91457336D01*
X148563790Y-91455185D01*
X148326671Y-91408019D01*
X148310751Y-91403753D01*
X148081824Y-91326044D01*
X148066597Y-91319737D01*
X147849768Y-91212809D01*
X147835495Y-91204568D01*
X147634481Y-91070256D01*
X147621405Y-91060223D01*
X147439637Y-90900817D01*
X147427982Y-90889162D01*
X147268576Y-90707394D01*
X147258543Y-90694318D01*
X147124231Y-90493304D01*
X147115990Y-90479031D01*
X147009062Y-90262202D01*
X147002755Y-90246975D01*
X146925046Y-90018048D01*
X146920779Y-90002122D01*
X146919315Y-89994760D01*
X146916069Y-89978443D01*
X149164500Y-89978443D01*
X149164500Y-90636557D01*
X149181818Y-90701189D01*
X149205424Y-90789288D01*
X149284477Y-90926212D01*
X149284485Y-90926222D01*
X149396277Y-91038014D01*
X149396282Y-91038018D01*
X149396284Y-91038020D01*
X149396285Y-91038021D01*
X149396287Y-91038022D01*
X149533211Y-91117075D01*
X149533213Y-91117075D01*
X149533216Y-91117077D01*
X149685943Y-91158000D01*
X149685945Y-91158000D01*
X149844055Y-91158000D01*
X149844057Y-91158000D01*
X149996784Y-91117077D01*
X149996787Y-91117075D01*
X149996788Y-91117075D01*
X150101749Y-91056476D01*
X150133716Y-91038020D01*
X150245520Y-90926216D01*
X150324577Y-90789284D01*
X150365500Y-90636557D01*
X150365500Y-89978443D01*
X154524500Y-89978443D01*
X154524500Y-90636557D01*
X154541818Y-90701189D01*
X154565424Y-90789288D01*
X154644477Y-90926212D01*
X154644485Y-90926222D01*
X154756277Y-91038014D01*
X154756282Y-91038018D01*
X154756284Y-91038020D01*
X154756285Y-91038021D01*
X154756287Y-91038022D01*
X154893211Y-91117075D01*
X154893213Y-91117075D01*
X154893216Y-91117077D01*
X155045943Y-91158000D01*
X155045945Y-91158000D01*
X155204055Y-91158000D01*
X155204057Y-91158000D01*
X155356784Y-91117077D01*
X155356787Y-91117075D01*
X155356788Y-91117075D01*
X155461749Y-91056476D01*
X155493716Y-91038020D01*
X155605520Y-90926216D01*
X155684577Y-90789284D01*
X155725500Y-90636557D01*
X155725500Y-89978443D01*
X155684577Y-89825716D01*
X155684575Y-89825713D01*
X155684575Y-89825711D01*
X155605522Y-89688787D01*
X155605514Y-89688777D01*
X155493722Y-89576985D01*
X155493712Y-89576977D01*
X155356788Y-89497924D01*
X155327215Y-89490000D01*
X155204057Y-89457000D01*
X155045943Y-89457000D01*
X154953705Y-89481715D01*
X154893211Y-89497924D01*
X154756287Y-89576977D01*
X154756277Y-89576985D01*
X154644485Y-89688777D01*
X154644477Y-89688787D01*
X154565424Y-89825711D01*
X154542999Y-89909403D01*
X154524500Y-89978443D01*
X150365500Y-89978443D01*
X150324577Y-89825716D01*
X150324575Y-89825713D01*
X150324575Y-89825711D01*
X150245522Y-89688787D01*
X150245514Y-89688777D01*
X150133722Y-89576985D01*
X150133712Y-89576977D01*
X149996788Y-89497924D01*
X149967215Y-89490000D01*
X149844057Y-89457000D01*
X149685943Y-89457000D01*
X149593705Y-89481715D01*
X149533211Y-89497924D01*
X149396287Y-89576977D01*
X149396277Y-89576985D01*
X149284485Y-89688777D01*
X149284477Y-89688787D01*
X149205424Y-89825711D01*
X149182999Y-89909403D01*
X149164500Y-89978443D01*
X146916069Y-89978443D01*
X146899509Y-89895190D01*
X146873612Y-89764995D01*
X146871464Y-89748678D01*
X146855412Y-89503732D01*
X146855145Y-89494634D01*
X146856373Y-89314499D01*
X146859150Y-88907113D01*
X167649500Y-88907113D01*
X167649500Y-89119687D01*
X167682754Y-89329643D01*
X167748443Y-89531812D01*
X167844949Y-89721216D01*
X167969896Y-89893192D01*
X167969898Y-89893194D01*
X167969900Y-89893197D01*
X168120202Y-90043499D01*
X168120205Y-90043501D01*
X168120208Y-90043504D01*
X168292184Y-90168451D01*
X168481588Y-90264957D01*
X168683757Y-90330646D01*
X168893713Y-90363900D01*
X168893716Y-90363900D01*
X169106284Y-90363900D01*
X169106287Y-90363900D01*
X169316243Y-90330646D01*
X169518412Y-90264957D01*
X169707816Y-90168451D01*
X169879792Y-90043504D01*
X170030104Y-89893192D01*
X170155051Y-89721216D01*
X170251557Y-89531812D01*
X170317246Y-89329643D01*
X170350500Y-89119687D01*
X170350500Y-88907113D01*
X170317246Y-88697157D01*
X170251557Y-88494988D01*
X170155051Y-88305584D01*
X170030104Y-88133608D01*
X170030101Y-88133605D01*
X170030099Y-88133602D01*
X169879797Y-87983300D01*
X169879794Y-87983298D01*
X169879792Y-87983296D01*
X169707816Y-87858349D01*
X169518412Y-87761843D01*
X169316243Y-87696154D01*
X169106287Y-87662900D01*
X168893713Y-87662900D01*
X168683757Y-87696154D01*
X168683754Y-87696154D01*
X168683753Y-87696155D01*
X168481588Y-87761843D01*
X168481586Y-87761844D01*
X168292180Y-87858351D01*
X168120205Y-87983298D01*
X168120202Y-87983300D01*
X167969900Y-88133602D01*
X167969898Y-88133605D01*
X167844951Y-88305580D01*
X167844949Y-88305584D01*
X167748443Y-88494988D01*
X167682754Y-88697157D01*
X167649500Y-88907113D01*
X146859150Y-88907113D01*
X146871782Y-87054251D01*
X146874700Y-87044559D01*
X146874700Y-86867248D01*
X146874700Y-86867241D01*
X146840043Y-86603996D01*
X146771322Y-86347526D01*
X146669712Y-86102220D01*
X146669706Y-86102210D01*
X146669705Y-86102207D01*
X146536955Y-85872278D01*
X146536950Y-85872271D01*
X146375323Y-85661634D01*
X146375312Y-85661622D01*
X146364190Y-85650500D01*
X146187567Y-85473878D01*
X146187562Y-85473874D01*
X146187560Y-85473872D01*
X145976917Y-85312241D01*
X145746984Y-85179490D01*
X145746976Y-85179486D01*
X145746972Y-85179484D01*
X145501666Y-85077875D01*
X145245195Y-85009155D01*
X145245193Y-85009154D01*
X145245187Y-85009153D01*
X144981954Y-84974499D01*
X144981950Y-84974499D01*
X144849191Y-84974500D01*
X121330639Y-84974500D01*
X121067404Y-85009155D01*
X121067397Y-85009157D01*
X120810927Y-85077878D01*
X120565625Y-85179485D01*
X120565620Y-85179487D01*
X120565610Y-85179492D01*
X120335681Y-85312242D01*
X120335674Y-85312247D01*
X120125035Y-85473876D01*
X120125014Y-85473895D01*
X119937295Y-85661614D01*
X119937276Y-85661635D01*
X119775647Y-85872274D01*
X119775642Y-85872281D01*
X119642892Y-86102210D01*
X119642891Y-86102213D01*
X119642886Y-86102222D01*
X119583998Y-86244392D01*
X119541278Y-86347527D01*
X119472555Y-86604004D01*
X119437900Y-86867239D01*
X119437900Y-89451295D01*
X119437295Y-89463623D01*
X119435675Y-89480097D01*
X119434500Y-89481715D01*
X119434500Y-89490000D01*
X119434097Y-89496143D01*
X119434096Y-89496157D01*
X119418148Y-89739482D01*
X119415997Y-89755822D01*
X119368832Y-89992937D01*
X119364566Y-90008858D01*
X119286854Y-90237789D01*
X119280547Y-90253015D01*
X119173620Y-90469842D01*
X119165379Y-90484116D01*
X119031066Y-90685129D01*
X119021033Y-90698204D01*
X118861627Y-90879972D01*
X118849972Y-90891627D01*
X118668204Y-91051033D01*
X118655129Y-91061066D01*
X118454116Y-91195379D01*
X118439842Y-91203620D01*
X118223015Y-91310547D01*
X118207789Y-91316854D01*
X117978858Y-91394566D01*
X117962937Y-91398832D01*
X117725822Y-91445997D01*
X117709482Y-91448148D01*
X117470930Y-91463783D01*
X117470924Y-91463783D01*
X117460000Y-91464500D01*
X117451715Y-91464500D01*
X117446897Y-91467999D01*
X117425213Y-91471805D01*
X117419489Y-91471161D01*
X117403471Y-91473701D01*
X63167541Y-91487899D01*
X63159267Y-91487629D01*
X62913917Y-91471548D01*
X62897577Y-91469397D01*
X62660462Y-91422232D01*
X62644541Y-91417966D01*
X62415610Y-91340254D01*
X62400384Y-91333947D01*
X62183553Y-91227018D01*
X62169287Y-91218781D01*
X61968267Y-91084463D01*
X61955195Y-91074433D01*
X61773427Y-90915027D01*
X61761772Y-90903372D01*
X61602366Y-90721604D01*
X61592337Y-90708535D01*
X61458015Y-90507508D01*
X61449784Y-90493251D01*
X61342848Y-90276405D01*
X61336549Y-90261199D01*
X61258830Y-90032250D01*
X61254569Y-90016345D01*
X61207400Y-89779210D01*
X61205252Y-89762892D01*
X61189170Y-89517518D01*
X61188900Y-89509278D01*
X61188900Y-88907113D01*
X62309500Y-88907113D01*
X62309500Y-89119687D01*
X62342754Y-89329643D01*
X62408443Y-89531812D01*
X62504949Y-89721216D01*
X62629896Y-89893192D01*
X62629898Y-89893194D01*
X62629900Y-89893197D01*
X62780202Y-90043499D01*
X62780205Y-90043501D01*
X62780208Y-90043504D01*
X62952184Y-90168451D01*
X63141588Y-90264957D01*
X63343757Y-90330646D01*
X63553713Y-90363900D01*
X63553716Y-90363900D01*
X63766284Y-90363900D01*
X63766287Y-90363900D01*
X63976243Y-90330646D01*
X64178412Y-90264957D01*
X64367816Y-90168451D01*
X64539792Y-90043504D01*
X64690104Y-89893192D01*
X64702645Y-89875931D01*
X87899500Y-89875931D01*
X87899500Y-90004069D01*
X87924499Y-90129744D01*
X87973535Y-90248127D01*
X88044724Y-90354669D01*
X88135331Y-90445276D01*
X88241873Y-90516465D01*
X88360256Y-90565501D01*
X88485931Y-90590500D01*
X88485936Y-90590500D01*
X88614064Y-90590500D01*
X88614069Y-90590500D01*
X88739744Y-90565501D01*
X88858127Y-90516465D01*
X88964669Y-90445276D01*
X89055276Y-90354669D01*
X89126465Y-90248127D01*
X89175501Y-90129744D01*
X89200500Y-90004069D01*
X89200500Y-89875931D01*
X90199500Y-89875931D01*
X90199500Y-90004069D01*
X90224499Y-90129744D01*
X90273535Y-90248127D01*
X90344724Y-90354669D01*
X90435331Y-90445276D01*
X90541873Y-90516465D01*
X90660256Y-90565501D01*
X90785931Y-90590500D01*
X90785936Y-90590500D01*
X90914064Y-90590500D01*
X90914069Y-90590500D01*
X91039744Y-90565501D01*
X91158127Y-90516465D01*
X91264669Y-90445276D01*
X91355276Y-90354669D01*
X91426465Y-90248127D01*
X91475501Y-90129744D01*
X91500500Y-90004069D01*
X91500500Y-89875931D01*
X99619500Y-89875931D01*
X99619500Y-90004069D01*
X99644499Y-90129744D01*
X99693535Y-90248127D01*
X99764724Y-90354669D01*
X99855331Y-90445276D01*
X99961873Y-90516465D01*
X100080256Y-90565501D01*
X100205931Y-90590500D01*
X100205936Y-90590500D01*
X100334064Y-90590500D01*
X100334069Y-90590500D01*
X100459744Y-90565501D01*
X100578127Y-90516465D01*
X100684669Y-90445276D01*
X100775276Y-90354669D01*
X100846465Y-90248127D01*
X100895501Y-90129744D01*
X100920500Y-90004069D01*
X100920500Y-89875931D01*
X101919500Y-89875931D01*
X101919500Y-90004069D01*
X101944499Y-90129744D01*
X101993535Y-90248127D01*
X102064724Y-90354669D01*
X102155331Y-90445276D01*
X102261873Y-90516465D01*
X102380256Y-90565501D01*
X102505931Y-90590500D01*
X102505936Y-90590500D01*
X102634064Y-90590500D01*
X102634069Y-90590500D01*
X102759744Y-90565501D01*
X102878127Y-90516465D01*
X102984669Y-90445276D01*
X103075276Y-90354669D01*
X103146465Y-90248127D01*
X103195501Y-90129744D01*
X103220500Y-90004069D01*
X103220500Y-89875931D01*
X111339500Y-89875931D01*
X111339500Y-90004069D01*
X111364499Y-90129744D01*
X111413535Y-90248127D01*
X111484724Y-90354669D01*
X111575331Y-90445276D01*
X111681873Y-90516465D01*
X111800256Y-90565501D01*
X111925931Y-90590500D01*
X111925936Y-90590500D01*
X112054064Y-90590500D01*
X112054069Y-90590500D01*
X112179744Y-90565501D01*
X112298127Y-90516465D01*
X112404669Y-90445276D01*
X112495276Y-90354669D01*
X112566465Y-90248127D01*
X112615501Y-90129744D01*
X112640500Y-90004069D01*
X112640500Y-89875931D01*
X113639500Y-89875931D01*
X113639500Y-90004069D01*
X113664499Y-90129744D01*
X113713535Y-90248127D01*
X113784724Y-90354669D01*
X113875331Y-90445276D01*
X113981873Y-90516465D01*
X114100256Y-90565501D01*
X114225931Y-90590500D01*
X114225936Y-90590500D01*
X114354064Y-90590500D01*
X114354069Y-90590500D01*
X114479744Y-90565501D01*
X114598127Y-90516465D01*
X114704669Y-90445276D01*
X114795276Y-90354669D01*
X114866465Y-90248127D01*
X114915501Y-90129744D01*
X114940500Y-90004069D01*
X114940500Y-89875931D01*
X114915501Y-89750256D01*
X114866465Y-89631873D01*
X114795276Y-89525331D01*
X114704669Y-89434724D01*
X114598127Y-89363535D01*
X114479745Y-89314499D01*
X114437852Y-89306166D01*
X114354069Y-89289500D01*
X114225931Y-89289500D01*
X114184039Y-89297833D01*
X114100254Y-89314499D01*
X114100253Y-89314500D01*
X113981871Y-89363536D01*
X113875335Y-89434721D01*
X113875328Y-89434726D01*
X113784726Y-89525328D01*
X113784721Y-89525335D01*
X113713536Y-89631871D01*
X113664500Y-89750253D01*
X113664499Y-89750254D01*
X113661987Y-89762882D01*
X113639500Y-89875931D01*
X112640500Y-89875931D01*
X112615501Y-89750256D01*
X112566465Y-89631873D01*
X112495276Y-89525331D01*
X112404669Y-89434724D01*
X112298127Y-89363535D01*
X112179745Y-89314499D01*
X112137852Y-89306166D01*
X112054069Y-89289500D01*
X111925931Y-89289500D01*
X111884039Y-89297833D01*
X111800254Y-89314499D01*
X111800253Y-89314500D01*
X111681871Y-89363536D01*
X111575335Y-89434721D01*
X111575328Y-89434726D01*
X111484726Y-89525328D01*
X111484721Y-89525335D01*
X111413536Y-89631871D01*
X111364500Y-89750253D01*
X111364499Y-89750254D01*
X111361987Y-89762882D01*
X111339500Y-89875931D01*
X103220500Y-89875931D01*
X103195501Y-89750256D01*
X103146465Y-89631873D01*
X103075276Y-89525331D01*
X102984669Y-89434724D01*
X102878127Y-89363535D01*
X102759745Y-89314499D01*
X102717852Y-89306166D01*
X102634069Y-89289500D01*
X102505931Y-89289500D01*
X102464039Y-89297833D01*
X102380254Y-89314499D01*
X102380253Y-89314500D01*
X102261871Y-89363536D01*
X102155335Y-89434721D01*
X102155328Y-89434726D01*
X102064726Y-89525328D01*
X102064721Y-89525335D01*
X101993536Y-89631871D01*
X101944500Y-89750253D01*
X101944499Y-89750254D01*
X101941987Y-89762882D01*
X101919500Y-89875931D01*
X100920500Y-89875931D01*
X100895501Y-89750256D01*
X100846465Y-89631873D01*
X100775276Y-89525331D01*
X100684669Y-89434724D01*
X100578127Y-89363535D01*
X100459745Y-89314499D01*
X100417852Y-89306166D01*
X100334069Y-89289500D01*
X100205931Y-89289500D01*
X100164039Y-89297833D01*
X100080254Y-89314499D01*
X100080253Y-89314500D01*
X99961871Y-89363536D01*
X99855335Y-89434721D01*
X99855328Y-89434726D01*
X99764726Y-89525328D01*
X99764721Y-89525335D01*
X99693536Y-89631871D01*
X99644500Y-89750253D01*
X99644499Y-89750254D01*
X99641987Y-89762882D01*
X99619500Y-89875931D01*
X91500500Y-89875931D01*
X91475501Y-89750256D01*
X91426465Y-89631873D01*
X91355276Y-89525331D01*
X91264669Y-89434724D01*
X91158127Y-89363535D01*
X91039745Y-89314499D01*
X90997852Y-89306166D01*
X90914069Y-89289500D01*
X90785931Y-89289500D01*
X90744039Y-89297833D01*
X90660254Y-89314499D01*
X90660253Y-89314500D01*
X90541871Y-89363536D01*
X90435335Y-89434721D01*
X90435328Y-89434726D01*
X90344726Y-89525328D01*
X90344721Y-89525335D01*
X90273536Y-89631871D01*
X90224500Y-89750253D01*
X90224499Y-89750254D01*
X90221987Y-89762882D01*
X90199500Y-89875931D01*
X89200500Y-89875931D01*
X89175501Y-89750256D01*
X89126465Y-89631873D01*
X89055276Y-89525331D01*
X88964669Y-89434724D01*
X88858127Y-89363535D01*
X88739745Y-89314499D01*
X88697852Y-89306166D01*
X88614069Y-89289500D01*
X88485931Y-89289500D01*
X88444039Y-89297833D01*
X88360254Y-89314499D01*
X88360253Y-89314500D01*
X88241871Y-89363536D01*
X88135335Y-89434721D01*
X88135328Y-89434726D01*
X88044726Y-89525328D01*
X88044721Y-89525335D01*
X87973536Y-89631871D01*
X87924500Y-89750253D01*
X87924499Y-89750254D01*
X87921987Y-89762882D01*
X87899500Y-89875931D01*
X64702645Y-89875931D01*
X64815051Y-89721216D01*
X64911557Y-89531812D01*
X64977246Y-89329643D01*
X65010500Y-89119687D01*
X65010500Y-88907113D01*
X64977246Y-88697157D01*
X64911557Y-88494988D01*
X64815051Y-88305584D01*
X64690104Y-88133608D01*
X64690101Y-88133605D01*
X64690099Y-88133602D01*
X64539797Y-87983300D01*
X64539794Y-87983298D01*
X64539792Y-87983296D01*
X64367816Y-87858349D01*
X64178412Y-87761843D01*
X63976243Y-87696154D01*
X63766287Y-87662900D01*
X63553713Y-87662900D01*
X63343757Y-87696154D01*
X63343754Y-87696154D01*
X63343753Y-87696155D01*
X63141588Y-87761843D01*
X63141586Y-87761844D01*
X62952180Y-87858351D01*
X62780205Y-87983298D01*
X62780202Y-87983300D01*
X62629900Y-88133602D01*
X62629898Y-88133605D01*
X62504951Y-88305580D01*
X62504949Y-88305584D01*
X62408443Y-88494988D01*
X62342754Y-88697157D01*
X62309500Y-88907113D01*
X61188900Y-88907113D01*
X61188900Y-85694234D01*
X68314500Y-85694234D01*
X68314500Y-85845766D01*
X68321602Y-85872271D01*
X68353718Y-85992132D01*
X68353721Y-85992139D01*
X68429482Y-86123361D01*
X68429490Y-86123371D01*
X68536628Y-86230509D01*
X68536633Y-86230513D01*
X68536635Y-86230515D01*
X68536636Y-86230516D01*
X68536638Y-86230517D01*
X68628877Y-86283771D01*
X68667865Y-86306281D01*
X68814234Y-86345500D01*
X68814236Y-86345500D01*
X68965764Y-86345500D01*
X68965766Y-86345500D01*
X69112135Y-86306281D01*
X69243365Y-86230515D01*
X69350515Y-86123365D01*
X69426281Y-85992135D01*
X69465500Y-85845766D01*
X69465500Y-85694234D01*
X74094500Y-85694234D01*
X74094500Y-85845766D01*
X74101602Y-85872271D01*
X74133718Y-85992132D01*
X74133721Y-85992139D01*
X74209482Y-86123361D01*
X74209490Y-86123371D01*
X74316628Y-86230509D01*
X74316633Y-86230513D01*
X74316635Y-86230515D01*
X74316636Y-86230516D01*
X74316638Y-86230517D01*
X74408877Y-86283771D01*
X74447865Y-86306281D01*
X74594234Y-86345500D01*
X74594236Y-86345500D01*
X74745764Y-86345500D01*
X74745766Y-86345500D01*
X74892135Y-86306281D01*
X75023365Y-86230515D01*
X75130515Y-86123365D01*
X75206281Y-85992135D01*
X75245500Y-85845766D01*
X75245500Y-85694234D01*
X75206281Y-85547865D01*
X75163566Y-85473881D01*
X75130517Y-85416638D01*
X75130509Y-85416628D01*
X75023371Y-85309490D01*
X75023361Y-85309482D01*
X74892139Y-85233721D01*
X74892136Y-85233720D01*
X74892135Y-85233719D01*
X74892133Y-85233718D01*
X74892132Y-85233718D01*
X74852911Y-85223209D01*
X74745766Y-85194500D01*
X74594234Y-85194500D01*
X74515798Y-85215516D01*
X74447867Y-85233718D01*
X74447860Y-85233721D01*
X74316638Y-85309482D01*
X74316628Y-85309490D01*
X74209490Y-85416628D01*
X74209482Y-85416638D01*
X74133721Y-85547860D01*
X74133718Y-85547867D01*
X74108854Y-85640661D01*
X74094500Y-85694234D01*
X69465500Y-85694234D01*
X69426281Y-85547865D01*
X69383566Y-85473881D01*
X69350517Y-85416638D01*
X69350509Y-85416628D01*
X69243371Y-85309490D01*
X69243361Y-85309482D01*
X69112139Y-85233721D01*
X69112136Y-85233720D01*
X69112135Y-85233719D01*
X69112133Y-85233718D01*
X69112132Y-85233718D01*
X69072911Y-85223209D01*
X68965766Y-85194500D01*
X68814234Y-85194500D01*
X68735798Y-85215516D01*
X68667867Y-85233718D01*
X68667860Y-85233721D01*
X68536638Y-85309482D01*
X68536628Y-85309490D01*
X68429490Y-85416628D01*
X68429482Y-85416638D01*
X68353721Y-85547860D01*
X68353718Y-85547867D01*
X68328854Y-85640661D01*
X68314500Y-85694234D01*
X61188900Y-85694234D01*
X61188900Y-84970943D01*
X80059500Y-84970943D01*
X80059500Y-85129057D01*
X80087544Y-85233718D01*
X80100424Y-85281788D01*
X80179477Y-85418712D01*
X80179485Y-85418722D01*
X80291277Y-85530514D01*
X80291282Y-85530518D01*
X80291284Y-85530520D01*
X80291285Y-85530521D01*
X80291287Y-85530522D01*
X80428211Y-85609575D01*
X80428213Y-85609575D01*
X80428216Y-85609577D01*
X80580943Y-85650500D01*
X80580945Y-85650500D01*
X80739055Y-85650500D01*
X80739057Y-85650500D01*
X80891784Y-85609577D01*
X80891787Y-85609575D01*
X80891788Y-85609575D01*
X80998682Y-85547860D01*
X81028716Y-85530520D01*
X81140520Y-85418716D01*
X81180048Y-85350250D01*
X81219575Y-85281788D01*
X81219575Y-85281787D01*
X81219577Y-85281784D01*
X81260500Y-85129057D01*
X81260500Y-84970943D01*
X81219577Y-84818216D01*
X81219575Y-84818213D01*
X81219575Y-84818211D01*
X81140522Y-84681287D01*
X81140514Y-84681277D01*
X81028722Y-84569485D01*
X81028712Y-84569477D01*
X80891788Y-84490424D01*
X80873743Y-84485589D01*
X80739057Y-84449500D01*
X80580943Y-84449500D01*
X80487470Y-84474545D01*
X80428211Y-84490424D01*
X80291287Y-84569477D01*
X80291277Y-84569485D01*
X80179485Y-84681277D01*
X80179477Y-84681287D01*
X80100424Y-84818211D01*
X80100423Y-84818216D01*
X80059500Y-84970943D01*
X61188900Y-84970943D01*
X61188900Y-82700943D01*
X89359500Y-82700943D01*
X89359500Y-82859057D01*
X89381049Y-82939480D01*
X89400424Y-83011788D01*
X89479477Y-83148712D01*
X89479485Y-83148722D01*
X89591277Y-83260514D01*
X89591282Y-83260518D01*
X89591284Y-83260520D01*
X89591285Y-83260521D01*
X89591287Y-83260522D01*
X89728211Y-83339575D01*
X89728213Y-83339575D01*
X89728216Y-83339577D01*
X89880943Y-83380500D01*
X89880945Y-83380500D01*
X90013500Y-83380500D01*
X90081621Y-83400502D01*
X90128114Y-83454158D01*
X90136164Y-83491165D01*
X90138422Y-83490868D01*
X90139499Y-83499054D01*
X90180424Y-83651788D01*
X90259477Y-83788712D01*
X90259485Y-83788722D01*
X90371277Y-83900514D01*
X90371282Y-83900518D01*
X90371284Y-83900520D01*
X90371285Y-83900521D01*
X90371287Y-83900522D01*
X90508211Y-83979575D01*
X90508213Y-83979575D01*
X90508216Y-83979577D01*
X90660943Y-84020500D01*
X90660945Y-84020500D01*
X90819055Y-84020500D01*
X90819057Y-84020500D01*
X90971784Y-83979577D01*
X90971787Y-83979575D01*
X90971788Y-83979575D01*
X91040250Y-83940048D01*
X91108716Y-83900520D01*
X91220520Y-83788716D01*
X91260048Y-83720250D01*
X91299575Y-83651788D01*
X91299575Y-83651787D01*
X91299577Y-83651784D01*
X91302482Y-83640943D01*
X106029500Y-83640943D01*
X106029500Y-83799057D01*
X106063638Y-83926463D01*
X106070424Y-83951788D01*
X106149477Y-84088712D01*
X106149485Y-84088722D01*
X106261277Y-84200514D01*
X106261282Y-84200518D01*
X106261284Y-84200520D01*
X106261285Y-84200521D01*
X106261287Y-84200522D01*
X106398211Y-84279575D01*
X106398213Y-84279575D01*
X106398216Y-84279577D01*
X106550943Y-84320500D01*
X106550945Y-84320500D01*
X106709055Y-84320500D01*
X106709057Y-84320500D01*
X106861784Y-84279577D01*
X106861787Y-84279575D01*
X106861788Y-84279575D01*
X106994022Y-84203230D01*
X106998716Y-84200520D01*
X107110520Y-84088716D01*
X107189577Y-83951784D01*
X107230500Y-83799057D01*
X107230500Y-83640943D01*
X107210043Y-83564596D01*
X151907097Y-83564596D01*
X151907097Y-83722710D01*
X151924782Y-83788712D01*
X151948021Y-83875441D01*
X152027074Y-84012365D01*
X152027082Y-84012375D01*
X152138874Y-84124167D01*
X152138879Y-84124171D01*
X152138881Y-84124173D01*
X152138882Y-84124174D01*
X152138884Y-84124175D01*
X152275808Y-84203228D01*
X152275810Y-84203228D01*
X152275813Y-84203230D01*
X152428540Y-84244153D01*
X152428542Y-84244153D01*
X152586652Y-84244153D01*
X152586654Y-84244153D01*
X152739381Y-84203230D01*
X152739384Y-84203228D01*
X152739385Y-84203228D01*
X152807847Y-84163701D01*
X152876313Y-84124173D01*
X152988117Y-84012369D01*
X153052691Y-83900522D01*
X153067172Y-83875441D01*
X153067172Y-83875440D01*
X153067174Y-83875437D01*
X153108097Y-83722710D01*
X153108097Y-83564596D01*
X153067174Y-83411869D01*
X153067172Y-83411866D01*
X153067172Y-83411864D01*
X153027264Y-83342741D01*
X152994465Y-83285931D01*
X169799500Y-83285931D01*
X169799500Y-83414069D01*
X169824499Y-83539744D01*
X169873535Y-83658127D01*
X169944724Y-83764669D01*
X170035331Y-83855276D01*
X170141873Y-83926465D01*
X170260256Y-83975501D01*
X170385931Y-84000500D01*
X170385936Y-84000500D01*
X170514064Y-84000500D01*
X170514069Y-84000500D01*
X170639744Y-83975501D01*
X170758127Y-83926465D01*
X170864669Y-83855276D01*
X170955276Y-83764669D01*
X171026465Y-83658127D01*
X171075501Y-83539744D01*
X171100500Y-83414069D01*
X171100500Y-83285931D01*
X171075501Y-83160256D01*
X171026465Y-83041873D01*
X170955276Y-82935331D01*
X170864669Y-82844724D01*
X170758127Y-82773535D01*
X170639745Y-82724499D01*
X170597852Y-82716166D01*
X170514069Y-82699500D01*
X170385931Y-82699500D01*
X170344039Y-82707833D01*
X170260254Y-82724499D01*
X170260253Y-82724500D01*
X170141871Y-82773536D01*
X170035335Y-82844721D01*
X170035328Y-82844726D01*
X169944726Y-82935328D01*
X169944721Y-82935335D01*
X169873536Y-83041871D01*
X169824500Y-83160253D01*
X169824499Y-83160254D01*
X169818938Y-83188211D01*
X169799500Y-83285931D01*
X152994465Y-83285931D01*
X152988119Y-83274940D01*
X152988111Y-83274930D01*
X152876319Y-83163138D01*
X152876309Y-83163130D01*
X152739385Y-83084077D01*
X152721340Y-83079242D01*
X152586654Y-83043153D01*
X152428540Y-83043153D01*
X152335067Y-83068198D01*
X152275808Y-83084077D01*
X152138884Y-83163130D01*
X152138874Y-83163138D01*
X152027082Y-83274930D01*
X152027074Y-83274940D01*
X151948021Y-83411864D01*
X151936689Y-83454158D01*
X151907097Y-83564596D01*
X107210043Y-83564596D01*
X107189577Y-83488216D01*
X107189575Y-83488213D01*
X107189575Y-83488211D01*
X107110522Y-83351287D01*
X107110514Y-83351277D01*
X106998722Y-83239485D01*
X106998712Y-83239477D01*
X106861788Y-83160424D01*
X106818115Y-83148722D01*
X106709057Y-83119500D01*
X106550943Y-83119500D01*
X106457470Y-83144545D01*
X106398211Y-83160424D01*
X106261287Y-83239477D01*
X106261277Y-83239485D01*
X106149485Y-83351277D01*
X106149477Y-83351287D01*
X106070424Y-83488211D01*
X106049957Y-83564596D01*
X106029500Y-83640943D01*
X91302482Y-83640943D01*
X91340500Y-83499057D01*
X91340500Y-83340943D01*
X91299577Y-83188216D01*
X91299575Y-83188213D01*
X91299575Y-83188211D01*
X91220522Y-83051287D01*
X91220514Y-83051277D01*
X91108722Y-82939485D01*
X91108712Y-82939477D01*
X90971788Y-82860424D01*
X90953743Y-82855589D01*
X90819057Y-82819500D01*
X90686500Y-82819500D01*
X90618379Y-82799498D01*
X90571886Y-82745842D01*
X90563835Y-82708834D01*
X90561578Y-82709132D01*
X90560500Y-82700945D01*
X90560500Y-82700944D01*
X90560500Y-82700943D01*
X90519577Y-82548216D01*
X90519575Y-82548213D01*
X90519575Y-82548211D01*
X90440522Y-82411287D01*
X90440514Y-82411277D01*
X90328722Y-82299485D01*
X90328712Y-82299477D01*
X90191788Y-82220424D01*
X90173743Y-82215589D01*
X90039057Y-82179500D01*
X89880943Y-82179500D01*
X89787470Y-82204545D01*
X89728211Y-82220424D01*
X89591287Y-82299477D01*
X89591277Y-82299485D01*
X89479485Y-82411277D01*
X89479477Y-82411287D01*
X89400424Y-82548211D01*
X89400423Y-82548216D01*
X89359500Y-82700943D01*
X61188900Y-82700943D01*
X61188900Y-80750943D01*
X77369500Y-80750943D01*
X77369500Y-80909057D01*
X77401564Y-81028722D01*
X77410424Y-81061788D01*
X77489477Y-81198712D01*
X77489485Y-81198722D01*
X77601277Y-81310514D01*
X77601282Y-81310518D01*
X77601284Y-81310520D01*
X77601285Y-81310521D01*
X77601287Y-81310522D01*
X77738211Y-81389575D01*
X77738213Y-81389575D01*
X77738216Y-81389577D01*
X77890943Y-81430500D01*
X77890945Y-81430500D01*
X78049055Y-81430500D01*
X78049057Y-81430500D01*
X78201784Y-81389577D01*
X78201787Y-81389575D01*
X78201788Y-81389575D01*
X78270250Y-81350048D01*
X78338716Y-81310520D01*
X78450520Y-81198716D01*
X78529577Y-81061784D01*
X78570500Y-80909057D01*
X78570500Y-80750943D01*
X78529577Y-80598216D01*
X78519604Y-80580943D01*
X86139500Y-80580943D01*
X86139500Y-80739057D01*
X86143112Y-80752537D01*
X86180424Y-80891788D01*
X86259477Y-81028712D01*
X86259485Y-81028722D01*
X86371277Y-81140514D01*
X86371282Y-81140518D01*
X86371284Y-81140520D01*
X86371285Y-81140521D01*
X86371287Y-81140522D01*
X86508211Y-81219575D01*
X86508213Y-81219575D01*
X86508216Y-81219577D01*
X86660943Y-81260500D01*
X86660945Y-81260500D01*
X86819055Y-81260500D01*
X86819057Y-81260500D01*
X86971784Y-81219577D01*
X86971787Y-81219575D01*
X86971788Y-81219575D01*
X87040250Y-81180048D01*
X87108716Y-81140520D01*
X87220520Y-81028716D01*
X87299577Y-80891784D01*
X87340500Y-80739057D01*
X87340500Y-80580943D01*
X87299577Y-80428216D01*
X87299575Y-80428213D01*
X87299575Y-80428211D01*
X87220522Y-80291287D01*
X87220514Y-80291277D01*
X87108722Y-80179485D01*
X87108712Y-80179477D01*
X86971788Y-80100424D01*
X86953743Y-80095589D01*
X86819057Y-80059500D01*
X86660943Y-80059500D01*
X86567470Y-80084545D01*
X86508211Y-80100424D01*
X86371287Y-80179477D01*
X86371277Y-80179485D01*
X86259485Y-80291277D01*
X86259477Y-80291287D01*
X86180424Y-80428211D01*
X86161018Y-80500637D01*
X86139500Y-80580943D01*
X78519604Y-80580943D01*
X78507757Y-80560423D01*
X78450522Y-80461287D01*
X78450514Y-80461277D01*
X78338722Y-80349485D01*
X78338712Y-80349477D01*
X78201788Y-80270424D01*
X78183743Y-80265589D01*
X78049057Y-80229500D01*
X77890943Y-80229500D01*
X77797470Y-80254545D01*
X77738211Y-80270424D01*
X77601287Y-80349477D01*
X77601277Y-80349485D01*
X77489485Y-80461277D01*
X77489477Y-80461287D01*
X77410424Y-80598211D01*
X77399366Y-80639480D01*
X77369500Y-80750943D01*
X61188900Y-80750943D01*
X61188900Y-79610943D01*
X84999500Y-79610943D01*
X84999500Y-79769057D01*
X85017942Y-79837884D01*
X85040424Y-79921788D01*
X85119477Y-80058712D01*
X85119485Y-80058722D01*
X85231277Y-80170514D01*
X85231282Y-80170518D01*
X85231284Y-80170520D01*
X85231285Y-80170521D01*
X85231287Y-80170522D01*
X85368211Y-80249575D01*
X85368213Y-80249575D01*
X85368216Y-80249577D01*
X85520943Y-80290500D01*
X85520945Y-80290500D01*
X85679055Y-80290500D01*
X85679057Y-80290500D01*
X85831784Y-80249577D01*
X85831787Y-80249575D01*
X85831788Y-80249575D01*
X85953188Y-80179485D01*
X85968716Y-80170520D01*
X86080520Y-80058716D01*
X86159577Y-79921784D01*
X86200500Y-79769057D01*
X86200500Y-79610943D01*
X86159577Y-79458216D01*
X86159575Y-79458213D01*
X86159575Y-79458211D01*
X86080522Y-79321287D01*
X86080514Y-79321277D01*
X85968722Y-79209485D01*
X85968712Y-79209477D01*
X85831788Y-79130424D01*
X85813743Y-79125589D01*
X85679057Y-79089500D01*
X85520943Y-79089500D01*
X85427470Y-79114545D01*
X85368211Y-79130424D01*
X85231287Y-79209477D01*
X85231277Y-79209485D01*
X85119485Y-79321277D01*
X85119477Y-79321287D01*
X85040424Y-79458211D01*
X85022971Y-79523349D01*
X84999500Y-79610943D01*
X61188900Y-79610943D01*
X61188900Y-77949252D01*
X91414500Y-77949252D01*
X91414500Y-78107366D01*
X91428494Y-78159593D01*
X91455424Y-78260097D01*
X91534477Y-78397021D01*
X91534485Y-78397031D01*
X91646277Y-78508823D01*
X91646282Y-78508827D01*
X91646284Y-78508829D01*
X91646285Y-78508830D01*
X91646287Y-78508831D01*
X91783211Y-78587884D01*
X91783213Y-78587884D01*
X91783216Y-78587886D01*
X91935943Y-78628809D01*
X91935945Y-78628809D01*
X92094055Y-78628809D01*
X92094057Y-78628809D01*
X92246784Y-78587886D01*
X92246787Y-78587884D01*
X92246788Y-78587884D01*
X92380797Y-78510514D01*
X92383716Y-78508829D01*
X92495520Y-78397025D01*
X92530881Y-78335778D01*
X92555392Y-78312405D01*
X92579283Y-78288372D01*
X92580994Y-78287994D01*
X92582263Y-78286785D01*
X92615524Y-78280374D01*
X92648612Y-78273073D01*
X92650256Y-78273680D01*
X92651977Y-78273349D01*
X92683433Y-78285941D01*
X92715206Y-78297684D01*
X92716557Y-78299202D01*
X92717888Y-78299735D01*
X92740641Y-78322967D01*
X92745273Y-78329116D01*
X92784480Y-78397025D01*
X92832904Y-78445449D01*
X92838214Y-78452498D01*
X92847736Y-78477796D01*
X92860694Y-78501526D01*
X92860051Y-78510514D01*
X92863224Y-78518944D01*
X92857557Y-78545372D01*
X92855629Y-78572341D01*
X92849847Y-78581337D01*
X92848341Y-78588363D01*
X92839827Y-78596927D01*
X92826668Y-78617404D01*
X92784485Y-78659586D01*
X92784477Y-78659596D01*
X92705424Y-78796520D01*
X92705083Y-78797794D01*
X92664500Y-78949252D01*
X92664500Y-79107366D01*
X92685754Y-79186688D01*
X92705424Y-79260097D01*
X92784477Y-79397021D01*
X92784485Y-79397031D01*
X92896277Y-79508823D01*
X92896282Y-79508827D01*
X92896284Y-79508829D01*
X92896285Y-79508830D01*
X92896287Y-79508831D01*
X93033211Y-79587884D01*
X93033213Y-79587884D01*
X93033216Y-79587886D01*
X93185943Y-79628809D01*
X93185945Y-79628809D01*
X93344055Y-79628809D01*
X93344057Y-79628809D01*
X93496784Y-79587886D01*
X93496787Y-79587884D01*
X93496788Y-79587884D01*
X93608566Y-79523349D01*
X93633716Y-79508829D01*
X93732855Y-79409689D01*
X93795165Y-79375666D01*
X93865981Y-79380730D01*
X93922817Y-79423277D01*
X93943654Y-79466171D01*
X93954421Y-79506354D01*
X93955424Y-79510097D01*
X94034477Y-79647021D01*
X94034485Y-79647031D01*
X94146277Y-79758823D01*
X94146282Y-79758827D01*
X94146284Y-79758829D01*
X94146285Y-79758830D01*
X94146287Y-79758831D01*
X94283211Y-79837884D01*
X94283213Y-79837884D01*
X94283216Y-79837886D01*
X94435943Y-79878809D01*
X94435945Y-79878809D01*
X94594055Y-79878809D01*
X94594057Y-79878809D01*
X94746784Y-79837886D01*
X94746787Y-79837884D01*
X94746788Y-79837884D01*
X94866000Y-79769057D01*
X94883716Y-79758829D01*
X94995520Y-79647025D01*
X95030881Y-79585778D01*
X95082263Y-79536785D01*
X95151977Y-79523349D01*
X95217888Y-79549735D01*
X95249119Y-79585778D01*
X95284477Y-79647021D01*
X95284485Y-79647031D01*
X95396277Y-79758823D01*
X95396282Y-79758827D01*
X95396284Y-79758829D01*
X95396285Y-79758830D01*
X95396287Y-79758831D01*
X95533211Y-79837884D01*
X95533213Y-79837884D01*
X95533216Y-79837886D01*
X95685943Y-79878809D01*
X95685945Y-79878809D01*
X95844055Y-79878809D01*
X95844057Y-79878809D01*
X95996784Y-79837886D01*
X95996787Y-79837884D01*
X95996788Y-79837884D01*
X96116000Y-79769057D01*
X96133716Y-79758829D01*
X96245520Y-79647025D01*
X96324577Y-79510093D01*
X96365500Y-79357366D01*
X96365500Y-79199252D01*
X96664500Y-79199252D01*
X96664500Y-79357366D01*
X96682161Y-79423277D01*
X96705424Y-79510097D01*
X96784477Y-79647021D01*
X96784485Y-79647031D01*
X96896277Y-79758823D01*
X96896282Y-79758827D01*
X96896284Y-79758829D01*
X96896285Y-79758830D01*
X96896287Y-79758831D01*
X97033211Y-79837884D01*
X97033213Y-79837884D01*
X97033216Y-79837886D01*
X97185943Y-79878809D01*
X97185945Y-79878809D01*
X97344055Y-79878809D01*
X97344057Y-79878809D01*
X97496784Y-79837886D01*
X97496787Y-79837884D01*
X97496788Y-79837884D01*
X97616000Y-79769057D01*
X97630054Y-79760943D01*
X126359500Y-79760943D01*
X126359500Y-79919057D01*
X126360231Y-79921784D01*
X126400424Y-80071788D01*
X126479477Y-80208712D01*
X126479485Y-80208722D01*
X126591277Y-80320514D01*
X126591282Y-80320518D01*
X126591284Y-80320520D01*
X126591285Y-80320521D01*
X126591287Y-80320522D01*
X126693511Y-80379541D01*
X126742504Y-80430923D01*
X126755940Y-80500637D01*
X126729554Y-80566548D01*
X126693512Y-80597779D01*
X126621284Y-80639479D01*
X126621277Y-80639485D01*
X126509485Y-80751277D01*
X126509477Y-80751287D01*
X126430424Y-80888211D01*
X126407544Y-80973599D01*
X126389500Y-81040943D01*
X126389500Y-81199057D01*
X126400403Y-81239746D01*
X126430424Y-81351788D01*
X126509477Y-81488712D01*
X126509485Y-81488722D01*
X126621277Y-81600514D01*
X126621282Y-81600518D01*
X126621284Y-81600520D01*
X126621285Y-81600521D01*
X126621287Y-81600522D01*
X126758211Y-81679575D01*
X126758213Y-81679575D01*
X126758216Y-81679577D01*
X126910943Y-81720500D01*
X126910945Y-81720500D01*
X127069055Y-81720500D01*
X127069057Y-81720500D01*
X127221784Y-81679577D01*
X127221787Y-81679575D01*
X127221788Y-81679575D01*
X127290250Y-81640048D01*
X127358716Y-81600520D01*
X127470520Y-81488716D01*
X127510048Y-81420250D01*
X127549575Y-81351788D01*
X127549575Y-81351787D01*
X127549577Y-81351784D01*
X127590500Y-81199057D01*
X127590500Y-81042193D01*
X151929500Y-81042193D01*
X151929500Y-81200307D01*
X151959032Y-81310522D01*
X151970424Y-81353038D01*
X152049477Y-81489962D01*
X152049485Y-81489972D01*
X152161277Y-81601764D01*
X152161282Y-81601768D01*
X152161284Y-81601770D01*
X152161285Y-81601771D01*
X152161287Y-81601772D01*
X152298211Y-81680825D01*
X152298213Y-81680825D01*
X152298216Y-81680827D01*
X152450943Y-81721750D01*
X152450945Y-81721750D01*
X152609055Y-81721750D01*
X152609057Y-81721750D01*
X152761784Y-81680827D01*
X152761787Y-81680825D01*
X152761788Y-81680825D01*
X152830250Y-81641298D01*
X152898716Y-81601770D01*
X153010520Y-81489966D01*
X153089577Y-81353034D01*
X153130500Y-81200307D01*
X153130500Y-81042193D01*
X153115425Y-80985931D01*
X169799500Y-80985931D01*
X169799500Y-81114069D01*
X169824499Y-81239744D01*
X169873535Y-81358127D01*
X169944724Y-81464669D01*
X170035331Y-81555276D01*
X170141873Y-81626465D01*
X170260256Y-81675501D01*
X170385931Y-81700500D01*
X170385936Y-81700500D01*
X170514064Y-81700500D01*
X170514069Y-81700500D01*
X170639744Y-81675501D01*
X170758127Y-81626465D01*
X170864669Y-81555276D01*
X170955276Y-81464669D01*
X171026465Y-81358127D01*
X171075501Y-81239744D01*
X171100500Y-81114069D01*
X171100500Y-80985931D01*
X171075501Y-80860256D01*
X171026465Y-80741873D01*
X170955276Y-80635331D01*
X170864669Y-80544724D01*
X170758127Y-80473535D01*
X170639745Y-80424499D01*
X170597852Y-80416166D01*
X170514069Y-80399500D01*
X170385931Y-80399500D01*
X170344039Y-80407833D01*
X170260254Y-80424499D01*
X170260253Y-80424500D01*
X170251294Y-80428211D01*
X170171450Y-80461284D01*
X170141871Y-80473536D01*
X170035335Y-80544721D01*
X170035328Y-80544726D01*
X169944726Y-80635328D01*
X169944721Y-80635335D01*
X169873536Y-80741871D01*
X169824500Y-80860253D01*
X169824499Y-80860254D01*
X169807833Y-80944039D01*
X169799500Y-80985931D01*
X153115425Y-80985931D01*
X153089577Y-80889466D01*
X153088855Y-80888216D01*
X153010522Y-80752537D01*
X153010514Y-80752527D01*
X152898722Y-80640735D01*
X152898712Y-80640727D01*
X152761788Y-80561674D01*
X152743743Y-80556839D01*
X152609057Y-80520750D01*
X152450943Y-80520750D01*
X152361482Y-80544721D01*
X152298211Y-80561674D01*
X152161287Y-80640727D01*
X152161277Y-80640735D01*
X152049485Y-80752527D01*
X152049477Y-80752537D01*
X151970424Y-80889461D01*
X151947544Y-80974849D01*
X151929500Y-81042193D01*
X127590500Y-81042193D01*
X127590500Y-81040943D01*
X127549577Y-80888216D01*
X127549575Y-80888213D01*
X127549575Y-80888211D01*
X127470522Y-80751287D01*
X127470514Y-80751277D01*
X127358722Y-80639485D01*
X127358712Y-80639477D01*
X127256488Y-80580458D01*
X127207495Y-80529075D01*
X127194059Y-80459362D01*
X127220446Y-80393451D01*
X127256485Y-80362221D01*
X127328716Y-80320520D01*
X127440520Y-80208716D01*
X127503042Y-80100424D01*
X127519575Y-80071788D01*
X127519575Y-80071787D01*
X127519577Y-80071784D01*
X127560500Y-79919057D01*
X127560500Y-79760943D01*
X127519577Y-79608216D01*
X127519575Y-79608213D01*
X127519575Y-79608211D01*
X127440522Y-79471287D01*
X127440514Y-79471277D01*
X127328722Y-79359485D01*
X127328712Y-79359477D01*
X127191788Y-79280424D01*
X127173743Y-79275589D01*
X127039057Y-79239500D01*
X126880943Y-79239500D01*
X126804089Y-79260093D01*
X126728211Y-79280424D01*
X126591287Y-79359477D01*
X126591277Y-79359485D01*
X126479485Y-79471277D01*
X126479477Y-79471287D01*
X126400424Y-79608211D01*
X126377544Y-79693599D01*
X126359500Y-79760943D01*
X97630054Y-79760943D01*
X97633716Y-79758829D01*
X97633722Y-79758823D01*
X97728956Y-79663590D01*
X97745514Y-79647031D01*
X97745520Y-79647025D01*
X97824577Y-79510093D01*
X97865500Y-79357366D01*
X97865500Y-79254809D01*
X97885502Y-79186688D01*
X97939158Y-79140195D01*
X97991500Y-79128809D01*
X98094055Y-79128809D01*
X98094057Y-79128809D01*
X98246784Y-79087886D01*
X98246787Y-79087884D01*
X98246788Y-79087884D01*
X98364656Y-79019833D01*
X98383716Y-79008829D01*
X98495520Y-78897025D01*
X98552812Y-78797791D01*
X98574575Y-78760097D01*
X98574575Y-78760096D01*
X98574577Y-78760093D01*
X98615500Y-78607366D01*
X98615500Y-78449252D01*
X98574577Y-78296525D01*
X98568954Y-78286785D01*
X98550022Y-78253993D01*
X98550021Y-78253991D01*
X98518417Y-78199252D01*
X99914500Y-78199252D01*
X99914500Y-78357366D01*
X99946769Y-78477796D01*
X99955424Y-78510097D01*
X100034477Y-78647021D01*
X100034485Y-78647031D01*
X100146277Y-78758823D01*
X100146282Y-78758827D01*
X100146284Y-78758829D01*
X100146285Y-78758830D01*
X100146287Y-78758831D01*
X100283211Y-78837884D01*
X100283213Y-78837884D01*
X100283216Y-78837886D01*
X100435943Y-78878809D01*
X100435945Y-78878809D01*
X100594055Y-78878809D01*
X100594057Y-78878809D01*
X100746784Y-78837886D01*
X100746787Y-78837884D01*
X100746788Y-78837884D01*
X100818433Y-78796520D01*
X100883716Y-78758829D01*
X100995520Y-78647025D01*
X101048597Y-78555092D01*
X101074575Y-78510097D01*
X101074575Y-78510096D01*
X101074577Y-78510093D01*
X101115500Y-78357366D01*
X101115500Y-78199252D01*
X101074577Y-78046525D01*
X101074575Y-78046522D01*
X101074575Y-78046520D01*
X100995522Y-77909596D01*
X100995514Y-77909586D01*
X100883722Y-77797794D01*
X100883712Y-77797786D01*
X100785257Y-77740943D01*
X121009500Y-77740943D01*
X121009500Y-77899057D01*
X121039878Y-78012428D01*
X121050424Y-78051788D01*
X121129477Y-78188712D01*
X121129485Y-78188722D01*
X121241277Y-78300514D01*
X121241282Y-78300518D01*
X121241284Y-78300520D01*
X121241285Y-78300521D01*
X121241287Y-78300522D01*
X121378211Y-78379575D01*
X121378213Y-78379575D01*
X121378216Y-78379577D01*
X121530943Y-78420500D01*
X121530945Y-78420500D01*
X121689055Y-78420500D01*
X121689057Y-78420500D01*
X121841784Y-78379577D01*
X121841787Y-78379575D01*
X121841788Y-78379575D01*
X121958130Y-78312405D01*
X121978716Y-78300520D01*
X122090520Y-78188716D01*
X122169577Y-78051784D01*
X122210500Y-77899057D01*
X122210500Y-77740943D01*
X122169577Y-77588216D01*
X122169575Y-77588213D01*
X122169575Y-77588211D01*
X122090522Y-77451287D01*
X122090514Y-77451277D01*
X121978722Y-77339485D01*
X121978712Y-77339477D01*
X121841788Y-77260424D01*
X121823743Y-77255589D01*
X121689057Y-77219500D01*
X121530943Y-77219500D01*
X121437470Y-77244545D01*
X121378211Y-77260424D01*
X121241287Y-77339477D01*
X121241277Y-77339485D01*
X121129485Y-77451277D01*
X121129477Y-77451287D01*
X121050424Y-77588211D01*
X121031298Y-77659590D01*
X121009500Y-77740943D01*
X100785257Y-77740943D01*
X100746788Y-77718733D01*
X100724873Y-77712861D01*
X100594057Y-77677809D01*
X100435943Y-77677809D01*
X100342470Y-77702854D01*
X100283211Y-77718733D01*
X100146287Y-77797786D01*
X100146277Y-77797794D01*
X100034485Y-77909586D01*
X100034477Y-77909596D01*
X99955424Y-78046520D01*
X99939121Y-78107364D01*
X99914500Y-78199252D01*
X98518417Y-78199252D01*
X98495522Y-78159596D01*
X98495514Y-78159586D01*
X98383722Y-78047794D01*
X98383712Y-78047786D01*
X98322469Y-78012428D01*
X98273476Y-77961046D01*
X98260040Y-77891332D01*
X98286426Y-77825421D01*
X98322469Y-77794190D01*
X98355118Y-77775339D01*
X98383716Y-77758829D01*
X98495520Y-77647025D01*
X98548597Y-77555092D01*
X98574575Y-77510097D01*
X98574575Y-77510096D01*
X98574577Y-77510093D01*
X98615500Y-77357366D01*
X98615500Y-77199252D01*
X98574577Y-77046525D01*
X98574575Y-77046522D01*
X98574575Y-77046520D01*
X98495522Y-76909596D01*
X98495514Y-76909586D01*
X98383722Y-76797794D01*
X98383712Y-76797786D01*
X98267936Y-76730943D01*
X118639500Y-76730943D01*
X118639500Y-76889057D01*
X118675589Y-77023743D01*
X118680424Y-77041788D01*
X118759477Y-77178712D01*
X118759485Y-77178722D01*
X118871277Y-77290514D01*
X118871282Y-77290518D01*
X118871284Y-77290520D01*
X118871285Y-77290521D01*
X118871287Y-77290522D01*
X119008211Y-77369575D01*
X119008213Y-77369575D01*
X119008216Y-77369577D01*
X119160943Y-77410500D01*
X119160945Y-77410500D01*
X119319055Y-77410500D01*
X119319057Y-77410500D01*
X119471784Y-77369577D01*
X119471787Y-77369575D01*
X119471788Y-77369575D01*
X119572557Y-77311396D01*
X119608716Y-77290520D01*
X119720520Y-77178716D01*
X119774019Y-77086052D01*
X119799575Y-77041788D01*
X119799575Y-77041787D01*
X119799577Y-77041784D01*
X119840500Y-76889057D01*
X119840500Y-76730943D01*
X119799577Y-76578216D01*
X119799575Y-76578213D01*
X119799575Y-76578211D01*
X119720522Y-76441287D01*
X119720514Y-76441277D01*
X119608722Y-76329485D01*
X119608712Y-76329477D01*
X119471788Y-76250424D01*
X119453743Y-76245589D01*
X119319057Y-76209500D01*
X119160943Y-76209500D01*
X119067470Y-76234545D01*
X119008211Y-76250424D01*
X118871287Y-76329477D01*
X118871277Y-76329485D01*
X118759485Y-76441277D01*
X118759477Y-76441287D01*
X118680424Y-76578211D01*
X118664121Y-76639055D01*
X118639500Y-76730943D01*
X98267936Y-76730943D01*
X98246788Y-76718733D01*
X98222216Y-76712149D01*
X98094057Y-76677809D01*
X97935943Y-76677809D01*
X97870248Y-76695412D01*
X97783211Y-76718733D01*
X97646287Y-76797786D01*
X97646277Y-76797794D01*
X97534485Y-76909586D01*
X97534477Y-76909596D01*
X97455424Y-77046520D01*
X97455423Y-77046525D01*
X97414500Y-77199252D01*
X97414500Y-77357366D01*
X97445159Y-77471788D01*
X97455424Y-77510097D01*
X97534477Y-77647021D01*
X97534485Y-77647031D01*
X97646277Y-77758823D01*
X97646282Y-77758827D01*
X97646284Y-77758829D01*
X97646285Y-77758830D01*
X97646287Y-77758831D01*
X97707530Y-77794190D01*
X97756524Y-77845573D01*
X97769959Y-77915287D01*
X97743572Y-77981197D01*
X97707530Y-78012428D01*
X97646287Y-78047786D01*
X97646277Y-78047794D01*
X97534485Y-78159586D01*
X97534477Y-78159596D01*
X97455424Y-78296520D01*
X97414500Y-78449253D01*
X97414500Y-78551809D01*
X97394498Y-78619930D01*
X97340842Y-78666423D01*
X97288500Y-78677809D01*
X97185943Y-78677809D01*
X97092470Y-78702854D01*
X97033211Y-78718733D01*
X96896287Y-78797786D01*
X96896277Y-78797794D01*
X96784485Y-78909586D01*
X96784477Y-78909596D01*
X96705424Y-79046520D01*
X96705423Y-79046525D01*
X96664500Y-79199252D01*
X96365500Y-79199252D01*
X96324577Y-79046525D01*
X96324575Y-79046522D01*
X96324575Y-79046520D01*
X96245522Y-78909596D01*
X96245514Y-78909586D01*
X96133722Y-78797794D01*
X96133712Y-78797786D01*
X95996788Y-78718733D01*
X95978743Y-78713898D01*
X95844057Y-78677809D01*
X95685943Y-78677809D01*
X95592470Y-78702854D01*
X95533211Y-78718733D01*
X95396287Y-78797786D01*
X95396277Y-78797794D01*
X95284485Y-78909586D01*
X95284477Y-78909596D01*
X95249119Y-78970839D01*
X95197736Y-79019833D01*
X95128022Y-79033268D01*
X95062112Y-79006881D01*
X95030881Y-78970839D01*
X94995522Y-78909596D01*
X94995514Y-78909586D01*
X94883722Y-78797794D01*
X94883712Y-78797786D01*
X94746788Y-78718733D01*
X94728743Y-78713898D01*
X94594057Y-78677809D01*
X94435943Y-78677809D01*
X94342470Y-78702854D01*
X94283211Y-78718733D01*
X94146287Y-78797786D01*
X94146281Y-78797791D01*
X94047145Y-78896927D01*
X93984833Y-78930952D01*
X93914017Y-78925886D01*
X93857181Y-78883340D01*
X93836345Y-78840444D01*
X93824577Y-78796525D01*
X93803545Y-78760097D01*
X93745522Y-78659596D01*
X93745514Y-78659586D01*
X93703332Y-78617404D01*
X93669306Y-78555092D01*
X93674371Y-78484277D01*
X93703332Y-78439214D01*
X93745514Y-78397031D01*
X93745520Y-78397025D01*
X93803543Y-78296525D01*
X93824575Y-78260097D01*
X93824575Y-78260096D01*
X93824577Y-78260093D01*
X93865500Y-78107366D01*
X93865500Y-77949252D01*
X93824577Y-77796525D01*
X93824575Y-77796522D01*
X93824575Y-77796520D01*
X93745522Y-77659596D01*
X93745514Y-77659586D01*
X93703332Y-77617404D01*
X93669306Y-77555092D01*
X93674371Y-77484277D01*
X93703332Y-77439214D01*
X93745514Y-77397031D01*
X93745520Y-77397025D01*
X93794956Y-77311398D01*
X93824575Y-77260097D01*
X93824575Y-77260096D01*
X93824577Y-77260093D01*
X93865500Y-77107366D01*
X93865500Y-76949252D01*
X93824577Y-76796525D01*
X93824575Y-76796522D01*
X93824575Y-76796520D01*
X93745522Y-76659596D01*
X93745514Y-76659586D01*
X93633722Y-76547794D01*
X93633712Y-76547786D01*
X93496788Y-76468733D01*
X93433764Y-76451846D01*
X93344057Y-76427809D01*
X93185943Y-76427809D01*
X93096236Y-76451846D01*
X93033211Y-76468733D01*
X92896287Y-76547786D01*
X92896277Y-76547794D01*
X92784485Y-76659586D01*
X92784477Y-76659596D01*
X92758359Y-76704834D01*
X92706976Y-76753826D01*
X92637262Y-76767261D01*
X92586241Y-76750951D01*
X92450819Y-76672765D01*
X92401660Y-76659593D01*
X92298088Y-76631841D01*
X92139974Y-76631841D01*
X92046501Y-76656886D01*
X91987242Y-76672765D01*
X91850318Y-76751818D01*
X91850308Y-76751826D01*
X91738516Y-76863618D01*
X91738508Y-76863628D01*
X91659455Y-77000552D01*
X91648746Y-77040520D01*
X91618531Y-77153284D01*
X91618531Y-77311398D01*
X91652779Y-77439214D01*
X91655523Y-77449454D01*
X91653833Y-77520431D01*
X91622912Y-77571160D01*
X91534482Y-77659590D01*
X91534477Y-77659596D01*
X91455424Y-77796520D01*
X91454605Y-77799577D01*
X91414500Y-77949252D01*
X61188900Y-77949252D01*
X61188900Y-76171605D01*
X76089102Y-76171605D01*
X76089102Y-76329719D01*
X76121826Y-76451846D01*
X76130026Y-76482450D01*
X76209079Y-76619374D01*
X76209087Y-76619384D01*
X76320879Y-76731176D01*
X76320884Y-76731180D01*
X76320886Y-76731182D01*
X76320887Y-76731183D01*
X76320889Y-76731184D01*
X76457813Y-76810237D01*
X76457815Y-76810237D01*
X76457818Y-76810239D01*
X76610545Y-76851162D01*
X76610547Y-76851162D01*
X76768657Y-76851162D01*
X76768659Y-76851162D01*
X76921386Y-76810239D01*
X76921389Y-76810237D01*
X76921390Y-76810237D01*
X76982064Y-76775207D01*
X85039709Y-76775207D01*
X85039709Y-76933321D01*
X85057725Y-77000557D01*
X85080633Y-77086052D01*
X85159686Y-77222976D01*
X85159694Y-77222986D01*
X85271486Y-77334778D01*
X85271491Y-77334782D01*
X85271493Y-77334784D01*
X85271494Y-77334785D01*
X85271496Y-77334786D01*
X85408420Y-77413839D01*
X85408422Y-77413839D01*
X85408425Y-77413841D01*
X85561152Y-77454764D01*
X85561154Y-77454764D01*
X85719264Y-77454764D01*
X85719266Y-77454764D01*
X85871993Y-77413841D01*
X85871996Y-77413839D01*
X85871997Y-77413839D01*
X85897951Y-77398854D01*
X85966946Y-77382114D01*
X86034038Y-77405332D01*
X86077927Y-77461138D01*
X86080523Y-77468936D01*
X86081703Y-77471785D01*
X86160757Y-77608712D01*
X86160765Y-77608722D01*
X86272557Y-77720514D01*
X86272562Y-77720518D01*
X86272564Y-77720520D01*
X86272565Y-77720521D01*
X86272567Y-77720522D01*
X86409491Y-77799575D01*
X86409493Y-77799575D01*
X86409496Y-77799577D01*
X86562223Y-77840500D01*
X86562225Y-77840500D01*
X86720335Y-77840500D01*
X86720337Y-77840500D01*
X86873064Y-77799577D01*
X86873067Y-77799575D01*
X86873068Y-77799575D01*
X86974622Y-77740943D01*
X87009996Y-77720520D01*
X87121800Y-77608716D01*
X87178737Y-77510097D01*
X87200855Y-77471788D01*
X87200856Y-77471785D01*
X87200857Y-77471784D01*
X87241780Y-77319057D01*
X87241780Y-77160943D01*
X87200857Y-77008216D01*
X87200855Y-77008213D01*
X87200855Y-77008211D01*
X87121802Y-76871287D01*
X87121794Y-76871277D01*
X87010002Y-76759485D01*
X87009992Y-76759477D01*
X86873068Y-76680424D01*
X86795336Y-76659596D01*
X86720337Y-76639500D01*
X86562223Y-76639500D01*
X86487224Y-76659596D01*
X86409492Y-76680424D01*
X86383533Y-76695412D01*
X86314538Y-76712149D01*
X86247446Y-76688928D01*
X86203559Y-76633120D01*
X86200965Y-76625326D01*
X86199785Y-76622478D01*
X86120731Y-76485551D01*
X86120723Y-76485541D01*
X86008931Y-76373749D01*
X86008921Y-76373741D01*
X85871997Y-76294688D01*
X85820703Y-76280944D01*
X85719266Y-76253764D01*
X85561152Y-76253764D01*
X85467679Y-76278809D01*
X85408420Y-76294688D01*
X85271496Y-76373741D01*
X85271486Y-76373749D01*
X85159694Y-76485541D01*
X85159686Y-76485551D01*
X85080633Y-76622475D01*
X85065106Y-76680423D01*
X85039709Y-76775207D01*
X76982064Y-76775207D01*
X77024077Y-76750951D01*
X77058318Y-76731182D01*
X77084666Y-76704834D01*
X77111647Y-76677854D01*
X77170116Y-76619384D01*
X77170122Y-76619378D01*
X77227201Y-76520514D01*
X77249177Y-76482450D01*
X77249177Y-76482449D01*
X77249179Y-76482446D01*
X77290102Y-76329719D01*
X77290102Y-76171605D01*
X77265177Y-76078583D01*
X77266867Y-76007610D01*
X77306661Y-75948814D01*
X77354272Y-75924269D01*
X77371784Y-75919577D01*
X77508716Y-75840520D01*
X77620520Y-75728716D01*
X77678974Y-75627470D01*
X77699575Y-75591788D01*
X77699575Y-75591787D01*
X77699577Y-75591784D01*
X77740500Y-75439057D01*
X77740500Y-75316629D01*
X126333814Y-75316629D01*
X126333814Y-75474743D01*
X126365175Y-75591784D01*
X126374738Y-75627474D01*
X126453791Y-75764398D01*
X126453799Y-75764408D01*
X126565591Y-75876200D01*
X126565596Y-75876204D01*
X126565598Y-75876206D01*
X126565599Y-75876207D01*
X126565601Y-75876208D01*
X126625603Y-75910850D01*
X126674596Y-75962232D01*
X126688032Y-76031946D01*
X126661646Y-76097857D01*
X126651699Y-76109064D01*
X126569482Y-76191281D01*
X126569477Y-76191287D01*
X126490424Y-76328211D01*
X126478224Y-76373744D01*
X126449500Y-76480943D01*
X126449500Y-76639057D01*
X126474008Y-76730522D01*
X126490424Y-76791788D01*
X126569477Y-76928712D01*
X126569485Y-76928722D01*
X126681277Y-77040514D01*
X126681282Y-77040518D01*
X126681284Y-77040520D01*
X126681285Y-77040521D01*
X126681287Y-77040522D01*
X126818211Y-77119575D01*
X126818213Y-77119575D01*
X126818216Y-77119577D01*
X126970943Y-77160500D01*
X126970945Y-77160500D01*
X127129055Y-77160500D01*
X127129057Y-77160500D01*
X127281784Y-77119577D01*
X127281787Y-77119575D01*
X127281788Y-77119575D01*
X127350250Y-77080048D01*
X127418716Y-77040520D01*
X127530520Y-76928716D01*
X127598923Y-76810237D01*
X127609575Y-76791788D01*
X127609575Y-76791787D01*
X127609577Y-76791784D01*
X127650500Y-76639057D01*
X127650500Y-76480943D01*
X127609577Y-76328216D01*
X127609575Y-76328213D01*
X127609575Y-76328211D01*
X127530522Y-76191287D01*
X127530514Y-76191277D01*
X127418722Y-76079485D01*
X127418712Y-76079477D01*
X127388101Y-76061804D01*
X127358710Y-76044835D01*
X127309717Y-75993452D01*
X127303451Y-75960943D01*
X127989500Y-75960943D01*
X127989500Y-76119057D01*
X128013734Y-76209500D01*
X128030424Y-76271788D01*
X128109477Y-76408712D01*
X128109485Y-76408722D01*
X128221277Y-76520514D01*
X128221282Y-76520518D01*
X128221284Y-76520520D01*
X128221285Y-76520521D01*
X128221287Y-76520522D01*
X128358211Y-76599575D01*
X128358213Y-76599575D01*
X128358216Y-76599577D01*
X128510943Y-76640500D01*
X128510945Y-76640500D01*
X128669055Y-76640500D01*
X128669057Y-76640500D01*
X128821784Y-76599577D01*
X128821787Y-76599575D01*
X128821788Y-76599575D01*
X128890250Y-76560048D01*
X128958716Y-76520520D01*
X129070520Y-76408716D01*
X129070524Y-76408708D01*
X129071253Y-76407760D01*
X129072083Y-76407153D01*
X129076360Y-76402877D01*
X129077026Y-76403543D01*
X129128589Y-76365889D01*
X129199459Y-76361663D01*
X129261364Y-76396424D01*
X129292926Y-76451845D01*
X129330423Y-76591784D01*
X129330424Y-76591786D01*
X129330425Y-76591789D01*
X129409477Y-76728712D01*
X129409485Y-76728722D01*
X129521277Y-76840514D01*
X129521282Y-76840518D01*
X129521284Y-76840520D01*
X129521285Y-76840521D01*
X129521287Y-76840522D01*
X129658211Y-76919575D01*
X129658213Y-76919575D01*
X129658216Y-76919577D01*
X129810943Y-76960500D01*
X129810945Y-76960500D01*
X129969055Y-76960500D01*
X129969057Y-76960500D01*
X130121784Y-76919577D01*
X130121787Y-76919575D01*
X130121788Y-76919575D01*
X130190250Y-76880048D01*
X130258716Y-76840520D01*
X130370520Y-76728716D01*
X130421451Y-76640500D01*
X130449575Y-76591788D01*
X130449575Y-76591787D01*
X130449577Y-76591784D01*
X130490500Y-76439057D01*
X130490500Y-76280943D01*
X130461026Y-76170943D01*
X146239500Y-76170943D01*
X146239500Y-76329057D01*
X146268974Y-76439055D01*
X146280424Y-76481788D01*
X146359477Y-76618712D01*
X146359485Y-76618722D01*
X146471277Y-76730514D01*
X146471282Y-76730518D01*
X146471284Y-76730520D01*
X146471285Y-76730521D01*
X146471287Y-76730522D01*
X146608211Y-76809575D01*
X146608213Y-76809575D01*
X146608216Y-76809577D01*
X146760943Y-76850500D01*
X146760945Y-76850500D01*
X146919055Y-76850500D01*
X146919057Y-76850500D01*
X147071784Y-76809577D01*
X147071787Y-76809575D01*
X147071788Y-76809575D01*
X147158555Y-76759480D01*
X147208716Y-76730520D01*
X147320520Y-76618716D01*
X147377213Y-76520520D01*
X147399575Y-76481788D01*
X147399575Y-76481787D01*
X147399577Y-76481784D01*
X147440500Y-76329057D01*
X147440500Y-76170943D01*
X147399577Y-76018216D01*
X147399575Y-76018213D01*
X147399575Y-76018211D01*
X147320522Y-75881287D01*
X147320514Y-75881277D01*
X147208722Y-75769485D01*
X147208712Y-75769477D01*
X147071788Y-75690424D01*
X147000367Y-75671287D01*
X146919057Y-75649500D01*
X146760943Y-75649500D01*
X146679670Y-75671277D01*
X146608211Y-75690424D01*
X146471287Y-75769477D01*
X146471277Y-75769485D01*
X146359485Y-75881277D01*
X146359477Y-75881287D01*
X146280424Y-76018211D01*
X146264247Y-76078586D01*
X146239500Y-76170943D01*
X130461026Y-76170943D01*
X130449577Y-76128216D01*
X130432049Y-76097857D01*
X130370522Y-75991287D01*
X130370514Y-75991277D01*
X130258722Y-75879485D01*
X130258712Y-75879477D01*
X130121788Y-75800424D01*
X130103743Y-75795589D01*
X129969057Y-75759500D01*
X129810943Y-75759500D01*
X129717470Y-75784545D01*
X129658211Y-75800424D01*
X129521287Y-75879477D01*
X129521277Y-75879485D01*
X129409480Y-75991282D01*
X129408735Y-75992254D01*
X129407897Y-75992865D01*
X129403640Y-75997123D01*
X129402975Y-75996458D01*
X129351393Y-76034116D01*
X129280522Y-76038332D01*
X129218622Y-76003562D01*
X129187073Y-75948154D01*
X129149577Y-75808216D01*
X129149575Y-75808213D01*
X129149575Y-75808211D01*
X129070522Y-75671287D01*
X129070514Y-75671277D01*
X128958722Y-75559485D01*
X128958712Y-75559477D01*
X128821788Y-75480424D01*
X128800578Y-75474741D01*
X128669057Y-75439500D01*
X128510943Y-75439500D01*
X128417470Y-75464545D01*
X128358211Y-75480424D01*
X128221287Y-75559477D01*
X128221277Y-75559485D01*
X128109485Y-75671277D01*
X128109477Y-75671287D01*
X128030424Y-75808211D01*
X128010844Y-75881287D01*
X127989500Y-75960943D01*
X127303451Y-75960943D01*
X127296281Y-75923739D01*
X127322668Y-75857828D01*
X127332607Y-75846628D01*
X127414834Y-75764402D01*
X127459873Y-75686392D01*
X127493889Y-75627474D01*
X127493889Y-75627473D01*
X127493891Y-75627470D01*
X127534814Y-75474743D01*
X127534814Y-75316629D01*
X127493891Y-75163902D01*
X127493889Y-75163899D01*
X127493889Y-75163897D01*
X127414836Y-75026973D01*
X127414828Y-75026963D01*
X127303036Y-74915171D01*
X127303026Y-74915163D01*
X127243755Y-74880943D01*
X151229500Y-74880943D01*
X151229500Y-75039057D01*
X151240265Y-75079232D01*
X151270424Y-75191788D01*
X151349477Y-75328712D01*
X151349485Y-75328722D01*
X151461277Y-75440514D01*
X151461282Y-75440518D01*
X151461284Y-75440520D01*
X151461285Y-75440521D01*
X151461287Y-75440522D01*
X151598211Y-75519575D01*
X151598213Y-75519575D01*
X151598216Y-75519577D01*
X151750943Y-75560500D01*
X151750945Y-75560500D01*
X151909055Y-75560500D01*
X151909057Y-75560500D01*
X152061784Y-75519577D01*
X152061787Y-75519575D01*
X152061788Y-75519575D01*
X152139443Y-75474741D01*
X152198716Y-75440520D01*
X152310520Y-75328716D01*
X152350048Y-75260250D01*
X152389575Y-75191788D01*
X152389575Y-75191787D01*
X152389577Y-75191784D01*
X152430500Y-75039057D01*
X152430500Y-74880943D01*
X152389577Y-74728216D01*
X152389575Y-74728213D01*
X152389575Y-74728211D01*
X152385379Y-74720943D01*
X162139500Y-74720943D01*
X162139500Y-74879057D01*
X162169569Y-74991277D01*
X162180424Y-75031788D01*
X162259477Y-75168712D01*
X162259485Y-75168722D01*
X162371277Y-75280514D01*
X162371282Y-75280518D01*
X162371284Y-75280520D01*
X162371285Y-75280521D01*
X162371287Y-75280522D01*
X162508211Y-75359575D01*
X162508213Y-75359575D01*
X162508216Y-75359577D01*
X162660943Y-75400500D01*
X162660945Y-75400500D01*
X162819055Y-75400500D01*
X162819057Y-75400500D01*
X162971784Y-75359577D01*
X162971787Y-75359575D01*
X162971788Y-75359575D01*
X163055905Y-75311010D01*
X163108716Y-75280520D01*
X163220520Y-75168716D01*
X163299577Y-75031784D01*
X163340500Y-74879057D01*
X163340500Y-74720943D01*
X163299577Y-74568216D01*
X163299575Y-74568213D01*
X163299575Y-74568211D01*
X163220522Y-74431287D01*
X163220514Y-74431277D01*
X163108722Y-74319485D01*
X163108712Y-74319477D01*
X162971788Y-74240424D01*
X162932836Y-74229987D01*
X162819057Y-74199500D01*
X162660943Y-74199500D01*
X162567470Y-74224545D01*
X162508211Y-74240424D01*
X162371287Y-74319477D01*
X162371277Y-74319485D01*
X162259485Y-74431277D01*
X162259477Y-74431287D01*
X162180424Y-74568211D01*
X162180423Y-74568216D01*
X162139500Y-74720943D01*
X152385379Y-74720943D01*
X152310522Y-74591287D01*
X152310514Y-74591277D01*
X152198722Y-74479485D01*
X152198712Y-74479477D01*
X152061788Y-74400424D01*
X152043743Y-74395589D01*
X151909057Y-74359500D01*
X151750943Y-74359500D01*
X151657470Y-74384545D01*
X151598211Y-74400424D01*
X151461287Y-74479477D01*
X151461277Y-74479485D01*
X151349485Y-74591277D01*
X151349477Y-74591287D01*
X151270424Y-74728211D01*
X151270423Y-74728216D01*
X151229500Y-74880943D01*
X127243755Y-74880943D01*
X127166102Y-74836110D01*
X127148057Y-74831275D01*
X127013371Y-74795186D01*
X126855257Y-74795186D01*
X126761784Y-74820231D01*
X126702525Y-74836110D01*
X126565601Y-74915163D01*
X126565591Y-74915171D01*
X126453799Y-75026963D01*
X126453791Y-75026973D01*
X126374738Y-75163897D01*
X126367266Y-75191784D01*
X126333814Y-75316629D01*
X77740500Y-75316629D01*
X77740500Y-75280943D01*
X77699577Y-75128216D01*
X77699575Y-75128213D01*
X77699575Y-75128211D01*
X77620522Y-74991287D01*
X77620514Y-74991277D01*
X77508722Y-74879485D01*
X77508712Y-74879477D01*
X77371788Y-74800424D01*
X77352239Y-74795186D01*
X77219057Y-74759500D01*
X77060943Y-74759500D01*
X76967470Y-74784545D01*
X76908211Y-74800424D01*
X76771287Y-74879477D01*
X76771277Y-74879485D01*
X76659485Y-74991277D01*
X76659477Y-74991287D01*
X76580424Y-75128211D01*
X76563390Y-75191784D01*
X76539500Y-75280943D01*
X76539500Y-75439057D01*
X76561075Y-75519575D01*
X76564424Y-75532075D01*
X76562734Y-75603052D01*
X76522939Y-75661847D01*
X76475332Y-75686392D01*
X76457814Y-75691086D01*
X76320889Y-75770139D01*
X76320879Y-75770147D01*
X76209087Y-75881939D01*
X76209079Y-75881949D01*
X76130026Y-76018873D01*
X76113787Y-76079480D01*
X76089102Y-76171605D01*
X61188900Y-76171605D01*
X61188900Y-74631453D01*
X86403080Y-74631453D01*
X86403080Y-74789567D01*
X86436733Y-74915163D01*
X86444004Y-74942298D01*
X86523057Y-75079222D01*
X86523065Y-75079232D01*
X86634857Y-75191024D01*
X86634862Y-75191028D01*
X86634864Y-75191030D01*
X86634865Y-75191031D01*
X86634867Y-75191032D01*
X86771791Y-75270085D01*
X86771793Y-75270085D01*
X86771796Y-75270087D01*
X86924523Y-75311010D01*
X86924525Y-75311010D01*
X87082635Y-75311010D01*
X87082637Y-75311010D01*
X87235364Y-75270087D01*
X87235367Y-75270085D01*
X87235368Y-75270085D01*
X87358055Y-75199252D01*
X87358055Y-75199251D01*
X87372296Y-75191030D01*
X87484100Y-75079226D01*
X87563157Y-74942294D01*
X87604080Y-74789567D01*
X87604080Y-74631453D01*
X87563157Y-74478726D01*
X87563155Y-74478723D01*
X87563155Y-74478721D01*
X87484102Y-74341797D01*
X87484094Y-74341787D01*
X87372302Y-74229995D01*
X87372292Y-74229987D01*
X87235368Y-74150934D01*
X87217323Y-74146099D01*
X87082637Y-74110010D01*
X86924523Y-74110010D01*
X86831050Y-74135055D01*
X86771791Y-74150934D01*
X86634867Y-74229987D01*
X86634857Y-74229995D01*
X86523065Y-74341787D01*
X86523057Y-74341797D01*
X86444004Y-74478721D01*
X86421124Y-74564109D01*
X86403080Y-74631453D01*
X61188900Y-74631453D01*
X61188900Y-73449252D01*
X111164500Y-73449252D01*
X111164500Y-73607366D01*
X111200589Y-73742052D01*
X111205424Y-73760097D01*
X111284477Y-73897021D01*
X111284485Y-73897031D01*
X111396277Y-74008823D01*
X111396282Y-74008827D01*
X111396284Y-74008829D01*
X111396285Y-74008830D01*
X111396287Y-74008831D01*
X111533211Y-74087884D01*
X111533213Y-74087884D01*
X111533216Y-74087886D01*
X111685943Y-74128809D01*
X111685945Y-74128809D01*
X111844055Y-74128809D01*
X111844057Y-74128809D01*
X111996784Y-74087886D01*
X111996787Y-74087884D01*
X111996788Y-74087884D01*
X112065250Y-74048357D01*
X112133716Y-74008829D01*
X112245520Y-73897025D01*
X112324577Y-73760093D01*
X112365500Y-73607366D01*
X112365500Y-73449252D01*
X112324577Y-73296525D01*
X112324575Y-73296522D01*
X112324575Y-73296520D01*
X112245522Y-73159596D01*
X112245514Y-73159586D01*
X112133722Y-73047794D01*
X112133712Y-73047786D01*
X111996788Y-72968733D01*
X111978743Y-72963898D01*
X111844057Y-72927809D01*
X111685943Y-72927809D01*
X111592470Y-72952854D01*
X111533211Y-72968733D01*
X111396287Y-73047786D01*
X111396277Y-73047794D01*
X111284485Y-73159586D01*
X111284477Y-73159596D01*
X111205424Y-73296520D01*
X111205423Y-73296525D01*
X111164500Y-73449252D01*
X61188900Y-73449252D01*
X61188900Y-71282252D01*
X102359500Y-71282252D01*
X102359500Y-71440366D01*
X102366235Y-71465500D01*
X102400424Y-71593097D01*
X102479477Y-71730021D01*
X102479485Y-71730031D01*
X102591277Y-71841823D01*
X102591282Y-71841827D01*
X102591284Y-71841829D01*
X102591285Y-71841830D01*
X102591287Y-71841831D01*
X102728211Y-71920884D01*
X102728213Y-71920884D01*
X102728216Y-71920886D01*
X102880943Y-71961809D01*
X102880945Y-71961809D01*
X103039055Y-71961809D01*
X103039057Y-71961809D01*
X103191784Y-71920886D01*
X103191787Y-71920884D01*
X103191788Y-71920884D01*
X103260250Y-71881357D01*
X103328716Y-71841829D01*
X103440520Y-71730025D01*
X103519577Y-71593093D01*
X103560500Y-71440366D01*
X103560500Y-71282252D01*
X103519577Y-71129525D01*
X103519575Y-71129522D01*
X103519575Y-71129520D01*
X103440522Y-70992596D01*
X103440514Y-70992586D01*
X103328722Y-70880794D01*
X103328712Y-70880786D01*
X103209233Y-70811805D01*
X103209232Y-70811805D01*
X103191787Y-70801733D01*
X103191784Y-70801732D01*
X103039057Y-70760809D01*
X102880943Y-70760809D01*
X102787470Y-70785854D01*
X102728211Y-70801733D01*
X102591287Y-70880786D01*
X102591277Y-70880794D01*
X102479485Y-70992586D01*
X102479477Y-70992596D01*
X102400424Y-71129520D01*
X102381653Y-71199575D01*
X102359500Y-71282252D01*
X61188900Y-71282252D01*
X61188900Y-70710943D01*
X114819500Y-70710943D01*
X114819500Y-70869057D01*
X114847961Y-70975276D01*
X114860424Y-71021788D01*
X114939477Y-71158712D01*
X114939485Y-71158722D01*
X115051277Y-71270514D01*
X115051282Y-71270518D01*
X115051284Y-71270520D01*
X115051285Y-71270521D01*
X115051287Y-71270522D01*
X115188211Y-71349575D01*
X115188213Y-71349575D01*
X115188216Y-71349577D01*
X115340943Y-71390500D01*
X115340945Y-71390500D01*
X115499055Y-71390500D01*
X115499057Y-71390500D01*
X115651784Y-71349577D01*
X115651787Y-71349575D01*
X115651788Y-71349575D01*
X115755521Y-71289685D01*
X115788716Y-71270520D01*
X115900520Y-71158716D01*
X115950997Y-71071287D01*
X115979575Y-71021788D01*
X115979575Y-71021787D01*
X115979577Y-71021784D01*
X116020500Y-70869057D01*
X116020500Y-70710943D01*
X116008038Y-70664435D01*
X128666008Y-70664435D01*
X128666008Y-70822549D01*
X128702097Y-70957235D01*
X128706932Y-70975280D01*
X128785985Y-71112204D01*
X128785993Y-71112214D01*
X128897785Y-71224006D01*
X128897790Y-71224010D01*
X128897792Y-71224012D01*
X128897793Y-71224013D01*
X128897795Y-71224014D01*
X129034719Y-71303067D01*
X129034721Y-71303067D01*
X129034724Y-71303069D01*
X129187451Y-71343992D01*
X129187453Y-71343992D01*
X129345563Y-71343992D01*
X129345565Y-71343992D01*
X129498292Y-71303069D01*
X129498295Y-71303067D01*
X129498296Y-71303067D01*
X129566758Y-71263540D01*
X129635224Y-71224012D01*
X129747028Y-71112208D01*
X129806781Y-71008712D01*
X129826083Y-70975280D01*
X129826083Y-70975279D01*
X129826085Y-70975276D01*
X129867008Y-70822549D01*
X129867008Y-70664435D01*
X129839277Y-70560943D01*
X130409500Y-70560943D01*
X130409500Y-70719057D01*
X130431653Y-70801732D01*
X130450424Y-70871788D01*
X130529477Y-71008712D01*
X130529485Y-71008722D01*
X130641277Y-71120514D01*
X130641282Y-71120518D01*
X130641284Y-71120520D01*
X130641285Y-71120521D01*
X130641287Y-71120522D01*
X130778211Y-71199575D01*
X130778213Y-71199575D01*
X130778216Y-71199577D01*
X130930943Y-71240500D01*
X130930945Y-71240500D01*
X131089055Y-71240500D01*
X131089057Y-71240500D01*
X131241784Y-71199577D01*
X131241787Y-71199575D01*
X131241788Y-71199575D01*
X131312565Y-71158712D01*
X131378716Y-71120520D01*
X131490520Y-71008716D01*
X131512328Y-70970943D01*
X155829500Y-70970943D01*
X155829500Y-71129057D01*
X155854943Y-71224012D01*
X155870424Y-71281788D01*
X155949477Y-71418712D01*
X155949485Y-71418722D01*
X156061277Y-71530514D01*
X156061282Y-71530518D01*
X156061284Y-71530520D01*
X156061285Y-71530521D01*
X156061287Y-71530522D01*
X156198211Y-71609575D01*
X156198213Y-71609575D01*
X156198216Y-71609577D01*
X156350943Y-71650500D01*
X156350945Y-71650500D01*
X156509055Y-71650500D01*
X156509057Y-71650500D01*
X156661784Y-71609577D01*
X156661787Y-71609575D01*
X156661788Y-71609575D01*
X156730250Y-71570048D01*
X156798716Y-71530520D01*
X156910520Y-71418716D01*
X156943875Y-71360943D01*
X157769500Y-71360943D01*
X157769500Y-71519057D01*
X157789338Y-71593093D01*
X157810424Y-71671788D01*
X157889477Y-71808712D01*
X157889485Y-71808722D01*
X158001277Y-71920514D01*
X158001281Y-71920517D01*
X158001284Y-71920520D01*
X158001287Y-71920521D01*
X158007836Y-71925547D01*
X158006370Y-71927457D01*
X158046876Y-71969925D01*
X158060323Y-72039636D01*
X158033948Y-72105551D01*
X158023988Y-72116775D01*
X157939482Y-72201281D01*
X157939477Y-72201287D01*
X157860424Y-72338211D01*
X157860423Y-72338216D01*
X157819500Y-72490943D01*
X157819500Y-72649057D01*
X157855589Y-72783743D01*
X157860424Y-72801788D01*
X157939477Y-72938712D01*
X157939485Y-72938722D01*
X158051277Y-73050514D01*
X158051282Y-73050518D01*
X158051284Y-73050520D01*
X158051285Y-73050521D01*
X158051287Y-73050522D01*
X158188211Y-73129575D01*
X158188213Y-73129575D01*
X158188216Y-73129577D01*
X158340943Y-73170500D01*
X158340945Y-73170500D01*
X158499055Y-73170500D01*
X158499057Y-73170500D01*
X158651784Y-73129577D01*
X158651787Y-73129575D01*
X158651788Y-73129575D01*
X158720250Y-73090048D01*
X158788716Y-73050520D01*
X158900520Y-72938716D01*
X158979577Y-72801784D01*
X159020500Y-72649057D01*
X159020500Y-72490943D01*
X158979577Y-72338216D01*
X158979575Y-72338213D01*
X158979575Y-72338211D01*
X158900522Y-72201287D01*
X158900514Y-72201277D01*
X158788722Y-72089485D01*
X158788717Y-72089481D01*
X158788716Y-72089480D01*
X158788713Y-72089478D01*
X158782164Y-72084453D01*
X158783629Y-72082543D01*
X158743119Y-72040065D01*
X158729677Y-71970352D01*
X158756058Y-71904439D01*
X158766004Y-71893231D01*
X158850520Y-71808716D01*
X158929577Y-71671784D01*
X158970500Y-71519057D01*
X158970500Y-71360943D01*
X158929577Y-71208216D01*
X158929575Y-71208213D01*
X158929575Y-71208211D01*
X158850522Y-71071287D01*
X158850514Y-71071277D01*
X158738722Y-70959485D01*
X158738712Y-70959477D01*
X158601788Y-70880424D01*
X158583743Y-70875589D01*
X158449057Y-70839500D01*
X158290943Y-70839500D01*
X158197470Y-70864545D01*
X158138211Y-70880424D01*
X158001287Y-70959477D01*
X158001277Y-70959485D01*
X157889485Y-71071277D01*
X157889477Y-71071287D01*
X157810424Y-71208211D01*
X157793730Y-71270514D01*
X157769500Y-71360943D01*
X156943875Y-71360943D01*
X156970578Y-71314692D01*
X156985016Y-71289685D01*
X156985016Y-71289684D01*
X156985147Y-71289455D01*
X156989577Y-71281784D01*
X157030500Y-71129057D01*
X157030500Y-70970943D01*
X156989577Y-70818216D01*
X156989575Y-70818213D01*
X156989575Y-70818211D01*
X156934876Y-70723469D01*
X169604500Y-70723469D01*
X169604500Y-70856531D01*
X169613084Y-70899685D01*
X169630460Y-70987036D01*
X169630461Y-70987039D01*
X169681380Y-71109969D01*
X169741252Y-71199575D01*
X169755305Y-71220606D01*
X169849394Y-71314695D01*
X169960031Y-71388620D01*
X170082964Y-71439540D01*
X170213469Y-71465500D01*
X170213474Y-71465500D01*
X170346526Y-71465500D01*
X170346531Y-71465500D01*
X170477036Y-71439540D01*
X170599969Y-71388620D01*
X170710606Y-71314695D01*
X170804695Y-71220606D01*
X170878620Y-71109969D01*
X170929540Y-70987036D01*
X170955500Y-70856531D01*
X170955500Y-70723469D01*
X170929540Y-70592964D01*
X170878620Y-70470031D01*
X170804695Y-70359394D01*
X170710606Y-70265305D01*
X170707114Y-70262972D01*
X170599969Y-70191380D01*
X170477039Y-70140461D01*
X170477036Y-70140460D01*
X170346531Y-70114500D01*
X170213469Y-70114500D01*
X170148216Y-70127480D01*
X170082963Y-70140460D01*
X170082960Y-70140461D01*
X169960030Y-70191380D01*
X169849397Y-70265302D01*
X169849391Y-70265307D01*
X169755307Y-70359391D01*
X169755302Y-70359397D01*
X169681380Y-70470030D01*
X169630461Y-70592960D01*
X169630460Y-70592963D01*
X169630460Y-70592964D01*
X169604500Y-70723469D01*
X156934876Y-70723469D01*
X156910522Y-70681287D01*
X156910514Y-70681277D01*
X156798722Y-70569485D01*
X156798712Y-70569477D01*
X156661788Y-70490424D01*
X156643743Y-70485589D01*
X156509057Y-70449500D01*
X156350943Y-70449500D01*
X156274324Y-70470030D01*
X156198211Y-70490424D01*
X156061287Y-70569477D01*
X156061277Y-70569485D01*
X155949485Y-70681277D01*
X155949477Y-70681287D01*
X155870424Y-70818211D01*
X155856068Y-70871788D01*
X155829500Y-70970943D01*
X131512328Y-70970943D01*
X131518948Y-70959477D01*
X131553469Y-70899685D01*
X131569575Y-70871788D01*
X131569575Y-70871787D01*
X131569577Y-70871784D01*
X131610500Y-70719057D01*
X131610500Y-70560943D01*
X131569577Y-70408216D01*
X131569575Y-70408213D01*
X131569575Y-70408211D01*
X131490522Y-70271287D01*
X131490514Y-70271277D01*
X131378722Y-70159485D01*
X131378712Y-70159477D01*
X131241788Y-70080424D01*
X131169404Y-70061029D01*
X131089057Y-70039500D01*
X130930943Y-70039500D01*
X130854018Y-70060112D01*
X130778211Y-70080424D01*
X130641287Y-70159477D01*
X130641277Y-70159485D01*
X130529485Y-70271277D01*
X130529477Y-70271287D01*
X130450424Y-70408211D01*
X130444446Y-70430522D01*
X130409500Y-70560943D01*
X129839277Y-70560943D01*
X129826085Y-70511708D01*
X129826083Y-70511705D01*
X129826083Y-70511703D01*
X129747030Y-70374779D01*
X129747022Y-70374769D01*
X129635230Y-70262977D01*
X129635220Y-70262969D01*
X129498296Y-70183916D01*
X129456911Y-70172827D01*
X129345565Y-70142992D01*
X129187451Y-70142992D01*
X129093978Y-70168037D01*
X129034719Y-70183916D01*
X128897795Y-70262969D01*
X128897785Y-70262977D01*
X128785993Y-70374769D01*
X128785985Y-70374779D01*
X128706932Y-70511703D01*
X128693738Y-70560944D01*
X128666008Y-70664435D01*
X116008038Y-70664435D01*
X115979577Y-70558216D01*
X115979575Y-70558213D01*
X115979575Y-70558211D01*
X115900522Y-70421287D01*
X115900514Y-70421277D01*
X115788722Y-70309485D01*
X115788712Y-70309477D01*
X115651788Y-70230424D01*
X115633743Y-70225589D01*
X115499057Y-70189500D01*
X115340943Y-70189500D01*
X115247470Y-70214545D01*
X115188211Y-70230424D01*
X115051287Y-70309477D01*
X115051277Y-70309485D01*
X114939485Y-70421277D01*
X114939477Y-70421287D01*
X114860424Y-70558211D01*
X114851112Y-70592964D01*
X114819500Y-70710943D01*
X61188900Y-70710943D01*
X61188900Y-69870943D01*
X64109500Y-69870943D01*
X64109500Y-70029057D01*
X64139350Y-70140460D01*
X64150424Y-70181788D01*
X64229477Y-70318712D01*
X64229485Y-70318722D01*
X64341277Y-70430514D01*
X64341282Y-70430518D01*
X64341284Y-70430520D01*
X64341285Y-70430521D01*
X64341287Y-70430522D01*
X64478211Y-70509575D01*
X64478213Y-70509575D01*
X64478216Y-70509577D01*
X64630943Y-70550500D01*
X64630945Y-70550500D01*
X64789055Y-70550500D01*
X64789057Y-70550500D01*
X64941784Y-70509577D01*
X64941787Y-70509575D01*
X64941788Y-70509575D01*
X65045841Y-70449500D01*
X65078716Y-70430520D01*
X65190520Y-70318716D01*
X65269577Y-70181784D01*
X65310500Y-70029057D01*
X65310500Y-69870943D01*
X65269577Y-69718216D01*
X65269575Y-69718213D01*
X65269575Y-69718211D01*
X65240057Y-69667085D01*
X65208452Y-69612343D01*
X65720239Y-69612343D01*
X65720239Y-69770457D01*
X65747164Y-69870943D01*
X65761163Y-69923188D01*
X65840216Y-70060112D01*
X65840224Y-70060122D01*
X65952016Y-70171914D01*
X65952021Y-70171918D01*
X65952023Y-70171920D01*
X65952024Y-70171921D01*
X65952026Y-70171922D01*
X66088950Y-70250975D01*
X66088952Y-70250975D01*
X66088955Y-70250977D01*
X66241682Y-70291900D01*
X66241684Y-70291900D01*
X66399794Y-70291900D01*
X66399796Y-70291900D01*
X66552523Y-70250977D01*
X66552526Y-70250975D01*
X66552527Y-70250975D01*
X66668677Y-70183916D01*
X66689455Y-70171920D01*
X66801259Y-70060116D01*
X66879790Y-69924095D01*
X66880314Y-69923188D01*
X66880314Y-69923187D01*
X66880316Y-69923184D01*
X66921239Y-69770457D01*
X66921239Y-69613250D01*
X87914500Y-69613250D01*
X87914500Y-69771364D01*
X87941182Y-69870943D01*
X87955424Y-69924095D01*
X88034477Y-70061019D01*
X88034485Y-70061029D01*
X88146277Y-70172821D01*
X88146282Y-70172825D01*
X88146284Y-70172827D01*
X88146285Y-70172828D01*
X88146287Y-70172829D01*
X88283211Y-70251882D01*
X88283213Y-70251882D01*
X88283216Y-70251884D01*
X88435943Y-70292807D01*
X88435945Y-70292807D01*
X88594055Y-70292807D01*
X88594057Y-70292807D01*
X88746784Y-70251884D01*
X88746787Y-70251882D01*
X88746788Y-70251882D01*
X88864509Y-70183916D01*
X88883716Y-70172827D01*
X88995520Y-70061023D01*
X89074577Y-69924091D01*
X89115500Y-69771364D01*
X89115500Y-69613250D01*
X89074577Y-69460523D01*
X89074575Y-69460520D01*
X89074575Y-69460518D01*
X89010336Y-69349252D01*
X105514500Y-69349252D01*
X105514500Y-69507366D01*
X105542872Y-69613251D01*
X105555424Y-69660097D01*
X105634477Y-69797021D01*
X105634485Y-69797031D01*
X105746277Y-69908823D01*
X105746282Y-69908827D01*
X105746284Y-69908829D01*
X105746285Y-69908830D01*
X105746287Y-69908831D01*
X105883211Y-69987884D01*
X105883213Y-69987884D01*
X105883216Y-69987886D01*
X106035943Y-70028809D01*
X106035945Y-70028809D01*
X106194055Y-70028809D01*
X106194057Y-70028809D01*
X106346784Y-69987886D01*
X106346787Y-69987884D01*
X106346788Y-69987884D01*
X106458852Y-69923184D01*
X106483716Y-69908829D01*
X106595520Y-69797025D01*
X106674577Y-69660093D01*
X106715500Y-69507366D01*
X106715500Y-69349252D01*
X106674577Y-69196525D01*
X106674575Y-69196522D01*
X106674575Y-69196520D01*
X106595522Y-69059596D01*
X106595514Y-69059586D01*
X106483722Y-68947794D01*
X106483712Y-68947786D01*
X106346788Y-68868733D01*
X106328743Y-68863898D01*
X106194057Y-68827809D01*
X106035943Y-68827809D01*
X105942470Y-68852854D01*
X105883211Y-68868733D01*
X105746287Y-68947786D01*
X105746277Y-68947794D01*
X105634485Y-69059586D01*
X105634477Y-69059596D01*
X105555424Y-69196520D01*
X105551332Y-69211792D01*
X105514500Y-69349252D01*
X89010336Y-69349252D01*
X88995522Y-69323594D01*
X88995514Y-69323584D01*
X88883722Y-69211792D01*
X88883712Y-69211784D01*
X88746788Y-69132731D01*
X88728743Y-69127896D01*
X88594057Y-69091807D01*
X88435943Y-69091807D01*
X88342470Y-69116852D01*
X88283211Y-69132731D01*
X88146287Y-69211784D01*
X88146277Y-69211792D01*
X88034485Y-69323584D01*
X88034477Y-69323594D01*
X87955424Y-69460518D01*
X87942872Y-69507364D01*
X87914500Y-69613250D01*
X66921239Y-69613250D01*
X66921239Y-69612343D01*
X66880316Y-69459616D01*
X66880314Y-69459613D01*
X66880314Y-69459611D01*
X66801261Y-69322687D01*
X66801253Y-69322677D01*
X66689461Y-69210885D01*
X66689451Y-69210877D01*
X66552527Y-69131824D01*
X66534482Y-69126989D01*
X66399796Y-69090900D01*
X66241682Y-69090900D01*
X66148209Y-69115945D01*
X66088950Y-69131824D01*
X65952026Y-69210877D01*
X65952016Y-69210885D01*
X65840224Y-69322677D01*
X65840216Y-69322687D01*
X65761163Y-69459611D01*
X65748368Y-69507364D01*
X65720239Y-69612343D01*
X65208452Y-69612343D01*
X65190522Y-69581287D01*
X65190514Y-69581277D01*
X65078722Y-69469485D01*
X65078712Y-69469477D01*
X64941788Y-69390424D01*
X64923743Y-69385589D01*
X64789057Y-69349500D01*
X64630943Y-69349500D01*
X64537470Y-69374545D01*
X64478211Y-69390424D01*
X64341287Y-69469477D01*
X64341277Y-69469485D01*
X64229485Y-69581277D01*
X64229477Y-69581287D01*
X64150424Y-69718211D01*
X64136182Y-69771364D01*
X64109500Y-69870943D01*
X61188900Y-69870943D01*
X61188900Y-66996871D01*
X87043776Y-66996871D01*
X87043776Y-67154985D01*
X87070998Y-67256580D01*
X87084700Y-67307716D01*
X87163753Y-67444640D01*
X87163761Y-67444650D01*
X87250602Y-67531491D01*
X87284628Y-67593803D01*
X87279563Y-67664618D01*
X87270627Y-67683585D01*
X87205424Y-67796521D01*
X87205423Y-67796525D01*
X87164500Y-67949252D01*
X87164500Y-68107366D01*
X87194843Y-68220606D01*
X87205424Y-68260097D01*
X87284477Y-68397021D01*
X87284485Y-68397031D01*
X87396277Y-68508823D01*
X87396282Y-68508827D01*
X87396284Y-68508829D01*
X87396285Y-68508830D01*
X87396287Y-68508831D01*
X87533211Y-68587884D01*
X87533213Y-68587884D01*
X87533216Y-68587886D01*
X87685943Y-68628809D01*
X87685945Y-68628809D01*
X87844055Y-68628809D01*
X87844057Y-68628809D01*
X87987954Y-68590252D01*
X94866500Y-68590252D01*
X94866500Y-68748366D01*
X94887787Y-68827809D01*
X94907424Y-68901097D01*
X94986477Y-69038021D01*
X94986485Y-69038031D01*
X95098277Y-69149823D01*
X95098282Y-69149827D01*
X95098284Y-69149829D01*
X95098285Y-69149830D01*
X95098287Y-69149831D01*
X95235211Y-69228884D01*
X95235213Y-69228884D01*
X95235216Y-69228886D01*
X95387943Y-69269809D01*
X95387945Y-69269809D01*
X95546055Y-69269809D01*
X95546057Y-69269809D01*
X95698784Y-69228886D01*
X95835716Y-69149829D01*
X95947520Y-69038025D01*
X95987048Y-68969559D01*
X96026575Y-68901097D01*
X96026575Y-68901096D01*
X96026577Y-68901093D01*
X96067500Y-68748366D01*
X96067500Y-68590252D01*
X96026577Y-68437525D01*
X96026575Y-68437522D01*
X96026575Y-68437520D01*
X95947522Y-68300596D01*
X95947514Y-68300586D01*
X95835722Y-68188794D01*
X95835712Y-68188786D01*
X95698788Y-68109733D01*
X95680743Y-68104898D01*
X95546057Y-68068809D01*
X95387943Y-68068809D01*
X95324211Y-68085886D01*
X95235211Y-68109733D01*
X95098287Y-68188786D01*
X95098277Y-68188794D01*
X94986485Y-68300586D01*
X94986477Y-68300596D01*
X94907424Y-68437520D01*
X94888319Y-68508823D01*
X94866500Y-68590252D01*
X87987954Y-68590252D01*
X87996784Y-68587886D01*
X87996787Y-68587884D01*
X87996788Y-68587884D01*
X88065250Y-68548357D01*
X88133716Y-68508829D01*
X88133722Y-68508823D01*
X88149647Y-68492899D01*
X88245514Y-68397031D01*
X88245520Y-68397025D01*
X88301199Y-68300586D01*
X88324575Y-68260097D01*
X88324575Y-68260096D01*
X88324577Y-68260093D01*
X88365500Y-68107366D01*
X88365500Y-67949252D01*
X88324577Y-67796525D01*
X88324575Y-67796521D01*
X88324575Y-67796520D01*
X88245522Y-67659596D01*
X88245514Y-67659586D01*
X88158673Y-67572745D01*
X88144203Y-67546246D01*
X93729205Y-67546246D01*
X93729205Y-67704360D01*
X93763004Y-67830500D01*
X93770129Y-67857091D01*
X93849182Y-67994015D01*
X93849190Y-67994025D01*
X93960982Y-68105817D01*
X93960987Y-68105821D01*
X93960989Y-68105823D01*
X93960990Y-68105824D01*
X93960992Y-68105825D01*
X94097916Y-68184878D01*
X94097918Y-68184878D01*
X94097921Y-68184880D01*
X94250648Y-68225803D01*
X94250650Y-68225803D01*
X94408760Y-68225803D01*
X94408762Y-68225803D01*
X94561489Y-68184880D01*
X94561492Y-68184878D01*
X94561493Y-68184878D01*
X94662072Y-68126809D01*
X94698421Y-68105823D01*
X94810225Y-67994019D01*
X94869734Y-67890945D01*
X94889280Y-67857091D01*
X94889280Y-67857090D01*
X94889282Y-67857087D01*
X94930205Y-67704360D01*
X94930205Y-67546246D01*
X94889282Y-67393519D01*
X94889280Y-67393516D01*
X94889280Y-67393514D01*
X94810227Y-67256590D01*
X94810219Y-67256580D01*
X94698427Y-67144788D01*
X94698417Y-67144780D01*
X94561493Y-67065727D01*
X94499279Y-67049057D01*
X94408762Y-67024803D01*
X94250648Y-67024803D01*
X94160138Y-67049055D01*
X94097916Y-67065727D01*
X93960992Y-67144780D01*
X93960982Y-67144788D01*
X93849190Y-67256580D01*
X93849182Y-67256590D01*
X93770129Y-67393514D01*
X93755730Y-67447252D01*
X93729205Y-67546246D01*
X88144203Y-67546246D01*
X88124647Y-67510433D01*
X88129712Y-67439618D01*
X88138649Y-67420650D01*
X88203851Y-67307716D01*
X88203851Y-67307715D01*
X88203853Y-67307712D01*
X88244776Y-67154985D01*
X88244776Y-66996871D01*
X88203853Y-66844144D01*
X88203851Y-66844141D01*
X88203851Y-66844139D01*
X88124798Y-66707215D01*
X88124790Y-66707205D01*
X88084597Y-66667012D01*
X88050571Y-66604700D01*
X88055636Y-66533885D01*
X88098183Y-66477049D01*
X88141076Y-66456212D01*
X88246784Y-66427888D01*
X88246787Y-66427886D01*
X88246788Y-66427886D01*
X88362477Y-66361093D01*
X88383716Y-66348831D01*
X88495520Y-66237027D01*
X88574577Y-66100095D01*
X88587932Y-66050252D01*
X93015500Y-66050252D01*
X93015500Y-66208366D01*
X93033951Y-66277226D01*
X93056424Y-66361097D01*
X93135477Y-66498021D01*
X93135485Y-66498031D01*
X93247277Y-66609823D01*
X93247282Y-66609827D01*
X93247284Y-66609829D01*
X93247285Y-66609830D01*
X93247287Y-66609831D01*
X93384211Y-66688884D01*
X93384213Y-66688884D01*
X93384216Y-66688886D01*
X93536943Y-66729809D01*
X93536945Y-66729809D01*
X93695055Y-66729809D01*
X93695057Y-66729809D01*
X93847784Y-66688886D01*
X93847787Y-66688884D01*
X93847788Y-66688884D01*
X93916250Y-66649357D01*
X93984716Y-66609829D01*
X94096520Y-66498025D01*
X94147137Y-66410353D01*
X94175575Y-66361097D01*
X94175575Y-66361096D01*
X94175577Y-66361093D01*
X94216500Y-66208366D01*
X94216500Y-66050252D01*
X94175577Y-65897525D01*
X94175575Y-65897522D01*
X94175575Y-65897520D01*
X94096522Y-65760596D01*
X94096514Y-65760586D01*
X93984722Y-65648794D01*
X93984712Y-65648786D01*
X93847788Y-65569733D01*
X93829743Y-65564898D01*
X93695057Y-65528809D01*
X93536943Y-65528809D01*
X93443470Y-65553854D01*
X93384211Y-65569733D01*
X93247287Y-65648786D01*
X93247277Y-65648794D01*
X93135485Y-65760586D01*
X93135477Y-65760596D01*
X93056424Y-65897520D01*
X93041906Y-65951704D01*
X93015500Y-66050252D01*
X88587932Y-66050252D01*
X88615500Y-65947368D01*
X88615500Y-65789254D01*
X88574577Y-65636527D01*
X88574575Y-65636524D01*
X88574575Y-65636522D01*
X88495522Y-65499598D01*
X88495514Y-65499588D01*
X88383722Y-65387796D01*
X88383715Y-65387790D01*
X88383107Y-65387439D01*
X88382592Y-65387142D01*
X88246788Y-65308735D01*
X88228743Y-65303900D01*
X88162988Y-65286281D01*
X94691246Y-65286281D01*
X94691246Y-65444395D01*
X94713865Y-65528809D01*
X94732170Y-65597126D01*
X94811223Y-65734050D01*
X94811231Y-65734060D01*
X94923023Y-65845852D01*
X94923028Y-65845856D01*
X94923030Y-65845858D01*
X94923031Y-65845859D01*
X94923033Y-65845860D01*
X95059957Y-65924913D01*
X95059959Y-65924913D01*
X95059962Y-65924915D01*
X95212689Y-65965838D01*
X95212691Y-65965838D01*
X95370801Y-65965838D01*
X95370803Y-65965838D01*
X95523530Y-65924915D01*
X95523533Y-65924913D01*
X95523534Y-65924913D01*
X95631448Y-65862609D01*
X95660462Y-65845858D01*
X95772266Y-65734054D01*
X95811794Y-65665588D01*
X95851321Y-65597126D01*
X95851321Y-65597125D01*
X95851323Y-65597122D01*
X95892246Y-65444395D01*
X95892246Y-65286281D01*
X95851323Y-65133554D01*
X95851321Y-65133551D01*
X95851321Y-65133549D01*
X95772268Y-64996625D01*
X95772260Y-64996615D01*
X95660468Y-64884823D01*
X95660458Y-64884815D01*
X95523534Y-64805762D01*
X95456819Y-64787886D01*
X95370803Y-64764838D01*
X95212689Y-64764838D01*
X95126680Y-64787884D01*
X95059957Y-64805762D01*
X94923033Y-64884815D01*
X94923023Y-64884823D01*
X94811231Y-64996615D01*
X94811223Y-64996625D01*
X94732170Y-65133549D01*
X94717087Y-65189842D01*
X94691246Y-65286281D01*
X88162988Y-65286281D01*
X88094057Y-65267811D01*
X87935943Y-65267811D01*
X87842470Y-65292856D01*
X87783211Y-65308735D01*
X87646287Y-65387788D01*
X87646277Y-65387796D01*
X87534485Y-65499588D01*
X87534477Y-65499598D01*
X87455424Y-65636522D01*
X87453328Y-65644344D01*
X87414500Y-65789254D01*
X87414500Y-65947368D01*
X87431117Y-66009382D01*
X87455424Y-66100099D01*
X87534477Y-66237023D01*
X87534485Y-66237033D01*
X87574678Y-66277226D01*
X87608704Y-66339538D01*
X87603639Y-66410353D01*
X87561092Y-66467189D01*
X87518195Y-66488027D01*
X87412490Y-66516351D01*
X87275563Y-66595405D01*
X87275553Y-66595413D01*
X87163761Y-66707205D01*
X87163753Y-66707215D01*
X87084700Y-66844139D01*
X87078232Y-66868278D01*
X87043776Y-66996871D01*
X61188900Y-66996871D01*
X61188900Y-65320943D01*
X67359500Y-65320943D01*
X67359500Y-65479057D01*
X67395589Y-65613743D01*
X67400424Y-65631788D01*
X67479477Y-65768712D01*
X67479485Y-65768722D01*
X67591277Y-65880514D01*
X67591282Y-65880518D01*
X67591284Y-65880520D01*
X67591285Y-65880521D01*
X67591287Y-65880522D01*
X67728211Y-65959575D01*
X67728213Y-65959575D01*
X67728216Y-65959577D01*
X67880943Y-66000500D01*
X67880945Y-66000500D01*
X68039055Y-66000500D01*
X68039057Y-66000500D01*
X68191784Y-65959577D01*
X68191787Y-65959575D01*
X68191788Y-65959575D01*
X68312230Y-65890038D01*
X68328716Y-65880520D01*
X68440520Y-65768716D01*
X68482502Y-65696001D01*
X68519575Y-65631788D01*
X68519575Y-65631787D01*
X68519577Y-65631784D01*
X68560500Y-65479057D01*
X68560500Y-65320943D01*
X68519577Y-65168216D01*
X68519575Y-65168213D01*
X68519575Y-65168211D01*
X68440522Y-65031287D01*
X68440514Y-65031277D01*
X68328722Y-64919485D01*
X68328712Y-64919477D01*
X68191788Y-64840424D01*
X68148440Y-64828809D01*
X68039057Y-64799500D01*
X67880943Y-64799500D01*
X67787470Y-64824545D01*
X67728211Y-64840424D01*
X67591287Y-64919477D01*
X67591277Y-64919485D01*
X67479485Y-65031277D01*
X67479477Y-65031287D01*
X67400424Y-65168211D01*
X67400423Y-65168216D01*
X67359500Y-65320943D01*
X61188900Y-65320943D01*
X61188900Y-64621673D01*
X98009700Y-64621673D01*
X98009700Y-64741345D01*
X98036247Y-64840423D01*
X98040674Y-64856944D01*
X98100506Y-64960575D01*
X98100514Y-64960585D01*
X98126043Y-64986114D01*
X98160069Y-65048426D01*
X98155004Y-65119241D01*
X98126043Y-65164304D01*
X98100514Y-65189832D01*
X98100506Y-65189842D01*
X98040674Y-65293473D01*
X98023357Y-65358100D01*
X98009700Y-65409073D01*
X98009700Y-65528745D01*
X98028021Y-65597122D01*
X98040674Y-65644344D01*
X98100506Y-65747975D01*
X98100514Y-65747985D01*
X98126043Y-65773514D01*
X98160069Y-65835826D01*
X98155004Y-65906641D01*
X98126043Y-65951704D01*
X98100514Y-65977232D01*
X98100506Y-65977242D01*
X98040674Y-66080873D01*
X98025163Y-66138764D01*
X98009700Y-66196473D01*
X98009700Y-66316145D01*
X98034961Y-66410423D01*
X98040674Y-66431744D01*
X98100506Y-66535375D01*
X98100514Y-66535385D01*
X98126043Y-66560914D01*
X98160069Y-66623226D01*
X98155004Y-66694041D01*
X98126043Y-66739104D01*
X98100514Y-66764632D01*
X98100506Y-66764642D01*
X98040674Y-66868273D01*
X98040673Y-66868278D01*
X98009700Y-66983873D01*
X98009700Y-67103545D01*
X98023483Y-67154983D01*
X98040674Y-67219144D01*
X98100506Y-67322775D01*
X98100514Y-67322785D01*
X98126043Y-67348314D01*
X98160069Y-67410626D01*
X98155004Y-67481441D01*
X98126043Y-67526504D01*
X98100514Y-67552032D01*
X98100506Y-67552042D01*
X98040674Y-67655673D01*
X98033195Y-67683585D01*
X98009700Y-67771273D01*
X98009700Y-67890945D01*
X98030769Y-67969577D01*
X98040674Y-68006544D01*
X98100506Y-68110175D01*
X98100514Y-68110185D01*
X98185123Y-68194794D01*
X98185128Y-68194798D01*
X98185130Y-68194800D01*
X98185131Y-68194801D01*
X98185133Y-68194802D01*
X98288764Y-68254634D01*
X98288766Y-68254634D01*
X98288769Y-68254636D01*
X98404364Y-68285609D01*
X98404366Y-68285609D01*
X98524034Y-68285609D01*
X98524036Y-68285609D01*
X98639631Y-68254636D01*
X98639634Y-68254634D01*
X98639635Y-68254634D01*
X98698580Y-68220602D01*
X98743270Y-68194800D01*
X98753192Y-68184878D01*
X98768805Y-68169266D01*
X98831117Y-68135240D01*
X98901932Y-68140305D01*
X98946995Y-68169266D01*
X98972523Y-68194794D01*
X98972528Y-68194798D01*
X98972530Y-68194800D01*
X98972531Y-68194801D01*
X98972533Y-68194802D01*
X99076164Y-68254634D01*
X99076166Y-68254634D01*
X99076169Y-68254636D01*
X99191764Y-68285609D01*
X99191766Y-68285609D01*
X99311434Y-68285609D01*
X99311436Y-68285609D01*
X99427031Y-68254636D01*
X99427034Y-68254634D01*
X99427035Y-68254634D01*
X99485980Y-68220602D01*
X99530670Y-68194800D01*
X99540592Y-68184878D01*
X99556205Y-68169266D01*
X99618517Y-68135240D01*
X99689332Y-68140305D01*
X99734395Y-68169266D01*
X99759923Y-68194794D01*
X99759928Y-68194798D01*
X99759930Y-68194800D01*
X99759931Y-68194801D01*
X99759933Y-68194802D01*
X99863564Y-68254634D01*
X99863566Y-68254634D01*
X99863569Y-68254636D01*
X99979164Y-68285609D01*
X99979166Y-68285609D01*
X100098834Y-68285609D01*
X100098836Y-68285609D01*
X100214431Y-68254636D01*
X100214434Y-68254634D01*
X100214435Y-68254634D01*
X100273380Y-68220602D01*
X100318070Y-68194800D01*
X100327992Y-68184878D01*
X100343605Y-68169266D01*
X100405917Y-68135240D01*
X100476732Y-68140305D01*
X100521795Y-68169266D01*
X100547323Y-68194794D01*
X100547328Y-68194798D01*
X100547330Y-68194800D01*
X100547331Y-68194801D01*
X100547333Y-68194802D01*
X100650964Y-68254634D01*
X100650966Y-68254634D01*
X100650969Y-68254636D01*
X100766564Y-68285609D01*
X100766566Y-68285609D01*
X100886234Y-68285609D01*
X100886236Y-68285609D01*
X101001831Y-68254636D01*
X101001834Y-68254634D01*
X101001835Y-68254634D01*
X101060780Y-68220602D01*
X101105470Y-68194800D01*
X101115392Y-68184878D01*
X101131005Y-68169266D01*
X101193317Y-68135240D01*
X101264132Y-68140305D01*
X101309195Y-68169266D01*
X101334723Y-68194794D01*
X101334728Y-68194798D01*
X101334730Y-68194800D01*
X101334731Y-68194801D01*
X101334733Y-68194802D01*
X101438364Y-68254634D01*
X101438366Y-68254634D01*
X101438369Y-68254636D01*
X101553964Y-68285609D01*
X101553966Y-68285609D01*
X101673634Y-68285609D01*
X101673636Y-68285609D01*
X101789231Y-68254636D01*
X101789234Y-68254634D01*
X101789235Y-68254634D01*
X101848180Y-68220602D01*
X101892870Y-68194800D01*
X101977491Y-68110179D01*
X102037327Y-68006540D01*
X102068300Y-67890945D01*
X102068300Y-67771273D01*
X102037327Y-67655678D01*
X102037325Y-67655675D01*
X102037325Y-67655673D01*
X101977493Y-67552042D01*
X101977485Y-67552032D01*
X101951957Y-67526504D01*
X101917931Y-67464192D01*
X101919143Y-67447252D01*
X105407500Y-67447252D01*
X105407500Y-67605366D01*
X105439146Y-67723469D01*
X105448424Y-67758097D01*
X105527477Y-67895021D01*
X105527485Y-67895031D01*
X105639277Y-68006823D01*
X105639282Y-68006827D01*
X105639284Y-68006829D01*
X105639285Y-68006830D01*
X105639287Y-68006831D01*
X105776211Y-68085884D01*
X105776213Y-68085884D01*
X105776216Y-68085886D01*
X105928943Y-68126809D01*
X105928945Y-68126809D01*
X106087055Y-68126809D01*
X106087057Y-68126809D01*
X106239784Y-68085886D01*
X106239787Y-68085884D01*
X106239788Y-68085884D01*
X106308250Y-68046357D01*
X106376716Y-68006829D01*
X106488520Y-67895025D01*
X106528048Y-67826559D01*
X106567575Y-67758097D01*
X106567575Y-67758096D01*
X106567577Y-67758093D01*
X106608500Y-67605366D01*
X106608500Y-67447252D01*
X106567577Y-67294525D01*
X106567575Y-67294522D01*
X106567575Y-67294520D01*
X106516286Y-67205685D01*
X106488522Y-67157596D01*
X106488514Y-67157586D01*
X106481871Y-67150943D01*
X138959500Y-67150943D01*
X138959500Y-67309057D01*
X138985851Y-67407400D01*
X139000424Y-67461788D01*
X139079477Y-67598712D01*
X139079485Y-67598722D01*
X139191277Y-67710514D01*
X139191282Y-67710518D01*
X139191284Y-67710520D01*
X139191285Y-67710521D01*
X139191287Y-67710522D01*
X139328211Y-67789575D01*
X139328213Y-67789575D01*
X139328216Y-67789577D01*
X139480943Y-67830500D01*
X139480945Y-67830500D01*
X139639055Y-67830500D01*
X139639057Y-67830500D01*
X139791784Y-67789577D01*
X139791787Y-67789575D01*
X139791788Y-67789575D01*
X139860250Y-67750048D01*
X139928716Y-67710520D01*
X140040520Y-67598716D01*
X140114816Y-67470030D01*
X140119575Y-67461788D01*
X140119575Y-67461787D01*
X140119577Y-67461784D01*
X140160500Y-67309057D01*
X140160500Y-67150943D01*
X140119577Y-66998216D01*
X140119575Y-66998213D01*
X140119575Y-66998211D01*
X140089249Y-66945685D01*
X140057644Y-66890943D01*
X148319500Y-66890943D01*
X148319500Y-67049057D01*
X148347883Y-67154983D01*
X148360424Y-67201788D01*
X148439477Y-67338712D01*
X148439485Y-67338722D01*
X148551277Y-67450514D01*
X148551282Y-67450518D01*
X148551284Y-67450520D01*
X148551285Y-67450521D01*
X148551287Y-67450522D01*
X148688211Y-67529575D01*
X148688213Y-67529575D01*
X148688216Y-67529577D01*
X148840943Y-67570500D01*
X148840945Y-67570500D01*
X148999055Y-67570500D01*
X148999057Y-67570500D01*
X149151784Y-67529577D01*
X149151787Y-67529575D01*
X149151788Y-67529575D01*
X149235159Y-67481441D01*
X149288716Y-67450520D01*
X149400520Y-67338716D01*
X149405007Y-67330943D01*
X159449500Y-67330943D01*
X159449500Y-67489057D01*
X159477342Y-67592964D01*
X159490424Y-67641788D01*
X159569477Y-67778712D01*
X159569485Y-67778722D01*
X159681277Y-67890514D01*
X159681282Y-67890518D01*
X159681284Y-67890520D01*
X159681285Y-67890521D01*
X159681287Y-67890522D01*
X159818211Y-67969575D01*
X159818213Y-67969575D01*
X159818216Y-67969577D01*
X159970943Y-68010500D01*
X159970945Y-68010500D01*
X160129055Y-68010500D01*
X160129057Y-68010500D01*
X160281784Y-67969577D01*
X160281787Y-67969575D01*
X160281788Y-67969575D01*
X160350250Y-67930048D01*
X160418716Y-67890520D01*
X160530520Y-67778716D01*
X160548524Y-67747531D01*
X160562416Y-67723469D01*
X169604500Y-67723469D01*
X169604500Y-67856531D01*
X169622944Y-67949252D01*
X169630460Y-67987036D01*
X169630461Y-67987039D01*
X169681380Y-68109969D01*
X169734045Y-68188789D01*
X169755305Y-68220606D01*
X169849394Y-68314695D01*
X169960031Y-68388620D01*
X170082964Y-68439540D01*
X170213469Y-68465500D01*
X170213474Y-68465500D01*
X170346526Y-68465500D01*
X170346531Y-68465500D01*
X170477036Y-68439540D01*
X170599969Y-68388620D01*
X170710606Y-68314695D01*
X170804695Y-68220606D01*
X170878620Y-68109969D01*
X170929540Y-67987036D01*
X170955500Y-67856531D01*
X170955500Y-67723469D01*
X170929540Y-67592964D01*
X170878620Y-67470031D01*
X170804695Y-67359394D01*
X170710606Y-67265305D01*
X170599969Y-67191380D01*
X170568176Y-67178211D01*
X170477039Y-67140461D01*
X170477036Y-67140460D01*
X170346531Y-67114500D01*
X170213469Y-67114500D01*
X170148216Y-67127480D01*
X170082963Y-67140460D01*
X170082960Y-67140461D01*
X169960030Y-67191380D01*
X169849397Y-67265302D01*
X169849391Y-67265307D01*
X169755307Y-67359391D01*
X169755302Y-67359397D01*
X169681380Y-67470030D01*
X169630461Y-67592960D01*
X169630460Y-67592963D01*
X169627993Y-67605364D01*
X169604500Y-67723469D01*
X160562416Y-67723469D01*
X160602364Y-67654279D01*
X160607955Y-67644592D01*
X160609577Y-67641784D01*
X160650500Y-67489057D01*
X160650500Y-67330943D01*
X160609577Y-67178216D01*
X160609575Y-67178213D01*
X160609575Y-67178211D01*
X160530522Y-67041287D01*
X160530514Y-67041277D01*
X160418722Y-66929485D01*
X160418712Y-66929477D01*
X160281788Y-66850424D01*
X160258332Y-66844139D01*
X160129057Y-66809500D01*
X159970943Y-66809500D01*
X159877470Y-66834545D01*
X159818211Y-66850424D01*
X159681287Y-66929477D01*
X159681277Y-66929485D01*
X159569485Y-67041277D01*
X159569477Y-67041287D01*
X159490424Y-67178211D01*
X159479457Y-67219140D01*
X159449500Y-67330943D01*
X149405007Y-67330943D01*
X149412692Y-67317632D01*
X149446149Y-67259685D01*
X149479575Y-67201788D01*
X149479575Y-67201787D01*
X149479577Y-67201784D01*
X149520500Y-67049057D01*
X149520500Y-66890943D01*
X149479577Y-66738216D01*
X149479575Y-66738213D01*
X149479575Y-66738211D01*
X149400522Y-66601287D01*
X149400514Y-66601277D01*
X149288722Y-66489485D01*
X149288712Y-66489477D01*
X149151788Y-66410424D01*
X149133743Y-66405589D01*
X148999057Y-66369500D01*
X148840943Y-66369500D01*
X148747470Y-66394545D01*
X148688211Y-66410424D01*
X148551287Y-66489477D01*
X148551277Y-66489485D01*
X148439485Y-66601277D01*
X148439477Y-66601287D01*
X148360424Y-66738211D01*
X148339416Y-66816616D01*
X148319500Y-66890943D01*
X140057644Y-66890943D01*
X140040522Y-66861287D01*
X140040514Y-66861277D01*
X139928722Y-66749485D01*
X139928712Y-66749477D01*
X139791788Y-66670424D01*
X139773743Y-66665589D01*
X139639057Y-66629500D01*
X139480943Y-66629500D01*
X139387470Y-66654545D01*
X139328211Y-66670424D01*
X139191287Y-66749477D01*
X139191277Y-66749485D01*
X139079485Y-66861277D01*
X139079477Y-66861287D01*
X139000424Y-66998211D01*
X138977544Y-67083599D01*
X138959500Y-67150943D01*
X106481871Y-67150943D01*
X106376722Y-67045794D01*
X106376712Y-67045786D01*
X106239788Y-66966733D01*
X106221743Y-66961898D01*
X106087057Y-66925809D01*
X105928943Y-66925809D01*
X105854765Y-66945685D01*
X105776211Y-66966733D01*
X105639287Y-67045786D01*
X105639277Y-67045794D01*
X105527485Y-67157586D01*
X105527477Y-67157596D01*
X105448424Y-67294520D01*
X105436583Y-67338712D01*
X105407500Y-67447252D01*
X101919143Y-67447252D01*
X101922996Y-67393377D01*
X101951957Y-67348314D01*
X101977485Y-67322785D01*
X101977491Y-67322779D01*
X102007501Y-67270801D01*
X102037325Y-67219144D01*
X102037325Y-67219143D01*
X102037327Y-67219140D01*
X102068300Y-67103545D01*
X102068300Y-66983873D01*
X102037327Y-66868278D01*
X102037325Y-66868275D01*
X102037325Y-66868273D01*
X101977493Y-66764642D01*
X101977485Y-66764632D01*
X101951957Y-66739104D01*
X101917931Y-66676792D01*
X101922996Y-66605977D01*
X101951957Y-66560914D01*
X101977485Y-66535385D01*
X101977491Y-66535379D01*
X102037327Y-66431740D01*
X102068300Y-66316145D01*
X102068300Y-66291496D01*
X106382129Y-66291496D01*
X106382129Y-66449610D01*
X106405110Y-66535375D01*
X106423053Y-66602341D01*
X106502106Y-66739265D01*
X106502114Y-66739275D01*
X106613906Y-66851067D01*
X106613911Y-66851071D01*
X106613913Y-66851073D01*
X106613914Y-66851074D01*
X106613916Y-66851075D01*
X106750840Y-66930128D01*
X106750842Y-66930128D01*
X106750845Y-66930130D01*
X106903572Y-66971053D01*
X106903574Y-66971053D01*
X107061684Y-66971053D01*
X107061686Y-66971053D01*
X107214413Y-66930130D01*
X107214416Y-66930128D01*
X107214417Y-66930128D01*
X107282879Y-66890601D01*
X107351345Y-66851073D01*
X107463149Y-66739269D01*
X107530146Y-66623226D01*
X107542204Y-66602341D01*
X107542204Y-66602340D01*
X107542206Y-66602337D01*
X107583129Y-66449610D01*
X107583129Y-66291496D01*
X107542206Y-66138769D01*
X107542204Y-66138766D01*
X107542204Y-66138764D01*
X107463151Y-66001840D01*
X107463143Y-66001830D01*
X107351351Y-65890038D01*
X107351341Y-65890030D01*
X107214417Y-65810977D01*
X107196372Y-65806142D01*
X107061686Y-65770053D01*
X106903572Y-65770053D01*
X106831913Y-65789254D01*
X106750840Y-65810977D01*
X106613916Y-65890030D01*
X106613906Y-65890038D01*
X106502114Y-66001830D01*
X106502106Y-66001840D01*
X106423053Y-66138764D01*
X106423052Y-66138769D01*
X106382129Y-66291496D01*
X102068300Y-66291496D01*
X102068300Y-66196473D01*
X102037327Y-66080878D01*
X102037325Y-66080875D01*
X102037325Y-66080873D01*
X101977493Y-65977242D01*
X101977485Y-65977232D01*
X101951957Y-65951704D01*
X101917931Y-65889392D01*
X101922996Y-65818577D01*
X101951957Y-65773514D01*
X101977485Y-65747985D01*
X101977491Y-65747979D01*
X102007501Y-65696001D01*
X102037325Y-65644344D01*
X102037325Y-65644343D01*
X102037327Y-65644340D01*
X102068300Y-65528745D01*
X102068300Y-65409073D01*
X102037327Y-65293478D01*
X102037325Y-65293475D01*
X102037325Y-65293473D01*
X101977493Y-65189842D01*
X101977485Y-65189832D01*
X101951957Y-65164304D01*
X101917931Y-65101992D01*
X101922996Y-65031177D01*
X101951957Y-64986114D01*
X101977485Y-64960585D01*
X101977491Y-64960579D01*
X102021232Y-64884818D01*
X102037325Y-64856944D01*
X102037325Y-64856943D01*
X102037327Y-64856940D01*
X102068300Y-64741345D01*
X102068300Y-64621673D01*
X102037327Y-64506078D01*
X102037325Y-64506075D01*
X102037325Y-64506073D01*
X101977493Y-64402442D01*
X101977485Y-64402432D01*
X101892876Y-64317823D01*
X101892866Y-64317815D01*
X101789235Y-64257983D01*
X101775580Y-64254324D01*
X101673636Y-64227009D01*
X101553964Y-64227009D01*
X101483215Y-64245965D01*
X101438364Y-64257983D01*
X101334733Y-64317815D01*
X101334723Y-64317823D01*
X101309195Y-64343352D01*
X101246883Y-64377378D01*
X101176068Y-64372313D01*
X101131005Y-64343352D01*
X101105476Y-64317823D01*
X101105466Y-64317815D01*
X101001835Y-64257983D01*
X100988180Y-64254324D01*
X100886236Y-64227009D01*
X100766564Y-64227009D01*
X100695815Y-64245965D01*
X100650964Y-64257983D01*
X100547333Y-64317815D01*
X100547323Y-64317823D01*
X100521795Y-64343352D01*
X100459483Y-64377378D01*
X100388668Y-64372313D01*
X100343605Y-64343352D01*
X100318076Y-64317823D01*
X100318066Y-64317815D01*
X100214435Y-64257983D01*
X100200780Y-64254324D01*
X100098836Y-64227009D01*
X99979164Y-64227009D01*
X99908415Y-64245965D01*
X99863564Y-64257983D01*
X99759933Y-64317815D01*
X99759923Y-64317823D01*
X99734395Y-64343352D01*
X99672083Y-64377378D01*
X99601268Y-64372313D01*
X99556205Y-64343352D01*
X99530676Y-64317823D01*
X99530666Y-64317815D01*
X99427035Y-64257983D01*
X99413380Y-64254324D01*
X99311436Y-64227009D01*
X99191764Y-64227009D01*
X99121015Y-64245965D01*
X99076164Y-64257983D01*
X98972533Y-64317815D01*
X98972523Y-64317823D01*
X98946995Y-64343352D01*
X98884683Y-64377378D01*
X98813868Y-64372313D01*
X98768805Y-64343352D01*
X98743276Y-64317823D01*
X98743266Y-64317815D01*
X98639635Y-64257983D01*
X98625980Y-64254324D01*
X98524036Y-64227009D01*
X98404364Y-64227009D01*
X98333615Y-64245965D01*
X98288764Y-64257983D01*
X98185133Y-64317815D01*
X98185123Y-64317823D01*
X98100514Y-64402432D01*
X98100506Y-64402442D01*
X98040674Y-64506073D01*
X98040673Y-64506078D01*
X98009700Y-64621673D01*
X61188900Y-64621673D01*
X61188900Y-63508995D01*
X94740757Y-63508995D01*
X94740757Y-63667109D01*
X94765900Y-63760943D01*
X94781681Y-63819840D01*
X94860734Y-63956764D01*
X94860742Y-63956774D01*
X94972534Y-64068566D01*
X94972539Y-64068570D01*
X94972541Y-64068572D01*
X94972542Y-64068573D01*
X94972544Y-64068574D01*
X95109468Y-64147627D01*
X95109470Y-64147627D01*
X95109473Y-64147629D01*
X95262200Y-64188552D01*
X95262202Y-64188552D01*
X95420312Y-64188552D01*
X95420314Y-64188552D01*
X95566984Y-64149252D01*
X113314500Y-64149252D01*
X113314500Y-64307366D01*
X113350173Y-64440500D01*
X113355424Y-64460097D01*
X113434477Y-64597021D01*
X113434485Y-64597031D01*
X113546277Y-64708823D01*
X113546282Y-64708827D01*
X113546284Y-64708829D01*
X113546285Y-64708830D01*
X113546287Y-64708831D01*
X113683211Y-64787884D01*
X113683213Y-64787884D01*
X113683216Y-64787886D01*
X113835943Y-64828809D01*
X113835945Y-64828809D01*
X113994055Y-64828809D01*
X113994057Y-64828809D01*
X114146784Y-64787886D01*
X114146787Y-64787884D01*
X114146788Y-64787884D01*
X114227396Y-64741345D01*
X114283716Y-64708829D01*
X114395520Y-64597025D01*
X114474577Y-64460093D01*
X114515500Y-64307366D01*
X114515500Y-64149252D01*
X114914500Y-64149252D01*
X114914500Y-64307366D01*
X114950173Y-64440500D01*
X114955424Y-64460097D01*
X115034477Y-64597021D01*
X115034485Y-64597031D01*
X115146277Y-64708823D01*
X115146282Y-64708827D01*
X115146284Y-64708829D01*
X115146285Y-64708830D01*
X115146287Y-64708831D01*
X115283211Y-64787884D01*
X115283213Y-64787884D01*
X115283216Y-64787886D01*
X115435943Y-64828809D01*
X115435945Y-64828809D01*
X115594055Y-64828809D01*
X115594057Y-64828809D01*
X115746784Y-64787886D01*
X115746787Y-64787884D01*
X115746788Y-64787884D01*
X115827396Y-64741345D01*
X115883716Y-64708829D01*
X115995520Y-64597025D01*
X116074577Y-64460093D01*
X116115500Y-64307366D01*
X116115500Y-64149252D01*
X116074577Y-63996525D01*
X116074575Y-63996522D01*
X116074575Y-63996520D01*
X115995522Y-63859596D01*
X115995514Y-63859586D01*
X115896871Y-63760943D01*
X120009500Y-63760943D01*
X120009500Y-63919057D01*
X120045589Y-64053743D01*
X120050424Y-64071788D01*
X120129477Y-64208712D01*
X120129485Y-64208722D01*
X120241277Y-64320514D01*
X120241282Y-64320518D01*
X120241284Y-64320520D01*
X120241285Y-64320521D01*
X120241287Y-64320522D01*
X120378211Y-64399575D01*
X120378213Y-64399575D01*
X120378216Y-64399577D01*
X120530943Y-64440500D01*
X120530945Y-64440500D01*
X120689055Y-64440500D01*
X120689057Y-64440500D01*
X120841784Y-64399577D01*
X120841787Y-64399575D01*
X120841788Y-64399575D01*
X120939169Y-64343352D01*
X120978716Y-64320520D01*
X121090520Y-64208716D01*
X121169577Y-64071784D01*
X121210500Y-63919057D01*
X121210500Y-63760943D01*
X121169577Y-63608216D01*
X121169575Y-63608213D01*
X121169575Y-63608211D01*
X121098835Y-63485685D01*
X121098834Y-63485683D01*
X121090524Y-63471290D01*
X121090521Y-63471287D01*
X121090520Y-63471284D01*
X121090517Y-63471281D01*
X121090514Y-63471277D01*
X121050180Y-63430943D01*
X147429500Y-63430943D01*
X147429500Y-63589057D01*
X147450414Y-63667109D01*
X147470424Y-63741788D01*
X147549477Y-63878712D01*
X147549485Y-63878722D01*
X147661277Y-63990514D01*
X147661282Y-63990518D01*
X147661284Y-63990520D01*
X147661285Y-63990521D01*
X147661287Y-63990522D01*
X147798211Y-64069575D01*
X147798213Y-64069575D01*
X147798216Y-64069577D01*
X147950943Y-64110500D01*
X147950945Y-64110500D01*
X148109055Y-64110500D01*
X148109057Y-64110500D01*
X148261784Y-64069577D01*
X148261787Y-64069575D01*
X148261788Y-64069575D01*
X148330250Y-64030048D01*
X148398716Y-63990520D01*
X148510520Y-63878716D01*
X148589577Y-63741784D01*
X148630500Y-63589057D01*
X148630500Y-63430943D01*
X148589577Y-63278216D01*
X148589575Y-63278213D01*
X148589575Y-63278211D01*
X148510522Y-63141287D01*
X148510514Y-63141277D01*
X148398722Y-63029485D01*
X148398712Y-63029477D01*
X148261788Y-62950424D01*
X148243743Y-62945589D01*
X148109057Y-62909500D01*
X147950943Y-62909500D01*
X147872518Y-62930514D01*
X147798211Y-62950424D01*
X147661287Y-63029477D01*
X147661277Y-63029485D01*
X147549485Y-63141277D01*
X147549477Y-63141287D01*
X147470424Y-63278211D01*
X147458416Y-63323025D01*
X147429500Y-63430943D01*
X121050180Y-63430943D01*
X120978722Y-63359485D01*
X120978712Y-63359477D01*
X120841788Y-63280424D01*
X120823743Y-63275589D01*
X120689057Y-63239500D01*
X120530943Y-63239500D01*
X120437470Y-63264545D01*
X120378211Y-63280424D01*
X120241287Y-63359477D01*
X120241277Y-63359485D01*
X120129485Y-63471277D01*
X120129477Y-63471287D01*
X120050424Y-63608211D01*
X120027544Y-63693599D01*
X120009500Y-63760943D01*
X115896871Y-63760943D01*
X115883722Y-63747794D01*
X115883712Y-63747786D01*
X115746788Y-63668733D01*
X115728743Y-63663898D01*
X115594057Y-63627809D01*
X115435943Y-63627809D01*
X115342470Y-63652854D01*
X115283211Y-63668733D01*
X115146287Y-63747786D01*
X115146277Y-63747794D01*
X115034485Y-63859586D01*
X115034477Y-63859596D01*
X114955424Y-63996520D01*
X114955423Y-63996525D01*
X114914500Y-64149252D01*
X114515500Y-64149252D01*
X114474577Y-63996525D01*
X114474575Y-63996522D01*
X114474575Y-63996520D01*
X114395522Y-63859596D01*
X114395514Y-63859586D01*
X114283722Y-63747794D01*
X114283712Y-63747786D01*
X114146788Y-63668733D01*
X114128743Y-63663898D01*
X113994057Y-63627809D01*
X113835943Y-63627809D01*
X113742470Y-63652854D01*
X113683211Y-63668733D01*
X113546287Y-63747786D01*
X113546277Y-63747794D01*
X113434485Y-63859586D01*
X113434477Y-63859596D01*
X113355424Y-63996520D01*
X113355423Y-63996525D01*
X113314500Y-64149252D01*
X95566984Y-64149252D01*
X95573041Y-64147629D01*
X95573044Y-64147627D01*
X95573045Y-64147627D01*
X95641507Y-64108100D01*
X95709973Y-64068572D01*
X95821777Y-63956768D01*
X95861305Y-63888302D01*
X95900832Y-63819840D01*
X95900832Y-63819839D01*
X95900834Y-63819836D01*
X95941757Y-63667109D01*
X95941757Y-63508995D01*
X95900834Y-63356268D01*
X95900832Y-63356265D01*
X95900832Y-63356263D01*
X95821779Y-63219339D01*
X95821771Y-63219329D01*
X95709979Y-63107537D01*
X95709969Y-63107529D01*
X95573045Y-63028476D01*
X95555000Y-63023641D01*
X95420314Y-62987552D01*
X95262200Y-62987552D01*
X95168727Y-63012597D01*
X95109468Y-63028476D01*
X94972544Y-63107529D01*
X94972534Y-63107537D01*
X94860742Y-63219329D01*
X94860734Y-63219339D01*
X94781681Y-63356263D01*
X94781680Y-63356268D01*
X94740757Y-63508995D01*
X61188900Y-63508995D01*
X61188900Y-61934922D01*
X105611592Y-61934922D01*
X105611592Y-62093036D01*
X105645134Y-62218216D01*
X105652516Y-62245767D01*
X105731569Y-62382691D01*
X105731577Y-62382701D01*
X105843374Y-62494498D01*
X105846937Y-62497232D01*
X105849180Y-62500304D01*
X105849215Y-62500339D01*
X105849209Y-62500344D01*
X105888804Y-62554570D01*
X105893026Y-62625441D01*
X105879353Y-62660193D01*
X105843368Y-62722521D01*
X105843367Y-62722525D01*
X105802444Y-62875252D01*
X105802444Y-63033366D01*
X105831361Y-63141287D01*
X105843368Y-63186097D01*
X105922421Y-63323021D01*
X105922429Y-63323031D01*
X106034221Y-63434823D01*
X106034226Y-63434827D01*
X106034228Y-63434829D01*
X106034229Y-63434830D01*
X106034231Y-63434831D01*
X106171155Y-63513884D01*
X106171157Y-63513884D01*
X106171160Y-63513886D01*
X106323887Y-63554809D01*
X106323889Y-63554809D01*
X106481999Y-63554809D01*
X106482001Y-63554809D01*
X106634728Y-63513886D01*
X106634731Y-63513884D01*
X106634732Y-63513884D01*
X106708512Y-63471287D01*
X106771660Y-63434829D01*
X106883464Y-63323025D01*
X106943328Y-63219336D01*
X106962519Y-63186097D01*
X106962519Y-63186096D01*
X106962521Y-63186093D01*
X107003444Y-63033366D01*
X107003444Y-62875252D01*
X106962521Y-62722525D01*
X106962519Y-62722521D01*
X106962519Y-62722520D01*
X106883466Y-62585596D01*
X106883458Y-62585586D01*
X106771663Y-62473791D01*
X106768096Y-62471054D01*
X106765850Y-62467978D01*
X106765821Y-62467949D01*
X106765825Y-62467944D01*
X106726230Y-62413716D01*
X106722009Y-62342845D01*
X106735681Y-62308095D01*
X106771669Y-62245763D01*
X106812592Y-62093036D01*
X106812592Y-61934922D01*
X106771669Y-61782195D01*
X106771667Y-61782192D01*
X106771667Y-61782190D01*
X106692614Y-61645266D01*
X106692606Y-61645256D01*
X106580814Y-61533464D01*
X106580804Y-61533456D01*
X106443880Y-61454403D01*
X106392056Y-61440517D01*
X106291149Y-61413479D01*
X106133035Y-61413479D01*
X106039562Y-61438524D01*
X105980303Y-61454403D01*
X105843379Y-61533456D01*
X105843369Y-61533464D01*
X105731577Y-61645256D01*
X105731569Y-61645266D01*
X105652516Y-61782190D01*
X105652515Y-61782195D01*
X105611592Y-61934922D01*
X61188900Y-61934922D01*
X61188900Y-59699252D01*
X94914500Y-59699252D01*
X94914500Y-59857366D01*
X94924772Y-59895700D01*
X94955424Y-60010097D01*
X95034477Y-60147021D01*
X95034485Y-60147031D01*
X95146277Y-60258823D01*
X95146282Y-60258827D01*
X95146284Y-60258829D01*
X95146285Y-60258830D01*
X95146287Y-60258831D01*
X95283211Y-60337884D01*
X95283213Y-60337884D01*
X95283216Y-60337886D01*
X95435943Y-60378809D01*
X95435945Y-60378809D01*
X95594055Y-60378809D01*
X95594057Y-60378809D01*
X95746784Y-60337886D01*
X95746787Y-60337884D01*
X95746788Y-60337884D01*
X95826636Y-60291784D01*
X95883716Y-60258829D01*
X95995520Y-60147025D01*
X96043615Y-60063721D01*
X96055431Y-60043256D01*
X99290856Y-60043256D01*
X99290856Y-60201370D01*
X99317314Y-60300111D01*
X99331780Y-60354101D01*
X99410833Y-60491025D01*
X99410841Y-60491035D01*
X99522633Y-60602827D01*
X99522638Y-60602831D01*
X99522640Y-60602833D01*
X99522641Y-60602834D01*
X99522643Y-60602835D01*
X99549064Y-60618089D01*
X99598057Y-60669471D01*
X99611493Y-60739185D01*
X99595185Y-60790205D01*
X99579414Y-60817522D01*
X99579413Y-60817524D01*
X99579413Y-60817525D01*
X99538490Y-60970252D01*
X99538490Y-61128366D01*
X99556479Y-61195502D01*
X99579414Y-61281097D01*
X99658467Y-61418021D01*
X99658475Y-61418031D01*
X99770267Y-61529823D01*
X99770272Y-61529827D01*
X99770274Y-61529829D01*
X99770275Y-61529830D01*
X99770277Y-61529831D01*
X99907201Y-61608884D01*
X99907203Y-61608884D01*
X99907206Y-61608886D01*
X100059933Y-61649809D01*
X100059935Y-61649809D01*
X100218045Y-61649809D01*
X100218047Y-61649809D01*
X100370774Y-61608886D01*
X100370777Y-61608884D01*
X100370778Y-61608884D01*
X100463242Y-61555500D01*
X100507706Y-61529829D01*
X100619510Y-61418025D01*
X100698567Y-61281093D01*
X100739490Y-61128366D01*
X100739490Y-60982468D01*
X100759492Y-60914347D01*
X100813148Y-60867854D01*
X100865490Y-60856468D01*
X100921716Y-60856468D01*
X100921718Y-60856468D01*
X101074445Y-60815545D01*
X101074448Y-60815543D01*
X101074449Y-60815543D01*
X101142911Y-60776016D01*
X101211377Y-60736488D01*
X101254816Y-60693048D01*
X101317126Y-60659025D01*
X101387941Y-60664089D01*
X101433005Y-60693050D01*
X101441525Y-60701570D01*
X101441530Y-60701574D01*
X101441532Y-60701576D01*
X101441533Y-60701577D01*
X101441535Y-60701578D01*
X101578459Y-60780631D01*
X101578461Y-60780631D01*
X101578464Y-60780633D01*
X101731191Y-60821556D01*
X101731193Y-60821556D01*
X101889303Y-60821556D01*
X101889305Y-60821556D01*
X102042032Y-60780633D01*
X102042035Y-60780631D01*
X102042036Y-60780631D01*
X102118494Y-60736488D01*
X102178964Y-60701576D01*
X102290768Y-60589772D01*
X102369825Y-60452840D01*
X102410748Y-60300113D01*
X102410748Y-60141999D01*
X102369825Y-59989272D01*
X102369823Y-59989269D01*
X102369823Y-59989267D01*
X102290770Y-59852343D01*
X102290762Y-59852333D01*
X102178970Y-59740541D01*
X102178960Y-59740533D01*
X102042036Y-59661480D01*
X101968581Y-59641798D01*
X101889305Y-59620556D01*
X101731191Y-59620556D01*
X101651915Y-59641798D01*
X101578459Y-59661480D01*
X101441535Y-59740533D01*
X101441529Y-59740538D01*
X101398093Y-59783974D01*
X101335780Y-59817999D01*
X101264964Y-59812933D01*
X101219903Y-59783973D01*
X101211383Y-59775453D01*
X101211373Y-59775445D01*
X101074449Y-59696392D01*
X101049444Y-59689692D01*
X100921718Y-59655468D01*
X100763604Y-59655468D01*
X100689489Y-59675327D01*
X100610872Y-59696392D01*
X100506819Y-59756468D01*
X100437824Y-59773206D01*
X100370732Y-59749986D01*
X100354724Y-59736444D01*
X100260078Y-59641798D01*
X100260068Y-59641790D01*
X100123144Y-59562737D01*
X100078945Y-59550894D01*
X99970413Y-59521813D01*
X99812299Y-59521813D01*
X99720091Y-59546520D01*
X99659567Y-59562737D01*
X99522643Y-59641790D01*
X99522633Y-59641798D01*
X99410841Y-59753590D01*
X99410833Y-59753600D01*
X99331780Y-59890524D01*
X99330393Y-59895700D01*
X99290856Y-60043256D01*
X96055431Y-60043256D01*
X96074576Y-60010096D01*
X96076641Y-60002389D01*
X96115500Y-59857366D01*
X96115500Y-59699252D01*
X96097936Y-59633702D01*
X96098226Y-59621510D01*
X96093963Y-59610081D01*
X96099055Y-59586671D01*
X96099625Y-59562728D01*
X96106837Y-59550894D01*
X96109054Y-59540707D01*
X96130547Y-59511997D01*
X96133713Y-59508830D01*
X96133716Y-59508829D01*
X96175906Y-59466638D01*
X96238216Y-59432614D01*
X96309031Y-59437679D01*
X96354094Y-59466640D01*
X96396277Y-59508823D01*
X96396282Y-59508827D01*
X96396284Y-59508829D01*
X96396285Y-59508830D01*
X96396287Y-59508831D01*
X96533211Y-59587884D01*
X96533213Y-59587884D01*
X96533216Y-59587886D01*
X96685943Y-59628809D01*
X96685945Y-59628809D01*
X96844055Y-59628809D01*
X96844057Y-59628809D01*
X96996784Y-59587886D01*
X96996787Y-59587884D01*
X96996788Y-59587884D01*
X97080462Y-59539575D01*
X97133716Y-59508829D01*
X97245520Y-59397025D01*
X97289153Y-59321448D01*
X97340533Y-59272457D01*
X97410246Y-59259020D01*
X97476158Y-59285406D01*
X97487366Y-59295355D01*
X97574071Y-59382060D01*
X97574076Y-59382064D01*
X97574078Y-59382066D01*
X97574079Y-59382067D01*
X97574081Y-59382068D01*
X97711005Y-59461121D01*
X97711007Y-59461121D01*
X97711010Y-59461123D01*
X97863737Y-59502046D01*
X97863739Y-59502046D01*
X98021849Y-59502046D01*
X98021851Y-59502046D01*
X98174578Y-59461123D01*
X98174581Y-59461121D01*
X98174582Y-59461121D01*
X98263831Y-59409593D01*
X98280010Y-59400252D01*
X102954500Y-59400252D01*
X102954500Y-59558366D01*
X102982129Y-59661479D01*
X102995424Y-59711097D01*
X103074477Y-59848021D01*
X103074485Y-59848031D01*
X103186277Y-59959823D01*
X103186282Y-59959827D01*
X103186284Y-59959829D01*
X103186285Y-59959830D01*
X103186287Y-59959831D01*
X103323211Y-60038884D01*
X103323213Y-60038884D01*
X103323216Y-60038886D01*
X103475943Y-60079809D01*
X103475945Y-60079809D01*
X103634055Y-60079809D01*
X103634057Y-60079809D01*
X103786784Y-60038886D01*
X103786787Y-60038884D01*
X103786788Y-60038884D01*
X103887145Y-59980943D01*
X103923716Y-59959829D01*
X103987846Y-59895699D01*
X106506759Y-59895699D01*
X106506759Y-60053813D01*
X106530389Y-60142000D01*
X106547683Y-60206544D01*
X106626736Y-60343468D01*
X106626744Y-60343478D01*
X106738536Y-60455270D01*
X106738540Y-60455273D01*
X106738543Y-60455276D01*
X106807832Y-60495279D01*
X106833922Y-60515299D01*
X107759138Y-61440515D01*
X107759139Y-61440516D01*
X107759141Y-61440517D01*
X107851380Y-61493771D01*
X107890368Y-61516281D01*
X108036737Y-61555500D01*
X108188270Y-61555500D01*
X111419430Y-61555500D01*
X111487551Y-61575502D01*
X111508525Y-61592405D01*
X111889485Y-61973365D01*
X111996635Y-62080515D01*
X111996636Y-62080516D01*
X111996638Y-62080517D01*
X111997972Y-62081287D01*
X112127865Y-62156281D01*
X112274234Y-62195500D01*
X115681053Y-62195500D01*
X115713663Y-62199792D01*
X115790943Y-62220500D01*
X115790945Y-62220500D01*
X115949055Y-62220500D01*
X115949057Y-62220500D01*
X116026336Y-62199792D01*
X116058947Y-62195500D01*
X139245764Y-62195500D01*
X139245766Y-62195500D01*
X139392135Y-62156281D01*
X139523365Y-62080515D01*
X140391476Y-61212403D01*
X140453787Y-61178380D01*
X140480570Y-61175500D01*
X151739430Y-61175500D01*
X151807551Y-61195502D01*
X151828525Y-61212405D01*
X153339452Y-62723332D01*
X153359476Y-62749427D01*
X153399477Y-62818712D01*
X153399485Y-62818722D01*
X153511277Y-62930514D01*
X153511282Y-62930518D01*
X153511284Y-62930520D01*
X153511285Y-62930521D01*
X153511287Y-62930522D01*
X153648211Y-63009575D01*
X153648213Y-63009575D01*
X153648216Y-63009577D01*
X153800943Y-63050500D01*
X153800945Y-63050500D01*
X153959055Y-63050500D01*
X153959057Y-63050500D01*
X154111784Y-63009577D01*
X154111787Y-63009575D01*
X154111788Y-63009575D01*
X154214241Y-62950424D01*
X154248716Y-62930520D01*
X154360520Y-62818716D01*
X154408817Y-62735063D01*
X154439575Y-62681788D01*
X154439575Y-62681787D01*
X154439577Y-62681784D01*
X154480500Y-62529057D01*
X154480500Y-62370943D01*
X154439577Y-62218216D01*
X154439575Y-62218213D01*
X154439575Y-62218211D01*
X154360522Y-62081287D01*
X154360514Y-62081277D01*
X154248722Y-61969485D01*
X154248712Y-61969477D01*
X154179427Y-61929476D01*
X154153332Y-61909452D01*
X152383371Y-60139490D01*
X152383361Y-60139482D01*
X152283459Y-60081804D01*
X152252139Y-60063721D01*
X152252136Y-60063720D01*
X152252135Y-60063719D01*
X152252133Y-60063718D01*
X152252132Y-60063718D01*
X152212911Y-60053209D01*
X152105766Y-60024500D01*
X140265767Y-60024500D01*
X140114234Y-60024500D01*
X140044235Y-60043256D01*
X139967867Y-60063718D01*
X139967860Y-60063721D01*
X139836638Y-60139482D01*
X139836632Y-60139487D01*
X139608525Y-60367595D01*
X138968523Y-61007596D01*
X138906213Y-61041620D01*
X138879430Y-61044500D01*
X116058947Y-61044500D01*
X116026336Y-61040207D01*
X115949057Y-61019500D01*
X115790943Y-61019500D01*
X115713664Y-61040207D01*
X115681053Y-61044500D01*
X112640570Y-61044500D01*
X112572449Y-61024498D01*
X112551479Y-61007599D01*
X112063365Y-60519485D01*
X112063363Y-60519484D01*
X112063361Y-60519482D01*
X111932139Y-60443721D01*
X111932136Y-60443720D01*
X111932135Y-60443719D01*
X111932133Y-60443718D01*
X111932132Y-60443718D01*
X111892911Y-60433209D01*
X111785766Y-60404500D01*
X111785764Y-60404500D01*
X108403073Y-60404500D01*
X108334952Y-60384498D01*
X108313978Y-60367595D01*
X107927326Y-59980943D01*
X153189500Y-59980943D01*
X153189500Y-60139057D01*
X153191637Y-60147031D01*
X153230424Y-60291788D01*
X153309477Y-60428712D01*
X153309485Y-60428722D01*
X153421277Y-60540514D01*
X153421282Y-60540518D01*
X153421284Y-60540520D01*
X153421285Y-60540521D01*
X153421287Y-60540522D01*
X153558211Y-60619575D01*
X153558213Y-60619575D01*
X153558216Y-60619577D01*
X153710943Y-60660500D01*
X153710945Y-60660500D01*
X153869055Y-60660500D01*
X153869057Y-60660500D01*
X154021784Y-60619577D01*
X154021787Y-60619575D01*
X154021788Y-60619575D01*
X154090250Y-60580048D01*
X154158716Y-60540520D01*
X154270520Y-60428716D01*
X154322961Y-60337884D01*
X154349575Y-60291788D01*
X154349575Y-60291787D01*
X154349577Y-60291784D01*
X154390500Y-60139057D01*
X154390500Y-59980943D01*
X154349577Y-59828216D01*
X154349575Y-59828213D01*
X154349575Y-59828211D01*
X154270522Y-59691287D01*
X154270514Y-59691277D01*
X154158722Y-59579485D01*
X154158712Y-59579477D01*
X154021788Y-59500424D01*
X153998694Y-59494236D01*
X153869057Y-59459500D01*
X153710943Y-59459500D01*
X153617470Y-59484545D01*
X153558211Y-59500424D01*
X153421287Y-59579477D01*
X153421277Y-59579485D01*
X153309485Y-59691277D01*
X153309477Y-59691287D01*
X153230424Y-59828211D01*
X153223961Y-59852333D01*
X153189500Y-59980943D01*
X107927326Y-59980943D01*
X107647806Y-59701423D01*
X107627781Y-59675327D01*
X107587779Y-59606040D01*
X107587776Y-59606037D01*
X107587773Y-59606033D01*
X107475981Y-59494241D01*
X107475971Y-59494233D01*
X107339047Y-59415180D01*
X107318196Y-59409593D01*
X107186316Y-59374256D01*
X107028202Y-59374256D01*
X106934729Y-59399301D01*
X106875470Y-59415180D01*
X106738546Y-59494233D01*
X106738536Y-59494241D01*
X106626744Y-59606033D01*
X106626736Y-59606043D01*
X106547683Y-59742967D01*
X106528936Y-59812933D01*
X106506759Y-59895699D01*
X103987846Y-59895699D01*
X104035520Y-59848025D01*
X104114577Y-59711093D01*
X104155500Y-59558366D01*
X104155500Y-59400252D01*
X104114577Y-59247525D01*
X104114575Y-59247522D01*
X104114575Y-59247520D01*
X104035522Y-59110596D01*
X104035514Y-59110586D01*
X103923722Y-58998794D01*
X103923713Y-58998787D01*
X103786788Y-58919733D01*
X103768743Y-58914898D01*
X103716662Y-58900943D01*
X150059500Y-58900943D01*
X150059500Y-59059057D01*
X150090008Y-59172915D01*
X150100424Y-59211788D01*
X150179477Y-59348712D01*
X150179485Y-59348722D01*
X150291277Y-59460514D01*
X150291282Y-59460518D01*
X150291284Y-59460520D01*
X150291285Y-59460521D01*
X150291287Y-59460522D01*
X150428211Y-59539575D01*
X150428213Y-59539575D01*
X150428216Y-59539577D01*
X150580943Y-59580500D01*
X150580945Y-59580500D01*
X150739055Y-59580500D01*
X150739057Y-59580500D01*
X150891784Y-59539577D01*
X150891787Y-59539575D01*
X150891788Y-59539575D01*
X150970323Y-59494233D01*
X151028716Y-59460520D01*
X151140520Y-59348716D01*
X151219577Y-59211784D01*
X151260500Y-59059057D01*
X151260500Y-58900943D01*
X151219577Y-58748216D01*
X151219575Y-58748213D01*
X151219575Y-58748211D01*
X151140522Y-58611287D01*
X151140514Y-58611277D01*
X151028722Y-58499485D01*
X151028712Y-58499477D01*
X150891788Y-58420424D01*
X150873743Y-58415589D01*
X150739057Y-58379500D01*
X150580943Y-58379500D01*
X150487470Y-58404545D01*
X150428211Y-58420424D01*
X150291287Y-58499477D01*
X150291277Y-58499485D01*
X150179485Y-58611277D01*
X150179477Y-58611287D01*
X150100424Y-58748211D01*
X150100423Y-58748216D01*
X150059500Y-58900943D01*
X103716662Y-58900943D01*
X103634057Y-58878809D01*
X103475943Y-58878809D01*
X103393338Y-58900943D01*
X103323211Y-58919733D01*
X103186287Y-58998786D01*
X103186277Y-58998794D01*
X103074485Y-59110586D01*
X103074477Y-59110596D01*
X102995424Y-59247520D01*
X102975615Y-59321451D01*
X102954500Y-59400252D01*
X98280010Y-59400252D01*
X98311510Y-59382066D01*
X98344864Y-59348712D01*
X98390678Y-59302899D01*
X98423308Y-59270268D01*
X98423314Y-59270262D01*
X98502371Y-59133330D01*
X98543294Y-58980603D01*
X98543294Y-58822489D01*
X98502371Y-58669762D01*
X98502369Y-58669759D01*
X98502369Y-58669757D01*
X98423316Y-58532833D01*
X98423308Y-58532823D01*
X98311516Y-58421031D01*
X98311506Y-58421023D01*
X98174582Y-58341970D01*
X98156537Y-58337135D01*
X98021851Y-58301046D01*
X97863737Y-58301046D01*
X97770264Y-58326091D01*
X97711005Y-58341970D01*
X97574081Y-58421023D01*
X97574071Y-58421031D01*
X97462279Y-58532823D01*
X97462271Y-58532833D01*
X97418641Y-58608404D01*
X97367258Y-58657397D01*
X97297545Y-58670833D01*
X97231634Y-58644447D01*
X97220427Y-58634499D01*
X97133722Y-58547794D01*
X97133712Y-58547786D01*
X96996788Y-58468733D01*
X96978743Y-58463898D01*
X96844057Y-58427809D01*
X96685943Y-58427809D01*
X96592470Y-58452854D01*
X96533211Y-58468733D01*
X96396287Y-58547786D01*
X96396277Y-58547794D01*
X96354095Y-58589977D01*
X96291783Y-58624003D01*
X96220968Y-58618938D01*
X96175905Y-58589977D01*
X96133722Y-58547794D01*
X96133712Y-58547786D01*
X95996788Y-58468733D01*
X95978743Y-58463898D01*
X95844057Y-58427809D01*
X95685943Y-58427809D01*
X95592470Y-58452854D01*
X95533211Y-58468733D01*
X95396287Y-58547786D01*
X95396277Y-58547794D01*
X95284485Y-58659586D01*
X95284477Y-58659596D01*
X95205424Y-58796520D01*
X95164500Y-58949253D01*
X95164500Y-59107366D01*
X95182063Y-59172915D01*
X95180373Y-59243892D01*
X95149452Y-59294620D01*
X95034482Y-59409590D01*
X95034477Y-59409596D01*
X94955424Y-59546520D01*
X94946593Y-59579480D01*
X94914500Y-59699252D01*
X61188900Y-59699252D01*
X61188900Y-57949252D01*
X86414500Y-57949252D01*
X86414500Y-58107366D01*
X86420246Y-58128809D01*
X86455424Y-58260097D01*
X86534477Y-58397021D01*
X86534485Y-58397031D01*
X86646277Y-58508823D01*
X86646282Y-58508827D01*
X86646284Y-58508829D01*
X86646285Y-58508830D01*
X86646287Y-58508831D01*
X86783211Y-58587884D01*
X86783213Y-58587884D01*
X86783216Y-58587886D01*
X86935943Y-58628809D01*
X86935945Y-58628809D01*
X87094055Y-58628809D01*
X87094057Y-58628809D01*
X87246784Y-58587886D01*
X87246787Y-58587884D01*
X87246788Y-58587884D01*
X87342139Y-58532833D01*
X87383716Y-58508829D01*
X87495520Y-58397025D01*
X87574577Y-58260093D01*
X87599990Y-58165246D01*
X87636940Y-58104627D01*
X87700801Y-58073605D01*
X87771295Y-58082033D01*
X87781900Y-58087341D01*
X87783208Y-58087883D01*
X87783213Y-58087884D01*
X87783216Y-58087886D01*
X87935943Y-58128809D01*
X87935945Y-58128809D01*
X88094055Y-58128809D01*
X88094057Y-58128809D01*
X88246784Y-58087886D01*
X88246787Y-58087884D01*
X88246788Y-58087884D01*
X88315250Y-58048357D01*
X88383716Y-58008829D01*
X88443293Y-57949252D01*
X102664500Y-57949252D01*
X102664500Y-58107366D01*
X102670246Y-58128809D01*
X102705424Y-58260097D01*
X102784477Y-58397021D01*
X102784485Y-58397031D01*
X102896277Y-58508823D01*
X102896282Y-58508827D01*
X102896284Y-58508829D01*
X102896285Y-58508830D01*
X102896287Y-58508831D01*
X103033211Y-58587884D01*
X103033213Y-58587884D01*
X103033216Y-58587886D01*
X103185943Y-58628809D01*
X103185945Y-58628809D01*
X103344055Y-58628809D01*
X103344057Y-58628809D01*
X103496784Y-58587886D01*
X103496787Y-58587884D01*
X103496788Y-58587884D01*
X103592139Y-58532833D01*
X103633716Y-58508829D01*
X103745520Y-58397025D01*
X103824577Y-58260093D01*
X103865500Y-58107366D01*
X103865500Y-57949252D01*
X103824577Y-57796525D01*
X103824575Y-57796522D01*
X103824575Y-57796520D01*
X103745522Y-57659596D01*
X103745514Y-57659586D01*
X103633722Y-57547794D01*
X103633712Y-57547786D01*
X103496788Y-57468733D01*
X103478743Y-57463898D01*
X103344057Y-57427809D01*
X103185943Y-57427809D01*
X103105913Y-57449253D01*
X103033211Y-57468733D01*
X102896287Y-57547786D01*
X102896277Y-57547794D01*
X102784485Y-57659586D01*
X102784477Y-57659596D01*
X102705424Y-57796520D01*
X102705423Y-57796525D01*
X102664500Y-57949252D01*
X88443293Y-57949252D01*
X88495520Y-57897025D01*
X88574577Y-57760093D01*
X88615500Y-57607366D01*
X88615500Y-57449252D01*
X88574577Y-57296525D01*
X88574575Y-57296522D01*
X88574575Y-57296520D01*
X88495522Y-57159596D01*
X88495514Y-57159586D01*
X88406871Y-57070943D01*
X115619500Y-57070943D01*
X115619500Y-57229057D01*
X115637577Y-57296520D01*
X115660424Y-57381788D01*
X115739477Y-57518712D01*
X115739485Y-57518722D01*
X115851277Y-57630514D01*
X115851282Y-57630518D01*
X115851284Y-57630520D01*
X115851285Y-57630521D01*
X115851287Y-57630522D01*
X115988211Y-57709575D01*
X115988213Y-57709575D01*
X115988216Y-57709577D01*
X116140943Y-57750500D01*
X116140945Y-57750500D01*
X116299055Y-57750500D01*
X116299057Y-57750500D01*
X116451784Y-57709577D01*
X116451787Y-57709575D01*
X116451788Y-57709575D01*
X116538354Y-57659596D01*
X116588716Y-57630520D01*
X116700520Y-57518716D01*
X116779577Y-57381784D01*
X116820500Y-57229057D01*
X116820500Y-57070943D01*
X116779577Y-56918216D01*
X116779575Y-56918213D01*
X116779575Y-56918211D01*
X116700522Y-56781287D01*
X116700514Y-56781277D01*
X116588722Y-56669485D01*
X116588712Y-56669477D01*
X116451788Y-56590424D01*
X116433743Y-56585589D01*
X116299057Y-56549500D01*
X116140943Y-56549500D01*
X116047470Y-56574545D01*
X115988211Y-56590424D01*
X115851287Y-56669477D01*
X115851277Y-56669485D01*
X115739485Y-56781277D01*
X115739477Y-56781287D01*
X115660424Y-56918211D01*
X115646887Y-56968732D01*
X115619500Y-57070943D01*
X88406871Y-57070943D01*
X88383722Y-57047794D01*
X88383712Y-57047786D01*
X88246788Y-56968733D01*
X88228743Y-56963898D01*
X88094057Y-56927809D01*
X87935943Y-56927809D01*
X87842470Y-56952854D01*
X87783211Y-56968733D01*
X87646287Y-57047786D01*
X87646277Y-57047794D01*
X87534485Y-57159586D01*
X87534477Y-57159596D01*
X87455425Y-57296519D01*
X87430010Y-57391369D01*
X87393058Y-57451991D01*
X87329197Y-57483013D01*
X87258703Y-57474584D01*
X87248104Y-57469278D01*
X87246791Y-57468734D01*
X87246784Y-57468732D01*
X87094057Y-57427809D01*
X86935943Y-57427809D01*
X86855913Y-57449253D01*
X86783211Y-57468733D01*
X86646287Y-57547786D01*
X86646277Y-57547794D01*
X86534485Y-57659586D01*
X86534477Y-57659596D01*
X86455424Y-57796520D01*
X86455423Y-57796525D01*
X86414500Y-57949252D01*
X61188900Y-57949252D01*
X61188900Y-53970943D01*
X103314500Y-53970943D01*
X103314500Y-54129057D01*
X103320691Y-54152161D01*
X103355424Y-54281788D01*
X103434477Y-54418712D01*
X103434485Y-54418722D01*
X103546277Y-54530514D01*
X103546282Y-54530518D01*
X103546284Y-54530520D01*
X103546285Y-54530521D01*
X103546287Y-54530522D01*
X103683211Y-54609575D01*
X103683213Y-54609575D01*
X103683216Y-54609577D01*
X103835943Y-54650500D01*
X103835945Y-54650500D01*
X103994055Y-54650500D01*
X103994057Y-54650500D01*
X104146784Y-54609577D01*
X104146787Y-54609575D01*
X104146788Y-54609575D01*
X104215250Y-54570048D01*
X104283716Y-54530520D01*
X104395520Y-54418716D01*
X104474577Y-54281784D01*
X104509310Y-54152157D01*
X104546259Y-54091539D01*
X104610120Y-54060517D01*
X104663624Y-54063065D01*
X104715460Y-54076955D01*
X104715461Y-54076955D01*
X104873572Y-54076955D01*
X104873574Y-54076955D01*
X105026301Y-54036032D01*
X105026304Y-54036030D01*
X105026305Y-54036030D01*
X105094767Y-53996503D01*
X105163233Y-53956975D01*
X105275037Y-53845171D01*
X105354094Y-53708239D01*
X105384902Y-53593261D01*
X105421853Y-53532640D01*
X105485713Y-53501619D01*
X105539215Y-53504166D01*
X105607035Y-53522339D01*
X105607038Y-53522339D01*
X105765147Y-53522339D01*
X105765149Y-53522339D01*
X105917876Y-53481416D01*
X105917879Y-53481414D01*
X105917880Y-53481414D01*
X105998417Y-53434916D01*
X106054808Y-53402359D01*
X106166612Y-53290555D01*
X106245669Y-53153623D01*
X106286592Y-53000896D01*
X106286592Y-52842782D01*
X106286045Y-52840742D01*
X106284588Y-52835301D01*
X106284586Y-52835296D01*
X106278061Y-52810943D01*
X126319500Y-52810943D01*
X126319500Y-52969057D01*
X126355589Y-53103743D01*
X126360424Y-53121788D01*
X126439477Y-53258712D01*
X126439485Y-53258722D01*
X126551277Y-53370514D01*
X126551282Y-53370518D01*
X126551284Y-53370520D01*
X126551285Y-53370521D01*
X126551287Y-53370522D01*
X126688211Y-53449575D01*
X126688213Y-53449575D01*
X126688216Y-53449577D01*
X126840943Y-53490500D01*
X126840945Y-53490500D01*
X126999055Y-53490500D01*
X126999057Y-53490500D01*
X127151784Y-53449577D01*
X127151787Y-53449575D01*
X127151788Y-53449575D01*
X127233579Y-53402353D01*
X127288716Y-53370520D01*
X127400520Y-53258716D01*
X127479577Y-53121784D01*
X127520500Y-52969057D01*
X127520500Y-52810943D01*
X127479577Y-52658216D01*
X127479575Y-52658213D01*
X127479575Y-52658211D01*
X127400522Y-52521287D01*
X127400514Y-52521277D01*
X127288722Y-52409485D01*
X127288712Y-52409477D01*
X127151788Y-52330424D01*
X127117882Y-52321339D01*
X126999057Y-52289500D01*
X126840943Y-52289500D01*
X126747470Y-52314545D01*
X126688211Y-52330424D01*
X126551287Y-52409477D01*
X126551277Y-52409485D01*
X126439485Y-52521277D01*
X126439477Y-52521287D01*
X126360424Y-52658211D01*
X126360423Y-52658216D01*
X126319500Y-52810943D01*
X106278061Y-52810943D01*
X106245669Y-52690055D01*
X106245667Y-52690052D01*
X106245667Y-52690050D01*
X106166614Y-52553126D01*
X106166606Y-52553116D01*
X106054814Y-52441324D01*
X106054804Y-52441316D01*
X105917880Y-52362263D01*
X105899835Y-52357428D01*
X105765149Y-52321339D01*
X105607035Y-52321339D01*
X105513562Y-52346384D01*
X105454303Y-52362263D01*
X105317379Y-52441316D01*
X105317369Y-52441324D01*
X105205577Y-52553116D01*
X105205569Y-52553126D01*
X105126515Y-52690053D01*
X105095706Y-52805031D01*
X105058754Y-52865654D01*
X104994894Y-52896675D01*
X104941389Y-52894126D01*
X104873574Y-52875955D01*
X104715460Y-52875955D01*
X104647645Y-52894126D01*
X104562728Y-52916879D01*
X104425804Y-52995932D01*
X104425794Y-52995940D01*
X104314002Y-53107732D01*
X104313994Y-53107742D01*
X104234942Y-53244665D01*
X104234940Y-53244669D01*
X104234940Y-53244671D01*
X104200208Y-53374294D01*
X104163256Y-53434916D01*
X104099395Y-53465938D01*
X104045891Y-53463389D01*
X103994057Y-53449500D01*
X103835943Y-53449500D01*
X103742470Y-53474545D01*
X103683211Y-53490424D01*
X103546287Y-53569477D01*
X103546277Y-53569485D01*
X103434485Y-53681277D01*
X103434477Y-53681287D01*
X103355424Y-53818211D01*
X103348200Y-53845171D01*
X103314500Y-53970943D01*
X61188900Y-53970943D01*
X61188900Y-51949252D01*
X103262807Y-51949252D01*
X103262807Y-52107366D01*
X103298896Y-52242052D01*
X103303731Y-52260097D01*
X103382784Y-52397021D01*
X103382792Y-52397031D01*
X103494584Y-52508823D01*
X103494589Y-52508827D01*
X103494591Y-52508829D01*
X103494592Y-52508830D01*
X103494594Y-52508831D01*
X103631518Y-52587884D01*
X103631520Y-52587884D01*
X103631523Y-52587886D01*
X103784250Y-52628809D01*
X103784252Y-52628809D01*
X103942362Y-52628809D01*
X103942364Y-52628809D01*
X104095091Y-52587886D01*
X104095094Y-52587884D01*
X104095095Y-52587884D01*
X104210462Y-52521277D01*
X104232023Y-52508829D01*
X104343827Y-52397025D01*
X104422884Y-52260093D01*
X104463807Y-52107366D01*
X104463807Y-51949252D01*
X104422884Y-51796525D01*
X104422881Y-51796520D01*
X104420897Y-51789114D01*
X104422587Y-51718137D01*
X104462381Y-51659341D01*
X104527645Y-51631393D01*
X104542604Y-51630502D01*
X104692362Y-51630502D01*
X104692364Y-51630502D01*
X104845091Y-51589579D01*
X104845094Y-51589577D01*
X104845095Y-51589577D01*
X104917479Y-51547786D01*
X104982023Y-51510522D01*
X105093827Y-51398718D01*
X105137586Y-51322925D01*
X105172882Y-51261790D01*
X105172882Y-51261789D01*
X105172884Y-51261786D01*
X105213807Y-51109059D01*
X105213807Y-50950945D01*
X105172884Y-50798218D01*
X105172882Y-50798215D01*
X105172882Y-50798213D01*
X105093829Y-50661289D01*
X105093821Y-50661279D01*
X104982029Y-50549487D01*
X104982019Y-50549479D01*
X104845095Y-50470426D01*
X104827050Y-50465591D01*
X104692364Y-50429502D01*
X104534250Y-50429502D01*
X104440777Y-50454547D01*
X104381518Y-50470426D01*
X104244594Y-50549479D01*
X104244584Y-50549487D01*
X104132792Y-50661279D01*
X104132784Y-50661289D01*
X104053731Y-50798213D01*
X104053730Y-50798218D01*
X104012807Y-50950945D01*
X104012807Y-51109059D01*
X104053730Y-51261786D01*
X104053732Y-51261789D01*
X104055717Y-51269197D01*
X104054027Y-51340174D01*
X104014233Y-51398970D01*
X103948969Y-51426918D01*
X103934010Y-51427809D01*
X103784250Y-51427809D01*
X103690777Y-51452854D01*
X103631518Y-51468733D01*
X103494594Y-51547786D01*
X103494584Y-51547794D01*
X103382792Y-51659586D01*
X103382784Y-51659596D01*
X103303731Y-51796520D01*
X103280851Y-51881908D01*
X103262807Y-51949252D01*
X61188900Y-51949252D01*
X61188900Y-51169323D01*
X99694429Y-51169323D01*
X99694429Y-51327437D01*
X99714405Y-51401988D01*
X99735353Y-51480168D01*
X99814406Y-51617092D01*
X99814414Y-51617102D01*
X99926206Y-51728894D01*
X99926211Y-51728898D01*
X99926213Y-51728900D01*
X99926214Y-51728901D01*
X99926216Y-51728902D01*
X100063140Y-51807955D01*
X100063142Y-51807955D01*
X100063145Y-51807957D01*
X100215872Y-51848880D01*
X100215874Y-51848880D01*
X100373984Y-51848880D01*
X100373986Y-51848880D01*
X100526713Y-51807957D01*
X100526716Y-51807955D01*
X100526717Y-51807955D01*
X100595179Y-51768428D01*
X100663645Y-51728900D01*
X100775449Y-51617096D01*
X100836979Y-51510522D01*
X100854504Y-51480168D01*
X100854504Y-51480167D01*
X100854506Y-51480164D01*
X100895429Y-51327437D01*
X100895429Y-51169323D01*
X100854506Y-51016596D01*
X100854504Y-51016593D01*
X100854504Y-51016591D01*
X100775451Y-50879667D01*
X100775443Y-50879657D01*
X100663651Y-50767865D01*
X100663641Y-50767857D01*
X100655842Y-50763354D01*
X101555882Y-50763354D01*
X101555882Y-50921468D01*
X101591971Y-51056154D01*
X101596806Y-51074199D01*
X101675859Y-51211123D01*
X101675867Y-51211133D01*
X101787659Y-51322925D01*
X101787664Y-51322929D01*
X101787666Y-51322931D01*
X101787667Y-51322932D01*
X101787669Y-51322933D01*
X101924593Y-51401986D01*
X101924595Y-51401986D01*
X101924598Y-51401988D01*
X102077325Y-51442911D01*
X102077327Y-51442911D01*
X102235437Y-51442911D01*
X102235439Y-51442911D01*
X102388166Y-51401988D01*
X102388169Y-51401986D01*
X102388170Y-51401986D01*
X102517293Y-51327437D01*
X102525098Y-51322931D01*
X102636902Y-51211127D01*
X102676430Y-51142661D01*
X102715957Y-51074199D01*
X102715957Y-51074198D01*
X102715959Y-51074195D01*
X102756882Y-50921468D01*
X102756882Y-50763354D01*
X102715959Y-50610627D01*
X102715957Y-50610624D01*
X102715957Y-50610622D01*
X102636904Y-50473698D01*
X102636896Y-50473688D01*
X102525104Y-50361896D01*
X102525094Y-50361888D01*
X102388170Y-50282835D01*
X102370125Y-50278000D01*
X102235439Y-50241911D01*
X102077325Y-50241911D01*
X101983852Y-50266956D01*
X101924593Y-50282835D01*
X101787669Y-50361888D01*
X101787659Y-50361896D01*
X101675867Y-50473688D01*
X101675859Y-50473698D01*
X101596806Y-50610622D01*
X101596805Y-50610627D01*
X101555882Y-50763354D01*
X100655842Y-50763354D01*
X100526717Y-50688804D01*
X100508672Y-50683969D01*
X100373986Y-50647880D01*
X100215872Y-50647880D01*
X100122399Y-50672925D01*
X100063140Y-50688804D01*
X99926216Y-50767857D01*
X99926206Y-50767865D01*
X99814414Y-50879657D01*
X99814406Y-50879667D01*
X99735353Y-51016591D01*
X99735352Y-51016596D01*
X99694429Y-51169323D01*
X61188900Y-51169323D01*
X61188900Y-49749252D01*
X106514500Y-49749252D01*
X106514500Y-49907366D01*
X106550589Y-50042052D01*
X106555424Y-50060097D01*
X106634477Y-50197021D01*
X106634485Y-50197031D01*
X106746277Y-50308823D01*
X106746282Y-50308827D01*
X106746284Y-50308829D01*
X106746285Y-50308830D01*
X106746287Y-50308831D01*
X106883211Y-50387884D01*
X106883213Y-50387884D01*
X106883216Y-50387886D01*
X107035943Y-50428809D01*
X107035945Y-50428809D01*
X107194055Y-50428809D01*
X107194057Y-50428809D01*
X107346784Y-50387886D01*
X107346787Y-50387884D01*
X107346788Y-50387884D01*
X107415250Y-50348357D01*
X107483716Y-50308829D01*
X107595520Y-50197025D01*
X107674577Y-50060093D01*
X107715500Y-49907366D01*
X107715500Y-49749252D01*
X107674577Y-49596525D01*
X107674575Y-49596522D01*
X107674575Y-49596520D01*
X107595522Y-49459596D01*
X107595514Y-49459586D01*
X107483722Y-49347794D01*
X107483712Y-49347786D01*
X107346788Y-49268733D01*
X107328743Y-49263898D01*
X107194057Y-49227809D01*
X107035943Y-49227809D01*
X106942470Y-49252854D01*
X106883211Y-49268733D01*
X106746287Y-49347786D01*
X106746277Y-49347794D01*
X106634485Y-49459586D01*
X106634477Y-49459596D01*
X106555424Y-49596520D01*
X106555423Y-49596525D01*
X106514500Y-49749252D01*
X61188900Y-49749252D01*
X61188900Y-48549252D01*
X110114500Y-48549252D01*
X110114500Y-48707366D01*
X110129248Y-48762405D01*
X110155424Y-48860097D01*
X110234477Y-48997021D01*
X110234485Y-48997031D01*
X110346277Y-49108823D01*
X110346282Y-49108827D01*
X110346284Y-49108829D01*
X110346285Y-49108830D01*
X110346287Y-49108831D01*
X110483211Y-49187884D01*
X110483213Y-49187884D01*
X110483216Y-49187886D01*
X110635943Y-49228809D01*
X110635945Y-49228809D01*
X110794055Y-49228809D01*
X110794057Y-49228809D01*
X110946784Y-49187886D01*
X110946787Y-49187884D01*
X110946788Y-49187884D01*
X111015250Y-49148357D01*
X111083716Y-49108829D01*
X111195520Y-48997025D01*
X111274577Y-48860093D01*
X111315500Y-48707366D01*
X111315500Y-48549252D01*
X111274577Y-48396525D01*
X111274575Y-48396522D01*
X111274575Y-48396520D01*
X111195522Y-48259596D01*
X111195514Y-48259586D01*
X111083722Y-48147794D01*
X111083712Y-48147786D01*
X110946788Y-48068733D01*
X110928743Y-48063898D01*
X110794057Y-48027809D01*
X110635943Y-48027809D01*
X110542470Y-48052854D01*
X110483211Y-48068733D01*
X110346287Y-48147786D01*
X110346277Y-48147794D01*
X110234485Y-48259586D01*
X110234477Y-48259596D01*
X110155424Y-48396520D01*
X110155423Y-48396525D01*
X110114500Y-48549252D01*
X61188900Y-48549252D01*
X61188900Y-47233752D01*
X97514500Y-47233752D01*
X97514500Y-47391866D01*
X97548488Y-47518712D01*
X97555424Y-47544597D01*
X97634477Y-47681521D01*
X97634485Y-47681531D01*
X97746277Y-47793323D01*
X97746282Y-47793327D01*
X97746284Y-47793329D01*
X97746285Y-47793330D01*
X97746287Y-47793331D01*
X97883211Y-47872384D01*
X97883213Y-47872384D01*
X97883216Y-47872386D01*
X98035943Y-47913309D01*
X98035945Y-47913309D01*
X98194055Y-47913309D01*
X98194057Y-47913309D01*
X98346784Y-47872386D01*
X98346787Y-47872384D01*
X98346788Y-47872384D01*
X98415250Y-47832857D01*
X98483716Y-47793329D01*
X98483722Y-47793323D01*
X98568155Y-47708891D01*
X98630467Y-47674865D01*
X98701282Y-47679930D01*
X98746345Y-47708891D01*
X98846277Y-47808823D01*
X98846282Y-47808827D01*
X98846284Y-47808829D01*
X98846285Y-47808830D01*
X98846287Y-47808831D01*
X98983211Y-47887884D01*
X98983213Y-47887884D01*
X98983216Y-47887886D01*
X99135943Y-47928809D01*
X99135945Y-47928809D01*
X99294055Y-47928809D01*
X99294057Y-47928809D01*
X99446784Y-47887886D01*
X99446787Y-47887884D01*
X99446788Y-47887884D01*
X99515250Y-47848357D01*
X99583716Y-47808829D01*
X99695520Y-47697025D01*
X99735048Y-47628559D01*
X99774575Y-47560097D01*
X99774575Y-47560096D01*
X99774577Y-47560093D01*
X99815500Y-47407366D01*
X99815500Y-47249252D01*
X99774577Y-47096525D01*
X99774575Y-47096522D01*
X99774575Y-47096520D01*
X99759808Y-47070943D01*
X110230446Y-47070943D01*
X110230446Y-47229057D01*
X110266535Y-47363743D01*
X110271370Y-47381788D01*
X110350423Y-47518712D01*
X110350431Y-47518722D01*
X110462223Y-47630514D01*
X110462228Y-47630518D01*
X110462230Y-47630520D01*
X110462231Y-47630521D01*
X110462233Y-47630522D01*
X110599157Y-47709575D01*
X110599159Y-47709575D01*
X110599162Y-47709577D01*
X110751889Y-47750500D01*
X110751891Y-47750500D01*
X110910001Y-47750500D01*
X110910003Y-47750500D01*
X111062730Y-47709577D01*
X111062733Y-47709575D01*
X111062734Y-47709575D01*
X111131196Y-47670048D01*
X111199662Y-47630520D01*
X111311466Y-47518716D01*
X111350994Y-47450250D01*
X111390521Y-47381788D01*
X111390521Y-47381787D01*
X111390523Y-47381784D01*
X111431446Y-47229057D01*
X111431446Y-47070943D01*
X111390523Y-46918216D01*
X111390521Y-46918213D01*
X111390521Y-46918211D01*
X111311468Y-46781287D01*
X111311460Y-46781277D01*
X111199668Y-46669485D01*
X111199658Y-46669477D01*
X111062734Y-46590424D01*
X111044689Y-46585589D01*
X110910003Y-46549500D01*
X110751889Y-46549500D01*
X110658416Y-46574545D01*
X110599157Y-46590424D01*
X110462233Y-46669477D01*
X110462223Y-46669485D01*
X110350431Y-46781277D01*
X110350423Y-46781287D01*
X110271370Y-46918211D01*
X110250253Y-46997021D01*
X110230446Y-47070943D01*
X99759808Y-47070943D01*
X99695522Y-46959596D01*
X99695514Y-46959586D01*
X99583722Y-46847794D01*
X99583712Y-46847786D01*
X99446788Y-46768733D01*
X99428743Y-46763898D01*
X99294057Y-46727809D01*
X99135943Y-46727809D01*
X99042470Y-46752854D01*
X98983211Y-46768733D01*
X98846287Y-46847786D01*
X98846277Y-46847794D01*
X98761845Y-46932227D01*
X98699533Y-46966253D01*
X98628718Y-46961188D01*
X98583655Y-46932227D01*
X98483722Y-46832294D01*
X98483712Y-46832286D01*
X98346788Y-46753233D01*
X98328743Y-46748398D01*
X98194057Y-46712309D01*
X98035943Y-46712309D01*
X97942470Y-46737354D01*
X97883211Y-46753233D01*
X97746287Y-46832286D01*
X97746277Y-46832294D01*
X97634485Y-46944086D01*
X97634477Y-46944096D01*
X97555424Y-47081020D01*
X97547973Y-47108829D01*
X97514500Y-47233752D01*
X61188900Y-47233752D01*
X61188900Y-46549252D01*
X92014500Y-46549252D01*
X92014500Y-46707366D01*
X92034306Y-46781284D01*
X92055424Y-46860097D01*
X92134477Y-46997021D01*
X92134485Y-46997031D01*
X92246277Y-47108823D01*
X92246282Y-47108827D01*
X92246284Y-47108829D01*
X92246285Y-47108830D01*
X92246287Y-47108831D01*
X92383211Y-47187884D01*
X92383213Y-47187884D01*
X92383216Y-47187886D01*
X92535943Y-47228809D01*
X92535945Y-47228809D01*
X92694055Y-47228809D01*
X92694057Y-47228809D01*
X92846784Y-47187886D01*
X92846787Y-47187884D01*
X92846788Y-47187884D01*
X92970646Y-47116375D01*
X92970646Y-47116374D01*
X92983716Y-47108829D01*
X93095520Y-46997025D01*
X93174577Y-46860093D01*
X93215500Y-46707366D01*
X93215500Y-46549252D01*
X93174577Y-46396525D01*
X93174575Y-46396522D01*
X93174575Y-46396520D01*
X93095522Y-46259596D01*
X93095514Y-46259586D01*
X92983722Y-46147794D01*
X92983712Y-46147786D01*
X92878087Y-46086804D01*
X92846788Y-46068733D01*
X92828743Y-46063898D01*
X92694057Y-46027809D01*
X92535943Y-46027809D01*
X92442470Y-46052854D01*
X92383211Y-46068733D01*
X92246287Y-46147786D01*
X92246277Y-46147794D01*
X92134485Y-46259586D01*
X92134477Y-46259596D01*
X92055424Y-46396520D01*
X92055423Y-46396525D01*
X92014500Y-46549252D01*
X61188900Y-46549252D01*
X61188900Y-45985943D01*
X126684500Y-45985943D01*
X126684500Y-46144057D01*
X126715456Y-46259586D01*
X126725424Y-46296788D01*
X126804477Y-46433712D01*
X126804485Y-46433722D01*
X126916277Y-46545514D01*
X126916282Y-46545518D01*
X126916284Y-46545520D01*
X126916285Y-46545521D01*
X126916287Y-46545522D01*
X127053211Y-46624575D01*
X127053213Y-46624575D01*
X127053216Y-46624577D01*
X127205943Y-46665500D01*
X127205945Y-46665500D01*
X127364055Y-46665500D01*
X127364057Y-46665500D01*
X127516784Y-46624577D01*
X127516787Y-46624575D01*
X127516788Y-46624575D01*
X127647250Y-46549253D01*
X127653716Y-46545520D01*
X127765520Y-46433716D01*
X127844577Y-46296784D01*
X127885500Y-46144057D01*
X127885500Y-45985943D01*
X127844577Y-45833216D01*
X127844575Y-45833213D01*
X127844575Y-45833211D01*
X127820196Y-45790986D01*
X127803458Y-45721991D01*
X127826678Y-45654899D01*
X127882485Y-45611012D01*
X127896694Y-45606282D01*
X128003779Y-45577589D01*
X128003782Y-45577587D01*
X128003783Y-45577587D01*
X128137264Y-45500522D01*
X128140711Y-45498532D01*
X128252515Y-45386728D01*
X128269667Y-45357018D01*
X128321048Y-45308025D01*
X128390762Y-45294587D01*
X128456673Y-45320973D01*
X128497856Y-45378804D01*
X128500490Y-45387393D01*
X128503070Y-45397021D01*
X128520424Y-45461788D01*
X128599477Y-45598712D01*
X128599485Y-45598722D01*
X128711277Y-45710514D01*
X128711282Y-45710518D01*
X128711284Y-45710520D01*
X128711285Y-45710521D01*
X128711287Y-45710522D01*
X128848211Y-45789575D01*
X128848213Y-45789575D01*
X128848216Y-45789577D01*
X129000943Y-45830500D01*
X129000945Y-45830500D01*
X129159055Y-45830500D01*
X129159057Y-45830500D01*
X129311784Y-45789577D01*
X129311787Y-45789575D01*
X129311788Y-45789575D01*
X129428847Y-45721991D01*
X129448716Y-45710520D01*
X129560520Y-45598716D01*
X129617213Y-45500520D01*
X129639575Y-45461788D01*
X129639575Y-45461787D01*
X129639577Y-45461784D01*
X129680500Y-45309057D01*
X129680500Y-45150943D01*
X129639577Y-44998216D01*
X129639575Y-44998213D01*
X129639575Y-44998211D01*
X129560522Y-44861287D01*
X129560514Y-44861277D01*
X129448722Y-44749485D01*
X129448712Y-44749477D01*
X129311788Y-44670424D01*
X129271377Y-44659596D01*
X129159057Y-44629500D01*
X129000943Y-44629500D01*
X128927052Y-44649299D01*
X128848211Y-44670424D01*
X128711287Y-44749477D01*
X128711277Y-44749485D01*
X128599485Y-44861277D01*
X128599477Y-44861287D01*
X128582325Y-44890996D01*
X128530942Y-44939988D01*
X128461228Y-44953423D01*
X128395318Y-44927036D01*
X128354136Y-44869203D01*
X128351507Y-44860628D01*
X128331572Y-44786228D01*
X128253664Y-44651287D01*
X128252517Y-44649299D01*
X128252509Y-44649289D01*
X128140717Y-44537497D01*
X128140707Y-44537489D01*
X128003783Y-44458436D01*
X127985738Y-44453601D01*
X127851052Y-44417512D01*
X127692938Y-44417512D01*
X127599465Y-44442557D01*
X127540206Y-44458436D01*
X127403282Y-44537489D01*
X127403272Y-44537497D01*
X127291480Y-44649289D01*
X127291472Y-44649299D01*
X127212419Y-44786223D01*
X127211885Y-44788216D01*
X127171495Y-44938955D01*
X127171495Y-45097069D01*
X127185931Y-45150944D01*
X127212419Y-45249800D01*
X127236798Y-45292025D01*
X127253536Y-45361021D01*
X127230315Y-45428112D01*
X127174508Y-45471999D01*
X127160291Y-45476731D01*
X127053214Y-45505423D01*
X126916287Y-45584477D01*
X126916277Y-45584485D01*
X126804485Y-45696277D01*
X126804477Y-45696287D01*
X126725424Y-45833211D01*
X126725423Y-45833216D01*
X126684500Y-45985943D01*
X61188900Y-45985943D01*
X61188900Y-44949252D01*
X92014500Y-44949252D01*
X92014500Y-45107366D01*
X92026177Y-45150944D01*
X92055424Y-45260097D01*
X92134477Y-45397021D01*
X92134485Y-45397031D01*
X92246277Y-45508823D01*
X92246282Y-45508827D01*
X92246284Y-45508829D01*
X92246285Y-45508830D01*
X92246287Y-45508831D01*
X92383211Y-45587884D01*
X92383213Y-45587884D01*
X92383216Y-45587886D01*
X92535943Y-45628809D01*
X92535945Y-45628809D01*
X92694055Y-45628809D01*
X92694057Y-45628809D01*
X92846784Y-45587886D01*
X92846787Y-45587884D01*
X92846788Y-45587884D01*
X92915250Y-45548357D01*
X92983716Y-45508829D01*
X93095520Y-45397025D01*
X93174577Y-45260093D01*
X93215500Y-45107366D01*
X93215500Y-44949252D01*
X93213274Y-44940943D01*
X108599500Y-44940943D01*
X108599500Y-45099057D01*
X108613403Y-45150943D01*
X108640424Y-45251788D01*
X108719477Y-45388712D01*
X108719485Y-45388722D01*
X108831277Y-45500514D01*
X108831282Y-45500518D01*
X108831284Y-45500520D01*
X108831285Y-45500521D01*
X108831287Y-45500522D01*
X108968211Y-45579575D01*
X108968213Y-45579575D01*
X108968216Y-45579577D01*
X109120943Y-45620500D01*
X109120945Y-45620500D01*
X109279055Y-45620500D01*
X109279057Y-45620500D01*
X109431784Y-45579577D01*
X109431787Y-45579575D01*
X109431788Y-45579575D01*
X109500250Y-45540048D01*
X109568716Y-45500520D01*
X109680520Y-45388716D01*
X109759577Y-45251784D01*
X109800500Y-45099057D01*
X109800500Y-44940943D01*
X109759577Y-44788216D01*
X109759575Y-44788213D01*
X109759575Y-44788211D01*
X109680522Y-44651287D01*
X109680514Y-44651277D01*
X109568722Y-44539485D01*
X109568712Y-44539477D01*
X109431788Y-44460424D01*
X109413743Y-44455589D01*
X109279057Y-44419500D01*
X109120943Y-44419500D01*
X109027470Y-44444545D01*
X108968211Y-44460424D01*
X108831287Y-44539477D01*
X108831277Y-44539485D01*
X108719485Y-44651277D01*
X108719477Y-44651287D01*
X108640424Y-44788211D01*
X108620844Y-44861287D01*
X108599500Y-44940943D01*
X93213274Y-44940943D01*
X93174577Y-44796525D01*
X93174575Y-44796522D01*
X93174575Y-44796520D01*
X93095522Y-44659596D01*
X93095514Y-44659586D01*
X92983722Y-44547794D01*
X92983712Y-44547786D01*
X92846788Y-44468733D01*
X92815774Y-44460423D01*
X92694057Y-44427809D01*
X92535943Y-44427809D01*
X92442470Y-44452854D01*
X92383211Y-44468733D01*
X92246287Y-44547786D01*
X92246277Y-44547794D01*
X92134485Y-44659586D01*
X92134477Y-44659596D01*
X92055424Y-44796520D01*
X92055423Y-44796525D01*
X92014500Y-44949252D01*
X61188900Y-44949252D01*
X61188900Y-43433475D01*
X126134500Y-43433475D01*
X126134500Y-43591589D01*
X126149789Y-43648648D01*
X126175424Y-43744320D01*
X126254477Y-43881244D01*
X126254485Y-43881254D01*
X126366277Y-43993046D01*
X126366282Y-43993050D01*
X126366284Y-43993052D01*
X126366285Y-43993053D01*
X126366287Y-43993054D01*
X126503211Y-44072107D01*
X126503213Y-44072107D01*
X126503216Y-44072109D01*
X126655943Y-44113032D01*
X126655945Y-44113032D01*
X126814055Y-44113032D01*
X126814057Y-44113032D01*
X126966784Y-44072109D01*
X126966787Y-44072107D01*
X126966788Y-44072107D01*
X127035250Y-44032580D01*
X127103716Y-43993052D01*
X127215520Y-43881248D01*
X127255048Y-43812782D01*
X127294575Y-43744320D01*
X127294575Y-43744319D01*
X127294577Y-43744316D01*
X127335500Y-43591589D01*
X127335500Y-43433475D01*
X127294577Y-43280748D01*
X127294574Y-43280743D01*
X127280070Y-43255620D01*
X127280069Y-43255618D01*
X127248466Y-43200879D01*
X127766050Y-43200879D01*
X127766050Y-43358993D01*
X127786008Y-43433476D01*
X127806974Y-43511724D01*
X127886027Y-43648648D01*
X127886035Y-43648658D01*
X127997827Y-43760450D01*
X127997832Y-43760454D01*
X127997834Y-43760456D01*
X127997835Y-43760457D01*
X127997837Y-43760458D01*
X128134761Y-43839511D01*
X128134763Y-43839511D01*
X128134766Y-43839513D01*
X128287493Y-43880436D01*
X128287495Y-43880436D01*
X128445605Y-43880436D01*
X128445607Y-43880436D01*
X128598334Y-43839513D01*
X128598337Y-43839511D01*
X128598338Y-43839511D01*
X128666800Y-43799984D01*
X128735266Y-43760456D01*
X128847070Y-43648652D01*
X128926127Y-43511720D01*
X128967050Y-43358993D01*
X128967050Y-43311471D01*
X128987052Y-43243350D01*
X129040708Y-43196857D01*
X129093050Y-43185471D01*
X129232706Y-43185471D01*
X129232708Y-43185471D01*
X129385435Y-43144548D01*
X129385438Y-43144546D01*
X129385439Y-43144546D01*
X129453901Y-43105019D01*
X129522367Y-43065491D01*
X129634171Y-42953687D01*
X129713228Y-42816755D01*
X129754151Y-42664028D01*
X129754151Y-42505914D01*
X129713228Y-42353187D01*
X129713226Y-42353184D01*
X129713226Y-42353182D01*
X129634173Y-42216258D01*
X129634165Y-42216248D01*
X129522373Y-42104456D01*
X129522363Y-42104448D01*
X129385439Y-42025395D01*
X129367394Y-42020560D01*
X129232708Y-41984471D01*
X129074594Y-41984471D01*
X128981121Y-42009516D01*
X128921862Y-42025395D01*
X128784938Y-42104448D01*
X128784928Y-42104456D01*
X128673136Y-42216248D01*
X128673128Y-42216258D01*
X128594075Y-42353182D01*
X128571195Y-42438570D01*
X128565568Y-42459575D01*
X128553151Y-42505915D01*
X128553151Y-42553436D01*
X128533149Y-42621557D01*
X128479493Y-42668050D01*
X128427151Y-42679436D01*
X128287493Y-42679436D01*
X128194020Y-42704481D01*
X128134761Y-42720360D01*
X127997837Y-42799413D01*
X127997827Y-42799421D01*
X127886035Y-42911213D01*
X127886027Y-42911223D01*
X127806974Y-43048147D01*
X127784094Y-43133535D01*
X127766050Y-43200879D01*
X127248466Y-43200879D01*
X127215522Y-43143819D01*
X127215514Y-43143809D01*
X127103722Y-43032017D01*
X127103712Y-43032009D01*
X126966788Y-42952956D01*
X126948743Y-42948121D01*
X126814057Y-42912032D01*
X126655943Y-42912032D01*
X126562470Y-42937077D01*
X126503211Y-42952956D01*
X126366287Y-43032009D01*
X126366277Y-43032017D01*
X126254485Y-43143809D01*
X126254477Y-43143819D01*
X126175424Y-43280743D01*
X126175423Y-43280748D01*
X126134500Y-43433475D01*
X61188900Y-43433475D01*
X61188900Y-42349252D01*
X109414500Y-42349252D01*
X109414500Y-42507366D01*
X109445097Y-42621557D01*
X109455424Y-42660097D01*
X109534477Y-42797021D01*
X109534485Y-42797031D01*
X109646277Y-42908823D01*
X109646282Y-42908827D01*
X109646284Y-42908829D01*
X109646285Y-42908830D01*
X109646287Y-42908831D01*
X109783211Y-42987884D01*
X109783213Y-42987884D01*
X109783216Y-42987886D01*
X109935943Y-43028809D01*
X109935945Y-43028809D01*
X110094055Y-43028809D01*
X110094057Y-43028809D01*
X110246784Y-42987886D01*
X110246787Y-42987884D01*
X110246788Y-42987884D01*
X110379569Y-42911223D01*
X110383716Y-42908829D01*
X110495520Y-42797025D01*
X110544798Y-42711673D01*
X110574575Y-42660097D01*
X110574575Y-42660096D01*
X110574577Y-42660093D01*
X110615500Y-42507366D01*
X110615500Y-42349252D01*
X110574577Y-42196525D01*
X110574575Y-42196522D01*
X110574575Y-42196520D01*
X110495522Y-42059596D01*
X110495514Y-42059586D01*
X110383722Y-41947794D01*
X110383712Y-41947786D01*
X110338709Y-41921804D01*
X110246788Y-41868733D01*
X110228743Y-41863898D01*
X110094057Y-41827809D01*
X109935943Y-41827809D01*
X109842470Y-41852854D01*
X109783211Y-41868733D01*
X109646287Y-41947786D01*
X109646277Y-41947794D01*
X109534485Y-42059586D01*
X109534477Y-42059596D01*
X109455424Y-42196520D01*
X109436078Y-42268722D01*
X109414500Y-42349252D01*
X61188900Y-42349252D01*
X61188900Y-41820943D01*
X126909500Y-41820943D01*
X126909500Y-41979057D01*
X126945589Y-42113743D01*
X126950424Y-42131788D01*
X127029477Y-42268712D01*
X127029485Y-42268722D01*
X127141277Y-42380514D01*
X127141282Y-42380518D01*
X127141284Y-42380520D01*
X127141285Y-42380521D01*
X127141287Y-42380522D01*
X127278211Y-42459575D01*
X127278213Y-42459575D01*
X127278216Y-42459577D01*
X127430943Y-42500500D01*
X127430945Y-42500500D01*
X127589055Y-42500500D01*
X127589057Y-42500500D01*
X127741784Y-42459577D01*
X127741787Y-42459575D01*
X127741788Y-42459575D01*
X127810250Y-42420048D01*
X127878716Y-42380520D01*
X127990520Y-42268716D01*
X128069577Y-42131784D01*
X128110500Y-41979057D01*
X128110500Y-41820943D01*
X128069577Y-41668216D01*
X128069575Y-41668213D01*
X128069575Y-41668211D01*
X127990522Y-41531287D01*
X127990514Y-41531277D01*
X127878722Y-41419485D01*
X127878712Y-41419477D01*
X127741788Y-41340424D01*
X127723743Y-41335589D01*
X127589057Y-41299500D01*
X127430943Y-41299500D01*
X127352518Y-41320514D01*
X127278211Y-41340424D01*
X127141287Y-41419477D01*
X127141277Y-41419485D01*
X127029485Y-41531277D01*
X127029477Y-41531287D01*
X126950424Y-41668211D01*
X126950423Y-41668216D01*
X126909500Y-41820943D01*
X61188900Y-41820943D01*
X61188900Y-40760943D01*
X93959500Y-40760943D01*
X93959500Y-40919057D01*
X93978649Y-40990522D01*
X94000424Y-41071788D01*
X94079477Y-41208712D01*
X94079485Y-41208722D01*
X94191277Y-41320514D01*
X94191282Y-41320518D01*
X94191284Y-41320520D01*
X94191285Y-41320521D01*
X94191287Y-41320522D01*
X94328211Y-41399575D01*
X94328213Y-41399575D01*
X94328216Y-41399577D01*
X94480943Y-41440500D01*
X94480945Y-41440500D01*
X94639055Y-41440500D01*
X94639057Y-41440500D01*
X94791784Y-41399577D01*
X94791787Y-41399575D01*
X94791788Y-41399575D01*
X94894241Y-41340424D01*
X94928716Y-41320520D01*
X95040520Y-41208716D01*
X95119577Y-41071784D01*
X95160500Y-40919057D01*
X95160500Y-40760943D01*
X95119577Y-40608216D01*
X95119575Y-40608213D01*
X95119575Y-40608211D01*
X95048835Y-40485685D01*
X95048834Y-40485683D01*
X95040524Y-40471290D01*
X95040521Y-40471287D01*
X95040520Y-40471284D01*
X95040517Y-40471281D01*
X95040514Y-40471277D01*
X95000180Y-40430943D01*
X102679500Y-40430943D01*
X102679500Y-40589057D01*
X102684634Y-40608216D01*
X102720424Y-40741788D01*
X102799477Y-40878712D01*
X102799485Y-40878722D01*
X102911277Y-40990514D01*
X102911282Y-40990518D01*
X102911284Y-40990520D01*
X102911285Y-40990521D01*
X102911287Y-40990522D01*
X103048211Y-41069575D01*
X103048213Y-41069575D01*
X103048216Y-41069577D01*
X103200943Y-41110500D01*
X103200945Y-41110500D01*
X103359055Y-41110500D01*
X103359057Y-41110500D01*
X103511784Y-41069577D01*
X103511787Y-41069575D01*
X103511788Y-41069575D01*
X103580250Y-41030048D01*
X103648716Y-40990520D01*
X103760520Y-40878716D01*
X103828516Y-40760943D01*
X120649500Y-40760943D01*
X120649500Y-40919057D01*
X120668649Y-40990522D01*
X120690424Y-41071788D01*
X120769477Y-41208712D01*
X120769485Y-41208722D01*
X120881277Y-41320514D01*
X120881282Y-41320518D01*
X120881284Y-41320520D01*
X120881285Y-41320521D01*
X120881287Y-41320522D01*
X121018211Y-41399575D01*
X121018213Y-41399575D01*
X121018216Y-41399577D01*
X121170943Y-41440500D01*
X121170945Y-41440500D01*
X121329055Y-41440500D01*
X121329057Y-41440500D01*
X121481784Y-41399577D01*
X121481787Y-41399575D01*
X121481788Y-41399575D01*
X121584241Y-41340424D01*
X121618716Y-41320520D01*
X121730520Y-41208716D01*
X121809577Y-41071784D01*
X121850500Y-40919057D01*
X121850500Y-40760943D01*
X121809577Y-40608216D01*
X121809575Y-40608213D01*
X121809575Y-40608211D01*
X121730522Y-40471287D01*
X121730514Y-40471277D01*
X121618722Y-40359485D01*
X121618712Y-40359477D01*
X121481788Y-40280424D01*
X121463743Y-40275589D01*
X121329057Y-40239500D01*
X121170943Y-40239500D01*
X121077470Y-40264545D01*
X121018211Y-40280424D01*
X120881287Y-40359477D01*
X120881277Y-40359485D01*
X120769485Y-40471277D01*
X120769477Y-40471287D01*
X120690424Y-40608211D01*
X120690423Y-40608216D01*
X120649500Y-40760943D01*
X103828516Y-40760943D01*
X103839577Y-40741784D01*
X103880500Y-40589057D01*
X103880500Y-40430943D01*
X103839577Y-40278216D01*
X103839575Y-40278213D01*
X103839575Y-40278211D01*
X103760522Y-40141287D01*
X103760514Y-40141277D01*
X103648722Y-40029485D01*
X103648712Y-40029477D01*
X103511788Y-39950424D01*
X103493743Y-39945589D01*
X103359057Y-39909500D01*
X103200943Y-39909500D01*
X103107470Y-39934545D01*
X103048211Y-39950424D01*
X102911287Y-40029477D01*
X102911277Y-40029485D01*
X102799485Y-40141277D01*
X102799477Y-40141287D01*
X102720424Y-40278211D01*
X102719831Y-40280424D01*
X102679500Y-40430943D01*
X95000180Y-40430943D01*
X94928722Y-40359485D01*
X94928712Y-40359477D01*
X94791788Y-40280424D01*
X94773743Y-40275589D01*
X94639057Y-40239500D01*
X94480943Y-40239500D01*
X94387470Y-40264545D01*
X94328211Y-40280424D01*
X94191287Y-40359477D01*
X94191277Y-40359485D01*
X94079485Y-40471277D01*
X94079477Y-40471287D01*
X94000424Y-40608211D01*
X94000423Y-40608216D01*
X93959500Y-40760943D01*
X61188900Y-40760943D01*
X61188900Y-37670943D01*
X92299500Y-37670943D01*
X92299500Y-37829057D01*
X92335589Y-37963743D01*
X92340424Y-37981788D01*
X92419477Y-38118712D01*
X92419485Y-38118722D01*
X92531277Y-38230514D01*
X92531282Y-38230518D01*
X92531284Y-38230520D01*
X92531285Y-38230521D01*
X92531287Y-38230522D01*
X92668211Y-38309575D01*
X92668213Y-38309575D01*
X92668216Y-38309577D01*
X92820943Y-38350500D01*
X92820945Y-38350500D01*
X92979055Y-38350500D01*
X92979057Y-38350500D01*
X93131784Y-38309577D01*
X93131787Y-38309575D01*
X93131788Y-38309575D01*
X93200250Y-38270048D01*
X93268716Y-38230520D01*
X93380520Y-38118716D01*
X93459577Y-37981784D01*
X93500500Y-37829057D01*
X93500500Y-37670943D01*
X93459577Y-37518216D01*
X93459575Y-37518213D01*
X93459575Y-37518211D01*
X93380522Y-37381287D01*
X93380514Y-37381277D01*
X93268722Y-37269485D01*
X93268712Y-37269477D01*
X93131788Y-37190424D01*
X93113743Y-37185589D01*
X92979057Y-37149500D01*
X92820943Y-37149500D01*
X92727470Y-37174545D01*
X92668211Y-37190424D01*
X92531287Y-37269477D01*
X92531277Y-37269485D01*
X92419485Y-37381277D01*
X92419477Y-37381287D01*
X92340424Y-37518211D01*
X92340423Y-37518216D01*
X92299500Y-37670943D01*
X61188900Y-37670943D01*
X61188900Y-32735943D01*
X132128336Y-32735943D01*
X132128336Y-32894057D01*
X132164425Y-33028743D01*
X132169260Y-33046788D01*
X132248313Y-33183712D01*
X132248321Y-33183722D01*
X132360113Y-33295514D01*
X132360118Y-33295518D01*
X132360120Y-33295520D01*
X132360121Y-33295521D01*
X132360123Y-33295522D01*
X132497047Y-33374575D01*
X132497049Y-33374575D01*
X132497052Y-33374577D01*
X132649779Y-33415500D01*
X132649781Y-33415500D01*
X132807891Y-33415500D01*
X132807893Y-33415500D01*
X132960620Y-33374577D01*
X132960623Y-33374575D01*
X132960624Y-33374575D01*
X133029086Y-33335048D01*
X133097552Y-33295520D01*
X133209356Y-33183716D01*
X133288413Y-33046784D01*
X133329336Y-32894057D01*
X133329336Y-32735943D01*
X133288413Y-32583216D01*
X133288411Y-32583213D01*
X133288411Y-32583211D01*
X133209358Y-32446287D01*
X133209350Y-32446277D01*
X133097558Y-32334485D01*
X133097548Y-32334477D01*
X132960624Y-32255424D01*
X132942579Y-32250589D01*
X132807893Y-32214500D01*
X132649779Y-32214500D01*
X132556306Y-32239545D01*
X132497047Y-32255424D01*
X132360123Y-32334477D01*
X132360113Y-32334485D01*
X132248321Y-32446277D01*
X132248313Y-32446287D01*
X132169260Y-32583211D01*
X132169259Y-32583216D01*
X132128336Y-32735943D01*
X61188900Y-32735943D01*
X61188900Y-27966532D01*
X73929500Y-27966532D01*
X73929500Y-27966535D01*
X73929500Y-28173465D01*
X73969870Y-28376420D01*
X74049059Y-28567598D01*
X74141202Y-28705500D01*
X74164024Y-28739656D01*
X74164029Y-28739662D01*
X74310337Y-28885970D01*
X74310343Y-28885975D01*
X74310345Y-28885977D01*
X74482402Y-29000941D01*
X74673580Y-29080130D01*
X74876535Y-29120500D01*
X74876536Y-29120500D01*
X75083464Y-29120500D01*
X75083465Y-29120500D01*
X75286420Y-29080130D01*
X75477598Y-29000941D01*
X75649655Y-28885977D01*
X75795977Y-28739655D01*
X75910941Y-28567598D01*
X75990130Y-28376420D01*
X76030500Y-28173465D01*
X76030500Y-27966535D01*
X76030499Y-27966532D01*
X76469500Y-27966532D01*
X76469500Y-27966535D01*
X76469500Y-28173465D01*
X76509870Y-28376420D01*
X76589059Y-28567598D01*
X76681202Y-28705500D01*
X76704024Y-28739656D01*
X76704029Y-28739662D01*
X76850337Y-28885970D01*
X76850343Y-28885975D01*
X76850345Y-28885977D01*
X77022402Y-29000941D01*
X77213580Y-29080130D01*
X77416535Y-29120500D01*
X77416536Y-29120500D01*
X77623464Y-29120500D01*
X77623465Y-29120500D01*
X77826420Y-29080130D01*
X78017598Y-29000941D01*
X78189655Y-28885977D01*
X78335977Y-28739655D01*
X78450941Y-28567598D01*
X78530130Y-28376420D01*
X78570500Y-28173465D01*
X78570500Y-27966535D01*
X78570499Y-27966532D01*
X79009500Y-27966532D01*
X79009500Y-27966535D01*
X79009500Y-28173465D01*
X79049870Y-28376420D01*
X79129059Y-28567598D01*
X79221202Y-28705500D01*
X79244024Y-28739656D01*
X79244029Y-28739662D01*
X79390337Y-28885970D01*
X79390343Y-28885975D01*
X79390345Y-28885977D01*
X79562402Y-29000941D01*
X79753580Y-29080130D01*
X79956535Y-29120500D01*
X79956536Y-29120500D01*
X80163464Y-29120500D01*
X80163465Y-29120500D01*
X80366420Y-29080130D01*
X80557598Y-29000941D01*
X80729655Y-28885977D01*
X80875977Y-28739655D01*
X80990941Y-28567598D01*
X81070130Y-28376420D01*
X81110500Y-28173465D01*
X81110500Y-27966535D01*
X81110499Y-27966532D01*
X81549500Y-27966532D01*
X81549500Y-27966535D01*
X81549500Y-28173465D01*
X81589870Y-28376420D01*
X81669059Y-28567598D01*
X81761202Y-28705500D01*
X81784024Y-28739656D01*
X81784029Y-28739662D01*
X81930337Y-28885970D01*
X81930343Y-28885975D01*
X81930345Y-28885977D01*
X82102402Y-29000941D01*
X82293580Y-29080130D01*
X82496535Y-29120500D01*
X82496536Y-29120500D01*
X82703464Y-29120500D01*
X82703465Y-29120500D01*
X82906420Y-29080130D01*
X83097598Y-29000941D01*
X83269655Y-28885977D01*
X83415977Y-28739655D01*
X83530941Y-28567598D01*
X83610130Y-28376420D01*
X83650500Y-28173465D01*
X83650500Y-27966535D01*
X83650499Y-27966532D01*
X84089500Y-27966532D01*
X84089500Y-27966535D01*
X84089500Y-28173465D01*
X84129870Y-28376420D01*
X84209059Y-28567598D01*
X84301202Y-28705500D01*
X84324024Y-28739656D01*
X84324029Y-28739662D01*
X84470337Y-28885970D01*
X84470343Y-28885975D01*
X84470345Y-28885977D01*
X84642402Y-29000941D01*
X84833580Y-29080130D01*
X85036535Y-29120500D01*
X85036536Y-29120500D01*
X85243464Y-29120500D01*
X85243465Y-29120500D01*
X85446420Y-29080130D01*
X85637598Y-29000941D01*
X85809655Y-28885977D01*
X85955977Y-28739655D01*
X86058683Y-28585943D01*
X133330803Y-28585943D01*
X133330803Y-28744057D01*
X133366892Y-28878743D01*
X133371727Y-28896788D01*
X133450780Y-29033712D01*
X133450788Y-29033722D01*
X133562580Y-29145514D01*
X133562585Y-29145518D01*
X133562587Y-29145520D01*
X133562588Y-29145521D01*
X133562590Y-29145522D01*
X133699514Y-29224575D01*
X133699516Y-29224575D01*
X133699519Y-29224577D01*
X133852246Y-29265500D01*
X133852248Y-29265500D01*
X134010358Y-29265500D01*
X134010360Y-29265500D01*
X134163087Y-29224577D01*
X134163090Y-29224575D01*
X134163091Y-29224575D01*
X134231553Y-29185048D01*
X134300019Y-29145520D01*
X134411823Y-29033716D01*
X134490880Y-28896784D01*
X134531803Y-28744057D01*
X134531803Y-28585943D01*
X134490880Y-28433216D01*
X134490878Y-28433213D01*
X134490878Y-28433211D01*
X134411825Y-28296287D01*
X134411817Y-28296277D01*
X134300025Y-28184485D01*
X134300015Y-28184477D01*
X134163091Y-28105424D01*
X134145046Y-28100589D01*
X134010360Y-28064500D01*
X133852246Y-28064500D01*
X133758773Y-28089545D01*
X133699514Y-28105424D01*
X133562590Y-28184477D01*
X133562580Y-28184485D01*
X133450788Y-28296277D01*
X133450780Y-28296287D01*
X133371727Y-28433211D01*
X133349429Y-28516431D01*
X133330803Y-28585943D01*
X86058683Y-28585943D01*
X86070941Y-28567598D01*
X86150130Y-28376420D01*
X86190500Y-28173465D01*
X86190500Y-27966535D01*
X86150130Y-27763580D01*
X86070941Y-27572402D01*
X85955977Y-27400345D01*
X85955975Y-27400343D01*
X85955970Y-27400337D01*
X85809662Y-27254029D01*
X85809656Y-27254024D01*
X85805964Y-27251557D01*
X85637598Y-27139059D01*
X85446420Y-27059870D01*
X85243467Y-27019500D01*
X85243465Y-27019500D01*
X85036535Y-27019500D01*
X85036532Y-27019500D01*
X84833579Y-27059870D01*
X84833574Y-27059872D01*
X84642402Y-27139059D01*
X84470343Y-27254024D01*
X84470337Y-27254029D01*
X84324029Y-27400337D01*
X84324024Y-27400343D01*
X84209059Y-27572402D01*
X84129872Y-27763574D01*
X84129870Y-27763579D01*
X84089500Y-27966532D01*
X83650499Y-27966532D01*
X83610130Y-27763580D01*
X83530941Y-27572402D01*
X83415977Y-27400345D01*
X83415975Y-27400343D01*
X83415970Y-27400337D01*
X83269662Y-27254029D01*
X83269656Y-27254024D01*
X83265964Y-27251557D01*
X83097598Y-27139059D01*
X82906420Y-27059870D01*
X82703467Y-27019500D01*
X82703465Y-27019500D01*
X82496535Y-27019500D01*
X82496532Y-27019500D01*
X82293579Y-27059870D01*
X82293574Y-27059872D01*
X82102402Y-27139059D01*
X81930343Y-27254024D01*
X81930337Y-27254029D01*
X81784029Y-27400337D01*
X81784024Y-27400343D01*
X81669059Y-27572402D01*
X81589872Y-27763574D01*
X81589870Y-27763579D01*
X81549500Y-27966532D01*
X81110499Y-27966532D01*
X81070130Y-27763580D01*
X80990941Y-27572402D01*
X80875977Y-27400345D01*
X80875975Y-27400343D01*
X80875970Y-27400337D01*
X80729662Y-27254029D01*
X80729656Y-27254024D01*
X80725964Y-27251557D01*
X80557598Y-27139059D01*
X80366420Y-27059870D01*
X80163467Y-27019500D01*
X80163465Y-27019500D01*
X79956535Y-27019500D01*
X79956532Y-27019500D01*
X79753579Y-27059870D01*
X79753574Y-27059872D01*
X79562402Y-27139059D01*
X79390343Y-27254024D01*
X79390337Y-27254029D01*
X79244029Y-27400337D01*
X79244024Y-27400343D01*
X79129059Y-27572402D01*
X79049872Y-27763574D01*
X79049870Y-27763579D01*
X79009500Y-27966532D01*
X78570499Y-27966532D01*
X78530130Y-27763580D01*
X78450941Y-27572402D01*
X78335977Y-27400345D01*
X78335975Y-27400343D01*
X78335970Y-27400337D01*
X78189662Y-27254029D01*
X78189656Y-27254024D01*
X78185964Y-27251557D01*
X78017598Y-27139059D01*
X77826420Y-27059870D01*
X77623467Y-27019500D01*
X77623465Y-27019500D01*
X77416535Y-27019500D01*
X77416532Y-27019500D01*
X77213579Y-27059870D01*
X77213574Y-27059872D01*
X77022402Y-27139059D01*
X76850343Y-27254024D01*
X76850337Y-27254029D01*
X76704029Y-27400337D01*
X76704024Y-27400343D01*
X76589059Y-27572402D01*
X76509872Y-27763574D01*
X76509870Y-27763579D01*
X76469500Y-27966532D01*
X76030499Y-27966532D01*
X75990130Y-27763580D01*
X75910941Y-27572402D01*
X75795977Y-27400345D01*
X75795975Y-27400343D01*
X75795970Y-27400337D01*
X75649662Y-27254029D01*
X75649656Y-27254024D01*
X75645964Y-27251557D01*
X75477598Y-27139059D01*
X75286420Y-27059870D01*
X75083467Y-27019500D01*
X75083465Y-27019500D01*
X74876535Y-27019500D01*
X74876532Y-27019500D01*
X74673579Y-27059870D01*
X74673574Y-27059872D01*
X74482402Y-27139059D01*
X74310343Y-27254024D01*
X74310337Y-27254029D01*
X74164029Y-27400337D01*
X74164024Y-27400343D01*
X74049059Y-27572402D01*
X73969872Y-27763574D01*
X73969870Y-27763579D01*
X73929500Y-27966532D01*
X61188900Y-27966532D01*
X61188900Y-25893713D01*
X62309500Y-25893713D01*
X62309500Y-26106287D01*
X62342754Y-26316243D01*
X62408443Y-26518412D01*
X62504949Y-26707816D01*
X62629896Y-26879792D01*
X62629898Y-26879794D01*
X62629900Y-26879797D01*
X62780202Y-27030099D01*
X62780205Y-27030101D01*
X62780208Y-27030104D01*
X62952184Y-27155051D01*
X63141588Y-27251557D01*
X63343757Y-27317246D01*
X63553713Y-27350500D01*
X63553716Y-27350500D01*
X63766284Y-27350500D01*
X63766287Y-27350500D01*
X63976243Y-27317246D01*
X64178412Y-27251557D01*
X64367816Y-27155051D01*
X64539792Y-27030104D01*
X64690104Y-26879792D01*
X64815051Y-26707816D01*
X64911557Y-26518412D01*
X64977246Y-26316243D01*
X65010500Y-26106287D01*
X65010500Y-25893713D01*
X64977246Y-25683757D01*
X64911557Y-25481588D01*
X64815051Y-25292184D01*
X64690104Y-25120208D01*
X64690101Y-25120205D01*
X64690099Y-25120202D01*
X64539797Y-24969900D01*
X64539794Y-24969898D01*
X64539792Y-24969896D01*
X64367816Y-24844949D01*
X64178412Y-24748443D01*
X63976243Y-24682754D01*
X63766287Y-24649500D01*
X63553713Y-24649500D01*
X63343757Y-24682754D01*
X63343754Y-24682754D01*
X63343753Y-24682755D01*
X63141588Y-24748443D01*
X63141586Y-24748444D01*
X62952180Y-24844951D01*
X62780205Y-24969898D01*
X62780202Y-24969900D01*
X62629900Y-25120202D01*
X62629898Y-25120205D01*
X62504951Y-25292180D01*
X62504949Y-25292184D01*
X62408443Y-25481588D01*
X62342754Y-25683757D01*
X62309500Y-25893713D01*
X61188900Y-25893713D01*
X61188900Y-25004121D01*
X61189170Y-24995881D01*
X61199062Y-24844951D01*
X61205252Y-24750503D01*
X61207399Y-24734193D01*
X61254570Y-24497049D01*
X61258831Y-24481147D01*
X61306660Y-24340249D01*
X61347495Y-24282177D01*
X61413248Y-24255398D01*
X61426161Y-24254755D01*
X168630128Y-24441766D01*
G37*
G04 #@! TD.AperFunction*
M02*
