M48
; DRILL file {KiCad 9.0.6} date 2026-02-22T19:02:12+0100
; FORMAT={-:-/ absolute / metric / decimal}
; #@! TF.CreationDate,2026-02-22T19:02:12+01:00
; #@! TF.GenerationSoftware,Kicad,Pcbnew,9.0.6
; #@! TF.FileFunction,Plated,1,4,PTH
FMAT,2
METRIC
; #@! TA.AperFunction,Plated,PTH,ComponentDrill
T1C0.254
; #@! TA.AperFunction,Plated,PTH,ComponentDrill
T2C0.400
; #@! TA.AperFunction,Plated,PTH,ViaDrill
T3C0.400
; #@! TA.AperFunction,Plated,PTH,ComponentDrill
T4C0.600
; #@! TA.AperFunction,Plated,PTH,ComponentDrill
T5C0.800
; #@! TA.AperFunction,Plated,PTH,ComponentDrill
T6C0.850
; #@! TA.AperFunction,Plated,PTH,ComponentDrill
T7C1.000
%
G90
G05
T1
X98.464Y-64.682
X98.464Y-65.469
X98.464Y-66.256
X98.464Y-67.044
X98.464Y-67.831
X99.252Y-64.682
X99.252Y-65.469
X99.252Y-66.256
X99.252Y-67.044
X99.252Y-67.831
X100.039Y-64.682
X100.039Y-65.469
X100.039Y-66.256
X100.039Y-67.044
X100.039Y-67.831
X100.826Y-64.682
X100.826Y-65.469
X100.826Y-66.256
X100.826Y-67.044
X100.826Y-67.831
X101.614Y-64.682
X101.614Y-65.469
X101.614Y-66.256
X101.614Y-67.044
X101.614Y-67.831
T3
X63.14Y-65.42
X63.87Y-61.17
X64.06Y-62.78
X64.5Y-73.61
X64.71Y-69.95
X66.321Y-69.691
X67.34Y-68.42
X67.96Y-65.4
X68.86Y-79.41
X70.48Y-73.59
X71.0Y-62.999
X71.95Y-53.899
X75.26Y-79.43
X75.45Y-55.399
X76.69Y-76.251
X77.14Y-75.36
X77.97Y-80.83
X78.43Y-81.76
X80.415Y-64.528
X80.515Y-70.778
X80.66Y-85.05
X83.76Y-85.54
X84.265Y-67.278
X84.265Y-69.528
X85.6Y-79.69
X85.64Y-76.854
X86.015Y-54.028
X86.641Y-77.24
X86.74Y-80.66
X87.004Y-74.711
X87.015Y-58.028
X87.265Y-54.028
X87.644Y-67.076
X87.765Y-68.028
X88.015Y-57.528
X88.015Y-65.868
X88.515Y-69.692
X88.815Y-53.228
X88.815Y-55.628
X89.412Y-65.632
X89.415Y-52.028
X89.415Y-54.428
X89.74Y-86.12
X89.96Y-82.78
X90.265Y-75.028
X90.453Y-66.84
X90.615Y-51.428
X90.74Y-83.42
X91.815Y-52.028
X92.015Y-78.028
X92.219Y-77.232
X92.615Y-45.028
X92.615Y-46.628
X92.815Y-51.428
X92.9Y-37.75
X93.265Y-77.028
X93.265Y-78.028
X93.265Y-79.028
X93.512Y-67.123
X93.615Y-42.328
X93.616Y-66.129
X93.815Y-52.028
X94.33Y-67.625
X94.515Y-79.278
X94.56Y-40.84
X95.292Y-65.365
X95.341Y-63.588
X95.467Y-68.669
X95.515Y-59.778
X95.615Y-54.628
X95.765Y-59.028
X95.765Y-79.278
X96.215Y-53.428
X96.765Y-59.028
X97.031Y-56.794
X97.265Y-79.278
X97.765Y-80.278
X97.815Y-41.628
X97.943Y-58.902
X98.015Y-77.278
X98.015Y-78.528
X98.115Y-47.313
X98.33Y-86.04
X98.869Y-56.924
X99.015Y-57.778
X99.215Y-47.328
X99.382Y-71.613
X99.891Y-60.122
X100.139Y-61.049
X100.295Y-51.248
X100.515Y-78.278
X100.515Y-80.278
X100.843Y-60.256
X101.765Y-76.528
X101.81Y-60.221
X102.156Y-50.842
X102.265Y-78.528
X102.619Y-56.924
X102.752Y-55.882
X102.765Y-77.528
X102.96Y-71.361
X103.087Y-62.192
X103.265Y-58.028
X103.28Y-40.51
X103.467Y-69.56
X103.515Y-55.89
X103.555Y-59.479
X103.674Y-76.528
X103.863Y-52.028
X103.915Y-54.05
X103.974Y-41.628
X104.613Y-51.03
X104.795Y-53.476
X105.015Y-41.728
X105.686Y-52.922
X106.008Y-66.05
X106.008Y-67.526
X106.115Y-69.428
X106.212Y-62.014
X106.315Y-56.028
X106.389Y-64.43
X106.403Y-62.954
X106.63Y-83.72
X106.983Y-66.371
X107.107Y-59.975
X107.115Y-49.828
X107.515Y-57.4
X108.015Y-77.068
X108.66Y-85.96
X109.2Y-45.02
X109.265Y-64.028
X109.515Y-66.278
X109.515Y-68.528
X110.015Y-42.428
X110.568Y-50.809
X110.715Y-48.628
X110.831Y-47.15
X111.015Y-59.778
X111.015Y-62.028
X111.015Y-64.278
X111.015Y-66.528
X111.015Y-68.778
X111.015Y-70.528
X111.765Y-73.528
X112.015Y-69.778
X113.915Y-64.228
X115.42Y-70.79
X115.515Y-64.228
X115.515Y-65.778
X115.555Y-66.778
X115.815Y-60.128
X115.87Y-61.62
X115.99Y-87.65
X116.22Y-57.15
X119.24Y-76.81
X120.61Y-63.84
X121.25Y-40.84
X121.61Y-77.82
X122.163Y-83.613
X122.857Y-29.458
X123.865Y-30.52
X124.4Y-32.93
X124.41Y-43.567
X125.03Y-39.85
X126.735Y-43.513
X126.92Y-52.89
X126.934Y-75.396
X126.96Y-79.84
X126.99Y-81.12
X127.05Y-76.56
X127.25Y-55.303
X127.285Y-46.065
X127.51Y-41.9
X127.772Y-45.018
X128.367Y-43.28
X128.59Y-76.04
X129.08Y-45.23
X129.154Y-42.585
X129.267Y-70.743
X129.87Y-34.66
X129.89Y-76.36
X129.91Y-39.08
X129.98Y-55.403
X131.01Y-70.64
X131.863Y-76.87
X132.263Y-74.26
X132.49Y-31.65
X132.729Y-32.815
X133.931Y-28.665
X136.563Y-74.26
X136.863Y-76.87
X137.97Y-25.95
X139.56Y-67.23
X143.763Y-83.613
X144.08Y-26.44
X146.84Y-76.25
X148.03Y-63.51
X148.92Y-66.97
X149.93Y-82.921
X150.34Y-87.97
X150.66Y-58.98
X151.801Y-80.497
X151.83Y-74.96
X152.508Y-83.644
X152.53Y-81.121
X152.79Y-63.51
X153.79Y-60.06
X153.88Y-62.45
X154.26Y-85.19
X154.9Y-66.95
X155.69Y-82.88
X156.43Y-71.05
X157.33Y-67.09
X158.37Y-71.44
X158.42Y-72.57
X160.05Y-67.41
X162.17Y-76.25
X162.74Y-74.8
X166.23Y-86.48
X167.55Y-76.39
T5
X88.55Y-89.94
X90.85Y-89.94
X100.27Y-89.94
X102.57Y-89.94
X111.99Y-89.94
X114.29Y-89.94
X170.45Y-81.05
X170.45Y-83.35
T6
X170.28Y-67.79
X170.28Y-70.79
T7
X72.44Y-28.07
X74.98Y-28.07
X77.52Y-28.07
X80.06Y-28.07
X82.6Y-28.07
X85.14Y-28.07
T2
G00X149.765Y-90.058
M15
G01X149.765Y-90.557
M16
G05
G00X155.125Y-90.058
M15
G01X155.125Y-90.557
M16
G05
T4
G00X67.46Y-84.69
M15
G01X67.46Y-85.79
M16
G05
G00X67.46Y-89.12
M15
G01X67.46Y-89.72
M16
G05
G00X76.1Y-84.69
M15
G01X76.1Y-85.79
M16
G05
G00X76.1Y-89.12
M15
G01X76.1Y-89.72
M16
G05
M30
