G04 #@! TF.GenerationSoftware,KiCad,Pcbnew,9.0.6*
G04 #@! TF.CreationDate,2026-02-22T19:02:19+01:00*
G04 #@! TF.ProjectId,epdiy-v7-light,65706469-792d-4763-972d-6c696768742e,1.1*
G04 #@! TF.SameCoordinates,Original*
G04 #@! TF.FileFunction,Copper,L3,Inr*
G04 #@! TF.FilePolarity,Positive*
%FSLAX46Y46*%
G04 Gerber Fmt 4.6, Leading zero omitted, Abs format (unit mm)*
G04 Created by KiCad (PCBNEW 9.0.6) date 2026-02-22 19:02:19*
%MOMM*%
%LPD*%
G01*
G04 APERTURE LIST*
G04 #@! TA.AperFunction,ComponentPad*
%ADD10C,0.850000*%
G04 #@! TD*
G04 #@! TA.AperFunction,ComponentPad*
%ADD11C,0.508000*%
G04 #@! TD*
G04 #@! TA.AperFunction,ComponentPad*
%ADD12O,1.000000X2.100000*%
G04 #@! TD*
G04 #@! TA.AperFunction,ComponentPad*
%ADD13O,1.000000X1.600000*%
G04 #@! TD*
G04 #@! TA.AperFunction,ComponentPad*
%ADD14C,0.800000*%
G04 #@! TD*
G04 #@! TA.AperFunction,ComponentPad*
%ADD15O,0.800000X1.300000*%
G04 #@! TD*
G04 #@! TA.AperFunction,ComponentPad*
%ADD16R,1.700000X1.700000*%
G04 #@! TD*
G04 #@! TA.AperFunction,ComponentPad*
%ADD17C,1.700000*%
G04 #@! TD*
G04 #@! TA.AperFunction,ViaPad*
%ADD18C,0.800000*%
G04 #@! TD*
G04 #@! TA.AperFunction,Conductor*
%ADD19C,0.300000*%
G04 #@! TD*
G04 #@! TA.AperFunction,Conductor*
%ADD20C,0.200000*%
G04 #@! TD*
G04 #@! TA.AperFunction,Conductor*
%ADD21C,1.000000*%
G04 #@! TD*
G04 #@! TA.AperFunction,Conductor*
%ADD22C,0.600000*%
G04 #@! TD*
G04 APERTURE END LIST*
D10*
X170280000Y-67790000D03*
X170280000Y-70790000D03*
D11*
X101613800Y-67831109D03*
X101613800Y-67043709D03*
X101613800Y-66256309D03*
X101613800Y-65468909D03*
X101613800Y-64681509D03*
X100826400Y-67831109D03*
X100826400Y-67043709D03*
X100826400Y-66256309D03*
X100826400Y-65468909D03*
X100826400Y-64681509D03*
X100039000Y-67831109D03*
X100039000Y-67043709D03*
X100039000Y-66256309D03*
X100039000Y-65468909D03*
X100039000Y-64681509D03*
X99251600Y-67831109D03*
X99251600Y-67043709D03*
X99251600Y-66256309D03*
X99251600Y-65468909D03*
X99251600Y-64681509D03*
X98464200Y-67831109D03*
X98464200Y-67043709D03*
X98464200Y-66256309D03*
X98464200Y-65468909D03*
X98464200Y-64681509D03*
D12*
X67460000Y-85240000D03*
D13*
X67460000Y-89420000D03*
D12*
X76100000Y-85240000D03*
D13*
X76100000Y-89420000D03*
D14*
X170450000Y-81050000D03*
X170450000Y-83350000D03*
X114290000Y-89940000D03*
X111990000Y-89940000D03*
X102570000Y-89940000D03*
X100270000Y-89940000D03*
X90850000Y-89940000D03*
X88550000Y-89940000D03*
D15*
X155125000Y-90307500D03*
X149765000Y-90307500D03*
D16*
X72440000Y-28070000D03*
D17*
X74980000Y-28070000D03*
X77520000Y-28070000D03*
X80060000Y-28070000D03*
X82600000Y-28070000D03*
X85140000Y-28070000D03*
D18*
X125030000Y-39850000D03*
X149930000Y-82921250D03*
X98330000Y-86040000D03*
X103974500Y-41628309D03*
X103673999Y-76528309D03*
X111015000Y-68778309D03*
X105015000Y-41728309D03*
X132490000Y-31650000D03*
X96215000Y-53428309D03*
X122857188Y-29458134D03*
X111015000Y-64278309D03*
X106008000Y-66050309D03*
X166230000Y-86480000D03*
X102751599Y-55882178D03*
X78430000Y-81760000D03*
X100515000Y-80278309D03*
X103087000Y-62192309D03*
X63140000Y-65420000D03*
X63870000Y-61170000D03*
X129869998Y-34660000D03*
X109515000Y-66278309D03*
X93815000Y-52028309D03*
X106389000Y-64430309D03*
X103515000Y-55890000D03*
X129980000Y-55403000D03*
X127250000Y-55303000D03*
X129910000Y-39080000D03*
X155690000Y-82880000D03*
X93615000Y-42328309D03*
X152790000Y-63510000D03*
X111015000Y-59778309D03*
X89415000Y-52028309D03*
X71000000Y-62999000D03*
X136563400Y-74260000D03*
X137970000Y-25950000D03*
X80415000Y-64528309D03*
X102265000Y-78528309D03*
X89411686Y-65632408D03*
X89740000Y-86120000D03*
X67340000Y-68420000D03*
X123865000Y-30520000D03*
X83760000Y-85540000D03*
X92815000Y-51428309D03*
X151801491Y-80496814D03*
X90265000Y-75028309D03*
X91815000Y-52028309D03*
X64500000Y-73610000D03*
X157330000Y-67090000D03*
X124400000Y-32930000D03*
X112015000Y-69778309D03*
X103466743Y-69559566D03*
X90453000Y-66840309D03*
X70480000Y-73590000D03*
X115555000Y-66778309D03*
X167550000Y-76390000D03*
X143763400Y-83613400D03*
X108660000Y-85960000D03*
X115515000Y-65778309D03*
X136863400Y-76870000D03*
X97815000Y-41628309D03*
X88815000Y-55628309D03*
X108015000Y-77068309D03*
X122163400Y-83613400D03*
X93511777Y-67122712D03*
X89415000Y-54428309D03*
X64060000Y-62780000D03*
X101765000Y-76528309D03*
X150340000Y-87970000D03*
X111015000Y-66528309D03*
X87265000Y-54028309D03*
X68860000Y-79410000D03*
X99382281Y-71612972D03*
X84265000Y-69528309D03*
X124410000Y-43567000D03*
X80515000Y-70778309D03*
X115990000Y-87650000D03*
X95615000Y-54628309D03*
X154260000Y-85190000D03*
X102765000Y-77528309D03*
X99015000Y-57778309D03*
X102619000Y-56924309D03*
X107515000Y-57400000D03*
X90615000Y-51428309D03*
X131863400Y-76870000D03*
X144080000Y-26440000D03*
X110567557Y-50809381D03*
X97030534Y-56793843D03*
X154900000Y-66950000D03*
X115815000Y-60128309D03*
X98869000Y-56924309D03*
X88815000Y-53228309D03*
X71950000Y-53899000D03*
X97765000Y-80278309D03*
X86015000Y-54028309D03*
X75260000Y-79430000D03*
X109515000Y-68528309D03*
X111015000Y-62028309D03*
X132263400Y-74260000D03*
X75450000Y-55399000D03*
X109265000Y-64028309D03*
X84265000Y-67278309D03*
X106315000Y-56028309D03*
X111015000Y-70528309D03*
X162170000Y-76250000D03*
X95467000Y-68669309D03*
X88515000Y-69692307D03*
X148030000Y-63510000D03*
X88015000Y-65868311D03*
X95291746Y-65365338D03*
X126920000Y-52890000D03*
X116220000Y-57150000D03*
X127285000Y-46065000D03*
X87003580Y-74710510D03*
X126735000Y-43512532D03*
X100138990Y-61049309D03*
X127771995Y-45018012D03*
X98115000Y-47312809D03*
X133931303Y-28665000D03*
X132728836Y-32815000D03*
X99215000Y-47328309D03*
X109200000Y-45020000D03*
X127510000Y-41900000D03*
X115420000Y-70790000D03*
X129080000Y-45230000D03*
X156430000Y-71050000D03*
X146840000Y-76250000D03*
X160050000Y-67410000D03*
X119240000Y-76810000D03*
X106630000Y-83720000D03*
X139560000Y-67230000D03*
X103265000Y-58028309D03*
X106008000Y-67526309D03*
X95341257Y-63588052D03*
X103555000Y-59479309D03*
X89960000Y-82780000D03*
X158420000Y-72570000D03*
X80660000Y-85050000D03*
X104613307Y-51030002D03*
X77140000Y-75360000D03*
X100842661Y-60255968D03*
X129890000Y-76360000D03*
X77970000Y-80830000D03*
X158370000Y-71440000D03*
X90740000Y-83420000D03*
X76689602Y-76250662D03*
X101810248Y-60221056D03*
X128590000Y-76040000D03*
X103863307Y-52028309D03*
X102156382Y-50842411D03*
X97942794Y-58901546D03*
X105686092Y-52921839D03*
X106115000Y-69428309D03*
X106982629Y-66370553D03*
X104794517Y-53476455D03*
X103915000Y-54050000D03*
X106212092Y-62013979D03*
X99891356Y-60122313D03*
X100294929Y-51248380D03*
X106402944Y-62954309D03*
X100515000Y-78278309D03*
X95765000Y-59028309D03*
X92219031Y-77232341D03*
X107107259Y-59974756D03*
X94515000Y-79278309D03*
X86740000Y-80660000D03*
X93265000Y-79028309D03*
X95515000Y-59778309D03*
X93265000Y-77028309D03*
X97265000Y-79278309D03*
X93265000Y-78028309D03*
X115870000Y-61620000D03*
X98015000Y-78528309D03*
X87015000Y-58028309D03*
X153880000Y-62450000D03*
X96765000Y-59028309D03*
X88015000Y-57528309D03*
X92015000Y-78028309D03*
X98015000Y-77278309D03*
X95765000Y-79278309D03*
X129266508Y-70743492D03*
X85640209Y-76854264D03*
X131010000Y-70640000D03*
X86641280Y-77240000D03*
X103280000Y-40510000D03*
X126934314Y-75395686D03*
X129153651Y-42584971D03*
X128366550Y-43279936D03*
X127050000Y-76560000D03*
X93616000Y-66129309D03*
X87644276Y-67075928D03*
X87765000Y-68028309D03*
X94329705Y-67625303D03*
X94560000Y-40840000D03*
X151830000Y-74960000D03*
X126990000Y-81120000D03*
X162740000Y-74800000D03*
X126960000Y-79840000D03*
X121610000Y-77820000D03*
X148920000Y-66970000D03*
X113915000Y-64228309D03*
X102960000Y-71361309D03*
X111765000Y-73528309D03*
X92615000Y-45028309D03*
X67960000Y-65400000D03*
X92615000Y-46628309D03*
X110715000Y-48628309D03*
X110830946Y-47150000D03*
X152507597Y-83643653D03*
X115515000Y-64228309D03*
X107115000Y-49828309D03*
X120610000Y-63840000D03*
X85600000Y-79690000D03*
X92900000Y-37750000D03*
X110015000Y-42428309D03*
X152530000Y-81121250D03*
X153790000Y-60060000D03*
X150660000Y-58980000D03*
X121250000Y-40840000D03*
X66320739Y-69691400D03*
X64710000Y-69950000D03*
D19*
X127860000Y-74240000D02*
X123610000Y-74240000D01*
X133400000Y-75370000D02*
X128990000Y-75370000D01*
X123610000Y-74240000D02*
X114130000Y-83720000D01*
X114130000Y-83720000D02*
X106630000Y-83720000D01*
X139560000Y-69210000D02*
X133400000Y-75370000D01*
X139560000Y-67230000D02*
X139560000Y-69210000D01*
X128990000Y-75370000D02*
X127860000Y-74240000D01*
X100849990Y-60263297D02*
X100842661Y-60255968D01*
D20*
X99000000Y-53070000D02*
X96350000Y-50420000D01*
X96350000Y-50420000D02*
X88780000Y-50420000D01*
D19*
X101180000Y-69510000D02*
X102590000Y-68100000D01*
X102590000Y-63630000D02*
X100849990Y-61889990D01*
X89960000Y-77440000D02*
X97890000Y-69510000D01*
X102590000Y-68100000D02*
X102590000Y-63630000D01*
X100849990Y-61889990D02*
X100849990Y-60263297D01*
X97890000Y-69510000D02*
X101180000Y-69510000D01*
D20*
X88780000Y-50420000D02*
X77520000Y-39160000D01*
D19*
X89960000Y-82780000D02*
X89960000Y-77440000D01*
D20*
X103940000Y-53070000D02*
X99000000Y-53070000D01*
X77520000Y-39160000D02*
X77520000Y-28070000D01*
X104613307Y-51030002D02*
X104613307Y-52396693D01*
X104613307Y-52396693D02*
X103940000Y-53070000D01*
D19*
X98080000Y-70240000D02*
X101100538Y-70240000D01*
X103050000Y-68290538D02*
X103050000Y-63439462D01*
X102178800Y-62568262D02*
X102178800Y-60589608D01*
D20*
X96500000Y-49960000D02*
X99170000Y-52630000D01*
X103261616Y-52630000D02*
X103863307Y-52028309D01*
D19*
X103050000Y-63439462D02*
X102178800Y-62568262D01*
D20*
X80060000Y-28070000D02*
X80060000Y-41140000D01*
X99170000Y-52630000D02*
X103261616Y-52630000D01*
D19*
X90740000Y-83420000D02*
X90740000Y-77580000D01*
X101100538Y-70240000D02*
X103050000Y-68290538D01*
D20*
X80060000Y-41140000D02*
X88880000Y-49960000D01*
D19*
X102178800Y-60589608D02*
X101810248Y-60221056D01*
X90740000Y-77580000D02*
X98080000Y-70240000D01*
D20*
X88880000Y-49960000D02*
X96500000Y-49960000D01*
D21*
X87015000Y-58028309D02*
X88515000Y-58028309D01*
X88015000Y-57528309D02*
X90265000Y-59778309D01*
X89265000Y-57528309D02*
X88015000Y-57528309D01*
X90265000Y-59778309D02*
X95515000Y-59778309D01*
X90765000Y-59028309D02*
X89265000Y-57528309D01*
X95765000Y-59028309D02*
X90765000Y-59028309D01*
X88515000Y-58028309D02*
X90265000Y-59778309D01*
D22*
X138070000Y-77820000D02*
X148920000Y-66970000D01*
X121610000Y-77820000D02*
X138070000Y-77820000D01*
G04 #@! TA.AperFunction,Conductor*
G36*
X98265094Y-57548311D02*
G01*
X98311587Y-57601967D01*
X98321691Y-57672241D01*
X98320552Y-57678891D01*
X98314500Y-57709313D01*
X98314500Y-57847304D01*
X98341420Y-57982637D01*
X98341422Y-57982644D01*
X98387915Y-58094889D01*
X98395504Y-58165478D01*
X98363724Y-58228965D01*
X98302666Y-58265192D01*
X98231715Y-58262658D01*
X98223288Y-58259515D01*
X98147125Y-58227967D01*
X98147122Y-58227966D01*
X98011789Y-58201046D01*
X98011787Y-58201046D01*
X97873801Y-58201046D01*
X97873798Y-58201046D01*
X97738465Y-58227966D01*
X97738462Y-58227967D01*
X97610983Y-58280771D01*
X97496252Y-58357431D01*
X97496246Y-58357436D01*
X97398684Y-58454998D01*
X97398679Y-58455004D01*
X97322019Y-58569735D01*
X97269215Y-58697214D01*
X97269214Y-58697217D01*
X97242294Y-58832550D01*
X97242294Y-58832553D01*
X97242294Y-58970539D01*
X97269214Y-59105874D01*
X97322019Y-59233357D01*
X97373241Y-59310017D01*
X97398679Y-59348087D01*
X97398684Y-59348093D01*
X97496246Y-59445655D01*
X97496252Y-59445660D01*
X97610983Y-59522321D01*
X97738466Y-59575126D01*
X97873801Y-59602046D01*
X97873802Y-59602046D01*
X98011786Y-59602046D01*
X98011787Y-59602046D01*
X98147122Y-59575126D01*
X98274605Y-59522321D01*
X98389336Y-59445660D01*
X98486908Y-59348088D01*
X98563569Y-59233357D01*
X98616374Y-59105874D01*
X98643294Y-58970539D01*
X98643294Y-58832553D01*
X98616374Y-58697218D01*
X98569878Y-58584966D01*
X98562289Y-58514376D01*
X98594068Y-58450889D01*
X98655127Y-58414662D01*
X98726078Y-58417196D01*
X98734506Y-58420340D01*
X98810663Y-58451886D01*
X98810667Y-58451887D01*
X98810672Y-58451889D01*
X98946007Y-58478809D01*
X98946008Y-58478809D01*
X99083992Y-58478809D01*
X99083993Y-58478809D01*
X99219328Y-58451889D01*
X99346811Y-58399084D01*
X99461542Y-58322423D01*
X99559114Y-58224851D01*
X99635775Y-58110120D01*
X99688580Y-57982637D01*
X99715500Y-57847302D01*
X99715500Y-57709316D01*
X99709448Y-57678890D01*
X99715776Y-57608177D01*
X99759330Y-57552110D01*
X99826282Y-57528490D01*
X99833027Y-57528309D01*
X102224243Y-57528309D01*
X102283635Y-57543185D01*
X102287183Y-57545081D01*
X102287186Y-57545082D01*
X102287189Y-57545084D01*
X102414672Y-57597889D01*
X102513906Y-57617628D01*
X102576815Y-57650536D01*
X102611947Y-57712231D01*
X102608147Y-57783126D01*
X102605733Y-57789424D01*
X102591422Y-57823973D01*
X102591420Y-57823980D01*
X102564500Y-57959313D01*
X102564500Y-58097304D01*
X102578061Y-58165478D01*
X102591420Y-58232637D01*
X102644225Y-58360120D01*
X102670260Y-58399084D01*
X102720885Y-58474850D01*
X102720890Y-58474856D01*
X102818452Y-58572418D01*
X102818458Y-58572423D01*
X102933189Y-58649084D01*
X103060672Y-58701889D01*
X103068214Y-58703389D01*
X103131123Y-58736293D01*
X103166258Y-58797986D01*
X103162461Y-58868881D01*
X103120937Y-58926469D01*
X103113643Y-58931730D01*
X103108458Y-58935194D01*
X103108452Y-58935199D01*
X103010890Y-59032761D01*
X103010885Y-59032767D01*
X102934225Y-59147498D01*
X102881421Y-59274977D01*
X102881420Y-59274980D01*
X102854500Y-59410313D01*
X102854500Y-59548304D01*
X102881420Y-59683637D01*
X102881421Y-59683640D01*
X102893108Y-59711854D01*
X102934225Y-59811120D01*
X102985447Y-59887780D01*
X103010885Y-59925850D01*
X103010890Y-59925856D01*
X103108452Y-60023418D01*
X103108458Y-60023423D01*
X103223189Y-60100084D01*
X103350672Y-60152889D01*
X103486007Y-60179809D01*
X103486008Y-60179809D01*
X103623992Y-60179809D01*
X103623993Y-60179809D01*
X103759328Y-60152889D01*
X103886811Y-60100084D01*
X104001542Y-60023423D01*
X104099114Y-59925851D01*
X104175775Y-59811120D01*
X104228580Y-59683637D01*
X104255500Y-59548302D01*
X104255500Y-59410316D01*
X104228580Y-59274981D01*
X104175775Y-59147498D01*
X104099114Y-59032767D01*
X104099109Y-59032761D01*
X104001547Y-58935199D01*
X104001541Y-58935194D01*
X103902296Y-58868881D01*
X103886811Y-58858534D01*
X103806421Y-58825235D01*
X103759331Y-58805730D01*
X103759330Y-58805729D01*
X103755571Y-58804981D01*
X103751778Y-58804227D01*
X103688871Y-58771319D01*
X103653740Y-58709624D01*
X103657541Y-58638729D01*
X103699067Y-58581143D01*
X103706345Y-58575894D01*
X103711542Y-58572423D01*
X103809114Y-58474851D01*
X103885775Y-58360120D01*
X103938580Y-58232637D01*
X103965500Y-58097302D01*
X103965500Y-57959316D01*
X103938580Y-57823981D01*
X103888271Y-57702526D01*
X103880683Y-57631937D01*
X103912462Y-57568450D01*
X103973520Y-57532223D01*
X104004681Y-57528309D01*
X106725741Y-57528309D01*
X106793862Y-57548311D01*
X106840355Y-57601967D01*
X106842150Y-57606091D01*
X106894225Y-57731811D01*
X106928513Y-57783126D01*
X106970885Y-57846541D01*
X106970890Y-57846547D01*
X107068452Y-57944109D01*
X107068458Y-57944114D01*
X107183189Y-58020775D01*
X107310672Y-58073580D01*
X107446007Y-58100500D01*
X107446008Y-58100500D01*
X107583992Y-58100500D01*
X107583993Y-58100500D01*
X107719328Y-58073580D01*
X107846811Y-58020775D01*
X107961542Y-57944114D01*
X108059114Y-57846542D01*
X108135775Y-57731811D01*
X108187850Y-57606091D01*
X108200596Y-57590272D01*
X108209035Y-57571797D01*
X108222415Y-57563197D01*
X108232398Y-57550810D01*
X108251673Y-57544394D01*
X108268761Y-57533413D01*
X108296764Y-57529386D01*
X108299762Y-57528389D01*
X108304259Y-57528309D01*
X108462810Y-57528309D01*
X108530931Y-57548311D01*
X108551905Y-57565214D01*
X108978095Y-57991404D01*
X109012121Y-58053716D01*
X109015000Y-58080499D01*
X109015000Y-63289455D01*
X108994998Y-63357576D01*
X108941342Y-63404069D01*
X108937227Y-63405860D01*
X108933197Y-63407529D01*
X108933190Y-63407533D01*
X108818458Y-63484194D01*
X108818452Y-63484199D01*
X108720890Y-63581761D01*
X108720885Y-63581767D01*
X108644225Y-63696498D01*
X108591421Y-63823977D01*
X108591420Y-63823980D01*
X108564500Y-63959313D01*
X108564500Y-64097304D01*
X108591420Y-64232637D01*
X108591421Y-64232640D01*
X108598154Y-64248894D01*
X108644225Y-64360120D01*
X108645025Y-64361317D01*
X108720885Y-64474850D01*
X108720890Y-64474856D01*
X108818452Y-64572418D01*
X108818458Y-64572423D01*
X108933189Y-64649084D01*
X108937211Y-64650750D01*
X108992494Y-64695294D01*
X109014919Y-64762655D01*
X109015000Y-64767161D01*
X109015000Y-65735462D01*
X108994998Y-65803583D01*
X108978095Y-65824557D01*
X108970890Y-65831761D01*
X108970885Y-65831767D01*
X108894225Y-65946498D01*
X108841421Y-66073977D01*
X108841420Y-66073980D01*
X108814500Y-66209313D01*
X108814500Y-66347304D01*
X108841420Y-66482637D01*
X108841421Y-66482640D01*
X108847310Y-66496856D01*
X108894225Y-66610120D01*
X108931782Y-66666328D01*
X108970884Y-66724849D01*
X108970885Y-66724850D01*
X108970886Y-66724851D01*
X108978093Y-66732058D01*
X109012119Y-66794366D01*
X109015000Y-66821155D01*
X109015000Y-67985462D01*
X108994998Y-68053583D01*
X108978095Y-68074557D01*
X108970890Y-68081761D01*
X108970885Y-68081767D01*
X108894225Y-68196498D01*
X108841421Y-68323977D01*
X108841420Y-68323980D01*
X108814500Y-68459313D01*
X108814500Y-68597304D01*
X108841420Y-68732637D01*
X108841421Y-68732640D01*
X108843767Y-68738304D01*
X108894225Y-68860120D01*
X108911509Y-68885987D01*
X108970884Y-68974849D01*
X108970885Y-68974850D01*
X108970886Y-68974851D01*
X108978093Y-68982058D01*
X109012119Y-69044366D01*
X109015000Y-69071155D01*
X109015000Y-79226119D01*
X108994998Y-79294240D01*
X108978095Y-79315214D01*
X108551905Y-79741404D01*
X108489593Y-79775430D01*
X108462810Y-79778309D01*
X101057847Y-79778309D01*
X100989726Y-79758307D01*
X100968752Y-79741404D01*
X100961547Y-79734199D01*
X100961541Y-79734194D01*
X100923471Y-79708756D01*
X100846811Y-79657534D01*
X100766421Y-79624235D01*
X100719331Y-79604730D01*
X100719328Y-79604729D01*
X100583995Y-79577809D01*
X100583993Y-79577809D01*
X100446007Y-79577809D01*
X100446004Y-79577809D01*
X100310671Y-79604729D01*
X100310668Y-79604730D01*
X100183189Y-79657534D01*
X100068458Y-79734194D01*
X100068452Y-79734199D01*
X100061248Y-79741404D01*
X99998936Y-79775430D01*
X99972153Y-79778309D01*
X98307847Y-79778309D01*
X98239726Y-79758307D01*
X98218752Y-79741404D01*
X98211547Y-79734199D01*
X98211541Y-79734194D01*
X98173471Y-79708756D01*
X98096811Y-79657534D01*
X98016421Y-79624235D01*
X97969331Y-79604730D01*
X97969328Y-79604729D01*
X97833995Y-79577809D01*
X97833993Y-79577809D01*
X97696007Y-79577809D01*
X97696004Y-79577809D01*
X97560671Y-79604729D01*
X97560668Y-79604730D01*
X97433189Y-79657534D01*
X97318458Y-79734194D01*
X97318452Y-79734199D01*
X97311248Y-79741404D01*
X97248936Y-79775430D01*
X97222153Y-79778309D01*
X91317190Y-79778309D01*
X91287274Y-79769525D01*
X91256805Y-79762897D01*
X91251709Y-79759082D01*
X91249069Y-79758307D01*
X91228095Y-79741404D01*
X91227405Y-79740714D01*
X91193379Y-79678402D01*
X91190500Y-79651619D01*
X91190500Y-77818793D01*
X91210502Y-77750672D01*
X91227405Y-77729698D01*
X92497790Y-76459313D01*
X101064500Y-76459313D01*
X101064500Y-76459316D01*
X101064500Y-76597302D01*
X101091420Y-76732637D01*
X101144225Y-76860120D01*
X101146805Y-76863981D01*
X101220885Y-76974850D01*
X101220890Y-76974856D01*
X101318452Y-77072418D01*
X101318458Y-77072423D01*
X101433189Y-77149084D01*
X101560672Y-77201889D01*
X101696007Y-77228809D01*
X101696008Y-77228809D01*
X101833992Y-77228809D01*
X101833993Y-77228809D01*
X101936789Y-77208361D01*
X102007499Y-77214689D01*
X102063567Y-77258242D01*
X102087187Y-77325194D01*
X102084947Y-77356522D01*
X102064500Y-77459313D01*
X102064500Y-77597304D01*
X102067799Y-77613887D01*
X102090835Y-77729698D01*
X102091343Y-77732248D01*
X102085015Y-77802962D01*
X102041461Y-77859029D01*
X102015983Y-77873238D01*
X101933194Y-77907531D01*
X101933189Y-77907533D01*
X101818458Y-77984194D01*
X101818452Y-77984199D01*
X101720890Y-78081761D01*
X101720885Y-78081767D01*
X101644225Y-78196498D01*
X101591421Y-78323977D01*
X101591420Y-78323980D01*
X101564500Y-78459313D01*
X101564500Y-78459315D01*
X101564500Y-78459316D01*
X101564500Y-78597302D01*
X101591420Y-78732637D01*
X101644225Y-78860120D01*
X101695447Y-78936780D01*
X101720885Y-78974850D01*
X101720890Y-78974856D01*
X101818452Y-79072418D01*
X101818458Y-79072423D01*
X101933189Y-79149084D01*
X102060672Y-79201889D01*
X102196007Y-79228809D01*
X102196008Y-79228809D01*
X102333992Y-79228809D01*
X102333993Y-79228809D01*
X102469328Y-79201889D01*
X102596811Y-79149084D01*
X102711542Y-79072423D01*
X102809114Y-78974851D01*
X102885775Y-78860120D01*
X102938580Y-78732637D01*
X102965500Y-78597302D01*
X102965500Y-78459316D01*
X102938656Y-78324364D01*
X102944984Y-78253654D01*
X102988537Y-78197587D01*
X103014011Y-78183380D01*
X103096811Y-78149084D01*
X103211542Y-78072423D01*
X103309114Y-77974851D01*
X103385775Y-77860120D01*
X103438580Y-77732637D01*
X103465500Y-77597302D01*
X103465500Y-77459316D01*
X103448801Y-77375366D01*
X103455128Y-77304657D01*
X103498682Y-77248589D01*
X103565634Y-77224969D01*
X103596961Y-77227208D01*
X103605006Y-77228809D01*
X103605007Y-77228809D01*
X103742991Y-77228809D01*
X103742992Y-77228809D01*
X103878327Y-77201889D01*
X104005810Y-77149084D01*
X104120541Y-77072423D01*
X104193651Y-76999313D01*
X107314500Y-76999313D01*
X107314500Y-77137304D01*
X107338557Y-77258242D01*
X107341420Y-77272637D01*
X107394225Y-77400120D01*
X107433777Y-77459313D01*
X107470885Y-77514850D01*
X107470890Y-77514856D01*
X107568452Y-77612418D01*
X107568458Y-77612423D01*
X107683189Y-77689084D01*
X107810672Y-77741889D01*
X107946007Y-77768809D01*
X107946008Y-77768809D01*
X108083992Y-77768809D01*
X108083993Y-77768809D01*
X108219328Y-77741889D01*
X108346811Y-77689084D01*
X108461542Y-77612423D01*
X108559114Y-77514851D01*
X108635775Y-77400120D01*
X108688580Y-77272637D01*
X108715500Y-77137302D01*
X108715500Y-76999316D01*
X108688580Y-76863981D01*
X108635775Y-76736498D01*
X108559114Y-76621767D01*
X108559109Y-76621761D01*
X108461547Y-76524199D01*
X108461541Y-76524194D01*
X108364445Y-76459317D01*
X108346811Y-76447534D01*
X108266421Y-76414235D01*
X108219331Y-76394730D01*
X108219328Y-76394729D01*
X108083995Y-76367809D01*
X108083993Y-76367809D01*
X107946007Y-76367809D01*
X107946004Y-76367809D01*
X107810671Y-76394729D01*
X107810668Y-76394730D01*
X107683189Y-76447534D01*
X107568458Y-76524194D01*
X107568452Y-76524199D01*
X107470890Y-76621761D01*
X107470885Y-76621767D01*
X107394225Y-76736498D01*
X107341421Y-76863977D01*
X107341420Y-76863980D01*
X107314500Y-76999313D01*
X104193651Y-76999313D01*
X104218113Y-76974851D01*
X104294774Y-76860120D01*
X104347579Y-76732637D01*
X104374499Y-76597302D01*
X104374499Y-76459316D01*
X104347579Y-76323981D01*
X104294774Y-76196498D01*
X104218113Y-76081767D01*
X104218108Y-76081761D01*
X104120546Y-75984199D01*
X104120540Y-75984194D01*
X104082470Y-75958756D01*
X104005810Y-75907534D01*
X103925420Y-75874235D01*
X103878330Y-75854730D01*
X103878327Y-75854729D01*
X103742994Y-75827809D01*
X103742992Y-75827809D01*
X103605006Y-75827809D01*
X103605003Y-75827809D01*
X103469670Y-75854729D01*
X103469667Y-75854730D01*
X103342188Y-75907534D01*
X103227457Y-75984194D01*
X103227451Y-75984199D01*
X103129889Y-76081761D01*
X103129884Y-76081767D01*
X103053224Y-76196498D01*
X103000420Y-76323977D01*
X103000419Y-76323980D01*
X102973499Y-76459313D01*
X102973499Y-76597304D01*
X102990197Y-76681247D01*
X102983869Y-76751961D01*
X102940315Y-76808028D01*
X102873363Y-76831648D01*
X102842042Y-76829409D01*
X102834000Y-76827809D01*
X102833993Y-76827809D01*
X102696007Y-76827809D01*
X102696004Y-76827809D01*
X102593213Y-76848256D01*
X102522499Y-76841928D01*
X102466431Y-76798374D01*
X102442812Y-76731421D01*
X102445051Y-76700103D01*
X102465500Y-76597302D01*
X102465500Y-76459316D01*
X102438580Y-76323981D01*
X102385775Y-76196498D01*
X102309114Y-76081767D01*
X102309109Y-76081761D01*
X102211547Y-75984199D01*
X102211541Y-75984194D01*
X102173471Y-75958756D01*
X102096811Y-75907534D01*
X102016421Y-75874235D01*
X101969331Y-75854730D01*
X101969328Y-75854729D01*
X101833995Y-75827809D01*
X101833993Y-75827809D01*
X101696007Y-75827809D01*
X101696004Y-75827809D01*
X101560671Y-75854729D01*
X101560668Y-75854730D01*
X101433189Y-75907534D01*
X101318458Y-75984194D01*
X101318452Y-75984199D01*
X101220890Y-76081761D01*
X101220885Y-76081767D01*
X101144225Y-76196498D01*
X101091421Y-76323977D01*
X101091420Y-76323980D01*
X101064500Y-76459313D01*
X92497790Y-76459313D01*
X98229698Y-70727405D01*
X98292010Y-70693379D01*
X98318793Y-70690500D01*
X99149919Y-70690500D01*
X99218040Y-70710502D01*
X99264533Y-70764158D01*
X99274637Y-70834432D01*
X99245143Y-70899012D01*
X99185417Y-70937396D01*
X99180761Y-70938540D01*
X99177949Y-70939393D01*
X99050470Y-70992197D01*
X98935739Y-71068857D01*
X98935733Y-71068862D01*
X98838171Y-71166424D01*
X98838166Y-71166430D01*
X98761506Y-71281161D01*
X98708702Y-71408640D01*
X98708701Y-71408643D01*
X98681781Y-71543976D01*
X98681781Y-71681967D01*
X98684000Y-71693120D01*
X98708701Y-71817300D01*
X98761506Y-71944783D01*
X98786429Y-71982083D01*
X98838166Y-72059513D01*
X98838171Y-72059519D01*
X98935733Y-72157081D01*
X98935739Y-72157086D01*
X99050470Y-72233747D01*
X99177953Y-72286552D01*
X99313288Y-72313472D01*
X99313289Y-72313472D01*
X99451273Y-72313472D01*
X99451274Y-72313472D01*
X99586609Y-72286552D01*
X99714092Y-72233747D01*
X99828823Y-72157086D01*
X99926395Y-72059514D01*
X100003056Y-71944783D01*
X100055861Y-71817300D01*
X100082781Y-71681965D01*
X100082781Y-71543979D01*
X100055861Y-71408644D01*
X100007675Y-71292313D01*
X102259500Y-71292313D01*
X102259500Y-71292316D01*
X102259500Y-71430302D01*
X102286420Y-71565637D01*
X102339225Y-71693120D01*
X102390447Y-71769780D01*
X102415885Y-71807850D01*
X102415890Y-71807856D01*
X102513452Y-71905418D01*
X102513458Y-71905423D01*
X102628189Y-71982084D01*
X102755672Y-72034889D01*
X102891007Y-72061809D01*
X102891008Y-72061809D01*
X103028992Y-72061809D01*
X103028993Y-72061809D01*
X103164328Y-72034889D01*
X103291811Y-71982084D01*
X103406542Y-71905423D01*
X103504114Y-71807851D01*
X103580775Y-71693120D01*
X103633580Y-71565637D01*
X103660500Y-71430302D01*
X103660500Y-71292316D01*
X103633580Y-71156981D01*
X103580775Y-71029498D01*
X103504114Y-70914767D01*
X103504109Y-70914761D01*
X103406547Y-70817199D01*
X103406541Y-70817194D01*
X103342764Y-70774580D01*
X103291811Y-70740534D01*
X103211421Y-70707235D01*
X103164331Y-70687730D01*
X103164328Y-70687729D01*
X103028995Y-70660809D01*
X103028993Y-70660809D01*
X102891007Y-70660809D01*
X102891004Y-70660809D01*
X102755671Y-70687729D01*
X102755668Y-70687730D01*
X102628189Y-70740534D01*
X102513458Y-70817194D01*
X102513452Y-70817199D01*
X102415890Y-70914761D01*
X102415885Y-70914767D01*
X102339225Y-71029498D01*
X102286421Y-71156977D01*
X102286420Y-71156980D01*
X102259500Y-71292313D01*
X100007675Y-71292313D01*
X100003056Y-71281161D01*
X99926395Y-71166430D01*
X99926390Y-71166424D01*
X99828828Y-71068862D01*
X99828822Y-71068857D01*
X99790752Y-71043419D01*
X99714092Y-70992197D01*
X99633702Y-70958898D01*
X99586612Y-70939393D01*
X99580690Y-70937597D01*
X99581323Y-70935509D01*
X99527150Y-70907170D01*
X99492020Y-70845474D01*
X99495821Y-70774580D01*
X99537347Y-70716994D01*
X99603415Y-70691001D01*
X99614643Y-70690500D01*
X101159845Y-70690500D01*
X101159847Y-70690500D01*
X101270655Y-70660809D01*
X101270655Y-70660811D01*
X101270668Y-70660805D01*
X101274425Y-70659799D01*
X101377152Y-70600489D01*
X101928558Y-70049083D01*
X102551148Y-69426494D01*
X102613460Y-69392468D01*
X102684275Y-69397533D01*
X102741111Y-69440080D01*
X102765922Y-69506600D01*
X102766243Y-69515589D01*
X102766243Y-69628561D01*
X102792412Y-69760119D01*
X102793163Y-69763894D01*
X102845968Y-69891377D01*
X102897190Y-69968037D01*
X102922628Y-70006107D01*
X102922633Y-70006113D01*
X103020195Y-70103675D01*
X103020201Y-70103680D01*
X103134932Y-70180341D01*
X103262415Y-70233146D01*
X103397750Y-70260066D01*
X103397751Y-70260066D01*
X103535735Y-70260066D01*
X103535736Y-70260066D01*
X103671071Y-70233146D01*
X103798554Y-70180341D01*
X103913285Y-70103680D01*
X104010857Y-70006108D01*
X104087518Y-69891377D01*
X104140323Y-69763894D01*
X104167243Y-69628559D01*
X104167243Y-69490573D01*
X104141134Y-69359313D01*
X105414500Y-69359313D01*
X105414500Y-69497304D01*
X105440608Y-69628557D01*
X105441420Y-69632637D01*
X105494225Y-69760120D01*
X105496747Y-69763894D01*
X105570885Y-69874850D01*
X105570890Y-69874856D01*
X105668452Y-69972418D01*
X105668458Y-69972423D01*
X105783189Y-70049084D01*
X105910672Y-70101889D01*
X106046007Y-70128809D01*
X106046008Y-70128809D01*
X106183992Y-70128809D01*
X106183993Y-70128809D01*
X106319328Y-70101889D01*
X106446811Y-70049084D01*
X106561542Y-69972423D01*
X106659114Y-69874851D01*
X106735775Y-69760120D01*
X106788580Y-69632637D01*
X106815500Y-69497302D01*
X106815500Y-69359316D01*
X106788580Y-69223981D01*
X106735775Y-69096498D01*
X106659114Y-68981767D01*
X106659109Y-68981761D01*
X106561547Y-68884199D01*
X106561541Y-68884194D01*
X106523471Y-68858756D01*
X106446811Y-68807534D01*
X106366421Y-68774235D01*
X106319331Y-68754730D01*
X106319328Y-68754729D01*
X106183995Y-68727809D01*
X106183993Y-68727809D01*
X106046007Y-68727809D01*
X106046004Y-68727809D01*
X105910671Y-68754729D01*
X105910668Y-68754730D01*
X105783189Y-68807534D01*
X105668458Y-68884194D01*
X105668452Y-68884199D01*
X105570890Y-68981761D01*
X105570885Y-68981767D01*
X105494225Y-69096498D01*
X105441421Y-69223977D01*
X105441420Y-69223980D01*
X105414500Y-69359313D01*
X104141134Y-69359313D01*
X104140323Y-69355238D01*
X104087518Y-69227755D01*
X104010857Y-69113024D01*
X104010852Y-69113018D01*
X103913290Y-69015456D01*
X103913284Y-69015451D01*
X103852518Y-68974849D01*
X103798554Y-68938791D01*
X103718164Y-68905492D01*
X103671074Y-68885987D01*
X103671071Y-68885986D01*
X103535738Y-68859066D01*
X103535736Y-68859066D01*
X103422767Y-68859066D01*
X103354646Y-68839064D01*
X103308153Y-68785408D01*
X103298049Y-68715134D01*
X103327543Y-68650554D01*
X103333672Y-68643971D01*
X103410483Y-68567159D01*
X103410483Y-68567158D01*
X103410490Y-68567152D01*
X103469799Y-68464424D01*
X103471168Y-68459316D01*
X103500500Y-68349847D01*
X103500500Y-65981313D01*
X105307500Y-65981313D01*
X105307500Y-66119304D01*
X105332247Y-66243713D01*
X105334420Y-66254637D01*
X105387225Y-66382120D01*
X105423757Y-66436794D01*
X105463885Y-66496850D01*
X105463890Y-66496856D01*
X105561452Y-66594418D01*
X105561458Y-66594423D01*
X105676189Y-66671084D01*
X105677578Y-66671659D01*
X105678161Y-66671901D01*
X105679034Y-66672604D01*
X105681650Y-66674003D01*
X105681384Y-66674499D01*
X105733441Y-66716450D01*
X105755861Y-66783813D01*
X105738302Y-66852604D01*
X105686339Y-66900982D01*
X105678161Y-66904717D01*
X105676190Y-66905533D01*
X105676189Y-66905533D01*
X105561458Y-66982194D01*
X105561452Y-66982199D01*
X105463890Y-67079761D01*
X105463885Y-67079767D01*
X105387225Y-67194498D01*
X105334421Y-67321977D01*
X105334420Y-67321980D01*
X105307500Y-67457313D01*
X105307500Y-67595304D01*
X105334420Y-67730637D01*
X105334421Y-67730640D01*
X105345799Y-67758108D01*
X105387225Y-67858120D01*
X105438447Y-67934780D01*
X105463885Y-67972850D01*
X105463890Y-67972856D01*
X105561452Y-68070418D01*
X105561458Y-68070423D01*
X105676189Y-68147084D01*
X105803672Y-68199889D01*
X105939007Y-68226809D01*
X105939008Y-68226809D01*
X106076992Y-68226809D01*
X106076993Y-68226809D01*
X106212328Y-68199889D01*
X106339811Y-68147084D01*
X106454542Y-68070423D01*
X106552114Y-67972851D01*
X106628775Y-67858120D01*
X106681580Y-67730637D01*
X106708500Y-67595302D01*
X106708500Y-67457316D01*
X106681580Y-67321981D01*
X106637681Y-67216000D01*
X106630093Y-67145414D01*
X106661872Y-67081927D01*
X106722930Y-67045699D01*
X106778668Y-67044206D01*
X106913636Y-67071053D01*
X106913637Y-67071053D01*
X107051621Y-67071053D01*
X107051622Y-67071053D01*
X107186957Y-67044133D01*
X107314440Y-66991328D01*
X107429171Y-66914667D01*
X107526743Y-66817095D01*
X107603404Y-66702364D01*
X107656209Y-66574881D01*
X107683129Y-66439546D01*
X107683129Y-66301560D01*
X107656209Y-66166225D01*
X107603404Y-66038742D01*
X107526743Y-65924011D01*
X107526738Y-65924005D01*
X107429176Y-65826443D01*
X107429170Y-65826438D01*
X107385858Y-65797498D01*
X107314440Y-65749778D01*
X107187382Y-65697149D01*
X107186960Y-65696974D01*
X107186957Y-65696973D01*
X107051624Y-65670053D01*
X107051622Y-65670053D01*
X106913636Y-65670053D01*
X106913633Y-65670053D01*
X106778300Y-65696973D01*
X106778293Y-65696975D01*
X106745456Y-65710577D01*
X106674866Y-65718166D01*
X106611380Y-65686386D01*
X106592474Y-65664170D01*
X106552114Y-65603767D01*
X106552109Y-65603761D01*
X106454547Y-65506199D01*
X106454541Y-65506194D01*
X106416471Y-65480756D01*
X106339811Y-65429534D01*
X106258630Y-65395908D01*
X106212331Y-65376730D01*
X106212328Y-65376729D01*
X106076995Y-65349809D01*
X106076993Y-65349809D01*
X105939007Y-65349809D01*
X105939004Y-65349809D01*
X105803671Y-65376729D01*
X105803668Y-65376730D01*
X105676189Y-65429534D01*
X105561458Y-65506194D01*
X105561452Y-65506199D01*
X105463890Y-65603761D01*
X105463885Y-65603767D01*
X105387225Y-65718498D01*
X105334421Y-65845977D01*
X105334420Y-65845980D01*
X105307500Y-65981313D01*
X103500500Y-65981313D01*
X103500500Y-64361313D01*
X105688500Y-64361313D01*
X105688500Y-64361316D01*
X105688500Y-64499302D01*
X105715420Y-64634637D01*
X105768225Y-64762120D01*
X105807717Y-64821224D01*
X105844885Y-64876850D01*
X105844890Y-64876856D01*
X105942452Y-64974418D01*
X105942458Y-64974423D01*
X106057189Y-65051084D01*
X106184672Y-65103889D01*
X106320007Y-65130809D01*
X106320008Y-65130809D01*
X106457992Y-65130809D01*
X106457993Y-65130809D01*
X106593328Y-65103889D01*
X106720811Y-65051084D01*
X106835542Y-64974423D01*
X106933114Y-64876851D01*
X107009775Y-64762120D01*
X107062580Y-64634637D01*
X107089500Y-64499302D01*
X107089500Y-64361316D01*
X107062580Y-64225981D01*
X107009775Y-64098498D01*
X106933114Y-63983767D01*
X106933109Y-63983761D01*
X106835547Y-63886199D01*
X106835541Y-63886194D01*
X106797471Y-63860756D01*
X106720811Y-63809534D01*
X106640421Y-63776235D01*
X106593331Y-63756730D01*
X106593328Y-63756729D01*
X106457995Y-63729809D01*
X106457993Y-63729809D01*
X106320007Y-63729809D01*
X106320004Y-63729809D01*
X106184671Y-63756729D01*
X106184668Y-63756730D01*
X106057189Y-63809534D01*
X105942458Y-63886194D01*
X105942452Y-63886199D01*
X105844890Y-63983761D01*
X105844885Y-63983767D01*
X105768225Y-64098498D01*
X105715421Y-64225977D01*
X105715420Y-64225980D01*
X105688500Y-64361313D01*
X103500500Y-64361313D01*
X103500500Y-63380153D01*
X103473862Y-63280738D01*
X103469799Y-63265575D01*
X103410490Y-63162848D01*
X103298945Y-63051303D01*
X103264922Y-62988994D01*
X103269986Y-62918178D01*
X103312533Y-62861342D01*
X103339821Y-62845802D01*
X103418811Y-62813084D01*
X103533542Y-62736423D01*
X103631114Y-62638851D01*
X103707775Y-62524120D01*
X103760580Y-62396637D01*
X103787500Y-62261302D01*
X103787500Y-62123316D01*
X103760580Y-61987981D01*
X103760577Y-61987975D01*
X103760576Y-61987969D01*
X103760178Y-61987008D01*
X103742770Y-61944983D01*
X105511592Y-61944983D01*
X105511592Y-62082974D01*
X105528229Y-62166610D01*
X105538512Y-62218307D01*
X105591317Y-62345790D01*
X105625292Y-62396637D01*
X105667977Y-62460520D01*
X105667982Y-62460526D01*
X105765544Y-62558088D01*
X105765550Y-62558093D01*
X105880281Y-62634754D01*
X106007764Y-62687559D01*
X106143099Y-62714479D01*
X106143100Y-62714479D01*
X106281084Y-62714479D01*
X106281085Y-62714479D01*
X106416420Y-62687559D01*
X106543903Y-62634754D01*
X106658634Y-62558093D01*
X106756206Y-62460521D01*
X106832867Y-62345790D01*
X106885672Y-62218307D01*
X106912592Y-62082972D01*
X106912592Y-61944986D01*
X106885672Y-61809651D01*
X106832867Y-61682168D01*
X106756206Y-61567437D01*
X106756201Y-61567431D01*
X106658639Y-61469869D01*
X106658633Y-61469864D01*
X106620563Y-61444426D01*
X106543903Y-61393204D01*
X106463513Y-61359905D01*
X106416423Y-61340400D01*
X106416420Y-61340399D01*
X106281087Y-61313479D01*
X106281085Y-61313479D01*
X106143099Y-61313479D01*
X106143096Y-61313479D01*
X106007763Y-61340399D01*
X106007760Y-61340400D01*
X105880281Y-61393204D01*
X105765550Y-61469864D01*
X105765544Y-61469869D01*
X105667982Y-61567431D01*
X105667977Y-61567437D01*
X105591317Y-61682168D01*
X105538513Y-61809647D01*
X105538512Y-61809650D01*
X105511592Y-61944983D01*
X103742770Y-61944983D01*
X103730806Y-61916101D01*
X103707775Y-61860498D01*
X103631114Y-61745767D01*
X103631109Y-61745761D01*
X103533547Y-61648199D01*
X103533541Y-61648194D01*
X103451570Y-61593423D01*
X103418811Y-61571534D01*
X103338421Y-61538235D01*
X103291331Y-61518730D01*
X103291328Y-61518729D01*
X103155995Y-61491809D01*
X103155993Y-61491809D01*
X103018007Y-61491809D01*
X103018004Y-61491809D01*
X102882671Y-61518729D01*
X102882664Y-61518731D01*
X102803517Y-61551515D01*
X102732928Y-61559104D01*
X102669441Y-61527324D01*
X102633214Y-61466266D01*
X102629300Y-61435106D01*
X102629300Y-60530300D01*
X102608888Y-60454123D01*
X102598599Y-60415722D01*
X102598599Y-60415721D01*
X102539289Y-60312994D01*
X102536784Y-60309729D01*
X102535527Y-60306478D01*
X102535160Y-60305842D01*
X102535259Y-60305784D01*
X102511185Y-60243508D01*
X102510748Y-60233027D01*
X102510748Y-60152064D01*
X102510747Y-60152060D01*
X102483828Y-60016728D01*
X102431023Y-59889245D01*
X102354362Y-59774514D01*
X102354357Y-59774508D01*
X102256795Y-59676946D01*
X102256789Y-59676941D01*
X102194308Y-59635193D01*
X102142059Y-59600281D01*
X102061669Y-59566982D01*
X102014579Y-59547477D01*
X102014576Y-59547476D01*
X101879243Y-59520556D01*
X101879241Y-59520556D01*
X101741255Y-59520556D01*
X101741252Y-59520556D01*
X101605919Y-59547476D01*
X101605916Y-59547477D01*
X101521632Y-59582389D01*
X101478437Y-59600281D01*
X101370330Y-59672515D01*
X101302579Y-59693730D01*
X101234112Y-59674947D01*
X101230328Y-59672515D01*
X101174472Y-59635193D01*
X101090187Y-59600281D01*
X101046992Y-59582389D01*
X101046989Y-59582388D01*
X100911656Y-59555468D01*
X100911654Y-59555468D01*
X100773668Y-59555468D01*
X100773665Y-59555468D01*
X100638332Y-59582388D01*
X100638329Y-59582389D01*
X100506636Y-59636938D01*
X100436046Y-59644527D01*
X100372559Y-59612747D01*
X100369349Y-59609650D01*
X100337898Y-59578199D01*
X100333297Y-59575125D01*
X100291918Y-59547476D01*
X100223167Y-59501538D01*
X100142777Y-59468239D01*
X100095687Y-59448734D01*
X100095684Y-59448733D01*
X99960351Y-59421813D01*
X99960349Y-59421813D01*
X99822363Y-59421813D01*
X99822360Y-59421813D01*
X99687027Y-59448733D01*
X99687024Y-59448734D01*
X99559545Y-59501538D01*
X99444814Y-59578198D01*
X99444808Y-59578203D01*
X99347246Y-59675765D01*
X99347241Y-59675771D01*
X99270581Y-59790502D01*
X99217777Y-59917981D01*
X99217776Y-59917984D01*
X99190856Y-60053317D01*
X99190856Y-60191308D01*
X99209384Y-60284453D01*
X99217776Y-60326641D01*
X99270581Y-60454124D01*
X99321480Y-60530299D01*
X99347241Y-60568854D01*
X99347246Y-60568860D01*
X99449190Y-60670804D01*
X99447921Y-60672072D01*
X99483112Y-60723728D01*
X99485016Y-60794699D01*
X99479620Y-60810673D01*
X99465412Y-60844973D01*
X99465410Y-60844980D01*
X99438490Y-60980313D01*
X99438490Y-60980316D01*
X99438490Y-61118302D01*
X99465410Y-61253637D01*
X99518215Y-61381120D01*
X99569437Y-61457780D01*
X99594875Y-61495850D01*
X99594880Y-61495856D01*
X99692442Y-61593418D01*
X99692448Y-61593423D01*
X99807179Y-61670084D01*
X99934662Y-61722889D01*
X100069997Y-61749809D01*
X100069998Y-61749809D01*
X100207982Y-61749809D01*
X100207983Y-61749809D01*
X100248909Y-61741668D01*
X100319621Y-61747995D01*
X100375689Y-61791549D01*
X100399309Y-61858501D01*
X100399490Y-61865247D01*
X100399490Y-61949299D01*
X100423703Y-62039663D01*
X100430191Y-62063877D01*
X100430192Y-62063879D01*
X100430193Y-62063881D01*
X100489498Y-62166600D01*
X100489506Y-62166610D01*
X102102595Y-63779698D01*
X102136620Y-63842010D01*
X102139500Y-63868793D01*
X102139500Y-64126501D01*
X102119498Y-64194622D01*
X102065842Y-64241115D01*
X101995568Y-64251219D01*
X101950500Y-64235620D01*
X101827833Y-64164798D01*
X101811172Y-64160333D01*
X101686801Y-64127009D01*
X101540799Y-64127009D01*
X101454486Y-64150136D01*
X101399766Y-64164798D01*
X101283100Y-64232156D01*
X101214104Y-64248894D01*
X101157100Y-64232156D01*
X101040433Y-64164798D01*
X101023772Y-64160333D01*
X100899401Y-64127009D01*
X100753399Y-64127009D01*
X100667086Y-64150136D01*
X100612366Y-64164798D01*
X100495700Y-64232156D01*
X100426704Y-64248894D01*
X100369700Y-64232156D01*
X100253033Y-64164798D01*
X100236372Y-64160333D01*
X100112001Y-64127009D01*
X99965999Y-64127009D01*
X99879686Y-64150136D01*
X99824966Y-64164798D01*
X99708300Y-64232156D01*
X99639304Y-64248894D01*
X99582300Y-64232156D01*
X99465633Y-64164798D01*
X99448972Y-64160333D01*
X99324601Y-64127009D01*
X99178599Y-64127009D01*
X99092286Y-64150136D01*
X99037566Y-64164798D01*
X98920900Y-64232156D01*
X98851904Y-64248894D01*
X98794900Y-64232156D01*
X98678233Y-64164798D01*
X98661572Y-64160333D01*
X98537201Y-64127009D01*
X98391199Y-64127009D01*
X98304886Y-64150136D01*
X98250166Y-64164798D01*
X98123732Y-64237795D01*
X98123722Y-64237803D01*
X98020494Y-64341031D01*
X98020486Y-64341041D01*
X97947489Y-64467475D01*
X97938962Y-64499300D01*
X97909700Y-64608508D01*
X97909700Y-64754510D01*
X97913090Y-64767161D01*
X97947489Y-64895542D01*
X98014847Y-65012209D01*
X98031585Y-65081205D01*
X98014847Y-65138209D01*
X97947489Y-65254875D01*
X97936377Y-65296346D01*
X97909700Y-65395908D01*
X97909700Y-65541910D01*
X97926532Y-65604729D01*
X97947489Y-65682942D01*
X98014847Y-65799609D01*
X98031585Y-65868605D01*
X98014847Y-65925609D01*
X97947489Y-66042275D01*
X97938995Y-66073977D01*
X97909700Y-66183308D01*
X97909700Y-66329310D01*
X97926971Y-66393767D01*
X97947489Y-66470342D01*
X98014847Y-66587009D01*
X98031585Y-66656005D01*
X98014847Y-66713009D01*
X97947489Y-66829675D01*
X97938500Y-66863223D01*
X97909700Y-66970708D01*
X97909700Y-67116710D01*
X97929795Y-67191705D01*
X97947489Y-67257742D01*
X98014847Y-67374409D01*
X98031585Y-67443405D01*
X98014847Y-67500409D01*
X97947489Y-67617075D01*
X97947488Y-67617080D01*
X97909700Y-67758108D01*
X97909700Y-67904110D01*
X97931159Y-67984195D01*
X97947489Y-68045142D01*
X98020486Y-68171576D01*
X98020494Y-68171586D01*
X98123722Y-68274814D01*
X98123727Y-68274818D01*
X98123729Y-68274820D01*
X98123730Y-68274821D01*
X98123732Y-68274822D01*
X98250166Y-68347819D01*
X98250168Y-68347819D01*
X98250171Y-68347821D01*
X98391199Y-68385609D01*
X98391201Y-68385609D01*
X98537199Y-68385609D01*
X98537201Y-68385609D01*
X98678229Y-68347821D01*
X98794901Y-68280460D01*
X98863895Y-68263723D01*
X98920898Y-68280460D01*
X99037571Y-68347821D01*
X99178599Y-68385609D01*
X99178601Y-68385609D01*
X99324599Y-68385609D01*
X99324601Y-68385609D01*
X99465629Y-68347821D01*
X99582301Y-68280460D01*
X99651295Y-68263723D01*
X99708298Y-68280460D01*
X99824971Y-68347821D01*
X99965999Y-68385609D01*
X99966001Y-68385609D01*
X100111999Y-68385609D01*
X100112001Y-68385609D01*
X100253029Y-68347821D01*
X100369701Y-68280460D01*
X100438695Y-68263723D01*
X100495698Y-68280460D01*
X100612371Y-68347821D01*
X100753399Y-68385609D01*
X100753401Y-68385609D01*
X100899399Y-68385609D01*
X100899401Y-68385609D01*
X101040429Y-68347821D01*
X101157101Y-68280460D01*
X101165127Y-68278513D01*
X101171544Y-68273312D01*
X101199124Y-68270265D01*
X101226095Y-68263723D01*
X101235715Y-68266224D01*
X101242112Y-68265518D01*
X101264777Y-68273781D01*
X101276173Y-68276744D01*
X101279680Y-68278487D01*
X101399771Y-68347821D01*
X101441938Y-68359119D01*
X101453218Y-68364725D01*
X101470395Y-68380624D01*
X101490377Y-68392804D01*
X101495953Y-68404282D01*
X101505320Y-68412953D01*
X101511173Y-68435613D01*
X101521400Y-68456664D01*
X101519885Y-68469336D01*
X101523077Y-68481693D01*
X101515751Y-68503919D01*
X101512973Y-68527158D01*
X101503456Y-68541219D01*
X101500852Y-68549121D01*
X101494773Y-68554048D01*
X101486241Y-68566656D01*
X101030300Y-69022596D01*
X100967990Y-69056620D01*
X100941207Y-69059500D01*
X97830691Y-69059500D01*
X97760567Y-69078289D01*
X97716109Y-69090202D01*
X97613390Y-69149507D01*
X97613380Y-69149515D01*
X90980095Y-75782801D01*
X90960348Y-75793583D01*
X90943342Y-75808320D01*
X90929794Y-75810267D01*
X90917783Y-75816827D01*
X90895339Y-75815221D01*
X90873068Y-75818424D01*
X90860618Y-75812738D01*
X90846968Y-75811762D01*
X90828954Y-75798277D01*
X90808488Y-75788930D01*
X90801089Y-75777417D01*
X90790132Y-75769215D01*
X90782268Y-75748131D01*
X90770104Y-75729204D01*
X90766901Y-75706933D01*
X90765321Y-75702695D01*
X90765000Y-75693706D01*
X90765000Y-75571155D01*
X90785002Y-75503034D01*
X90801903Y-75482061D01*
X90809114Y-75474851D01*
X90885775Y-75360120D01*
X90938580Y-75232637D01*
X90965500Y-75097302D01*
X90965500Y-74959316D01*
X90938580Y-74823981D01*
X90885775Y-74696498D01*
X90809114Y-74581767D01*
X90809109Y-74581761D01*
X90801905Y-74574557D01*
X90767879Y-74512245D01*
X90765000Y-74485462D01*
X90765000Y-67541669D01*
X90785002Y-67473548D01*
X90820999Y-67436904D01*
X90899537Y-67384427D01*
X90899539Y-67384424D01*
X90899542Y-67384423D01*
X90997114Y-67286851D01*
X91073775Y-67172120D01*
X91122819Y-67053716D01*
X92811277Y-67053716D01*
X92811277Y-67191707D01*
X92830203Y-67286850D01*
X92838197Y-67327040D01*
X92891002Y-67454523D01*
X92921662Y-67500409D01*
X92967662Y-67569253D01*
X92967667Y-67569259D01*
X93065229Y-67666821D01*
X93065235Y-67666826D01*
X93179966Y-67743487D01*
X93307449Y-67796292D01*
X93442784Y-67823212D01*
X93442785Y-67823212D01*
X93569276Y-67823212D01*
X93637397Y-67843214D01*
X93683890Y-67896870D01*
X93685685Y-67900995D01*
X93708928Y-67957111D01*
X93708929Y-67957113D01*
X93785590Y-68071844D01*
X93785595Y-68071850D01*
X93883157Y-68169412D01*
X93883163Y-68169417D01*
X93997894Y-68246078D01*
X94125377Y-68298883D01*
X94260712Y-68325803D01*
X94260713Y-68325803D01*
X94398697Y-68325803D01*
X94398698Y-68325803D01*
X94534033Y-68298883D01*
X94649156Y-68251197D01*
X94719742Y-68243609D01*
X94783229Y-68275388D01*
X94819457Y-68336446D01*
X94816923Y-68407397D01*
X94813781Y-68415823D01*
X94793421Y-68464978D01*
X94793420Y-68464980D01*
X94766500Y-68600313D01*
X94766500Y-68738304D01*
X94793420Y-68873637D01*
X94793421Y-68873640D01*
X94812926Y-68920730D01*
X94846225Y-69001120D01*
X94893021Y-69071155D01*
X94922885Y-69115850D01*
X94922890Y-69115856D01*
X95020452Y-69213418D01*
X95020458Y-69213423D01*
X95135189Y-69290084D01*
X95262672Y-69342889D01*
X95398007Y-69369809D01*
X95398008Y-69369809D01*
X95535992Y-69369809D01*
X95535993Y-69369809D01*
X95671328Y-69342889D01*
X95798811Y-69290084D01*
X95913542Y-69213423D01*
X96011114Y-69115851D01*
X96087775Y-69001120D01*
X96140580Y-68873637D01*
X96167500Y-68738302D01*
X96167500Y-68600316D01*
X96140580Y-68464981D01*
X96087775Y-68337498D01*
X96011114Y-68222767D01*
X96011109Y-68222761D01*
X95913547Y-68125199D01*
X95913541Y-68125194D01*
X95875471Y-68099756D01*
X95798811Y-68048534D01*
X95718421Y-68015235D01*
X95671331Y-67995730D01*
X95671328Y-67995729D01*
X95535995Y-67968809D01*
X95535993Y-67968809D01*
X95398007Y-67968809D01*
X95398004Y-67968809D01*
X95262671Y-67995729D01*
X95262668Y-67995730D01*
X95147551Y-68043413D01*
X95076961Y-68051002D01*
X95013474Y-68019222D01*
X94977247Y-67958164D01*
X94979781Y-67887213D01*
X94982925Y-67878785D01*
X95003282Y-67829639D01*
X95003282Y-67829637D01*
X95003285Y-67829631D01*
X95030205Y-67694296D01*
X95030205Y-67556310D01*
X95003285Y-67420975D01*
X94950480Y-67293492D01*
X94873819Y-67178761D01*
X94873814Y-67178755D01*
X94776252Y-67081193D01*
X94776246Y-67081188D01*
X94735131Y-67053716D01*
X94661516Y-67004528D01*
X94534434Y-66951889D01*
X94534036Y-66951724D01*
X94534033Y-66951723D01*
X94398700Y-66924803D01*
X94398698Y-66924803D01*
X94272207Y-66924803D01*
X94257089Y-66920364D01*
X94241346Y-66920965D01*
X94223721Y-66910566D01*
X94204086Y-66904801D01*
X94192905Y-66892385D01*
X94180199Y-66884888D01*
X94165210Y-66861628D01*
X94159673Y-66855479D01*
X94157577Y-66851318D01*
X94132552Y-66790901D01*
X94110612Y-66758066D01*
X94107135Y-66751162D01*
X94102080Y-66723533D01*
X94093689Y-66696735D01*
X94095781Y-66689106D01*
X94094358Y-66681325D01*
X94105042Y-66655350D01*
X94112472Y-66628268D01*
X94120199Y-66618501D01*
X94121366Y-66615666D01*
X94123772Y-66613986D01*
X94130571Y-66605393D01*
X94160114Y-66575851D01*
X94236775Y-66461120D01*
X94289580Y-66333637D01*
X94316500Y-66198302D01*
X94316500Y-66060316D01*
X94289580Y-65924981D01*
X94236775Y-65797498D01*
X94160114Y-65682767D01*
X94160109Y-65682761D01*
X94062547Y-65585199D01*
X94062541Y-65585194D01*
X94024471Y-65559756D01*
X93947811Y-65508534D01*
X93867421Y-65475235D01*
X93820331Y-65455730D01*
X93820328Y-65455729D01*
X93684995Y-65428809D01*
X93684993Y-65428809D01*
X93547007Y-65428809D01*
X93547004Y-65428809D01*
X93411671Y-65455729D01*
X93411668Y-65455730D01*
X93284189Y-65508534D01*
X93169458Y-65585194D01*
X93169452Y-65585199D01*
X93071890Y-65682761D01*
X93071885Y-65682767D01*
X92995225Y-65797498D01*
X92942421Y-65924977D01*
X92942420Y-65924980D01*
X92915500Y-66060313D01*
X92915500Y-66198304D01*
X92942420Y-66333637D01*
X92942421Y-66333640D01*
X92995225Y-66461120D01*
X92995225Y-66461121D01*
X93012872Y-66487530D01*
X93034088Y-66555282D01*
X93015306Y-66623749D01*
X92997205Y-66646627D01*
X92967662Y-66676170D01*
X92891002Y-66790901D01*
X92838198Y-66918380D01*
X92838197Y-66918383D01*
X92811277Y-67053716D01*
X91122819Y-67053716D01*
X91126580Y-67044637D01*
X91153500Y-66909302D01*
X91153500Y-66771316D01*
X91126580Y-66635981D01*
X91073775Y-66508498D01*
X90997114Y-66393767D01*
X90997109Y-66393761D01*
X90899547Y-66296199D01*
X90899541Y-66296194D01*
X90820998Y-66243713D01*
X90775470Y-66189236D01*
X90765000Y-66138948D01*
X90765000Y-65296342D01*
X94591246Y-65296342D01*
X94591246Y-65434333D01*
X94618166Y-65569666D01*
X94618167Y-65569669D01*
X94637672Y-65616759D01*
X94670971Y-65697149D01*
X94696571Y-65735462D01*
X94747631Y-65811879D01*
X94747636Y-65811885D01*
X94845198Y-65909447D01*
X94845204Y-65909452D01*
X94959935Y-65986113D01*
X95087418Y-66038918D01*
X95222753Y-66065838D01*
X95222754Y-66065838D01*
X95360738Y-66065838D01*
X95360739Y-66065838D01*
X95496074Y-66038918D01*
X95623557Y-65986113D01*
X95738288Y-65909452D01*
X95835860Y-65811880D01*
X95912521Y-65697149D01*
X95965326Y-65569666D01*
X95992246Y-65434331D01*
X95992246Y-65296345D01*
X95965326Y-65161010D01*
X95912521Y-65033527D01*
X95835860Y-64918796D01*
X95835855Y-64918790D01*
X95738293Y-64821228D01*
X95738287Y-64821223D01*
X95657377Y-64767161D01*
X95623557Y-64744563D01*
X95543167Y-64711264D01*
X95496077Y-64691759D01*
X95496074Y-64691758D01*
X95360741Y-64664838D01*
X95360739Y-64664838D01*
X95222753Y-64664838D01*
X95222750Y-64664838D01*
X95087417Y-64691758D01*
X95087414Y-64691759D01*
X94959935Y-64744563D01*
X94845204Y-64821223D01*
X94845198Y-64821228D01*
X94747636Y-64918790D01*
X94747631Y-64918796D01*
X94670971Y-65033527D01*
X94618167Y-65161006D01*
X94618166Y-65161009D01*
X94591246Y-65296342D01*
X90765000Y-65296342D01*
X90765000Y-63519056D01*
X94640757Y-63519056D01*
X94640757Y-63657047D01*
X94667677Y-63792380D01*
X94667678Y-63792383D01*
X94687183Y-63839473D01*
X94720482Y-63919863D01*
X94771704Y-63996523D01*
X94797142Y-64034593D01*
X94797147Y-64034599D01*
X94894709Y-64132161D01*
X94894715Y-64132166D01*
X95009446Y-64208827D01*
X95136929Y-64261632D01*
X95272264Y-64288552D01*
X95272265Y-64288552D01*
X95410249Y-64288552D01*
X95410250Y-64288552D01*
X95545585Y-64261632D01*
X95673068Y-64208827D01*
X95787799Y-64132166D01*
X95885371Y-64034594D01*
X95962032Y-63919863D01*
X96014837Y-63792380D01*
X96041757Y-63657045D01*
X96041757Y-63519059D01*
X96014837Y-63383724D01*
X95962032Y-63256241D01*
X95885371Y-63141510D01*
X95885366Y-63141504D01*
X95787804Y-63043942D01*
X95787798Y-63043937D01*
X95749728Y-63018499D01*
X95673068Y-62967277D01*
X95592678Y-62933978D01*
X95545588Y-62914473D01*
X95545585Y-62914472D01*
X95410252Y-62887552D01*
X95410250Y-62887552D01*
X95272264Y-62887552D01*
X95272261Y-62887552D01*
X95136928Y-62914472D01*
X95136925Y-62914473D01*
X95009446Y-62967277D01*
X94894715Y-63043937D01*
X94894709Y-63043942D01*
X94797147Y-63141504D01*
X94797142Y-63141510D01*
X94720482Y-63256241D01*
X94667678Y-63383720D01*
X94667677Y-63383723D01*
X94640757Y-63519056D01*
X90765000Y-63519056D01*
X90765000Y-58080499D01*
X90785002Y-58012378D01*
X90801905Y-57991404D01*
X91228095Y-57565214D01*
X91290407Y-57531188D01*
X91317190Y-57528309D01*
X98196973Y-57528309D01*
X98265094Y-57548311D01*
G37*
G04 #@! TD.AperFunction*
G04 #@! TA.AperFunction,Conductor*
G36*
X126200931Y-36758311D02*
G01*
X126221905Y-36775214D01*
X126648095Y-37201404D01*
X126682121Y-37263716D01*
X126685000Y-37290499D01*
X126685000Y-42704848D01*
X126664998Y-42772969D01*
X126611342Y-42819462D01*
X126583583Y-42828427D01*
X126530669Y-42838952D01*
X126530668Y-42838953D01*
X126403189Y-42891757D01*
X126288458Y-42968417D01*
X126288452Y-42968422D01*
X126190890Y-43065984D01*
X126190885Y-43065990D01*
X126114225Y-43180721D01*
X126061421Y-43308200D01*
X126061420Y-43308203D01*
X126034500Y-43443536D01*
X126034500Y-43581527D01*
X126045334Y-43635991D01*
X126061420Y-43716860D01*
X126114225Y-43844343D01*
X126151889Y-43900711D01*
X126190885Y-43959073D01*
X126190890Y-43959079D01*
X126288452Y-44056641D01*
X126288458Y-44056646D01*
X126403189Y-44133307D01*
X126530672Y-44186112D01*
X126583582Y-44196636D01*
X126646491Y-44229543D01*
X126681623Y-44291238D01*
X126685000Y-44320215D01*
X126685000Y-45663875D01*
X126666371Y-45727319D01*
X126667142Y-45727732D01*
X126665162Y-45731434D01*
X126664998Y-45731996D01*
X126664264Y-45733115D01*
X126664225Y-45733188D01*
X126611421Y-45860668D01*
X126611420Y-45860671D01*
X126584500Y-45996004D01*
X126584500Y-46133995D01*
X126611420Y-46269328D01*
X126611421Y-46269331D01*
X126664225Y-46396812D01*
X126667141Y-46402266D01*
X126665895Y-46402931D01*
X126684980Y-46463862D01*
X126685000Y-46466123D01*
X126685000Y-52144933D01*
X126664998Y-52213054D01*
X126611342Y-52259547D01*
X126607222Y-52261340D01*
X126588193Y-52269222D01*
X126588189Y-52269224D01*
X126473458Y-52345885D01*
X126473452Y-52345890D01*
X126375890Y-52443452D01*
X126375885Y-52443458D01*
X126299225Y-52558189D01*
X126246421Y-52685668D01*
X126246420Y-52685671D01*
X126219500Y-52821004D01*
X126219500Y-52821007D01*
X126219500Y-52958993D01*
X126246420Y-53094328D01*
X126299225Y-53221811D01*
X126350447Y-53298471D01*
X126375885Y-53336541D01*
X126375890Y-53336547D01*
X126473452Y-53434109D01*
X126473458Y-53434114D01*
X126588189Y-53510775D01*
X126607214Y-53518655D01*
X126662497Y-53563201D01*
X126684920Y-53630564D01*
X126685000Y-53635065D01*
X126685000Y-54849494D01*
X126664998Y-54917615D01*
X126663765Y-54919496D01*
X126629225Y-54971188D01*
X126576421Y-55098668D01*
X126576420Y-55098671D01*
X126549500Y-55234004D01*
X126549500Y-55371995D01*
X126576420Y-55507328D01*
X126576421Y-55507331D01*
X126629226Y-55634814D01*
X126663764Y-55686502D01*
X126684980Y-55754254D01*
X126685000Y-55756505D01*
X126685000Y-55938308D01*
X126685000Y-55938309D01*
X126925640Y-55937433D01*
X126974314Y-55947022D01*
X127045672Y-55976580D01*
X127181007Y-56003500D01*
X127181008Y-56003500D01*
X127318992Y-56003500D01*
X127318993Y-56003500D01*
X127454328Y-55976580D01*
X127531426Y-55944644D01*
X127579169Y-55935057D01*
X129466463Y-55928194D01*
X129534654Y-55947948D01*
X129536921Y-55949428D01*
X129648189Y-56023775D01*
X129775672Y-56076580D01*
X129911007Y-56103500D01*
X129911008Y-56103500D01*
X130048992Y-56103500D01*
X130048993Y-56103500D01*
X130184328Y-56076580D01*
X130311811Y-56023775D01*
X130426542Y-55947114D01*
X130426542Y-55947113D01*
X130428694Y-55945676D01*
X130496447Y-55924461D01*
X130498122Y-55924443D01*
X140435000Y-55888309D01*
X153631963Y-55840319D01*
X153700153Y-55860073D01*
X153722210Y-55877925D01*
X153791137Y-55947948D01*
X154138086Y-56300413D01*
X154171619Y-56362992D01*
X154174267Y-56391248D01*
X154136071Y-58359225D01*
X154074122Y-61551004D01*
X154072667Y-61625945D01*
X154051347Y-61693665D01*
X153996799Y-61739108D01*
X153946691Y-61749500D01*
X153811004Y-61749500D01*
X153675671Y-61776420D01*
X153675668Y-61776421D01*
X153548189Y-61829225D01*
X153433458Y-61905885D01*
X153433452Y-61905890D01*
X153335890Y-62003452D01*
X153335885Y-62003458D01*
X153259225Y-62118189D01*
X153206421Y-62245668D01*
X153206420Y-62245671D01*
X153179500Y-62381004D01*
X153179500Y-62518995D01*
X153206420Y-62654328D01*
X153206422Y-62654335D01*
X153224982Y-62699143D01*
X153232571Y-62769733D01*
X153200791Y-62833219D01*
X153139733Y-62869446D01*
X153068781Y-62866912D01*
X153060355Y-62863769D01*
X152994331Y-62836421D01*
X152994328Y-62836420D01*
X152858995Y-62809500D01*
X152858993Y-62809500D01*
X152721007Y-62809500D01*
X152721004Y-62809500D01*
X152585671Y-62836420D01*
X152585668Y-62836421D01*
X152458189Y-62889225D01*
X152343458Y-62965885D01*
X152343452Y-62965890D01*
X152245890Y-63063452D01*
X152245885Y-63063458D01*
X152169225Y-63178189D01*
X152116421Y-63305668D01*
X152116420Y-63305671D01*
X152089500Y-63441004D01*
X152089500Y-63578995D01*
X152105123Y-63657534D01*
X152116420Y-63714328D01*
X152169225Y-63841811D01*
X152198882Y-63886195D01*
X152245885Y-63956541D01*
X152245890Y-63956547D01*
X152343452Y-64054109D01*
X152343458Y-64054114D01*
X152458189Y-64130775D01*
X152585672Y-64183580D01*
X152721007Y-64210500D01*
X152721008Y-64210500D01*
X152858992Y-64210500D01*
X152858993Y-64210500D01*
X152994328Y-64183580D01*
X153121811Y-64130775D01*
X153236542Y-64054114D01*
X153334114Y-63956542D01*
X153410775Y-63841811D01*
X153463580Y-63714328D01*
X153490500Y-63578993D01*
X153490500Y-63441007D01*
X153463580Y-63305672D01*
X153445016Y-63260856D01*
X153437428Y-63190268D01*
X153469207Y-63126781D01*
X153530265Y-63090553D01*
X153601216Y-63093087D01*
X153609625Y-63096222D01*
X153675672Y-63123580D01*
X153811007Y-63150500D01*
X153811008Y-63150500D01*
X153914606Y-63150500D01*
X153982727Y-63170502D01*
X154029220Y-63224158D01*
X154040582Y-63278945D01*
X153621350Y-84878665D01*
X153611783Y-84924437D01*
X153586423Y-84985661D01*
X153586420Y-84985671D01*
X153559500Y-85121004D01*
X153559500Y-85258995D01*
X153586420Y-85394327D01*
X153586422Y-85394334D01*
X153600148Y-85427473D01*
X153609714Y-85478133D01*
X153578791Y-87071443D01*
X153550710Y-88518194D01*
X153529390Y-88585914D01*
X153512432Y-88606221D01*
X153077304Y-89028007D01*
X153014469Y-89061058D01*
X152988128Y-89063526D01*
X150186796Y-89030666D01*
X147385601Y-88997806D01*
X147317720Y-88977007D01*
X147297116Y-88960035D01*
X146898204Y-88553241D01*
X146864790Y-88490599D01*
X146862170Y-88464162D01*
X146862945Y-88350500D01*
X146866009Y-87901004D01*
X149639500Y-87901004D01*
X149639500Y-88038995D01*
X149666420Y-88174328D01*
X149666421Y-88174331D01*
X149685926Y-88221421D01*
X149719225Y-88301811D01*
X149733771Y-88323580D01*
X149795885Y-88416541D01*
X149795890Y-88416547D01*
X149893452Y-88514109D01*
X149893458Y-88514114D01*
X150008189Y-88590775D01*
X150135672Y-88643580D01*
X150271007Y-88670500D01*
X150271008Y-88670500D01*
X150408992Y-88670500D01*
X150408993Y-88670500D01*
X150544328Y-88643580D01*
X150671811Y-88590775D01*
X150786542Y-88514114D01*
X150884114Y-88416542D01*
X150960775Y-88301811D01*
X151013580Y-88174328D01*
X151040500Y-88038993D01*
X151040500Y-87901007D01*
X151013580Y-87765672D01*
X150960775Y-87638189D01*
X150884114Y-87523458D01*
X150884109Y-87523452D01*
X150786547Y-87425890D01*
X150786541Y-87425885D01*
X150748471Y-87400447D01*
X150671811Y-87349225D01*
X150591421Y-87315926D01*
X150544331Y-87296421D01*
X150544328Y-87296420D01*
X150408995Y-87269500D01*
X150408993Y-87269500D01*
X150271007Y-87269500D01*
X150271004Y-87269500D01*
X150135671Y-87296420D01*
X150135668Y-87296421D01*
X150008189Y-87349225D01*
X149893458Y-87425885D01*
X149893452Y-87425890D01*
X149795890Y-87523452D01*
X149795885Y-87523458D01*
X149719225Y-87638189D01*
X149666421Y-87765668D01*
X149666420Y-87765671D01*
X149639500Y-87901004D01*
X146866009Y-87901004D01*
X146871782Y-87054251D01*
X146874700Y-87044559D01*
X146874700Y-86867248D01*
X146874700Y-86867241D01*
X146840043Y-86603996D01*
X146771322Y-86347526D01*
X146669712Y-86102220D01*
X146669708Y-86102213D01*
X146669705Y-86102207D01*
X146536955Y-85872278D01*
X146536953Y-85872275D01*
X146375316Y-85661626D01*
X146375310Y-85661620D01*
X146375301Y-85661610D01*
X146349460Y-85635769D01*
X146345802Y-85630454D01*
X146342643Y-85628386D01*
X146323507Y-85598055D01*
X146284534Y-85510790D01*
X146274582Y-85475250D01*
X146268527Y-85427473D01*
X146231149Y-85132524D01*
X146214355Y-85000000D01*
X146170000Y-84649999D01*
X145683669Y-84657085D01*
X123897198Y-84974487D01*
X123895363Y-84974500D01*
X121330639Y-84974500D01*
X121067403Y-85009155D01*
X121067396Y-85009157D01*
X121056649Y-85012037D01*
X121025874Y-85016317D01*
X117920262Y-85061563D01*
X117920261Y-85061563D01*
X112402599Y-85141948D01*
X112334195Y-85122940D01*
X112312405Y-85105787D01*
X111886590Y-84686928D01*
X111852053Y-84624898D01*
X111848949Y-84597349D01*
X111848467Y-84343343D01*
X111848379Y-84296739D01*
X111868252Y-84228580D01*
X111921819Y-84181986D01*
X111974379Y-84170500D01*
X114189309Y-84170500D01*
X114279673Y-84146286D01*
X114303887Y-84139799D01*
X114406614Y-84080489D01*
X114698110Y-83788993D01*
X114942700Y-83544404D01*
X121462900Y-83544404D01*
X121462900Y-83544407D01*
X121462900Y-83682393D01*
X121489820Y-83817728D01*
X121542625Y-83945211D01*
X121555256Y-83964114D01*
X121619285Y-84059941D01*
X121619290Y-84059947D01*
X121716852Y-84157509D01*
X121716858Y-84157514D01*
X121831589Y-84234175D01*
X121959072Y-84286980D01*
X122094407Y-84313900D01*
X122094408Y-84313900D01*
X122232392Y-84313900D01*
X122232393Y-84313900D01*
X122367728Y-84286980D01*
X122495211Y-84234175D01*
X122609942Y-84157514D01*
X122707514Y-84059942D01*
X122784175Y-83945211D01*
X122836980Y-83817728D01*
X122863900Y-83682393D01*
X122863900Y-83544407D01*
X122863899Y-83544404D01*
X143062900Y-83544404D01*
X143062900Y-83544407D01*
X143062900Y-83682393D01*
X143089820Y-83817728D01*
X143142625Y-83945211D01*
X143155256Y-83964114D01*
X143219285Y-84059941D01*
X143219290Y-84059947D01*
X143316852Y-84157509D01*
X143316858Y-84157514D01*
X143431589Y-84234175D01*
X143559072Y-84286980D01*
X143694407Y-84313900D01*
X143694408Y-84313900D01*
X143832392Y-84313900D01*
X143832393Y-84313900D01*
X143967728Y-84286980D01*
X144095211Y-84234175D01*
X144209942Y-84157514D01*
X144307514Y-84059942D01*
X144384175Y-83945211D01*
X144436980Y-83817728D01*
X144463900Y-83682393D01*
X144463900Y-83544407D01*
X144436980Y-83409072D01*
X144384175Y-83281589D01*
X144307514Y-83166858D01*
X144307509Y-83166852D01*
X144209947Y-83069290D01*
X144209941Y-83069285D01*
X144135432Y-83019500D01*
X144095211Y-82992625D01*
X144022425Y-82962476D01*
X143967731Y-82939821D01*
X143967728Y-82939820D01*
X143832395Y-82912900D01*
X143832393Y-82912900D01*
X143694407Y-82912900D01*
X143694404Y-82912900D01*
X143559071Y-82939820D01*
X143559068Y-82939821D01*
X143431589Y-82992625D01*
X143316858Y-83069285D01*
X143316852Y-83069290D01*
X143219290Y-83166852D01*
X143219285Y-83166858D01*
X143142625Y-83281589D01*
X143089821Y-83409068D01*
X143089820Y-83409071D01*
X143062900Y-83544404D01*
X122863899Y-83544404D01*
X122836980Y-83409072D01*
X122784175Y-83281589D01*
X122707514Y-83166858D01*
X122707509Y-83166852D01*
X122609947Y-83069290D01*
X122609941Y-83069285D01*
X122535432Y-83019500D01*
X122495211Y-82992625D01*
X122414821Y-82959326D01*
X122367731Y-82939821D01*
X122367728Y-82939820D01*
X122232395Y-82912900D01*
X122232393Y-82912900D01*
X122094407Y-82912900D01*
X122094404Y-82912900D01*
X121959071Y-82939820D01*
X121959068Y-82939821D01*
X121831589Y-82992625D01*
X121716858Y-83069285D01*
X121716852Y-83069290D01*
X121619290Y-83166852D01*
X121619285Y-83166858D01*
X121542625Y-83281589D01*
X121489821Y-83409068D01*
X121489820Y-83409071D01*
X121462900Y-83544404D01*
X114942700Y-83544404D01*
X115037982Y-83449122D01*
X115634850Y-82852254D01*
X149229500Y-82852254D01*
X149229500Y-82990245D01*
X149256420Y-83125578D01*
X149256421Y-83125581D01*
X149273516Y-83166852D01*
X149309225Y-83253061D01*
X149322854Y-83273458D01*
X149385885Y-83367791D01*
X149385890Y-83367797D01*
X149483452Y-83465359D01*
X149483458Y-83465364D01*
X149598189Y-83542025D01*
X149725672Y-83594830D01*
X149861007Y-83621750D01*
X149861008Y-83621750D01*
X149998992Y-83621750D01*
X149998993Y-83621750D01*
X150134328Y-83594830D01*
X150261811Y-83542025D01*
X150376542Y-83465364D01*
X150474114Y-83367792D01*
X150550775Y-83253061D01*
X150603580Y-83125578D01*
X150630500Y-82990243D01*
X150630500Y-82852257D01*
X150603580Y-82716922D01*
X150550775Y-82589439D01*
X150474114Y-82474708D01*
X150474109Y-82474702D01*
X150376547Y-82377140D01*
X150376541Y-82377135D01*
X150338471Y-82351697D01*
X150261811Y-82300475D01*
X150181421Y-82267176D01*
X150134331Y-82247671D01*
X150134328Y-82247670D01*
X149998995Y-82220750D01*
X149998993Y-82220750D01*
X149861007Y-82220750D01*
X149861004Y-82220750D01*
X149725671Y-82247670D01*
X149725668Y-82247671D01*
X149598189Y-82300475D01*
X149483458Y-82377135D01*
X149483452Y-82377140D01*
X149385890Y-82474702D01*
X149385885Y-82474708D01*
X149309225Y-82589439D01*
X149256421Y-82716918D01*
X149256420Y-82716921D01*
X149229500Y-82852254D01*
X115634850Y-82852254D01*
X118716099Y-79771004D01*
X126259500Y-79771004D01*
X126259500Y-79908995D01*
X126286420Y-80044328D01*
X126286421Y-80044331D01*
X126288882Y-80050272D01*
X126339225Y-80171811D01*
X126364285Y-80209316D01*
X126415885Y-80286541D01*
X126415890Y-80286547D01*
X126513452Y-80384109D01*
X126513456Y-80384112D01*
X126513458Y-80384114D01*
X126517771Y-80386996D01*
X126518747Y-80387648D01*
X126564272Y-80442127D01*
X126573118Y-80512571D01*
X126542474Y-80576613D01*
X126537837Y-80581506D01*
X126445885Y-80673458D01*
X126369225Y-80788189D01*
X126316421Y-80915668D01*
X126316420Y-80915671D01*
X126289500Y-81051004D01*
X126289500Y-81051007D01*
X126289500Y-81188993D01*
X126316420Y-81324328D01*
X126369225Y-81451811D01*
X126420447Y-81528471D01*
X126445885Y-81566541D01*
X126445890Y-81566547D01*
X126543452Y-81664109D01*
X126543458Y-81664114D01*
X126658189Y-81740775D01*
X126785672Y-81793580D01*
X126921007Y-81820500D01*
X126921008Y-81820500D01*
X127058992Y-81820500D01*
X127058993Y-81820500D01*
X127194328Y-81793580D01*
X127321811Y-81740775D01*
X127436542Y-81664114D01*
X127534114Y-81566542D01*
X127610775Y-81451811D01*
X127663580Y-81324328D01*
X127690500Y-81188993D01*
X127690500Y-81051007D01*
X127663580Y-80915672D01*
X127610775Y-80788189D01*
X127534114Y-80673458D01*
X127534109Y-80673452D01*
X127436547Y-80575890D01*
X127436538Y-80575883D01*
X127431250Y-80572349D01*
X127417524Y-80555923D01*
X127400390Y-80543097D01*
X127395217Y-80529228D01*
X127385725Y-80517869D01*
X127383058Y-80496631D01*
X127375579Y-80476577D01*
X127378725Y-80462111D01*
X127376882Y-80447426D01*
X127386120Y-80428119D01*
X127386185Y-80427818D01*
X151100991Y-80427818D01*
X151100991Y-80565809D01*
X151127911Y-80701142D01*
X151127912Y-80701145D01*
X151147417Y-80748235D01*
X151180716Y-80828625D01*
X151227795Y-80899084D01*
X151257376Y-80943355D01*
X151257381Y-80943361D01*
X151354943Y-81040923D01*
X151354949Y-81040928D01*
X151469680Y-81117589D01*
X151597163Y-81170394D01*
X151732498Y-81197314D01*
X151732499Y-81197314D01*
X151870483Y-81197314D01*
X151870484Y-81197314D01*
X152005819Y-81170394D01*
X152133302Y-81117589D01*
X152248033Y-81040928D01*
X152345605Y-80943356D01*
X152422266Y-80828625D01*
X152475071Y-80701142D01*
X152501991Y-80565807D01*
X152501991Y-80427821D01*
X152475071Y-80292486D01*
X152422266Y-80165003D01*
X152345605Y-80050272D01*
X152345600Y-80050266D01*
X152248038Y-79952704D01*
X152248032Y-79952699D01*
X152167791Y-79899084D01*
X152133302Y-79876039D01*
X152026420Y-79831767D01*
X152005822Y-79823235D01*
X152005819Y-79823234D01*
X151870486Y-79796314D01*
X151870484Y-79796314D01*
X151732498Y-79796314D01*
X151732495Y-79796314D01*
X151597162Y-79823234D01*
X151597159Y-79823235D01*
X151469680Y-79876039D01*
X151354949Y-79952699D01*
X151354943Y-79952704D01*
X151257381Y-80050266D01*
X151257376Y-80050272D01*
X151180716Y-80165003D01*
X151127912Y-80292482D01*
X151127911Y-80292485D01*
X151100991Y-80427818D01*
X127386185Y-80427818D01*
X127390670Y-80407203D01*
X127405796Y-80386996D01*
X127407526Y-80383383D01*
X127412163Y-80378493D01*
X127504114Y-80286542D01*
X127580775Y-80171811D01*
X127633580Y-80044328D01*
X127660500Y-79908993D01*
X127660500Y-79771007D01*
X127633580Y-79635672D01*
X127580775Y-79508189D01*
X127504114Y-79393458D01*
X127504109Y-79393452D01*
X127406547Y-79295890D01*
X127406541Y-79295885D01*
X127306154Y-79228809D01*
X127291811Y-79219225D01*
X127211421Y-79185926D01*
X127164331Y-79166421D01*
X127164328Y-79166420D01*
X127028995Y-79139500D01*
X127028993Y-79139500D01*
X126891007Y-79139500D01*
X126891004Y-79139500D01*
X126755671Y-79166420D01*
X126755668Y-79166421D01*
X126628189Y-79219225D01*
X126513458Y-79295885D01*
X126513452Y-79295890D01*
X126415890Y-79393452D01*
X126415885Y-79393458D01*
X126339225Y-79508189D01*
X126286421Y-79635668D01*
X126286420Y-79635671D01*
X126259500Y-79771004D01*
X118716099Y-79771004D01*
X118811381Y-79675722D01*
X120694405Y-77792698D01*
X120756717Y-77758672D01*
X120827532Y-77763737D01*
X120884368Y-77806284D01*
X120909179Y-77872804D01*
X120909500Y-77881793D01*
X120909500Y-77888995D01*
X120923488Y-77959316D01*
X120936420Y-78024328D01*
X120989225Y-78151811D01*
X121040447Y-78228471D01*
X121065885Y-78266541D01*
X121065890Y-78266547D01*
X121163452Y-78364109D01*
X121163458Y-78364114D01*
X121278189Y-78440775D01*
X121405672Y-78493580D01*
X121541007Y-78520500D01*
X121541008Y-78520500D01*
X121678992Y-78520500D01*
X121678993Y-78520500D01*
X121814328Y-78493580D01*
X121941811Y-78440775D01*
X121941818Y-78440770D01*
X121947268Y-78437858D01*
X121948055Y-78439330D01*
X122008126Y-78420520D01*
X122010376Y-78420500D01*
X137983209Y-78420500D01*
X137983225Y-78420501D01*
X137990943Y-78420501D01*
X138149054Y-78420501D01*
X138149057Y-78420501D01*
X138301785Y-78379577D01*
X138357686Y-78347302D01*
X138438716Y-78300520D01*
X138550520Y-78188716D01*
X138560887Y-78178349D01*
X138560894Y-78178339D01*
X140558229Y-76181004D01*
X146139500Y-76181004D01*
X146139500Y-76318995D01*
X146166420Y-76454328D01*
X146166421Y-76454331D01*
X146178791Y-76484195D01*
X146219225Y-76581811D01*
X146269822Y-76657534D01*
X146295885Y-76696541D01*
X146295890Y-76696547D01*
X146393452Y-76794109D01*
X146393458Y-76794114D01*
X146508189Y-76870775D01*
X146635672Y-76923580D01*
X146771007Y-76950500D01*
X146771008Y-76950500D01*
X146908992Y-76950500D01*
X146908993Y-76950500D01*
X147044328Y-76923580D01*
X147171811Y-76870775D01*
X147286542Y-76794114D01*
X147384114Y-76696542D01*
X147460775Y-76581811D01*
X147513580Y-76454328D01*
X147540500Y-76318993D01*
X147540500Y-76181007D01*
X147513580Y-76045672D01*
X147460775Y-75918189D01*
X147384114Y-75803458D01*
X147384109Y-75803452D01*
X147286547Y-75705890D01*
X147286541Y-75705885D01*
X147218617Y-75660500D01*
X147171811Y-75629225D01*
X147054840Y-75580774D01*
X147044331Y-75576421D01*
X147044328Y-75576420D01*
X146908995Y-75549500D01*
X146908993Y-75549500D01*
X146771007Y-75549500D01*
X146771004Y-75549500D01*
X146635671Y-75576420D01*
X146635668Y-75576421D01*
X146508189Y-75629225D01*
X146393458Y-75705885D01*
X146393452Y-75705890D01*
X146295890Y-75803452D01*
X146295885Y-75803458D01*
X146219225Y-75918189D01*
X146166421Y-76045668D01*
X146166420Y-76045671D01*
X146139500Y-76181004D01*
X140558229Y-76181004D01*
X141848229Y-74891004D01*
X151129500Y-74891004D01*
X151129500Y-75028995D01*
X151156420Y-75164328D01*
X151209225Y-75291811D01*
X151232533Y-75326694D01*
X151285885Y-75406541D01*
X151285890Y-75406547D01*
X151383452Y-75504109D01*
X151383458Y-75504114D01*
X151498189Y-75580775D01*
X151625672Y-75633580D01*
X151761007Y-75660500D01*
X151761008Y-75660500D01*
X151898992Y-75660500D01*
X151898993Y-75660500D01*
X152034328Y-75633580D01*
X152161811Y-75580775D01*
X152276542Y-75504114D01*
X152374114Y-75406542D01*
X152450775Y-75291811D01*
X152503580Y-75164328D01*
X152530500Y-75028993D01*
X152530500Y-74891007D01*
X152503580Y-74755672D01*
X152450775Y-74628189D01*
X152374114Y-74513458D01*
X152374109Y-74513452D01*
X152276547Y-74415890D01*
X152276541Y-74415885D01*
X152238471Y-74390447D01*
X152161811Y-74339225D01*
X152081421Y-74305926D01*
X152034331Y-74286421D01*
X152034328Y-74286420D01*
X151898995Y-74259500D01*
X151898993Y-74259500D01*
X151761007Y-74259500D01*
X151761004Y-74259500D01*
X151625671Y-74286420D01*
X151625668Y-74286421D01*
X151498189Y-74339225D01*
X151383458Y-74415885D01*
X151383452Y-74415890D01*
X151285890Y-74513452D01*
X151285885Y-74513458D01*
X151209225Y-74628189D01*
X151156421Y-74755668D01*
X151156420Y-74755671D01*
X151129500Y-74891004D01*
X141848229Y-74891004D01*
X149061508Y-67677725D01*
X149118737Y-67646475D01*
X149118404Y-67645377D01*
X149123679Y-67643776D01*
X149123818Y-67643701D01*
X149124170Y-67643627D01*
X149124321Y-67643581D01*
X149124328Y-67643580D01*
X149251811Y-67590775D01*
X149366542Y-67514114D01*
X149464114Y-67416542D01*
X149540775Y-67301811D01*
X149593580Y-67174328D01*
X149620500Y-67038993D01*
X149620500Y-66901007D01*
X149593580Y-66765672D01*
X149540775Y-66638189D01*
X149464114Y-66523458D01*
X149464109Y-66523452D01*
X149366547Y-66425890D01*
X149366541Y-66425885D01*
X149328471Y-66400447D01*
X149251811Y-66349225D01*
X149171421Y-66315926D01*
X149124331Y-66296421D01*
X149124328Y-66296420D01*
X148988995Y-66269500D01*
X148988993Y-66269500D01*
X148851007Y-66269500D01*
X148851004Y-66269500D01*
X148715671Y-66296420D01*
X148715668Y-66296421D01*
X148588189Y-66349225D01*
X148473458Y-66425885D01*
X148473452Y-66425890D01*
X148375890Y-66523452D01*
X148375885Y-66523458D01*
X148299225Y-66638188D01*
X148246419Y-66765674D01*
X148244622Y-66771599D01*
X148243025Y-66771114D01*
X148213843Y-66826893D01*
X148212273Y-66828490D01*
X137858170Y-77182595D01*
X137830801Y-77197539D01*
X137804573Y-77214396D01*
X137798274Y-77215301D01*
X137795858Y-77216621D01*
X137769075Y-77219500D01*
X137661635Y-77219500D01*
X137593514Y-77199498D01*
X137547021Y-77145842D01*
X137536917Y-77075568D01*
X137538056Y-77068918D01*
X137539276Y-77062785D01*
X137563900Y-76938993D01*
X137563900Y-76801007D01*
X137536980Y-76665672D01*
X137484175Y-76538189D01*
X137407514Y-76423458D01*
X137407509Y-76423452D01*
X137309947Y-76325890D01*
X137309941Y-76325885D01*
X137271871Y-76300447D01*
X137195211Y-76249225D01*
X137114821Y-76215926D01*
X137067731Y-76196421D01*
X137067728Y-76196420D01*
X136932395Y-76169500D01*
X136932393Y-76169500D01*
X136794407Y-76169500D01*
X136794404Y-76169500D01*
X136659071Y-76196420D01*
X136659068Y-76196421D01*
X136531589Y-76249225D01*
X136416858Y-76325885D01*
X136416852Y-76325890D01*
X136319290Y-76423452D01*
X136319285Y-76423458D01*
X136242625Y-76538189D01*
X136189821Y-76665668D01*
X136189820Y-76665671D01*
X136162900Y-76801004D01*
X136162900Y-76938995D01*
X136174292Y-76996265D01*
X136187069Y-77060500D01*
X136188744Y-77068918D01*
X136182416Y-77139632D01*
X136138862Y-77195700D01*
X136071910Y-77219319D01*
X136065165Y-77219500D01*
X132661635Y-77219500D01*
X132593514Y-77199498D01*
X132547021Y-77145842D01*
X132536917Y-77075568D01*
X132538056Y-77068918D01*
X132539276Y-77062785D01*
X132563900Y-76938993D01*
X132563900Y-76801007D01*
X132536980Y-76665672D01*
X132484175Y-76538189D01*
X132407514Y-76423458D01*
X132407509Y-76423452D01*
X132309947Y-76325890D01*
X132309941Y-76325885D01*
X132271871Y-76300447D01*
X132195211Y-76249225D01*
X132114821Y-76215926D01*
X132067731Y-76196421D01*
X132067728Y-76196420D01*
X131932395Y-76169500D01*
X131932393Y-76169500D01*
X131794407Y-76169500D01*
X131794404Y-76169500D01*
X131659071Y-76196420D01*
X131659068Y-76196421D01*
X131531589Y-76249225D01*
X131416858Y-76325885D01*
X131416852Y-76325890D01*
X131319290Y-76423452D01*
X131319285Y-76423458D01*
X131242625Y-76538189D01*
X131189821Y-76665668D01*
X131189820Y-76665671D01*
X131162900Y-76801004D01*
X131162900Y-76938995D01*
X131174292Y-76996265D01*
X131187069Y-77060500D01*
X131188744Y-77068918D01*
X131182416Y-77139632D01*
X131138862Y-77195700D01*
X131071910Y-77219319D01*
X131065165Y-77219500D01*
X130278208Y-77219500D01*
X130210087Y-77199498D01*
X130163594Y-77145842D01*
X130153490Y-77075568D01*
X130182984Y-77010988D01*
X130218811Y-76982378D01*
X130221799Y-76980779D01*
X130221811Y-76980775D01*
X130336542Y-76904114D01*
X130434114Y-76806542D01*
X130510775Y-76691811D01*
X130563580Y-76564328D01*
X130590500Y-76428993D01*
X130590500Y-76291007D01*
X130563580Y-76155672D01*
X130510775Y-76028189D01*
X130502964Y-76016500D01*
X130481751Y-75948748D01*
X130500534Y-75880282D01*
X130553352Y-75832839D01*
X130607731Y-75820500D01*
X133459307Y-75820500D01*
X133459309Y-75820500D01*
X133550050Y-75796186D01*
X133573887Y-75789799D01*
X133676614Y-75730489D01*
X134490482Y-74916621D01*
X135216100Y-74191004D01*
X135862900Y-74191004D01*
X135862900Y-74191007D01*
X135862900Y-74328993D01*
X135889820Y-74464328D01*
X135942625Y-74591811D01*
X135966932Y-74628189D01*
X136019285Y-74706541D01*
X136019290Y-74706547D01*
X136116852Y-74804109D01*
X136116858Y-74804114D01*
X136231589Y-74880775D01*
X136359072Y-74933580D01*
X136494407Y-74960500D01*
X136494408Y-74960500D01*
X136632392Y-74960500D01*
X136632393Y-74960500D01*
X136767728Y-74933580D01*
X136895211Y-74880775D01*
X137009942Y-74804114D01*
X137107514Y-74706542D01*
X137184175Y-74591811D01*
X137236980Y-74464328D01*
X137263900Y-74328993D01*
X137263900Y-74191007D01*
X137236980Y-74055672D01*
X137184175Y-73928189D01*
X137107514Y-73813458D01*
X137107513Y-73813457D01*
X137107509Y-73813452D01*
X137009947Y-73715890D01*
X137009941Y-73715885D01*
X136971871Y-73690447D01*
X136895211Y-73639225D01*
X136814821Y-73605926D01*
X136767731Y-73586421D01*
X136767728Y-73586420D01*
X136632395Y-73559500D01*
X136632393Y-73559500D01*
X136494407Y-73559500D01*
X136494404Y-73559500D01*
X136359071Y-73586420D01*
X136359068Y-73586421D01*
X136231589Y-73639225D01*
X136116858Y-73715885D01*
X136116852Y-73715890D01*
X136019290Y-73813452D01*
X136019285Y-73813458D01*
X135942625Y-73928189D01*
X135889821Y-74055668D01*
X135889820Y-74055671D01*
X135862900Y-74191004D01*
X135216100Y-74191004D01*
X135311382Y-74095722D01*
X139920484Y-69486619D01*
X139920490Y-69486613D01*
X139979799Y-69383886D01*
X139984490Y-69366380D01*
X140010500Y-69269309D01*
X140010500Y-67822346D01*
X140030502Y-67754225D01*
X140047400Y-67733255D01*
X140104114Y-67676542D01*
X140180775Y-67561811D01*
X140233580Y-67434328D01*
X140260500Y-67298993D01*
X140260500Y-67161007D01*
X140233580Y-67025672D01*
X140180775Y-66898189D01*
X140104114Y-66783458D01*
X140104109Y-66783452D01*
X140006547Y-66685890D01*
X140006541Y-66685885D01*
X139948032Y-66646791D01*
X139891811Y-66609225D01*
X139806722Y-66573980D01*
X139764331Y-66556421D01*
X139764328Y-66556420D01*
X139628995Y-66529500D01*
X139628993Y-66529500D01*
X139491007Y-66529500D01*
X139491004Y-66529500D01*
X139355671Y-66556420D01*
X139355668Y-66556421D01*
X139228189Y-66609225D01*
X139113458Y-66685885D01*
X139113452Y-66685890D01*
X139015890Y-66783452D01*
X139015885Y-66783458D01*
X138939225Y-66898189D01*
X138886421Y-67025668D01*
X138886420Y-67025671D01*
X138859500Y-67161004D01*
X138859500Y-67298995D01*
X138886420Y-67434328D01*
X138886421Y-67434331D01*
X138893694Y-67451889D01*
X138939225Y-67561811D01*
X139015886Y-67676542D01*
X139072596Y-67733252D01*
X139106620Y-67795562D01*
X139109500Y-67822346D01*
X139109500Y-68971207D01*
X139089498Y-69039328D01*
X139072595Y-69060302D01*
X133250302Y-74882595D01*
X133187990Y-74916621D01*
X133161207Y-74919500D01*
X132898747Y-74919500D01*
X132830626Y-74899498D01*
X132784133Y-74845842D01*
X132774029Y-74775568D01*
X132803523Y-74710988D01*
X132806410Y-74707886D01*
X132807509Y-74706546D01*
X132807514Y-74706542D01*
X132884175Y-74591811D01*
X132936980Y-74464328D01*
X132963900Y-74328993D01*
X132963900Y-74191007D01*
X132936980Y-74055672D01*
X132884175Y-73928189D01*
X132807514Y-73813458D01*
X132807513Y-73813457D01*
X132807509Y-73813452D01*
X132709947Y-73715890D01*
X132709941Y-73715885D01*
X132671871Y-73690447D01*
X132595211Y-73639225D01*
X132514821Y-73605926D01*
X132467731Y-73586421D01*
X132467728Y-73586420D01*
X132332395Y-73559500D01*
X132332393Y-73559500D01*
X132194407Y-73559500D01*
X132194404Y-73559500D01*
X132059071Y-73586420D01*
X132059068Y-73586421D01*
X131931589Y-73639225D01*
X131816858Y-73715885D01*
X131816852Y-73715890D01*
X131719290Y-73813452D01*
X131719285Y-73813458D01*
X131642625Y-73928189D01*
X131589821Y-74055668D01*
X131589820Y-74055671D01*
X131562900Y-74191004D01*
X131562900Y-74191007D01*
X131562900Y-74328993D01*
X131589820Y-74464328D01*
X131642625Y-74591811D01*
X131666932Y-74628189D01*
X131719285Y-74706541D01*
X131723213Y-74711327D01*
X131721634Y-74712622D01*
X131751174Y-74766717D01*
X131746109Y-74837532D01*
X131703562Y-74894368D01*
X131637042Y-74919179D01*
X131628053Y-74919500D01*
X129228793Y-74919500D01*
X129160672Y-74899498D01*
X129139698Y-74882595D01*
X128136620Y-73879516D01*
X128136610Y-73879508D01*
X128033891Y-73820203D01*
X128033889Y-73820202D01*
X128033887Y-73820201D01*
X128008721Y-73813458D01*
X127919309Y-73789500D01*
X123550691Y-73789500D01*
X123436114Y-73820201D01*
X123436113Y-73820201D01*
X123436111Y-73820202D01*
X123351307Y-73869163D01*
X123333386Y-73879510D01*
X123333384Y-73879511D01*
X123333378Y-73879516D01*
X120136524Y-77076371D01*
X120074212Y-77110397D01*
X120003397Y-77105332D01*
X119946561Y-77062785D01*
X119921750Y-76996265D01*
X119923849Y-76962699D01*
X119940500Y-76878993D01*
X119940500Y-76741007D01*
X119913580Y-76605672D01*
X119860775Y-76478189D01*
X119784114Y-76363458D01*
X119784109Y-76363452D01*
X119686547Y-76265890D01*
X119686541Y-76265885D01*
X119648471Y-76240447D01*
X119571811Y-76189225D01*
X119490797Y-76155668D01*
X119444331Y-76136421D01*
X119444328Y-76136420D01*
X119308995Y-76109500D01*
X119308993Y-76109500D01*
X119171007Y-76109500D01*
X119171004Y-76109500D01*
X119035671Y-76136420D01*
X119035668Y-76136421D01*
X118908189Y-76189225D01*
X118793458Y-76265885D01*
X118793452Y-76265890D01*
X118695890Y-76363452D01*
X118695885Y-76363458D01*
X118619225Y-76478189D01*
X118566421Y-76605668D01*
X118566420Y-76605671D01*
X118539500Y-76741004D01*
X118539500Y-76878995D01*
X118562827Y-76996265D01*
X118566420Y-77014328D01*
X118619225Y-77141811D01*
X118659316Y-77201811D01*
X118695885Y-77256541D01*
X118695890Y-77256547D01*
X118793452Y-77354109D01*
X118793458Y-77354114D01*
X118908189Y-77430775D01*
X119035672Y-77483580D01*
X119171007Y-77510500D01*
X119171008Y-77510500D01*
X119308992Y-77510500D01*
X119308993Y-77510500D01*
X119392696Y-77493850D01*
X119463407Y-77500178D01*
X119519475Y-77543731D01*
X119543095Y-77610684D01*
X119526769Y-77679777D01*
X119506371Y-77706524D01*
X113980302Y-83232595D01*
X113917990Y-83266621D01*
X113891207Y-83269500D01*
X111972188Y-83269500D01*
X111904067Y-83249498D01*
X111857574Y-83195842D01*
X111846188Y-83143739D01*
X111846154Y-83125581D01*
X111822585Y-70721004D01*
X114719500Y-70721004D01*
X114719500Y-70858995D01*
X114741941Y-70971810D01*
X114746420Y-70994328D01*
X114799225Y-71121811D01*
X114829039Y-71166430D01*
X114875885Y-71236541D01*
X114875890Y-71236547D01*
X114973452Y-71334109D01*
X114973458Y-71334114D01*
X115088189Y-71410775D01*
X115215672Y-71463580D01*
X115351007Y-71490500D01*
X115351008Y-71490500D01*
X115488992Y-71490500D01*
X115488993Y-71490500D01*
X115624328Y-71463580D01*
X115751811Y-71410775D01*
X115866542Y-71334114D01*
X115964114Y-71236542D01*
X116040775Y-71121811D01*
X116093580Y-70994328D01*
X116120500Y-70858993D01*
X116120500Y-70721007D01*
X116111248Y-70674496D01*
X128566008Y-70674496D01*
X128566008Y-70812487D01*
X128592928Y-70947820D01*
X128592929Y-70947823D01*
X128611309Y-70992197D01*
X128645733Y-71075303D01*
X128676808Y-71121810D01*
X128722393Y-71190033D01*
X128722398Y-71190039D01*
X128819960Y-71287601D01*
X128819966Y-71287606D01*
X128934697Y-71364267D01*
X129062180Y-71417072D01*
X129197515Y-71443992D01*
X129197516Y-71443992D01*
X129335500Y-71443992D01*
X129335501Y-71443992D01*
X129470836Y-71417072D01*
X129598319Y-71364267D01*
X129713050Y-71287606D01*
X129810622Y-71190034D01*
X129887283Y-71075303D01*
X129940088Y-70947820D01*
X129967008Y-70812485D01*
X129967008Y-70674499D01*
X129946421Y-70571004D01*
X130309500Y-70571004D01*
X130309500Y-70708995D01*
X130336420Y-70844328D01*
X130336421Y-70844331D01*
X130342494Y-70858993D01*
X130389225Y-70971811D01*
X130440447Y-71048471D01*
X130465885Y-71086541D01*
X130465890Y-71086547D01*
X130563452Y-71184109D01*
X130563458Y-71184114D01*
X130678189Y-71260775D01*
X130805672Y-71313580D01*
X130941007Y-71340500D01*
X130941008Y-71340500D01*
X131078992Y-71340500D01*
X131078993Y-71340500D01*
X131214328Y-71313580D01*
X131341811Y-71260775D01*
X131456542Y-71184114D01*
X131554114Y-71086542D01*
X131630775Y-70971811D01*
X131683580Y-70844328D01*
X131710500Y-70708993D01*
X131710500Y-70571007D01*
X131683580Y-70435672D01*
X131630775Y-70308189D01*
X131554114Y-70193458D01*
X131554109Y-70193452D01*
X131456547Y-70095890D01*
X131456541Y-70095885D01*
X131386498Y-70049084D01*
X131341811Y-70019225D01*
X131253487Y-69982640D01*
X131214331Y-69966421D01*
X131214328Y-69966420D01*
X131078995Y-69939500D01*
X131078993Y-69939500D01*
X130941007Y-69939500D01*
X130941004Y-69939500D01*
X130805671Y-69966420D01*
X130805668Y-69966421D01*
X130678189Y-70019225D01*
X130563458Y-70095885D01*
X130563452Y-70095890D01*
X130465890Y-70193452D01*
X130465885Y-70193458D01*
X130389225Y-70308189D01*
X130336421Y-70435668D01*
X130336420Y-70435671D01*
X130309500Y-70571004D01*
X129946421Y-70571004D01*
X129940088Y-70539164D01*
X129887283Y-70411681D01*
X129810622Y-70296950D01*
X129810617Y-70296944D01*
X129713055Y-70199382D01*
X129713049Y-70199377D01*
X129667923Y-70169225D01*
X129598319Y-70122717D01*
X129499457Y-70081767D01*
X129470839Y-70069913D01*
X129470836Y-70069912D01*
X129335503Y-70042992D01*
X129335501Y-70042992D01*
X129197515Y-70042992D01*
X129197512Y-70042992D01*
X129062179Y-70069912D01*
X129062176Y-70069913D01*
X128934697Y-70122717D01*
X128819966Y-70199377D01*
X128819960Y-70199382D01*
X128722398Y-70296944D01*
X128722393Y-70296950D01*
X128645733Y-70411681D01*
X128592929Y-70539160D01*
X128592928Y-70539163D01*
X128566008Y-70674496D01*
X116111248Y-70674496D01*
X116093580Y-70585672D01*
X116040775Y-70458189D01*
X115964114Y-70343458D01*
X115964109Y-70343452D01*
X115866547Y-70245890D01*
X115866541Y-70245885D01*
X115796938Y-70199378D01*
X115751811Y-70169225D01*
X115654238Y-70128809D01*
X115624331Y-70116421D01*
X115624328Y-70116420D01*
X115488995Y-70089500D01*
X115488993Y-70089500D01*
X115351007Y-70089500D01*
X115351004Y-70089500D01*
X115215671Y-70116420D01*
X115215668Y-70116421D01*
X115088189Y-70169225D01*
X114973458Y-70245885D01*
X114973452Y-70245890D01*
X114875890Y-70343452D01*
X114875885Y-70343458D01*
X114799225Y-70458189D01*
X114746421Y-70585668D01*
X114746420Y-70585671D01*
X114719500Y-70721004D01*
X111822585Y-70721004D01*
X111822365Y-70605046D01*
X111842238Y-70536890D01*
X111895805Y-70490295D01*
X111948365Y-70478809D01*
X112083992Y-70478809D01*
X112083993Y-70478809D01*
X112219328Y-70451889D01*
X112346811Y-70399084D01*
X112461542Y-70322423D01*
X112559114Y-70224851D01*
X112635775Y-70110120D01*
X112688580Y-69982637D01*
X112715500Y-69847302D01*
X112715500Y-69709316D01*
X112688580Y-69573981D01*
X112635775Y-69446498D01*
X112559114Y-69331767D01*
X112559109Y-69331761D01*
X112461547Y-69234199D01*
X112461541Y-69234194D01*
X112413193Y-69201889D01*
X112346811Y-69157534D01*
X112232343Y-69110120D01*
X112219331Y-69104730D01*
X112219328Y-69104729D01*
X112083995Y-69077809D01*
X112083993Y-69077809D01*
X111946007Y-69077809D01*
X111945224Y-69077809D01*
X111877103Y-69057807D01*
X111830610Y-69004151D01*
X111819224Y-68952052D01*
X111813063Y-65709313D01*
X114814500Y-65709313D01*
X114814500Y-65847304D01*
X114818185Y-65865827D01*
X114841420Y-65982637D01*
X114894225Y-66110120D01*
X114970886Y-66224851D01*
X114970891Y-66224856D01*
X114973028Y-66227460D01*
X114973723Y-66229098D01*
X114974325Y-66229998D01*
X114974154Y-66230111D01*
X115000783Y-66292807D01*
X114988802Y-66362786D01*
X114980396Y-66377397D01*
X114934224Y-66446498D01*
X114881421Y-66573977D01*
X114881420Y-66573980D01*
X114854500Y-66709313D01*
X114854500Y-66847304D01*
X114881420Y-66982637D01*
X114881421Y-66982640D01*
X114899244Y-67025668D01*
X114934225Y-67110120D01*
X114977128Y-67174328D01*
X115010885Y-67224850D01*
X115010890Y-67224856D01*
X115108452Y-67322418D01*
X115108458Y-67322423D01*
X115223189Y-67399084D01*
X115350672Y-67451889D01*
X115486007Y-67478809D01*
X115486008Y-67478809D01*
X115623992Y-67478809D01*
X115623993Y-67478809D01*
X115759328Y-67451889D01*
X115886811Y-67399084D01*
X116001542Y-67322423D01*
X116099114Y-67224851D01*
X116175775Y-67110120D01*
X116228580Y-66982637D01*
X116255500Y-66847302D01*
X116255500Y-66709316D01*
X116228580Y-66573981D01*
X116175775Y-66446498D01*
X116109494Y-66347302D01*
X116099113Y-66331765D01*
X116096973Y-66329158D01*
X116096278Y-66327523D01*
X116095675Y-66326620D01*
X116095846Y-66326505D01*
X116069217Y-66263812D01*
X116081196Y-66193833D01*
X116089604Y-66179219D01*
X116135775Y-66110120D01*
X116188580Y-65982637D01*
X116215500Y-65847302D01*
X116215500Y-65709316D01*
X116188580Y-65573981D01*
X116135775Y-65446498D01*
X116059114Y-65331767D01*
X116059109Y-65331761D01*
X115961547Y-65234199D01*
X115961541Y-65234194D01*
X115923471Y-65208756D01*
X115846811Y-65157534D01*
X115766421Y-65124235D01*
X115719331Y-65104730D01*
X115719328Y-65104729D01*
X115583995Y-65077809D01*
X115583993Y-65077809D01*
X115446007Y-65077809D01*
X115446004Y-65077809D01*
X115310671Y-65104729D01*
X115310668Y-65104730D01*
X115183189Y-65157534D01*
X115068458Y-65234194D01*
X115068452Y-65234199D01*
X114970890Y-65331761D01*
X114970885Y-65331767D01*
X114894225Y-65446498D01*
X114841421Y-65573977D01*
X114841420Y-65573980D01*
X114814500Y-65709313D01*
X111813063Y-65709313D01*
X111808754Y-63441004D01*
X147329500Y-63441004D01*
X147329500Y-63578995D01*
X147345123Y-63657534D01*
X147356420Y-63714328D01*
X147409225Y-63841811D01*
X147438882Y-63886195D01*
X147485885Y-63956541D01*
X147485890Y-63956547D01*
X147583452Y-64054109D01*
X147583458Y-64054114D01*
X147698189Y-64130775D01*
X147825672Y-64183580D01*
X147961007Y-64210500D01*
X147961008Y-64210500D01*
X148098992Y-64210500D01*
X148098993Y-64210500D01*
X148234328Y-64183580D01*
X148361811Y-64130775D01*
X148476542Y-64054114D01*
X148574114Y-63956542D01*
X148650775Y-63841811D01*
X148703580Y-63714328D01*
X148730500Y-63578993D01*
X148730500Y-63441007D01*
X148703580Y-63305672D01*
X148650775Y-63178189D01*
X148574114Y-63063458D01*
X148574109Y-63063452D01*
X148476547Y-62965890D01*
X148476541Y-62965885D01*
X148438471Y-62940447D01*
X148361811Y-62889225D01*
X148281421Y-62855926D01*
X148234331Y-62836421D01*
X148234328Y-62836420D01*
X148098995Y-62809500D01*
X148098993Y-62809500D01*
X147961007Y-62809500D01*
X147961004Y-62809500D01*
X147825671Y-62836420D01*
X147825668Y-62836421D01*
X147698189Y-62889225D01*
X147583458Y-62965885D01*
X147583452Y-62965890D01*
X147485890Y-63063452D01*
X147485885Y-63063458D01*
X147409225Y-63178189D01*
X147356421Y-63305668D01*
X147356420Y-63305671D01*
X147329500Y-63441004D01*
X111808754Y-63441004D01*
X111802329Y-60059313D01*
X115114500Y-60059313D01*
X115114500Y-60197304D01*
X115132660Y-60288598D01*
X115141420Y-60332637D01*
X115194225Y-60460120D01*
X115233481Y-60518870D01*
X115270885Y-60574850D01*
X115270890Y-60574856D01*
X115368452Y-60672418D01*
X115368458Y-60672423D01*
X115483189Y-60749084D01*
X115530986Y-60768882D01*
X115531710Y-60769182D01*
X115586991Y-60813730D01*
X115609412Y-60881094D01*
X115591854Y-60949885D01*
X115542892Y-60996711D01*
X115538189Y-60999224D01*
X115423458Y-61075885D01*
X115423452Y-61075890D01*
X115325890Y-61173452D01*
X115325885Y-61173458D01*
X115249225Y-61288189D01*
X115196421Y-61415668D01*
X115196420Y-61415671D01*
X115169500Y-61551004D01*
X115169500Y-61688995D01*
X115196351Y-61823981D01*
X115196420Y-61824328D01*
X115249225Y-61951811D01*
X115254240Y-61959316D01*
X115325885Y-62066541D01*
X115325890Y-62066547D01*
X115423452Y-62164109D01*
X115423458Y-62164114D01*
X115538189Y-62240775D01*
X115665672Y-62293580D01*
X115801007Y-62320500D01*
X115801008Y-62320500D01*
X115938992Y-62320500D01*
X115938993Y-62320500D01*
X116074328Y-62293580D01*
X116201811Y-62240775D01*
X116316542Y-62164114D01*
X116414114Y-62066542D01*
X116490775Y-61951811D01*
X116543580Y-61824328D01*
X116570500Y-61688993D01*
X116570500Y-61551007D01*
X116543580Y-61415672D01*
X116490775Y-61288189D01*
X116414114Y-61173458D01*
X116414109Y-61173452D01*
X116316547Y-61075890D01*
X116316541Y-61075885D01*
X116201810Y-60999224D01*
X116201805Y-60999222D01*
X116153288Y-60979125D01*
X116098007Y-60934577D01*
X116075587Y-60867213D01*
X116093146Y-60798422D01*
X116142120Y-60751590D01*
X116146799Y-60749088D01*
X116146811Y-60749084D01*
X116261542Y-60672423D01*
X116359114Y-60574851D01*
X116435775Y-60460120D01*
X116488580Y-60332637D01*
X116515500Y-60197302D01*
X116515500Y-60059316D01*
X116488580Y-59923981D01*
X116435775Y-59796498D01*
X116359114Y-59681767D01*
X116359109Y-59681761D01*
X116261547Y-59584199D01*
X116261541Y-59584194D01*
X116202601Y-59544812D01*
X116146811Y-59507534D01*
X116066421Y-59474235D01*
X116019331Y-59454730D01*
X116019328Y-59454729D01*
X115883995Y-59427809D01*
X115883993Y-59427809D01*
X115746007Y-59427809D01*
X115746004Y-59427809D01*
X115610671Y-59454729D01*
X115610668Y-59454730D01*
X115483189Y-59507534D01*
X115368458Y-59584194D01*
X115368452Y-59584199D01*
X115270890Y-59681761D01*
X115270885Y-59681767D01*
X115194225Y-59796498D01*
X115141421Y-59923977D01*
X115141420Y-59923980D01*
X115114500Y-60059313D01*
X111802329Y-60059313D01*
X111800148Y-58911004D01*
X149959500Y-58911004D01*
X149959500Y-59048995D01*
X149970814Y-59105874D01*
X149986420Y-59184328D01*
X150039225Y-59311811D01*
X150063465Y-59348088D01*
X150115885Y-59426541D01*
X150115890Y-59426547D01*
X150213452Y-59524109D01*
X150213458Y-59524114D01*
X150328189Y-59600775D01*
X150455672Y-59653580D01*
X150591007Y-59680500D01*
X150591008Y-59680500D01*
X150728992Y-59680500D01*
X150728993Y-59680500D01*
X150864328Y-59653580D01*
X150991811Y-59600775D01*
X151106542Y-59524114D01*
X151204114Y-59426542D01*
X151280775Y-59311811D01*
X151333580Y-59184328D01*
X151360500Y-59048993D01*
X151360500Y-58911007D01*
X151333580Y-58775672D01*
X151280775Y-58648189D01*
X151204114Y-58533458D01*
X151204109Y-58533452D01*
X151106547Y-58435890D01*
X151106541Y-58435885D01*
X151051464Y-58399084D01*
X150991811Y-58359225D01*
X150894494Y-58318915D01*
X150864331Y-58306421D01*
X150864328Y-58306420D01*
X150728995Y-58279500D01*
X150728993Y-58279500D01*
X150591007Y-58279500D01*
X150591004Y-58279500D01*
X150455671Y-58306420D01*
X150455668Y-58306421D01*
X150328189Y-58359225D01*
X150213458Y-58435885D01*
X150213452Y-58435890D01*
X150115890Y-58533452D01*
X150115885Y-58533458D01*
X150039225Y-58648189D01*
X149986421Y-58775668D01*
X149986420Y-58775671D01*
X149959500Y-58911004D01*
X111800148Y-58911004D01*
X111796671Y-57081004D01*
X115519500Y-57081004D01*
X115519500Y-57218995D01*
X115541781Y-57331007D01*
X115546420Y-57354328D01*
X115599225Y-57481811D01*
X115607599Y-57494343D01*
X115675885Y-57596541D01*
X115675890Y-57596547D01*
X115773452Y-57694109D01*
X115773458Y-57694114D01*
X115888189Y-57770775D01*
X116015672Y-57823580D01*
X116151007Y-57850500D01*
X116151008Y-57850500D01*
X116288992Y-57850500D01*
X116288993Y-57850500D01*
X116424328Y-57823580D01*
X116551811Y-57770775D01*
X116666542Y-57694114D01*
X116764114Y-57596542D01*
X116840775Y-57481811D01*
X116893580Y-57354328D01*
X116920500Y-57218993D01*
X116920500Y-57081007D01*
X116893580Y-56945672D01*
X116840775Y-56818189D01*
X116764114Y-56703458D01*
X116764109Y-56703452D01*
X116666547Y-56605890D01*
X116666541Y-56605885D01*
X116616461Y-56572423D01*
X116551811Y-56529225D01*
X116471421Y-56495926D01*
X116424331Y-56476421D01*
X116424328Y-56476420D01*
X116288995Y-56449500D01*
X116288993Y-56449500D01*
X116151007Y-56449500D01*
X116151004Y-56449500D01*
X116015671Y-56476420D01*
X116015668Y-56476421D01*
X115888189Y-56529225D01*
X115773458Y-56605885D01*
X115773452Y-56605890D01*
X115675890Y-56703452D01*
X115675885Y-56703458D01*
X115599225Y-56818189D01*
X115546421Y-56945668D01*
X115546420Y-56945671D01*
X115519500Y-57081004D01*
X111796671Y-57081004D01*
X111785950Y-51438308D01*
X111785949Y-51438307D01*
X111785000Y-50938309D01*
X111394057Y-50938309D01*
X111325936Y-50918307D01*
X111279443Y-50864651D01*
X111268057Y-50812309D01*
X111268057Y-50740389D01*
X111268056Y-50740385D01*
X111241137Y-50605053D01*
X111188332Y-50477570D01*
X111111671Y-50362839D01*
X111111666Y-50362833D01*
X111014104Y-50265271D01*
X111014098Y-50265266D01*
X110976028Y-50239828D01*
X110899368Y-50188606D01*
X110786636Y-50141911D01*
X110771888Y-50135802D01*
X110771885Y-50135801D01*
X110636552Y-50108881D01*
X110636550Y-50108881D01*
X110498564Y-50108881D01*
X110498561Y-50108881D01*
X110363228Y-50135801D01*
X110363225Y-50135802D01*
X110235746Y-50188606D01*
X110121015Y-50265266D01*
X110121009Y-50265271D01*
X110023447Y-50362833D01*
X110023442Y-50362839D01*
X109946782Y-50477570D01*
X109893978Y-50605049D01*
X109893977Y-50605052D01*
X109867057Y-50740385D01*
X109867057Y-50812309D01*
X109847055Y-50880430D01*
X109793399Y-50926923D01*
X109741057Y-50938309D01*
X105412697Y-50938309D01*
X105344576Y-50918307D01*
X105298083Y-50864651D01*
X105289118Y-50836892D01*
X105286886Y-50825671D01*
X105286885Y-50825670D01*
X105234082Y-50698191D01*
X105157421Y-50583460D01*
X105157416Y-50583454D01*
X105059854Y-50485892D01*
X105059848Y-50485887D01*
X105021778Y-50460449D01*
X104945118Y-50409227D01*
X104833113Y-50362833D01*
X104817638Y-50356423D01*
X104817635Y-50356422D01*
X104682302Y-50329502D01*
X104682300Y-50329502D01*
X104544314Y-50329502D01*
X104544311Y-50329502D01*
X104408978Y-50356422D01*
X104408975Y-50356423D01*
X104281496Y-50409227D01*
X104166765Y-50485887D01*
X104166759Y-50485892D01*
X104069197Y-50583454D01*
X104069192Y-50583460D01*
X103992532Y-50698191D01*
X103939728Y-50825670D01*
X103939727Y-50825671D01*
X103937496Y-50836892D01*
X103904588Y-50899801D01*
X103842892Y-50934932D01*
X103813917Y-50938309D01*
X102982882Y-50938309D01*
X102914761Y-50918307D01*
X102868268Y-50864651D01*
X102856882Y-50812309D01*
X102856882Y-50773419D01*
X102856881Y-50773415D01*
X102850312Y-50740389D01*
X102829962Y-50638083D01*
X102777157Y-50510600D01*
X102700496Y-50395869D01*
X102700491Y-50395863D01*
X102602929Y-50298301D01*
X102602923Y-50298296D01*
X102553490Y-50265266D01*
X102488193Y-50221636D01*
X102407803Y-50188337D01*
X102360713Y-50168832D01*
X102360710Y-50168831D01*
X102225377Y-50141911D01*
X102225375Y-50141911D01*
X102087389Y-50141911D01*
X102087386Y-50141911D01*
X101952053Y-50168831D01*
X101952050Y-50168832D01*
X101824571Y-50221636D01*
X101709840Y-50298296D01*
X101709834Y-50298301D01*
X101612272Y-50395863D01*
X101612267Y-50395869D01*
X101535607Y-50510600D01*
X101482803Y-50638079D01*
X101482802Y-50638082D01*
X101455882Y-50773415D01*
X101455882Y-50812309D01*
X101435880Y-50880430D01*
X101382224Y-50926923D01*
X101329882Y-50938309D01*
X100997578Y-50938309D01*
X100929457Y-50918307D01*
X100892813Y-50882310D01*
X100839047Y-50801842D01*
X100839038Y-50801832D01*
X100741476Y-50704270D01*
X100741470Y-50704265D01*
X100642421Y-50638083D01*
X100626740Y-50627605D01*
X100520150Y-50583454D01*
X100499260Y-50574801D01*
X100499257Y-50574800D01*
X100363924Y-50547880D01*
X100363922Y-50547880D01*
X100225936Y-50547880D01*
X100225933Y-50547880D01*
X100090600Y-50574800D01*
X100090597Y-50574801D01*
X99963118Y-50627605D01*
X99848387Y-50704265D01*
X99848381Y-50704270D01*
X99750819Y-50801832D01*
X99750810Y-50801842D01*
X99697045Y-50882310D01*
X99642569Y-50927838D01*
X99592280Y-50938309D01*
X98096892Y-50938309D01*
X98028771Y-50918307D01*
X98007797Y-50901404D01*
X96745919Y-49639525D01*
X96745909Y-49639517D01*
X96654592Y-49586795D01*
X96654590Y-49586794D01*
X96654588Y-49586793D01*
X96552727Y-49559500D01*
X91311000Y-49559500D01*
X91242879Y-49539498D01*
X91196386Y-49485842D01*
X91185000Y-49433500D01*
X91185000Y-47243813D01*
X97414500Y-47243813D01*
X97414500Y-47381804D01*
X97441420Y-47517137D01*
X97441421Y-47517140D01*
X97460926Y-47564230D01*
X97494225Y-47644620D01*
X97504582Y-47660120D01*
X97570885Y-47759350D01*
X97570890Y-47759356D01*
X97668452Y-47856918D01*
X97668458Y-47856923D01*
X97783189Y-47933584D01*
X97910672Y-47986389D01*
X98046007Y-48013309D01*
X98046008Y-48013309D01*
X98183992Y-48013309D01*
X98183993Y-48013309D01*
X98319328Y-47986389D01*
X98446811Y-47933584D01*
X98561542Y-47856923D01*
X98561547Y-47856918D01*
X98568155Y-47850311D01*
X98630467Y-47816285D01*
X98701282Y-47821350D01*
X98746345Y-47850311D01*
X98768452Y-47872418D01*
X98768458Y-47872423D01*
X98883189Y-47949084D01*
X99010672Y-48001889D01*
X99146007Y-48028809D01*
X99146008Y-48028809D01*
X99283992Y-48028809D01*
X99283993Y-48028809D01*
X99419328Y-48001889D01*
X99546811Y-47949084D01*
X99661542Y-47872423D01*
X99759114Y-47774851D01*
X99835775Y-47660120D01*
X99888580Y-47532637D01*
X99915500Y-47397302D01*
X99915500Y-47259316D01*
X99888580Y-47123981D01*
X99835775Y-46996498D01*
X99759114Y-46881767D01*
X99759109Y-46881761D01*
X99661547Y-46784199D01*
X99661541Y-46784194D01*
X99623471Y-46758756D01*
X99546811Y-46707534D01*
X99466421Y-46674235D01*
X99419331Y-46654730D01*
X99419328Y-46654729D01*
X99283995Y-46627809D01*
X99283993Y-46627809D01*
X99146007Y-46627809D01*
X99146004Y-46627809D01*
X99010671Y-46654729D01*
X99010668Y-46654730D01*
X98883189Y-46707534D01*
X98768458Y-46784194D01*
X98768452Y-46784199D01*
X98761845Y-46790807D01*
X98699533Y-46824833D01*
X98628718Y-46819768D01*
X98583655Y-46790807D01*
X98561547Y-46768699D01*
X98561541Y-46768694D01*
X98470008Y-46707534D01*
X98446811Y-46692034D01*
X98356751Y-46654730D01*
X98319331Y-46639230D01*
X98319328Y-46639229D01*
X98183995Y-46612309D01*
X98183993Y-46612309D01*
X98046007Y-46612309D01*
X98046004Y-46612309D01*
X97910671Y-46639229D01*
X97910668Y-46639230D01*
X97783189Y-46692034D01*
X97668458Y-46768694D01*
X97668452Y-46768699D01*
X97570890Y-46866261D01*
X97570885Y-46866267D01*
X97494225Y-46980998D01*
X97441421Y-47108477D01*
X97441420Y-47108480D01*
X97414500Y-47243813D01*
X91185000Y-47243813D01*
X91185000Y-44951004D01*
X108499500Y-44951004D01*
X108499500Y-45088995D01*
X108526025Y-45222340D01*
X108526420Y-45224328D01*
X108579225Y-45351811D01*
X108605691Y-45391420D01*
X108655885Y-45466541D01*
X108655890Y-45466547D01*
X108753452Y-45564109D01*
X108753458Y-45564114D01*
X108868189Y-45640775D01*
X108995672Y-45693580D01*
X109131007Y-45720500D01*
X109131008Y-45720500D01*
X109268992Y-45720500D01*
X109268993Y-45720500D01*
X109404328Y-45693580D01*
X109531811Y-45640775D01*
X109646542Y-45564114D01*
X109744114Y-45466542D01*
X109820775Y-45351811D01*
X109873580Y-45224328D01*
X109900500Y-45088993D01*
X109900500Y-44951007D01*
X109873580Y-44815672D01*
X109820775Y-44688189D01*
X109744114Y-44573458D01*
X109744109Y-44573452D01*
X109646547Y-44475890D01*
X109646541Y-44475885D01*
X109608471Y-44450447D01*
X109531811Y-44399225D01*
X109451421Y-44365926D01*
X109404331Y-44346421D01*
X109404328Y-44346420D01*
X109268995Y-44319500D01*
X109268993Y-44319500D01*
X109131007Y-44319500D01*
X109131004Y-44319500D01*
X108995671Y-44346420D01*
X108995668Y-44346421D01*
X108868189Y-44399225D01*
X108753458Y-44475885D01*
X108753452Y-44475890D01*
X108655890Y-44573452D01*
X108655885Y-44573458D01*
X108579225Y-44688189D01*
X108526421Y-44815668D01*
X108526420Y-44815671D01*
X108499500Y-44951004D01*
X91185000Y-44951004D01*
X91185000Y-43498004D01*
X123709500Y-43498004D01*
X123709500Y-43635995D01*
X123725586Y-43716863D01*
X123736420Y-43771328D01*
X123789225Y-43898811D01*
X123790495Y-43900711D01*
X123865885Y-44013541D01*
X123865890Y-44013547D01*
X123963452Y-44111109D01*
X123963458Y-44111114D01*
X124078189Y-44187775D01*
X124205672Y-44240580D01*
X124341007Y-44267500D01*
X124341008Y-44267500D01*
X124478992Y-44267500D01*
X124478993Y-44267500D01*
X124614328Y-44240580D01*
X124741811Y-44187775D01*
X124856542Y-44111114D01*
X124954114Y-44013542D01*
X125030775Y-43898811D01*
X125083580Y-43771328D01*
X125110500Y-43635993D01*
X125110500Y-43498007D01*
X125083580Y-43362672D01*
X125030775Y-43235189D01*
X124954114Y-43120458D01*
X124954109Y-43120452D01*
X124856547Y-43022890D01*
X124856541Y-43022885D01*
X124775025Y-42968418D01*
X124741811Y-42946225D01*
X124661421Y-42912926D01*
X124614331Y-42893421D01*
X124614328Y-42893420D01*
X124478995Y-42866500D01*
X124478993Y-42866500D01*
X124341007Y-42866500D01*
X124341004Y-42866500D01*
X124205671Y-42893420D01*
X124205668Y-42893421D01*
X124078189Y-42946225D01*
X123963458Y-43022885D01*
X123963452Y-43022890D01*
X123865890Y-43120452D01*
X123865885Y-43120458D01*
X123789225Y-43235189D01*
X123736421Y-43362668D01*
X123736420Y-43362671D01*
X123709500Y-43498004D01*
X91185000Y-43498004D01*
X91185000Y-42259313D01*
X92914500Y-42259313D01*
X92914500Y-42397304D01*
X92938106Y-42515978D01*
X92941420Y-42532637D01*
X92994225Y-42660120D01*
X93044808Y-42735822D01*
X93070885Y-42774850D01*
X93070890Y-42774856D01*
X93168452Y-42872418D01*
X93168458Y-42872423D01*
X93283189Y-42949084D01*
X93410672Y-43001889D01*
X93546007Y-43028809D01*
X93546008Y-43028809D01*
X93683992Y-43028809D01*
X93683993Y-43028809D01*
X93819328Y-43001889D01*
X93946811Y-42949084D01*
X94061542Y-42872423D01*
X94159114Y-42774851D01*
X94235775Y-42660120D01*
X94288580Y-42532637D01*
X94315500Y-42397302D01*
X94315500Y-42259316D01*
X94288580Y-42123981D01*
X94235775Y-41996498D01*
X94159114Y-41881767D01*
X94159109Y-41881761D01*
X94061547Y-41784199D01*
X94061541Y-41784194D01*
X94023471Y-41758756D01*
X93946811Y-41707534D01*
X93866421Y-41674235D01*
X93819331Y-41654730D01*
X93819328Y-41654729D01*
X93683995Y-41627809D01*
X93683993Y-41627809D01*
X93546007Y-41627809D01*
X93546004Y-41627809D01*
X93410671Y-41654729D01*
X93410668Y-41654730D01*
X93283189Y-41707534D01*
X93168458Y-41784194D01*
X93168452Y-41784199D01*
X93070890Y-41881761D01*
X93070885Y-41881767D01*
X92994225Y-41996498D01*
X92941421Y-42123977D01*
X92941420Y-42123980D01*
X92914500Y-42259313D01*
X91185000Y-42259313D01*
X91185000Y-41559313D01*
X97114500Y-41559313D01*
X97114500Y-41559316D01*
X97114500Y-41697302D01*
X97141420Y-41832637D01*
X97194225Y-41960120D01*
X97196949Y-41964196D01*
X97270885Y-42074850D01*
X97270890Y-42074856D01*
X97368452Y-42172418D01*
X97368458Y-42172423D01*
X97483189Y-42249084D01*
X97610672Y-42301889D01*
X97746007Y-42328809D01*
X97746008Y-42328809D01*
X97883992Y-42328809D01*
X97883993Y-42328809D01*
X98019328Y-42301889D01*
X98146811Y-42249084D01*
X98261542Y-42172423D01*
X98359114Y-42074851D01*
X98435775Y-41960120D01*
X98488580Y-41832637D01*
X98515500Y-41697302D01*
X98515500Y-41559316D01*
X98488580Y-41423981D01*
X98435775Y-41296498D01*
X98359114Y-41181767D01*
X98359109Y-41181761D01*
X98261547Y-41084199D01*
X98261541Y-41084194D01*
X98201877Y-41044328D01*
X98146811Y-41007534D01*
X98066421Y-40974235D01*
X98019331Y-40954730D01*
X98019328Y-40954729D01*
X97883995Y-40927809D01*
X97883993Y-40927809D01*
X97746007Y-40927809D01*
X97746004Y-40927809D01*
X97610671Y-40954729D01*
X97610668Y-40954730D01*
X97483189Y-41007534D01*
X97368458Y-41084194D01*
X97368452Y-41084199D01*
X97270890Y-41181761D01*
X97270885Y-41181767D01*
X97194225Y-41296498D01*
X97141421Y-41423977D01*
X97141420Y-41423980D01*
X97114500Y-41559313D01*
X91185000Y-41559313D01*
X91185000Y-40771004D01*
X93859500Y-40771004D01*
X93859500Y-40908995D01*
X93886420Y-41044328D01*
X93886421Y-41044331D01*
X93902933Y-41084194D01*
X93939225Y-41171811D01*
X93966225Y-41212219D01*
X94015885Y-41286541D01*
X94015890Y-41286547D01*
X94113452Y-41384109D01*
X94113458Y-41384114D01*
X94228189Y-41460775D01*
X94355672Y-41513580D01*
X94491007Y-41540500D01*
X94491008Y-41540500D01*
X94628992Y-41540500D01*
X94628993Y-41540500D01*
X94764328Y-41513580D01*
X94891811Y-41460775D01*
X95006542Y-41384114D01*
X95104114Y-41286542D01*
X95180775Y-41171811D01*
X95233580Y-41044328D01*
X95260500Y-40908993D01*
X95260500Y-40771007D01*
X95233580Y-40635672D01*
X95180775Y-40508189D01*
X95135883Y-40441004D01*
X102579500Y-40441004D01*
X102579500Y-40441007D01*
X102579500Y-40578993D01*
X102606420Y-40714328D01*
X102659225Y-40841811D01*
X102704113Y-40908991D01*
X102735885Y-40956541D01*
X102735890Y-40956547D01*
X102833452Y-41054109D01*
X102833458Y-41054114D01*
X102948189Y-41130775D01*
X103075672Y-41183580D01*
X103211007Y-41210500D01*
X103213271Y-41210723D01*
X103214382Y-41211171D01*
X103217079Y-41211708D01*
X103216977Y-41212219D01*
X103279105Y-41237299D01*
X103320120Y-41295250D01*
X103323294Y-41366176D01*
X103317342Y-41384333D01*
X103300921Y-41423978D01*
X103300920Y-41423980D01*
X103274000Y-41559313D01*
X103274000Y-41559316D01*
X103274000Y-41697302D01*
X103300920Y-41832637D01*
X103353725Y-41960120D01*
X103356449Y-41964196D01*
X103430385Y-42074850D01*
X103430390Y-42074856D01*
X103527952Y-42172418D01*
X103527958Y-42172423D01*
X103642689Y-42249084D01*
X103770172Y-42301889D01*
X103905507Y-42328809D01*
X103905508Y-42328809D01*
X104043492Y-42328809D01*
X104043493Y-42328809D01*
X104178828Y-42301889D01*
X104306311Y-42249084D01*
X104363487Y-42210879D01*
X104431240Y-42189665D01*
X104499707Y-42208448D01*
X104522584Y-42226550D01*
X104568452Y-42272418D01*
X104568458Y-42272423D01*
X104683189Y-42349084D01*
X104810672Y-42401889D01*
X104946007Y-42428809D01*
X104946008Y-42428809D01*
X105083992Y-42428809D01*
X105083993Y-42428809D01*
X105219328Y-42401889D01*
X105346811Y-42349084D01*
X105461542Y-42272423D01*
X105559114Y-42174851D01*
X105635775Y-42060120D01*
X105688580Y-41932637D01*
X105715500Y-41797302D01*
X105715500Y-41659316D01*
X105688580Y-41523981D01*
X105635775Y-41396498D01*
X105559114Y-41281767D01*
X105559109Y-41281761D01*
X105461547Y-41184199D01*
X105461541Y-41184194D01*
X105403987Y-41145738D01*
X105346811Y-41107534D01*
X105266421Y-41074235D01*
X105219331Y-41054730D01*
X105219328Y-41054729D01*
X105083995Y-41027809D01*
X105083993Y-41027809D01*
X104946007Y-41027809D01*
X104946004Y-41027809D01*
X104810671Y-41054729D01*
X104810668Y-41054730D01*
X104683189Y-41107534D01*
X104648407Y-41130775D01*
X104626013Y-41145738D01*
X104558260Y-41166953D01*
X104489793Y-41148170D01*
X104466916Y-41130068D01*
X104421047Y-41084199D01*
X104421041Y-41084194D01*
X104361377Y-41044328D01*
X104306311Y-41007534D01*
X104225921Y-40974235D01*
X104178831Y-40954730D01*
X104178828Y-40954729D01*
X104043488Y-40927807D01*
X104041215Y-40927584D01*
X104040100Y-40927134D01*
X104037421Y-40926601D01*
X104037522Y-40926092D01*
X104015817Y-40917328D01*
X103989273Y-40910553D01*
X103983388Y-40904232D01*
X103975383Y-40901000D01*
X103959560Y-40878639D01*
X103940894Y-40858590D01*
X103939360Y-40850092D01*
X103934374Y-40843045D01*
X103933152Y-40815679D01*
X103928289Y-40788722D01*
X103931404Y-40776515D01*
X103931208Y-40772119D01*
X103931574Y-40771004D01*
X120549500Y-40771004D01*
X120549500Y-40908995D01*
X120576420Y-41044328D01*
X120576421Y-41044331D01*
X120592933Y-41084194D01*
X120629225Y-41171811D01*
X120656225Y-41212219D01*
X120705885Y-41286541D01*
X120705890Y-41286547D01*
X120803452Y-41384109D01*
X120803458Y-41384114D01*
X120918189Y-41460775D01*
X121045672Y-41513580D01*
X121181007Y-41540500D01*
X121181008Y-41540500D01*
X121318992Y-41540500D01*
X121318993Y-41540500D01*
X121454328Y-41513580D01*
X121581811Y-41460775D01*
X121696542Y-41384114D01*
X121794114Y-41286542D01*
X121870775Y-41171811D01*
X121923580Y-41044328D01*
X121950500Y-40908993D01*
X121950500Y-40771007D01*
X121923580Y-40635672D01*
X121870775Y-40508189D01*
X121794114Y-40393458D01*
X121794109Y-40393452D01*
X121696547Y-40295890D01*
X121696541Y-40295885D01*
X121658471Y-40270447D01*
X121581811Y-40219225D01*
X121482741Y-40178189D01*
X121454331Y-40166421D01*
X121454328Y-40166420D01*
X121318995Y-40139500D01*
X121318993Y-40139500D01*
X121181007Y-40139500D01*
X121181004Y-40139500D01*
X121045671Y-40166420D01*
X121045668Y-40166421D01*
X120918189Y-40219225D01*
X120803458Y-40295885D01*
X120803452Y-40295890D01*
X120705890Y-40393452D01*
X120705885Y-40393458D01*
X120629225Y-40508189D01*
X120576421Y-40635668D01*
X120576420Y-40635671D01*
X120549500Y-40771004D01*
X103931574Y-40771004D01*
X103937154Y-40753983D01*
X103953580Y-40714328D01*
X103980500Y-40578993D01*
X103980500Y-40441007D01*
X103953580Y-40305672D01*
X103900775Y-40178189D01*
X103824114Y-40063458D01*
X103824109Y-40063452D01*
X103726547Y-39965890D01*
X103726541Y-39965885D01*
X103611810Y-39889224D01*
X103484331Y-39836421D01*
X103484328Y-39836420D01*
X103348995Y-39809500D01*
X103348993Y-39809500D01*
X103211007Y-39809500D01*
X103211004Y-39809500D01*
X103075671Y-39836420D01*
X103075668Y-39836421D01*
X102948189Y-39889225D01*
X102833458Y-39965885D01*
X102833452Y-39965890D01*
X102735890Y-40063452D01*
X102735885Y-40063458D01*
X102659225Y-40178189D01*
X102606421Y-40305668D01*
X102606420Y-40305671D01*
X102579500Y-40441004D01*
X95135883Y-40441004D01*
X95104114Y-40393458D01*
X95104109Y-40393452D01*
X95006547Y-40295890D01*
X95006541Y-40295885D01*
X94968471Y-40270447D01*
X94891811Y-40219225D01*
X94792741Y-40178189D01*
X94764331Y-40166421D01*
X94764328Y-40166420D01*
X94628995Y-40139500D01*
X94628993Y-40139500D01*
X94491007Y-40139500D01*
X94491004Y-40139500D01*
X94355671Y-40166420D01*
X94355668Y-40166421D01*
X94228189Y-40219225D01*
X94113458Y-40295885D01*
X94113452Y-40295890D01*
X94015890Y-40393452D01*
X94015885Y-40393458D01*
X93939225Y-40508189D01*
X93886421Y-40635668D01*
X93886420Y-40635671D01*
X93859500Y-40771004D01*
X91185000Y-40771004D01*
X91185000Y-39781004D01*
X124329500Y-39781004D01*
X124329500Y-39918995D01*
X124338828Y-39965890D01*
X124356420Y-40054328D01*
X124409225Y-40181811D01*
X124460447Y-40258471D01*
X124485885Y-40296541D01*
X124485890Y-40296547D01*
X124583452Y-40394109D01*
X124583458Y-40394114D01*
X124698189Y-40470775D01*
X124825672Y-40523580D01*
X124961007Y-40550500D01*
X124961008Y-40550500D01*
X125098992Y-40550500D01*
X125098993Y-40550500D01*
X125234328Y-40523580D01*
X125361811Y-40470775D01*
X125476542Y-40394114D01*
X125574114Y-40296542D01*
X125650775Y-40181811D01*
X125703580Y-40054328D01*
X125730500Y-39918993D01*
X125730500Y-39781007D01*
X125703580Y-39645672D01*
X125650775Y-39518189D01*
X125574114Y-39403458D01*
X125574109Y-39403452D01*
X125476547Y-39305890D01*
X125476541Y-39305885D01*
X125438471Y-39280447D01*
X125361811Y-39229225D01*
X125281421Y-39195926D01*
X125234331Y-39176421D01*
X125234328Y-39176420D01*
X125098995Y-39149500D01*
X125098993Y-39149500D01*
X124961007Y-39149500D01*
X124961004Y-39149500D01*
X124825671Y-39176420D01*
X124825668Y-39176421D01*
X124698189Y-39229225D01*
X124583458Y-39305885D01*
X124583452Y-39305890D01*
X124485890Y-39403452D01*
X124485885Y-39403458D01*
X124409225Y-39518189D01*
X124356421Y-39645668D01*
X124356420Y-39645671D01*
X124329500Y-39781004D01*
X91185000Y-39781004D01*
X91185000Y-37290499D01*
X91205002Y-37222378D01*
X91221905Y-37201404D01*
X91648095Y-36775214D01*
X91710407Y-36741188D01*
X91737190Y-36738309D01*
X126132810Y-36738309D01*
X126200931Y-36758311D01*
G37*
G04 #@! TD.AperFunction*
M02*
