G04 #@! TF.GenerationSoftware,KiCad,Pcbnew,9.0.6*
G04 #@! TF.CreationDate,2026-02-22T19:02:19+01:00*
G04 #@! TF.ProjectId,epdiy-v7-light,65706469-792d-4763-972d-6c696768742e,1.1*
G04 #@! TF.SameCoordinates,Original*
G04 #@! TF.FileFunction,Legend,Bot*
G04 #@! TF.FilePolarity,Positive*
%FSLAX46Y46*%
G04 Gerber Fmt 4.6, Leading zero omitted, Abs format (unit mm)*
G04 Created by KiCad (PCBNEW 9.0.6) date 2026-02-22 19:02:19*
%MOMM*%
%LPD*%
G01*
G04 APERTURE LIST*
%ADD10C,0.058916*%
%ADD11C,0.052916*%
%ADD12C,0.117564*%
%ADD13C,0.150000*%
%ADD14C,0.010000*%
%ADD15C,0.850000*%
%ADD16C,2.200000*%
%ADD17C,0.508000*%
%ADD18C,0.650000*%
%ADD19O,1.000000X2.100000*%
%ADD20O,1.000000X1.600000*%
%ADD21C,0.800000*%
%ADD22O,0.800000X1.300000*%
%ADD23R,1.700000X1.700000*%
%ADD24C,1.700000*%
G04 APERTURE END LIST*
D10*
X136502406Y-67846095D02*
X136091234Y-67846095D01*
X136091234Y-67242683D01*
X135974824Y-67242683D01*
X135961917Y-67242870D01*
X135949359Y-67243434D01*
X135937153Y-67244372D01*
X135925296Y-67245687D01*
X135913791Y-67247376D01*
X135902635Y-67249442D01*
X135891830Y-67251882D01*
X135881376Y-67254698D01*
X135871272Y-67257890D01*
X135861518Y-67261457D01*
X135852115Y-67265399D01*
X135843062Y-67269717D01*
X135834359Y-67274410D01*
X135826008Y-67279479D01*
X135818006Y-67284922D01*
X135810355Y-67290742D01*
X135802771Y-67296871D01*
X135795236Y-67303508D01*
X135787752Y-67310655D01*
X135780318Y-67318310D01*
X135772934Y-67326475D01*
X135765600Y-67335149D01*
X135758316Y-67344331D01*
X135751082Y-67354022D01*
X135743898Y-67364222D01*
X135736764Y-67374932D01*
X135729681Y-67386150D01*
X135722647Y-67397876D01*
X135715663Y-67410112D01*
X135708730Y-67422857D01*
X135701846Y-67436110D01*
X135695013Y-67449873D01*
X135500641Y-67846095D01*
X135062769Y-67846095D01*
X135285977Y-67393269D01*
X135301529Y-67363081D01*
X135317215Y-67334462D01*
X135333035Y-67307412D01*
X135340994Y-67294475D01*
X135348987Y-67281931D01*
X135357014Y-67269778D01*
X135365074Y-67258018D01*
X135373167Y-67246650D01*
X135381294Y-67235674D01*
X135389454Y-67225090D01*
X135397647Y-67214899D01*
X135405874Y-67205099D01*
X135414134Y-67195692D01*
X135422386Y-67186685D01*
X135430855Y-67178087D01*
X135439540Y-67169897D01*
X135448443Y-67162117D01*
X135457563Y-67154745D01*
X135466899Y-67147783D01*
X135476452Y-67141229D01*
X135486223Y-67135084D01*
X135496210Y-67129348D01*
X135506414Y-67124020D01*
X135516835Y-67119102D01*
X135527473Y-67114592D01*
X135538328Y-67110491D01*
X135549400Y-67106799D01*
X135560689Y-67103516D01*
X135572195Y-67100642D01*
X135535079Y-67087780D01*
X135500357Y-67073224D01*
X135468029Y-67056975D01*
X135438097Y-67039032D01*
X135424029Y-67029426D01*
X135410559Y-67019396D01*
X135397688Y-67008942D01*
X135385415Y-66998066D01*
X135373742Y-66986765D01*
X135362667Y-66975042D01*
X135352190Y-66962895D01*
X135342312Y-66950324D01*
X135333033Y-66937330D01*
X135324353Y-66923913D01*
X135316271Y-66910072D01*
X135308788Y-66895808D01*
X135301903Y-66881120D01*
X135295618Y-66866009D01*
X135289930Y-66850475D01*
X135284842Y-66834517D01*
X135276461Y-66801330D01*
X135270474Y-66766450D01*
X135269103Y-66752485D01*
X135676857Y-66752485D01*
X135677069Y-66765479D01*
X135677708Y-66778044D01*
X135678771Y-66790176D01*
X135680261Y-66801874D01*
X135682176Y-66813138D01*
X135684516Y-66823968D01*
X135687282Y-66834364D01*
X135690473Y-66844326D01*
X135694090Y-66853854D01*
X135698133Y-66862949D01*
X135702601Y-66871609D01*
X135707494Y-66879836D01*
X135712813Y-66887629D01*
X135718558Y-66894988D01*
X135724728Y-66901914D01*
X135731324Y-66908405D01*
X135738311Y-66914484D01*
X135745925Y-66920170D01*
X135754164Y-66925465D01*
X135763029Y-66930367D01*
X135772520Y-66934876D01*
X135782637Y-66938994D01*
X135793379Y-66942719D01*
X135804747Y-66946053D01*
X135816741Y-66948994D01*
X135829361Y-66951542D01*
X135842606Y-66953699D01*
X135856478Y-66955464D01*
X135870975Y-66956836D01*
X135886097Y-66957816D01*
X135901846Y-66958405D01*
X135918220Y-66958601D01*
X136091233Y-66958601D01*
X136091233Y-66549567D01*
X135918220Y-66549567D01*
X135902989Y-66549747D01*
X135888267Y-66550285D01*
X135874053Y-66551182D01*
X135860349Y-66552438D01*
X135847154Y-66554052D01*
X135834467Y-66556025D01*
X135822290Y-66558357D01*
X135810621Y-66561048D01*
X135799462Y-66564098D01*
X135788811Y-66567506D01*
X135778670Y-66571273D01*
X135769037Y-66575399D01*
X135759913Y-66579884D01*
X135751298Y-66584727D01*
X135743193Y-66589929D01*
X135735596Y-66595490D01*
X135728483Y-66601360D01*
X135721829Y-66607755D01*
X135715634Y-66614675D01*
X135709898Y-66622122D01*
X135704620Y-66630094D01*
X135699802Y-66638592D01*
X135695442Y-66647615D01*
X135691542Y-66657165D01*
X135688100Y-66667240D01*
X135685117Y-66677841D01*
X135682593Y-66688967D01*
X135680528Y-66700619D01*
X135678922Y-66712797D01*
X135677775Y-66725501D01*
X135677086Y-66738730D01*
X135676857Y-66752485D01*
X135269103Y-66752485D01*
X135269102Y-66752479D01*
X135266882Y-66729876D01*
X135265685Y-66691608D01*
X135265685Y-66691602D01*
X135265802Y-66678758D01*
X135266152Y-66666122D01*
X135266737Y-66653694D01*
X135267554Y-66641475D01*
X135268605Y-66629465D01*
X135269890Y-66617663D01*
X135271409Y-66606069D01*
X135273161Y-66594685D01*
X135275147Y-66583508D01*
X135277366Y-66572541D01*
X135279819Y-66561782D01*
X135282506Y-66551231D01*
X135285426Y-66540890D01*
X135288580Y-66530756D01*
X135291968Y-66520831D01*
X135295589Y-66511115D01*
X135299347Y-66501442D01*
X135303415Y-66491910D01*
X135307791Y-66482519D01*
X135312476Y-66473271D01*
X135317470Y-66464164D01*
X135322772Y-66455199D01*
X135328383Y-66446376D01*
X135334303Y-66437695D01*
X135340532Y-66429155D01*
X135347069Y-66420757D01*
X135353915Y-66412501D01*
X135361069Y-66404387D01*
X135368533Y-66396414D01*
X135376305Y-66388583D01*
X135384385Y-66380894D01*
X135392775Y-66373347D01*
X135401523Y-66365983D01*
X135410680Y-66358845D01*
X135420246Y-66351932D01*
X135430221Y-66345244D01*
X135440604Y-66338782D01*
X135451397Y-66332546D01*
X135462598Y-66326534D01*
X135474208Y-66320748D01*
X135486227Y-66315187D01*
X135498655Y-66309852D01*
X135511492Y-66304742D01*
X135524737Y-66299857D01*
X135538391Y-66295197D01*
X135552454Y-66290763D01*
X135566926Y-66286553D01*
X135581807Y-66282569D01*
X135612779Y-66275310D01*
X135645352Y-66269019D01*
X135679528Y-66263696D01*
X135715305Y-66259341D01*
X135752684Y-66255954D01*
X135791665Y-66253535D01*
X135832249Y-66252084D01*
X135874434Y-66251600D01*
X136502406Y-66251600D01*
X136502406Y-67846095D01*
G36*
X136502406Y-67846095D02*
G01*
X136091234Y-67846095D01*
X136091234Y-67242683D01*
X135974824Y-67242683D01*
X135961917Y-67242870D01*
X135949359Y-67243434D01*
X135937153Y-67244372D01*
X135925296Y-67245687D01*
X135913791Y-67247376D01*
X135902635Y-67249442D01*
X135891830Y-67251882D01*
X135881376Y-67254698D01*
X135871272Y-67257890D01*
X135861518Y-67261457D01*
X135852115Y-67265399D01*
X135843062Y-67269717D01*
X135834359Y-67274410D01*
X135826008Y-67279479D01*
X135818006Y-67284922D01*
X135810355Y-67290742D01*
X135802771Y-67296871D01*
X135795236Y-67303508D01*
X135787752Y-67310655D01*
X135780318Y-67318310D01*
X135772934Y-67326475D01*
X135765600Y-67335149D01*
X135758316Y-67344331D01*
X135751082Y-67354022D01*
X135743898Y-67364222D01*
X135736764Y-67374932D01*
X135729681Y-67386150D01*
X135722647Y-67397876D01*
X135715663Y-67410112D01*
X135708730Y-67422857D01*
X135701846Y-67436110D01*
X135695013Y-67449873D01*
X135500641Y-67846095D01*
X135062769Y-67846095D01*
X135285977Y-67393269D01*
X135301529Y-67363081D01*
X135317215Y-67334462D01*
X135333035Y-67307412D01*
X135340994Y-67294475D01*
X135348987Y-67281931D01*
X135357014Y-67269778D01*
X135365074Y-67258018D01*
X135373167Y-67246650D01*
X135381294Y-67235674D01*
X135389454Y-67225090D01*
X135397647Y-67214899D01*
X135405874Y-67205099D01*
X135414134Y-67195692D01*
X135422386Y-67186685D01*
X135430855Y-67178087D01*
X135439540Y-67169897D01*
X135448443Y-67162117D01*
X135457563Y-67154745D01*
X135466899Y-67147783D01*
X135476452Y-67141229D01*
X135486223Y-67135084D01*
X135496210Y-67129348D01*
X135506414Y-67124020D01*
X135516835Y-67119102D01*
X135527473Y-67114592D01*
X135538328Y-67110491D01*
X135549400Y-67106799D01*
X135560689Y-67103516D01*
X135572195Y-67100642D01*
X135535079Y-67087780D01*
X135500357Y-67073224D01*
X135468029Y-67056975D01*
X135438097Y-67039032D01*
X135424029Y-67029426D01*
X135410559Y-67019396D01*
X135397688Y-67008942D01*
X135385415Y-66998066D01*
X135373742Y-66986765D01*
X135362667Y-66975042D01*
X135352190Y-66962895D01*
X135342312Y-66950324D01*
X135333033Y-66937330D01*
X135324353Y-66923913D01*
X135316271Y-66910072D01*
X135308788Y-66895808D01*
X135301903Y-66881120D01*
X135295618Y-66866009D01*
X135289930Y-66850475D01*
X135284842Y-66834517D01*
X135276461Y-66801330D01*
X135270474Y-66766450D01*
X135269103Y-66752485D01*
X135676857Y-66752485D01*
X135677069Y-66765479D01*
X135677708Y-66778044D01*
X135678771Y-66790176D01*
X135680261Y-66801874D01*
X135682176Y-66813138D01*
X135684516Y-66823968D01*
X135687282Y-66834364D01*
X135690473Y-66844326D01*
X135694090Y-66853854D01*
X135698133Y-66862949D01*
X135702601Y-66871609D01*
X135707494Y-66879836D01*
X135712813Y-66887629D01*
X135718558Y-66894988D01*
X135724728Y-66901914D01*
X135731324Y-66908405D01*
X135738311Y-66914484D01*
X135745925Y-66920170D01*
X135754164Y-66925465D01*
X135763029Y-66930367D01*
X135772520Y-66934876D01*
X135782637Y-66938994D01*
X135793379Y-66942719D01*
X135804747Y-66946053D01*
X135816741Y-66948994D01*
X135829361Y-66951542D01*
X135842606Y-66953699D01*
X135856478Y-66955464D01*
X135870975Y-66956836D01*
X135886097Y-66957816D01*
X135901846Y-66958405D01*
X135918220Y-66958601D01*
X136091233Y-66958601D01*
X136091233Y-66549567D01*
X135918220Y-66549567D01*
X135902989Y-66549747D01*
X135888267Y-66550285D01*
X135874053Y-66551182D01*
X135860349Y-66552438D01*
X135847154Y-66554052D01*
X135834467Y-66556025D01*
X135822290Y-66558357D01*
X135810621Y-66561048D01*
X135799462Y-66564098D01*
X135788811Y-66567506D01*
X135778670Y-66571273D01*
X135769037Y-66575399D01*
X135759913Y-66579884D01*
X135751298Y-66584727D01*
X135743193Y-66589929D01*
X135735596Y-66595490D01*
X135728483Y-66601360D01*
X135721829Y-66607755D01*
X135715634Y-66614675D01*
X135709898Y-66622122D01*
X135704620Y-66630094D01*
X135699802Y-66638592D01*
X135695442Y-66647615D01*
X135691542Y-66657165D01*
X135688100Y-66667240D01*
X135685117Y-66677841D01*
X135682593Y-66688967D01*
X135680528Y-66700619D01*
X135678922Y-66712797D01*
X135677775Y-66725501D01*
X135677086Y-66738730D01*
X135676857Y-66752485D01*
X135269103Y-66752485D01*
X135269102Y-66752479D01*
X135266882Y-66729876D01*
X135265685Y-66691608D01*
X135265685Y-66691602D01*
X135265802Y-66678758D01*
X135266152Y-66666122D01*
X135266737Y-66653694D01*
X135267554Y-66641475D01*
X135268605Y-66629465D01*
X135269890Y-66617663D01*
X135271409Y-66606069D01*
X135273161Y-66594685D01*
X135275147Y-66583508D01*
X135277366Y-66572541D01*
X135279819Y-66561782D01*
X135282506Y-66551231D01*
X135285426Y-66540890D01*
X135288580Y-66530756D01*
X135291968Y-66520831D01*
X135295589Y-66511115D01*
X135299347Y-66501442D01*
X135303415Y-66491910D01*
X135307791Y-66482519D01*
X135312476Y-66473271D01*
X135317470Y-66464164D01*
X135322772Y-66455199D01*
X135328383Y-66446376D01*
X135334303Y-66437695D01*
X135340532Y-66429155D01*
X135347069Y-66420757D01*
X135353915Y-66412501D01*
X135361069Y-66404387D01*
X135368533Y-66396414D01*
X135376305Y-66388583D01*
X135384385Y-66380894D01*
X135392775Y-66373347D01*
X135401523Y-66365983D01*
X135410680Y-66358845D01*
X135420246Y-66351932D01*
X135430221Y-66345244D01*
X135440604Y-66338782D01*
X135451397Y-66332546D01*
X135462598Y-66326534D01*
X135474208Y-66320748D01*
X135486227Y-66315187D01*
X135498655Y-66309852D01*
X135511492Y-66304742D01*
X135524737Y-66299857D01*
X135538391Y-66295197D01*
X135552454Y-66290763D01*
X135566926Y-66286553D01*
X135581807Y-66282569D01*
X135612779Y-66275310D01*
X135645352Y-66269019D01*
X135679528Y-66263696D01*
X135715305Y-66259341D01*
X135752684Y-66255954D01*
X135791665Y-66253535D01*
X135832249Y-66252084D01*
X135874434Y-66251600D01*
X136502406Y-66251600D01*
X136502406Y-67846095D01*
G37*
X135548939Y-65253297D02*
X136144019Y-64131080D01*
X136615261Y-64131080D01*
X136615261Y-65767274D01*
X136215254Y-65767274D01*
X136215254Y-64645057D01*
X135620174Y-65767274D01*
X135148931Y-65767274D01*
X135148931Y-64131080D01*
X135548939Y-64131080D01*
X135548939Y-65253297D01*
G36*
X135548939Y-65253297D02*
G01*
X136144019Y-64131080D01*
X136615261Y-64131080D01*
X136615261Y-65767274D01*
X136215254Y-65767274D01*
X136215254Y-64645057D01*
X135620174Y-65767274D01*
X135148931Y-65767274D01*
X135148931Y-64131080D01*
X135548939Y-64131080D01*
X135548939Y-65253297D01*
G37*
X137827969Y-66223628D02*
X137873967Y-66226194D01*
X137918680Y-66230470D01*
X137962109Y-66236457D01*
X138004252Y-66244154D01*
X138045111Y-66253561D01*
X138084685Y-66264679D01*
X138122973Y-66277507D01*
X138159977Y-66292046D01*
X138195696Y-66308295D01*
X138230130Y-66326254D01*
X138263279Y-66345924D01*
X138295143Y-66367304D01*
X138325723Y-66390394D01*
X138355017Y-66415195D01*
X138383026Y-66441706D01*
X138409409Y-66469615D01*
X138434089Y-66498876D01*
X138457068Y-66529489D01*
X138478344Y-66561453D01*
X138497918Y-66594768D01*
X138515790Y-66629436D01*
X138531960Y-66665455D01*
X138546427Y-66702825D01*
X138559193Y-66741548D01*
X138570257Y-66781622D01*
X138579618Y-66823047D01*
X138587278Y-66865825D01*
X138593235Y-66909954D01*
X138597490Y-66955435D01*
X138600043Y-67002268D01*
X138600895Y-67050452D01*
X138600043Y-67098637D01*
X138597490Y-67145470D01*
X138593235Y-67190951D01*
X138587278Y-67235080D01*
X138579618Y-67277858D01*
X138570257Y-67319283D01*
X138559193Y-67359357D01*
X138546427Y-67398080D01*
X138531960Y-67435450D01*
X138515790Y-67471469D01*
X138497918Y-67506137D01*
X138478344Y-67539452D01*
X138457068Y-67571416D01*
X138434089Y-67602029D01*
X138409409Y-67631290D01*
X138383026Y-67659199D01*
X138355017Y-67685581D01*
X138325723Y-67710261D01*
X138295143Y-67733240D01*
X138263279Y-67754516D01*
X138230130Y-67774089D01*
X138195696Y-67791961D01*
X138159977Y-67808131D01*
X138122973Y-67822598D01*
X138084685Y-67835364D01*
X138045111Y-67846427D01*
X138004252Y-67855788D01*
X137962109Y-67863448D01*
X137918680Y-67869405D01*
X137873967Y-67873660D01*
X137827969Y-67876213D01*
X137780686Y-67877064D01*
X137733407Y-67876213D01*
X137687421Y-67873660D01*
X137642729Y-67869405D01*
X137599330Y-67863448D01*
X137557224Y-67855788D01*
X137516411Y-67846427D01*
X137476892Y-67835364D01*
X137438665Y-67822598D01*
X137401732Y-67808131D01*
X137366093Y-67791961D01*
X137331746Y-67774089D01*
X137298693Y-67754516D01*
X137266933Y-67733240D01*
X137236467Y-67710261D01*
X137207293Y-67685581D01*
X137179413Y-67659199D01*
X137152901Y-67631290D01*
X137128100Y-67602029D01*
X137105009Y-67571416D01*
X137083629Y-67539452D01*
X137063959Y-67506137D01*
X137045999Y-67471469D01*
X137029750Y-67435450D01*
X137015211Y-67398080D01*
X137002383Y-67359357D01*
X136991265Y-67319283D01*
X136981858Y-67277858D01*
X136974161Y-67235080D01*
X136968174Y-67190951D01*
X136963898Y-67145470D01*
X136961332Y-67098637D01*
X136960477Y-67050452D01*
X136960477Y-67050446D01*
X137384465Y-67050446D01*
X137384832Y-67079215D01*
X137385934Y-67107317D01*
X137387769Y-67134751D01*
X137390339Y-67161517D01*
X137393643Y-67187617D01*
X137397681Y-67213048D01*
X137402454Y-67237812D01*
X137407961Y-67261909D01*
X137407960Y-67261903D01*
X137410989Y-67273567D01*
X137414201Y-67285064D01*
X137417597Y-67296394D01*
X137421176Y-67307558D01*
X137424939Y-67318554D01*
X137428886Y-67329384D01*
X137433016Y-67340048D01*
X137437330Y-67350544D01*
X137441827Y-67360874D01*
X137446508Y-67371036D01*
X137451372Y-67381032D01*
X137456420Y-67390862D01*
X137461651Y-67400524D01*
X137467066Y-67410020D01*
X137472664Y-67419348D01*
X137478447Y-67428510D01*
X137484437Y-67437330D01*
X137490661Y-67445899D01*
X137497119Y-67454218D01*
X137503811Y-67462286D01*
X137510736Y-67470105D01*
X137517895Y-67477672D01*
X137525287Y-67484990D01*
X137532913Y-67492057D01*
X137540773Y-67498874D01*
X137548866Y-67505440D01*
X137557193Y-67511757D01*
X137565754Y-67517822D01*
X137574548Y-67523638D01*
X137583576Y-67529203D01*
X137592837Y-67534518D01*
X137602332Y-67539582D01*
X137612040Y-67544367D01*
X137621939Y-67548843D01*
X137632031Y-67553011D01*
X137642314Y-67556870D01*
X137652790Y-67560420D01*
X137663457Y-67563661D01*
X137674316Y-67566594D01*
X137685367Y-67569218D01*
X137696610Y-67571533D01*
X137708045Y-67573540D01*
X137719672Y-67575237D01*
X137731491Y-67576627D01*
X137743501Y-67577707D01*
X137755704Y-67578479D01*
X137768098Y-67578942D01*
X137780684Y-67579096D01*
X137804997Y-67578533D01*
X137828543Y-67576843D01*
X137851321Y-67574028D01*
X137873332Y-67570085D01*
X137894574Y-67565016D01*
X137915050Y-67558821D01*
X137924999Y-67555301D01*
X137934757Y-67551500D01*
X137944323Y-67547417D01*
X137953697Y-67543052D01*
X137962879Y-67538406D01*
X137971870Y-67533478D01*
X137980668Y-67528268D01*
X137989274Y-67522777D01*
X137997689Y-67517004D01*
X138005911Y-67510950D01*
X138013942Y-67504614D01*
X138021781Y-67497997D01*
X138029428Y-67491097D01*
X138036883Y-67483917D01*
X138044146Y-67476454D01*
X138051217Y-67468711D01*
X138064784Y-67452378D01*
X138077583Y-67434919D01*
X138089481Y-67416521D01*
X138100611Y-67397373D01*
X138110974Y-67377474D01*
X138120569Y-67356823D01*
X138129397Y-67335422D01*
X138137457Y-67313270D01*
X138144749Y-67290367D01*
X138151274Y-67266713D01*
X138157031Y-67242308D01*
X138162020Y-67217152D01*
X138166242Y-67191245D01*
X138169696Y-67164588D01*
X138172383Y-67137179D01*
X138174302Y-67109019D01*
X138175453Y-67080108D01*
X138175837Y-67050446D01*
X138175203Y-67011834D01*
X138173301Y-66974489D01*
X138171874Y-66956292D01*
X138170130Y-66938411D01*
X138168069Y-66920848D01*
X138165692Y-66903602D01*
X138162997Y-66886673D01*
X138159985Y-66870060D01*
X138156655Y-66853765D01*
X138153009Y-66837787D01*
X138149046Y-66822126D01*
X138144766Y-66806782D01*
X138140169Y-66791755D01*
X138135254Y-66777045D01*
X138129989Y-66762678D01*
X138124341Y-66748677D01*
X138118308Y-66735044D01*
X138111892Y-66721777D01*
X138105092Y-66708878D01*
X138097908Y-66696346D01*
X138090341Y-66684181D01*
X138082389Y-66672383D01*
X138074054Y-66660952D01*
X138065335Y-66649889D01*
X138056232Y-66639192D01*
X138046746Y-66628863D01*
X138036875Y-66618901D01*
X138026621Y-66609306D01*
X138015983Y-66600078D01*
X138004961Y-66591218D01*
X137993447Y-66582682D01*
X137981599Y-66574697D01*
X137969417Y-66567263D01*
X137956902Y-66560380D01*
X137944053Y-66554047D01*
X137930870Y-66548264D01*
X137917353Y-66543033D01*
X137903503Y-66538351D01*
X137889319Y-66534221D01*
X137874801Y-66530641D01*
X137859949Y-66527612D01*
X137844764Y-66525134D01*
X137829245Y-66523207D01*
X137813392Y-66521830D01*
X137797205Y-66521004D01*
X137780685Y-66520728D01*
X137768099Y-66520883D01*
X137755704Y-66521346D01*
X137743502Y-66522118D01*
X137731491Y-66523198D01*
X137719673Y-66524587D01*
X137708046Y-66526285D01*
X137696611Y-66528292D01*
X137685368Y-66530607D01*
X137674317Y-66533231D01*
X137663458Y-66536164D01*
X137652790Y-66539405D01*
X137642315Y-66542955D01*
X137632032Y-66546814D01*
X137621940Y-66550981D01*
X137612040Y-66555458D01*
X137602333Y-66560242D01*
X137592838Y-66565312D01*
X137583576Y-66570640D01*
X137574549Y-66576227D01*
X137565754Y-66582072D01*
X137557194Y-66588176D01*
X137548867Y-66594538D01*
X137540774Y-66601159D01*
X137532914Y-66608038D01*
X137525288Y-66615176D01*
X137517896Y-66622573D01*
X137510737Y-66630228D01*
X137503812Y-66638142D01*
X137497120Y-66646314D01*
X137490662Y-66654745D01*
X137484438Y-66663434D01*
X137478447Y-66672382D01*
X137472665Y-66681418D01*
X137467067Y-66690637D01*
X137461652Y-66700040D01*
X137456420Y-66709626D01*
X137451373Y-66719396D01*
X137446508Y-66729350D01*
X137441828Y-66739487D01*
X137437330Y-66749808D01*
X137433017Y-66760312D01*
X137428887Y-66771000D01*
X137421177Y-66792927D01*
X137414202Y-66815589D01*
X137407961Y-66838984D01*
X137402454Y-66863080D01*
X137397681Y-66887844D01*
X137393643Y-66913276D01*
X137390339Y-66939375D01*
X137387769Y-66966142D01*
X137385934Y-66993576D01*
X137384832Y-67021678D01*
X137384465Y-67050446D01*
X136960477Y-67050446D01*
X136961328Y-67002139D01*
X136963881Y-66955186D01*
X136968136Y-66909592D01*
X136974094Y-66865359D01*
X136981753Y-66822486D01*
X136991115Y-66780972D01*
X137002178Y-66740819D01*
X137014944Y-66702026D01*
X137029412Y-66664592D01*
X137045582Y-66628519D01*
X137063454Y-66593805D01*
X137083028Y-66560452D01*
X137104304Y-66528458D01*
X137127282Y-66497825D01*
X137151963Y-66468552D01*
X137178345Y-66440638D01*
X137206229Y-66414256D01*
X137235415Y-66389575D01*
X137265903Y-66366597D01*
X137297692Y-66345321D01*
X137330783Y-66325747D01*
X137365175Y-66307876D01*
X137400869Y-66291706D01*
X137437864Y-66277239D01*
X137476161Y-66264473D01*
X137515760Y-66253410D01*
X137556660Y-66244048D01*
X137598862Y-66236389D01*
X137642366Y-66230432D01*
X137687171Y-66226177D01*
X137733278Y-66223624D01*
X137780686Y-66222773D01*
X137827969Y-66223628D01*
G36*
X137827969Y-66223628D02*
G01*
X137873967Y-66226194D01*
X137918680Y-66230470D01*
X137962109Y-66236457D01*
X138004252Y-66244154D01*
X138045111Y-66253561D01*
X138084685Y-66264679D01*
X138122973Y-66277507D01*
X138159977Y-66292046D01*
X138195696Y-66308295D01*
X138230130Y-66326254D01*
X138263279Y-66345924D01*
X138295143Y-66367304D01*
X138325723Y-66390394D01*
X138355017Y-66415195D01*
X138383026Y-66441706D01*
X138409409Y-66469615D01*
X138434089Y-66498876D01*
X138457068Y-66529489D01*
X138478344Y-66561453D01*
X138497918Y-66594768D01*
X138515790Y-66629436D01*
X138531960Y-66665455D01*
X138546427Y-66702825D01*
X138559193Y-66741548D01*
X138570257Y-66781622D01*
X138579618Y-66823047D01*
X138587278Y-66865825D01*
X138593235Y-66909954D01*
X138597490Y-66955435D01*
X138600043Y-67002268D01*
X138600895Y-67050452D01*
X138600043Y-67098637D01*
X138597490Y-67145470D01*
X138593235Y-67190951D01*
X138587278Y-67235080D01*
X138579618Y-67277858D01*
X138570257Y-67319283D01*
X138559193Y-67359357D01*
X138546427Y-67398080D01*
X138531960Y-67435450D01*
X138515790Y-67471469D01*
X138497918Y-67506137D01*
X138478344Y-67539452D01*
X138457068Y-67571416D01*
X138434089Y-67602029D01*
X138409409Y-67631290D01*
X138383026Y-67659199D01*
X138355017Y-67685581D01*
X138325723Y-67710261D01*
X138295143Y-67733240D01*
X138263279Y-67754516D01*
X138230130Y-67774089D01*
X138195696Y-67791961D01*
X138159977Y-67808131D01*
X138122973Y-67822598D01*
X138084685Y-67835364D01*
X138045111Y-67846427D01*
X138004252Y-67855788D01*
X137962109Y-67863448D01*
X137918680Y-67869405D01*
X137873967Y-67873660D01*
X137827969Y-67876213D01*
X137780686Y-67877064D01*
X137733407Y-67876213D01*
X137687421Y-67873660D01*
X137642729Y-67869405D01*
X137599330Y-67863448D01*
X137557224Y-67855788D01*
X137516411Y-67846427D01*
X137476892Y-67835364D01*
X137438665Y-67822598D01*
X137401732Y-67808131D01*
X137366093Y-67791961D01*
X137331746Y-67774089D01*
X137298693Y-67754516D01*
X137266933Y-67733240D01*
X137236467Y-67710261D01*
X137207293Y-67685581D01*
X137179413Y-67659199D01*
X137152901Y-67631290D01*
X137128100Y-67602029D01*
X137105009Y-67571416D01*
X137083629Y-67539452D01*
X137063959Y-67506137D01*
X137045999Y-67471469D01*
X137029750Y-67435450D01*
X137015211Y-67398080D01*
X137002383Y-67359357D01*
X136991265Y-67319283D01*
X136981858Y-67277858D01*
X136974161Y-67235080D01*
X136968174Y-67190951D01*
X136963898Y-67145470D01*
X136961332Y-67098637D01*
X136960477Y-67050452D01*
X136960477Y-67050446D01*
X137384465Y-67050446D01*
X137384832Y-67079215D01*
X137385934Y-67107317D01*
X137387769Y-67134751D01*
X137390339Y-67161517D01*
X137393643Y-67187617D01*
X137397681Y-67213048D01*
X137402454Y-67237812D01*
X137407961Y-67261909D01*
X137407960Y-67261903D01*
X137410989Y-67273567D01*
X137414201Y-67285064D01*
X137417597Y-67296394D01*
X137421176Y-67307558D01*
X137424939Y-67318554D01*
X137428886Y-67329384D01*
X137433016Y-67340048D01*
X137437330Y-67350544D01*
X137441827Y-67360874D01*
X137446508Y-67371036D01*
X137451372Y-67381032D01*
X137456420Y-67390862D01*
X137461651Y-67400524D01*
X137467066Y-67410020D01*
X137472664Y-67419348D01*
X137478447Y-67428510D01*
X137484437Y-67437330D01*
X137490661Y-67445899D01*
X137497119Y-67454218D01*
X137503811Y-67462286D01*
X137510736Y-67470105D01*
X137517895Y-67477672D01*
X137525287Y-67484990D01*
X137532913Y-67492057D01*
X137540773Y-67498874D01*
X137548866Y-67505440D01*
X137557193Y-67511757D01*
X137565754Y-67517822D01*
X137574548Y-67523638D01*
X137583576Y-67529203D01*
X137592837Y-67534518D01*
X137602332Y-67539582D01*
X137612040Y-67544367D01*
X137621939Y-67548843D01*
X137632031Y-67553011D01*
X137642314Y-67556870D01*
X137652790Y-67560420D01*
X137663457Y-67563661D01*
X137674316Y-67566594D01*
X137685367Y-67569218D01*
X137696610Y-67571533D01*
X137708045Y-67573540D01*
X137719672Y-67575237D01*
X137731491Y-67576627D01*
X137743501Y-67577707D01*
X137755704Y-67578479D01*
X137768098Y-67578942D01*
X137780684Y-67579096D01*
X137804997Y-67578533D01*
X137828543Y-67576843D01*
X137851321Y-67574028D01*
X137873332Y-67570085D01*
X137894574Y-67565016D01*
X137915050Y-67558821D01*
X137924999Y-67555301D01*
X137934757Y-67551500D01*
X137944323Y-67547417D01*
X137953697Y-67543052D01*
X137962879Y-67538406D01*
X137971870Y-67533478D01*
X137980668Y-67528268D01*
X137989274Y-67522777D01*
X137997689Y-67517004D01*
X138005911Y-67510950D01*
X138013942Y-67504614D01*
X138021781Y-67497997D01*
X138029428Y-67491097D01*
X138036883Y-67483917D01*
X138044146Y-67476454D01*
X138051217Y-67468711D01*
X138064784Y-67452378D01*
X138077583Y-67434919D01*
X138089481Y-67416521D01*
X138100611Y-67397373D01*
X138110974Y-67377474D01*
X138120569Y-67356823D01*
X138129397Y-67335422D01*
X138137457Y-67313270D01*
X138144749Y-67290367D01*
X138151274Y-67266713D01*
X138157031Y-67242308D01*
X138162020Y-67217152D01*
X138166242Y-67191245D01*
X138169696Y-67164588D01*
X138172383Y-67137179D01*
X138174302Y-67109019D01*
X138175453Y-67080108D01*
X138175837Y-67050446D01*
X138175203Y-67011834D01*
X138173301Y-66974489D01*
X138171874Y-66956292D01*
X138170130Y-66938411D01*
X138168069Y-66920848D01*
X138165692Y-66903602D01*
X138162997Y-66886673D01*
X138159985Y-66870060D01*
X138156655Y-66853765D01*
X138153009Y-66837787D01*
X138149046Y-66822126D01*
X138144766Y-66806782D01*
X138140169Y-66791755D01*
X138135254Y-66777045D01*
X138129989Y-66762678D01*
X138124341Y-66748677D01*
X138118308Y-66735044D01*
X138111892Y-66721777D01*
X138105092Y-66708878D01*
X138097908Y-66696346D01*
X138090341Y-66684181D01*
X138082389Y-66672383D01*
X138074054Y-66660952D01*
X138065335Y-66649889D01*
X138056232Y-66639192D01*
X138046746Y-66628863D01*
X138036875Y-66618901D01*
X138026621Y-66609306D01*
X138015983Y-66600078D01*
X138004961Y-66591218D01*
X137993447Y-66582682D01*
X137981599Y-66574697D01*
X137969417Y-66567263D01*
X137956902Y-66560380D01*
X137944053Y-66554047D01*
X137930870Y-66548264D01*
X137917353Y-66543033D01*
X137903503Y-66538351D01*
X137889319Y-66534221D01*
X137874801Y-66530641D01*
X137859949Y-66527612D01*
X137844764Y-66525134D01*
X137829245Y-66523207D01*
X137813392Y-66521830D01*
X137797205Y-66521004D01*
X137780685Y-66520728D01*
X137768099Y-66520883D01*
X137755704Y-66521346D01*
X137743502Y-66522118D01*
X137731491Y-66523198D01*
X137719673Y-66524587D01*
X137708046Y-66526285D01*
X137696611Y-66528292D01*
X137685368Y-66530607D01*
X137674317Y-66533231D01*
X137663458Y-66536164D01*
X137652790Y-66539405D01*
X137642315Y-66542955D01*
X137632032Y-66546814D01*
X137621940Y-66550981D01*
X137612040Y-66555458D01*
X137602333Y-66560242D01*
X137592838Y-66565312D01*
X137583576Y-66570640D01*
X137574549Y-66576227D01*
X137565754Y-66582072D01*
X137557194Y-66588176D01*
X137548867Y-66594538D01*
X137540774Y-66601159D01*
X137532914Y-66608038D01*
X137525288Y-66615176D01*
X137517896Y-66622573D01*
X137510737Y-66630228D01*
X137503812Y-66638142D01*
X137497120Y-66646314D01*
X137490662Y-66654745D01*
X137484438Y-66663434D01*
X137478447Y-66672382D01*
X137472665Y-66681418D01*
X137467067Y-66690637D01*
X137461652Y-66700040D01*
X137456420Y-66709626D01*
X137451373Y-66719396D01*
X137446508Y-66729350D01*
X137441828Y-66739487D01*
X137437330Y-66749808D01*
X137433017Y-66760312D01*
X137428887Y-66771000D01*
X137421177Y-66792927D01*
X137414202Y-66815589D01*
X137407961Y-66838984D01*
X137402454Y-66863080D01*
X137397681Y-66887844D01*
X137393643Y-66913276D01*
X137390339Y-66939375D01*
X137387769Y-66966142D01*
X137385934Y-66993576D01*
X137384832Y-67021678D01*
X137384465Y-67050446D01*
X136960477Y-67050446D01*
X136961328Y-67002139D01*
X136963881Y-66955186D01*
X136968136Y-66909592D01*
X136974094Y-66865359D01*
X136981753Y-66822486D01*
X136991115Y-66780972D01*
X137002178Y-66740819D01*
X137014944Y-66702026D01*
X137029412Y-66664592D01*
X137045582Y-66628519D01*
X137063454Y-66593805D01*
X137083028Y-66560452D01*
X137104304Y-66528458D01*
X137127282Y-66497825D01*
X137151963Y-66468552D01*
X137178345Y-66440638D01*
X137206229Y-66414256D01*
X137235415Y-66389575D01*
X137265903Y-66366597D01*
X137297692Y-66345321D01*
X137330783Y-66325747D01*
X137365175Y-66307876D01*
X137400869Y-66291706D01*
X137437864Y-66277239D01*
X137476161Y-66264473D01*
X137515760Y-66253410D01*
X137556660Y-66244048D01*
X137598862Y-66236389D01*
X137642366Y-66230432D01*
X137687171Y-66226177D01*
X137733278Y-66223624D01*
X137780686Y-66222773D01*
X137827969Y-66223628D01*
G37*
D11*
X144543401Y-61583400D02*
X144543401Y-68649470D01*
D10*
X142183643Y-65767274D02*
X141759525Y-65767274D01*
X141655413Y-65469185D01*
X140995674Y-65469185D01*
X140892659Y-65767274D01*
X140468541Y-65767274D01*
X140691393Y-65165614D01*
X141101978Y-65165614D01*
X141550206Y-65165614D01*
X141325544Y-64514644D01*
X141101978Y-65165614D01*
X140691393Y-65165614D01*
X141074580Y-64131080D01*
X141577603Y-64131080D01*
X142183643Y-65767274D01*
G36*
X142183643Y-65767274D02*
G01*
X141759525Y-65767274D01*
X141655413Y-65469185D01*
X140995674Y-65469185D01*
X140892659Y-65767274D01*
X140468541Y-65767274D01*
X140691393Y-65165614D01*
X141101978Y-65165614D01*
X141550206Y-65165614D01*
X141325544Y-64514644D01*
X141101978Y-65165614D01*
X140691393Y-65165614D01*
X141074580Y-64131080D01*
X141577603Y-64131080D01*
X142183643Y-65767274D01*
G37*
D11*
X131663400Y-67817921D02*
X131663400Y-61583400D01*
D10*
X143492179Y-65767274D02*
X143070253Y-65767274D01*
X143070253Y-65073561D01*
X142396267Y-65073561D01*
X142396267Y-64754652D01*
X143070253Y-64754652D01*
X143070253Y-64449989D01*
X142353527Y-64449989D01*
X142353527Y-64131080D01*
X143492179Y-64131080D01*
X143492179Y-65767274D01*
G36*
X143492179Y-65767274D02*
G01*
X143070253Y-65767274D01*
X143070253Y-65073561D01*
X142396267Y-65073561D01*
X142396267Y-64754652D01*
X143070253Y-64754652D01*
X143070253Y-64449989D01*
X142353527Y-64449989D01*
X142353527Y-64131080D01*
X143492179Y-64131080D01*
X143492179Y-65767274D01*
G37*
X138641620Y-65767274D02*
X138217502Y-65767274D01*
X138113391Y-65469185D01*
X137453652Y-65469185D01*
X137350636Y-65767274D01*
X136926518Y-65767274D01*
X137149370Y-65165614D01*
X137559955Y-65165614D01*
X138008183Y-65165614D01*
X137783521Y-64514644D01*
X137559955Y-65165614D01*
X137149370Y-65165614D01*
X137532557Y-64131080D01*
X138035581Y-64131080D01*
X138641620Y-65767274D01*
G36*
X138641620Y-65767274D02*
G01*
X138217502Y-65767274D01*
X138113391Y-65469185D01*
X137453652Y-65469185D01*
X137350636Y-65767274D01*
X136926518Y-65767274D01*
X137149370Y-65165614D01*
X137559955Y-65165614D01*
X138008183Y-65165614D01*
X137783521Y-64514644D01*
X137559955Y-65165614D01*
X137149370Y-65165614D01*
X137532557Y-64131080D01*
X138035581Y-64131080D01*
X138641620Y-65767274D01*
G37*
D12*
X132796467Y-67134919D02*
X132820637Y-67136804D01*
X132844456Y-67139909D01*
X132867894Y-67144202D01*
X132890920Y-67149652D01*
X132913506Y-67156230D01*
X132935620Y-67163905D01*
X132957233Y-67172645D01*
X132978316Y-67182420D01*
X132998837Y-67193200D01*
X133018769Y-67204954D01*
X133038079Y-67217651D01*
X133056739Y-67231261D01*
X133074719Y-67245753D01*
X133091988Y-67261095D01*
X133108517Y-67277258D01*
X133124277Y-67294211D01*
X133139236Y-67311923D01*
X133153365Y-67330364D01*
X133166634Y-67349503D01*
X133179014Y-67369308D01*
X133190474Y-67389750D01*
X133200985Y-67410798D01*
X133210516Y-67432421D01*
X133219038Y-67454589D01*
X133226520Y-67477270D01*
X133232934Y-67500435D01*
X133238248Y-67524052D01*
X133242434Y-67548091D01*
X133245461Y-67572521D01*
X133247299Y-67597311D01*
X133247918Y-67622431D01*
X133247299Y-67647551D01*
X133245461Y-67672342D01*
X133242434Y-67696772D01*
X133238248Y-67720811D01*
X133232934Y-67744428D01*
X133226520Y-67767592D01*
X133219037Y-67790273D01*
X133210515Y-67812441D01*
X133200984Y-67834064D01*
X133190473Y-67855112D01*
X133179013Y-67875554D01*
X133166633Y-67895360D01*
X133153364Y-67914498D01*
X133139235Y-67932939D01*
X133124275Y-67950651D01*
X133108516Y-67967604D01*
X133091987Y-67983767D01*
X133074717Y-67999110D01*
X133056738Y-68013601D01*
X133038077Y-68027211D01*
X133018767Y-68039908D01*
X132998836Y-68051662D01*
X132978314Y-68062442D01*
X132957231Y-68072218D01*
X132935618Y-68080958D01*
X132913503Y-68088632D01*
X132890918Y-68095210D01*
X132867891Y-68100661D01*
X132844453Y-68104954D01*
X132820634Y-68108058D01*
X132796463Y-68109943D01*
X132771971Y-68110578D01*
X132747479Y-68109943D01*
X132723309Y-68108058D01*
X132699490Y-68104954D01*
X132676052Y-68100661D01*
X132653026Y-68095210D01*
X132630440Y-68088632D01*
X132608326Y-68080958D01*
X132586713Y-68072218D01*
X132565630Y-68062442D01*
X132545108Y-68051662D01*
X132525177Y-68039908D01*
X132505867Y-68027211D01*
X132487207Y-68013601D01*
X132469227Y-67999110D01*
X132451958Y-67983767D01*
X132435428Y-67967604D01*
X132419669Y-67950651D01*
X132404710Y-67932939D01*
X132390581Y-67914498D01*
X132377311Y-67895360D01*
X132364932Y-67875554D01*
X132353472Y-67855112D01*
X132342961Y-67834064D01*
X132333430Y-67812441D01*
X132324908Y-67790273D01*
X132317425Y-67767592D01*
X132311012Y-67744428D01*
X132305697Y-67720811D01*
X132301512Y-67696772D01*
X132298485Y-67672342D01*
X132296647Y-67647551D01*
X132296028Y-67622431D01*
X132296647Y-67597311D01*
X132298485Y-67572521D01*
X132301512Y-67548091D01*
X132305698Y-67524052D01*
X132311012Y-67500435D01*
X132317426Y-67477270D01*
X132324909Y-67454589D01*
X132333431Y-67432421D01*
X132342962Y-67410798D01*
X132353473Y-67389750D01*
X132364933Y-67369308D01*
X132377313Y-67349503D01*
X132390582Y-67330364D01*
X132404711Y-67311923D01*
X132419671Y-67294211D01*
X132435430Y-67277258D01*
X132451959Y-67261095D01*
X132469229Y-67245753D01*
X132487208Y-67231261D01*
X132505869Y-67217651D01*
X132525179Y-67204954D01*
X132545110Y-67193200D01*
X132565632Y-67182420D01*
X132586715Y-67172645D01*
X132608328Y-67163905D01*
X132630443Y-67156230D01*
X132653028Y-67149652D01*
X132676055Y-67144202D01*
X132699493Y-67139909D01*
X132723312Y-67136804D01*
X132747482Y-67134919D01*
X132771975Y-67134284D01*
X132796467Y-67134919D01*
G36*
X132796467Y-67134919D02*
G01*
X132820637Y-67136804D01*
X132844456Y-67139909D01*
X132867894Y-67144202D01*
X132890920Y-67149652D01*
X132913506Y-67156230D01*
X132935620Y-67163905D01*
X132957233Y-67172645D01*
X132978316Y-67182420D01*
X132998837Y-67193200D01*
X133018769Y-67204954D01*
X133038079Y-67217651D01*
X133056739Y-67231261D01*
X133074719Y-67245753D01*
X133091988Y-67261095D01*
X133108517Y-67277258D01*
X133124277Y-67294211D01*
X133139236Y-67311923D01*
X133153365Y-67330364D01*
X133166634Y-67349503D01*
X133179014Y-67369308D01*
X133190474Y-67389750D01*
X133200985Y-67410798D01*
X133210516Y-67432421D01*
X133219038Y-67454589D01*
X133226520Y-67477270D01*
X133232934Y-67500435D01*
X133238248Y-67524052D01*
X133242434Y-67548091D01*
X133245461Y-67572521D01*
X133247299Y-67597311D01*
X133247918Y-67622431D01*
X133247299Y-67647551D01*
X133245461Y-67672342D01*
X133242434Y-67696772D01*
X133238248Y-67720811D01*
X133232934Y-67744428D01*
X133226520Y-67767592D01*
X133219037Y-67790273D01*
X133210515Y-67812441D01*
X133200984Y-67834064D01*
X133190473Y-67855112D01*
X133179013Y-67875554D01*
X133166633Y-67895360D01*
X133153364Y-67914498D01*
X133139235Y-67932939D01*
X133124275Y-67950651D01*
X133108516Y-67967604D01*
X133091987Y-67983767D01*
X133074717Y-67999110D01*
X133056738Y-68013601D01*
X133038077Y-68027211D01*
X133018767Y-68039908D01*
X132998836Y-68051662D01*
X132978314Y-68062442D01*
X132957231Y-68072218D01*
X132935618Y-68080958D01*
X132913503Y-68088632D01*
X132890918Y-68095210D01*
X132867891Y-68100661D01*
X132844453Y-68104954D01*
X132820634Y-68108058D01*
X132796463Y-68109943D01*
X132771971Y-68110578D01*
X132747479Y-68109943D01*
X132723309Y-68108058D01*
X132699490Y-68104954D01*
X132676052Y-68100661D01*
X132653026Y-68095210D01*
X132630440Y-68088632D01*
X132608326Y-68080958D01*
X132586713Y-68072218D01*
X132565630Y-68062442D01*
X132545108Y-68051662D01*
X132525177Y-68039908D01*
X132505867Y-68027211D01*
X132487207Y-68013601D01*
X132469227Y-67999110D01*
X132451958Y-67983767D01*
X132435428Y-67967604D01*
X132419669Y-67950651D01*
X132404710Y-67932939D01*
X132390581Y-67914498D01*
X132377311Y-67895360D01*
X132364932Y-67875554D01*
X132353472Y-67855112D01*
X132342961Y-67834064D01*
X132333430Y-67812441D01*
X132324908Y-67790273D01*
X132317425Y-67767592D01*
X132311012Y-67744428D01*
X132305697Y-67720811D01*
X132301512Y-67696772D01*
X132298485Y-67672342D01*
X132296647Y-67647551D01*
X132296028Y-67622431D01*
X132296647Y-67597311D01*
X132298485Y-67572521D01*
X132301512Y-67548091D01*
X132305698Y-67524052D01*
X132311012Y-67500435D01*
X132317426Y-67477270D01*
X132324909Y-67454589D01*
X132333431Y-67432421D01*
X132342962Y-67410798D01*
X132353473Y-67389750D01*
X132364933Y-67369308D01*
X132377313Y-67349503D01*
X132390582Y-67330364D01*
X132404711Y-67311923D01*
X132419671Y-67294211D01*
X132435430Y-67277258D01*
X132451959Y-67261095D01*
X132469229Y-67245753D01*
X132487208Y-67231261D01*
X132505869Y-67217651D01*
X132525179Y-67204954D01*
X132545110Y-67193200D01*
X132565632Y-67182420D01*
X132586715Y-67172645D01*
X132608328Y-67163905D01*
X132630443Y-67156230D01*
X132653028Y-67149652D01*
X132676055Y-67144202D01*
X132699493Y-67139909D01*
X132723312Y-67136804D01*
X132747482Y-67134919D01*
X132771975Y-67134284D01*
X132796467Y-67134919D01*
G37*
D10*
X139538893Y-66223641D02*
X139587098Y-66226244D01*
X139633977Y-66230583D01*
X139679528Y-66236657D01*
X139723754Y-66244467D01*
X139766652Y-66254012D01*
X139808224Y-66265292D01*
X139848470Y-66278308D01*
X139887388Y-66293060D01*
X139924980Y-66309546D01*
X139961246Y-66327769D01*
X139996185Y-66347726D01*
X140029797Y-66369419D01*
X140062082Y-66392848D01*
X140093041Y-66418011D01*
X140122673Y-66444910D01*
X140150608Y-66473307D01*
X140176740Y-66502964D01*
X140201070Y-66533881D01*
X140223598Y-66566058D01*
X140244323Y-66599494D01*
X140263246Y-66634191D01*
X140280368Y-66670147D01*
X140295686Y-66707364D01*
X140309203Y-66745840D01*
X140320917Y-66785577D01*
X140330830Y-66826573D01*
X140338940Y-66868829D01*
X140345247Y-66912345D01*
X140349753Y-66957121D01*
X140352456Y-67003157D01*
X140353357Y-67050452D01*
X140352452Y-67097748D01*
X140349736Y-67143784D01*
X140345210Y-67188560D01*
X140338873Y-67232076D01*
X140330725Y-67274332D01*
X140320767Y-67315328D01*
X140308999Y-67355065D01*
X140295419Y-67393541D01*
X140280030Y-67430757D01*
X140262829Y-67466714D01*
X140243818Y-67501411D01*
X140222997Y-67534847D01*
X140200365Y-67567024D01*
X140175923Y-67597941D01*
X140149670Y-67627598D01*
X140121606Y-67655994D01*
X140091978Y-67682765D01*
X140061031Y-67707808D01*
X140028767Y-67731124D01*
X139995184Y-67752713D01*
X139960282Y-67772575D01*
X139924063Y-67790709D01*
X139886525Y-67807117D01*
X139847669Y-67821797D01*
X139807494Y-67834750D01*
X139766002Y-67845976D01*
X139723191Y-67855475D01*
X139679062Y-67863247D01*
X139633614Y-67869292D01*
X139586848Y-67873610D01*
X139538764Y-67876200D01*
X139489362Y-67877064D01*
X139456401Y-67876601D01*
X139423731Y-67875212D01*
X139391354Y-67872896D01*
X139359269Y-67869655D01*
X139327476Y-67865487D01*
X139295974Y-67860393D01*
X139264765Y-67854374D01*
X139233848Y-67847427D01*
X139203223Y-67839555D01*
X139172890Y-67830757D01*
X139142849Y-67821032D01*
X139113099Y-67810381D01*
X139083642Y-67798804D01*
X139054477Y-67786301D01*
X139025604Y-67772871D01*
X138997023Y-67758515D01*
X138997023Y-67428510D01*
X139024599Y-67446745D01*
X139052325Y-67463804D01*
X139080201Y-67479686D01*
X139108227Y-67494392D01*
X139136403Y-67507921D01*
X139164730Y-67520274D01*
X139193207Y-67531450D01*
X139221833Y-67541450D01*
X139250611Y-67550273D01*
X139279538Y-67557920D01*
X139308615Y-67564391D01*
X139337843Y-67569685D01*
X139367221Y-67573802D01*
X139396748Y-67576743D01*
X139426427Y-67578508D01*
X139456255Y-67579096D01*
X139456253Y-67579108D01*
X139483896Y-67578554D01*
X139510754Y-67576889D01*
X139536827Y-67574115D01*
X139562117Y-67570231D01*
X139586622Y-67565238D01*
X139610343Y-67559134D01*
X139633279Y-67551922D01*
X139655432Y-67543599D01*
X139676799Y-67534167D01*
X139697383Y-67523625D01*
X139717182Y-67511973D01*
X139736197Y-67499211D01*
X139754428Y-67485340D01*
X139771875Y-67470359D01*
X139788537Y-67454268D01*
X139804415Y-67437067D01*
X139819416Y-67418911D01*
X139833450Y-67399955D01*
X139846516Y-67380197D01*
X139858615Y-67359638D01*
X139869745Y-67338278D01*
X139879907Y-67316117D01*
X139889102Y-67293156D01*
X139897329Y-67269393D01*
X139904588Y-67244830D01*
X139910879Y-67219465D01*
X139916202Y-67193300D01*
X139920557Y-67166333D01*
X139923945Y-67138566D01*
X139926364Y-67109998D01*
X139927816Y-67080629D01*
X139928300Y-67050459D01*
X139927816Y-67020288D01*
X139926364Y-66990919D01*
X139923945Y-66962351D01*
X139920557Y-66934584D01*
X139916202Y-66907617D01*
X139910879Y-66881452D01*
X139904588Y-66856087D01*
X139897329Y-66831524D01*
X139889102Y-66807761D01*
X139879907Y-66784800D01*
X139869745Y-66762639D01*
X139858615Y-66741279D01*
X139846516Y-66720720D01*
X139833450Y-66700963D01*
X139819416Y-66682006D01*
X139804415Y-66663850D01*
X139788537Y-66646520D01*
X139771875Y-66630309D01*
X139754428Y-66615216D01*
X139736197Y-66601240D01*
X139717182Y-66588383D01*
X139697383Y-66576643D01*
X139676799Y-66566022D01*
X139655432Y-66556519D01*
X139633279Y-66548133D01*
X139610343Y-66540866D01*
X139586622Y-66534716D01*
X139562117Y-66529685D01*
X139536827Y-66525772D01*
X139510754Y-66522977D01*
X139483896Y-66521300D01*
X139456253Y-66520741D01*
X139426675Y-66521329D01*
X139397214Y-66523093D01*
X139367870Y-66526035D01*
X139338642Y-66530152D01*
X139309532Y-66535446D01*
X139280538Y-66541917D01*
X139251661Y-66549564D01*
X139222900Y-66558387D01*
X139194257Y-66568387D01*
X139165730Y-66579563D01*
X139137320Y-66591916D01*
X139109027Y-66605445D01*
X139080851Y-66620151D01*
X139052791Y-66636033D01*
X139024849Y-66653091D01*
X138997023Y-66671326D01*
X138997023Y-66341322D01*
X139025604Y-66326966D01*
X139054477Y-66313536D01*
X139083642Y-66301033D01*
X139113099Y-66289456D01*
X139142848Y-66278805D01*
X139172889Y-66269080D01*
X139203222Y-66260282D01*
X139233847Y-66252409D01*
X139264764Y-66245463D01*
X139295974Y-66239443D01*
X139327475Y-66234350D01*
X139359268Y-66230182D01*
X139391353Y-66226941D01*
X139423731Y-66224625D01*
X139456400Y-66223236D01*
X139489361Y-66222773D01*
X139538893Y-66223641D01*
G36*
X139538893Y-66223641D02*
G01*
X139587098Y-66226244D01*
X139633977Y-66230583D01*
X139679528Y-66236657D01*
X139723754Y-66244467D01*
X139766652Y-66254012D01*
X139808224Y-66265292D01*
X139848470Y-66278308D01*
X139887388Y-66293060D01*
X139924980Y-66309546D01*
X139961246Y-66327769D01*
X139996185Y-66347726D01*
X140029797Y-66369419D01*
X140062082Y-66392848D01*
X140093041Y-66418011D01*
X140122673Y-66444910D01*
X140150608Y-66473307D01*
X140176740Y-66502964D01*
X140201070Y-66533881D01*
X140223598Y-66566058D01*
X140244323Y-66599494D01*
X140263246Y-66634191D01*
X140280368Y-66670147D01*
X140295686Y-66707364D01*
X140309203Y-66745840D01*
X140320917Y-66785577D01*
X140330830Y-66826573D01*
X140338940Y-66868829D01*
X140345247Y-66912345D01*
X140349753Y-66957121D01*
X140352456Y-67003157D01*
X140353357Y-67050452D01*
X140352452Y-67097748D01*
X140349736Y-67143784D01*
X140345210Y-67188560D01*
X140338873Y-67232076D01*
X140330725Y-67274332D01*
X140320767Y-67315328D01*
X140308999Y-67355065D01*
X140295419Y-67393541D01*
X140280030Y-67430757D01*
X140262829Y-67466714D01*
X140243818Y-67501411D01*
X140222997Y-67534847D01*
X140200365Y-67567024D01*
X140175923Y-67597941D01*
X140149670Y-67627598D01*
X140121606Y-67655994D01*
X140091978Y-67682765D01*
X140061031Y-67707808D01*
X140028767Y-67731124D01*
X139995184Y-67752713D01*
X139960282Y-67772575D01*
X139924063Y-67790709D01*
X139886525Y-67807117D01*
X139847669Y-67821797D01*
X139807494Y-67834750D01*
X139766002Y-67845976D01*
X139723191Y-67855475D01*
X139679062Y-67863247D01*
X139633614Y-67869292D01*
X139586848Y-67873610D01*
X139538764Y-67876200D01*
X139489362Y-67877064D01*
X139456401Y-67876601D01*
X139423731Y-67875212D01*
X139391354Y-67872896D01*
X139359269Y-67869655D01*
X139327476Y-67865487D01*
X139295974Y-67860393D01*
X139264765Y-67854374D01*
X139233848Y-67847427D01*
X139203223Y-67839555D01*
X139172890Y-67830757D01*
X139142849Y-67821032D01*
X139113099Y-67810381D01*
X139083642Y-67798804D01*
X139054477Y-67786301D01*
X139025604Y-67772871D01*
X138997023Y-67758515D01*
X138997023Y-67428510D01*
X139024599Y-67446745D01*
X139052325Y-67463804D01*
X139080201Y-67479686D01*
X139108227Y-67494392D01*
X139136403Y-67507921D01*
X139164730Y-67520274D01*
X139193207Y-67531450D01*
X139221833Y-67541450D01*
X139250611Y-67550273D01*
X139279538Y-67557920D01*
X139308615Y-67564391D01*
X139337843Y-67569685D01*
X139367221Y-67573802D01*
X139396748Y-67576743D01*
X139426427Y-67578508D01*
X139456255Y-67579096D01*
X139456253Y-67579108D01*
X139483896Y-67578554D01*
X139510754Y-67576889D01*
X139536827Y-67574115D01*
X139562117Y-67570231D01*
X139586622Y-67565238D01*
X139610343Y-67559134D01*
X139633279Y-67551922D01*
X139655432Y-67543599D01*
X139676799Y-67534167D01*
X139697383Y-67523625D01*
X139717182Y-67511973D01*
X139736197Y-67499211D01*
X139754428Y-67485340D01*
X139771875Y-67470359D01*
X139788537Y-67454268D01*
X139804415Y-67437067D01*
X139819416Y-67418911D01*
X139833450Y-67399955D01*
X139846516Y-67380197D01*
X139858615Y-67359638D01*
X139869745Y-67338278D01*
X139879907Y-67316117D01*
X139889102Y-67293156D01*
X139897329Y-67269393D01*
X139904588Y-67244830D01*
X139910879Y-67219465D01*
X139916202Y-67193300D01*
X139920557Y-67166333D01*
X139923945Y-67138566D01*
X139926364Y-67109998D01*
X139927816Y-67080629D01*
X139928300Y-67050459D01*
X139927816Y-67020288D01*
X139926364Y-66990919D01*
X139923945Y-66962351D01*
X139920557Y-66934584D01*
X139916202Y-66907617D01*
X139910879Y-66881452D01*
X139904588Y-66856087D01*
X139897329Y-66831524D01*
X139889102Y-66807761D01*
X139879907Y-66784800D01*
X139869745Y-66762639D01*
X139858615Y-66741279D01*
X139846516Y-66720720D01*
X139833450Y-66700963D01*
X139819416Y-66682006D01*
X139804415Y-66663850D01*
X139788537Y-66646520D01*
X139771875Y-66630309D01*
X139754428Y-66615216D01*
X139736197Y-66601240D01*
X139717182Y-66588383D01*
X139697383Y-66576643D01*
X139676799Y-66566022D01*
X139655432Y-66556519D01*
X139633279Y-66548133D01*
X139610343Y-66540866D01*
X139586622Y-66534716D01*
X139562117Y-66529685D01*
X139536827Y-66525772D01*
X139510754Y-66522977D01*
X139483896Y-66521300D01*
X139456253Y-66520741D01*
X139426675Y-66521329D01*
X139397214Y-66523093D01*
X139367870Y-66526035D01*
X139338642Y-66530152D01*
X139309532Y-66535446D01*
X139280538Y-66541917D01*
X139251661Y-66549564D01*
X139222900Y-66558387D01*
X139194257Y-66568387D01*
X139165730Y-66579563D01*
X139137320Y-66591916D01*
X139109027Y-66605445D01*
X139080851Y-66620151D01*
X139052791Y-66636033D01*
X139024849Y-66653091D01*
X138997023Y-66671326D01*
X138997023Y-66341322D01*
X139025604Y-66326966D01*
X139054477Y-66313536D01*
X139083642Y-66301033D01*
X139113099Y-66289456D01*
X139142848Y-66278805D01*
X139172889Y-66269080D01*
X139203222Y-66260282D01*
X139233847Y-66252409D01*
X139264764Y-66245463D01*
X139295974Y-66239443D01*
X139327475Y-66234350D01*
X139359268Y-66230182D01*
X139391353Y-66226941D01*
X139423731Y-66224625D01*
X139456400Y-66223236D01*
X139489361Y-66222773D01*
X139538893Y-66223641D01*
G37*
D11*
X132485245Y-68649470D02*
X131663400Y-67817921D01*
X131663400Y-61583400D02*
X144543401Y-61583400D01*
D10*
X134642603Y-65767274D02*
X134220677Y-65767274D01*
X134220677Y-64131080D01*
X134642603Y-64131080D01*
X134642603Y-65767274D01*
G36*
X134642603Y-65767274D02*
G01*
X134220677Y-65767274D01*
X134220677Y-64131080D01*
X134642603Y-64131080D01*
X134642603Y-65767274D01*
G37*
X139626102Y-64101987D02*
X139660529Y-64103477D01*
X139693980Y-64105960D01*
X139726455Y-64109436D01*
X139757954Y-64113905D01*
X139788476Y-64119368D01*
X139818023Y-64125823D01*
X139846594Y-64133272D01*
X139874189Y-64141714D01*
X139900808Y-64151149D01*
X139926450Y-64161577D01*
X139951117Y-64172999D01*
X139974807Y-64185413D01*
X139997522Y-64198820D01*
X140019260Y-64213221D01*
X140040023Y-64228614D01*
X140059663Y-64244997D01*
X140078037Y-64262364D01*
X140095144Y-64280716D01*
X140110983Y-64300053D01*
X140125555Y-64320374D01*
X140138860Y-64341680D01*
X140150898Y-64363971D01*
X140161669Y-64387246D01*
X140171172Y-64411506D01*
X140179409Y-64436751D01*
X140186378Y-64462980D01*
X140192080Y-64490194D01*
X140196515Y-64518392D01*
X140199683Y-64547575D01*
X140201584Y-64577742D01*
X140202217Y-64608894D01*
X140201751Y-64634143D01*
X140200351Y-64658656D01*
X140198018Y-64682433D01*
X140194752Y-64705473D01*
X140190552Y-64727777D01*
X140185419Y-64749344D01*
X140179353Y-64770175D01*
X140172354Y-64790270D01*
X140164421Y-64809628D01*
X140155556Y-64828250D01*
X140145757Y-64846136D01*
X140135025Y-64863285D01*
X140123359Y-64879698D01*
X140110760Y-64895375D01*
X140097228Y-64910315D01*
X140082763Y-64924519D01*
X140067386Y-64938124D01*
X140051119Y-64951266D01*
X140033961Y-64963946D01*
X140015913Y-64976164D01*
X139996974Y-64987919D01*
X139977145Y-64999212D01*
X139956425Y-65010043D01*
X139934815Y-65020411D01*
X139912315Y-65030317D01*
X139888924Y-65039761D01*
X139864642Y-65048742D01*
X139839471Y-65057261D01*
X139813409Y-65065318D01*
X139786456Y-65072912D01*
X139758613Y-65080044D01*
X139729879Y-65086714D01*
X139566588Y-65122877D01*
X139549914Y-65126619D01*
X139533865Y-65130446D01*
X139518441Y-65134358D01*
X139503642Y-65138357D01*
X139489468Y-65142440D01*
X139475919Y-65146610D01*
X139462995Y-65150865D01*
X139450696Y-65155205D01*
X139439022Y-65159631D01*
X139427973Y-65164143D01*
X139417548Y-65168741D01*
X139407749Y-65173424D01*
X139398575Y-65178192D01*
X139390026Y-65183047D01*
X139382102Y-65187987D01*
X139374804Y-65193013D01*
X139367903Y-65198244D01*
X139361447Y-65203801D01*
X139355436Y-65209683D01*
X139349871Y-65215890D01*
X139344751Y-65222423D01*
X139340076Y-65229281D01*
X139335847Y-65236465D01*
X139332063Y-65243974D01*
X139328723Y-65251808D01*
X139325830Y-65259968D01*
X139323381Y-65268452D01*
X139321377Y-65277262D01*
X139319819Y-65286398D01*
X139318706Y-65295858D01*
X139318038Y-65305644D01*
X139317816Y-65315754D01*
X139317859Y-65319576D01*
X139317987Y-65323373D01*
X139318201Y-65327144D01*
X139318501Y-65330889D01*
X139318886Y-65334609D01*
X139319357Y-65338303D01*
X139319913Y-65341971D01*
X139320556Y-65345614D01*
X139321283Y-65349232D01*
X139322097Y-65352823D01*
X139322996Y-65356389D01*
X139323980Y-65359930D01*
X139325051Y-65363445D01*
X139326207Y-65366934D01*
X139327448Y-65370397D01*
X139328775Y-65373835D01*
X139330214Y-65377269D01*
X139331789Y-65380720D01*
X139333502Y-65384188D01*
X139335351Y-65387673D01*
X139337338Y-65391174D01*
X139339461Y-65394693D01*
X139341721Y-65398230D01*
X139344119Y-65401783D01*
X139346653Y-65405353D01*
X139349324Y-65408940D01*
X139352132Y-65412545D01*
X139355078Y-65416166D01*
X139358160Y-65419805D01*
X139361379Y-65423461D01*
X139364735Y-65427134D01*
X139368228Y-65430824D01*
X139371914Y-65434341D01*
X139375848Y-65437774D01*
X139380031Y-65441120D01*
X139384462Y-65444382D01*
X139389141Y-65447558D01*
X139394068Y-65450648D01*
X139399244Y-65453653D01*
X139404668Y-65456572D01*
X139410340Y-65459406D01*
X139416260Y-65462155D01*
X139422429Y-65464818D01*
X139428846Y-65467396D01*
X139435511Y-65469888D01*
X139442425Y-65472294D01*
X139449587Y-65474615D01*
X139456997Y-65476851D01*
X139472220Y-65480704D01*
X139488299Y-65484044D01*
X139505235Y-65486870D01*
X139523026Y-65489183D01*
X139541674Y-65490981D01*
X139561178Y-65492266D01*
X139581538Y-65493036D01*
X139602754Y-65493293D01*
X139636376Y-65492638D01*
X139670392Y-65490674D01*
X139704802Y-65487399D01*
X139739605Y-65482814D01*
X139774803Y-65476919D01*
X139810394Y-65469715D01*
X139846380Y-65461200D01*
X139882759Y-65451375D01*
X139919532Y-65440241D01*
X139956698Y-65427796D01*
X139994259Y-65414041D01*
X140032214Y-65398977D01*
X140070562Y-65382602D01*
X140109304Y-65364917D01*
X140148440Y-65345922D01*
X140187970Y-65325618D01*
X140187970Y-65681788D01*
X140148539Y-65695988D01*
X140109150Y-65709271D01*
X140069805Y-65721639D01*
X140030501Y-65733090D01*
X139991241Y-65743625D01*
X139952024Y-65753244D01*
X139912849Y-65761947D01*
X139873717Y-65769734D01*
X139834628Y-65776604D01*
X139795582Y-65782559D01*
X139756579Y-65787597D01*
X139717618Y-65791720D01*
X139678701Y-65794926D01*
X139639826Y-65797216D01*
X139600994Y-65798591D01*
X139562204Y-65799049D01*
X139523068Y-65798552D01*
X139485114Y-65797062D01*
X139448341Y-65794579D01*
X139412749Y-65791103D01*
X139378339Y-65786634D01*
X139345111Y-65781171D01*
X139313064Y-65774716D01*
X139282199Y-65767267D01*
X139252515Y-65758825D01*
X139224013Y-65749390D01*
X139196692Y-65738962D01*
X139170553Y-65727541D01*
X139145595Y-65715127D01*
X139121819Y-65701719D01*
X139099224Y-65687319D01*
X139077811Y-65671925D01*
X139057639Y-65655436D01*
X139038769Y-65637747D01*
X139021200Y-65618860D01*
X139004933Y-65598774D01*
X138989967Y-65577490D01*
X138976302Y-65555007D01*
X138963939Y-65531325D01*
X138952877Y-65506444D01*
X138943116Y-65480365D01*
X138934657Y-65453087D01*
X138927500Y-65424610D01*
X138921643Y-65394935D01*
X138917089Y-65364061D01*
X138913835Y-65331988D01*
X138911883Y-65298717D01*
X138911232Y-65264247D01*
X138911703Y-65238207D01*
X138913116Y-65212963D01*
X138915470Y-65188515D01*
X138918767Y-65164864D01*
X138923005Y-65142009D01*
X138928185Y-65119950D01*
X138934306Y-65098687D01*
X138941370Y-65078220D01*
X138949375Y-65058549D01*
X138958322Y-65039675D01*
X138968211Y-65021597D01*
X138979042Y-65004315D01*
X138990814Y-64987828D01*
X139003529Y-64972139D01*
X139017185Y-64957245D01*
X139031783Y-64943147D01*
X139047275Y-64929539D01*
X139063890Y-64916385D01*
X139081626Y-64903684D01*
X139100483Y-64891437D01*
X139120462Y-64879643D01*
X139141562Y-64868304D01*
X139163785Y-64857418D01*
X139187128Y-64846985D01*
X139211594Y-64837007D01*
X139237181Y-64827482D01*
X139263889Y-64818410D01*
X139291719Y-64809793D01*
X139320671Y-64801629D01*
X139350744Y-64793919D01*
X139381939Y-64786662D01*
X139414256Y-64779860D01*
X139593985Y-64743696D01*
X139608789Y-64740507D01*
X139623061Y-64737241D01*
X139636803Y-64733898D01*
X139650014Y-64730478D01*
X139662694Y-64726981D01*
X139674843Y-64723407D01*
X139686461Y-64719756D01*
X139697549Y-64716027D01*
X139708105Y-64712222D01*
X139718131Y-64708340D01*
X139727626Y-64704380D01*
X139736590Y-64700343D01*
X139745024Y-64696229D01*
X139752926Y-64692038D01*
X139760298Y-64687770D01*
X139767139Y-64683424D01*
X139773509Y-64678775D01*
X139779468Y-64673869D01*
X139785016Y-64668707D01*
X139790153Y-64663287D01*
X139794879Y-64657611D01*
X139799195Y-64651677D01*
X139803099Y-64645487D01*
X139806592Y-64639040D01*
X139809674Y-64632336D01*
X139812346Y-64625375D01*
X139814606Y-64618158D01*
X139816455Y-64610683D01*
X139817894Y-64602952D01*
X139818921Y-64594964D01*
X139819537Y-64586719D01*
X139819743Y-64578218D01*
X139819478Y-64568093D01*
X139818681Y-64558268D01*
X139817354Y-64548743D01*
X139816492Y-64544093D01*
X139815496Y-64539517D01*
X139814368Y-64535017D01*
X139813108Y-64530591D01*
X139811714Y-64526241D01*
X139810188Y-64521965D01*
X139808529Y-64517764D01*
X139806738Y-64513639D01*
X139804813Y-64509588D01*
X139802756Y-64505612D01*
X139800567Y-64501711D01*
X139798244Y-64497885D01*
X139795789Y-64494134D01*
X139793201Y-64490457D01*
X139790481Y-64486856D01*
X139787628Y-64483330D01*
X139784642Y-64479878D01*
X139781523Y-64476502D01*
X139778272Y-64473200D01*
X139774888Y-64469973D01*
X139771371Y-64466821D01*
X139767721Y-64463744D01*
X139760024Y-64457816D01*
X139751796Y-64452186D01*
X139742943Y-64446745D01*
X139733371Y-64441655D01*
X139723080Y-64436916D01*
X139712069Y-64432528D01*
X139700340Y-64428491D01*
X139687891Y-64424805D01*
X139674723Y-64421470D01*
X139660836Y-64418486D01*
X139646229Y-64415853D01*
X139630904Y-64413571D01*
X139614859Y-64411640D01*
X139598095Y-64410061D01*
X139580612Y-64408832D01*
X139562409Y-64407954D01*
X139523847Y-64407252D01*
X139494518Y-64407727D01*
X139464890Y-64409153D01*
X139434963Y-64411528D01*
X139404735Y-64414855D01*
X139374208Y-64419131D01*
X139343381Y-64424358D01*
X139312255Y-64430535D01*
X139280829Y-64437662D01*
X139249103Y-64445740D01*
X139217077Y-64454768D01*
X139184752Y-64464747D01*
X139152127Y-64475676D01*
X139119203Y-64487555D01*
X139085979Y-64500385D01*
X139052455Y-64514165D01*
X139018631Y-64528895D01*
X139018631Y-64182588D01*
X139093256Y-64163581D01*
X139166991Y-64147108D01*
X139239834Y-64133169D01*
X139311788Y-64121765D01*
X139382851Y-64112895D01*
X139453023Y-64106559D01*
X139522305Y-64102758D01*
X139590697Y-64101490D01*
X139590699Y-64101490D01*
X139626102Y-64101987D01*
G36*
X139626102Y-64101987D02*
G01*
X139660529Y-64103477D01*
X139693980Y-64105960D01*
X139726455Y-64109436D01*
X139757954Y-64113905D01*
X139788476Y-64119368D01*
X139818023Y-64125823D01*
X139846594Y-64133272D01*
X139874189Y-64141714D01*
X139900808Y-64151149D01*
X139926450Y-64161577D01*
X139951117Y-64172999D01*
X139974807Y-64185413D01*
X139997522Y-64198820D01*
X140019260Y-64213221D01*
X140040023Y-64228614D01*
X140059663Y-64244997D01*
X140078037Y-64262364D01*
X140095144Y-64280716D01*
X140110983Y-64300053D01*
X140125555Y-64320374D01*
X140138860Y-64341680D01*
X140150898Y-64363971D01*
X140161669Y-64387246D01*
X140171172Y-64411506D01*
X140179409Y-64436751D01*
X140186378Y-64462980D01*
X140192080Y-64490194D01*
X140196515Y-64518392D01*
X140199683Y-64547575D01*
X140201584Y-64577742D01*
X140202217Y-64608894D01*
X140201751Y-64634143D01*
X140200351Y-64658656D01*
X140198018Y-64682433D01*
X140194752Y-64705473D01*
X140190552Y-64727777D01*
X140185419Y-64749344D01*
X140179353Y-64770175D01*
X140172354Y-64790270D01*
X140164421Y-64809628D01*
X140155556Y-64828250D01*
X140145757Y-64846136D01*
X140135025Y-64863285D01*
X140123359Y-64879698D01*
X140110760Y-64895375D01*
X140097228Y-64910315D01*
X140082763Y-64924519D01*
X140067386Y-64938124D01*
X140051119Y-64951266D01*
X140033961Y-64963946D01*
X140015913Y-64976164D01*
X139996974Y-64987919D01*
X139977145Y-64999212D01*
X139956425Y-65010043D01*
X139934815Y-65020411D01*
X139912315Y-65030317D01*
X139888924Y-65039761D01*
X139864642Y-65048742D01*
X139839471Y-65057261D01*
X139813409Y-65065318D01*
X139786456Y-65072912D01*
X139758613Y-65080044D01*
X139729879Y-65086714D01*
X139566588Y-65122877D01*
X139549914Y-65126619D01*
X139533865Y-65130446D01*
X139518441Y-65134358D01*
X139503642Y-65138357D01*
X139489468Y-65142440D01*
X139475919Y-65146610D01*
X139462995Y-65150865D01*
X139450696Y-65155205D01*
X139439022Y-65159631D01*
X139427973Y-65164143D01*
X139417548Y-65168741D01*
X139407749Y-65173424D01*
X139398575Y-65178192D01*
X139390026Y-65183047D01*
X139382102Y-65187987D01*
X139374804Y-65193013D01*
X139367903Y-65198244D01*
X139361447Y-65203801D01*
X139355436Y-65209683D01*
X139349871Y-65215890D01*
X139344751Y-65222423D01*
X139340076Y-65229281D01*
X139335847Y-65236465D01*
X139332063Y-65243974D01*
X139328723Y-65251808D01*
X139325830Y-65259968D01*
X139323381Y-65268452D01*
X139321377Y-65277262D01*
X139319819Y-65286398D01*
X139318706Y-65295858D01*
X139318038Y-65305644D01*
X139317816Y-65315754D01*
X139317859Y-65319576D01*
X139317987Y-65323373D01*
X139318201Y-65327144D01*
X139318501Y-65330889D01*
X139318886Y-65334609D01*
X139319357Y-65338303D01*
X139319913Y-65341971D01*
X139320556Y-65345614D01*
X139321283Y-65349232D01*
X139322097Y-65352823D01*
X139322996Y-65356389D01*
X139323980Y-65359930D01*
X139325051Y-65363445D01*
X139326207Y-65366934D01*
X139327448Y-65370397D01*
X139328775Y-65373835D01*
X139330214Y-65377269D01*
X139331789Y-65380720D01*
X139333502Y-65384188D01*
X139335351Y-65387673D01*
X139337338Y-65391174D01*
X139339461Y-65394693D01*
X139341721Y-65398230D01*
X139344119Y-65401783D01*
X139346653Y-65405353D01*
X139349324Y-65408940D01*
X139352132Y-65412545D01*
X139355078Y-65416166D01*
X139358160Y-65419805D01*
X139361379Y-65423461D01*
X139364735Y-65427134D01*
X139368228Y-65430824D01*
X139371914Y-65434341D01*
X139375848Y-65437774D01*
X139380031Y-65441120D01*
X139384462Y-65444382D01*
X139389141Y-65447558D01*
X139394068Y-65450648D01*
X139399244Y-65453653D01*
X139404668Y-65456572D01*
X139410340Y-65459406D01*
X139416260Y-65462155D01*
X139422429Y-65464818D01*
X139428846Y-65467396D01*
X139435511Y-65469888D01*
X139442425Y-65472294D01*
X139449587Y-65474615D01*
X139456997Y-65476851D01*
X139472220Y-65480704D01*
X139488299Y-65484044D01*
X139505235Y-65486870D01*
X139523026Y-65489183D01*
X139541674Y-65490981D01*
X139561178Y-65492266D01*
X139581538Y-65493036D01*
X139602754Y-65493293D01*
X139636376Y-65492638D01*
X139670392Y-65490674D01*
X139704802Y-65487399D01*
X139739605Y-65482814D01*
X139774803Y-65476919D01*
X139810394Y-65469715D01*
X139846380Y-65461200D01*
X139882759Y-65451375D01*
X139919532Y-65440241D01*
X139956698Y-65427796D01*
X139994259Y-65414041D01*
X140032214Y-65398977D01*
X140070562Y-65382602D01*
X140109304Y-65364917D01*
X140148440Y-65345922D01*
X140187970Y-65325618D01*
X140187970Y-65681788D01*
X140148539Y-65695988D01*
X140109150Y-65709271D01*
X140069805Y-65721639D01*
X140030501Y-65733090D01*
X139991241Y-65743625D01*
X139952024Y-65753244D01*
X139912849Y-65761947D01*
X139873717Y-65769734D01*
X139834628Y-65776604D01*
X139795582Y-65782559D01*
X139756579Y-65787597D01*
X139717618Y-65791720D01*
X139678701Y-65794926D01*
X139639826Y-65797216D01*
X139600994Y-65798591D01*
X139562204Y-65799049D01*
X139523068Y-65798552D01*
X139485114Y-65797062D01*
X139448341Y-65794579D01*
X139412749Y-65791103D01*
X139378339Y-65786634D01*
X139345111Y-65781171D01*
X139313064Y-65774716D01*
X139282199Y-65767267D01*
X139252515Y-65758825D01*
X139224013Y-65749390D01*
X139196692Y-65738962D01*
X139170553Y-65727541D01*
X139145595Y-65715127D01*
X139121819Y-65701719D01*
X139099224Y-65687319D01*
X139077811Y-65671925D01*
X139057639Y-65655436D01*
X139038769Y-65637747D01*
X139021200Y-65618860D01*
X139004933Y-65598774D01*
X138989967Y-65577490D01*
X138976302Y-65555007D01*
X138963939Y-65531325D01*
X138952877Y-65506444D01*
X138943116Y-65480365D01*
X138934657Y-65453087D01*
X138927500Y-65424610D01*
X138921643Y-65394935D01*
X138917089Y-65364061D01*
X138913835Y-65331988D01*
X138911883Y-65298717D01*
X138911232Y-65264247D01*
X138911703Y-65238207D01*
X138913116Y-65212963D01*
X138915470Y-65188515D01*
X138918767Y-65164864D01*
X138923005Y-65142009D01*
X138928185Y-65119950D01*
X138934306Y-65098687D01*
X138941370Y-65078220D01*
X138949375Y-65058549D01*
X138958322Y-65039675D01*
X138968211Y-65021597D01*
X138979042Y-65004315D01*
X138990814Y-64987828D01*
X139003529Y-64972139D01*
X139017185Y-64957245D01*
X139031783Y-64943147D01*
X139047275Y-64929539D01*
X139063890Y-64916385D01*
X139081626Y-64903684D01*
X139100483Y-64891437D01*
X139120462Y-64879643D01*
X139141562Y-64868304D01*
X139163785Y-64857418D01*
X139187128Y-64846985D01*
X139211594Y-64837007D01*
X139237181Y-64827482D01*
X139263889Y-64818410D01*
X139291719Y-64809793D01*
X139320671Y-64801629D01*
X139350744Y-64793919D01*
X139381939Y-64786662D01*
X139414256Y-64779860D01*
X139593985Y-64743696D01*
X139608789Y-64740507D01*
X139623061Y-64737241D01*
X139636803Y-64733898D01*
X139650014Y-64730478D01*
X139662694Y-64726981D01*
X139674843Y-64723407D01*
X139686461Y-64719756D01*
X139697549Y-64716027D01*
X139708105Y-64712222D01*
X139718131Y-64708340D01*
X139727626Y-64704380D01*
X139736590Y-64700343D01*
X139745024Y-64696229D01*
X139752926Y-64692038D01*
X139760298Y-64687770D01*
X139767139Y-64683424D01*
X139773509Y-64678775D01*
X139779468Y-64673869D01*
X139785016Y-64668707D01*
X139790153Y-64663287D01*
X139794879Y-64657611D01*
X139799195Y-64651677D01*
X139803099Y-64645487D01*
X139806592Y-64639040D01*
X139809674Y-64632336D01*
X139812346Y-64625375D01*
X139814606Y-64618158D01*
X139816455Y-64610683D01*
X139817894Y-64602952D01*
X139818921Y-64594964D01*
X139819537Y-64586719D01*
X139819743Y-64578218D01*
X139819478Y-64568093D01*
X139818681Y-64558268D01*
X139817354Y-64548743D01*
X139816492Y-64544093D01*
X139815496Y-64539517D01*
X139814368Y-64535017D01*
X139813108Y-64530591D01*
X139811714Y-64526241D01*
X139810188Y-64521965D01*
X139808529Y-64517764D01*
X139806738Y-64513639D01*
X139804813Y-64509588D01*
X139802756Y-64505612D01*
X139800567Y-64501711D01*
X139798244Y-64497885D01*
X139795789Y-64494134D01*
X139793201Y-64490457D01*
X139790481Y-64486856D01*
X139787628Y-64483330D01*
X139784642Y-64479878D01*
X139781523Y-64476502D01*
X139778272Y-64473200D01*
X139774888Y-64469973D01*
X139771371Y-64466821D01*
X139767721Y-64463744D01*
X139760024Y-64457816D01*
X139751796Y-64452186D01*
X139742943Y-64446745D01*
X139733371Y-64441655D01*
X139723080Y-64436916D01*
X139712069Y-64432528D01*
X139700340Y-64428491D01*
X139687891Y-64424805D01*
X139674723Y-64421470D01*
X139660836Y-64418486D01*
X139646229Y-64415853D01*
X139630904Y-64413571D01*
X139614859Y-64411640D01*
X139598095Y-64410061D01*
X139580612Y-64408832D01*
X139562409Y-64407954D01*
X139523847Y-64407252D01*
X139494518Y-64407727D01*
X139464890Y-64409153D01*
X139434963Y-64411528D01*
X139404735Y-64414855D01*
X139374208Y-64419131D01*
X139343381Y-64424358D01*
X139312255Y-64430535D01*
X139280829Y-64437662D01*
X139249103Y-64445740D01*
X139217077Y-64454768D01*
X139184752Y-64464747D01*
X139152127Y-64475676D01*
X139119203Y-64487555D01*
X139085979Y-64500385D01*
X139052455Y-64514165D01*
X139018631Y-64528895D01*
X139018631Y-64182588D01*
X139093256Y-64163581D01*
X139166991Y-64147108D01*
X139239834Y-64133169D01*
X139311788Y-64121765D01*
X139382851Y-64112895D01*
X139453023Y-64106559D01*
X139522305Y-64102758D01*
X139590697Y-64101490D01*
X139590699Y-64101490D01*
X139626102Y-64101987D01*
G37*
D11*
X144543401Y-68649470D02*
X132485245Y-68649470D01*
D10*
X134670911Y-67846101D02*
X134259739Y-67846101D01*
X134259739Y-67292884D01*
X133988472Y-67292884D01*
X133952123Y-67292375D01*
X133916767Y-67290848D01*
X133882404Y-67288303D01*
X133849033Y-67284741D01*
X133816656Y-67280160D01*
X133785272Y-67274561D01*
X133754880Y-67267945D01*
X133725481Y-67260310D01*
X133697076Y-67251658D01*
X133669663Y-67241988D01*
X133643243Y-67231300D01*
X133617816Y-67219594D01*
X133593382Y-67206870D01*
X133569940Y-67193129D01*
X133547492Y-67178370D01*
X133526036Y-67162592D01*
X133505732Y-67145671D01*
X133486738Y-67127748D01*
X133469054Y-67108824D01*
X133452680Y-67088899D01*
X133437615Y-67067973D01*
X133423861Y-67046046D01*
X133411416Y-67023118D01*
X133400282Y-66999188D01*
X133390457Y-66974258D01*
X133381943Y-66948326D01*
X133374738Y-66921393D01*
X133368843Y-66893459D01*
X133364258Y-66864524D01*
X133360984Y-66834587D01*
X133359019Y-66803650D01*
X133358364Y-66771711D01*
X133782351Y-66771711D01*
X133782610Y-66785127D01*
X133783386Y-66798143D01*
X133784679Y-66810758D01*
X133786490Y-66822972D01*
X133788818Y-66834787D01*
X133791663Y-66846201D01*
X133795025Y-66857214D01*
X133798905Y-66867827D01*
X133803302Y-66878039D01*
X133808216Y-66887851D01*
X133813648Y-66897263D01*
X133819597Y-66906274D01*
X133826063Y-66914884D01*
X133833047Y-66923094D01*
X133840548Y-66930904D01*
X133848566Y-66938313D01*
X133856918Y-66945167D01*
X133865687Y-66951580D01*
X133874873Y-66957550D01*
X133884477Y-66963078D01*
X133894497Y-66968163D01*
X133904935Y-66972807D01*
X133915790Y-66977008D01*
X133927062Y-66980766D01*
X133938752Y-66984083D01*
X133950858Y-66986957D01*
X133963382Y-66989389D01*
X133976323Y-66991379D01*
X133989681Y-66992927D01*
X134003456Y-66994032D01*
X134017649Y-66994695D01*
X134032259Y-66994917D01*
X134259738Y-66994917D01*
X134259738Y-66549567D01*
X134032259Y-66549567D01*
X134017649Y-66549789D01*
X134003456Y-66550452D01*
X133989681Y-66551557D01*
X133976323Y-66553105D01*
X133963382Y-66555095D01*
X133950858Y-66557527D01*
X133938752Y-66560401D01*
X133927062Y-66563718D01*
X133915790Y-66567476D01*
X133904935Y-66571677D01*
X133894497Y-66576321D01*
X133884477Y-66581406D01*
X133874873Y-66586934D01*
X133865687Y-66592904D01*
X133856918Y-66599317D01*
X133848566Y-66606171D01*
X133840548Y-66613452D01*
X133833047Y-66621141D01*
X133826063Y-66629238D01*
X133819597Y-66637745D01*
X133813648Y-66646660D01*
X133808216Y-66655984D01*
X133803302Y-66665717D01*
X133798905Y-66675858D01*
X133795025Y-66686409D01*
X133791663Y-66697368D01*
X133788818Y-66708736D01*
X133786490Y-66720513D01*
X133784679Y-66732699D01*
X133783386Y-66745294D01*
X133782610Y-66758298D01*
X133782351Y-66771711D01*
X133358364Y-66771711D01*
X133359019Y-66739775D01*
X133360984Y-66708849D01*
X133364258Y-66678933D01*
X133368843Y-66650026D01*
X133374738Y-66622129D01*
X133381943Y-66595241D01*
X133390457Y-66569364D01*
X133400282Y-66544495D01*
X133411416Y-66520637D01*
X133423861Y-66497788D01*
X133437615Y-66475949D01*
X133452680Y-66455119D01*
X133469054Y-66435299D01*
X133486738Y-66416489D01*
X133505732Y-66398689D01*
X133526036Y-66381898D01*
X133547367Y-66366121D01*
X133569707Y-66351361D01*
X133593056Y-66337620D01*
X133617415Y-66324896D01*
X133642784Y-66313190D01*
X133669162Y-66302502D01*
X133696550Y-66292832D01*
X133724948Y-66284180D01*
X133754355Y-66276545D01*
X133784771Y-66269929D01*
X133816197Y-66264330D01*
X133848633Y-66259750D01*
X133882078Y-66256187D01*
X133916533Y-66253642D01*
X133951998Y-66252115D01*
X133988472Y-66251606D01*
X134670911Y-66251606D01*
X134670911Y-67846101D01*
G36*
X134670911Y-67846101D02*
G01*
X134259739Y-67846101D01*
X134259739Y-67292884D01*
X133988472Y-67292884D01*
X133952123Y-67292375D01*
X133916767Y-67290848D01*
X133882404Y-67288303D01*
X133849033Y-67284741D01*
X133816656Y-67280160D01*
X133785272Y-67274561D01*
X133754880Y-67267945D01*
X133725481Y-67260310D01*
X133697076Y-67251658D01*
X133669663Y-67241988D01*
X133643243Y-67231300D01*
X133617816Y-67219594D01*
X133593382Y-67206870D01*
X133569940Y-67193129D01*
X133547492Y-67178370D01*
X133526036Y-67162592D01*
X133505732Y-67145671D01*
X133486738Y-67127748D01*
X133469054Y-67108824D01*
X133452680Y-67088899D01*
X133437615Y-67067973D01*
X133423861Y-67046046D01*
X133411416Y-67023118D01*
X133400282Y-66999188D01*
X133390457Y-66974258D01*
X133381943Y-66948326D01*
X133374738Y-66921393D01*
X133368843Y-66893459D01*
X133364258Y-66864524D01*
X133360984Y-66834587D01*
X133359019Y-66803650D01*
X133358364Y-66771711D01*
X133782351Y-66771711D01*
X133782610Y-66785127D01*
X133783386Y-66798143D01*
X133784679Y-66810758D01*
X133786490Y-66822972D01*
X133788818Y-66834787D01*
X133791663Y-66846201D01*
X133795025Y-66857214D01*
X133798905Y-66867827D01*
X133803302Y-66878039D01*
X133808216Y-66887851D01*
X133813648Y-66897263D01*
X133819597Y-66906274D01*
X133826063Y-66914884D01*
X133833047Y-66923094D01*
X133840548Y-66930904D01*
X133848566Y-66938313D01*
X133856918Y-66945167D01*
X133865687Y-66951580D01*
X133874873Y-66957550D01*
X133884477Y-66963078D01*
X133894497Y-66968163D01*
X133904935Y-66972807D01*
X133915790Y-66977008D01*
X133927062Y-66980766D01*
X133938752Y-66984083D01*
X133950858Y-66986957D01*
X133963382Y-66989389D01*
X133976323Y-66991379D01*
X133989681Y-66992927D01*
X134003456Y-66994032D01*
X134017649Y-66994695D01*
X134032259Y-66994917D01*
X134259738Y-66994917D01*
X134259738Y-66549567D01*
X134032259Y-66549567D01*
X134017649Y-66549789D01*
X134003456Y-66550452D01*
X133989681Y-66551557D01*
X133976323Y-66553105D01*
X133963382Y-66555095D01*
X133950858Y-66557527D01*
X133938752Y-66560401D01*
X133927062Y-66563718D01*
X133915790Y-66567476D01*
X133904935Y-66571677D01*
X133894497Y-66576321D01*
X133884477Y-66581406D01*
X133874873Y-66586934D01*
X133865687Y-66592904D01*
X133856918Y-66599317D01*
X133848566Y-66606171D01*
X133840548Y-66613452D01*
X133833047Y-66621141D01*
X133826063Y-66629238D01*
X133819597Y-66637745D01*
X133813648Y-66646660D01*
X133808216Y-66655984D01*
X133803302Y-66665717D01*
X133798905Y-66675858D01*
X133795025Y-66686409D01*
X133791663Y-66697368D01*
X133788818Y-66708736D01*
X133786490Y-66720513D01*
X133784679Y-66732699D01*
X133783386Y-66745294D01*
X133782610Y-66758298D01*
X133782351Y-66771711D01*
X133358364Y-66771711D01*
X133359019Y-66739775D01*
X133360984Y-66708849D01*
X133364258Y-66678933D01*
X133368843Y-66650026D01*
X133374738Y-66622129D01*
X133381943Y-66595241D01*
X133390457Y-66569364D01*
X133400282Y-66544495D01*
X133411416Y-66520637D01*
X133423861Y-66497788D01*
X133437615Y-66475949D01*
X133452680Y-66455119D01*
X133469054Y-66435299D01*
X133486738Y-66416489D01*
X133505732Y-66398689D01*
X133526036Y-66381898D01*
X133547367Y-66366121D01*
X133569707Y-66351361D01*
X133593056Y-66337620D01*
X133617415Y-66324896D01*
X133642784Y-66313190D01*
X133669162Y-66302502D01*
X133696550Y-66292832D01*
X133724948Y-66284180D01*
X133754355Y-66276545D01*
X133784771Y-66269929D01*
X133816197Y-66264330D01*
X133848633Y-66259750D01*
X133882078Y-66256187D01*
X133916533Y-66253642D01*
X133951998Y-66252115D01*
X133988472Y-66251606D01*
X134670911Y-66251606D01*
X134670911Y-67846101D01*
G37*
D13*
X143578935Y-70654323D02*
X144012268Y-70035276D01*
X144321792Y-70654323D02*
X144321792Y-69354323D01*
X144321792Y-69354323D02*
X143826554Y-69354323D01*
X143826554Y-69354323D02*
X143702744Y-69416228D01*
X143702744Y-69416228D02*
X143640839Y-69478133D01*
X143640839Y-69478133D02*
X143578935Y-69601942D01*
X143578935Y-69601942D02*
X143578935Y-69787657D01*
X143578935Y-69787657D02*
X143640839Y-69911466D01*
X143640839Y-69911466D02*
X143702744Y-69973371D01*
X143702744Y-69973371D02*
X143826554Y-70035276D01*
X143826554Y-70035276D02*
X144321792Y-70035276D01*
X142526554Y-70592419D02*
X142650363Y-70654323D01*
X142650363Y-70654323D02*
X142897982Y-70654323D01*
X142897982Y-70654323D02*
X143021792Y-70592419D01*
X143021792Y-70592419D02*
X143083696Y-70468609D01*
X143083696Y-70468609D02*
X143083696Y-69973371D01*
X143083696Y-69973371D02*
X143021792Y-69849561D01*
X143021792Y-69849561D02*
X142897982Y-69787657D01*
X142897982Y-69787657D02*
X142650363Y-69787657D01*
X142650363Y-69787657D02*
X142526554Y-69849561D01*
X142526554Y-69849561D02*
X142464649Y-69973371D01*
X142464649Y-69973371D02*
X142464649Y-70097180D01*
X142464649Y-70097180D02*
X143083696Y-70220990D01*
X141721791Y-70654323D02*
X141845601Y-70592419D01*
X141845601Y-70592419D02*
X141907506Y-70468609D01*
X141907506Y-70468609D02*
X141907506Y-69354323D01*
X139555125Y-70654323D02*
X140297982Y-70654323D01*
X139926554Y-70654323D02*
X139926554Y-69354323D01*
X139926554Y-69354323D02*
X140050363Y-69540038D01*
X140050363Y-69540038D02*
X140174173Y-69663847D01*
X140174173Y-69663847D02*
X140297982Y-69725752D01*
X138997983Y-70530514D02*
X138936078Y-70592419D01*
X138936078Y-70592419D02*
X138997983Y-70654323D01*
X138997983Y-70654323D02*
X139059887Y-70592419D01*
X139059887Y-70592419D02*
X138997983Y-70530514D01*
X138997983Y-70530514D02*
X138997983Y-70654323D01*
X138131316Y-69354323D02*
X138007506Y-69354323D01*
X138007506Y-69354323D02*
X137883697Y-69416228D01*
X137883697Y-69416228D02*
X137821792Y-69478133D01*
X137821792Y-69478133D02*
X137759887Y-69601942D01*
X137759887Y-69601942D02*
X137697982Y-69849561D01*
X137697982Y-69849561D02*
X137697982Y-70159085D01*
X137697982Y-70159085D02*
X137759887Y-70406704D01*
X137759887Y-70406704D02*
X137821792Y-70530514D01*
X137821792Y-70530514D02*
X137883697Y-70592419D01*
X137883697Y-70592419D02*
X138007506Y-70654323D01*
X138007506Y-70654323D02*
X138131316Y-70654323D01*
X138131316Y-70654323D02*
X138255125Y-70592419D01*
X138255125Y-70592419D02*
X138317030Y-70530514D01*
X138317030Y-70530514D02*
X138378935Y-70406704D01*
X138378935Y-70406704D02*
X138440839Y-70159085D01*
X138440839Y-70159085D02*
X138440839Y-69849561D01*
X138440839Y-69849561D02*
X138378935Y-69601942D01*
X138378935Y-69601942D02*
X138317030Y-69478133D01*
X138317030Y-69478133D02*
X138255125Y-69416228D01*
X138255125Y-69416228D02*
X138131316Y-69354323D01*
X144321792Y-74840177D02*
X144321792Y-73540177D01*
X144321792Y-73540177D02*
X143826554Y-73540177D01*
X143826554Y-73540177D02*
X143702744Y-73602082D01*
X143702744Y-73602082D02*
X143640839Y-73663987D01*
X143640839Y-73663987D02*
X143578935Y-73787796D01*
X143578935Y-73787796D02*
X143578935Y-73973511D01*
X143578935Y-73973511D02*
X143640839Y-74097320D01*
X143640839Y-74097320D02*
X143702744Y-74159225D01*
X143702744Y-74159225D02*
X143826554Y-74221130D01*
X143826554Y-74221130D02*
X144321792Y-74221130D01*
X142278935Y-74716368D02*
X142340839Y-74778273D01*
X142340839Y-74778273D02*
X142526554Y-74840177D01*
X142526554Y-74840177D02*
X142650363Y-74840177D01*
X142650363Y-74840177D02*
X142836077Y-74778273D01*
X142836077Y-74778273D02*
X142959887Y-74654463D01*
X142959887Y-74654463D02*
X143021792Y-74530653D01*
X143021792Y-74530653D02*
X143083696Y-74283034D01*
X143083696Y-74283034D02*
X143083696Y-74097320D01*
X143083696Y-74097320D02*
X143021792Y-73849701D01*
X143021792Y-73849701D02*
X142959887Y-73725892D01*
X142959887Y-73725892D02*
X142836077Y-73602082D01*
X142836077Y-73602082D02*
X142650363Y-73540177D01*
X142650363Y-73540177D02*
X142526554Y-73540177D01*
X142526554Y-73540177D02*
X142340839Y-73602082D01*
X142340839Y-73602082D02*
X142278935Y-73663987D01*
X141288458Y-74159225D02*
X141102744Y-74221130D01*
X141102744Y-74221130D02*
X141040839Y-74283034D01*
X141040839Y-74283034D02*
X140978935Y-74406844D01*
X140978935Y-74406844D02*
X140978935Y-74592558D01*
X140978935Y-74592558D02*
X141040839Y-74716368D01*
X141040839Y-74716368D02*
X141102744Y-74778273D01*
X141102744Y-74778273D02*
X141226554Y-74840177D01*
X141226554Y-74840177D02*
X141721792Y-74840177D01*
X141721792Y-74840177D02*
X141721792Y-73540177D01*
X141721792Y-73540177D02*
X141288458Y-73540177D01*
X141288458Y-73540177D02*
X141164649Y-73602082D01*
X141164649Y-73602082D02*
X141102744Y-73663987D01*
X141102744Y-73663987D02*
X141040839Y-73787796D01*
X141040839Y-73787796D02*
X141040839Y-73911606D01*
X141040839Y-73911606D02*
X141102744Y-74035415D01*
X141102744Y-74035415D02*
X141164649Y-74097320D01*
X141164649Y-74097320D02*
X141288458Y-74159225D01*
X141288458Y-74159225D02*
X141721792Y-74159225D01*
X138874173Y-74778273D02*
X138997982Y-74840177D01*
X138997982Y-74840177D02*
X139245601Y-74840177D01*
X139245601Y-74840177D02*
X139369411Y-74778273D01*
X139369411Y-74778273D02*
X139431316Y-74716368D01*
X139431316Y-74716368D02*
X139493220Y-74592558D01*
X139493220Y-74592558D02*
X139493220Y-74221130D01*
X139493220Y-74221130D02*
X139431316Y-74097320D01*
X139431316Y-74097320D02*
X139369411Y-74035415D01*
X139369411Y-74035415D02*
X139245601Y-73973511D01*
X139245601Y-73973511D02*
X138997982Y-73973511D01*
X138997982Y-73973511D02*
X138874173Y-74035415D01*
X137759887Y-73973511D02*
X137759887Y-74840177D01*
X138317030Y-73973511D02*
X138317030Y-74654463D01*
X138317030Y-74654463D02*
X138255125Y-74778273D01*
X138255125Y-74778273D02*
X138131315Y-74840177D01*
X138131315Y-74840177D02*
X137945601Y-74840177D01*
X137945601Y-74840177D02*
X137821792Y-74778273D01*
X137821792Y-74778273D02*
X137759887Y-74716368D01*
X137202744Y-74778273D02*
X137078935Y-74840177D01*
X137078935Y-74840177D02*
X136831316Y-74840177D01*
X136831316Y-74840177D02*
X136707506Y-74778273D01*
X136707506Y-74778273D02*
X136645602Y-74654463D01*
X136645602Y-74654463D02*
X136645602Y-74592558D01*
X136645602Y-74592558D02*
X136707506Y-74468749D01*
X136707506Y-74468749D02*
X136831316Y-74406844D01*
X136831316Y-74406844D02*
X137017030Y-74406844D01*
X137017030Y-74406844D02*
X137140840Y-74344939D01*
X137140840Y-74344939D02*
X137202744Y-74221130D01*
X137202744Y-74221130D02*
X137202744Y-74159225D01*
X137202744Y-74159225D02*
X137140840Y-74035415D01*
X137140840Y-74035415D02*
X137017030Y-73973511D01*
X137017030Y-73973511D02*
X136831316Y-73973511D01*
X136831316Y-73973511D02*
X136707506Y-74035415D01*
X136274173Y-73973511D02*
X135778935Y-73973511D01*
X136088459Y-73540177D02*
X136088459Y-74654463D01*
X136088459Y-74654463D02*
X136026554Y-74778273D01*
X136026554Y-74778273D02*
X135902744Y-74840177D01*
X135902744Y-74840177D02*
X135778935Y-74840177D01*
X135159887Y-74840177D02*
X135283697Y-74778273D01*
X135283697Y-74778273D02*
X135345602Y-74716368D01*
X135345602Y-74716368D02*
X135407506Y-74592558D01*
X135407506Y-74592558D02*
X135407506Y-74221130D01*
X135407506Y-74221130D02*
X135345602Y-74097320D01*
X135345602Y-74097320D02*
X135283697Y-74035415D01*
X135283697Y-74035415D02*
X135159887Y-73973511D01*
X135159887Y-73973511D02*
X134974173Y-73973511D01*
X134974173Y-73973511D02*
X134850364Y-74035415D01*
X134850364Y-74035415D02*
X134788459Y-74097320D01*
X134788459Y-74097320D02*
X134726554Y-74221130D01*
X134726554Y-74221130D02*
X134726554Y-74592558D01*
X134726554Y-74592558D02*
X134788459Y-74716368D01*
X134788459Y-74716368D02*
X134850364Y-74778273D01*
X134850364Y-74778273D02*
X134974173Y-74840177D01*
X134974173Y-74840177D02*
X135159887Y-74840177D01*
X134169412Y-74840177D02*
X134169412Y-73973511D01*
X134169412Y-74097320D02*
X134107507Y-74035415D01*
X134107507Y-74035415D02*
X133983697Y-73973511D01*
X133983697Y-73973511D02*
X133797983Y-73973511D01*
X133797983Y-73973511D02*
X133674174Y-74035415D01*
X133674174Y-74035415D02*
X133612269Y-74159225D01*
X133612269Y-74159225D02*
X133612269Y-74840177D01*
X133612269Y-74159225D02*
X133550364Y-74035415D01*
X133550364Y-74035415D02*
X133426555Y-73973511D01*
X133426555Y-73973511D02*
X133240840Y-73973511D01*
X133240840Y-73973511D02*
X133117031Y-74035415D01*
X133117031Y-74035415D02*
X133055126Y-74159225D01*
X133055126Y-74159225D02*
X133055126Y-74840177D01*
X131445603Y-74840177D02*
X131445603Y-73973511D01*
X131445603Y-74097320D02*
X131383698Y-74035415D01*
X131383698Y-74035415D02*
X131259888Y-73973511D01*
X131259888Y-73973511D02*
X131074174Y-73973511D01*
X131074174Y-73973511D02*
X130950365Y-74035415D01*
X130950365Y-74035415D02*
X130888460Y-74159225D01*
X130888460Y-74159225D02*
X130888460Y-74840177D01*
X130888460Y-74159225D02*
X130826555Y-74035415D01*
X130826555Y-74035415D02*
X130702746Y-73973511D01*
X130702746Y-73973511D02*
X130517031Y-73973511D01*
X130517031Y-73973511D02*
X130393222Y-74035415D01*
X130393222Y-74035415D02*
X130331317Y-74159225D01*
X130331317Y-74159225D02*
X130331317Y-74840177D01*
X129526555Y-74840177D02*
X129650365Y-74778273D01*
X129650365Y-74778273D02*
X129712270Y-74716368D01*
X129712270Y-74716368D02*
X129774174Y-74592558D01*
X129774174Y-74592558D02*
X129774174Y-74221130D01*
X129774174Y-74221130D02*
X129712270Y-74097320D01*
X129712270Y-74097320D02*
X129650365Y-74035415D01*
X129650365Y-74035415D02*
X129526555Y-73973511D01*
X129526555Y-73973511D02*
X129340841Y-73973511D01*
X129340841Y-73973511D02*
X129217032Y-74035415D01*
X129217032Y-74035415D02*
X129155127Y-74097320D01*
X129155127Y-74097320D02*
X129093222Y-74221130D01*
X129093222Y-74221130D02*
X129093222Y-74592558D01*
X129093222Y-74592558D02*
X129155127Y-74716368D01*
X129155127Y-74716368D02*
X129217032Y-74778273D01*
X129217032Y-74778273D02*
X129340841Y-74840177D01*
X129340841Y-74840177D02*
X129526555Y-74840177D01*
X127978937Y-74840177D02*
X127978937Y-73540177D01*
X127978937Y-74778273D02*
X128102746Y-74840177D01*
X128102746Y-74840177D02*
X128350365Y-74840177D01*
X128350365Y-74840177D02*
X128474175Y-74778273D01*
X128474175Y-74778273D02*
X128536080Y-74716368D01*
X128536080Y-74716368D02*
X128597984Y-74592558D01*
X128597984Y-74592558D02*
X128597984Y-74221130D01*
X128597984Y-74221130D02*
X128536080Y-74097320D01*
X128536080Y-74097320D02*
X128474175Y-74035415D01*
X128474175Y-74035415D02*
X128350365Y-73973511D01*
X128350365Y-73973511D02*
X128102746Y-73973511D01*
X128102746Y-73973511D02*
X127978937Y-74035415D01*
X127359890Y-74840177D02*
X127359890Y-73973511D01*
X127359890Y-73540177D02*
X127421794Y-73602082D01*
X127421794Y-73602082D02*
X127359890Y-73663987D01*
X127359890Y-73663987D02*
X127297985Y-73602082D01*
X127297985Y-73602082D02*
X127359890Y-73540177D01*
X127359890Y-73540177D02*
X127359890Y-73663987D01*
X126926556Y-73973511D02*
X126431318Y-73973511D01*
X126740842Y-74840177D02*
X126740842Y-73725892D01*
X126740842Y-73725892D02*
X126678937Y-73602082D01*
X126678937Y-73602082D02*
X126555127Y-73540177D01*
X126555127Y-73540177D02*
X126431318Y-73540177D01*
X125997985Y-74840177D02*
X125997985Y-73973511D01*
X125997985Y-73540177D02*
X126059889Y-73602082D01*
X126059889Y-73602082D02*
X125997985Y-73663987D01*
X125997985Y-73663987D02*
X125936080Y-73602082D01*
X125936080Y-73602082D02*
X125997985Y-73540177D01*
X125997985Y-73540177D02*
X125997985Y-73663987D01*
X124883699Y-74778273D02*
X125007508Y-74840177D01*
X125007508Y-74840177D02*
X125255127Y-74840177D01*
X125255127Y-74840177D02*
X125378937Y-74778273D01*
X125378937Y-74778273D02*
X125440841Y-74654463D01*
X125440841Y-74654463D02*
X125440841Y-74159225D01*
X125440841Y-74159225D02*
X125378937Y-74035415D01*
X125378937Y-74035415D02*
X125255127Y-73973511D01*
X125255127Y-73973511D02*
X125007508Y-73973511D01*
X125007508Y-73973511D02*
X124883699Y-74035415D01*
X124883699Y-74035415D02*
X124821794Y-74159225D01*
X124821794Y-74159225D02*
X124821794Y-74283034D01*
X124821794Y-74283034D02*
X125440841Y-74406844D01*
X123707508Y-74840177D02*
X123707508Y-73540177D01*
X123707508Y-74778273D02*
X123831317Y-74840177D01*
X123831317Y-74840177D02*
X124078936Y-74840177D01*
X124078936Y-74840177D02*
X124202746Y-74778273D01*
X124202746Y-74778273D02*
X124264651Y-74716368D01*
X124264651Y-74716368D02*
X124326555Y-74592558D01*
X124326555Y-74592558D02*
X124326555Y-74221130D01*
X124326555Y-74221130D02*
X124264651Y-74097320D01*
X124264651Y-74097320D02*
X124202746Y-74035415D01*
X124202746Y-74035415D02*
X124078936Y-73973511D01*
X124078936Y-73973511D02*
X123831317Y-73973511D01*
X123831317Y-73973511D02*
X123707508Y-74035415D01*
X122283699Y-73973511D02*
X121788461Y-73973511D01*
X122097985Y-74840177D02*
X122097985Y-73725892D01*
X122097985Y-73725892D02*
X122036080Y-73602082D01*
X122036080Y-73602082D02*
X121912270Y-73540177D01*
X121912270Y-73540177D02*
X121788461Y-73540177D01*
X121169413Y-74840177D02*
X121293223Y-74778273D01*
X121293223Y-74778273D02*
X121355128Y-74716368D01*
X121355128Y-74716368D02*
X121417032Y-74592558D01*
X121417032Y-74592558D02*
X121417032Y-74221130D01*
X121417032Y-74221130D02*
X121355128Y-74097320D01*
X121355128Y-74097320D02*
X121293223Y-74035415D01*
X121293223Y-74035415D02*
X121169413Y-73973511D01*
X121169413Y-73973511D02*
X120983699Y-73973511D01*
X120983699Y-73973511D02*
X120859890Y-74035415D01*
X120859890Y-74035415D02*
X120797985Y-74097320D01*
X120797985Y-74097320D02*
X120736080Y-74221130D01*
X120736080Y-74221130D02*
X120736080Y-74592558D01*
X120736080Y-74592558D02*
X120797985Y-74716368D01*
X120797985Y-74716368D02*
X120859890Y-74778273D01*
X120859890Y-74778273D02*
X120983699Y-74840177D01*
X120983699Y-74840177D02*
X121169413Y-74840177D01*
X120178938Y-74840177D02*
X120178938Y-73973511D01*
X120178938Y-74221130D02*
X120117033Y-74097320D01*
X120117033Y-74097320D02*
X120055128Y-74035415D01*
X120055128Y-74035415D02*
X119931319Y-73973511D01*
X119931319Y-73973511D02*
X119807509Y-73973511D01*
X117702747Y-74840177D02*
X118445604Y-74840177D01*
X118074176Y-74840177D02*
X118074176Y-73540177D01*
X118074176Y-73540177D02*
X118197985Y-73725892D01*
X118197985Y-73725892D02*
X118321795Y-73849701D01*
X118321795Y-73849701D02*
X118445604Y-73911606D01*
X116897986Y-73540177D02*
X116774176Y-73540177D01*
X116774176Y-73540177D02*
X116650367Y-73602082D01*
X116650367Y-73602082D02*
X116588462Y-73663987D01*
X116588462Y-73663987D02*
X116526557Y-73787796D01*
X116526557Y-73787796D02*
X116464652Y-74035415D01*
X116464652Y-74035415D02*
X116464652Y-74344939D01*
X116464652Y-74344939D02*
X116526557Y-74592558D01*
X116526557Y-74592558D02*
X116588462Y-74716368D01*
X116588462Y-74716368D02*
X116650367Y-74778273D01*
X116650367Y-74778273D02*
X116774176Y-74840177D01*
X116774176Y-74840177D02*
X116897986Y-74840177D01*
X116897986Y-74840177D02*
X117021795Y-74778273D01*
X117021795Y-74778273D02*
X117083700Y-74716368D01*
X117083700Y-74716368D02*
X117145605Y-74592558D01*
X117145605Y-74592558D02*
X117207509Y-74344939D01*
X117207509Y-74344939D02*
X117207509Y-74035415D01*
X117207509Y-74035415D02*
X117145605Y-73787796D01*
X117145605Y-73787796D02*
X117083700Y-73663987D01*
X117083700Y-73663987D02*
X117021795Y-73602082D01*
X117021795Y-73602082D02*
X116897986Y-73540177D01*
X115907510Y-74716368D02*
X115845605Y-74778273D01*
X115845605Y-74778273D02*
X115907510Y-74840177D01*
X115907510Y-74840177D02*
X115969414Y-74778273D01*
X115969414Y-74778273D02*
X115907510Y-74716368D01*
X115907510Y-74716368D02*
X115907510Y-74840177D01*
X115412271Y-73540177D02*
X114607509Y-73540177D01*
X114607509Y-73540177D02*
X115040843Y-74035415D01*
X115040843Y-74035415D02*
X114855128Y-74035415D01*
X114855128Y-74035415D02*
X114731319Y-74097320D01*
X114731319Y-74097320D02*
X114669414Y-74159225D01*
X114669414Y-74159225D02*
X114607509Y-74283034D01*
X114607509Y-74283034D02*
X114607509Y-74592558D01*
X114607509Y-74592558D02*
X114669414Y-74716368D01*
X114669414Y-74716368D02*
X114731319Y-74778273D01*
X114731319Y-74778273D02*
X114855128Y-74840177D01*
X114855128Y-74840177D02*
X115226557Y-74840177D01*
X115226557Y-74840177D02*
X115350366Y-74778273D01*
X115350366Y-74778273D02*
X115412271Y-74716368D01*
X113059891Y-74840177D02*
X113059891Y-73973511D01*
X113059891Y-73540177D02*
X113121795Y-73602082D01*
X113121795Y-73602082D02*
X113059891Y-73663987D01*
X113059891Y-73663987D02*
X112997986Y-73602082D01*
X112997986Y-73602082D02*
X113059891Y-73540177D01*
X113059891Y-73540177D02*
X113059891Y-73663987D01*
X112440843Y-73973511D02*
X112440843Y-74840177D01*
X112440843Y-74097320D02*
X112378938Y-74035415D01*
X112378938Y-74035415D02*
X112255128Y-73973511D01*
X112255128Y-73973511D02*
X112069414Y-73973511D01*
X112069414Y-73973511D02*
X111945605Y-74035415D01*
X111945605Y-74035415D02*
X111883700Y-74159225D01*
X111883700Y-74159225D02*
X111883700Y-74840177D01*
X110707510Y-74778273D02*
X110831319Y-74840177D01*
X110831319Y-74840177D02*
X111078938Y-74840177D01*
X111078938Y-74840177D02*
X111202748Y-74778273D01*
X111202748Y-74778273D02*
X111264653Y-74716368D01*
X111264653Y-74716368D02*
X111326557Y-74592558D01*
X111326557Y-74592558D02*
X111326557Y-74221130D01*
X111326557Y-74221130D02*
X111264653Y-74097320D01*
X111264653Y-74097320D02*
X111202748Y-74035415D01*
X111202748Y-74035415D02*
X111078938Y-73973511D01*
X111078938Y-73973511D02*
X110831319Y-73973511D01*
X110831319Y-73973511D02*
X110707510Y-74035415D01*
X110150367Y-74840177D02*
X110150367Y-73540177D01*
X109593224Y-74840177D02*
X109593224Y-74159225D01*
X109593224Y-74159225D02*
X109655129Y-74035415D01*
X109655129Y-74035415D02*
X109778938Y-73973511D01*
X109778938Y-73973511D02*
X109964652Y-73973511D01*
X109964652Y-73973511D02*
X110088462Y-74035415D01*
X110088462Y-74035415D02*
X110150367Y-74097320D01*
X143764649Y-76933104D02*
X143764649Y-75633104D01*
X143764649Y-76871200D02*
X143888458Y-76933104D01*
X143888458Y-76933104D02*
X144136077Y-76933104D01*
X144136077Y-76933104D02*
X144259887Y-76871200D01*
X144259887Y-76871200D02*
X144321792Y-76809295D01*
X144321792Y-76809295D02*
X144383696Y-76685485D01*
X144383696Y-76685485D02*
X144383696Y-76314057D01*
X144383696Y-76314057D02*
X144321792Y-76190247D01*
X144321792Y-76190247D02*
X144259887Y-76128342D01*
X144259887Y-76128342D02*
X144136077Y-76066438D01*
X144136077Y-76066438D02*
X143888458Y-76066438D01*
X143888458Y-76066438D02*
X143764649Y-76128342D01*
X143145602Y-76933104D02*
X143145602Y-76066438D01*
X143145602Y-75633104D02*
X143207506Y-75695009D01*
X143207506Y-75695009D02*
X143145602Y-75756914D01*
X143145602Y-75756914D02*
X143083697Y-75695009D01*
X143083697Y-75695009D02*
X143145602Y-75633104D01*
X143145602Y-75633104D02*
X143145602Y-75756914D01*
X142588458Y-76871200D02*
X142464649Y-76933104D01*
X142464649Y-76933104D02*
X142217030Y-76933104D01*
X142217030Y-76933104D02*
X142093220Y-76871200D01*
X142093220Y-76871200D02*
X142031316Y-76747390D01*
X142031316Y-76747390D02*
X142031316Y-76685485D01*
X142031316Y-76685485D02*
X142093220Y-76561676D01*
X142093220Y-76561676D02*
X142217030Y-76499771D01*
X142217030Y-76499771D02*
X142402744Y-76499771D01*
X142402744Y-76499771D02*
X142526554Y-76437866D01*
X142526554Y-76437866D02*
X142588458Y-76314057D01*
X142588458Y-76314057D02*
X142588458Y-76252152D01*
X142588458Y-76252152D02*
X142526554Y-76128342D01*
X142526554Y-76128342D02*
X142402744Y-76066438D01*
X142402744Y-76066438D02*
X142217030Y-76066438D01*
X142217030Y-76066438D02*
X142093220Y-76128342D01*
X141474173Y-76066438D02*
X141474173Y-77366438D01*
X141474173Y-76128342D02*
X141350363Y-76066438D01*
X141350363Y-76066438D02*
X141102744Y-76066438D01*
X141102744Y-76066438D02*
X140978935Y-76128342D01*
X140978935Y-76128342D02*
X140917030Y-76190247D01*
X140917030Y-76190247D02*
X140855125Y-76314057D01*
X140855125Y-76314057D02*
X140855125Y-76685485D01*
X140855125Y-76685485D02*
X140917030Y-76809295D01*
X140917030Y-76809295D02*
X140978935Y-76871200D01*
X140978935Y-76871200D02*
X141102744Y-76933104D01*
X141102744Y-76933104D02*
X141350363Y-76933104D01*
X141350363Y-76933104D02*
X141474173Y-76871200D01*
X140112268Y-76933104D02*
X140236078Y-76871200D01*
X140236078Y-76871200D02*
X140297983Y-76747390D01*
X140297983Y-76747390D02*
X140297983Y-75633104D01*
X139059888Y-76933104D02*
X139059888Y-76252152D01*
X139059888Y-76252152D02*
X139121793Y-76128342D01*
X139121793Y-76128342D02*
X139245602Y-76066438D01*
X139245602Y-76066438D02*
X139493221Y-76066438D01*
X139493221Y-76066438D02*
X139617031Y-76128342D01*
X139059888Y-76871200D02*
X139183697Y-76933104D01*
X139183697Y-76933104D02*
X139493221Y-76933104D01*
X139493221Y-76933104D02*
X139617031Y-76871200D01*
X139617031Y-76871200D02*
X139678935Y-76747390D01*
X139678935Y-76747390D02*
X139678935Y-76623580D01*
X139678935Y-76623580D02*
X139617031Y-76499771D01*
X139617031Y-76499771D02*
X139493221Y-76437866D01*
X139493221Y-76437866D02*
X139183697Y-76437866D01*
X139183697Y-76437866D02*
X139059888Y-76375961D01*
X138564650Y-76066438D02*
X138255126Y-76933104D01*
X137945603Y-76066438D02*
X138255126Y-76933104D01*
X138255126Y-76933104D02*
X138378936Y-77242628D01*
X138378936Y-77242628D02*
X138440841Y-77304533D01*
X138440841Y-77304533D02*
X138564650Y-77366438D01*
X137512269Y-76871200D02*
X137388460Y-76933104D01*
X137388460Y-76933104D02*
X137140841Y-76933104D01*
X137140841Y-76933104D02*
X137017031Y-76871200D01*
X137017031Y-76871200D02*
X136955127Y-76747390D01*
X136955127Y-76747390D02*
X136955127Y-76685485D01*
X136955127Y-76685485D02*
X137017031Y-76561676D01*
X137017031Y-76561676D02*
X137140841Y-76499771D01*
X137140841Y-76499771D02*
X137326555Y-76499771D01*
X137326555Y-76499771D02*
X137450365Y-76437866D01*
X137450365Y-76437866D02*
X137512269Y-76314057D01*
X137512269Y-76314057D02*
X137512269Y-76252152D01*
X137512269Y-76252152D02*
X137450365Y-76128342D01*
X137450365Y-76128342D02*
X137326555Y-76066438D01*
X137326555Y-76066438D02*
X137140841Y-76066438D01*
X137140841Y-76066438D02*
X137017031Y-76128342D01*
X135036079Y-77428342D02*
X135097984Y-77366438D01*
X135097984Y-77366438D02*
X135221793Y-77180723D01*
X135221793Y-77180723D02*
X135283698Y-77056914D01*
X135283698Y-77056914D02*
X135345603Y-76871200D01*
X135345603Y-76871200D02*
X135407508Y-76561676D01*
X135407508Y-76561676D02*
X135407508Y-76314057D01*
X135407508Y-76314057D02*
X135345603Y-76004533D01*
X135345603Y-76004533D02*
X135283698Y-75818819D01*
X135283698Y-75818819D02*
X135221793Y-75695009D01*
X135221793Y-75695009D02*
X135097984Y-75509295D01*
X135097984Y-75509295D02*
X135036079Y-75447390D01*
X133859888Y-76933104D02*
X134602745Y-76933104D01*
X134231317Y-76933104D02*
X134231317Y-75633104D01*
X134231317Y-75633104D02*
X134355126Y-75818819D01*
X134355126Y-75818819D02*
X134478936Y-75942628D01*
X134478936Y-75942628D02*
X134602745Y-76004533D01*
X132745603Y-75633104D02*
X132993222Y-75633104D01*
X132993222Y-75633104D02*
X133117031Y-75695009D01*
X133117031Y-75695009D02*
X133178936Y-75756914D01*
X133178936Y-75756914D02*
X133302746Y-75942628D01*
X133302746Y-75942628D02*
X133364650Y-76190247D01*
X133364650Y-76190247D02*
X133364650Y-76685485D01*
X133364650Y-76685485D02*
X133302746Y-76809295D01*
X133302746Y-76809295D02*
X133240841Y-76871200D01*
X133240841Y-76871200D02*
X133117031Y-76933104D01*
X133117031Y-76933104D02*
X132869412Y-76933104D01*
X132869412Y-76933104D02*
X132745603Y-76871200D01*
X132745603Y-76871200D02*
X132683698Y-76809295D01*
X132683698Y-76809295D02*
X132621793Y-76685485D01*
X132621793Y-76685485D02*
X132621793Y-76375961D01*
X132621793Y-76375961D02*
X132683698Y-76252152D01*
X132683698Y-76252152D02*
X132745603Y-76190247D01*
X132745603Y-76190247D02*
X132869412Y-76128342D01*
X132869412Y-76128342D02*
X133117031Y-76128342D01*
X133117031Y-76128342D02*
X133240841Y-76190247D01*
X133240841Y-76190247D02*
X133302746Y-76252152D01*
X133302746Y-76252152D02*
X133364650Y-76375961D01*
X131074175Y-76933104D02*
X131074175Y-75633104D01*
X131074175Y-76128342D02*
X130950365Y-76066438D01*
X130950365Y-76066438D02*
X130702746Y-76066438D01*
X130702746Y-76066438D02*
X130578937Y-76128342D01*
X130578937Y-76128342D02*
X130517032Y-76190247D01*
X130517032Y-76190247D02*
X130455127Y-76314057D01*
X130455127Y-76314057D02*
X130455127Y-76685485D01*
X130455127Y-76685485D02*
X130517032Y-76809295D01*
X130517032Y-76809295D02*
X130578937Y-76871200D01*
X130578937Y-76871200D02*
X130702746Y-76933104D01*
X130702746Y-76933104D02*
X130950365Y-76933104D01*
X130950365Y-76933104D02*
X131074175Y-76871200D01*
X129897985Y-76933104D02*
X129897985Y-76066438D01*
X129897985Y-75633104D02*
X129959889Y-75695009D01*
X129959889Y-75695009D02*
X129897985Y-75756914D01*
X129897985Y-75756914D02*
X129836080Y-75695009D01*
X129836080Y-75695009D02*
X129897985Y-75633104D01*
X129897985Y-75633104D02*
X129897985Y-75756914D01*
X129464651Y-76066438D02*
X128969413Y-76066438D01*
X129278937Y-75633104D02*
X129278937Y-76747390D01*
X129278937Y-76747390D02*
X129217032Y-76871200D01*
X129217032Y-76871200D02*
X129093222Y-76933104D01*
X129093222Y-76933104D02*
X128969413Y-76933104D01*
X128659889Y-77428342D02*
X128597984Y-77366438D01*
X128597984Y-77366438D02*
X128474175Y-77180723D01*
X128474175Y-77180723D02*
X128412270Y-77056914D01*
X128412270Y-77056914D02*
X128350365Y-76871200D01*
X128350365Y-76871200D02*
X128288461Y-76561676D01*
X128288461Y-76561676D02*
X128288461Y-76314057D01*
X128288461Y-76314057D02*
X128350365Y-76004533D01*
X128350365Y-76004533D02*
X128412270Y-75818819D01*
X128412270Y-75818819D02*
X128474175Y-75695009D01*
X128474175Y-75695009D02*
X128597984Y-75509295D01*
X128597984Y-75509295D02*
X128659889Y-75447390D01*
X126678937Y-76252152D02*
X126245603Y-76252152D01*
X126059889Y-76933104D02*
X126678937Y-76933104D01*
X126678937Y-76933104D02*
X126678937Y-75633104D01*
X126678937Y-75633104D02*
X126059889Y-75633104D01*
X125502747Y-76933104D02*
X125502747Y-75633104D01*
X125502747Y-75633104D02*
X125193223Y-75633104D01*
X125193223Y-75633104D02*
X125007509Y-75695009D01*
X125007509Y-75695009D02*
X124883699Y-75818819D01*
X124883699Y-75818819D02*
X124821794Y-75942628D01*
X124821794Y-75942628D02*
X124759890Y-76190247D01*
X124759890Y-76190247D02*
X124759890Y-76375961D01*
X124759890Y-76375961D02*
X124821794Y-76623580D01*
X124821794Y-76623580D02*
X124883699Y-76747390D01*
X124883699Y-76747390D02*
X125007509Y-76871200D01*
X125007509Y-76871200D02*
X125193223Y-76933104D01*
X125193223Y-76933104D02*
X125502747Y-76933104D01*
X123521794Y-76933104D02*
X124264651Y-76933104D01*
X123893223Y-76933104D02*
X123893223Y-75633104D01*
X123893223Y-75633104D02*
X124017032Y-75818819D01*
X124017032Y-75818819D02*
X124140842Y-75942628D01*
X124140842Y-75942628D02*
X124264651Y-76004533D01*
X122717033Y-75633104D02*
X122593223Y-75633104D01*
X122593223Y-75633104D02*
X122469414Y-75695009D01*
X122469414Y-75695009D02*
X122407509Y-75756914D01*
X122407509Y-75756914D02*
X122345604Y-75880723D01*
X122345604Y-75880723D02*
X122283699Y-76128342D01*
X122283699Y-76128342D02*
X122283699Y-76437866D01*
X122283699Y-76437866D02*
X122345604Y-76685485D01*
X122345604Y-76685485D02*
X122407509Y-76809295D01*
X122407509Y-76809295D02*
X122469414Y-76871200D01*
X122469414Y-76871200D02*
X122593223Y-76933104D01*
X122593223Y-76933104D02*
X122717033Y-76933104D01*
X122717033Y-76933104D02*
X122840842Y-76871200D01*
X122840842Y-76871200D02*
X122902747Y-76809295D01*
X122902747Y-76809295D02*
X122964652Y-76685485D01*
X122964652Y-76685485D02*
X123026556Y-76437866D01*
X123026556Y-76437866D02*
X123026556Y-76128342D01*
X123026556Y-76128342D02*
X122964652Y-75880723D01*
X122964652Y-75880723D02*
X122902747Y-75756914D01*
X122902747Y-75756914D02*
X122840842Y-75695009D01*
X122840842Y-75695009D02*
X122717033Y-75633104D01*
X121850366Y-75633104D02*
X121045604Y-75633104D01*
X121045604Y-75633104D02*
X121478938Y-76128342D01*
X121478938Y-76128342D02*
X121293223Y-76128342D01*
X121293223Y-76128342D02*
X121169414Y-76190247D01*
X121169414Y-76190247D02*
X121107509Y-76252152D01*
X121107509Y-76252152D02*
X121045604Y-76375961D01*
X121045604Y-76375961D02*
X121045604Y-76685485D01*
X121045604Y-76685485D02*
X121107509Y-76809295D01*
X121107509Y-76809295D02*
X121169414Y-76871200D01*
X121169414Y-76871200D02*
X121293223Y-76933104D01*
X121293223Y-76933104D02*
X121664652Y-76933104D01*
X121664652Y-76933104D02*
X121788461Y-76871200D01*
X121788461Y-76871200D02*
X121850366Y-76809295D01*
X120674176Y-75633104D02*
X119931319Y-75633104D01*
X120302747Y-76933104D02*
X120302747Y-75633104D01*
X118755129Y-76809295D02*
X118817033Y-76871200D01*
X118817033Y-76871200D02*
X119002748Y-76933104D01*
X119002748Y-76933104D02*
X119126557Y-76933104D01*
X119126557Y-76933104D02*
X119312271Y-76871200D01*
X119312271Y-76871200D02*
X119436081Y-76747390D01*
X119436081Y-76747390D02*
X119497986Y-76623580D01*
X119497986Y-76623580D02*
X119559890Y-76375961D01*
X119559890Y-76375961D02*
X119559890Y-76190247D01*
X119559890Y-76190247D02*
X119497986Y-75942628D01*
X119497986Y-75942628D02*
X119436081Y-75818819D01*
X119436081Y-75818819D02*
X119312271Y-75695009D01*
X119312271Y-75695009D02*
X119126557Y-75633104D01*
X119126557Y-75633104D02*
X119002748Y-75633104D01*
X119002748Y-75633104D02*
X118817033Y-75695009D01*
X118817033Y-75695009D02*
X118755129Y-75756914D01*
X118012271Y-75633104D02*
X118012271Y-75942628D01*
X118321795Y-75818819D02*
X118012271Y-75942628D01*
X118012271Y-75942628D02*
X117702748Y-75818819D01*
X118197986Y-76190247D02*
X118012271Y-75942628D01*
X118012271Y-75942628D02*
X117826557Y-76190247D01*
X116217034Y-76252152D02*
X115783700Y-76252152D01*
X115597986Y-76933104D02*
X116217034Y-76933104D01*
X116217034Y-76933104D02*
X116217034Y-75633104D01*
X116217034Y-75633104D02*
X115597986Y-75633104D01*
X115040844Y-76933104D02*
X115040844Y-75633104D01*
X115040844Y-75633104D02*
X114731320Y-75633104D01*
X114731320Y-75633104D02*
X114545606Y-75695009D01*
X114545606Y-75695009D02*
X114421796Y-75818819D01*
X114421796Y-75818819D02*
X114359891Y-75942628D01*
X114359891Y-75942628D02*
X114297987Y-76190247D01*
X114297987Y-76190247D02*
X114297987Y-76375961D01*
X114297987Y-76375961D02*
X114359891Y-76623580D01*
X114359891Y-76623580D02*
X114421796Y-76747390D01*
X114421796Y-76747390D02*
X114545606Y-76871200D01*
X114545606Y-76871200D02*
X114731320Y-76933104D01*
X114731320Y-76933104D02*
X115040844Y-76933104D01*
X113059891Y-76933104D02*
X113802748Y-76933104D01*
X113431320Y-76933104D02*
X113431320Y-75633104D01*
X113431320Y-75633104D02*
X113555129Y-75818819D01*
X113555129Y-75818819D02*
X113678939Y-75942628D01*
X113678939Y-75942628D02*
X113802748Y-76004533D01*
X112255130Y-75633104D02*
X112131320Y-75633104D01*
X112131320Y-75633104D02*
X112007511Y-75695009D01*
X112007511Y-75695009D02*
X111945606Y-75756914D01*
X111945606Y-75756914D02*
X111883701Y-75880723D01*
X111883701Y-75880723D02*
X111821796Y-76128342D01*
X111821796Y-76128342D02*
X111821796Y-76437866D01*
X111821796Y-76437866D02*
X111883701Y-76685485D01*
X111883701Y-76685485D02*
X111945606Y-76809295D01*
X111945606Y-76809295D02*
X112007511Y-76871200D01*
X112007511Y-76871200D02*
X112131320Y-76933104D01*
X112131320Y-76933104D02*
X112255130Y-76933104D01*
X112255130Y-76933104D02*
X112378939Y-76871200D01*
X112378939Y-76871200D02*
X112440844Y-76809295D01*
X112440844Y-76809295D02*
X112502749Y-76685485D01*
X112502749Y-76685485D02*
X112564653Y-76437866D01*
X112564653Y-76437866D02*
X112564653Y-76128342D01*
X112564653Y-76128342D02*
X112502749Y-75880723D01*
X112502749Y-75880723D02*
X112440844Y-75756914D01*
X112440844Y-75756914D02*
X112378939Y-75695009D01*
X112378939Y-75695009D02*
X112255130Y-75633104D01*
X111388463Y-75633104D02*
X110583701Y-75633104D01*
X110583701Y-75633104D02*
X111017035Y-76128342D01*
X111017035Y-76128342D02*
X110831320Y-76128342D01*
X110831320Y-76128342D02*
X110707511Y-76190247D01*
X110707511Y-76190247D02*
X110645606Y-76252152D01*
X110645606Y-76252152D02*
X110583701Y-76375961D01*
X110583701Y-76375961D02*
X110583701Y-76685485D01*
X110583701Y-76685485D02*
X110645606Y-76809295D01*
X110645606Y-76809295D02*
X110707511Y-76871200D01*
X110707511Y-76871200D02*
X110831320Y-76933104D01*
X110831320Y-76933104D02*
X111202749Y-76933104D01*
X111202749Y-76933104D02*
X111326558Y-76871200D01*
X111326558Y-76871200D02*
X111388463Y-76809295D01*
X110026559Y-76933104D02*
X110026559Y-75633104D01*
X110026559Y-75633104D02*
X109593225Y-76561676D01*
X109593225Y-76561676D02*
X109159892Y-75633104D01*
X109159892Y-75633104D02*
X109159892Y-76933104D01*
X108355130Y-75633104D02*
X108355130Y-75942628D01*
X108664654Y-75818819D02*
X108355130Y-75942628D01*
X108355130Y-75942628D02*
X108045607Y-75818819D01*
X108540845Y-76190247D02*
X108355130Y-75942628D01*
X108355130Y-75942628D02*
X108169416Y-76190247D01*
X107364654Y-75633104D02*
X107364654Y-75942628D01*
X107674178Y-75818819D02*
X107364654Y-75942628D01*
X107364654Y-75942628D02*
X107055131Y-75818819D01*
X107550369Y-76190247D02*
X107364654Y-75942628D01*
X107364654Y-75942628D02*
X107178940Y-76190247D01*
D14*
X150630901Y-85011876D02*
X150711567Y-85041840D01*
X150745114Y-85064354D01*
X150779087Y-85096612D01*
X150803319Y-85137646D01*
X150819401Y-85193508D01*
X150828921Y-85270251D01*
X150833468Y-85373925D01*
X150834631Y-85510584D01*
X150834403Y-85581205D01*
X150833260Y-85677708D01*
X150831319Y-85754723D01*
X150828765Y-85805719D01*
X150825781Y-85824169D01*
X150806362Y-85818067D01*
X150767166Y-85801495D01*
X150765989Y-85800958D01*
X150745635Y-85790303D01*
X150731946Y-85775682D01*
X150723599Y-85750073D01*
X150719274Y-85706454D01*
X150717648Y-85637803D01*
X150717400Y-85537098D01*
X150716900Y-85473213D01*
X150711564Y-85353151D01*
X150699345Y-85265209D01*
X150678952Y-85204775D01*
X150649095Y-85167236D01*
X150608482Y-85147981D01*
X150602848Y-85146639D01*
X150526778Y-85145591D01*
X150467452Y-85179671D01*
X150426477Y-85247998D01*
X150419170Y-85267751D01*
X150402514Y-85311466D01*
X150394079Y-85331555D01*
X150376756Y-85328787D01*
X150338925Y-85313765D01*
X150303640Y-85288956D01*
X150287554Y-85242070D01*
X150292352Y-85208487D01*
X150321831Y-85140367D01*
X150369498Y-85076534D01*
X150425239Y-85032388D01*
X150448593Y-85022182D01*
X150537019Y-85005118D01*
X150630901Y-85011876D01*
G36*
X150630901Y-85011876D02*
G01*
X150711567Y-85041840D01*
X150745114Y-85064354D01*
X150779087Y-85096612D01*
X150803319Y-85137646D01*
X150819401Y-85193508D01*
X150828921Y-85270251D01*
X150833468Y-85373925D01*
X150834631Y-85510584D01*
X150834403Y-85581205D01*
X150833260Y-85677708D01*
X150831319Y-85754723D01*
X150828765Y-85805719D01*
X150825781Y-85824169D01*
X150806362Y-85818067D01*
X150767166Y-85801495D01*
X150765989Y-85800958D01*
X150745635Y-85790303D01*
X150731946Y-85775682D01*
X150723599Y-85750073D01*
X150719274Y-85706454D01*
X150717648Y-85637803D01*
X150717400Y-85537098D01*
X150716900Y-85473213D01*
X150711564Y-85353151D01*
X150699345Y-85265209D01*
X150678952Y-85204775D01*
X150649095Y-85167236D01*
X150608482Y-85147981D01*
X150602848Y-85146639D01*
X150526778Y-85145591D01*
X150467452Y-85179671D01*
X150426477Y-85247998D01*
X150419170Y-85267751D01*
X150402514Y-85311466D01*
X150394079Y-85331555D01*
X150376756Y-85328787D01*
X150338925Y-85313765D01*
X150303640Y-85288956D01*
X150287554Y-85242070D01*
X150292352Y-85208487D01*
X150321831Y-85140367D01*
X150369498Y-85076534D01*
X150425239Y-85032388D01*
X150448593Y-85022182D01*
X150537019Y-85005118D01*
X150630901Y-85011876D01*
G37*
X155945772Y-84967084D02*
X156037029Y-85009969D01*
X156111816Y-85084129D01*
X156127317Y-85107344D01*
X156140174Y-85133656D01*
X156149293Y-85166820D01*
X156155502Y-85213281D01*
X156159633Y-85279482D01*
X156162516Y-85371868D01*
X156164979Y-85496885D01*
X156171097Y-85843678D01*
X156119703Y-85824138D01*
X156072646Y-85806187D01*
X156037415Y-85788911D01*
X156014417Y-85766642D01*
X156001055Y-85732565D01*
X155994728Y-85679863D01*
X155992837Y-85601723D01*
X155992785Y-85491328D01*
X155992517Y-85403335D01*
X155990921Y-85318902D01*
X155987112Y-85261234D01*
X155980220Y-85223388D01*
X155969375Y-85198424D01*
X155953708Y-85179400D01*
X155915192Y-85152553D01*
X155850491Y-85142434D01*
X155786481Y-85168006D01*
X155782256Y-85171280D01*
X155769089Y-85186407D01*
X155759375Y-85210668D01*
X155752303Y-85250050D01*
X155747056Y-85310541D01*
X155742821Y-85398129D01*
X155738785Y-85518802D01*
X155729015Y-85841915D01*
X155562939Y-85767465D01*
X155562939Y-85472462D01*
X155563283Y-85392319D01*
X155566247Y-85280831D01*
X155573751Y-85197821D01*
X155587590Y-85136599D01*
X155609555Y-85090475D01*
X155641439Y-85052758D01*
X155685033Y-85016758D01*
X155747736Y-84980489D01*
X155846517Y-84956812D01*
X155945772Y-84967084D01*
G36*
X155945772Y-84967084D02*
G01*
X156037029Y-85009969D01*
X156111816Y-85084129D01*
X156127317Y-85107344D01*
X156140174Y-85133656D01*
X156149293Y-85166820D01*
X156155502Y-85213281D01*
X156159633Y-85279482D01*
X156162516Y-85371868D01*
X156164979Y-85496885D01*
X156171097Y-85843678D01*
X156119703Y-85824138D01*
X156072646Y-85806187D01*
X156037415Y-85788911D01*
X156014417Y-85766642D01*
X156001055Y-85732565D01*
X155994728Y-85679863D01*
X155992837Y-85601723D01*
X155992785Y-85491328D01*
X155992517Y-85403335D01*
X155990921Y-85318902D01*
X155987112Y-85261234D01*
X155980220Y-85223388D01*
X155969375Y-85198424D01*
X155953708Y-85179400D01*
X155915192Y-85152553D01*
X155850491Y-85142434D01*
X155786481Y-85168006D01*
X155782256Y-85171280D01*
X155769089Y-85186407D01*
X155759375Y-85210668D01*
X155752303Y-85250050D01*
X155747056Y-85310541D01*
X155742821Y-85398129D01*
X155738785Y-85518802D01*
X155729015Y-85841915D01*
X155562939Y-85767465D01*
X155562939Y-85472462D01*
X155563283Y-85392319D01*
X155566247Y-85280831D01*
X155573751Y-85197821D01*
X155587590Y-85136599D01*
X155609555Y-85090475D01*
X155641439Y-85052758D01*
X155685033Y-85016758D01*
X155747736Y-84980489D01*
X155846517Y-84956812D01*
X155945772Y-84967084D01*
G37*
X153491292Y-85032567D02*
X153497460Y-85035981D01*
X153547847Y-85075092D01*
X153592898Y-85125375D01*
X153600755Y-85136739D01*
X153615776Y-85163260D01*
X153626507Y-85194736D01*
X153633886Y-85237991D01*
X153638852Y-85299849D01*
X153642342Y-85387133D01*
X153645293Y-85506669D01*
X153645711Y-85526878D01*
X153647054Y-85657899D01*
X153645161Y-85750696D01*
X153640005Y-85805907D01*
X153631558Y-85824169D01*
X153605994Y-85818701D01*
X153562566Y-85802133D01*
X153552340Y-85797288D01*
X153536367Y-85786320D01*
X153525354Y-85768290D01*
X153518150Y-85736796D01*
X153513608Y-85685436D01*
X153510580Y-85607810D01*
X153507916Y-85497515D01*
X153507185Y-85465275D01*
X153504365Y-85363450D01*
X153500704Y-85292188D01*
X153495094Y-85244732D01*
X153486429Y-85214325D01*
X153473602Y-85194210D01*
X153455505Y-85177629D01*
X153401925Y-85148561D01*
X153336012Y-85142964D01*
X153277035Y-85165207D01*
X153234603Y-85211259D01*
X153218323Y-85277092D01*
X153217870Y-85294987D01*
X153208978Y-85327382D01*
X153182725Y-85332325D01*
X153131319Y-85313033D01*
X153119413Y-85306846D01*
X153087235Y-85270458D01*
X153086598Y-85216354D01*
X153117256Y-85141528D01*
X153145378Y-85100750D01*
X153217283Y-85042821D01*
X153306038Y-85010070D01*
X153400942Y-85005612D01*
X153491292Y-85032567D01*
G36*
X153491292Y-85032567D02*
G01*
X153497460Y-85035981D01*
X153547847Y-85075092D01*
X153592898Y-85125375D01*
X153600755Y-85136739D01*
X153615776Y-85163260D01*
X153626507Y-85194736D01*
X153633886Y-85237991D01*
X153638852Y-85299849D01*
X153642342Y-85387133D01*
X153645293Y-85506669D01*
X153645711Y-85526878D01*
X153647054Y-85657899D01*
X153645161Y-85750696D01*
X153640005Y-85805907D01*
X153631558Y-85824169D01*
X153605994Y-85818701D01*
X153562566Y-85802133D01*
X153552340Y-85797288D01*
X153536367Y-85786320D01*
X153525354Y-85768290D01*
X153518150Y-85736796D01*
X153513608Y-85685436D01*
X153510580Y-85607810D01*
X153507916Y-85497515D01*
X153507185Y-85465275D01*
X153504365Y-85363450D01*
X153500704Y-85292188D01*
X153495094Y-85244732D01*
X153486429Y-85214325D01*
X153473602Y-85194210D01*
X153455505Y-85177629D01*
X153401925Y-85148561D01*
X153336012Y-85142964D01*
X153277035Y-85165207D01*
X153234603Y-85211259D01*
X153218323Y-85277092D01*
X153217870Y-85294987D01*
X153208978Y-85327382D01*
X153182725Y-85332325D01*
X153131319Y-85313033D01*
X153119413Y-85306846D01*
X153087235Y-85270458D01*
X153086598Y-85216354D01*
X153117256Y-85141528D01*
X153145378Y-85100750D01*
X153217283Y-85042821D01*
X153306038Y-85010070D01*
X153400942Y-85005612D01*
X153491292Y-85032567D01*
G37*
X154996323Y-84767206D02*
X154996323Y-85301855D01*
X154996060Y-85440494D01*
X154995358Y-85565205D01*
X154994283Y-85670957D01*
X154992900Y-85752722D01*
X154991274Y-85805469D01*
X154989470Y-85824169D01*
X154988764Y-85824106D01*
X154964787Y-85817312D01*
X154921085Y-85802720D01*
X154859554Y-85781270D01*
X154859554Y-85506017D01*
X154859163Y-85397866D01*
X154857346Y-85319426D01*
X154853167Y-85266047D01*
X154845686Y-85230656D01*
X154833967Y-85206179D01*
X154817071Y-85185544D01*
X154805552Y-85174570D01*
X154743264Y-85144175D01*
X154674611Y-85146866D01*
X154611698Y-85182806D01*
X154602539Y-85191725D01*
X154587871Y-85210244D01*
X154577833Y-85234726D01*
X154571551Y-85271793D01*
X154568148Y-85328067D01*
X154566749Y-85410171D01*
X154566477Y-85524729D01*
X154566347Y-85582830D01*
X154565499Y-85678393D01*
X154563994Y-85754926D01*
X154561985Y-85805745D01*
X154559623Y-85824169D01*
X154558918Y-85824106D01*
X154534941Y-85817312D01*
X154491239Y-85802720D01*
X154429708Y-85781270D01*
X154429738Y-85504758D01*
X154429784Y-85480142D01*
X154432370Y-85351819D01*
X154440313Y-85254784D01*
X154455555Y-85182457D01*
X154480036Y-85128255D01*
X154515698Y-85085598D01*
X154564482Y-85047905D01*
X154612061Y-85024310D01*
X154688132Y-85006072D01*
X154762956Y-85005036D01*
X154820477Y-85022778D01*
X154824802Y-85025229D01*
X154838138Y-85024966D01*
X154847251Y-85004439D01*
X154853828Y-84957380D01*
X154859554Y-84877520D01*
X154869323Y-84713636D01*
X154996323Y-84767206D01*
G36*
X154996323Y-84767206D02*
G01*
X154996323Y-85301855D01*
X154996060Y-85440494D01*
X154995358Y-85565205D01*
X154994283Y-85670957D01*
X154992900Y-85752722D01*
X154991274Y-85805469D01*
X154989470Y-85824169D01*
X154988764Y-85824106D01*
X154964787Y-85817312D01*
X154921085Y-85802720D01*
X154859554Y-85781270D01*
X154859554Y-85506017D01*
X154859163Y-85397866D01*
X154857346Y-85319426D01*
X154853167Y-85266047D01*
X154845686Y-85230656D01*
X154833967Y-85206179D01*
X154817071Y-85185544D01*
X154805552Y-85174570D01*
X154743264Y-85144175D01*
X154674611Y-85146866D01*
X154611698Y-85182806D01*
X154602539Y-85191725D01*
X154587871Y-85210244D01*
X154577833Y-85234726D01*
X154571551Y-85271793D01*
X154568148Y-85328067D01*
X154566749Y-85410171D01*
X154566477Y-85524729D01*
X154566347Y-85582830D01*
X154565499Y-85678393D01*
X154563994Y-85754926D01*
X154561985Y-85805745D01*
X154559623Y-85824169D01*
X154558918Y-85824106D01*
X154534941Y-85817312D01*
X154491239Y-85802720D01*
X154429708Y-85781270D01*
X154429738Y-85504758D01*
X154429784Y-85480142D01*
X154432370Y-85351819D01*
X154440313Y-85254784D01*
X154455555Y-85182457D01*
X154480036Y-85128255D01*
X154515698Y-85085598D01*
X154564482Y-85047905D01*
X154612061Y-85024310D01*
X154688132Y-85006072D01*
X154762956Y-85005036D01*
X154820477Y-85022778D01*
X154824802Y-85025229D01*
X154838138Y-85024966D01*
X154847251Y-85004439D01*
X154853828Y-84957380D01*
X154859554Y-84877520D01*
X154869323Y-84713636D01*
X154996323Y-84767206D01*
G37*
X152207398Y-85009434D02*
X152250250Y-85026229D01*
X152300015Y-85048903D01*
X152300015Y-85703933D01*
X152238185Y-85765763D01*
X152224062Y-85779628D01*
X152184936Y-85810446D01*
X152145478Y-85820428D01*
X152086762Y-85815833D01*
X152062856Y-85812862D01*
X152001201Y-85806576D01*
X151958092Y-85804072D01*
X151945305Y-85804455D01*
X151892846Y-85808600D01*
X151829422Y-85815833D01*
X151809130Y-85818318D01*
X151758010Y-85819295D01*
X151720607Y-85803862D01*
X151677999Y-85765763D01*
X151616169Y-85703933D01*
X151616169Y-85353743D01*
X151616651Y-85250257D01*
X151618153Y-85151592D01*
X151620489Y-85073468D01*
X151623471Y-85022062D01*
X151626909Y-85003554D01*
X151627630Y-85003604D01*
X151652603Y-85012813D01*
X151694799Y-85033107D01*
X151751949Y-85062661D01*
X151757328Y-85370146D01*
X151762708Y-85677631D01*
X151879939Y-85677631D01*
X151885285Y-85340592D01*
X151886979Y-85248974D01*
X151889405Y-85151049D01*
X151892034Y-85073306D01*
X151894646Y-85022042D01*
X151897023Y-85003554D01*
X151897706Y-85003619D01*
X151921396Y-85010420D01*
X151964946Y-85025004D01*
X152026477Y-85046454D01*
X152026776Y-85342504D01*
X152027076Y-85393932D01*
X152029154Y-85493866D01*
X152032870Y-85577325D01*
X152037830Y-85636777D01*
X152043640Y-85664687D01*
X152064424Y-85679614D01*
X152106840Y-85684225D01*
X152153477Y-85677631D01*
X152158823Y-85340592D01*
X152160736Y-85254946D01*
X152164703Y-85153572D01*
X152169891Y-85074055D01*
X152175899Y-85022136D01*
X152182327Y-85003554D01*
X152207398Y-85009434D01*
G36*
X152207398Y-85009434D02*
G01*
X152250250Y-85026229D01*
X152300015Y-85048903D01*
X152300015Y-85703933D01*
X152238185Y-85765763D01*
X152224062Y-85779628D01*
X152184936Y-85810446D01*
X152145478Y-85820428D01*
X152086762Y-85815833D01*
X152062856Y-85812862D01*
X152001201Y-85806576D01*
X151958092Y-85804072D01*
X151945305Y-85804455D01*
X151892846Y-85808600D01*
X151829422Y-85815833D01*
X151809130Y-85818318D01*
X151758010Y-85819295D01*
X151720607Y-85803862D01*
X151677999Y-85765763D01*
X151616169Y-85703933D01*
X151616169Y-85353743D01*
X151616651Y-85250257D01*
X151618153Y-85151592D01*
X151620489Y-85073468D01*
X151623471Y-85022062D01*
X151626909Y-85003554D01*
X151627630Y-85003604D01*
X151652603Y-85012813D01*
X151694799Y-85033107D01*
X151751949Y-85062661D01*
X151757328Y-85370146D01*
X151762708Y-85677631D01*
X151879939Y-85677631D01*
X151885285Y-85340592D01*
X151886979Y-85248974D01*
X151889405Y-85151049D01*
X151892034Y-85073306D01*
X151894646Y-85022042D01*
X151897023Y-85003554D01*
X151897706Y-85003619D01*
X151921396Y-85010420D01*
X151964946Y-85025004D01*
X152026477Y-85046454D01*
X152026776Y-85342504D01*
X152027076Y-85393932D01*
X152029154Y-85493866D01*
X152032870Y-85577325D01*
X152037830Y-85636777D01*
X152043640Y-85664687D01*
X152064424Y-85679614D01*
X152106840Y-85684225D01*
X152153477Y-85677631D01*
X152158823Y-85340592D01*
X152160736Y-85254946D01*
X152164703Y-85153572D01*
X152169891Y-85074055D01*
X152175899Y-85022136D01*
X152182327Y-85003554D01*
X152207398Y-85009434D01*
G37*
X158415554Y-85394323D02*
X158415535Y-85415505D01*
X158414476Y-85509984D01*
X158410836Y-85575814D01*
X158403292Y-85621794D01*
X158390522Y-85656721D01*
X158371203Y-85689395D01*
X158366450Y-85696175D01*
X158316159Y-85749631D01*
X158258857Y-85789947D01*
X158229432Y-85803029D01*
X158123699Y-85824850D01*
X158019134Y-85810736D01*
X157922768Y-85762505D01*
X157841635Y-85681979D01*
X157834785Y-85671191D01*
X157812497Y-85608553D01*
X157797479Y-85521335D01*
X157790192Y-85420610D01*
X157791011Y-85327437D01*
X157988196Y-85327437D01*
X157989749Y-85456514D01*
X157990374Y-85464820D01*
X157999477Y-85536043D01*
X158015688Y-85581209D01*
X158043060Y-85612152D01*
X158088953Y-85641137D01*
X158134342Y-85642661D01*
X158181092Y-85609246D01*
X158189224Y-85600453D01*
X158205154Y-85574141D01*
X158214559Y-85535920D01*
X158219032Y-85476749D01*
X158220169Y-85387582D01*
X158218222Y-85304064D01*
X158208505Y-85224495D01*
X158188447Y-85174208D01*
X158155640Y-85147913D01*
X158107680Y-85140323D01*
X158089416Y-85141832D01*
X158038248Y-85169507D01*
X158004435Y-85231572D01*
X157988196Y-85327437D01*
X157791011Y-85327437D01*
X157791099Y-85317452D01*
X157800662Y-85222933D01*
X157819343Y-85148127D01*
X157843351Y-85098305D01*
X157910936Y-85020809D01*
X158002514Y-84972656D01*
X158114613Y-84956103D01*
X158144551Y-84956999D01*
X158232715Y-84975329D01*
X158305133Y-85021504D01*
X158371592Y-85101048D01*
X158375547Y-85106948D01*
X158393440Y-85138688D01*
X158405078Y-85174563D01*
X158411771Y-85223306D01*
X158414826Y-85293649D01*
X158415506Y-85387582D01*
X158415554Y-85394323D01*
G36*
X158415554Y-85394323D02*
G01*
X158415535Y-85415505D01*
X158414476Y-85509984D01*
X158410836Y-85575814D01*
X158403292Y-85621794D01*
X158390522Y-85656721D01*
X158371203Y-85689395D01*
X158366450Y-85696175D01*
X158316159Y-85749631D01*
X158258857Y-85789947D01*
X158229432Y-85803029D01*
X158123699Y-85824850D01*
X158019134Y-85810736D01*
X157922768Y-85762505D01*
X157841635Y-85681979D01*
X157834785Y-85671191D01*
X157812497Y-85608553D01*
X157797479Y-85521335D01*
X157790192Y-85420610D01*
X157791011Y-85327437D01*
X157988196Y-85327437D01*
X157989749Y-85456514D01*
X157990374Y-85464820D01*
X157999477Y-85536043D01*
X158015688Y-85581209D01*
X158043060Y-85612152D01*
X158088953Y-85641137D01*
X158134342Y-85642661D01*
X158181092Y-85609246D01*
X158189224Y-85600453D01*
X158205154Y-85574141D01*
X158214559Y-85535920D01*
X158219032Y-85476749D01*
X158220169Y-85387582D01*
X158218222Y-85304064D01*
X158208505Y-85224495D01*
X158188447Y-85174208D01*
X158155640Y-85147913D01*
X158107680Y-85140323D01*
X158089416Y-85141832D01*
X158038248Y-85169507D01*
X158004435Y-85231572D01*
X157988196Y-85327437D01*
X157791011Y-85327437D01*
X157791099Y-85317452D01*
X157800662Y-85222933D01*
X157819343Y-85148127D01*
X157843351Y-85098305D01*
X157910936Y-85020809D01*
X158002514Y-84972656D01*
X158114613Y-84956103D01*
X158144551Y-84956999D01*
X158232715Y-84975329D01*
X158305133Y-85021504D01*
X158371592Y-85101048D01*
X158375547Y-85106948D01*
X158393440Y-85138688D01*
X158405078Y-85174563D01*
X158411771Y-85223306D01*
X158414826Y-85293649D01*
X158415506Y-85387582D01*
X158415554Y-85394323D01*
G37*
X150170194Y-85417776D02*
X150169813Y-85469849D01*
X150165041Y-85572447D01*
X150152550Y-85647526D01*
X150129521Y-85703148D01*
X150093132Y-85747375D01*
X150040562Y-85788269D01*
X150007114Y-85806866D01*
X149953498Y-85819391D01*
X149878180Y-85818403D01*
X149836072Y-85814435D01*
X149785279Y-85802320D01*
X149744680Y-85775985D01*
X149697449Y-85726914D01*
X149691138Y-85719746D01*
X149648677Y-85664589D01*
X149628418Y-85616550D01*
X149623246Y-85559584D01*
X149623246Y-85475871D01*
X149681746Y-85497952D01*
X149724394Y-85523764D01*
X149761464Y-85584328D01*
X149769203Y-85603720D01*
X149812474Y-85658635D01*
X149871376Y-85686279D01*
X149935511Y-85683793D01*
X149994477Y-85648323D01*
X150014742Y-85626205D01*
X150033120Y-85592836D01*
X150027371Y-85562517D01*
X149994287Y-85531313D01*
X149930661Y-85495287D01*
X149833285Y-85450503D01*
X149633015Y-85362845D01*
X149627701Y-85276007D01*
X149629699Y-85220696D01*
X149760183Y-85220696D01*
X149770088Y-85254938D01*
X149815156Y-85291496D01*
X149896957Y-85333092D01*
X149910492Y-85339118D01*
X149975218Y-85367153D01*
X150023647Y-85386872D01*
X150046151Y-85394323D01*
X150049561Y-85388838D01*
X150050929Y-85355348D01*
X150046051Y-85301516D01*
X150033764Y-85248873D01*
X149995441Y-85182551D01*
X149940120Y-85145180D01*
X149874040Y-85140121D01*
X149803440Y-85170739D01*
X149783874Y-85186048D01*
X149760183Y-85220696D01*
X149629699Y-85220696D01*
X149630047Y-85211063D01*
X149659586Y-85128990D01*
X149696872Y-85083761D01*
X149774176Y-85033238D01*
X149865878Y-85007716D01*
X149960674Y-85009736D01*
X150047259Y-85041840D01*
X150066320Y-85054167D01*
X150110040Y-85092312D01*
X150139940Y-85140567D01*
X150158368Y-85206110D01*
X150167670Y-85296120D01*
X150168899Y-85355348D01*
X150170194Y-85417776D01*
G36*
X150170194Y-85417776D02*
G01*
X150169813Y-85469849D01*
X150165041Y-85572447D01*
X150152550Y-85647526D01*
X150129521Y-85703148D01*
X150093132Y-85747375D01*
X150040562Y-85788269D01*
X150007114Y-85806866D01*
X149953498Y-85819391D01*
X149878180Y-85818403D01*
X149836072Y-85814435D01*
X149785279Y-85802320D01*
X149744680Y-85775985D01*
X149697449Y-85726914D01*
X149691138Y-85719746D01*
X149648677Y-85664589D01*
X149628418Y-85616550D01*
X149623246Y-85559584D01*
X149623246Y-85475871D01*
X149681746Y-85497952D01*
X149724394Y-85523764D01*
X149761464Y-85584328D01*
X149769203Y-85603720D01*
X149812474Y-85658635D01*
X149871376Y-85686279D01*
X149935511Y-85683793D01*
X149994477Y-85648323D01*
X150014742Y-85626205D01*
X150033120Y-85592836D01*
X150027371Y-85562517D01*
X149994287Y-85531313D01*
X149930661Y-85495287D01*
X149833285Y-85450503D01*
X149633015Y-85362845D01*
X149627701Y-85276007D01*
X149629699Y-85220696D01*
X149760183Y-85220696D01*
X149770088Y-85254938D01*
X149815156Y-85291496D01*
X149896957Y-85333092D01*
X149910492Y-85339118D01*
X149975218Y-85367153D01*
X150023647Y-85386872D01*
X150046151Y-85394323D01*
X150049561Y-85388838D01*
X150050929Y-85355348D01*
X150046051Y-85301516D01*
X150033764Y-85248873D01*
X149995441Y-85182551D01*
X149940120Y-85145180D01*
X149874040Y-85140121D01*
X149803440Y-85170739D01*
X149783874Y-85186048D01*
X149760183Y-85220696D01*
X149629699Y-85220696D01*
X149630047Y-85211063D01*
X149659586Y-85128990D01*
X149696872Y-85083761D01*
X149774176Y-85033238D01*
X149865878Y-85007716D01*
X149960674Y-85009736D01*
X150047259Y-85041840D01*
X150066320Y-85054167D01*
X150110040Y-85092312D01*
X150139940Y-85140567D01*
X150158368Y-85206110D01*
X150167670Y-85296120D01*
X150168899Y-85355348D01*
X150170194Y-85417776D01*
G37*
X152983801Y-85413862D02*
X152982239Y-85490052D01*
X152971210Y-85593907D01*
X152947214Y-85671733D01*
X152907443Y-85731160D01*
X152849088Y-85779818D01*
X152793500Y-85807946D01*
X152700151Y-85823599D01*
X152606930Y-85806484D01*
X152522672Y-85758788D01*
X152456218Y-85682694D01*
X152448193Y-85668662D01*
X152437596Y-85644079D01*
X152429735Y-85612709D01*
X152424207Y-85569169D01*
X152420606Y-85508078D01*
X152418528Y-85424055D01*
X152418464Y-85416600D01*
X152554015Y-85416600D01*
X152554477Y-85487716D01*
X152557399Y-85552041D01*
X152564621Y-85593566D01*
X152577961Y-85621467D01*
X152599236Y-85644917D01*
X152604221Y-85649425D01*
X152668263Y-85682695D01*
X152736025Y-85679290D01*
X152799134Y-85639442D01*
X152817926Y-85618798D01*
X152833654Y-85591429D01*
X152842439Y-85553592D01*
X152846259Y-85495755D01*
X152847092Y-85408386D01*
X152846681Y-85341719D01*
X152843834Y-85276645D01*
X152836656Y-85234651D01*
X152823289Y-85206463D01*
X152801872Y-85182806D01*
X152789290Y-85172153D01*
X152724099Y-85143457D01*
X152655800Y-85147975D01*
X152596498Y-85185544D01*
X152583733Y-85200440D01*
X152568164Y-85228489D01*
X152559162Y-85267658D01*
X152555017Y-85327258D01*
X152554015Y-85416600D01*
X152418464Y-85416600D01*
X152417567Y-85311720D01*
X152417319Y-85165689D01*
X152417246Y-84712363D01*
X152480746Y-84738964D01*
X152497536Y-84746245D01*
X152524259Y-84762687D01*
X152539556Y-84787587D01*
X152547963Y-84831132D01*
X152554015Y-84903506D01*
X152559544Y-84968489D01*
X152566850Y-85011150D01*
X152577318Y-85027070D01*
X152593092Y-85022800D01*
X152633290Y-85007797D01*
X152705128Y-85004078D01*
X152782410Y-85017972D01*
X152849088Y-85047905D01*
X152885771Y-85075611D01*
X152932872Y-85129669D01*
X152963038Y-85198977D01*
X152979078Y-85291165D01*
X152983591Y-85408386D01*
X152983801Y-85413862D01*
G36*
X152983801Y-85413862D02*
G01*
X152982239Y-85490052D01*
X152971210Y-85593907D01*
X152947214Y-85671733D01*
X152907443Y-85731160D01*
X152849088Y-85779818D01*
X152793500Y-85807946D01*
X152700151Y-85823599D01*
X152606930Y-85806484D01*
X152522672Y-85758788D01*
X152456218Y-85682694D01*
X152448193Y-85668662D01*
X152437596Y-85644079D01*
X152429735Y-85612709D01*
X152424207Y-85569169D01*
X152420606Y-85508078D01*
X152418528Y-85424055D01*
X152418464Y-85416600D01*
X152554015Y-85416600D01*
X152554477Y-85487716D01*
X152557399Y-85552041D01*
X152564621Y-85593566D01*
X152577961Y-85621467D01*
X152599236Y-85644917D01*
X152604221Y-85649425D01*
X152668263Y-85682695D01*
X152736025Y-85679290D01*
X152799134Y-85639442D01*
X152817926Y-85618798D01*
X152833654Y-85591429D01*
X152842439Y-85553592D01*
X152846259Y-85495755D01*
X152847092Y-85408386D01*
X152846681Y-85341719D01*
X152843834Y-85276645D01*
X152836656Y-85234651D01*
X152823289Y-85206463D01*
X152801872Y-85182806D01*
X152789290Y-85172153D01*
X152724099Y-85143457D01*
X152655800Y-85147975D01*
X152596498Y-85185544D01*
X152583733Y-85200440D01*
X152568164Y-85228489D01*
X152559162Y-85267658D01*
X152555017Y-85327258D01*
X152554015Y-85416600D01*
X152418464Y-85416600D01*
X152417567Y-85311720D01*
X152417319Y-85165689D01*
X152417246Y-84712363D01*
X152480746Y-84738964D01*
X152497536Y-84746245D01*
X152524259Y-84762687D01*
X152539556Y-84787587D01*
X152547963Y-84831132D01*
X152554015Y-84903506D01*
X152559544Y-84968489D01*
X152566850Y-85011150D01*
X152577318Y-85027070D01*
X152593092Y-85022800D01*
X152633290Y-85007797D01*
X152705128Y-85004078D01*
X152782410Y-85017972D01*
X152849088Y-85047905D01*
X152885771Y-85075611D01*
X152932872Y-85129669D01*
X152963038Y-85198977D01*
X152979078Y-85291165D01*
X152983591Y-85408386D01*
X152983801Y-85413862D01*
G37*
X156930187Y-85338936D02*
X156923974Y-85487043D01*
X156920466Y-85518421D01*
X156894327Y-85630105D01*
X156847094Y-85715042D01*
X156775262Y-85780141D01*
X156771202Y-85782828D01*
X156679887Y-85821034D01*
X156584544Y-85824434D01*
X156492674Y-85795339D01*
X156411779Y-85736060D01*
X156349362Y-85648910D01*
X156348314Y-85646809D01*
X156327573Y-85592689D01*
X156312380Y-85531181D01*
X156304321Y-85473439D01*
X156304982Y-85430615D01*
X156315948Y-85413862D01*
X156325690Y-85414880D01*
X156372277Y-85433409D01*
X156425082Y-85467481D01*
X156470003Y-85506922D01*
X156492935Y-85541555D01*
X156516773Y-85588533D01*
X156565630Y-85631262D01*
X156622363Y-85648323D01*
X156643158Y-85643390D01*
X156684204Y-85618557D01*
X156719957Y-85584085D01*
X156735246Y-85552811D01*
X156735242Y-85552695D01*
X156717895Y-85538333D01*
X156671647Y-85512425D01*
X156603467Y-85478610D01*
X156520323Y-85440529D01*
X156519866Y-85440327D01*
X156429538Y-85400109D01*
X156368992Y-85371133D01*
X156332288Y-85348874D01*
X156313486Y-85328807D01*
X156306646Y-85306409D01*
X156305829Y-85277156D01*
X156311513Y-85221763D01*
X156504400Y-85221763D01*
X156524311Y-85239177D01*
X156573921Y-85265272D01*
X156575376Y-85266010D01*
X156633906Y-85293883D01*
X156686268Y-85316119D01*
X156719486Y-85325526D01*
X156732810Y-85312952D01*
X156735246Y-85269868D01*
X156725124Y-85216247D01*
X156690031Y-85167519D01*
X156639223Y-85142256D01*
X156582581Y-85144806D01*
X156529984Y-85179520D01*
X156509310Y-85203507D01*
X156504400Y-85221763D01*
X156311513Y-85221763D01*
X156313022Y-85207054D01*
X156348584Y-85111812D01*
X156408114Y-85036967D01*
X156485146Y-84985145D01*
X156573215Y-84958973D01*
X156665854Y-84961076D01*
X156756598Y-84994081D01*
X156838979Y-85060615D01*
X156884622Y-85126455D01*
X156917408Y-85220436D01*
X156922739Y-85269868D01*
X156930187Y-85338936D01*
G36*
X156930187Y-85338936D02*
G01*
X156923974Y-85487043D01*
X156920466Y-85518421D01*
X156894327Y-85630105D01*
X156847094Y-85715042D01*
X156775262Y-85780141D01*
X156771202Y-85782828D01*
X156679887Y-85821034D01*
X156584544Y-85824434D01*
X156492674Y-85795339D01*
X156411779Y-85736060D01*
X156349362Y-85648910D01*
X156348314Y-85646809D01*
X156327573Y-85592689D01*
X156312380Y-85531181D01*
X156304321Y-85473439D01*
X156304982Y-85430615D01*
X156315948Y-85413862D01*
X156325690Y-85414880D01*
X156372277Y-85433409D01*
X156425082Y-85467481D01*
X156470003Y-85506922D01*
X156492935Y-85541555D01*
X156516773Y-85588533D01*
X156565630Y-85631262D01*
X156622363Y-85648323D01*
X156643158Y-85643390D01*
X156684204Y-85618557D01*
X156719957Y-85584085D01*
X156735246Y-85552811D01*
X156735242Y-85552695D01*
X156717895Y-85538333D01*
X156671647Y-85512425D01*
X156603467Y-85478610D01*
X156520323Y-85440529D01*
X156519866Y-85440327D01*
X156429538Y-85400109D01*
X156368992Y-85371133D01*
X156332288Y-85348874D01*
X156313486Y-85328807D01*
X156306646Y-85306409D01*
X156305829Y-85277156D01*
X156311513Y-85221763D01*
X156504400Y-85221763D01*
X156524311Y-85239177D01*
X156573921Y-85265272D01*
X156575376Y-85266010D01*
X156633906Y-85293883D01*
X156686268Y-85316119D01*
X156719486Y-85325526D01*
X156732810Y-85312952D01*
X156735246Y-85269868D01*
X156725124Y-85216247D01*
X156690031Y-85167519D01*
X156639223Y-85142256D01*
X156582581Y-85144806D01*
X156529984Y-85179520D01*
X156509310Y-85203507D01*
X156504400Y-85221763D01*
X156311513Y-85221763D01*
X156313022Y-85207054D01*
X156348584Y-85111812D01*
X156408114Y-85036967D01*
X156485146Y-84985145D01*
X156573215Y-84958973D01*
X156665854Y-84961076D01*
X156756598Y-84994081D01*
X156838979Y-85060615D01*
X156884622Y-85126455D01*
X156917408Y-85220436D01*
X156922739Y-85269868D01*
X156930187Y-85338936D01*
G37*
X154139858Y-85024628D02*
X154207022Y-85063789D01*
X154236569Y-85094302D01*
X154293348Y-85185510D01*
X154312477Y-85284948D01*
X154312477Y-85353360D01*
X154249591Y-85326918D01*
X154206100Y-85300237D01*
X154171826Y-85244846D01*
X154168307Y-85233424D01*
X154130428Y-85175238D01*
X154073336Y-85143807D01*
X154007783Y-85142458D01*
X153944517Y-85174516D01*
X153935072Y-85182783D01*
X153903487Y-85218711D01*
X153898271Y-85250035D01*
X153922165Y-85280791D01*
X153977910Y-85315017D01*
X154068246Y-85356750D01*
X154074356Y-85359393D01*
X154174641Y-85406155D01*
X154243135Y-85447581D01*
X154285299Y-85488942D01*
X154306593Y-85535511D01*
X154312477Y-85592560D01*
X154304766Y-85655808D01*
X154265830Y-85736764D01*
X154197332Y-85794922D01*
X154147788Y-85812383D01*
X154077869Y-85821937D01*
X154009975Y-85819896D01*
X153961493Y-85805482D01*
X153956343Y-85801893D01*
X153942667Y-85776816D01*
X153952157Y-85732618D01*
X153968646Y-85697927D01*
X153995087Y-85683484D01*
X154045234Y-85684203D01*
X154114853Y-85680060D01*
X154160343Y-85651454D01*
X154175708Y-85598504D01*
X154175694Y-85596982D01*
X154166383Y-85566245D01*
X154134711Y-85538043D01*
X154073131Y-85505536D01*
X153989386Y-85466398D01*
X153933918Y-85445106D01*
X153901897Y-85446479D01*
X153886934Y-85474603D01*
X153882642Y-85533570D01*
X153882631Y-85627468D01*
X153882152Y-85685431D01*
X153879956Y-85757012D01*
X153876386Y-85806006D01*
X153871891Y-85824169D01*
X153870690Y-85824046D01*
X153844719Y-85814202D01*
X153801705Y-85793428D01*
X153742259Y-85762687D01*
X153749323Y-85485698D01*
X153749814Y-85467328D01*
X153755425Y-85338392D01*
X153765338Y-85241214D01*
X153781575Y-85169325D01*
X153806159Y-85116252D01*
X153841115Y-85075527D01*
X153888464Y-85040679D01*
X153889340Y-85040133D01*
X153965899Y-85011703D01*
X154054444Y-85006900D01*
X154139858Y-85024628D01*
G36*
X154139858Y-85024628D02*
G01*
X154207022Y-85063789D01*
X154236569Y-85094302D01*
X154293348Y-85185510D01*
X154312477Y-85284948D01*
X154312477Y-85353360D01*
X154249591Y-85326918D01*
X154206100Y-85300237D01*
X154171826Y-85244846D01*
X154168307Y-85233424D01*
X154130428Y-85175238D01*
X154073336Y-85143807D01*
X154007783Y-85142458D01*
X153944517Y-85174516D01*
X153935072Y-85182783D01*
X153903487Y-85218711D01*
X153898271Y-85250035D01*
X153922165Y-85280791D01*
X153977910Y-85315017D01*
X154068246Y-85356750D01*
X154074356Y-85359393D01*
X154174641Y-85406155D01*
X154243135Y-85447581D01*
X154285299Y-85488942D01*
X154306593Y-85535511D01*
X154312477Y-85592560D01*
X154304766Y-85655808D01*
X154265830Y-85736764D01*
X154197332Y-85794922D01*
X154147788Y-85812383D01*
X154077869Y-85821937D01*
X154009975Y-85819896D01*
X153961493Y-85805482D01*
X153956343Y-85801893D01*
X153942667Y-85776816D01*
X153952157Y-85732618D01*
X153968646Y-85697927D01*
X153995087Y-85683484D01*
X154045234Y-85684203D01*
X154114853Y-85680060D01*
X154160343Y-85651454D01*
X154175708Y-85598504D01*
X154175694Y-85596982D01*
X154166383Y-85566245D01*
X154134711Y-85538043D01*
X154073131Y-85505536D01*
X153989386Y-85466398D01*
X153933918Y-85445106D01*
X153901897Y-85446479D01*
X153886934Y-85474603D01*
X153882642Y-85533570D01*
X153882631Y-85627468D01*
X153882152Y-85685431D01*
X153879956Y-85757012D01*
X153876386Y-85806006D01*
X153871891Y-85824169D01*
X153870690Y-85824046D01*
X153844719Y-85814202D01*
X153801705Y-85793428D01*
X153742259Y-85762687D01*
X153749323Y-85485698D01*
X153749814Y-85467328D01*
X153755425Y-85338392D01*
X153765338Y-85241214D01*
X153781575Y-85169325D01*
X153806159Y-85116252D01*
X153841115Y-85075527D01*
X153888464Y-85040679D01*
X153889340Y-85040133D01*
X153965899Y-85011703D01*
X154054444Y-85006900D01*
X154139858Y-85024628D01*
G37*
X151283336Y-85005311D02*
X151325207Y-85015947D01*
X151364191Y-85042462D01*
X151414365Y-85091820D01*
X151446632Y-85126679D01*
X151480244Y-85171934D01*
X151495403Y-85214351D01*
X151498939Y-85268168D01*
X151498939Y-85356250D01*
X151438870Y-85325187D01*
X151391267Y-85287336D01*
X151358661Y-85236350D01*
X151353061Y-85222488D01*
X151310392Y-85168758D01*
X151251107Y-85141817D01*
X151186461Y-85144439D01*
X151127708Y-85179400D01*
X151102850Y-85207794D01*
X151088370Y-85244118D01*
X151103870Y-85276446D01*
X151152067Y-85308965D01*
X151235674Y-85345861D01*
X151248362Y-85350957D01*
X151324478Y-85384307D01*
X151389796Y-85417193D01*
X151431353Y-85443169D01*
X151472976Y-85489567D01*
X151500647Y-85563611D01*
X151497710Y-85643070D01*
X151464971Y-85718268D01*
X151403241Y-85779531D01*
X151353258Y-85805610D01*
X151256703Y-85823870D01*
X151203047Y-85821407D01*
X151153376Y-85808087D01*
X151134319Y-85780139D01*
X151141445Y-85734110D01*
X151143518Y-85728024D01*
X151159956Y-85695749D01*
X151187326Y-85683533D01*
X151239468Y-85684350D01*
X151276284Y-85685461D01*
X151319361Y-85675928D01*
X151348875Y-85647426D01*
X151365686Y-85612335D01*
X151367561Y-85575575D01*
X151367474Y-85575361D01*
X151345679Y-85555498D01*
X151299032Y-85526592D01*
X151238678Y-85494286D01*
X151175760Y-85464223D01*
X151121423Y-85442046D01*
X151086810Y-85433400D01*
X151081660Y-85441867D01*
X151075178Y-85481709D01*
X151070739Y-85546771D01*
X151069092Y-85628785D01*
X151068709Y-85685553D01*
X151066905Y-85757048D01*
X151063958Y-85806010D01*
X151060243Y-85824169D01*
X151040824Y-85818067D01*
X151001627Y-85801495D01*
X150951862Y-85778820D01*
X150951862Y-85487909D01*
X150952180Y-85413340D01*
X150955189Y-85300101D01*
X150962854Y-85216092D01*
X150976962Y-85154920D01*
X150999299Y-85110195D01*
X151031653Y-85075524D01*
X151075810Y-85044517D01*
X151132067Y-85018928D01*
X151235940Y-85003554D01*
X151283336Y-85005311D01*
G36*
X151283336Y-85005311D02*
G01*
X151325207Y-85015947D01*
X151364191Y-85042462D01*
X151414365Y-85091820D01*
X151446632Y-85126679D01*
X151480244Y-85171934D01*
X151495403Y-85214351D01*
X151498939Y-85268168D01*
X151498939Y-85356250D01*
X151438870Y-85325187D01*
X151391267Y-85287336D01*
X151358661Y-85236350D01*
X151353061Y-85222488D01*
X151310392Y-85168758D01*
X151251107Y-85141817D01*
X151186461Y-85144439D01*
X151127708Y-85179400D01*
X151102850Y-85207794D01*
X151088370Y-85244118D01*
X151103870Y-85276446D01*
X151152067Y-85308965D01*
X151235674Y-85345861D01*
X151248362Y-85350957D01*
X151324478Y-85384307D01*
X151389796Y-85417193D01*
X151431353Y-85443169D01*
X151472976Y-85489567D01*
X151500647Y-85563611D01*
X151497710Y-85643070D01*
X151464971Y-85718268D01*
X151403241Y-85779531D01*
X151353258Y-85805610D01*
X151256703Y-85823870D01*
X151203047Y-85821407D01*
X151153376Y-85808087D01*
X151134319Y-85780139D01*
X151141445Y-85734110D01*
X151143518Y-85728024D01*
X151159956Y-85695749D01*
X151187326Y-85683533D01*
X151239468Y-85684350D01*
X151276284Y-85685461D01*
X151319361Y-85675928D01*
X151348875Y-85647426D01*
X151365686Y-85612335D01*
X151367561Y-85575575D01*
X151367474Y-85575361D01*
X151345679Y-85555498D01*
X151299032Y-85526592D01*
X151238678Y-85494286D01*
X151175760Y-85464223D01*
X151121423Y-85442046D01*
X151086810Y-85433400D01*
X151081660Y-85441867D01*
X151075178Y-85481709D01*
X151070739Y-85546771D01*
X151069092Y-85628785D01*
X151068709Y-85685553D01*
X151066905Y-85757048D01*
X151063958Y-85806010D01*
X151060243Y-85824169D01*
X151040824Y-85818067D01*
X151001627Y-85801495D01*
X150951862Y-85778820D01*
X150951862Y-85487909D01*
X150952180Y-85413340D01*
X150955189Y-85300101D01*
X150962854Y-85216092D01*
X150976962Y-85154920D01*
X150999299Y-85110195D01*
X151031653Y-85075524D01*
X151075810Y-85044517D01*
X151132067Y-85018928D01*
X151235940Y-85003554D01*
X151283336Y-85005311D01*
G37*
X157667228Y-85483605D02*
X157669163Y-85633669D01*
X157669700Y-85677202D01*
X157671419Y-85822744D01*
X157671765Y-85934111D01*
X157669677Y-86015204D01*
X157664098Y-86069922D01*
X157653967Y-86102161D01*
X157638226Y-86115822D01*
X157615817Y-86114803D01*
X157585680Y-86103003D01*
X157546755Y-86084320D01*
X157538438Y-86080333D01*
X157503802Y-86060819D01*
X157485714Y-86037602D01*
X157478792Y-85998892D01*
X157477656Y-85932897D01*
X157477605Y-85814400D01*
X157355541Y-85814400D01*
X157280455Y-85811112D01*
X157221415Y-85797777D01*
X157172386Y-85770823D01*
X157168730Y-85768188D01*
X157118981Y-85723686D01*
X157084359Y-85669923D01*
X157062523Y-85599554D01*
X157051137Y-85505230D01*
X157048359Y-85398671D01*
X157243246Y-85398671D01*
X157243280Y-85416531D01*
X157245135Y-85497148D01*
X157251093Y-85549847D01*
X157262906Y-85584068D01*
X157282323Y-85609246D01*
X157283533Y-85610449D01*
X157331258Y-85643028D01*
X157377510Y-85639817D01*
X157429750Y-85600365D01*
X157442528Y-85586882D01*
X157461349Y-85559237D01*
X157471962Y-85523280D01*
X157476652Y-85468764D01*
X157477708Y-85385442D01*
X157476794Y-85334998D01*
X157466877Y-85243257D01*
X157444242Y-85183152D01*
X157406638Y-85150300D01*
X157351816Y-85140323D01*
X157328717Y-85142450D01*
X157288750Y-85163547D01*
X157262326Y-85210561D01*
X157247730Y-85287575D01*
X157243246Y-85398671D01*
X157048359Y-85398671D01*
X157047862Y-85379606D01*
X157048587Y-85287936D01*
X157051890Y-85218498D01*
X157059228Y-85170345D01*
X157072055Y-85134266D01*
X157091823Y-85101048D01*
X157109969Y-85075661D01*
X157175861Y-85007127D01*
X157250514Y-84969905D01*
X157344304Y-84958122D01*
X157451640Y-84969867D01*
X157544431Y-85011995D01*
X157617821Y-85086298D01*
X157623354Y-85094164D01*
X157636257Y-85115068D01*
X157646142Y-85138955D01*
X157653493Y-85170982D01*
X157658794Y-85216305D01*
X157662527Y-85280079D01*
X157665178Y-85367460D01*
X157665496Y-85385442D01*
X157667228Y-85483605D01*
G36*
X157667228Y-85483605D02*
G01*
X157669163Y-85633669D01*
X157669700Y-85677202D01*
X157671419Y-85822744D01*
X157671765Y-85934111D01*
X157669677Y-86015204D01*
X157664098Y-86069922D01*
X157653967Y-86102161D01*
X157638226Y-86115822D01*
X157615817Y-86114803D01*
X157585680Y-86103003D01*
X157546755Y-86084320D01*
X157538438Y-86080333D01*
X157503802Y-86060819D01*
X157485714Y-86037602D01*
X157478792Y-85998892D01*
X157477656Y-85932897D01*
X157477605Y-85814400D01*
X157355541Y-85814400D01*
X157280455Y-85811112D01*
X157221415Y-85797777D01*
X157172386Y-85770823D01*
X157168730Y-85768188D01*
X157118981Y-85723686D01*
X157084359Y-85669923D01*
X157062523Y-85599554D01*
X157051137Y-85505230D01*
X157048359Y-85398671D01*
X157243246Y-85398671D01*
X157243280Y-85416531D01*
X157245135Y-85497148D01*
X157251093Y-85549847D01*
X157262906Y-85584068D01*
X157282323Y-85609246D01*
X157283533Y-85610449D01*
X157331258Y-85643028D01*
X157377510Y-85639817D01*
X157429750Y-85600365D01*
X157442528Y-85586882D01*
X157461349Y-85559237D01*
X157471962Y-85523280D01*
X157476652Y-85468764D01*
X157477708Y-85385442D01*
X157476794Y-85334998D01*
X157466877Y-85243257D01*
X157444242Y-85183152D01*
X157406638Y-85150300D01*
X157351816Y-85140323D01*
X157328717Y-85142450D01*
X157288750Y-85163547D01*
X157262326Y-85210561D01*
X157247730Y-85287575D01*
X157243246Y-85398671D01*
X157048359Y-85398671D01*
X157047862Y-85379606D01*
X157048587Y-85287936D01*
X157051890Y-85218498D01*
X157059228Y-85170345D01*
X157072055Y-85134266D01*
X157091823Y-85101048D01*
X157109969Y-85075661D01*
X157175861Y-85007127D01*
X157250514Y-84969905D01*
X157344304Y-84958122D01*
X157451640Y-84969867D01*
X157544431Y-85011995D01*
X157617821Y-85086298D01*
X157623354Y-85094164D01*
X157636257Y-85115068D01*
X157646142Y-85138955D01*
X157653493Y-85170982D01*
X157658794Y-85216305D01*
X157662527Y-85280079D01*
X157665178Y-85367460D01*
X157665496Y-85385442D01*
X157667228Y-85483605D01*
G37*
X154036975Y-78673093D02*
X154172771Y-78673207D01*
X154274976Y-78673872D01*
X154348522Y-78675582D01*
X154398342Y-78678829D01*
X154429367Y-78684106D01*
X154446529Y-78691907D01*
X154454761Y-78702725D01*
X154458994Y-78717054D01*
X154459116Y-78717568D01*
X154466072Y-78751251D01*
X154478720Y-78816317D01*
X154495760Y-78905942D01*
X154515896Y-79013304D01*
X154537829Y-79131578D01*
X154539618Y-79141256D01*
X154561483Y-79256050D01*
X154581830Y-79356880D01*
X154599334Y-79437617D01*
X154612671Y-79492134D01*
X154620516Y-79514301D01*
X154620558Y-79514336D01*
X154645284Y-79526600D01*
X154696031Y-79546976D01*
X154761862Y-79571074D01*
X154765569Y-79572383D01*
X154849731Y-79604191D01*
X154947630Y-79644085D01*
X155038835Y-79683753D01*
X155188807Y-79751820D01*
X155520899Y-79525039D01*
X155544289Y-79509088D01*
X155644480Y-79441290D01*
X155733880Y-79381608D01*
X155807145Y-79333556D01*
X155858927Y-79300650D01*
X155883880Y-79286404D01*
X155900977Y-79289670D01*
X155939795Y-79314971D01*
X155999785Y-79365075D01*
X156082610Y-79441389D01*
X156189935Y-79545322D01*
X156199539Y-79554782D01*
X156284702Y-79639545D01*
X156360349Y-79716337D01*
X156421849Y-79780347D01*
X156464573Y-79826761D01*
X156483889Y-79850769D01*
X156483952Y-79850885D01*
X156486406Y-79869163D01*
X156477356Y-79898811D01*
X156454519Y-79943886D01*
X156415613Y-80008444D01*
X156358354Y-80096540D01*
X156280459Y-80212230D01*
X156267185Y-80231757D01*
X156200052Y-80330678D01*
X156140810Y-80418248D01*
X156092988Y-80489231D01*
X156060115Y-80538391D01*
X156045718Y-80560495D01*
X156044632Y-80565177D01*
X156051444Y-80600110D01*
X156071850Y-80657153D01*
X156102523Y-80726572D01*
X156144208Y-80817359D01*
X156190752Y-80925086D01*
X156230277Y-81022592D01*
X156240076Y-81047830D01*
X156265740Y-81112270D01*
X156284593Y-81157163D01*
X156293110Y-81174016D01*
X156302511Y-81175275D01*
X156344763Y-81182559D01*
X156413921Y-81195139D01*
X156502787Y-81211646D01*
X156604168Y-81230712D01*
X156710867Y-81250969D01*
X156815688Y-81271047D01*
X156911436Y-81289579D01*
X156990916Y-81305195D01*
X157046930Y-81316527D01*
X157072285Y-81322207D01*
X157076488Y-81323808D01*
X157086734Y-81332445D01*
X157094357Y-81350833D01*
X157099738Y-81383860D01*
X157103259Y-81436413D01*
X157105301Y-81513379D01*
X157106247Y-81619646D01*
X157106477Y-81760101D01*
X157106477Y-82187245D01*
X157003900Y-82207491D01*
X156991492Y-82209918D01*
X156925599Y-82222488D01*
X156834484Y-82239570D01*
X156728504Y-82259229D01*
X156618015Y-82279532D01*
X156574505Y-82287699D01*
X156477282Y-82307567D01*
X156396258Y-82326354D01*
X156338877Y-82342259D01*
X156312587Y-82353479D01*
X156300673Y-82371811D01*
X156278983Y-82420316D01*
X156256795Y-82483092D01*
X156248985Y-82506600D01*
X156220235Y-82583766D01*
X156183152Y-82675094D01*
X156143775Y-82765493D01*
X156122715Y-82812710D01*
X156092711Y-82883237D01*
X156072092Y-82936055D01*
X156064426Y-82962312D01*
X156064852Y-82964294D01*
X156079393Y-82992151D01*
X156112183Y-83045910D01*
X156159893Y-83120363D01*
X156219198Y-83210297D01*
X156286769Y-83310504D01*
X156509113Y-83636816D01*
X156217001Y-83929416D01*
X156188749Y-83957571D01*
X156102361Y-84041849D01*
X156025156Y-84114528D01*
X155961658Y-84171512D01*
X155916390Y-84208707D01*
X155893874Y-84222016D01*
X155869423Y-84211890D01*
X155818219Y-84182821D01*
X155746147Y-84138296D01*
X155658860Y-84081811D01*
X155562012Y-84016862D01*
X155466886Y-83952714D01*
X155381069Y-83896227D01*
X155311052Y-83851584D01*
X155262276Y-83822255D01*
X155240183Y-83811708D01*
X155238888Y-83811804D01*
X155209539Y-83822202D01*
X155157493Y-83846412D01*
X155093108Y-83879649D01*
X155092432Y-83880013D01*
X155006921Y-83922841D01*
X154948326Y-83943765D01*
X154911971Y-83943823D01*
X154893175Y-83924054D01*
X154885219Y-83904595D01*
X154863747Y-83852480D01*
X154830673Y-83772364D01*
X154787756Y-83668507D01*
X154736756Y-83545167D01*
X154679433Y-83406601D01*
X154617546Y-83257070D01*
X154561452Y-83121036D01*
X154504377Y-82981450D01*
X154453879Y-82856715D01*
X154411654Y-82751072D01*
X154379395Y-82668765D01*
X154358797Y-82614035D01*
X154351554Y-82591126D01*
X154365386Y-82570118D01*
X154403812Y-82535042D01*
X154458207Y-82494287D01*
X154588795Y-82387667D01*
X154705660Y-82251425D01*
X154791180Y-82101518D01*
X154844831Y-81942371D01*
X154866084Y-81778412D01*
X154854414Y-81614067D01*
X154809294Y-81453761D01*
X154730197Y-81301920D01*
X154616597Y-81162972D01*
X154557365Y-81108860D01*
X154415454Y-81013182D01*
X154263606Y-80950805D01*
X154106261Y-80920244D01*
X153947856Y-80920015D01*
X153792829Y-80948632D01*
X153645620Y-81004610D01*
X153510666Y-81086464D01*
X153392405Y-81192709D01*
X153295277Y-81321859D01*
X153223718Y-81472431D01*
X153182169Y-81642939D01*
X153174543Y-81725122D01*
X153185034Y-81903175D01*
X153232282Y-82072104D01*
X153314889Y-82228922D01*
X153431459Y-82370645D01*
X153580593Y-82494287D01*
X153632961Y-82533382D01*
X153672232Y-82568843D01*
X153687246Y-82591092D01*
X153681259Y-82610488D01*
X153661832Y-82662459D01*
X153630594Y-82742402D01*
X153589239Y-82846073D01*
X153539461Y-82969232D01*
X153482953Y-83107634D01*
X153421409Y-83257037D01*
X153365408Y-83392420D01*
X153307584Y-83532252D01*
X153255900Y-83657272D01*
X153212118Y-83763222D01*
X153177997Y-83845841D01*
X153155298Y-83900872D01*
X153145780Y-83924054D01*
X153145669Y-83924328D01*
X153126628Y-83943903D01*
X153090094Y-83943679D01*
X153031354Y-83922610D01*
X152945692Y-83879649D01*
X152938949Y-83876031D01*
X152875338Y-83843487D01*
X152825107Y-83820450D01*
X152798618Y-83811708D01*
X152776906Y-83822039D01*
X152728384Y-83851188D01*
X152658563Y-83895687D01*
X152572884Y-83952068D01*
X152476788Y-84016862D01*
X152382106Y-84080384D01*
X152294532Y-84137105D01*
X152222042Y-84181947D01*
X152170289Y-84211416D01*
X152144926Y-84222016D01*
X152140606Y-84220670D01*
X152110492Y-84199456D01*
X152059040Y-84155637D01*
X151990775Y-84093309D01*
X151910220Y-84016570D01*
X151821900Y-83929516D01*
X151529888Y-83637017D01*
X151984760Y-82967925D01*
X151915608Y-82818316D01*
X151915403Y-82817873D01*
X151873877Y-82722501D01*
X151831444Y-82616296D01*
X151797258Y-82522169D01*
X151792084Y-82506988D01*
X151766001Y-82436509D01*
X151742481Y-82381742D01*
X151726077Y-82353479D01*
X151719396Y-82349488D01*
X151679292Y-82336097D01*
X151611195Y-82318773D01*
X151522545Y-82299317D01*
X151420785Y-82279532D01*
X151390304Y-82273951D01*
X151280028Y-82253633D01*
X151177131Y-82234495D01*
X151091969Y-82218470D01*
X151034900Y-82207491D01*
X150932323Y-82187245D01*
X150932323Y-81760101D01*
X150932346Y-81707580D01*
X150932779Y-81579447D01*
X150934059Y-81483820D01*
X150936568Y-81415811D01*
X150940686Y-81370533D01*
X150946795Y-81343097D01*
X150955278Y-81328618D01*
X150966515Y-81322207D01*
X150977394Y-81319609D01*
X151021747Y-81310422D01*
X151092506Y-81296391D01*
X151182474Y-81278886D01*
X151284456Y-81259274D01*
X151391257Y-81238925D01*
X151495681Y-81219207D01*
X151590532Y-81201489D01*
X151668614Y-81187138D01*
X151722732Y-81177524D01*
X151745691Y-81174016D01*
X151747242Y-81171897D01*
X151759725Y-81144406D01*
X151781327Y-81091806D01*
X151808523Y-81022592D01*
X151846266Y-80929337D01*
X151892728Y-80821559D01*
X151936278Y-80726572D01*
X151946258Y-80705251D01*
X151974262Y-80638486D01*
X151991041Y-80586990D01*
X151993254Y-80560495D01*
X151992113Y-80558618D01*
X151973984Y-80530965D01*
X151938044Y-80477249D01*
X151887818Y-80402703D01*
X151826830Y-80312562D01*
X151758605Y-80212057D01*
X151681730Y-80097870D01*
X151624063Y-80009170D01*
X151584826Y-79944121D01*
X151561750Y-79898695D01*
X151552566Y-79868863D01*
X151555004Y-79850595D01*
X151555824Y-79849225D01*
X151577877Y-79822605D01*
X151622836Y-79774097D01*
X151686073Y-79708508D01*
X151762959Y-79630647D01*
X151848865Y-79545322D01*
X151937979Y-79458734D01*
X152025272Y-79377347D01*
X152089418Y-79322435D01*
X152132079Y-79292590D01*
X152154921Y-79286404D01*
X152157905Y-79287794D01*
X152189336Y-79306527D01*
X152246397Y-79343133D01*
X152323743Y-79394097D01*
X152416026Y-79455904D01*
X152517902Y-79525039D01*
X152849993Y-79751820D01*
X152999966Y-79683753D01*
X153004323Y-79681781D01*
X153096400Y-79641891D01*
X153194083Y-79602218D01*
X153276939Y-79571074D01*
X153277305Y-79570945D01*
X153343085Y-79546856D01*
X153393723Y-79526510D01*
X153418284Y-79514301D01*
X153418682Y-79513858D01*
X153427019Y-79488856D01*
X153440741Y-79431998D01*
X153458523Y-79349414D01*
X153479041Y-79247231D01*
X153500971Y-79131578D01*
X153501736Y-79127433D01*
X153523629Y-79009419D01*
X153543681Y-78902551D01*
X153560592Y-78813652D01*
X153573067Y-78749545D01*
X153579806Y-78717054D01*
X153580237Y-78715253D01*
X153584673Y-78701344D01*
X153593663Y-78690889D01*
X153612137Y-78683396D01*
X153645028Y-78678372D01*
X153697268Y-78675322D01*
X153773788Y-78673755D01*
X153879522Y-78673176D01*
X154019400Y-78673092D01*
X154036975Y-78673093D01*
G36*
X154036975Y-78673093D02*
G01*
X154172771Y-78673207D01*
X154274976Y-78673872D01*
X154348522Y-78675582D01*
X154398342Y-78678829D01*
X154429367Y-78684106D01*
X154446529Y-78691907D01*
X154454761Y-78702725D01*
X154458994Y-78717054D01*
X154459116Y-78717568D01*
X154466072Y-78751251D01*
X154478720Y-78816317D01*
X154495760Y-78905942D01*
X154515896Y-79013304D01*
X154537829Y-79131578D01*
X154539618Y-79141256D01*
X154561483Y-79256050D01*
X154581830Y-79356880D01*
X154599334Y-79437617D01*
X154612671Y-79492134D01*
X154620516Y-79514301D01*
X154620558Y-79514336D01*
X154645284Y-79526600D01*
X154696031Y-79546976D01*
X154761862Y-79571074D01*
X154765569Y-79572383D01*
X154849731Y-79604191D01*
X154947630Y-79644085D01*
X155038835Y-79683753D01*
X155188807Y-79751820D01*
X155520899Y-79525039D01*
X155544289Y-79509088D01*
X155644480Y-79441290D01*
X155733880Y-79381608D01*
X155807145Y-79333556D01*
X155858927Y-79300650D01*
X155883880Y-79286404D01*
X155900977Y-79289670D01*
X155939795Y-79314971D01*
X155999785Y-79365075D01*
X156082610Y-79441389D01*
X156189935Y-79545322D01*
X156199539Y-79554782D01*
X156284702Y-79639545D01*
X156360349Y-79716337D01*
X156421849Y-79780347D01*
X156464573Y-79826761D01*
X156483889Y-79850769D01*
X156483952Y-79850885D01*
X156486406Y-79869163D01*
X156477356Y-79898811D01*
X156454519Y-79943886D01*
X156415613Y-80008444D01*
X156358354Y-80096540D01*
X156280459Y-80212230D01*
X156267185Y-80231757D01*
X156200052Y-80330678D01*
X156140810Y-80418248D01*
X156092988Y-80489231D01*
X156060115Y-80538391D01*
X156045718Y-80560495D01*
X156044632Y-80565177D01*
X156051444Y-80600110D01*
X156071850Y-80657153D01*
X156102523Y-80726572D01*
X156144208Y-80817359D01*
X156190752Y-80925086D01*
X156230277Y-81022592D01*
X156240076Y-81047830D01*
X156265740Y-81112270D01*
X156284593Y-81157163D01*
X156293110Y-81174016D01*
X156302511Y-81175275D01*
X156344763Y-81182559D01*
X156413921Y-81195139D01*
X156502787Y-81211646D01*
X156604168Y-81230712D01*
X156710867Y-81250969D01*
X156815688Y-81271047D01*
X156911436Y-81289579D01*
X156990916Y-81305195D01*
X157046930Y-81316527D01*
X157072285Y-81322207D01*
X157076488Y-81323808D01*
X157086734Y-81332445D01*
X157094357Y-81350833D01*
X157099738Y-81383860D01*
X157103259Y-81436413D01*
X157105301Y-81513379D01*
X157106247Y-81619646D01*
X157106477Y-81760101D01*
X157106477Y-82187245D01*
X157003900Y-82207491D01*
X156991492Y-82209918D01*
X156925599Y-82222488D01*
X156834484Y-82239570D01*
X156728504Y-82259229D01*
X156618015Y-82279532D01*
X156574505Y-82287699D01*
X156477282Y-82307567D01*
X156396258Y-82326354D01*
X156338877Y-82342259D01*
X156312587Y-82353479D01*
X156300673Y-82371811D01*
X156278983Y-82420316D01*
X156256795Y-82483092D01*
X156248985Y-82506600D01*
X156220235Y-82583766D01*
X156183152Y-82675094D01*
X156143775Y-82765493D01*
X156122715Y-82812710D01*
X156092711Y-82883237D01*
X156072092Y-82936055D01*
X156064426Y-82962312D01*
X156064852Y-82964294D01*
X156079393Y-82992151D01*
X156112183Y-83045910D01*
X156159893Y-83120363D01*
X156219198Y-83210297D01*
X156286769Y-83310504D01*
X156509113Y-83636816D01*
X156217001Y-83929416D01*
X156188749Y-83957571D01*
X156102361Y-84041849D01*
X156025156Y-84114528D01*
X155961658Y-84171512D01*
X155916390Y-84208707D01*
X155893874Y-84222016D01*
X155869423Y-84211890D01*
X155818219Y-84182821D01*
X155746147Y-84138296D01*
X155658860Y-84081811D01*
X155562012Y-84016862D01*
X155466886Y-83952714D01*
X155381069Y-83896227D01*
X155311052Y-83851584D01*
X155262276Y-83822255D01*
X155240183Y-83811708D01*
X155238888Y-83811804D01*
X155209539Y-83822202D01*
X155157493Y-83846412D01*
X155093108Y-83879649D01*
X155092432Y-83880013D01*
X155006921Y-83922841D01*
X154948326Y-83943765D01*
X154911971Y-83943823D01*
X154893175Y-83924054D01*
X154885219Y-83904595D01*
X154863747Y-83852480D01*
X154830673Y-83772364D01*
X154787756Y-83668507D01*
X154736756Y-83545167D01*
X154679433Y-83406601D01*
X154617546Y-83257070D01*
X154561452Y-83121036D01*
X154504377Y-82981450D01*
X154453879Y-82856715D01*
X154411654Y-82751072D01*
X154379395Y-82668765D01*
X154358797Y-82614035D01*
X154351554Y-82591126D01*
X154365386Y-82570118D01*
X154403812Y-82535042D01*
X154458207Y-82494287D01*
X154588795Y-82387667D01*
X154705660Y-82251425D01*
X154791180Y-82101518D01*
X154844831Y-81942371D01*
X154866084Y-81778412D01*
X154854414Y-81614067D01*
X154809294Y-81453761D01*
X154730197Y-81301920D01*
X154616597Y-81162972D01*
X154557365Y-81108860D01*
X154415454Y-81013182D01*
X154263606Y-80950805D01*
X154106261Y-80920244D01*
X153947856Y-80920015D01*
X153792829Y-80948632D01*
X153645620Y-81004610D01*
X153510666Y-81086464D01*
X153392405Y-81192709D01*
X153295277Y-81321859D01*
X153223718Y-81472431D01*
X153182169Y-81642939D01*
X153174543Y-81725122D01*
X153185034Y-81903175D01*
X153232282Y-82072104D01*
X153314889Y-82228922D01*
X153431459Y-82370645D01*
X153580593Y-82494287D01*
X153632961Y-82533382D01*
X153672232Y-82568843D01*
X153687246Y-82591092D01*
X153681259Y-82610488D01*
X153661832Y-82662459D01*
X153630594Y-82742402D01*
X153589239Y-82846073D01*
X153539461Y-82969232D01*
X153482953Y-83107634D01*
X153421409Y-83257037D01*
X153365408Y-83392420D01*
X153307584Y-83532252D01*
X153255900Y-83657272D01*
X153212118Y-83763222D01*
X153177997Y-83845841D01*
X153155298Y-83900872D01*
X153145780Y-83924054D01*
X153145669Y-83924328D01*
X153126628Y-83943903D01*
X153090094Y-83943679D01*
X153031354Y-83922610D01*
X152945692Y-83879649D01*
X152938949Y-83876031D01*
X152875338Y-83843487D01*
X152825107Y-83820450D01*
X152798618Y-83811708D01*
X152776906Y-83822039D01*
X152728384Y-83851188D01*
X152658563Y-83895687D01*
X152572884Y-83952068D01*
X152476788Y-84016862D01*
X152382106Y-84080384D01*
X152294532Y-84137105D01*
X152222042Y-84181947D01*
X152170289Y-84211416D01*
X152144926Y-84222016D01*
X152140606Y-84220670D01*
X152110492Y-84199456D01*
X152059040Y-84155637D01*
X151990775Y-84093309D01*
X151910220Y-84016570D01*
X151821900Y-83929516D01*
X151529888Y-83637017D01*
X151984760Y-82967925D01*
X151915608Y-82818316D01*
X151915403Y-82817873D01*
X151873877Y-82722501D01*
X151831444Y-82616296D01*
X151797258Y-82522169D01*
X151792084Y-82506988D01*
X151766001Y-82436509D01*
X151742481Y-82381742D01*
X151726077Y-82353479D01*
X151719396Y-82349488D01*
X151679292Y-82336097D01*
X151611195Y-82318773D01*
X151522545Y-82299317D01*
X151420785Y-82279532D01*
X151390304Y-82273951D01*
X151280028Y-82253633D01*
X151177131Y-82234495D01*
X151091969Y-82218470D01*
X151034900Y-82207491D01*
X150932323Y-82187245D01*
X150932323Y-81760101D01*
X150932346Y-81707580D01*
X150932779Y-81579447D01*
X150934059Y-81483820D01*
X150936568Y-81415811D01*
X150940686Y-81370533D01*
X150946795Y-81343097D01*
X150955278Y-81328618D01*
X150966515Y-81322207D01*
X150977394Y-81319609D01*
X151021747Y-81310422D01*
X151092506Y-81296391D01*
X151182474Y-81278886D01*
X151284456Y-81259274D01*
X151391257Y-81238925D01*
X151495681Y-81219207D01*
X151590532Y-81201489D01*
X151668614Y-81187138D01*
X151722732Y-81177524D01*
X151745691Y-81174016D01*
X151747242Y-81171897D01*
X151759725Y-81144406D01*
X151781327Y-81091806D01*
X151808523Y-81022592D01*
X151846266Y-80929337D01*
X151892728Y-80821559D01*
X151936278Y-80726572D01*
X151946258Y-80705251D01*
X151974262Y-80638486D01*
X151991041Y-80586990D01*
X151993254Y-80560495D01*
X151992113Y-80558618D01*
X151973984Y-80530965D01*
X151938044Y-80477249D01*
X151887818Y-80402703D01*
X151826830Y-80312562D01*
X151758605Y-80212057D01*
X151681730Y-80097870D01*
X151624063Y-80009170D01*
X151584826Y-79944121D01*
X151561750Y-79898695D01*
X151552566Y-79868863D01*
X151555004Y-79850595D01*
X151555824Y-79849225D01*
X151577877Y-79822605D01*
X151622836Y-79774097D01*
X151686073Y-79708508D01*
X151762959Y-79630647D01*
X151848865Y-79545322D01*
X151937979Y-79458734D01*
X152025272Y-79377347D01*
X152089418Y-79322435D01*
X152132079Y-79292590D01*
X152154921Y-79286404D01*
X152157905Y-79287794D01*
X152189336Y-79306527D01*
X152246397Y-79343133D01*
X152323743Y-79394097D01*
X152416026Y-79455904D01*
X152517902Y-79525039D01*
X152849993Y-79751820D01*
X152999966Y-79683753D01*
X153004323Y-79681781D01*
X153096400Y-79641891D01*
X153194083Y-79602218D01*
X153276939Y-79571074D01*
X153277305Y-79570945D01*
X153343085Y-79546856D01*
X153393723Y-79526510D01*
X153418284Y-79514301D01*
X153418682Y-79513858D01*
X153427019Y-79488856D01*
X153440741Y-79431998D01*
X153458523Y-79349414D01*
X153479041Y-79247231D01*
X153500971Y-79131578D01*
X153501736Y-79127433D01*
X153523629Y-79009419D01*
X153543681Y-78902551D01*
X153560592Y-78813652D01*
X153573067Y-78749545D01*
X153579806Y-78717054D01*
X153580237Y-78715253D01*
X153584673Y-78701344D01*
X153593663Y-78690889D01*
X153612137Y-78683396D01*
X153645028Y-78678372D01*
X153697268Y-78675322D01*
X153773788Y-78673755D01*
X153879522Y-78673176D01*
X154019400Y-78673092D01*
X154036975Y-78673093D01*
G37*
%LPC*%
D15*
X170280000Y-67790000D03*
X170280000Y-70790000D03*
D16*
X169000000Y-26000000D03*
D17*
X101613800Y-67831109D03*
X101613800Y-67043709D03*
X101613800Y-66256309D03*
X101613800Y-65468909D03*
X101613800Y-64681509D03*
X100826400Y-67831109D03*
X100826400Y-67043709D03*
X100826400Y-66256309D03*
X100826400Y-65468909D03*
X100826400Y-64681509D03*
X100039000Y-67831109D03*
X100039000Y-67043709D03*
X100039000Y-66256309D03*
X100039000Y-65468909D03*
X100039000Y-64681509D03*
X99251600Y-67831109D03*
X99251600Y-67043709D03*
X99251600Y-66256309D03*
X99251600Y-65468909D03*
X99251600Y-64681509D03*
X98464200Y-67831109D03*
X98464200Y-67043709D03*
X98464200Y-66256309D03*
X98464200Y-65468909D03*
X98464200Y-64681509D03*
D16*
X169000000Y-89013400D03*
X63660000Y-89013400D03*
D18*
X68890000Y-85770000D03*
X74670000Y-85770000D03*
D19*
X67460000Y-85240000D03*
D20*
X67460000Y-89420000D03*
D19*
X76100000Y-85240000D03*
D20*
X76100000Y-89420000D03*
D21*
X170450000Y-81050000D03*
X170450000Y-83350000D03*
X114290000Y-89940000D03*
X111990000Y-89940000D03*
X102570000Y-89940000D03*
X100270000Y-89940000D03*
X90850000Y-89940000D03*
X88550000Y-89940000D03*
D16*
X63660000Y-26000000D03*
D22*
X155125000Y-90307500D03*
X149765000Y-90307500D03*
D23*
X72440000Y-28070000D03*
D24*
X74980000Y-28070000D03*
X77520000Y-28070000D03*
X80060000Y-28070000D03*
X82600000Y-28070000D03*
X85140000Y-28070000D03*
%LPD*%
M02*
