G04 #@! TF.GenerationSoftware,KiCad,Pcbnew,9.0.6*
G04 #@! TF.CreationDate,2026-02-22T19:02:19+01:00*
G04 #@! TF.ProjectId,epdiy-v7-light,65706469-792d-4763-972d-6c696768742e,1.1*
G04 #@! TF.SameCoordinates,Original*
G04 #@! TF.FileFunction,Soldermask,Bot*
G04 #@! TF.FilePolarity,Negative*
%FSLAX46Y46*%
G04 Gerber Fmt 4.6, Leading zero omitted, Abs format (unit mm)*
G04 Created by KiCad (PCBNEW 9.0.6) date 2026-02-22 19:02:19*
%MOMM*%
%LPD*%
G01*
G04 APERTURE LIST*
%ADD10C,0.850000*%
%ADD11C,2.200000*%
%ADD12C,0.508000*%
%ADD13C,0.650000*%
%ADD14O,1.000000X2.100000*%
%ADD15O,1.000000X1.600000*%
%ADD16C,0.800000*%
%ADD17O,0.800000X1.300000*%
%ADD18R,1.700000X1.700000*%
%ADD19C,1.700000*%
G04 APERTURE END LIST*
D10*
X170280000Y-67790000D03*
X170280000Y-70790000D03*
D11*
X169000000Y-26000000D03*
D12*
X101613800Y-67831109D03*
X101613800Y-67043709D03*
X101613800Y-66256309D03*
X101613800Y-65468909D03*
X101613800Y-64681509D03*
X100826400Y-67831109D03*
X100826400Y-67043709D03*
X100826400Y-66256309D03*
X100826400Y-65468909D03*
X100826400Y-64681509D03*
X100039000Y-67831109D03*
X100039000Y-67043709D03*
X100039000Y-66256309D03*
X100039000Y-65468909D03*
X100039000Y-64681509D03*
X99251600Y-67831109D03*
X99251600Y-67043709D03*
X99251600Y-66256309D03*
X99251600Y-65468909D03*
X99251600Y-64681509D03*
X98464200Y-67831109D03*
X98464200Y-67043709D03*
X98464200Y-66256309D03*
X98464200Y-65468909D03*
X98464200Y-64681509D03*
D11*
X169000000Y-89013400D03*
X63660000Y-89013400D03*
D13*
X68890000Y-85770000D03*
X74670000Y-85770000D03*
D14*
X67460000Y-85240000D03*
D15*
X67460000Y-89420000D03*
D14*
X76100000Y-85240000D03*
D15*
X76100000Y-89420000D03*
D16*
X170450000Y-81050000D03*
X170450000Y-83350000D03*
X114290000Y-89940000D03*
X111990000Y-89940000D03*
X102570000Y-89940000D03*
X100270000Y-89940000D03*
X90850000Y-89940000D03*
X88550000Y-89940000D03*
D11*
X63660000Y-26000000D03*
D17*
X155125000Y-90307500D03*
X149765000Y-90307500D03*
D18*
X72440000Y-28070000D03*
D19*
X74980000Y-28070000D03*
X77520000Y-28070000D03*
X80060000Y-28070000D03*
X82600000Y-28070000D03*
X85140000Y-28070000D03*
M02*
